G04 #@! TF.GenerationSoftware,KiCad,Pcbnew,(5.0.1-3-g963ef8bb5)*
G04 #@! TF.CreationDate,2019-03-07T12:24:47-08:00*
G04 #@! TF.ProjectId,Pre-amp,5072652D616D702E6B696361645F7063,rev?*
G04 #@! TF.SameCoordinates,Original*
G04 #@! TF.FileFunction,Legend,Top*
G04 #@! TF.FilePolarity,Positive*
%FSLAX46Y46*%
G04 Gerber Fmt 4.6, Leading zero omitted, Abs format (unit mm)*
G04 Created by KiCad (PCBNEW (5.0.1-3-g963ef8bb5)) date Thursday, March 07, 2019 at 12:24:47 PM*
%MOMM*%
%LPD*%
G01*
G04 APERTURE LIST*
%ADD10C,0.100000*%
%ADD11C,0.200000*%
%ADD12C,0.120000*%
%ADD13C,0.152400*%
%ADD14C,0.150000*%
%ADD15C,0.050000*%
G04 APERTURE END LIST*
D10*
X85146190Y-92832380D02*
X85146190Y-91832380D01*
X85479523Y-92546666D01*
X85812857Y-91832380D01*
X85812857Y-92832380D01*
X86193809Y-91832380D02*
X86860476Y-92832380D01*
X86860476Y-91832380D02*
X86193809Y-92832380D01*
X87241428Y-92832380D02*
X87241428Y-91832380D01*
X87574761Y-92546666D01*
X87908095Y-91832380D01*
X87908095Y-92832380D01*
X89146190Y-92832380D02*
X89146190Y-91832380D01*
X89384285Y-91832380D01*
X89527142Y-91880000D01*
X89622380Y-91975238D01*
X89670000Y-92070476D01*
X89717619Y-92260952D01*
X89717619Y-92403809D01*
X89670000Y-92594285D01*
X89622380Y-92689523D01*
X89527142Y-92784761D01*
X89384285Y-92832380D01*
X89146190Y-92832380D01*
X90527142Y-92784761D02*
X90431904Y-92832380D01*
X90241428Y-92832380D01*
X90146190Y-92784761D01*
X90098571Y-92689523D01*
X90098571Y-92308571D01*
X90146190Y-92213333D01*
X90241428Y-92165714D01*
X90431904Y-92165714D01*
X90527142Y-92213333D01*
X90574761Y-92308571D01*
X90574761Y-92403809D01*
X90098571Y-92499047D01*
X90955714Y-92784761D02*
X91050952Y-92832380D01*
X91241428Y-92832380D01*
X91336666Y-92784761D01*
X91384285Y-92689523D01*
X91384285Y-92641904D01*
X91336666Y-92546666D01*
X91241428Y-92499047D01*
X91098571Y-92499047D01*
X91003333Y-92451428D01*
X90955714Y-92356190D01*
X90955714Y-92308571D01*
X91003333Y-92213333D01*
X91098571Y-92165714D01*
X91241428Y-92165714D01*
X91336666Y-92213333D01*
X91812857Y-92832380D02*
X91812857Y-92165714D01*
X91812857Y-91832380D02*
X91765238Y-91880000D01*
X91812857Y-91927619D01*
X91860476Y-91880000D01*
X91812857Y-91832380D01*
X91812857Y-91927619D01*
X92717619Y-92165714D02*
X92717619Y-92975238D01*
X92670000Y-93070476D01*
X92622380Y-93118095D01*
X92527142Y-93165714D01*
X92384285Y-93165714D01*
X92289047Y-93118095D01*
X92717619Y-92784761D02*
X92622380Y-92832380D01*
X92431904Y-92832380D01*
X92336666Y-92784761D01*
X92289047Y-92737142D01*
X92241428Y-92641904D01*
X92241428Y-92356190D01*
X92289047Y-92260952D01*
X92336666Y-92213333D01*
X92431904Y-92165714D01*
X92622380Y-92165714D01*
X92717619Y-92213333D01*
X93193809Y-92165714D02*
X93193809Y-92832380D01*
X93193809Y-92260952D02*
X93241428Y-92213333D01*
X93336666Y-92165714D01*
X93479523Y-92165714D01*
X93574761Y-92213333D01*
X93622380Y-92308571D01*
X93622380Y-92832380D01*
X94050952Y-92784761D02*
X94146190Y-92832380D01*
X94336666Y-92832380D01*
X94431904Y-92784761D01*
X94479523Y-92689523D01*
X94479523Y-92641904D01*
X94431904Y-92546666D01*
X94336666Y-92499047D01*
X94193809Y-92499047D01*
X94098571Y-92451428D01*
X94050952Y-92356190D01*
X94050952Y-92308571D01*
X94098571Y-92213333D01*
X94193809Y-92165714D01*
X94336666Y-92165714D01*
X94431904Y-92213333D01*
X87003333Y-94432380D02*
X87003333Y-93432380D01*
X87384285Y-93432380D01*
X87479523Y-93480000D01*
X87527142Y-93527619D01*
X87574761Y-93622857D01*
X87574761Y-93765714D01*
X87527142Y-93860952D01*
X87479523Y-93908571D01*
X87384285Y-93956190D01*
X87003333Y-93956190D01*
X88003333Y-94432380D02*
X88003333Y-93765714D01*
X88003333Y-93956190D02*
X88050952Y-93860952D01*
X88098571Y-93813333D01*
X88193809Y-93765714D01*
X88289047Y-93765714D01*
X89003333Y-94384761D02*
X88908095Y-94432380D01*
X88717619Y-94432380D01*
X88622380Y-94384761D01*
X88574761Y-94289523D01*
X88574761Y-93908571D01*
X88622380Y-93813333D01*
X88717619Y-93765714D01*
X88908095Y-93765714D01*
X89003333Y-93813333D01*
X89050952Y-93908571D01*
X89050952Y-94003809D01*
X88574761Y-94099047D01*
X89479523Y-94051428D02*
X90241428Y-94051428D01*
X90670000Y-94146666D02*
X91146190Y-94146666D01*
X90574761Y-94432380D02*
X90908095Y-93432380D01*
X91241428Y-94432380D01*
X91574761Y-94432380D02*
X91574761Y-93765714D01*
X91574761Y-93860952D02*
X91622380Y-93813333D01*
X91717619Y-93765714D01*
X91860476Y-93765714D01*
X91955714Y-93813333D01*
X92003333Y-93908571D01*
X92003333Y-94432380D01*
X92003333Y-93908571D02*
X92050952Y-93813333D01*
X92146190Y-93765714D01*
X92289047Y-93765714D01*
X92384285Y-93813333D01*
X92431904Y-93908571D01*
X92431904Y-94432380D01*
X92908095Y-93765714D02*
X92908095Y-94765714D01*
X92908095Y-93813333D02*
X93003333Y-93765714D01*
X93193809Y-93765714D01*
X93289047Y-93813333D01*
X93336666Y-93860952D01*
X93384285Y-93956190D01*
X93384285Y-94241904D01*
X93336666Y-94337142D01*
X93289047Y-94384761D01*
X93193809Y-94432380D01*
X93003333Y-94432380D01*
X92908095Y-94384761D01*
X84884285Y-95365714D02*
X85122380Y-96032380D01*
X85360476Y-95365714D01*
X86265238Y-96032380D02*
X85693809Y-96032380D01*
X85979523Y-96032380D02*
X85979523Y-95032380D01*
X85884285Y-95175238D01*
X85789047Y-95270476D01*
X85693809Y-95318095D01*
X86693809Y-95937142D02*
X86741428Y-95984761D01*
X86693809Y-96032380D01*
X86646190Y-95984761D01*
X86693809Y-95937142D01*
X86693809Y-96032380D01*
X87360476Y-95032380D02*
X87455714Y-95032380D01*
X87550952Y-95080000D01*
X87598571Y-95127619D01*
X87646190Y-95222857D01*
X87693809Y-95413333D01*
X87693809Y-95651428D01*
X87646190Y-95841904D01*
X87598571Y-95937142D01*
X87550952Y-95984761D01*
X87455714Y-96032380D01*
X87360476Y-96032380D01*
X87265238Y-95984761D01*
X87217619Y-95937142D01*
X87170000Y-95841904D01*
X87122380Y-95651428D01*
X87122380Y-95413333D01*
X87170000Y-95222857D01*
X87217619Y-95127619D01*
X87265238Y-95080000D01*
X87360476Y-95032380D01*
X89074761Y-95032380D02*
X89170000Y-95032380D01*
X89265238Y-95080000D01*
X89312857Y-95127619D01*
X89360476Y-95222857D01*
X89408095Y-95413333D01*
X89408095Y-95651428D01*
X89360476Y-95841904D01*
X89312857Y-95937142D01*
X89265238Y-95984761D01*
X89170000Y-96032380D01*
X89074761Y-96032380D01*
X88979523Y-95984761D01*
X88931904Y-95937142D01*
X88884285Y-95841904D01*
X88836666Y-95651428D01*
X88836666Y-95413333D01*
X88884285Y-95222857D01*
X88931904Y-95127619D01*
X88979523Y-95080000D01*
X89074761Y-95032380D01*
X89741428Y-95032380D02*
X90360476Y-95032380D01*
X90027142Y-95413333D01*
X90170000Y-95413333D01*
X90265238Y-95460952D01*
X90312857Y-95508571D01*
X90360476Y-95603809D01*
X90360476Y-95841904D01*
X90312857Y-95937142D01*
X90265238Y-95984761D01*
X90170000Y-96032380D01*
X89884285Y-96032380D01*
X89789047Y-95984761D01*
X89741428Y-95937142D01*
X90789047Y-95651428D02*
X91550952Y-95651428D01*
X91979523Y-95127619D02*
X92027142Y-95080000D01*
X92122380Y-95032380D01*
X92360476Y-95032380D01*
X92455714Y-95080000D01*
X92503333Y-95127619D01*
X92550952Y-95222857D01*
X92550952Y-95318095D01*
X92503333Y-95460952D01*
X91931904Y-96032380D01*
X92550952Y-96032380D01*
X93170000Y-95032380D02*
X93265238Y-95032380D01*
X93360476Y-95080000D01*
X93408095Y-95127619D01*
X93455714Y-95222857D01*
X93503333Y-95413333D01*
X93503333Y-95651428D01*
X93455714Y-95841904D01*
X93408095Y-95937142D01*
X93360476Y-95984761D01*
X93265238Y-96032380D01*
X93170000Y-96032380D01*
X93074761Y-95984761D01*
X93027142Y-95937142D01*
X92979523Y-95841904D01*
X92931904Y-95651428D01*
X92931904Y-95413333D01*
X92979523Y-95222857D01*
X93027142Y-95127619D01*
X93074761Y-95080000D01*
X93170000Y-95032380D01*
X94455714Y-96032380D02*
X93884285Y-96032380D01*
X94170000Y-96032380D02*
X94170000Y-95032380D01*
X94074761Y-95175238D01*
X93979523Y-95270476D01*
X93884285Y-95318095D01*
X94931904Y-96032380D02*
X95122380Y-96032380D01*
X95217619Y-95984761D01*
X95265238Y-95937142D01*
X95360476Y-95794285D01*
X95408095Y-95603809D01*
X95408095Y-95222857D01*
X95360476Y-95127619D01*
X95312857Y-95080000D01*
X95217619Y-95032380D01*
X95027142Y-95032380D01*
X94931904Y-95080000D01*
X94884285Y-95127619D01*
X94836666Y-95222857D01*
X94836666Y-95460952D01*
X94884285Y-95556190D01*
X94931904Y-95603809D01*
X95027142Y-95651428D01*
X95217619Y-95651428D01*
X95312857Y-95603809D01*
X95360476Y-95556190D01*
X95408095Y-95460952D01*
D11*
X152170000Y-98238571D02*
X152455714Y-98238571D01*
X152598571Y-98310000D01*
X152741428Y-98452857D01*
X152812857Y-98738571D01*
X152812857Y-99238571D01*
X152741428Y-99524285D01*
X152598571Y-99667142D01*
X152455714Y-99738571D01*
X152170000Y-99738571D01*
X152027142Y-99667142D01*
X151884285Y-99524285D01*
X151812857Y-99238571D01*
X151812857Y-98738571D01*
X151884285Y-98452857D01*
X152027142Y-98310000D01*
X152170000Y-98238571D01*
X153455714Y-98238571D02*
X153455714Y-99452857D01*
X153527142Y-99595714D01*
X153598571Y-99667142D01*
X153741428Y-99738571D01*
X154027142Y-99738571D01*
X154170000Y-99667142D01*
X154241428Y-99595714D01*
X154312857Y-99452857D01*
X154312857Y-98238571D01*
X154812857Y-98238571D02*
X155670000Y-98238571D01*
X155241428Y-99738571D02*
X155241428Y-98238571D01*
X122622857Y-97198571D02*
X122122857Y-96484285D01*
X121765714Y-97198571D02*
X121765714Y-95698571D01*
X122337142Y-95698571D01*
X122480000Y-95770000D01*
X122551428Y-95841428D01*
X122622857Y-95984285D01*
X122622857Y-96198571D01*
X122551428Y-96341428D01*
X122480000Y-96412857D01*
X122337142Y-96484285D01*
X121765714Y-96484285D01*
X123265714Y-96412857D02*
X123765714Y-96412857D01*
X123980000Y-97198571D02*
X123265714Y-97198571D01*
X123265714Y-95698571D01*
X123980000Y-95698571D01*
X124408571Y-95698571D02*
X125265714Y-95698571D01*
X124837142Y-97198571D02*
X124837142Y-95698571D01*
X125765714Y-95698571D02*
X125765714Y-96912857D01*
X125837142Y-97055714D01*
X125908571Y-97127142D01*
X126051428Y-97198571D01*
X126337142Y-97198571D01*
X126480000Y-97127142D01*
X126551428Y-97055714D01*
X126622857Y-96912857D01*
X126622857Y-95698571D01*
X128194285Y-97198571D02*
X127694285Y-96484285D01*
X127337142Y-97198571D02*
X127337142Y-95698571D01*
X127908571Y-95698571D01*
X128051428Y-95770000D01*
X128122857Y-95841428D01*
X128194285Y-95984285D01*
X128194285Y-96198571D01*
X128122857Y-96341428D01*
X128051428Y-96412857D01*
X127908571Y-96484285D01*
X127337142Y-96484285D01*
X128837142Y-97198571D02*
X128837142Y-95698571D01*
X129694285Y-97198571D01*
X129694285Y-95698571D01*
X109117142Y-97127142D02*
X109331428Y-97198571D01*
X109688571Y-97198571D01*
X109831428Y-97127142D01*
X109902857Y-97055714D01*
X109974285Y-96912857D01*
X109974285Y-96770000D01*
X109902857Y-96627142D01*
X109831428Y-96555714D01*
X109688571Y-96484285D01*
X109402857Y-96412857D01*
X109260000Y-96341428D01*
X109188571Y-96270000D01*
X109117142Y-96127142D01*
X109117142Y-95984285D01*
X109188571Y-95841428D01*
X109260000Y-95770000D01*
X109402857Y-95698571D01*
X109760000Y-95698571D01*
X109974285Y-95770000D01*
X110617142Y-96412857D02*
X111117142Y-96412857D01*
X111331428Y-97198571D02*
X110617142Y-97198571D01*
X110617142Y-95698571D01*
X111331428Y-95698571D01*
X111974285Y-97198571D02*
X111974285Y-95698571D01*
X112831428Y-97198571D01*
X112831428Y-95698571D01*
X113545714Y-97198571D02*
X113545714Y-95698571D01*
X113902857Y-95698571D01*
X114117142Y-95770000D01*
X114260000Y-95912857D01*
X114331428Y-96055714D01*
X114402857Y-96341428D01*
X114402857Y-96555714D01*
X114331428Y-96841428D01*
X114260000Y-96984285D01*
X114117142Y-97127142D01*
X113902857Y-97198571D01*
X113545714Y-97198571D01*
X85574285Y-89578571D02*
X85574285Y-88078571D01*
X86288571Y-89578571D02*
X86288571Y-88078571D01*
X87145714Y-89578571D01*
X87145714Y-88078571D01*
X89440000Y-99738571D02*
X89440000Y-98238571D01*
X90011428Y-98238571D01*
X90154285Y-98310000D01*
X90225714Y-98381428D01*
X90297142Y-98524285D01*
X90297142Y-98738571D01*
X90225714Y-98881428D01*
X90154285Y-98952857D01*
X90011428Y-99024285D01*
X89440000Y-99024285D01*
X90797142Y-98238571D02*
X91154285Y-99738571D01*
X91440000Y-98667142D01*
X91725714Y-99738571D01*
X92082857Y-98238571D01*
X93511428Y-99738571D02*
X93011428Y-99024285D01*
X92654285Y-99738571D02*
X92654285Y-98238571D01*
X93225714Y-98238571D01*
X93368571Y-98310000D01*
X93440000Y-98381428D01*
X93511428Y-98524285D01*
X93511428Y-98738571D01*
X93440000Y-98881428D01*
X93368571Y-98952857D01*
X93225714Y-99024285D01*
X92654285Y-99024285D01*
D12*
G04 #@! TO.C,C1*
X96000000Y-59780000D02*
X96000000Y-57060000D01*
X96000000Y-57060000D02*
X92080000Y-57060000D01*
X92080000Y-57060000D02*
X92080000Y-59780000D01*
X92080000Y-59780000D02*
X96000000Y-59780000D01*
X96810000Y-58420000D02*
X96000000Y-58420000D01*
X91270000Y-58420000D02*
X92080000Y-58420000D01*
G04 #@! TO.C,C2*
X93980000Y-70140000D02*
X93980000Y-69330000D01*
X93980000Y-64600000D02*
X93980000Y-65410000D01*
X95340000Y-69330000D02*
X95340000Y-65410000D01*
X92620000Y-69330000D02*
X95340000Y-69330000D01*
X92620000Y-65410000D02*
X92620000Y-69330000D01*
X95340000Y-65410000D02*
X92620000Y-65410000D01*
G04 #@! TO.C,C3*
X112860000Y-58420000D02*
X113670000Y-58420000D01*
X118400000Y-58420000D02*
X117590000Y-58420000D01*
X113670000Y-59780000D02*
X117590000Y-59780000D01*
X113670000Y-57060000D02*
X113670000Y-59780000D01*
X117590000Y-57060000D02*
X113670000Y-57060000D01*
X117590000Y-59780000D02*
X117590000Y-57060000D01*
G04 #@! TO.C,C4*
X116930000Y-65290000D02*
X114210000Y-65290000D01*
X114210000Y-65290000D02*
X114210000Y-69210000D01*
X114210000Y-69210000D02*
X116930000Y-69210000D01*
X116930000Y-69210000D02*
X116930000Y-65290000D01*
X115570000Y-64480000D02*
X115570000Y-65290000D01*
X115570000Y-70020000D02*
X115570000Y-69210000D01*
G04 #@! TO.C,C5*
X136520000Y-59780000D02*
X136520000Y-57060000D01*
X136520000Y-57060000D02*
X132600000Y-57060000D01*
X132600000Y-57060000D02*
X132600000Y-59780000D01*
X132600000Y-59780000D02*
X136520000Y-59780000D01*
X137330000Y-58420000D02*
X136520000Y-58420000D01*
X131790000Y-58420000D02*
X132600000Y-58420000D01*
G04 #@! TO.C,C6*
X134620000Y-70020000D02*
X134620000Y-69210000D01*
X134620000Y-64480000D02*
X134620000Y-65290000D01*
X135980000Y-69210000D02*
X135980000Y-65290000D01*
X133260000Y-69210000D02*
X135980000Y-69210000D01*
X133260000Y-65290000D02*
X133260000Y-69210000D01*
X135980000Y-65290000D02*
X133260000Y-65290000D01*
G04 #@! TO.C,C7*
X150960000Y-58420000D02*
X151770000Y-58420000D01*
X156500000Y-58420000D02*
X155690000Y-58420000D01*
X151770000Y-59780000D02*
X155690000Y-59780000D01*
X151770000Y-57060000D02*
X151770000Y-59780000D01*
X155690000Y-57060000D02*
X151770000Y-57060000D01*
X155690000Y-59780000D02*
X155690000Y-57060000D01*
G04 #@! TO.C,C8*
X155030000Y-65290000D02*
X152310000Y-65290000D01*
X152310000Y-65290000D02*
X152310000Y-69210000D01*
X152310000Y-69210000D02*
X155030000Y-69210000D01*
X155030000Y-69210000D02*
X155030000Y-65290000D01*
X153670000Y-64480000D02*
X153670000Y-65290000D01*
X153670000Y-70020000D02*
X153670000Y-69210000D01*
G04 #@! TO.C,C9*
X142530000Y-80010000D02*
X141720000Y-80010000D01*
X136990000Y-80010000D02*
X137800000Y-80010000D01*
X141720000Y-78650000D02*
X137800000Y-78650000D01*
X141720000Y-81370000D02*
X141720000Y-78650000D01*
X137800000Y-81370000D02*
X141720000Y-81370000D01*
X137800000Y-78650000D02*
X137800000Y-81370000D01*
G04 #@! TO.C,C10*
X123830000Y-91350000D02*
X123830000Y-94070000D01*
X123830000Y-94070000D02*
X127750000Y-94070000D01*
X127750000Y-94070000D02*
X127750000Y-91350000D01*
X127750000Y-91350000D02*
X123830000Y-91350000D01*
X123020000Y-92710000D02*
X123830000Y-92710000D01*
X128560000Y-92710000D02*
X127750000Y-92710000D01*
G04 #@! TO.C,D1*
X152250000Y-82640000D02*
X152250000Y-79920000D01*
X149470000Y-79920000D02*
X149470000Y-80100000D01*
X152790000Y-79920000D02*
X149470000Y-79920000D01*
X152790000Y-80100000D02*
X152790000Y-79920000D01*
X149470000Y-82640000D02*
X149470000Y-82460000D01*
X152790000Y-82640000D02*
X149470000Y-82640000D01*
X152790000Y-82460000D02*
X152790000Y-82640000D01*
G04 #@! TO.C,D2*
X161680000Y-82460000D02*
X161680000Y-82640000D01*
X161680000Y-82640000D02*
X158360000Y-82640000D01*
X158360000Y-82640000D02*
X158360000Y-82460000D01*
X161680000Y-80100000D02*
X161680000Y-79920000D01*
X161680000Y-79920000D02*
X158360000Y-79920000D01*
X158360000Y-79920000D02*
X158360000Y-80100000D01*
X161140000Y-82640000D02*
X161140000Y-79920000D01*
G04 #@! TO.C,J1*
X85300000Y-81300000D02*
X86360000Y-81300000D01*
X85300000Y-82360000D02*
X85300000Y-81300000D01*
X85300000Y-83360000D02*
X87420000Y-83360000D01*
X87420000Y-83360000D02*
X87420000Y-87420000D01*
X85300000Y-83360000D02*
X85300000Y-87420000D01*
X85300000Y-87420000D02*
X87420000Y-87420000D01*
G04 #@! TO.C,J2*
X114280000Y-100120000D02*
X114280000Y-98000000D01*
X110220000Y-100120000D02*
X114280000Y-100120000D01*
X110220000Y-98000000D02*
X114280000Y-98000000D01*
X110220000Y-100120000D02*
X110220000Y-98000000D01*
X109220000Y-100120000D02*
X108160000Y-100120000D01*
X108160000Y-100120000D02*
X108160000Y-99060000D01*
G04 #@! TO.C,J3*
X122130000Y-100120000D02*
X122130000Y-99060000D01*
X123190000Y-100120000D02*
X122130000Y-100120000D01*
X124190000Y-100120000D02*
X124190000Y-98000000D01*
X124190000Y-98000000D02*
X128250000Y-98000000D01*
X124190000Y-100120000D02*
X128250000Y-100120000D01*
X128250000Y-100120000D02*
X128250000Y-98000000D01*
G04 #@! TO.C,J4*
X142990000Y-98000000D02*
X142990000Y-100120000D01*
X147050000Y-98000000D02*
X142990000Y-98000000D01*
X147050000Y-100120000D02*
X142990000Y-100120000D01*
X147050000Y-98000000D02*
X147050000Y-100120000D01*
X148050000Y-98000000D02*
X149110000Y-98000000D01*
X149110000Y-98000000D02*
X149110000Y-99060000D01*
G04 #@! TO.C,R1*
X88040000Y-64180000D02*
X88040000Y-67900000D01*
X89760000Y-64180000D02*
X89760000Y-67900000D01*
G04 #@! TO.C,R2*
X90760000Y-74070000D02*
X87040000Y-74070000D01*
X90760000Y-75790000D02*
X87040000Y-75790000D01*
G04 #@! TO.C,R3*
X100920000Y-75790000D02*
X97200000Y-75790000D01*
X100920000Y-74070000D02*
X97200000Y-74070000D01*
G04 #@! TO.C,R4*
X98200000Y-67900000D02*
X98200000Y-64180000D01*
X99920000Y-67900000D02*
X99920000Y-64180000D01*
G04 #@! TO.C,R5*
X105820000Y-67900000D02*
X105820000Y-64180000D01*
X107540000Y-67900000D02*
X107540000Y-64180000D01*
G04 #@! TO.C,R6*
X107540000Y-57740000D02*
X107540000Y-54020000D01*
X105820000Y-57740000D02*
X105820000Y-54020000D01*
G04 #@! TO.C,R7*
X110900000Y-67900000D02*
X110900000Y-64180000D01*
X112620000Y-67900000D02*
X112620000Y-64180000D01*
G04 #@! TO.C,R8*
X112350000Y-74070000D02*
X108630000Y-74070000D01*
X112350000Y-75790000D02*
X108630000Y-75790000D01*
G04 #@! TO.C,R9*
X121510000Y-67900000D02*
X121510000Y-64180000D01*
X119790000Y-67900000D02*
X119790000Y-64180000D01*
G04 #@! TO.C,R10*
X122510000Y-75790000D02*
X118790000Y-75790000D01*
X122510000Y-74070000D02*
X118790000Y-74070000D01*
G04 #@! TO.C,R11*
X122330000Y-57740000D02*
X122330000Y-54020000D01*
X124050000Y-57740000D02*
X124050000Y-54020000D01*
G04 #@! TO.C,R12*
X127410000Y-64180000D02*
X127410000Y-67900000D01*
X129130000Y-64180000D02*
X129130000Y-67900000D01*
G04 #@! TO.C,R13*
X131400000Y-74070000D02*
X127680000Y-74070000D01*
X131400000Y-75790000D02*
X127680000Y-75790000D01*
G04 #@! TO.C,R14*
X141560000Y-75790000D02*
X137840000Y-75790000D01*
X141560000Y-74070000D02*
X137840000Y-74070000D01*
G04 #@! TO.C,R15*
X140110000Y-67900000D02*
X140110000Y-64180000D01*
X141830000Y-67900000D02*
X141830000Y-64180000D01*
G04 #@! TO.C,R16*
X146460000Y-64180000D02*
X146460000Y-67900000D01*
X148180000Y-64180000D02*
X148180000Y-67900000D01*
G04 #@! TO.C,R17*
X150450000Y-74070000D02*
X146730000Y-74070000D01*
X150450000Y-75790000D02*
X146730000Y-75790000D01*
G04 #@! TO.C,R18*
X159160000Y-67900000D02*
X159160000Y-64180000D01*
X160880000Y-67900000D02*
X160880000Y-64180000D01*
G04 #@! TO.C,R19*
X159340000Y-75790000D02*
X155620000Y-75790000D01*
X159340000Y-74070000D02*
X155620000Y-74070000D01*
G04 #@! TO.C,R20*
X136750000Y-89490000D02*
X136750000Y-85770000D01*
X135030000Y-89490000D02*
X135030000Y-85770000D01*
G04 #@! TO.C,R21*
X108630000Y-89310000D02*
X112350000Y-89310000D01*
X108630000Y-91030000D02*
X112350000Y-91030000D01*
G04 #@! TO.C,R22*
X145190000Y-85770000D02*
X145190000Y-89490000D01*
X146910000Y-85770000D02*
X146910000Y-89490000D01*
G04 #@! TO.C,R23*
X149000000Y-85770000D02*
X149000000Y-89490000D01*
X150720000Y-85770000D02*
X150720000Y-89490000D01*
G04 #@! TO.C,R24*
X147910000Y-96110000D02*
X144190000Y-96110000D01*
X147910000Y-94390000D02*
X144190000Y-94390000D01*
G04 #@! TO.C,R25*
X140110000Y-85770000D02*
X140110000Y-89490000D01*
X141830000Y-85770000D02*
X141830000Y-89490000D01*
G04 #@! TO.C,R26*
X137750000Y-99920000D02*
X134030000Y-99920000D01*
X137750000Y-98200000D02*
X134030000Y-98200000D01*
G04 #@! TO.C,RV1*
X92330000Y-53720000D02*
X91310000Y-53720000D01*
X91310000Y-53720000D02*
X91310000Y-52320000D01*
X95630000Y-53720000D02*
X96650000Y-53720000D01*
X96650000Y-53720000D02*
X96650000Y-52320000D01*
X93980000Y-52960000D02*
X93980000Y-52320000D01*
X93980000Y-52960000D02*
X93470000Y-52450000D01*
X93980000Y-52960000D02*
X94490000Y-52450000D01*
X95630000Y-52960000D02*
X95630000Y-54360000D01*
X95630000Y-54360000D02*
X92330000Y-54360000D01*
X92330000Y-54360000D02*
X92330000Y-52960000D01*
X92330000Y-52960000D02*
X95630000Y-52960000D01*
G04 #@! TO.C,RV2*
X113920000Y-52960000D02*
X117220000Y-52960000D01*
X113920000Y-54360000D02*
X113920000Y-52960000D01*
X117220000Y-54360000D02*
X113920000Y-54360000D01*
X117220000Y-52960000D02*
X117220000Y-54360000D01*
X115570000Y-52960000D02*
X116080000Y-52450000D01*
X115570000Y-52960000D02*
X115060000Y-52450000D01*
X115570000Y-52960000D02*
X115570000Y-52320000D01*
X118240000Y-53720000D02*
X118240000Y-52320000D01*
X117220000Y-53720000D02*
X118240000Y-53720000D01*
X112900000Y-53720000D02*
X112900000Y-52320000D01*
X113920000Y-53720000D02*
X112900000Y-53720000D01*
G04 #@! TO.C,RV3*
X132970000Y-53720000D02*
X131950000Y-53720000D01*
X131950000Y-53720000D02*
X131950000Y-52320000D01*
X136270000Y-53720000D02*
X137290000Y-53720000D01*
X137290000Y-53720000D02*
X137290000Y-52320000D01*
X134620000Y-52960000D02*
X134620000Y-52320000D01*
X134620000Y-52960000D02*
X134110000Y-52450000D01*
X134620000Y-52960000D02*
X135130000Y-52450000D01*
X136270000Y-52960000D02*
X136270000Y-54360000D01*
X136270000Y-54360000D02*
X132970000Y-54360000D01*
X132970000Y-54360000D02*
X132970000Y-52960000D01*
X132970000Y-52960000D02*
X136270000Y-52960000D01*
G04 #@! TO.C,RV4*
X152020000Y-52960000D02*
X155320000Y-52960000D01*
X152020000Y-54360000D02*
X152020000Y-52960000D01*
X155320000Y-54360000D02*
X152020000Y-54360000D01*
X155320000Y-52960000D02*
X155320000Y-54360000D01*
X153670000Y-52960000D02*
X154180000Y-52450000D01*
X153670000Y-52960000D02*
X153160000Y-52450000D01*
X153670000Y-52960000D02*
X153670000Y-52320000D01*
X156340000Y-53720000D02*
X156340000Y-52320000D01*
X155320000Y-53720000D02*
X156340000Y-53720000D01*
X151000000Y-53720000D02*
X151000000Y-52320000D01*
X152020000Y-53720000D02*
X151000000Y-53720000D01*
D13*
G04 #@! TO.C,U1*
X96850200Y-88900000D02*
X103809800Y-88900000D01*
X103809800Y-78740000D02*
X100634800Y-78740000D01*
X100634800Y-78740000D02*
X100025200Y-78740000D01*
X100025200Y-78740000D02*
X97663000Y-78740000D01*
X100634800Y-78740000D02*
G75*
G02X100025200Y-78740000I-304800J0D01*
G01*
G04 #@! TO.C,U2*
X119380000Y-80340200D02*
X119380000Y-87299800D01*
X129540000Y-87299800D02*
X129540000Y-84124800D01*
X129540000Y-84124800D02*
X129540000Y-83515200D01*
X129540000Y-83515200D02*
X129540000Y-81153000D01*
X129540000Y-84124800D02*
G75*
G02X129540000Y-83515200I0J304800D01*
G01*
G04 #@! TO.C,U3*
X159054800Y-86360000D02*
G75*
G02X158445200Y-86360000I-304800J0D01*
G01*
X158445200Y-86360000D02*
X156083000Y-86360000D01*
X159054800Y-86360000D02*
X158445200Y-86360000D01*
X162229800Y-86360000D02*
X159054800Y-86360000D01*
X155270200Y-96520000D02*
X162229800Y-96520000D01*
D12*
G04 #@! TO.C,J5*
X100120000Y-98000000D02*
X100120000Y-99060000D01*
X99060000Y-98000000D02*
X100120000Y-98000000D01*
X98060000Y-98000000D02*
X98060000Y-100120000D01*
X98060000Y-100120000D02*
X94000000Y-100120000D01*
X98060000Y-98000000D02*
X94000000Y-98000000D01*
X94000000Y-98000000D02*
X94000000Y-100120000D01*
G04 #@! TO.C,C1*
D14*
X93873333Y-61137142D02*
X93825714Y-61184761D01*
X93682857Y-61232380D01*
X93587619Y-61232380D01*
X93444761Y-61184761D01*
X93349523Y-61089523D01*
X93301904Y-60994285D01*
X93254285Y-60803809D01*
X93254285Y-60660952D01*
X93301904Y-60470476D01*
X93349523Y-60375238D01*
X93444761Y-60280000D01*
X93587619Y-60232380D01*
X93682857Y-60232380D01*
X93825714Y-60280000D01*
X93873333Y-60327619D01*
X94825714Y-61232380D02*
X94254285Y-61232380D01*
X94540000Y-61232380D02*
X94540000Y-60232380D01*
X94444761Y-60375238D01*
X94349523Y-60470476D01*
X94254285Y-60518095D01*
G04 #@! TO.C,C2*
X94337142Y-67536666D02*
X94384761Y-67584285D01*
X94432380Y-67727142D01*
X94432380Y-67822380D01*
X94384761Y-67965238D01*
X94289523Y-68060476D01*
X94194285Y-68108095D01*
X94003809Y-68155714D01*
X93860952Y-68155714D01*
X93670476Y-68108095D01*
X93575238Y-68060476D01*
X93480000Y-67965238D01*
X93432380Y-67822380D01*
X93432380Y-67727142D01*
X93480000Y-67584285D01*
X93527619Y-67536666D01*
X93527619Y-67155714D02*
X93480000Y-67108095D01*
X93432380Y-67012857D01*
X93432380Y-66774761D01*
X93480000Y-66679523D01*
X93527619Y-66631904D01*
X93622857Y-66584285D01*
X93718095Y-66584285D01*
X93860952Y-66631904D01*
X94432380Y-67203333D01*
X94432380Y-66584285D01*
G04 #@! TO.C,C3*
X115463333Y-61137142D02*
X115415714Y-61184761D01*
X115272857Y-61232380D01*
X115177619Y-61232380D01*
X115034761Y-61184761D01*
X114939523Y-61089523D01*
X114891904Y-60994285D01*
X114844285Y-60803809D01*
X114844285Y-60660952D01*
X114891904Y-60470476D01*
X114939523Y-60375238D01*
X115034761Y-60280000D01*
X115177619Y-60232380D01*
X115272857Y-60232380D01*
X115415714Y-60280000D01*
X115463333Y-60327619D01*
X115796666Y-60232380D02*
X116415714Y-60232380D01*
X116082380Y-60613333D01*
X116225238Y-60613333D01*
X116320476Y-60660952D01*
X116368095Y-60708571D01*
X116415714Y-60803809D01*
X116415714Y-61041904D01*
X116368095Y-61137142D01*
X116320476Y-61184761D01*
X116225238Y-61232380D01*
X115939523Y-61232380D01*
X115844285Y-61184761D01*
X115796666Y-61137142D01*
G04 #@! TO.C,C4*
X115927142Y-67476666D02*
X115974761Y-67524285D01*
X116022380Y-67667142D01*
X116022380Y-67762380D01*
X115974761Y-67905238D01*
X115879523Y-68000476D01*
X115784285Y-68048095D01*
X115593809Y-68095714D01*
X115450952Y-68095714D01*
X115260476Y-68048095D01*
X115165238Y-68000476D01*
X115070000Y-67905238D01*
X115022380Y-67762380D01*
X115022380Y-67667142D01*
X115070000Y-67524285D01*
X115117619Y-67476666D01*
X115355714Y-66619523D02*
X116022380Y-66619523D01*
X114974761Y-66857619D02*
X115689047Y-67095714D01*
X115689047Y-66476666D01*
G04 #@! TO.C,C5*
X134393333Y-61137142D02*
X134345714Y-61184761D01*
X134202857Y-61232380D01*
X134107619Y-61232380D01*
X133964761Y-61184761D01*
X133869523Y-61089523D01*
X133821904Y-60994285D01*
X133774285Y-60803809D01*
X133774285Y-60660952D01*
X133821904Y-60470476D01*
X133869523Y-60375238D01*
X133964761Y-60280000D01*
X134107619Y-60232380D01*
X134202857Y-60232380D01*
X134345714Y-60280000D01*
X134393333Y-60327619D01*
X135298095Y-60232380D02*
X134821904Y-60232380D01*
X134774285Y-60708571D01*
X134821904Y-60660952D01*
X134917142Y-60613333D01*
X135155238Y-60613333D01*
X135250476Y-60660952D01*
X135298095Y-60708571D01*
X135345714Y-60803809D01*
X135345714Y-61041904D01*
X135298095Y-61137142D01*
X135250476Y-61184761D01*
X135155238Y-61232380D01*
X134917142Y-61232380D01*
X134821904Y-61184761D01*
X134774285Y-61137142D01*
G04 #@! TO.C,C6*
X134977142Y-67416666D02*
X135024761Y-67464285D01*
X135072380Y-67607142D01*
X135072380Y-67702380D01*
X135024761Y-67845238D01*
X134929523Y-67940476D01*
X134834285Y-67988095D01*
X134643809Y-68035714D01*
X134500952Y-68035714D01*
X134310476Y-67988095D01*
X134215238Y-67940476D01*
X134120000Y-67845238D01*
X134072380Y-67702380D01*
X134072380Y-67607142D01*
X134120000Y-67464285D01*
X134167619Y-67416666D01*
X134072380Y-66559523D02*
X134072380Y-66750000D01*
X134120000Y-66845238D01*
X134167619Y-66892857D01*
X134310476Y-66988095D01*
X134500952Y-67035714D01*
X134881904Y-67035714D01*
X134977142Y-66988095D01*
X135024761Y-66940476D01*
X135072380Y-66845238D01*
X135072380Y-66654761D01*
X135024761Y-66559523D01*
X134977142Y-66511904D01*
X134881904Y-66464285D01*
X134643809Y-66464285D01*
X134548571Y-66511904D01*
X134500952Y-66559523D01*
X134453333Y-66654761D01*
X134453333Y-66845238D01*
X134500952Y-66940476D01*
X134548571Y-66988095D01*
X134643809Y-67035714D01*
G04 #@! TO.C,C7*
X153563333Y-61137142D02*
X153515714Y-61184761D01*
X153372857Y-61232380D01*
X153277619Y-61232380D01*
X153134761Y-61184761D01*
X153039523Y-61089523D01*
X152991904Y-60994285D01*
X152944285Y-60803809D01*
X152944285Y-60660952D01*
X152991904Y-60470476D01*
X153039523Y-60375238D01*
X153134761Y-60280000D01*
X153277619Y-60232380D01*
X153372857Y-60232380D01*
X153515714Y-60280000D01*
X153563333Y-60327619D01*
X153896666Y-60232380D02*
X154563333Y-60232380D01*
X154134761Y-61232380D01*
G04 #@! TO.C,C8*
X154027142Y-67476666D02*
X154074761Y-67524285D01*
X154122380Y-67667142D01*
X154122380Y-67762380D01*
X154074761Y-67905238D01*
X153979523Y-68000476D01*
X153884285Y-68048095D01*
X153693809Y-68095714D01*
X153550952Y-68095714D01*
X153360476Y-68048095D01*
X153265238Y-68000476D01*
X153170000Y-67905238D01*
X153122380Y-67762380D01*
X153122380Y-67667142D01*
X153170000Y-67524285D01*
X153217619Y-67476666D01*
X153550952Y-66905238D02*
X153503333Y-67000476D01*
X153455714Y-67048095D01*
X153360476Y-67095714D01*
X153312857Y-67095714D01*
X153217619Y-67048095D01*
X153170000Y-67000476D01*
X153122380Y-66905238D01*
X153122380Y-66714761D01*
X153170000Y-66619523D01*
X153217619Y-66571904D01*
X153312857Y-66524285D01*
X153360476Y-66524285D01*
X153455714Y-66571904D01*
X153503333Y-66619523D01*
X153550952Y-66714761D01*
X153550952Y-66905238D01*
X153598571Y-67000476D01*
X153646190Y-67048095D01*
X153741428Y-67095714D01*
X153931904Y-67095714D01*
X154027142Y-67048095D01*
X154074761Y-67000476D01*
X154122380Y-66905238D01*
X154122380Y-66714761D01*
X154074761Y-66619523D01*
X154027142Y-66571904D01*
X153931904Y-66524285D01*
X153741428Y-66524285D01*
X153646190Y-66571904D01*
X153598571Y-66619523D01*
X153550952Y-66714761D01*
G04 #@! TO.C,C9*
X139533333Y-82907142D02*
X139485714Y-82954761D01*
X139342857Y-83002380D01*
X139247619Y-83002380D01*
X139104761Y-82954761D01*
X139009523Y-82859523D01*
X138961904Y-82764285D01*
X138914285Y-82573809D01*
X138914285Y-82430952D01*
X138961904Y-82240476D01*
X139009523Y-82145238D01*
X139104761Y-82050000D01*
X139247619Y-82002380D01*
X139342857Y-82002380D01*
X139485714Y-82050000D01*
X139533333Y-82097619D01*
X140009523Y-83002380D02*
X140200000Y-83002380D01*
X140295238Y-82954761D01*
X140342857Y-82907142D01*
X140438095Y-82764285D01*
X140485714Y-82573809D01*
X140485714Y-82192857D01*
X140438095Y-82097619D01*
X140390476Y-82050000D01*
X140295238Y-82002380D01*
X140104761Y-82002380D01*
X140009523Y-82050000D01*
X139961904Y-82097619D01*
X139914285Y-82192857D01*
X139914285Y-82430952D01*
X139961904Y-82526190D01*
X140009523Y-82573809D01*
X140104761Y-82621428D01*
X140295238Y-82621428D01*
X140390476Y-82573809D01*
X140438095Y-82526190D01*
X140485714Y-82430952D01*
G04 #@! TO.C,C10*
X125147142Y-90707142D02*
X125099523Y-90754761D01*
X124956666Y-90802380D01*
X124861428Y-90802380D01*
X124718571Y-90754761D01*
X124623333Y-90659523D01*
X124575714Y-90564285D01*
X124528095Y-90373809D01*
X124528095Y-90230952D01*
X124575714Y-90040476D01*
X124623333Y-89945238D01*
X124718571Y-89850000D01*
X124861428Y-89802380D01*
X124956666Y-89802380D01*
X125099523Y-89850000D01*
X125147142Y-89897619D01*
X126099523Y-90802380D02*
X125528095Y-90802380D01*
X125813809Y-90802380D02*
X125813809Y-89802380D01*
X125718571Y-89945238D01*
X125623333Y-90040476D01*
X125528095Y-90088095D01*
X126718571Y-89802380D02*
X126813809Y-89802380D01*
X126909047Y-89850000D01*
X126956666Y-89897619D01*
X127004285Y-89992857D01*
X127051904Y-90183333D01*
X127051904Y-90421428D01*
X127004285Y-90611904D01*
X126956666Y-90707142D01*
X126909047Y-90754761D01*
X126813809Y-90802380D01*
X126718571Y-90802380D01*
X126623333Y-90754761D01*
X126575714Y-90707142D01*
X126528095Y-90611904D01*
X126480476Y-90421428D01*
X126480476Y-90183333D01*
X126528095Y-89992857D01*
X126575714Y-89897619D01*
X126623333Y-89850000D01*
X126718571Y-89802380D01*
G04 #@! TO.C,D1*
X150391904Y-84092380D02*
X150391904Y-83092380D01*
X150630000Y-83092380D01*
X150772857Y-83140000D01*
X150868095Y-83235238D01*
X150915714Y-83330476D01*
X150963333Y-83520952D01*
X150963333Y-83663809D01*
X150915714Y-83854285D01*
X150868095Y-83949523D01*
X150772857Y-84044761D01*
X150630000Y-84092380D01*
X150391904Y-84092380D01*
X151915714Y-84092380D02*
X151344285Y-84092380D01*
X151630000Y-84092380D02*
X151630000Y-83092380D01*
X151534761Y-83235238D01*
X151439523Y-83330476D01*
X151344285Y-83378095D01*
G04 #@! TO.C,D2*
X159281904Y-84092380D02*
X159281904Y-83092380D01*
X159520000Y-83092380D01*
X159662857Y-83140000D01*
X159758095Y-83235238D01*
X159805714Y-83330476D01*
X159853333Y-83520952D01*
X159853333Y-83663809D01*
X159805714Y-83854285D01*
X159758095Y-83949523D01*
X159662857Y-84044761D01*
X159520000Y-84092380D01*
X159281904Y-84092380D01*
X160234285Y-83187619D02*
X160281904Y-83140000D01*
X160377142Y-83092380D01*
X160615238Y-83092380D01*
X160710476Y-83140000D01*
X160758095Y-83187619D01*
X160805714Y-83282857D01*
X160805714Y-83378095D01*
X160758095Y-83520952D01*
X160186666Y-84092380D01*
X160805714Y-84092380D01*
G04 #@! TO.C,J1*
X86026666Y-79752380D02*
X86026666Y-80466666D01*
X85979047Y-80609523D01*
X85883809Y-80704761D01*
X85740952Y-80752380D01*
X85645714Y-80752380D01*
X87026666Y-80752380D02*
X86455238Y-80752380D01*
X86740952Y-80752380D02*
X86740952Y-79752380D01*
X86645714Y-79895238D01*
X86550476Y-79990476D01*
X86455238Y-80038095D01*
G04 #@! TO.C,J2*
X106612380Y-99393333D02*
X107326666Y-99393333D01*
X107469523Y-99440952D01*
X107564761Y-99536190D01*
X107612380Y-99679047D01*
X107612380Y-99774285D01*
X106707619Y-98964761D02*
X106660000Y-98917142D01*
X106612380Y-98821904D01*
X106612380Y-98583809D01*
X106660000Y-98488571D01*
X106707619Y-98440952D01*
X106802857Y-98393333D01*
X106898095Y-98393333D01*
X107040952Y-98440952D01*
X107612380Y-99012380D01*
X107612380Y-98393333D01*
G04 #@! TO.C,J3*
X120582380Y-99393333D02*
X121296666Y-99393333D01*
X121439523Y-99440952D01*
X121534761Y-99536190D01*
X121582380Y-99679047D01*
X121582380Y-99774285D01*
X120582380Y-99012380D02*
X120582380Y-98393333D01*
X120963333Y-98726666D01*
X120963333Y-98583809D01*
X121010952Y-98488571D01*
X121058571Y-98440952D01*
X121153809Y-98393333D01*
X121391904Y-98393333D01*
X121487142Y-98440952D01*
X121534761Y-98488571D01*
X121582380Y-98583809D01*
X121582380Y-98869523D01*
X121534761Y-98964761D01*
X121487142Y-99012380D01*
G04 #@! TO.C,J4*
X149562380Y-99393333D02*
X150276666Y-99393333D01*
X150419523Y-99440952D01*
X150514761Y-99536190D01*
X150562380Y-99679047D01*
X150562380Y-99774285D01*
X149895714Y-98488571D02*
X150562380Y-98488571D01*
X149514761Y-98726666D02*
X150229047Y-98964761D01*
X150229047Y-98345714D01*
G04 #@! TO.C,R1*
X91212380Y-66206666D02*
X90736190Y-66540000D01*
X91212380Y-66778095D02*
X90212380Y-66778095D01*
X90212380Y-66397142D01*
X90260000Y-66301904D01*
X90307619Y-66254285D01*
X90402857Y-66206666D01*
X90545714Y-66206666D01*
X90640952Y-66254285D01*
X90688571Y-66301904D01*
X90736190Y-66397142D01*
X90736190Y-66778095D01*
X91212380Y-65254285D02*
X91212380Y-65825714D01*
X91212380Y-65540000D02*
X90212380Y-65540000D01*
X90355238Y-65635238D01*
X90450476Y-65730476D01*
X90498095Y-65825714D01*
G04 #@! TO.C,R2*
X88733333Y-77242380D02*
X88400000Y-76766190D01*
X88161904Y-77242380D02*
X88161904Y-76242380D01*
X88542857Y-76242380D01*
X88638095Y-76290000D01*
X88685714Y-76337619D01*
X88733333Y-76432857D01*
X88733333Y-76575714D01*
X88685714Y-76670952D01*
X88638095Y-76718571D01*
X88542857Y-76766190D01*
X88161904Y-76766190D01*
X89114285Y-76337619D02*
X89161904Y-76290000D01*
X89257142Y-76242380D01*
X89495238Y-76242380D01*
X89590476Y-76290000D01*
X89638095Y-76337619D01*
X89685714Y-76432857D01*
X89685714Y-76528095D01*
X89638095Y-76670952D01*
X89066666Y-77242380D01*
X89685714Y-77242380D01*
G04 #@! TO.C,R3*
X98893333Y-77242380D02*
X98560000Y-76766190D01*
X98321904Y-77242380D02*
X98321904Y-76242380D01*
X98702857Y-76242380D01*
X98798095Y-76290000D01*
X98845714Y-76337619D01*
X98893333Y-76432857D01*
X98893333Y-76575714D01*
X98845714Y-76670952D01*
X98798095Y-76718571D01*
X98702857Y-76766190D01*
X98321904Y-76766190D01*
X99226666Y-76242380D02*
X99845714Y-76242380D01*
X99512380Y-76623333D01*
X99655238Y-76623333D01*
X99750476Y-76670952D01*
X99798095Y-76718571D01*
X99845714Y-76813809D01*
X99845714Y-77051904D01*
X99798095Y-77147142D01*
X99750476Y-77194761D01*
X99655238Y-77242380D01*
X99369523Y-77242380D01*
X99274285Y-77194761D01*
X99226666Y-77147142D01*
G04 #@! TO.C,R4*
X97652380Y-66206666D02*
X97176190Y-66540000D01*
X97652380Y-66778095D02*
X96652380Y-66778095D01*
X96652380Y-66397142D01*
X96700000Y-66301904D01*
X96747619Y-66254285D01*
X96842857Y-66206666D01*
X96985714Y-66206666D01*
X97080952Y-66254285D01*
X97128571Y-66301904D01*
X97176190Y-66397142D01*
X97176190Y-66778095D01*
X96985714Y-65349523D02*
X97652380Y-65349523D01*
X96604761Y-65587619D02*
X97319047Y-65825714D01*
X97319047Y-65206666D01*
G04 #@! TO.C,R5*
X105272380Y-66206666D02*
X104796190Y-66540000D01*
X105272380Y-66778095D02*
X104272380Y-66778095D01*
X104272380Y-66397142D01*
X104320000Y-66301904D01*
X104367619Y-66254285D01*
X104462857Y-66206666D01*
X104605714Y-66206666D01*
X104700952Y-66254285D01*
X104748571Y-66301904D01*
X104796190Y-66397142D01*
X104796190Y-66778095D01*
X104272380Y-65301904D02*
X104272380Y-65778095D01*
X104748571Y-65825714D01*
X104700952Y-65778095D01*
X104653333Y-65682857D01*
X104653333Y-65444761D01*
X104700952Y-65349523D01*
X104748571Y-65301904D01*
X104843809Y-65254285D01*
X105081904Y-65254285D01*
X105177142Y-65301904D01*
X105224761Y-65349523D01*
X105272380Y-65444761D01*
X105272380Y-65682857D01*
X105224761Y-65778095D01*
X105177142Y-65825714D01*
G04 #@! TO.C,R6*
X105272380Y-56046666D02*
X104796190Y-56380000D01*
X105272380Y-56618095D02*
X104272380Y-56618095D01*
X104272380Y-56237142D01*
X104320000Y-56141904D01*
X104367619Y-56094285D01*
X104462857Y-56046666D01*
X104605714Y-56046666D01*
X104700952Y-56094285D01*
X104748571Y-56141904D01*
X104796190Y-56237142D01*
X104796190Y-56618095D01*
X104272380Y-55189523D02*
X104272380Y-55380000D01*
X104320000Y-55475238D01*
X104367619Y-55522857D01*
X104510476Y-55618095D01*
X104700952Y-55665714D01*
X105081904Y-55665714D01*
X105177142Y-55618095D01*
X105224761Y-55570476D01*
X105272380Y-55475238D01*
X105272380Y-55284761D01*
X105224761Y-55189523D01*
X105177142Y-55141904D01*
X105081904Y-55094285D01*
X104843809Y-55094285D01*
X104748571Y-55141904D01*
X104700952Y-55189523D01*
X104653333Y-55284761D01*
X104653333Y-55475238D01*
X104700952Y-55570476D01*
X104748571Y-55618095D01*
X104843809Y-55665714D01*
G04 #@! TO.C,R7*
X110352380Y-66206666D02*
X109876190Y-66540000D01*
X110352380Y-66778095D02*
X109352380Y-66778095D01*
X109352380Y-66397142D01*
X109400000Y-66301904D01*
X109447619Y-66254285D01*
X109542857Y-66206666D01*
X109685714Y-66206666D01*
X109780952Y-66254285D01*
X109828571Y-66301904D01*
X109876190Y-66397142D01*
X109876190Y-66778095D01*
X109352380Y-65873333D02*
X109352380Y-65206666D01*
X110352380Y-65635238D01*
G04 #@! TO.C,R8*
X110323333Y-77242380D02*
X109990000Y-76766190D01*
X109751904Y-77242380D02*
X109751904Y-76242380D01*
X110132857Y-76242380D01*
X110228095Y-76290000D01*
X110275714Y-76337619D01*
X110323333Y-76432857D01*
X110323333Y-76575714D01*
X110275714Y-76670952D01*
X110228095Y-76718571D01*
X110132857Y-76766190D01*
X109751904Y-76766190D01*
X110894761Y-76670952D02*
X110799523Y-76623333D01*
X110751904Y-76575714D01*
X110704285Y-76480476D01*
X110704285Y-76432857D01*
X110751904Y-76337619D01*
X110799523Y-76290000D01*
X110894761Y-76242380D01*
X111085238Y-76242380D01*
X111180476Y-76290000D01*
X111228095Y-76337619D01*
X111275714Y-76432857D01*
X111275714Y-76480476D01*
X111228095Y-76575714D01*
X111180476Y-76623333D01*
X111085238Y-76670952D01*
X110894761Y-76670952D01*
X110799523Y-76718571D01*
X110751904Y-76766190D01*
X110704285Y-76861428D01*
X110704285Y-77051904D01*
X110751904Y-77147142D01*
X110799523Y-77194761D01*
X110894761Y-77242380D01*
X111085238Y-77242380D01*
X111180476Y-77194761D01*
X111228095Y-77147142D01*
X111275714Y-77051904D01*
X111275714Y-76861428D01*
X111228095Y-76766190D01*
X111180476Y-76718571D01*
X111085238Y-76670952D01*
G04 #@! TO.C,R9*
X119242380Y-66206666D02*
X118766190Y-66540000D01*
X119242380Y-66778095D02*
X118242380Y-66778095D01*
X118242380Y-66397142D01*
X118290000Y-66301904D01*
X118337619Y-66254285D01*
X118432857Y-66206666D01*
X118575714Y-66206666D01*
X118670952Y-66254285D01*
X118718571Y-66301904D01*
X118766190Y-66397142D01*
X118766190Y-66778095D01*
X119242380Y-65730476D02*
X119242380Y-65540000D01*
X119194761Y-65444761D01*
X119147142Y-65397142D01*
X119004285Y-65301904D01*
X118813809Y-65254285D01*
X118432857Y-65254285D01*
X118337619Y-65301904D01*
X118290000Y-65349523D01*
X118242380Y-65444761D01*
X118242380Y-65635238D01*
X118290000Y-65730476D01*
X118337619Y-65778095D01*
X118432857Y-65825714D01*
X118670952Y-65825714D01*
X118766190Y-65778095D01*
X118813809Y-65730476D01*
X118861428Y-65635238D01*
X118861428Y-65444761D01*
X118813809Y-65349523D01*
X118766190Y-65301904D01*
X118670952Y-65254285D01*
G04 #@! TO.C,R10*
X120007142Y-77242380D02*
X119673809Y-76766190D01*
X119435714Y-77242380D02*
X119435714Y-76242380D01*
X119816666Y-76242380D01*
X119911904Y-76290000D01*
X119959523Y-76337619D01*
X120007142Y-76432857D01*
X120007142Y-76575714D01*
X119959523Y-76670952D01*
X119911904Y-76718571D01*
X119816666Y-76766190D01*
X119435714Y-76766190D01*
X120959523Y-77242380D02*
X120388095Y-77242380D01*
X120673809Y-77242380D02*
X120673809Y-76242380D01*
X120578571Y-76385238D01*
X120483333Y-76480476D01*
X120388095Y-76528095D01*
X121578571Y-76242380D02*
X121673809Y-76242380D01*
X121769047Y-76290000D01*
X121816666Y-76337619D01*
X121864285Y-76432857D01*
X121911904Y-76623333D01*
X121911904Y-76861428D01*
X121864285Y-77051904D01*
X121816666Y-77147142D01*
X121769047Y-77194761D01*
X121673809Y-77242380D01*
X121578571Y-77242380D01*
X121483333Y-77194761D01*
X121435714Y-77147142D01*
X121388095Y-77051904D01*
X121340476Y-76861428D01*
X121340476Y-76623333D01*
X121388095Y-76432857D01*
X121435714Y-76337619D01*
X121483333Y-76290000D01*
X121578571Y-76242380D01*
G04 #@! TO.C,R11*
X121782380Y-56522857D02*
X121306190Y-56856190D01*
X121782380Y-57094285D02*
X120782380Y-57094285D01*
X120782380Y-56713333D01*
X120830000Y-56618095D01*
X120877619Y-56570476D01*
X120972857Y-56522857D01*
X121115714Y-56522857D01*
X121210952Y-56570476D01*
X121258571Y-56618095D01*
X121306190Y-56713333D01*
X121306190Y-57094285D01*
X121782380Y-55570476D02*
X121782380Y-56141904D01*
X121782380Y-55856190D02*
X120782380Y-55856190D01*
X120925238Y-55951428D01*
X121020476Y-56046666D01*
X121068095Y-56141904D01*
X121782380Y-54618095D02*
X121782380Y-55189523D01*
X121782380Y-54903809D02*
X120782380Y-54903809D01*
X120925238Y-54999047D01*
X121020476Y-55094285D01*
X121068095Y-55189523D01*
G04 #@! TO.C,R12*
X130582380Y-66682857D02*
X130106190Y-67016190D01*
X130582380Y-67254285D02*
X129582380Y-67254285D01*
X129582380Y-66873333D01*
X129630000Y-66778095D01*
X129677619Y-66730476D01*
X129772857Y-66682857D01*
X129915714Y-66682857D01*
X130010952Y-66730476D01*
X130058571Y-66778095D01*
X130106190Y-66873333D01*
X130106190Y-67254285D01*
X130582380Y-65730476D02*
X130582380Y-66301904D01*
X130582380Y-66016190D02*
X129582380Y-66016190D01*
X129725238Y-66111428D01*
X129820476Y-66206666D01*
X129868095Y-66301904D01*
X129677619Y-65349523D02*
X129630000Y-65301904D01*
X129582380Y-65206666D01*
X129582380Y-64968571D01*
X129630000Y-64873333D01*
X129677619Y-64825714D01*
X129772857Y-64778095D01*
X129868095Y-64778095D01*
X130010952Y-64825714D01*
X130582380Y-65397142D01*
X130582380Y-64778095D01*
G04 #@! TO.C,R13*
X128897142Y-77242380D02*
X128563809Y-76766190D01*
X128325714Y-77242380D02*
X128325714Y-76242380D01*
X128706666Y-76242380D01*
X128801904Y-76290000D01*
X128849523Y-76337619D01*
X128897142Y-76432857D01*
X128897142Y-76575714D01*
X128849523Y-76670952D01*
X128801904Y-76718571D01*
X128706666Y-76766190D01*
X128325714Y-76766190D01*
X129849523Y-77242380D02*
X129278095Y-77242380D01*
X129563809Y-77242380D02*
X129563809Y-76242380D01*
X129468571Y-76385238D01*
X129373333Y-76480476D01*
X129278095Y-76528095D01*
X130182857Y-76242380D02*
X130801904Y-76242380D01*
X130468571Y-76623333D01*
X130611428Y-76623333D01*
X130706666Y-76670952D01*
X130754285Y-76718571D01*
X130801904Y-76813809D01*
X130801904Y-77051904D01*
X130754285Y-77147142D01*
X130706666Y-77194761D01*
X130611428Y-77242380D01*
X130325714Y-77242380D01*
X130230476Y-77194761D01*
X130182857Y-77147142D01*
G04 #@! TO.C,R14*
X139057142Y-77242380D02*
X138723809Y-76766190D01*
X138485714Y-77242380D02*
X138485714Y-76242380D01*
X138866666Y-76242380D01*
X138961904Y-76290000D01*
X139009523Y-76337619D01*
X139057142Y-76432857D01*
X139057142Y-76575714D01*
X139009523Y-76670952D01*
X138961904Y-76718571D01*
X138866666Y-76766190D01*
X138485714Y-76766190D01*
X140009523Y-77242380D02*
X139438095Y-77242380D01*
X139723809Y-77242380D02*
X139723809Y-76242380D01*
X139628571Y-76385238D01*
X139533333Y-76480476D01*
X139438095Y-76528095D01*
X140866666Y-76575714D02*
X140866666Y-77242380D01*
X140628571Y-76194761D02*
X140390476Y-76909047D01*
X141009523Y-76909047D01*
G04 #@! TO.C,R15*
X139562380Y-66682857D02*
X139086190Y-67016190D01*
X139562380Y-67254285D02*
X138562380Y-67254285D01*
X138562380Y-66873333D01*
X138610000Y-66778095D01*
X138657619Y-66730476D01*
X138752857Y-66682857D01*
X138895714Y-66682857D01*
X138990952Y-66730476D01*
X139038571Y-66778095D01*
X139086190Y-66873333D01*
X139086190Y-67254285D01*
X139562380Y-65730476D02*
X139562380Y-66301904D01*
X139562380Y-66016190D02*
X138562380Y-66016190D01*
X138705238Y-66111428D01*
X138800476Y-66206666D01*
X138848095Y-66301904D01*
X138562380Y-64825714D02*
X138562380Y-65301904D01*
X139038571Y-65349523D01*
X138990952Y-65301904D01*
X138943333Y-65206666D01*
X138943333Y-64968571D01*
X138990952Y-64873333D01*
X139038571Y-64825714D01*
X139133809Y-64778095D01*
X139371904Y-64778095D01*
X139467142Y-64825714D01*
X139514761Y-64873333D01*
X139562380Y-64968571D01*
X139562380Y-65206666D01*
X139514761Y-65301904D01*
X139467142Y-65349523D01*
G04 #@! TO.C,R16*
X149632380Y-66682857D02*
X149156190Y-67016190D01*
X149632380Y-67254285D02*
X148632380Y-67254285D01*
X148632380Y-66873333D01*
X148680000Y-66778095D01*
X148727619Y-66730476D01*
X148822857Y-66682857D01*
X148965714Y-66682857D01*
X149060952Y-66730476D01*
X149108571Y-66778095D01*
X149156190Y-66873333D01*
X149156190Y-67254285D01*
X149632380Y-65730476D02*
X149632380Y-66301904D01*
X149632380Y-66016190D02*
X148632380Y-66016190D01*
X148775238Y-66111428D01*
X148870476Y-66206666D01*
X148918095Y-66301904D01*
X148632380Y-64873333D02*
X148632380Y-65063809D01*
X148680000Y-65159047D01*
X148727619Y-65206666D01*
X148870476Y-65301904D01*
X149060952Y-65349523D01*
X149441904Y-65349523D01*
X149537142Y-65301904D01*
X149584761Y-65254285D01*
X149632380Y-65159047D01*
X149632380Y-64968571D01*
X149584761Y-64873333D01*
X149537142Y-64825714D01*
X149441904Y-64778095D01*
X149203809Y-64778095D01*
X149108571Y-64825714D01*
X149060952Y-64873333D01*
X149013333Y-64968571D01*
X149013333Y-65159047D01*
X149060952Y-65254285D01*
X149108571Y-65301904D01*
X149203809Y-65349523D01*
G04 #@! TO.C,R17*
X147947142Y-77242380D02*
X147613809Y-76766190D01*
X147375714Y-77242380D02*
X147375714Y-76242380D01*
X147756666Y-76242380D01*
X147851904Y-76290000D01*
X147899523Y-76337619D01*
X147947142Y-76432857D01*
X147947142Y-76575714D01*
X147899523Y-76670952D01*
X147851904Y-76718571D01*
X147756666Y-76766190D01*
X147375714Y-76766190D01*
X148899523Y-77242380D02*
X148328095Y-77242380D01*
X148613809Y-77242380D02*
X148613809Y-76242380D01*
X148518571Y-76385238D01*
X148423333Y-76480476D01*
X148328095Y-76528095D01*
X149232857Y-76242380D02*
X149899523Y-76242380D01*
X149470952Y-77242380D01*
G04 #@! TO.C,R18*
X158612380Y-66682857D02*
X158136190Y-67016190D01*
X158612380Y-67254285D02*
X157612380Y-67254285D01*
X157612380Y-66873333D01*
X157660000Y-66778095D01*
X157707619Y-66730476D01*
X157802857Y-66682857D01*
X157945714Y-66682857D01*
X158040952Y-66730476D01*
X158088571Y-66778095D01*
X158136190Y-66873333D01*
X158136190Y-67254285D01*
X158612380Y-65730476D02*
X158612380Y-66301904D01*
X158612380Y-66016190D02*
X157612380Y-66016190D01*
X157755238Y-66111428D01*
X157850476Y-66206666D01*
X157898095Y-66301904D01*
X158040952Y-65159047D02*
X157993333Y-65254285D01*
X157945714Y-65301904D01*
X157850476Y-65349523D01*
X157802857Y-65349523D01*
X157707619Y-65301904D01*
X157660000Y-65254285D01*
X157612380Y-65159047D01*
X157612380Y-64968571D01*
X157660000Y-64873333D01*
X157707619Y-64825714D01*
X157802857Y-64778095D01*
X157850476Y-64778095D01*
X157945714Y-64825714D01*
X157993333Y-64873333D01*
X158040952Y-64968571D01*
X158040952Y-65159047D01*
X158088571Y-65254285D01*
X158136190Y-65301904D01*
X158231428Y-65349523D01*
X158421904Y-65349523D01*
X158517142Y-65301904D01*
X158564761Y-65254285D01*
X158612380Y-65159047D01*
X158612380Y-64968571D01*
X158564761Y-64873333D01*
X158517142Y-64825714D01*
X158421904Y-64778095D01*
X158231428Y-64778095D01*
X158136190Y-64825714D01*
X158088571Y-64873333D01*
X158040952Y-64968571D01*
G04 #@! TO.C,R19*
X156837142Y-77242380D02*
X156503809Y-76766190D01*
X156265714Y-77242380D02*
X156265714Y-76242380D01*
X156646666Y-76242380D01*
X156741904Y-76290000D01*
X156789523Y-76337619D01*
X156837142Y-76432857D01*
X156837142Y-76575714D01*
X156789523Y-76670952D01*
X156741904Y-76718571D01*
X156646666Y-76766190D01*
X156265714Y-76766190D01*
X157789523Y-77242380D02*
X157218095Y-77242380D01*
X157503809Y-77242380D02*
X157503809Y-76242380D01*
X157408571Y-76385238D01*
X157313333Y-76480476D01*
X157218095Y-76528095D01*
X158265714Y-77242380D02*
X158456190Y-77242380D01*
X158551428Y-77194761D01*
X158599047Y-77147142D01*
X158694285Y-77004285D01*
X158741904Y-76813809D01*
X158741904Y-76432857D01*
X158694285Y-76337619D01*
X158646666Y-76290000D01*
X158551428Y-76242380D01*
X158360952Y-76242380D01*
X158265714Y-76290000D01*
X158218095Y-76337619D01*
X158170476Y-76432857D01*
X158170476Y-76670952D01*
X158218095Y-76766190D01*
X158265714Y-76813809D01*
X158360952Y-76861428D01*
X158551428Y-76861428D01*
X158646666Y-76813809D01*
X158694285Y-76766190D01*
X158741904Y-76670952D01*
G04 #@! TO.C,R20*
X134482380Y-88272857D02*
X134006190Y-88606190D01*
X134482380Y-88844285D02*
X133482380Y-88844285D01*
X133482380Y-88463333D01*
X133530000Y-88368095D01*
X133577619Y-88320476D01*
X133672857Y-88272857D01*
X133815714Y-88272857D01*
X133910952Y-88320476D01*
X133958571Y-88368095D01*
X134006190Y-88463333D01*
X134006190Y-88844285D01*
X133577619Y-87891904D02*
X133530000Y-87844285D01*
X133482380Y-87749047D01*
X133482380Y-87510952D01*
X133530000Y-87415714D01*
X133577619Y-87368095D01*
X133672857Y-87320476D01*
X133768095Y-87320476D01*
X133910952Y-87368095D01*
X134482380Y-87939523D01*
X134482380Y-87320476D01*
X133482380Y-86701428D02*
X133482380Y-86606190D01*
X133530000Y-86510952D01*
X133577619Y-86463333D01*
X133672857Y-86415714D01*
X133863333Y-86368095D01*
X134101428Y-86368095D01*
X134291904Y-86415714D01*
X134387142Y-86463333D01*
X134434761Y-86510952D01*
X134482380Y-86606190D01*
X134482380Y-86701428D01*
X134434761Y-86796666D01*
X134387142Y-86844285D01*
X134291904Y-86891904D01*
X134101428Y-86939523D01*
X133863333Y-86939523D01*
X133672857Y-86891904D01*
X133577619Y-86844285D01*
X133530000Y-86796666D01*
X133482380Y-86701428D01*
G04 #@! TO.C,R21*
X109847142Y-88762380D02*
X109513809Y-88286190D01*
X109275714Y-88762380D02*
X109275714Y-87762380D01*
X109656666Y-87762380D01*
X109751904Y-87810000D01*
X109799523Y-87857619D01*
X109847142Y-87952857D01*
X109847142Y-88095714D01*
X109799523Y-88190952D01*
X109751904Y-88238571D01*
X109656666Y-88286190D01*
X109275714Y-88286190D01*
X110228095Y-87857619D02*
X110275714Y-87810000D01*
X110370952Y-87762380D01*
X110609047Y-87762380D01*
X110704285Y-87810000D01*
X110751904Y-87857619D01*
X110799523Y-87952857D01*
X110799523Y-88048095D01*
X110751904Y-88190952D01*
X110180476Y-88762380D01*
X110799523Y-88762380D01*
X111751904Y-88762380D02*
X111180476Y-88762380D01*
X111466190Y-88762380D02*
X111466190Y-87762380D01*
X111370952Y-87905238D01*
X111275714Y-88000476D01*
X111180476Y-88048095D01*
G04 #@! TO.C,R22*
X148362380Y-88272857D02*
X147886190Y-88606190D01*
X148362380Y-88844285D02*
X147362380Y-88844285D01*
X147362380Y-88463333D01*
X147410000Y-88368095D01*
X147457619Y-88320476D01*
X147552857Y-88272857D01*
X147695714Y-88272857D01*
X147790952Y-88320476D01*
X147838571Y-88368095D01*
X147886190Y-88463333D01*
X147886190Y-88844285D01*
X147457619Y-87891904D02*
X147410000Y-87844285D01*
X147362380Y-87749047D01*
X147362380Y-87510952D01*
X147410000Y-87415714D01*
X147457619Y-87368095D01*
X147552857Y-87320476D01*
X147648095Y-87320476D01*
X147790952Y-87368095D01*
X148362380Y-87939523D01*
X148362380Y-87320476D01*
X147457619Y-86939523D02*
X147410000Y-86891904D01*
X147362380Y-86796666D01*
X147362380Y-86558571D01*
X147410000Y-86463333D01*
X147457619Y-86415714D01*
X147552857Y-86368095D01*
X147648095Y-86368095D01*
X147790952Y-86415714D01*
X148362380Y-86987142D01*
X148362380Y-86368095D01*
G04 #@! TO.C,R23*
X152172380Y-88272857D02*
X151696190Y-88606190D01*
X152172380Y-88844285D02*
X151172380Y-88844285D01*
X151172380Y-88463333D01*
X151220000Y-88368095D01*
X151267619Y-88320476D01*
X151362857Y-88272857D01*
X151505714Y-88272857D01*
X151600952Y-88320476D01*
X151648571Y-88368095D01*
X151696190Y-88463333D01*
X151696190Y-88844285D01*
X151267619Y-87891904D02*
X151220000Y-87844285D01*
X151172380Y-87749047D01*
X151172380Y-87510952D01*
X151220000Y-87415714D01*
X151267619Y-87368095D01*
X151362857Y-87320476D01*
X151458095Y-87320476D01*
X151600952Y-87368095D01*
X152172380Y-87939523D01*
X152172380Y-87320476D01*
X151172380Y-86987142D02*
X151172380Y-86368095D01*
X151553333Y-86701428D01*
X151553333Y-86558571D01*
X151600952Y-86463333D01*
X151648571Y-86415714D01*
X151743809Y-86368095D01*
X151981904Y-86368095D01*
X152077142Y-86415714D01*
X152124761Y-86463333D01*
X152172380Y-86558571D01*
X152172380Y-86844285D01*
X152124761Y-86939523D01*
X152077142Y-86987142D01*
G04 #@! TO.C,R24*
X145407142Y-97562380D02*
X145073809Y-97086190D01*
X144835714Y-97562380D02*
X144835714Y-96562380D01*
X145216666Y-96562380D01*
X145311904Y-96610000D01*
X145359523Y-96657619D01*
X145407142Y-96752857D01*
X145407142Y-96895714D01*
X145359523Y-96990952D01*
X145311904Y-97038571D01*
X145216666Y-97086190D01*
X144835714Y-97086190D01*
X145788095Y-96657619D02*
X145835714Y-96610000D01*
X145930952Y-96562380D01*
X146169047Y-96562380D01*
X146264285Y-96610000D01*
X146311904Y-96657619D01*
X146359523Y-96752857D01*
X146359523Y-96848095D01*
X146311904Y-96990952D01*
X145740476Y-97562380D01*
X146359523Y-97562380D01*
X147216666Y-96895714D02*
X147216666Y-97562380D01*
X146978571Y-96514761D02*
X146740476Y-97229047D01*
X147359523Y-97229047D01*
G04 #@! TO.C,R25*
X143282380Y-88272857D02*
X142806190Y-88606190D01*
X143282380Y-88844285D02*
X142282380Y-88844285D01*
X142282380Y-88463333D01*
X142330000Y-88368095D01*
X142377619Y-88320476D01*
X142472857Y-88272857D01*
X142615714Y-88272857D01*
X142710952Y-88320476D01*
X142758571Y-88368095D01*
X142806190Y-88463333D01*
X142806190Y-88844285D01*
X142377619Y-87891904D02*
X142330000Y-87844285D01*
X142282380Y-87749047D01*
X142282380Y-87510952D01*
X142330000Y-87415714D01*
X142377619Y-87368095D01*
X142472857Y-87320476D01*
X142568095Y-87320476D01*
X142710952Y-87368095D01*
X143282380Y-87939523D01*
X143282380Y-87320476D01*
X142282380Y-86415714D02*
X142282380Y-86891904D01*
X142758571Y-86939523D01*
X142710952Y-86891904D01*
X142663333Y-86796666D01*
X142663333Y-86558571D01*
X142710952Y-86463333D01*
X142758571Y-86415714D01*
X142853809Y-86368095D01*
X143091904Y-86368095D01*
X143187142Y-86415714D01*
X143234761Y-86463333D01*
X143282380Y-86558571D01*
X143282380Y-86796666D01*
X143234761Y-86891904D01*
X143187142Y-86939523D01*
G04 #@! TO.C,R26*
X135247142Y-101372380D02*
X134913809Y-100896190D01*
X134675714Y-101372380D02*
X134675714Y-100372380D01*
X135056666Y-100372380D01*
X135151904Y-100420000D01*
X135199523Y-100467619D01*
X135247142Y-100562857D01*
X135247142Y-100705714D01*
X135199523Y-100800952D01*
X135151904Y-100848571D01*
X135056666Y-100896190D01*
X134675714Y-100896190D01*
X135628095Y-100467619D02*
X135675714Y-100420000D01*
X135770952Y-100372380D01*
X136009047Y-100372380D01*
X136104285Y-100420000D01*
X136151904Y-100467619D01*
X136199523Y-100562857D01*
X136199523Y-100658095D01*
X136151904Y-100800952D01*
X135580476Y-101372380D01*
X136199523Y-101372380D01*
X137056666Y-100372380D02*
X136866190Y-100372380D01*
X136770952Y-100420000D01*
X136723333Y-100467619D01*
X136628095Y-100610476D01*
X136580476Y-100800952D01*
X136580476Y-101181904D01*
X136628095Y-101277142D01*
X136675714Y-101324761D01*
X136770952Y-101372380D01*
X136961428Y-101372380D01*
X137056666Y-101324761D01*
X137104285Y-101277142D01*
X137151904Y-101181904D01*
X137151904Y-100943809D01*
X137104285Y-100848571D01*
X137056666Y-100800952D01*
X136961428Y-100753333D01*
X136770952Y-100753333D01*
X136675714Y-100800952D01*
X136628095Y-100848571D01*
X136580476Y-100943809D01*
G04 #@! TO.C,RV1*
X98872380Y-52695238D02*
X98396190Y-53028571D01*
X98872380Y-53266666D02*
X97872380Y-53266666D01*
X97872380Y-52885714D01*
X97920000Y-52790476D01*
X97967619Y-52742857D01*
X98062857Y-52695238D01*
X98205714Y-52695238D01*
X98300952Y-52742857D01*
X98348571Y-52790476D01*
X98396190Y-52885714D01*
X98396190Y-53266666D01*
X97872380Y-52409523D02*
X98872380Y-52076190D01*
X97872380Y-51742857D01*
X98872380Y-50885714D02*
X98872380Y-51457142D01*
X98872380Y-51171428D02*
X97872380Y-51171428D01*
X98015238Y-51266666D01*
X98110476Y-51361904D01*
X98158095Y-51457142D01*
G04 #@! TO.C,RV2*
X120462380Y-52695238D02*
X119986190Y-53028571D01*
X120462380Y-53266666D02*
X119462380Y-53266666D01*
X119462380Y-52885714D01*
X119510000Y-52790476D01*
X119557619Y-52742857D01*
X119652857Y-52695238D01*
X119795714Y-52695238D01*
X119890952Y-52742857D01*
X119938571Y-52790476D01*
X119986190Y-52885714D01*
X119986190Y-53266666D01*
X119462380Y-52409523D02*
X120462380Y-52076190D01*
X119462380Y-51742857D01*
X119557619Y-51457142D02*
X119510000Y-51409523D01*
X119462380Y-51314285D01*
X119462380Y-51076190D01*
X119510000Y-50980952D01*
X119557619Y-50933333D01*
X119652857Y-50885714D01*
X119748095Y-50885714D01*
X119890952Y-50933333D01*
X120462380Y-51504761D01*
X120462380Y-50885714D01*
G04 #@! TO.C,RV3*
X139512380Y-52695238D02*
X139036190Y-53028571D01*
X139512380Y-53266666D02*
X138512380Y-53266666D01*
X138512380Y-52885714D01*
X138560000Y-52790476D01*
X138607619Y-52742857D01*
X138702857Y-52695238D01*
X138845714Y-52695238D01*
X138940952Y-52742857D01*
X138988571Y-52790476D01*
X139036190Y-52885714D01*
X139036190Y-53266666D01*
X138512380Y-52409523D02*
X139512380Y-52076190D01*
X138512380Y-51742857D01*
X138512380Y-51504761D02*
X138512380Y-50885714D01*
X138893333Y-51219047D01*
X138893333Y-51076190D01*
X138940952Y-50980952D01*
X138988571Y-50933333D01*
X139083809Y-50885714D01*
X139321904Y-50885714D01*
X139417142Y-50933333D01*
X139464761Y-50980952D01*
X139512380Y-51076190D01*
X139512380Y-51361904D01*
X139464761Y-51457142D01*
X139417142Y-51504761D01*
G04 #@! TO.C,RV4*
X158562380Y-52695238D02*
X158086190Y-53028571D01*
X158562380Y-53266666D02*
X157562380Y-53266666D01*
X157562380Y-52885714D01*
X157610000Y-52790476D01*
X157657619Y-52742857D01*
X157752857Y-52695238D01*
X157895714Y-52695238D01*
X157990952Y-52742857D01*
X158038571Y-52790476D01*
X158086190Y-52885714D01*
X158086190Y-53266666D01*
X157562380Y-52409523D02*
X158562380Y-52076190D01*
X157562380Y-51742857D01*
X157895714Y-50980952D02*
X158562380Y-50980952D01*
X157514761Y-51219047D02*
X158229047Y-51457142D01*
X158229047Y-50838095D01*
G04 #@! TO.C,U1*
D15*
X99080476Y-89271904D02*
X99080476Y-90599523D01*
X99158571Y-90755714D01*
X99236666Y-90833809D01*
X99392857Y-90911904D01*
X99705238Y-90911904D01*
X99861428Y-90833809D01*
X99939523Y-90755714D01*
X100017619Y-90599523D01*
X100017619Y-89271904D01*
X101657619Y-90911904D02*
X100720476Y-90911904D01*
X101189047Y-90911904D02*
X101189047Y-89271904D01*
X101032857Y-89506190D01*
X100876666Y-89662380D01*
X100720476Y-89740476D01*
X101071904Y-87217142D02*
X101071904Y-87998095D01*
X99431904Y-87998095D01*
X100212857Y-86123809D02*
X100212857Y-86670476D01*
X101071904Y-86670476D02*
X99431904Y-86670476D01*
X99431904Y-85889523D01*
X99431904Y-85420952D02*
X99431904Y-84405714D01*
X100056666Y-84952380D01*
X100056666Y-84718095D01*
X100134761Y-84561904D01*
X100212857Y-84483809D01*
X100369047Y-84405714D01*
X100759523Y-84405714D01*
X100915714Y-84483809D01*
X100993809Y-84561904D01*
X101071904Y-84718095D01*
X101071904Y-85186666D01*
X100993809Y-85342857D01*
X100915714Y-85420952D01*
X99431904Y-82921904D02*
X99431904Y-83702857D01*
X100212857Y-83780952D01*
X100134761Y-83702857D01*
X100056666Y-83546666D01*
X100056666Y-83156190D01*
X100134761Y-83000000D01*
X100212857Y-82921904D01*
X100369047Y-82843809D01*
X100759523Y-82843809D01*
X100915714Y-82921904D01*
X100993809Y-83000000D01*
X101071904Y-83156190D01*
X101071904Y-83546666D01*
X100993809Y-83702857D01*
X100915714Y-83780952D01*
X99431904Y-82297142D02*
X99431904Y-81281904D01*
X100056666Y-81828571D01*
X100056666Y-81594285D01*
X100134761Y-81438095D01*
X100212857Y-81360000D01*
X100369047Y-81281904D01*
X100759523Y-81281904D01*
X100915714Y-81360000D01*
X100993809Y-81438095D01*
X101071904Y-81594285D01*
X101071904Y-82062857D01*
X100993809Y-82219047D01*
X100915714Y-82297142D01*
X101071904Y-80579047D02*
X99431904Y-80579047D01*
X101071904Y-79641904D01*
X99431904Y-79641904D01*
G04 #@! TO.C,U2*
X115590476Y-82921904D02*
X115590476Y-84249523D01*
X115668571Y-84405714D01*
X115746666Y-84483809D01*
X115902857Y-84561904D01*
X116215238Y-84561904D01*
X116371428Y-84483809D01*
X116449523Y-84405714D01*
X116527619Y-84249523D01*
X116527619Y-82921904D01*
X117230476Y-83078095D02*
X117308571Y-83000000D01*
X117464761Y-82921904D01*
X117855238Y-82921904D01*
X118011428Y-83000000D01*
X118089523Y-83078095D01*
X118167619Y-83234285D01*
X118167619Y-83390476D01*
X118089523Y-83624761D01*
X117152380Y-84561904D01*
X118167619Y-84561904D01*
X121062857Y-84561904D02*
X120281904Y-84561904D01*
X120281904Y-82921904D01*
X122156190Y-83702857D02*
X121609523Y-83702857D01*
X121609523Y-84561904D02*
X121609523Y-82921904D01*
X122390476Y-82921904D01*
X122859047Y-82921904D02*
X123874285Y-82921904D01*
X123327619Y-83546666D01*
X123561904Y-83546666D01*
X123718095Y-83624761D01*
X123796190Y-83702857D01*
X123874285Y-83859047D01*
X123874285Y-84249523D01*
X123796190Y-84405714D01*
X123718095Y-84483809D01*
X123561904Y-84561904D01*
X123093333Y-84561904D01*
X122937142Y-84483809D01*
X122859047Y-84405714D01*
X125358095Y-82921904D02*
X124577142Y-82921904D01*
X124499047Y-83702857D01*
X124577142Y-83624761D01*
X124733333Y-83546666D01*
X125123809Y-83546666D01*
X125280000Y-83624761D01*
X125358095Y-83702857D01*
X125436190Y-83859047D01*
X125436190Y-84249523D01*
X125358095Y-84405714D01*
X125280000Y-84483809D01*
X125123809Y-84561904D01*
X124733333Y-84561904D01*
X124577142Y-84483809D01*
X124499047Y-84405714D01*
X125982857Y-82921904D02*
X126998095Y-82921904D01*
X126451428Y-83546666D01*
X126685714Y-83546666D01*
X126841904Y-83624761D01*
X126920000Y-83702857D01*
X126998095Y-83859047D01*
X126998095Y-84249523D01*
X126920000Y-84405714D01*
X126841904Y-84483809D01*
X126685714Y-84561904D01*
X126217142Y-84561904D01*
X126060952Y-84483809D01*
X125982857Y-84405714D01*
X127700952Y-84561904D02*
X127700952Y-82921904D01*
X128638095Y-84561904D01*
X128638095Y-82921904D01*
G04 #@! TO.C,U3*
X157500476Y-96891904D02*
X157500476Y-98219523D01*
X157578571Y-98375714D01*
X157656666Y-98453809D01*
X157812857Y-98531904D01*
X158125238Y-98531904D01*
X158281428Y-98453809D01*
X158359523Y-98375714D01*
X158437619Y-98219523D01*
X158437619Y-96891904D01*
X159062380Y-96891904D02*
X160077619Y-96891904D01*
X159530952Y-97516666D01*
X159765238Y-97516666D01*
X159921428Y-97594761D01*
X159999523Y-97672857D01*
X160077619Y-97829047D01*
X160077619Y-98219523D01*
X159999523Y-98375714D01*
X159921428Y-98453809D01*
X159765238Y-98531904D01*
X159296666Y-98531904D01*
X159140476Y-98453809D01*
X159062380Y-98375714D01*
X159491904Y-94837142D02*
X159491904Y-95618095D01*
X157851904Y-95618095D01*
X158632857Y-93743809D02*
X158632857Y-94290476D01*
X159491904Y-94290476D02*
X157851904Y-94290476D01*
X157851904Y-93509523D01*
X157851904Y-93040952D02*
X157851904Y-92025714D01*
X158476666Y-92572380D01*
X158476666Y-92338095D01*
X158554761Y-92181904D01*
X158632857Y-92103809D01*
X158789047Y-92025714D01*
X159179523Y-92025714D01*
X159335714Y-92103809D01*
X159413809Y-92181904D01*
X159491904Y-92338095D01*
X159491904Y-92806666D01*
X159413809Y-92962857D01*
X159335714Y-93040952D01*
X157851904Y-90541904D02*
X157851904Y-91322857D01*
X158632857Y-91400952D01*
X158554761Y-91322857D01*
X158476666Y-91166666D01*
X158476666Y-90776190D01*
X158554761Y-90620000D01*
X158632857Y-90541904D01*
X158789047Y-90463809D01*
X159179523Y-90463809D01*
X159335714Y-90541904D01*
X159413809Y-90620000D01*
X159491904Y-90776190D01*
X159491904Y-91166666D01*
X159413809Y-91322857D01*
X159335714Y-91400952D01*
X157851904Y-89917142D02*
X157851904Y-88901904D01*
X158476666Y-89448571D01*
X158476666Y-89214285D01*
X158554761Y-89058095D01*
X158632857Y-88980000D01*
X158789047Y-88901904D01*
X159179523Y-88901904D01*
X159335714Y-88980000D01*
X159413809Y-89058095D01*
X159491904Y-89214285D01*
X159491904Y-89682857D01*
X159413809Y-89839047D01*
X159335714Y-89917142D01*
X159491904Y-88199047D02*
X157851904Y-88199047D01*
X159491904Y-87261904D01*
X157851904Y-87261904D01*
G04 #@! TO.C,J5*
D14*
X100572380Y-99393333D02*
X101286666Y-99393333D01*
X101429523Y-99440952D01*
X101524761Y-99536190D01*
X101572380Y-99679047D01*
X101572380Y-99774285D01*
X100572380Y-98440952D02*
X100572380Y-98917142D01*
X101048571Y-98964761D01*
X101000952Y-98917142D01*
X100953333Y-98821904D01*
X100953333Y-98583809D01*
X101000952Y-98488571D01*
X101048571Y-98440952D01*
X101143809Y-98393333D01*
X101381904Y-98393333D01*
X101477142Y-98440952D01*
X101524761Y-98488571D01*
X101572380Y-98583809D01*
X101572380Y-98821904D01*
X101524761Y-98917142D01*
X101477142Y-98964761D01*
G04 #@! TO.C,H1*
X85598095Y-48052380D02*
X85598095Y-47052380D01*
X85598095Y-47528571D02*
X86169523Y-47528571D01*
X86169523Y-48052380D02*
X86169523Y-47052380D01*
X87169523Y-48052380D02*
X86598095Y-48052380D01*
X86883809Y-48052380D02*
X86883809Y-47052380D01*
X86788571Y-47195238D01*
X86693333Y-47290476D01*
X86598095Y-47338095D01*
G04 #@! TO.C,H2*
X160528095Y-48052380D02*
X160528095Y-47052380D01*
X160528095Y-47528571D02*
X161099523Y-47528571D01*
X161099523Y-48052380D02*
X161099523Y-47052380D01*
X161528095Y-47147619D02*
X161575714Y-47100000D01*
X161670952Y-47052380D01*
X161909047Y-47052380D01*
X162004285Y-47100000D01*
X162051904Y-47147619D01*
X162099523Y-47242857D01*
X162099523Y-47338095D01*
X162051904Y-47480952D01*
X161480476Y-48052380D01*
X162099523Y-48052380D01*
G04 #@! TD*
M02*
