G04 #@! TF.GenerationSoftware,KiCad,Pcbnew,(5.1.0-0)*
G04 #@! TF.CreationDate,2019-04-27T21:54:15-07:00*
G04 #@! TF.ProjectId,Pre-amp,5072652d-616d-4702-9e6b-696361645f70,rev?*
G04 #@! TF.SameCoordinates,Original*
G04 #@! TF.FileFunction,Legend,Top*
G04 #@! TF.FilePolarity,Positive*
%FSLAX46Y46*%
G04 Gerber Fmt 4.6, Leading zero omitted, Abs format (unit mm)*
G04 Created by KiCad (PCBNEW (5.1.0-0)) date 2019-04-27 21:54:15*
%MOMM*%
%LPD*%
G04 APERTURE LIST*
%ADD10C,0.150000*%
%ADD11C,0.200000*%
%ADD12C,0.100000*%
%ADD13C,0.120000*%
G04 APERTURE END LIST*
D10*
X74589095Y-22536380D02*
X74684333Y-22536380D01*
X74779571Y-22584000D01*
X74827190Y-22631619D01*
X74874809Y-22726857D01*
X74922428Y-22917333D01*
X74922428Y-23155428D01*
X74874809Y-23345904D01*
X74827190Y-23441142D01*
X74779571Y-23488761D01*
X74684333Y-23536380D01*
X74589095Y-23536380D01*
X74493857Y-23488761D01*
X74446238Y-23441142D01*
X74398619Y-23345904D01*
X74351000Y-23155428D01*
X74351000Y-22917333D01*
X74398619Y-22726857D01*
X74446238Y-22631619D01*
X74493857Y-22584000D01*
X74589095Y-22536380D01*
X75351000Y-23441142D02*
X75398619Y-23488761D01*
X75351000Y-23536380D01*
X75303380Y-23488761D01*
X75351000Y-23441142D01*
X75351000Y-23536380D01*
X75970047Y-22964952D02*
X75874809Y-22917333D01*
X75827190Y-22869714D01*
X75779571Y-22774476D01*
X75779571Y-22726857D01*
X75827190Y-22631619D01*
X75874809Y-22584000D01*
X75970047Y-22536380D01*
X76160523Y-22536380D01*
X76255761Y-22584000D01*
X76303380Y-22631619D01*
X76351000Y-22726857D01*
X76351000Y-22774476D01*
X76303380Y-22869714D01*
X76255761Y-22917333D01*
X76160523Y-22964952D01*
X75970047Y-22964952D01*
X75874809Y-23012571D01*
X75827190Y-23060190D01*
X75779571Y-23155428D01*
X75779571Y-23345904D01*
X75827190Y-23441142D01*
X75874809Y-23488761D01*
X75970047Y-23536380D01*
X76160523Y-23536380D01*
X76255761Y-23488761D01*
X76303380Y-23441142D01*
X76351000Y-23345904D01*
X76351000Y-23155428D01*
X76303380Y-23060190D01*
X76255761Y-23012571D01*
X76160523Y-22964952D01*
X77303380Y-23536380D02*
X76731952Y-23536380D01*
X77017666Y-23536380D02*
X77017666Y-22536380D01*
X76922428Y-22679238D01*
X76827190Y-22774476D01*
X76731952Y-22822095D01*
X77922428Y-22536380D02*
X78017666Y-22536380D01*
X78112904Y-22584000D01*
X78160523Y-22631619D01*
X78208142Y-22726857D01*
X78255761Y-22917333D01*
X78255761Y-23155428D01*
X78208142Y-23345904D01*
X78160523Y-23441142D01*
X78112904Y-23488761D01*
X78017666Y-23536380D01*
X77922428Y-23536380D01*
X77827190Y-23488761D01*
X77779571Y-23441142D01*
X77731952Y-23345904D01*
X77684333Y-23155428D01*
X77684333Y-22917333D01*
X77731952Y-22726857D01*
X77779571Y-22631619D01*
X77827190Y-22584000D01*
X77922428Y-22536380D01*
X78874809Y-22536380D02*
X78970047Y-22536380D01*
X79065285Y-22584000D01*
X79112904Y-22631619D01*
X79160523Y-22726857D01*
X79208142Y-22917333D01*
X79208142Y-23155428D01*
X79160523Y-23345904D01*
X79112904Y-23441142D01*
X79065285Y-23488761D01*
X78970047Y-23536380D01*
X78874809Y-23536380D01*
X78779571Y-23488761D01*
X78731952Y-23441142D01*
X78684333Y-23345904D01*
X78636714Y-23155428D01*
X78636714Y-22917333D01*
X78684333Y-22726857D01*
X78731952Y-22631619D01*
X78779571Y-22584000D01*
X78874809Y-22536380D01*
X80398619Y-23536380D02*
X80398619Y-22869714D01*
X80398619Y-22536380D02*
X80351000Y-22584000D01*
X80398619Y-22631619D01*
X80446238Y-22584000D01*
X80398619Y-22536380D01*
X80398619Y-22631619D01*
X80874809Y-22869714D02*
X80874809Y-23536380D01*
X80874809Y-22964952D02*
X80922428Y-22917333D01*
X81017666Y-22869714D01*
X81160523Y-22869714D01*
X81255761Y-22917333D01*
X81303380Y-23012571D01*
X81303380Y-23536380D01*
X88138000Y-24384000D02*
X67564000Y-24384000D01*
X88138000Y-50546000D02*
X88138000Y-23797579D01*
X67564000Y-50546000D02*
X67564000Y-23797579D01*
X67564000Y-24384000D02*
X68690504Y-23797579D01*
X67564000Y-24384000D02*
X68690504Y-24970421D01*
X88138000Y-24384000D02*
X87011496Y-23797579D01*
X88138000Y-24384000D02*
X87011496Y-24970421D01*
D11*
X59126761Y-55840380D02*
X59460095Y-56840380D01*
X59793428Y-55840380D01*
X60269619Y-56840380D02*
X60174380Y-56792761D01*
X60126761Y-56745142D01*
X60079142Y-56649904D01*
X60079142Y-56364190D01*
X60126761Y-56268952D01*
X60174380Y-56221333D01*
X60269619Y-56173714D01*
X60412476Y-56173714D01*
X60507714Y-56221333D01*
X60555333Y-56268952D01*
X60602952Y-56364190D01*
X60602952Y-56649904D01*
X60555333Y-56745142D01*
X60507714Y-56792761D01*
X60412476Y-56840380D01*
X60269619Y-56840380D01*
X61174380Y-56840380D02*
X61079142Y-56792761D01*
X61031523Y-56697523D01*
X61031523Y-55840380D01*
X61983904Y-56173714D02*
X61983904Y-56840380D01*
X61555333Y-56173714D02*
X61555333Y-56697523D01*
X61602952Y-56792761D01*
X61698190Y-56840380D01*
X61841047Y-56840380D01*
X61936285Y-56792761D01*
X61983904Y-56745142D01*
X62460095Y-56840380D02*
X62460095Y-56173714D01*
X62460095Y-56268952D02*
X62507714Y-56221333D01*
X62602952Y-56173714D01*
X62745809Y-56173714D01*
X62841047Y-56221333D01*
X62888666Y-56316571D01*
X62888666Y-56840380D01*
X62888666Y-56316571D02*
X62936285Y-56221333D01*
X63031523Y-56173714D01*
X63174380Y-56173714D01*
X63269619Y-56221333D01*
X63317238Y-56316571D01*
X63317238Y-56840380D01*
X64174380Y-56792761D02*
X64079142Y-56840380D01*
X63888666Y-56840380D01*
X63793428Y-56792761D01*
X63745809Y-56697523D01*
X63745809Y-56316571D01*
X63793428Y-56221333D01*
X63888666Y-56173714D01*
X64079142Y-56173714D01*
X64174380Y-56221333D01*
X64222000Y-56316571D01*
X64222000Y-56411809D01*
X63745809Y-56507047D01*
D12*
X54572428Y-90219571D02*
X54643857Y-90255285D01*
X54786714Y-90255285D01*
X54858142Y-90219571D01*
X54893857Y-90148142D01*
X54893857Y-90112428D01*
X54858142Y-90041000D01*
X54786714Y-90005285D01*
X54679571Y-90005285D01*
X54608142Y-89969571D01*
X54572428Y-89898142D01*
X54572428Y-89862428D01*
X54608142Y-89791000D01*
X54679571Y-89755285D01*
X54786714Y-89755285D01*
X54858142Y-89791000D01*
X55215285Y-90255285D02*
X55215285Y-89505285D01*
X55536714Y-90255285D02*
X55536714Y-89862428D01*
X55501000Y-89791000D01*
X55429571Y-89755285D01*
X55322428Y-89755285D01*
X55251000Y-89791000D01*
X55215285Y-89826714D01*
X55893857Y-89755285D02*
X55893857Y-90255285D01*
X55893857Y-89826714D02*
X55929571Y-89791000D01*
X56001000Y-89755285D01*
X56108142Y-89755285D01*
X56179571Y-89791000D01*
X56215285Y-89862428D01*
X56215285Y-90255285D01*
X56465285Y-89755285D02*
X56751000Y-89755285D01*
X56572428Y-89505285D02*
X56572428Y-90148142D01*
X56608142Y-90219571D01*
X56679571Y-90255285D01*
X56751000Y-90255285D01*
X54820428Y-88441571D02*
X54891857Y-88477285D01*
X55034714Y-88477285D01*
X55106142Y-88441571D01*
X55141857Y-88370142D01*
X55141857Y-88334428D01*
X55106142Y-88263000D01*
X55034714Y-88227285D01*
X54927571Y-88227285D01*
X54856142Y-88191571D01*
X54820428Y-88120142D01*
X54820428Y-88084428D01*
X54856142Y-88013000D01*
X54927571Y-87977285D01*
X55034714Y-87977285D01*
X55106142Y-88013000D01*
X55463285Y-88477285D02*
X55463285Y-87977285D01*
X55463285Y-87727285D02*
X55427571Y-87763000D01*
X55463285Y-87798714D01*
X55499000Y-87763000D01*
X55463285Y-87727285D01*
X55463285Y-87798714D01*
X56141857Y-87977285D02*
X56141857Y-88584428D01*
X56106142Y-88655857D01*
X56070428Y-88691571D01*
X55999000Y-88727285D01*
X55891857Y-88727285D01*
X55820428Y-88691571D01*
X56141857Y-88441571D02*
X56070428Y-88477285D01*
X55927571Y-88477285D01*
X55856142Y-88441571D01*
X55820428Y-88405857D01*
X55784714Y-88334428D01*
X55784714Y-88120142D01*
X55820428Y-88048714D01*
X55856142Y-88013000D01*
X55927571Y-87977285D01*
X56070428Y-87977285D01*
X56141857Y-88013000D01*
X54800571Y-85477000D02*
X54729142Y-85441285D01*
X54622000Y-85441285D01*
X54514857Y-85477000D01*
X54443428Y-85548428D01*
X54407714Y-85619857D01*
X54372000Y-85762714D01*
X54372000Y-85869857D01*
X54407714Y-86012714D01*
X54443428Y-86084142D01*
X54514857Y-86155571D01*
X54622000Y-86191285D01*
X54693428Y-86191285D01*
X54800571Y-86155571D01*
X54836285Y-86119857D01*
X54836285Y-85869857D01*
X54693428Y-85869857D01*
X55157714Y-86191285D02*
X55157714Y-85441285D01*
X55586285Y-86191285D01*
X55586285Y-85441285D01*
X55943428Y-86191285D02*
X55943428Y-85441285D01*
X56122000Y-85441285D01*
X56229142Y-85477000D01*
X56300571Y-85548428D01*
X56336285Y-85619857D01*
X56372000Y-85762714D01*
X56372000Y-85869857D01*
X56336285Y-86012714D01*
X56300571Y-86084142D01*
X56229142Y-86155571D01*
X56122000Y-86191285D01*
X55943428Y-86191285D01*
X53552285Y-94196142D02*
X52802285Y-94196142D01*
X53052285Y-93839000D02*
X53552285Y-93839000D01*
X53123714Y-93839000D02*
X53088000Y-93803285D01*
X53052285Y-93731857D01*
X53052285Y-93624714D01*
X53088000Y-93553285D01*
X53159428Y-93517571D01*
X53552285Y-93517571D01*
X53052285Y-93160428D02*
X53802285Y-93160428D01*
X53088000Y-93160428D02*
X53052285Y-93089000D01*
X53052285Y-92946142D01*
X53088000Y-92874714D01*
X53123714Y-92839000D01*
X53195142Y-92803285D01*
X53409428Y-92803285D01*
X53480857Y-92839000D01*
X53516571Y-92874714D01*
X53552285Y-92946142D01*
X53552285Y-93089000D01*
X53516571Y-93160428D01*
X53052285Y-92160428D02*
X53552285Y-92160428D01*
X53052285Y-92481857D02*
X53445142Y-92481857D01*
X53516571Y-92446142D01*
X53552285Y-92374714D01*
X53552285Y-92267571D01*
X53516571Y-92196142D01*
X53480857Y-92160428D01*
X53052285Y-91910428D02*
X53052285Y-91624714D01*
X52802285Y-91803285D02*
X53445142Y-91803285D01*
X53516571Y-91767571D01*
X53552285Y-91696142D01*
X53552285Y-91624714D01*
X121080571Y-97658857D02*
X121116285Y-97587428D01*
X121116285Y-97444571D01*
X121080571Y-97373142D01*
X121009142Y-97337428D01*
X120973428Y-97337428D01*
X120902000Y-97373142D01*
X120866285Y-97444571D01*
X120866285Y-97551714D01*
X120830571Y-97623142D01*
X120759142Y-97658857D01*
X120723428Y-97658857D01*
X120652000Y-97623142D01*
X120616285Y-97551714D01*
X120616285Y-97444571D01*
X120652000Y-97373142D01*
X121116285Y-97016000D02*
X120366285Y-97016000D01*
X121116285Y-96694571D02*
X120723428Y-96694571D01*
X120652000Y-96730285D01*
X120616285Y-96801714D01*
X120616285Y-96908857D01*
X120652000Y-96980285D01*
X120687714Y-97016000D01*
X120616285Y-96016000D02*
X121116285Y-96016000D01*
X120616285Y-96337428D02*
X121009142Y-96337428D01*
X121080571Y-96301714D01*
X121116285Y-96230285D01*
X121116285Y-96123142D01*
X121080571Y-96051714D01*
X121044857Y-96016000D01*
X120616285Y-95658857D02*
X121116285Y-95658857D01*
X120687714Y-95658857D02*
X120652000Y-95623142D01*
X120616285Y-95551714D01*
X120616285Y-95444571D01*
X120652000Y-95373142D01*
X120723428Y-95337428D01*
X121116285Y-95337428D01*
X120616285Y-95087428D02*
X120616285Y-94801714D01*
X120366285Y-94980285D02*
X121009142Y-94980285D01*
X121080571Y-94944571D01*
X121116285Y-94873142D01*
X121116285Y-94801714D01*
X122985571Y-97706571D02*
X123021285Y-97635142D01*
X123021285Y-97492285D01*
X122985571Y-97420857D01*
X122914142Y-97385142D01*
X122878428Y-97385142D01*
X122807000Y-97420857D01*
X122771285Y-97492285D01*
X122771285Y-97599428D01*
X122735571Y-97670857D01*
X122664142Y-97706571D01*
X122628428Y-97706571D01*
X122557000Y-97670857D01*
X122521285Y-97599428D01*
X122521285Y-97492285D01*
X122557000Y-97420857D01*
X123021285Y-97063714D02*
X122521285Y-97063714D01*
X122271285Y-97063714D02*
X122307000Y-97099428D01*
X122342714Y-97063714D01*
X122307000Y-97028000D01*
X122271285Y-97063714D01*
X122342714Y-97063714D01*
X122521285Y-96385142D02*
X123128428Y-96385142D01*
X123199857Y-96420857D01*
X123235571Y-96456571D01*
X123271285Y-96528000D01*
X123271285Y-96635142D01*
X123235571Y-96706571D01*
X122985571Y-96385142D02*
X123021285Y-96456571D01*
X123021285Y-96599428D01*
X122985571Y-96670857D01*
X122949857Y-96706571D01*
X122878428Y-96742285D01*
X122664142Y-96742285D01*
X122592714Y-96706571D01*
X122557000Y-96670857D01*
X122521285Y-96599428D01*
X122521285Y-96456571D01*
X122557000Y-96385142D01*
X111301571Y-97706571D02*
X111337285Y-97635142D01*
X111337285Y-97492285D01*
X111301571Y-97420857D01*
X111230142Y-97385142D01*
X111194428Y-97385142D01*
X111123000Y-97420857D01*
X111087285Y-97492285D01*
X111087285Y-97599428D01*
X111051571Y-97670857D01*
X110980142Y-97706571D01*
X110944428Y-97706571D01*
X110873000Y-97670857D01*
X110837285Y-97599428D01*
X110837285Y-97492285D01*
X110873000Y-97420857D01*
X111337285Y-97063714D02*
X110837285Y-97063714D01*
X110587285Y-97063714D02*
X110623000Y-97099428D01*
X110658714Y-97063714D01*
X110623000Y-97028000D01*
X110587285Y-97063714D01*
X110658714Y-97063714D01*
X110837285Y-96385142D02*
X111444428Y-96385142D01*
X111515857Y-96420857D01*
X111551571Y-96456571D01*
X111587285Y-96528000D01*
X111587285Y-96635142D01*
X111551571Y-96706571D01*
X111301571Y-96385142D02*
X111337285Y-96456571D01*
X111337285Y-96599428D01*
X111301571Y-96670857D01*
X111265857Y-96706571D01*
X111194428Y-96742285D01*
X110980142Y-96742285D01*
X110908714Y-96706571D01*
X110873000Y-96670857D01*
X110837285Y-96599428D01*
X110837285Y-96456571D01*
X110873000Y-96385142D01*
X109305285Y-97617285D02*
X108555285Y-97617285D01*
X109305285Y-97188714D01*
X108555285Y-97188714D01*
X109233857Y-96403000D02*
X109269571Y-96438714D01*
X109305285Y-96545857D01*
X109305285Y-96617285D01*
X109269571Y-96724428D01*
X109198142Y-96795857D01*
X109126714Y-96831571D01*
X108983857Y-96867285D01*
X108876714Y-96867285D01*
X108733857Y-96831571D01*
X108662428Y-96795857D01*
X108591000Y-96724428D01*
X108555285Y-96617285D01*
X108555285Y-96545857D01*
X108591000Y-96438714D01*
X108626714Y-96403000D01*
X112655000Y-97218428D02*
X112619285Y-97289857D01*
X112619285Y-97397000D01*
X112655000Y-97504142D01*
X112726428Y-97575571D01*
X112797857Y-97611285D01*
X112940714Y-97647000D01*
X113047857Y-97647000D01*
X113190714Y-97611285D01*
X113262142Y-97575571D01*
X113333571Y-97504142D01*
X113369285Y-97397000D01*
X113369285Y-97325571D01*
X113333571Y-97218428D01*
X113297857Y-97182714D01*
X113047857Y-97182714D01*
X113047857Y-97325571D01*
X113369285Y-96861285D02*
X112619285Y-96861285D01*
X113369285Y-96432714D01*
X112619285Y-96432714D01*
X113369285Y-96075571D02*
X112619285Y-96075571D01*
X112619285Y-95897000D01*
X112655000Y-95789857D01*
X112726428Y-95718428D01*
X112797857Y-95682714D01*
X112940714Y-95647000D01*
X113047857Y-95647000D01*
X113190714Y-95682714D01*
X113262142Y-95718428D01*
X113333571Y-95789857D01*
X113369285Y-95897000D01*
X113369285Y-96075571D01*
X124339000Y-97472428D02*
X124303285Y-97543857D01*
X124303285Y-97651000D01*
X124339000Y-97758142D01*
X124410428Y-97829571D01*
X124481857Y-97865285D01*
X124624714Y-97901000D01*
X124731857Y-97901000D01*
X124874714Y-97865285D01*
X124946142Y-97829571D01*
X125017571Y-97758142D01*
X125053285Y-97651000D01*
X125053285Y-97579571D01*
X125017571Y-97472428D01*
X124981857Y-97436714D01*
X124731857Y-97436714D01*
X124731857Y-97579571D01*
X125053285Y-97115285D02*
X124303285Y-97115285D01*
X125053285Y-96686714D01*
X124303285Y-96686714D01*
X125053285Y-96329571D02*
X124303285Y-96329571D01*
X124303285Y-96151000D01*
X124339000Y-96043857D01*
X124410428Y-95972428D01*
X124481857Y-95936714D01*
X124624714Y-95901000D01*
X124731857Y-95901000D01*
X124874714Y-95936714D01*
X124946142Y-95972428D01*
X125017571Y-96043857D01*
X125053285Y-96151000D01*
X125053285Y-96329571D01*
X129637285Y-99685000D02*
X129637285Y-99542142D01*
X129673000Y-99470714D01*
X129744428Y-99399285D01*
X129887285Y-99363571D01*
X130137285Y-99363571D01*
X130280142Y-99399285D01*
X130351571Y-99470714D01*
X130387285Y-99542142D01*
X130387285Y-99685000D01*
X130351571Y-99756428D01*
X130280142Y-99827857D01*
X130137285Y-99863571D01*
X129887285Y-99863571D01*
X129744428Y-99827857D01*
X129673000Y-99756428D01*
X129637285Y-99685000D01*
X129887285Y-98720714D02*
X130387285Y-98720714D01*
X129887285Y-99042142D02*
X130280142Y-99042142D01*
X130351571Y-99006428D01*
X130387285Y-98935000D01*
X130387285Y-98827857D01*
X130351571Y-98756428D01*
X130315857Y-98720714D01*
X129887285Y-98470714D02*
X129887285Y-98185000D01*
X129637285Y-98363571D02*
X130280142Y-98363571D01*
X130351571Y-98327857D01*
X130387285Y-98256428D01*
X130387285Y-98185000D01*
X100383571Y-97551714D02*
X100383571Y-96980285D01*
X100669285Y-97266000D02*
X100097857Y-97266000D01*
X100669285Y-96230285D02*
X100669285Y-96658857D01*
X100669285Y-96444571D02*
X99919285Y-96444571D01*
X100026428Y-96516000D01*
X100097857Y-96587428D01*
X100133571Y-96658857D01*
X99919285Y-95551714D02*
X99919285Y-95908857D01*
X100276428Y-95944571D01*
X100240714Y-95908857D01*
X100205000Y-95837428D01*
X100205000Y-95658857D01*
X100240714Y-95587428D01*
X100276428Y-95551714D01*
X100347857Y-95516000D01*
X100526428Y-95516000D01*
X100597857Y-95551714D01*
X100633571Y-95587428D01*
X100669285Y-95658857D01*
X100669285Y-95837428D01*
X100633571Y-95908857D01*
X100597857Y-95944571D01*
X100169285Y-95266000D02*
X100669285Y-95087428D01*
X100169285Y-94908857D01*
X98351571Y-97551714D02*
X98351571Y-96980285D01*
X98637285Y-96230285D02*
X98637285Y-96658857D01*
X98637285Y-96444571D02*
X97887285Y-96444571D01*
X97994428Y-96516000D01*
X98065857Y-96587428D01*
X98101571Y-96658857D01*
X97887285Y-95551714D02*
X97887285Y-95908857D01*
X98244428Y-95944571D01*
X98208714Y-95908857D01*
X98173000Y-95837428D01*
X98173000Y-95658857D01*
X98208714Y-95587428D01*
X98244428Y-95551714D01*
X98315857Y-95516000D01*
X98494428Y-95516000D01*
X98565857Y-95551714D01*
X98601571Y-95587428D01*
X98637285Y-95658857D01*
X98637285Y-95837428D01*
X98601571Y-95908857D01*
X98565857Y-95944571D01*
X98137285Y-95266000D02*
X98637285Y-95087428D01*
X98137285Y-94908857D01*
X96018000Y-97091428D02*
X95982285Y-97162857D01*
X95982285Y-97270000D01*
X96018000Y-97377142D01*
X96089428Y-97448571D01*
X96160857Y-97484285D01*
X96303714Y-97520000D01*
X96410857Y-97520000D01*
X96553714Y-97484285D01*
X96625142Y-97448571D01*
X96696571Y-97377142D01*
X96732285Y-97270000D01*
X96732285Y-97198571D01*
X96696571Y-97091428D01*
X96660857Y-97055714D01*
X96410857Y-97055714D01*
X96410857Y-97198571D01*
X96732285Y-96734285D02*
X95982285Y-96734285D01*
X96732285Y-96305714D01*
X95982285Y-96305714D01*
X96732285Y-95948571D02*
X95982285Y-95948571D01*
X95982285Y-95770000D01*
X96018000Y-95662857D01*
X96089428Y-95591428D01*
X96160857Y-95555714D01*
X96303714Y-95520000D01*
X96410857Y-95520000D01*
X96553714Y-95555714D01*
X96625142Y-95591428D01*
X96696571Y-95662857D01*
X96732285Y-95770000D01*
X96732285Y-95948571D01*
X132165285Y-97744285D02*
X131415285Y-97744285D01*
X132165285Y-97315714D01*
X131415285Y-97315714D01*
X132093857Y-96530000D02*
X132129571Y-96565714D01*
X132165285Y-96672857D01*
X132165285Y-96744285D01*
X132129571Y-96851428D01*
X132058142Y-96922857D01*
X131986714Y-96958571D01*
X131843857Y-96994285D01*
X131736714Y-96994285D01*
X131593857Y-96958571D01*
X131522428Y-96922857D01*
X131451000Y-96851428D01*
X131415285Y-96744285D01*
X131415285Y-96672857D01*
X131451000Y-96565714D01*
X131486714Y-96530000D01*
X135769000Y-97472428D02*
X135733285Y-97543857D01*
X135733285Y-97651000D01*
X135769000Y-97758142D01*
X135840428Y-97829571D01*
X135911857Y-97865285D01*
X136054714Y-97901000D01*
X136161857Y-97901000D01*
X136304714Y-97865285D01*
X136376142Y-97829571D01*
X136447571Y-97758142D01*
X136483285Y-97651000D01*
X136483285Y-97579571D01*
X136447571Y-97472428D01*
X136411857Y-97436714D01*
X136161857Y-97436714D01*
X136161857Y-97579571D01*
X136483285Y-97115285D02*
X135733285Y-97115285D01*
X136483285Y-96686714D01*
X135733285Y-96686714D01*
X136483285Y-96329571D02*
X135733285Y-96329571D01*
X135733285Y-96151000D01*
X135769000Y-96043857D01*
X135840428Y-95972428D01*
X135911857Y-95936714D01*
X136054714Y-95901000D01*
X136161857Y-95901000D01*
X136304714Y-95936714D01*
X136376142Y-95972428D01*
X136447571Y-96043857D01*
X136483285Y-96151000D01*
X136483285Y-96329571D01*
X134288571Y-97579571D02*
X134324285Y-97508142D01*
X134324285Y-97365285D01*
X134288571Y-97293857D01*
X134217142Y-97258142D01*
X134181428Y-97258142D01*
X134110000Y-97293857D01*
X134074285Y-97365285D01*
X134074285Y-97472428D01*
X134038571Y-97543857D01*
X133967142Y-97579571D01*
X133931428Y-97579571D01*
X133860000Y-97543857D01*
X133824285Y-97472428D01*
X133824285Y-97365285D01*
X133860000Y-97293857D01*
X134324285Y-96936714D02*
X133824285Y-96936714D01*
X133574285Y-96936714D02*
X133610000Y-96972428D01*
X133645714Y-96936714D01*
X133610000Y-96901000D01*
X133574285Y-96936714D01*
X133645714Y-96936714D01*
X133824285Y-96258142D02*
X134431428Y-96258142D01*
X134502857Y-96293857D01*
X134538571Y-96329571D01*
X134574285Y-96401000D01*
X134574285Y-96508142D01*
X134538571Y-96579571D01*
X134288571Y-96258142D02*
X134324285Y-96329571D01*
X134324285Y-96472428D01*
X134288571Y-96543857D01*
X134252857Y-96579571D01*
X134181428Y-96615285D01*
X133967142Y-96615285D01*
X133895714Y-96579571D01*
X133860000Y-96543857D01*
X133824285Y-96472428D01*
X133824285Y-96329571D01*
X133860000Y-96258142D01*
X160150285Y-82761857D02*
X159400285Y-82761857D01*
X159936000Y-82511857D01*
X159400285Y-82261857D01*
X160150285Y-82261857D01*
X159400285Y-81976142D02*
X160150285Y-81476142D01*
X159400285Y-81476142D02*
X160150285Y-81976142D01*
X160150285Y-81190428D02*
X159400285Y-81190428D01*
X159936000Y-80940428D01*
X159400285Y-80690428D01*
X160150285Y-80690428D01*
X160150285Y-79761857D02*
X159400285Y-79761857D01*
X159400285Y-79583285D01*
X159436000Y-79476142D01*
X159507428Y-79404714D01*
X159578857Y-79369000D01*
X159721714Y-79333285D01*
X159828857Y-79333285D01*
X159971714Y-79369000D01*
X160043142Y-79404714D01*
X160114571Y-79476142D01*
X160150285Y-79583285D01*
X160150285Y-79761857D01*
X160114571Y-78726142D02*
X160150285Y-78797571D01*
X160150285Y-78940428D01*
X160114571Y-79011857D01*
X160043142Y-79047571D01*
X159757428Y-79047571D01*
X159686000Y-79011857D01*
X159650285Y-78940428D01*
X159650285Y-78797571D01*
X159686000Y-78726142D01*
X159757428Y-78690428D01*
X159828857Y-78690428D01*
X159900285Y-79047571D01*
X160114571Y-78404714D02*
X160150285Y-78333285D01*
X160150285Y-78190428D01*
X160114571Y-78119000D01*
X160043142Y-78083285D01*
X160007428Y-78083285D01*
X159936000Y-78119000D01*
X159900285Y-78190428D01*
X159900285Y-78297571D01*
X159864571Y-78369000D01*
X159793142Y-78404714D01*
X159757428Y-78404714D01*
X159686000Y-78369000D01*
X159650285Y-78297571D01*
X159650285Y-78190428D01*
X159686000Y-78119000D01*
X160150285Y-77761857D02*
X159650285Y-77761857D01*
X159400285Y-77761857D02*
X159436000Y-77797571D01*
X159471714Y-77761857D01*
X159436000Y-77726142D01*
X159400285Y-77761857D01*
X159471714Y-77761857D01*
X159650285Y-77083285D02*
X160257428Y-77083285D01*
X160328857Y-77119000D01*
X160364571Y-77154714D01*
X160400285Y-77226142D01*
X160400285Y-77333285D01*
X160364571Y-77404714D01*
X160114571Y-77083285D02*
X160150285Y-77154714D01*
X160150285Y-77297571D01*
X160114571Y-77369000D01*
X160078857Y-77404714D01*
X160007428Y-77440428D01*
X159793142Y-77440428D01*
X159721714Y-77404714D01*
X159686000Y-77369000D01*
X159650285Y-77297571D01*
X159650285Y-77154714D01*
X159686000Y-77083285D01*
X159650285Y-76726142D02*
X160150285Y-76726142D01*
X159721714Y-76726142D02*
X159686000Y-76690428D01*
X159650285Y-76619000D01*
X159650285Y-76511857D01*
X159686000Y-76440428D01*
X159757428Y-76404714D01*
X160150285Y-76404714D01*
X160114571Y-76083285D02*
X160150285Y-76011857D01*
X160150285Y-75869000D01*
X160114571Y-75797571D01*
X160043142Y-75761857D01*
X160007428Y-75761857D01*
X159936000Y-75797571D01*
X159900285Y-75869000D01*
X159900285Y-75976142D01*
X159864571Y-76047571D01*
X159793142Y-76083285D01*
X159757428Y-76083285D01*
X159686000Y-76047571D01*
X159650285Y-75976142D01*
X159650285Y-75869000D01*
X159686000Y-75797571D01*
X161375285Y-81369000D02*
X160625285Y-81369000D01*
X160625285Y-81083285D01*
X160661000Y-81011857D01*
X160696714Y-80976142D01*
X160768142Y-80940428D01*
X160875285Y-80940428D01*
X160946714Y-80976142D01*
X160982428Y-81011857D01*
X161018142Y-81083285D01*
X161018142Y-81369000D01*
X161375285Y-80619000D02*
X160875285Y-80619000D01*
X161018142Y-80619000D02*
X160946714Y-80583285D01*
X160911000Y-80547571D01*
X160875285Y-80476142D01*
X160875285Y-80404714D01*
X161339571Y-79869000D02*
X161375285Y-79940428D01*
X161375285Y-80083285D01*
X161339571Y-80154714D01*
X161268142Y-80190428D01*
X160982428Y-80190428D01*
X160911000Y-80154714D01*
X160875285Y-80083285D01*
X160875285Y-79940428D01*
X160911000Y-79869000D01*
X160982428Y-79833285D01*
X161053857Y-79833285D01*
X161125285Y-80190428D01*
X161089571Y-79511857D02*
X161089571Y-78940428D01*
X161161000Y-78619000D02*
X161161000Y-78261857D01*
X161375285Y-78690428D02*
X160625285Y-78440428D01*
X161375285Y-78190428D01*
X161375285Y-77940428D02*
X160875285Y-77940428D01*
X160946714Y-77940428D02*
X160911000Y-77904714D01*
X160875285Y-77833285D01*
X160875285Y-77726142D01*
X160911000Y-77654714D01*
X160982428Y-77619000D01*
X161375285Y-77619000D01*
X160982428Y-77619000D02*
X160911000Y-77583285D01*
X160875285Y-77511857D01*
X160875285Y-77404714D01*
X160911000Y-77333285D01*
X160982428Y-77297571D01*
X161375285Y-77297571D01*
X160875285Y-76940428D02*
X161625285Y-76940428D01*
X160911000Y-76940428D02*
X160875285Y-76869000D01*
X160875285Y-76726142D01*
X160911000Y-76654714D01*
X160946714Y-76619000D01*
X161018142Y-76583285D01*
X161232428Y-76583285D01*
X161303857Y-76619000D01*
X161339571Y-76654714D01*
X161375285Y-76726142D01*
X161375285Y-76869000D01*
X161339571Y-76940428D01*
X162100285Y-84422571D02*
X162600285Y-84244000D01*
X162100285Y-84065428D01*
X162600285Y-83386857D02*
X162600285Y-83815428D01*
X162600285Y-83601142D02*
X161850285Y-83601142D01*
X161957428Y-83672571D01*
X162028857Y-83744000D01*
X162064571Y-83815428D01*
X162528857Y-83065428D02*
X162564571Y-83029714D01*
X162600285Y-83065428D01*
X162564571Y-83101142D01*
X162528857Y-83065428D01*
X162600285Y-83065428D01*
X162600285Y-82315428D02*
X162600285Y-82744000D01*
X162600285Y-82529714D02*
X161850285Y-82529714D01*
X161957428Y-82601142D01*
X162028857Y-82672571D01*
X162064571Y-82744000D01*
X162528857Y-81994000D02*
X162564571Y-81958285D01*
X162600285Y-81994000D01*
X162564571Y-82029714D01*
X162528857Y-81994000D01*
X162600285Y-81994000D01*
X162100285Y-81315428D02*
X162600285Y-81315428D01*
X161814571Y-81494000D02*
X162350285Y-81672571D01*
X162350285Y-81208285D01*
X161850285Y-80208285D02*
X161850285Y-80136857D01*
X161886000Y-80065428D01*
X161921714Y-80029714D01*
X161993142Y-79994000D01*
X162136000Y-79958285D01*
X162314571Y-79958285D01*
X162457428Y-79994000D01*
X162528857Y-80029714D01*
X162564571Y-80065428D01*
X162600285Y-80136857D01*
X162600285Y-80208285D01*
X162564571Y-80279714D01*
X162528857Y-80315428D01*
X162457428Y-80351142D01*
X162314571Y-80386857D01*
X162136000Y-80386857D01*
X161993142Y-80351142D01*
X161921714Y-80315428D01*
X161886000Y-80279714D01*
X161850285Y-80208285D01*
X162100285Y-79315428D02*
X162600285Y-79315428D01*
X161814571Y-79494000D02*
X162350285Y-79672571D01*
X162350285Y-79208285D01*
X162350285Y-78744000D02*
X162350285Y-79029714D01*
X161921714Y-78529714D02*
X161886000Y-78494000D01*
X161850285Y-78422571D01*
X161850285Y-78244000D01*
X161886000Y-78172571D01*
X161921714Y-78136857D01*
X161993142Y-78101142D01*
X162064571Y-78101142D01*
X162171714Y-78136857D01*
X162600285Y-78565428D01*
X162600285Y-78101142D01*
X161850285Y-77851142D02*
X161850285Y-77351142D01*
X162600285Y-77672571D01*
X162314571Y-77065428D02*
X162314571Y-76494000D01*
X161921714Y-76172571D02*
X161886000Y-76136857D01*
X161850285Y-76065428D01*
X161850285Y-75886857D01*
X161886000Y-75815428D01*
X161921714Y-75779714D01*
X161993142Y-75744000D01*
X162064571Y-75744000D01*
X162171714Y-75779714D01*
X162600285Y-76208285D01*
X162600285Y-75744000D01*
X161850285Y-75279714D02*
X161850285Y-75208285D01*
X161886000Y-75136857D01*
X161921714Y-75101142D01*
X161993142Y-75065428D01*
X162136000Y-75029714D01*
X162314571Y-75029714D01*
X162457428Y-75065428D01*
X162528857Y-75101142D01*
X162564571Y-75136857D01*
X162600285Y-75208285D01*
X162600285Y-75279714D01*
X162564571Y-75351142D01*
X162528857Y-75386857D01*
X162457428Y-75422571D01*
X162314571Y-75458285D01*
X162136000Y-75458285D01*
X161993142Y-75422571D01*
X161921714Y-75386857D01*
X161886000Y-75351142D01*
X161850285Y-75279714D01*
X162600285Y-74315428D02*
X162600285Y-74744000D01*
X162600285Y-74529714D02*
X161850285Y-74529714D01*
X161957428Y-74601142D01*
X162028857Y-74672571D01*
X162064571Y-74744000D01*
X162600285Y-73958285D02*
X162600285Y-73815428D01*
X162564571Y-73744000D01*
X162528857Y-73708285D01*
X162421714Y-73636857D01*
X162278857Y-73601142D01*
X161993142Y-73601142D01*
X161921714Y-73636857D01*
X161886000Y-73672571D01*
X161850285Y-73744000D01*
X161850285Y-73886857D01*
X161886000Y-73958285D01*
X161921714Y-73994000D01*
X161993142Y-74029714D01*
X162171714Y-74029714D01*
X162243142Y-73994000D01*
X162278857Y-73958285D01*
X162314571Y-73886857D01*
X162314571Y-73744000D01*
X162278857Y-73672571D01*
X162243142Y-73636857D01*
X162171714Y-73601142D01*
X101870000Y-99526285D02*
X101870000Y-98776285D01*
X102155714Y-98776285D01*
X102227142Y-98812000D01*
X102262857Y-98847714D01*
X102298571Y-98919142D01*
X102298571Y-99026285D01*
X102262857Y-99097714D01*
X102227142Y-99133428D01*
X102155714Y-99169142D01*
X101870000Y-99169142D01*
X102548571Y-98776285D02*
X102727142Y-99526285D01*
X102870000Y-98990571D01*
X103012857Y-99526285D01*
X103191428Y-98776285D01*
X103905714Y-99526285D02*
X103655714Y-99169142D01*
X103477142Y-99526285D02*
X103477142Y-98776285D01*
X103762857Y-98776285D01*
X103834285Y-98812000D01*
X103870000Y-98847714D01*
X103905714Y-98919142D01*
X103905714Y-99026285D01*
X103870000Y-99097714D01*
X103834285Y-99133428D01*
X103762857Y-99169142D01*
X103477142Y-99169142D01*
D13*
X73535000Y-63549801D02*
X73935000Y-63549801D01*
X73735000Y-63749801D02*
X73735000Y-63349801D01*
X74560000Y-59399000D02*
X75300000Y-59399000D01*
X74393000Y-59439000D02*
X75467000Y-59439000D01*
X74266000Y-59479000D02*
X75594000Y-59479000D01*
X74162000Y-59519000D02*
X75698000Y-59519000D01*
X74071000Y-59559000D02*
X75789000Y-59559000D01*
X73990000Y-59599000D02*
X75870000Y-59599000D01*
X73917000Y-59639000D02*
X75943000Y-59639000D01*
X73850000Y-59679000D02*
X76010000Y-59679000D01*
X73788000Y-59719000D02*
X76072000Y-59719000D01*
X73730000Y-59759000D02*
X76130000Y-59759000D01*
X73676000Y-59799000D02*
X76184000Y-59799000D01*
X73626000Y-59839000D02*
X76234000Y-59839000D01*
X73579000Y-59879000D02*
X76281000Y-59879000D01*
X75770000Y-59919000D02*
X76326000Y-59919000D01*
X73534000Y-59919000D02*
X74090000Y-59919000D01*
X75770000Y-59959000D02*
X76368000Y-59959000D01*
X73492000Y-59959000D02*
X74090000Y-59959000D01*
X75770000Y-59999000D02*
X76408000Y-59999000D01*
X73452000Y-59999000D02*
X74090000Y-59999000D01*
X75770000Y-60039000D02*
X76446000Y-60039000D01*
X73414000Y-60039000D02*
X74090000Y-60039000D01*
X75770000Y-60079000D02*
X76482000Y-60079000D01*
X73378000Y-60079000D02*
X74090000Y-60079000D01*
X75770000Y-60119000D02*
X76517000Y-60119000D01*
X73343000Y-60119000D02*
X74090000Y-60119000D01*
X75770000Y-60159000D02*
X76549000Y-60159000D01*
X73311000Y-60159000D02*
X74090000Y-60159000D01*
X75770000Y-60199000D02*
X76580000Y-60199000D01*
X73280000Y-60199000D02*
X74090000Y-60199000D01*
X75770000Y-60239000D02*
X76610000Y-60239000D01*
X73250000Y-60239000D02*
X74090000Y-60239000D01*
X75770000Y-60279000D02*
X76638000Y-60279000D01*
X73222000Y-60279000D02*
X74090000Y-60279000D01*
X75770000Y-60319000D02*
X76665000Y-60319000D01*
X73195000Y-60319000D02*
X74090000Y-60319000D01*
X75770000Y-60359000D02*
X76690000Y-60359000D01*
X73170000Y-60359000D02*
X74090000Y-60359000D01*
X75770000Y-60399000D02*
X76715000Y-60399000D01*
X73145000Y-60399000D02*
X74090000Y-60399000D01*
X75770000Y-60439000D02*
X76738000Y-60439000D01*
X73122000Y-60439000D02*
X74090000Y-60439000D01*
X75770000Y-60479000D02*
X76760000Y-60479000D01*
X73100000Y-60479000D02*
X74090000Y-60479000D01*
X75770000Y-60519000D02*
X76781000Y-60519000D01*
X73079000Y-60519000D02*
X74090000Y-60519000D01*
X75770000Y-60559000D02*
X76800000Y-60559000D01*
X73060000Y-60559000D02*
X74090000Y-60559000D01*
X75770000Y-60599000D02*
X76819000Y-60599000D01*
X73041000Y-60599000D02*
X74090000Y-60599000D01*
X75770000Y-60639000D02*
X76837000Y-60639000D01*
X73023000Y-60639000D02*
X74090000Y-60639000D01*
X75770000Y-60679000D02*
X76854000Y-60679000D01*
X73006000Y-60679000D02*
X74090000Y-60679000D01*
X75770000Y-60719000D02*
X76870000Y-60719000D01*
X72990000Y-60719000D02*
X74090000Y-60719000D01*
X75770000Y-60759000D02*
X76884000Y-60759000D01*
X72976000Y-60759000D02*
X74090000Y-60759000D01*
X75770000Y-60800000D02*
X76898000Y-60800000D01*
X72962000Y-60800000D02*
X74090000Y-60800000D01*
X75770000Y-60840000D02*
X76912000Y-60840000D01*
X72948000Y-60840000D02*
X74090000Y-60840000D01*
X75770000Y-60880000D02*
X76924000Y-60880000D01*
X72936000Y-60880000D02*
X74090000Y-60880000D01*
X75770000Y-60920000D02*
X76935000Y-60920000D01*
X72925000Y-60920000D02*
X74090000Y-60920000D01*
X75770000Y-60960000D02*
X76946000Y-60960000D01*
X72914000Y-60960000D02*
X74090000Y-60960000D01*
X75770000Y-61000000D02*
X76955000Y-61000000D01*
X72905000Y-61000000D02*
X74090000Y-61000000D01*
X75770000Y-61040000D02*
X76964000Y-61040000D01*
X72896000Y-61040000D02*
X74090000Y-61040000D01*
X75770000Y-61080000D02*
X76972000Y-61080000D01*
X72888000Y-61080000D02*
X74090000Y-61080000D01*
X75770000Y-61120000D02*
X76980000Y-61120000D01*
X72880000Y-61120000D02*
X74090000Y-61120000D01*
X75770000Y-61160000D02*
X76986000Y-61160000D01*
X72874000Y-61160000D02*
X74090000Y-61160000D01*
X75770000Y-61200000D02*
X76992000Y-61200000D01*
X72868000Y-61200000D02*
X74090000Y-61200000D01*
X75770000Y-61240000D02*
X76997000Y-61240000D01*
X72863000Y-61240000D02*
X74090000Y-61240000D01*
X75770000Y-61280000D02*
X77001000Y-61280000D01*
X72859000Y-61280000D02*
X74090000Y-61280000D01*
X75770000Y-61320000D02*
X77004000Y-61320000D01*
X72856000Y-61320000D02*
X74090000Y-61320000D01*
X75770000Y-61360000D02*
X77007000Y-61360000D01*
X72853000Y-61360000D02*
X74090000Y-61360000D01*
X72851000Y-61400000D02*
X74090000Y-61400000D01*
X75770000Y-61400000D02*
X77009000Y-61400000D01*
X72850000Y-61440000D02*
X74090000Y-61440000D01*
X75770000Y-61440000D02*
X77010000Y-61440000D01*
X72850000Y-61480000D02*
X74090000Y-61480000D01*
X75770000Y-61480000D02*
X77010000Y-61480000D01*
X77050000Y-61480000D02*
G75*
G03X77050000Y-61480000I-2120000J0D01*
G01*
X127404000Y-60444000D02*
X127404000Y-64484000D01*
X124564000Y-60444000D02*
X124564000Y-64484000D01*
X127404000Y-60444000D02*
X126779000Y-60444000D01*
X125189000Y-60444000D02*
X124564000Y-60444000D01*
X127404000Y-64484000D02*
X126779000Y-64484000D01*
X125189000Y-64484000D02*
X124564000Y-64484000D01*
X140850000Y-57306000D02*
X140850000Y-46686000D01*
X158871000Y-57306000D02*
X158871000Y-46686000D01*
X140850000Y-57306000D02*
X158871000Y-57306000D01*
X140850000Y-46686000D02*
X158871000Y-46686000D01*
X146300000Y-46686000D02*
X146300000Y-41686000D01*
X153420000Y-46686000D02*
X153420000Y-41686000D01*
X146300000Y-46686000D02*
X153420000Y-46686000D01*
X146300000Y-41686000D02*
X153420000Y-41686000D01*
X146800000Y-41686000D02*
X146800000Y-31686000D01*
X152920000Y-41686000D02*
X152920000Y-31686000D01*
X146800000Y-41686000D02*
X152920000Y-41686000D01*
X146800000Y-31686000D02*
X152920000Y-31686000D01*
X120356000Y-57306000D02*
X120356000Y-46686000D01*
X138377000Y-57306000D02*
X138377000Y-46686000D01*
X120356000Y-57306000D02*
X138377000Y-57306000D01*
X120356000Y-46686000D02*
X138377000Y-46686000D01*
X125806000Y-46686000D02*
X125806000Y-41686000D01*
X132926000Y-46686000D02*
X132926000Y-41686000D01*
X125806000Y-46686000D02*
X132926000Y-46686000D01*
X125806000Y-41686000D02*
X132926000Y-41686000D01*
X126306000Y-41686000D02*
X126306000Y-31686000D01*
X132426000Y-41686000D02*
X132426000Y-31686000D01*
X126306000Y-41686000D02*
X132426000Y-41686000D01*
X126306000Y-31686000D02*
X132426000Y-31686000D01*
X99622000Y-57306000D02*
X99622000Y-46686000D01*
X117643000Y-57306000D02*
X117643000Y-46686000D01*
X99622000Y-57306000D02*
X117643000Y-57306000D01*
X99622000Y-46686000D02*
X117643000Y-46686000D01*
X105072000Y-46686000D02*
X105072000Y-41686000D01*
X112192000Y-46686000D02*
X112192000Y-41686000D01*
X105072000Y-46686000D02*
X112192000Y-46686000D01*
X105072000Y-41686000D02*
X112192000Y-41686000D01*
X105572000Y-41686000D02*
X105572000Y-31686000D01*
X111692000Y-41686000D02*
X111692000Y-31686000D01*
X105572000Y-41686000D02*
X111692000Y-41686000D01*
X105572000Y-31686000D02*
X111692000Y-31686000D01*
X79128000Y-57306000D02*
X79128000Y-46686000D01*
X97149000Y-57306000D02*
X97149000Y-46686000D01*
X79128000Y-57306000D02*
X97149000Y-57306000D01*
X79128000Y-46686000D02*
X97149000Y-46686000D01*
X84578000Y-46686000D02*
X84578000Y-41686000D01*
X91698000Y-46686000D02*
X91698000Y-41686000D01*
X84578000Y-46686000D02*
X91698000Y-46686000D01*
X84578000Y-41686000D02*
X91698000Y-41686000D01*
X85078000Y-41686000D02*
X85078000Y-31686000D01*
X91198000Y-41686000D02*
X91198000Y-31686000D01*
X85078000Y-41686000D02*
X91198000Y-41686000D01*
X85078000Y-31686000D02*
X91198000Y-31686000D01*
X58634000Y-57306000D02*
X58634000Y-46686000D01*
X76655000Y-57306000D02*
X76655000Y-46686000D01*
X58634000Y-57306000D02*
X76655000Y-57306000D01*
X58634000Y-46686000D02*
X76655000Y-46686000D01*
X64084000Y-46686000D02*
X64084000Y-41686000D01*
X71204000Y-46686000D02*
X71204000Y-41686000D01*
X64084000Y-46686000D02*
X71204000Y-46686000D01*
X64084000Y-41686000D02*
X71204000Y-41686000D01*
X64584000Y-41686000D02*
X64584000Y-31686000D01*
X70704000Y-41686000D02*
X70704000Y-31686000D01*
X64584000Y-41686000D02*
X70704000Y-41686000D01*
X64584000Y-31686000D02*
X70704000Y-31686000D01*
X64620000Y-93480000D02*
X64620000Y-89440000D01*
X67460000Y-93480000D02*
X67460000Y-89440000D01*
X64620000Y-93480000D02*
X65245000Y-93480000D01*
X66835000Y-93480000D02*
X67460000Y-93480000D01*
X64620000Y-89440000D02*
X65245000Y-89440000D01*
X66835000Y-89440000D02*
X67460000Y-89440000D01*
X58270000Y-93480000D02*
X58270000Y-89440000D01*
X61110000Y-93480000D02*
X61110000Y-89440000D01*
X58270000Y-93480000D02*
X58895000Y-93480000D01*
X60485000Y-93480000D02*
X61110000Y-93480000D01*
X58270000Y-89440000D02*
X58895000Y-89440000D01*
X60485000Y-89440000D02*
X61110000Y-89440000D01*
X68160000Y-75196000D02*
G75*
G03X68160000Y-75196000I-2120000J0D01*
G01*
X65200000Y-75196000D02*
X63960000Y-75196000D01*
X68120000Y-75196000D02*
X66880000Y-75196000D01*
X65200000Y-75236000D02*
X63960000Y-75236000D01*
X68120000Y-75236000D02*
X66880000Y-75236000D01*
X65200000Y-75276000D02*
X63961000Y-75276000D01*
X68119000Y-75276000D02*
X66880000Y-75276000D01*
X68117000Y-75316000D02*
X66880000Y-75316000D01*
X65200000Y-75316000D02*
X63963000Y-75316000D01*
X68114000Y-75356000D02*
X66880000Y-75356000D01*
X65200000Y-75356000D02*
X63966000Y-75356000D01*
X68111000Y-75396000D02*
X66880000Y-75396000D01*
X65200000Y-75396000D02*
X63969000Y-75396000D01*
X68107000Y-75436000D02*
X66880000Y-75436000D01*
X65200000Y-75436000D02*
X63973000Y-75436000D01*
X68102000Y-75476000D02*
X66880000Y-75476000D01*
X65200000Y-75476000D02*
X63978000Y-75476000D01*
X68096000Y-75516000D02*
X66880000Y-75516000D01*
X65200000Y-75516000D02*
X63984000Y-75516000D01*
X68090000Y-75556000D02*
X66880000Y-75556000D01*
X65200000Y-75556000D02*
X63990000Y-75556000D01*
X68082000Y-75596000D02*
X66880000Y-75596000D01*
X65200000Y-75596000D02*
X63998000Y-75596000D01*
X68074000Y-75636000D02*
X66880000Y-75636000D01*
X65200000Y-75636000D02*
X64006000Y-75636000D01*
X68065000Y-75676000D02*
X66880000Y-75676000D01*
X65200000Y-75676000D02*
X64015000Y-75676000D01*
X68056000Y-75716000D02*
X66880000Y-75716000D01*
X65200000Y-75716000D02*
X64024000Y-75716000D01*
X68045000Y-75756000D02*
X66880000Y-75756000D01*
X65200000Y-75756000D02*
X64035000Y-75756000D01*
X68034000Y-75796000D02*
X66880000Y-75796000D01*
X65200000Y-75796000D02*
X64046000Y-75796000D01*
X68022000Y-75836000D02*
X66880000Y-75836000D01*
X65200000Y-75836000D02*
X64058000Y-75836000D01*
X68008000Y-75876000D02*
X66880000Y-75876000D01*
X65200000Y-75876000D02*
X64072000Y-75876000D01*
X67994000Y-75917000D02*
X66880000Y-75917000D01*
X65200000Y-75917000D02*
X64086000Y-75917000D01*
X67980000Y-75957000D02*
X66880000Y-75957000D01*
X65200000Y-75957000D02*
X64100000Y-75957000D01*
X67964000Y-75997000D02*
X66880000Y-75997000D01*
X65200000Y-75997000D02*
X64116000Y-75997000D01*
X67947000Y-76037000D02*
X66880000Y-76037000D01*
X65200000Y-76037000D02*
X64133000Y-76037000D01*
X67929000Y-76077000D02*
X66880000Y-76077000D01*
X65200000Y-76077000D02*
X64151000Y-76077000D01*
X67910000Y-76117000D02*
X66880000Y-76117000D01*
X65200000Y-76117000D02*
X64170000Y-76117000D01*
X67891000Y-76157000D02*
X66880000Y-76157000D01*
X65200000Y-76157000D02*
X64189000Y-76157000D01*
X67870000Y-76197000D02*
X66880000Y-76197000D01*
X65200000Y-76197000D02*
X64210000Y-76197000D01*
X67848000Y-76237000D02*
X66880000Y-76237000D01*
X65200000Y-76237000D02*
X64232000Y-76237000D01*
X67825000Y-76277000D02*
X66880000Y-76277000D01*
X65200000Y-76277000D02*
X64255000Y-76277000D01*
X67800000Y-76317000D02*
X66880000Y-76317000D01*
X65200000Y-76317000D02*
X64280000Y-76317000D01*
X67775000Y-76357000D02*
X66880000Y-76357000D01*
X65200000Y-76357000D02*
X64305000Y-76357000D01*
X67748000Y-76397000D02*
X66880000Y-76397000D01*
X65200000Y-76397000D02*
X64332000Y-76397000D01*
X67720000Y-76437000D02*
X66880000Y-76437000D01*
X65200000Y-76437000D02*
X64360000Y-76437000D01*
X67690000Y-76477000D02*
X66880000Y-76477000D01*
X65200000Y-76477000D02*
X64390000Y-76477000D01*
X67659000Y-76517000D02*
X66880000Y-76517000D01*
X65200000Y-76517000D02*
X64421000Y-76517000D01*
X67627000Y-76557000D02*
X66880000Y-76557000D01*
X65200000Y-76557000D02*
X64453000Y-76557000D01*
X67592000Y-76597000D02*
X66880000Y-76597000D01*
X65200000Y-76597000D02*
X64488000Y-76597000D01*
X67556000Y-76637000D02*
X66880000Y-76637000D01*
X65200000Y-76637000D02*
X64524000Y-76637000D01*
X67518000Y-76677000D02*
X66880000Y-76677000D01*
X65200000Y-76677000D02*
X64562000Y-76677000D01*
X67478000Y-76717000D02*
X66880000Y-76717000D01*
X65200000Y-76717000D02*
X64602000Y-76717000D01*
X67436000Y-76757000D02*
X66880000Y-76757000D01*
X65200000Y-76757000D02*
X64644000Y-76757000D01*
X67391000Y-76797000D02*
X64689000Y-76797000D01*
X67344000Y-76837000D02*
X64736000Y-76837000D01*
X67294000Y-76877000D02*
X64786000Y-76877000D01*
X67240000Y-76917000D02*
X64840000Y-76917000D01*
X67182000Y-76957000D02*
X64898000Y-76957000D01*
X67120000Y-76997000D02*
X64960000Y-76997000D01*
X67053000Y-77037000D02*
X65027000Y-77037000D01*
X66980000Y-77077000D02*
X65100000Y-77077000D01*
X66899000Y-77117000D02*
X65181000Y-77117000D01*
X66808000Y-77157000D02*
X65272000Y-77157000D01*
X66704000Y-77197000D02*
X65376000Y-77197000D01*
X66577000Y-77237000D02*
X65503000Y-77237000D01*
X66410000Y-77277000D02*
X65670000Y-77277000D01*
X67235000Y-72926199D02*
X67235000Y-73326199D01*
X67435000Y-73126199D02*
X67035000Y-73126199D01*
X54968000Y-57158000D02*
X54968000Y-53118000D01*
X57808000Y-57158000D02*
X57808000Y-53118000D01*
X54968000Y-57158000D02*
X55593000Y-57158000D01*
X57183000Y-57158000D02*
X57808000Y-57158000D01*
X54968000Y-53118000D02*
X55593000Y-53118000D01*
X57183000Y-53118000D02*
X57808000Y-53118000D01*
X67786000Y-69883000D02*
X67786000Y-70508000D01*
X67786000Y-67668000D02*
X67786000Y-68293000D01*
X63746000Y-69883000D02*
X63746000Y-70508000D01*
X63746000Y-67668000D02*
X63746000Y-68293000D01*
X63746000Y-70508000D02*
X67786000Y-70508000D01*
X63746000Y-67668000D02*
X67786000Y-67668000D01*
X92210000Y-64920000D02*
X88170000Y-64920000D01*
X92210000Y-62080000D02*
X88170000Y-62080000D01*
X92210000Y-64920000D02*
X92210000Y-64295000D01*
X92210000Y-62705000D02*
X92210000Y-62080000D01*
X88170000Y-64920000D02*
X88170000Y-64295000D01*
X88170000Y-62705000D02*
X88170000Y-62080000D01*
X88170000Y-58387000D02*
X88170000Y-57762000D01*
X88170000Y-60602000D02*
X88170000Y-59977000D01*
X92210000Y-58387000D02*
X92210000Y-57762000D01*
X92210000Y-60602000D02*
X92210000Y-59977000D01*
X92210000Y-57762000D02*
X88170000Y-57762000D01*
X92210000Y-60602000D02*
X88170000Y-60602000D01*
X112301000Y-60444000D02*
X112926000Y-60444000D01*
X110086000Y-60444000D02*
X110711000Y-60444000D01*
X112301000Y-64484000D02*
X112926000Y-64484000D01*
X110086000Y-64484000D02*
X110711000Y-64484000D01*
X112926000Y-64484000D02*
X112926000Y-60444000D01*
X110086000Y-64484000D02*
X110086000Y-60444000D01*
X104544000Y-60444000D02*
X104544000Y-64484000D01*
X101704000Y-60444000D02*
X101704000Y-64484000D01*
X104544000Y-60444000D02*
X103919000Y-60444000D01*
X102329000Y-60444000D02*
X101704000Y-60444000D01*
X104544000Y-64484000D02*
X103919000Y-64484000D01*
X102329000Y-64484000D02*
X101704000Y-64484000D01*
X134841000Y-64484000D02*
X134216000Y-64484000D01*
X137056000Y-64484000D02*
X136431000Y-64484000D01*
X134841000Y-60444000D02*
X134216000Y-60444000D01*
X137056000Y-60444000D02*
X136431000Y-60444000D01*
X134216000Y-60444000D02*
X134216000Y-64484000D01*
X137056000Y-60444000D02*
X137056000Y-64484000D01*
X156614000Y-60484000D02*
X156614000Y-64524000D01*
X153774000Y-60484000D02*
X153774000Y-64524000D01*
X156614000Y-60484000D02*
X155989000Y-60484000D01*
X154399000Y-60484000D02*
X153774000Y-60484000D01*
X156614000Y-64524000D02*
X155989000Y-64524000D01*
X154399000Y-64524000D02*
X153774000Y-64524000D01*
X144493000Y-64524000D02*
X143868000Y-64524000D01*
X146708000Y-64524000D02*
X146083000Y-64524000D01*
X144493000Y-60484000D02*
X143868000Y-60484000D01*
X146708000Y-60484000D02*
X146083000Y-60484000D01*
X143868000Y-60484000D02*
X143868000Y-64524000D01*
X146708000Y-60484000D02*
X146708000Y-64524000D01*
X115070000Y-94130000D02*
X111030000Y-94130000D01*
X115070000Y-91290000D02*
X111030000Y-91290000D01*
X115070000Y-94130000D02*
X115070000Y-93505000D01*
X115070000Y-91915000D02*
X115070000Y-91290000D01*
X111030000Y-94130000D02*
X111030000Y-93505000D01*
X111030000Y-91915000D02*
X111030000Y-91290000D01*
X143264000Y-94775000D02*
X143264000Y-95400000D01*
X143264000Y-92560000D02*
X143264000Y-93185000D01*
X139224000Y-94775000D02*
X139224000Y-95400000D01*
X139224000Y-92560000D02*
X139224000Y-93185000D01*
X139224000Y-95400000D02*
X143264000Y-95400000D01*
X139224000Y-92560000D02*
X143264000Y-92560000D01*
X72540000Y-96770000D02*
X74780000Y-96770000D01*
X72540000Y-96530000D02*
X74780000Y-96530000D01*
X72540000Y-96650000D02*
X74780000Y-96650000D01*
X73660000Y-92480000D02*
X73660000Y-93130000D01*
X73660000Y-98020000D02*
X73660000Y-97370000D01*
X72540000Y-93130000D02*
X72540000Y-97370000D01*
X74780000Y-93130000D02*
X72540000Y-93130000D01*
X74780000Y-97370000D02*
X74780000Y-93130000D01*
X72540000Y-97370000D02*
X74780000Y-97370000D01*
X63750000Y-98910000D02*
X63750000Y-96670000D01*
X63510000Y-98910000D02*
X63510000Y-96670000D01*
X63630000Y-98910000D02*
X63630000Y-96670000D01*
X59460000Y-97790000D02*
X60110000Y-97790000D01*
X65000000Y-97790000D02*
X64350000Y-97790000D01*
X60110000Y-98910000D02*
X64350000Y-98910000D01*
X60110000Y-96670000D02*
X60110000Y-98910000D01*
X64350000Y-96670000D02*
X60110000Y-96670000D01*
X64350000Y-98910000D02*
X64350000Y-96670000D01*
X155598000Y-92290000D02*
X157838000Y-92290000D01*
X157838000Y-92290000D02*
X157838000Y-88050000D01*
X157838000Y-88050000D02*
X155598000Y-88050000D01*
X155598000Y-88050000D02*
X155598000Y-92290000D01*
X156718000Y-92940000D02*
X156718000Y-92290000D01*
X156718000Y-87400000D02*
X156718000Y-88050000D01*
X155598000Y-91570000D02*
X157838000Y-91570000D01*
X155598000Y-91450000D02*
X157838000Y-91450000D01*
X155598000Y-91690000D02*
X157838000Y-91690000D01*
X159916000Y-92290000D02*
X162156000Y-92290000D01*
X162156000Y-92290000D02*
X162156000Y-88050000D01*
X162156000Y-88050000D02*
X159916000Y-88050000D01*
X159916000Y-88050000D02*
X159916000Y-92290000D01*
X161036000Y-92940000D02*
X161036000Y-92290000D01*
X161036000Y-87400000D02*
X161036000Y-88050000D01*
X159916000Y-91570000D02*
X162156000Y-91570000D01*
X159916000Y-91450000D02*
X162156000Y-91450000D01*
X159916000Y-91690000D02*
X162156000Y-91690000D01*
X52280000Y-85110000D02*
X53340000Y-85110000D01*
X52280000Y-86170000D02*
X52280000Y-85110000D01*
X52280000Y-87170000D02*
X54400000Y-87170000D01*
X54400000Y-87170000D02*
X54400000Y-91230000D01*
X52280000Y-87170000D02*
X52280000Y-91230000D01*
X52280000Y-91230000D02*
X54400000Y-91230000D01*
X95270000Y-98000000D02*
X95270000Y-100120000D01*
X99330000Y-98000000D02*
X95270000Y-98000000D01*
X99330000Y-100120000D02*
X95270000Y-100120000D01*
X99330000Y-98000000D02*
X99330000Y-100120000D01*
X100330000Y-98000000D02*
X101390000Y-98000000D01*
X101390000Y-98000000D02*
X101390000Y-99060000D01*
X107970000Y-98000000D02*
X107970000Y-100120000D01*
X112030000Y-98000000D02*
X107970000Y-98000000D01*
X112030000Y-100120000D02*
X107970000Y-100120000D01*
X112030000Y-98000000D02*
X112030000Y-100120000D01*
X113030000Y-98000000D02*
X114090000Y-98000000D01*
X114090000Y-98000000D02*
X114090000Y-99060000D01*
X119590000Y-98000000D02*
X119590000Y-100120000D01*
X123650000Y-98000000D02*
X119590000Y-98000000D01*
X123650000Y-100120000D02*
X119590000Y-100120000D01*
X123650000Y-98000000D02*
X123650000Y-100120000D01*
X124650000Y-98000000D02*
X125710000Y-98000000D01*
X125710000Y-98000000D02*
X125710000Y-99060000D01*
X136950000Y-98000000D02*
X136950000Y-99060000D01*
X135890000Y-98000000D02*
X136950000Y-98000000D01*
X134890000Y-98000000D02*
X134890000Y-100120000D01*
X134890000Y-100120000D02*
X130830000Y-100120000D01*
X134890000Y-98000000D02*
X130830000Y-98000000D01*
X130830000Y-98000000D02*
X130830000Y-100120000D01*
X58198000Y-84990000D02*
X58198000Y-85320000D01*
X64738000Y-84990000D02*
X58198000Y-84990000D01*
X64738000Y-85320000D02*
X64738000Y-84990000D01*
X58198000Y-87730000D02*
X58198000Y-87400000D01*
X64738000Y-87730000D02*
X58198000Y-87730000D01*
X64738000Y-87400000D02*
X64738000Y-87730000D01*
X60420000Y-81050000D02*
X60420000Y-81380000D01*
X60420000Y-81380000D02*
X53880000Y-81380000D01*
X53880000Y-81380000D02*
X53880000Y-81050000D01*
X60420000Y-78970000D02*
X60420000Y-78640000D01*
X60420000Y-78640000D02*
X53880000Y-78640000D01*
X53880000Y-78640000D02*
X53880000Y-78970000D01*
X85320000Y-98520000D02*
X84990000Y-98520000D01*
X84990000Y-98520000D02*
X84990000Y-91980000D01*
X84990000Y-91980000D02*
X85320000Y-91980000D01*
X87400000Y-98520000D02*
X87730000Y-98520000D01*
X87730000Y-98520000D02*
X87730000Y-91980000D01*
X87730000Y-91980000D02*
X87400000Y-91980000D01*
X78970000Y-98520000D02*
X78640000Y-98520000D01*
X78640000Y-98520000D02*
X78640000Y-91980000D01*
X78640000Y-91980000D02*
X78970000Y-91980000D01*
X81050000Y-98520000D02*
X81380000Y-98520000D01*
X81380000Y-98520000D02*
X81380000Y-91980000D01*
X81380000Y-91980000D02*
X81050000Y-91980000D01*
X69950000Y-79280000D02*
X69620000Y-79280000D01*
X69950000Y-85820000D02*
X69950000Y-79280000D01*
X69620000Y-85820000D02*
X69950000Y-85820000D01*
X67210000Y-79280000D02*
X67540000Y-79280000D01*
X67210000Y-85820000D02*
X67210000Y-79280000D01*
X67540000Y-85820000D02*
X67210000Y-85820000D01*
X60420000Y-71474000D02*
X60420000Y-71144000D01*
X53880000Y-71474000D02*
X60420000Y-71474000D01*
X53880000Y-71144000D02*
X53880000Y-71474000D01*
X60420000Y-68734000D02*
X60420000Y-69064000D01*
X53880000Y-68734000D02*
X60420000Y-68734000D01*
X53880000Y-69064000D02*
X53880000Y-68734000D01*
X60420000Y-76554000D02*
X60420000Y-76224000D01*
X53880000Y-76554000D02*
X60420000Y-76554000D01*
X53880000Y-76224000D02*
X53880000Y-76554000D01*
X60420000Y-73814000D02*
X60420000Y-74144000D01*
X53880000Y-73814000D02*
X60420000Y-73814000D01*
X53880000Y-74144000D02*
X53880000Y-73814000D01*
X60420000Y-61822000D02*
X60420000Y-61492000D01*
X53880000Y-61822000D02*
X60420000Y-61822000D01*
X53880000Y-61492000D02*
X53880000Y-61822000D01*
X60420000Y-59082000D02*
X60420000Y-59412000D01*
X53880000Y-59082000D02*
X60420000Y-59082000D01*
X53880000Y-59412000D02*
X53880000Y-59082000D01*
X64675000Y-63222000D02*
X64675000Y-62892000D01*
X64675000Y-62892000D02*
X71215000Y-62892000D01*
X71215000Y-62892000D02*
X71215000Y-63222000D01*
X64675000Y-65302000D02*
X64675000Y-65632000D01*
X64675000Y-65632000D02*
X71215000Y-65632000D01*
X71215000Y-65632000D02*
X71215000Y-65302000D01*
X71215000Y-60095000D02*
X71215000Y-60425000D01*
X71215000Y-60425000D02*
X64675000Y-60425000D01*
X64675000Y-60425000D02*
X64675000Y-60095000D01*
X71215000Y-58015000D02*
X71215000Y-57685000D01*
X71215000Y-57685000D02*
X64675000Y-57685000D01*
X64675000Y-57685000D02*
X64675000Y-58015000D01*
X72930000Y-66778000D02*
X72930000Y-66448000D01*
X72930000Y-66448000D02*
X79470000Y-66448000D01*
X79470000Y-66448000D02*
X79470000Y-66778000D01*
X72930000Y-68858000D02*
X72930000Y-69188000D01*
X72930000Y-69188000D02*
X79470000Y-69188000D01*
X79470000Y-69188000D02*
X79470000Y-68858000D01*
X84990000Y-87090000D02*
X85320000Y-87090000D01*
X84990000Y-80550000D02*
X84990000Y-87090000D01*
X85320000Y-80550000D02*
X84990000Y-80550000D01*
X87730000Y-87090000D02*
X87400000Y-87090000D01*
X87730000Y-80550000D02*
X87730000Y-87090000D01*
X87400000Y-80550000D02*
X87730000Y-80550000D01*
X78645000Y-63095000D02*
X78645000Y-62765000D01*
X78645000Y-62765000D02*
X85185000Y-62765000D01*
X85185000Y-62765000D02*
X85185000Y-63095000D01*
X78645000Y-65175000D02*
X78645000Y-65505000D01*
X78645000Y-65505000D02*
X85185000Y-65505000D01*
X85185000Y-65505000D02*
X85185000Y-65175000D01*
X85185000Y-60095000D02*
X85185000Y-60425000D01*
X85185000Y-60425000D02*
X78645000Y-60425000D01*
X78645000Y-60425000D02*
X78645000Y-60095000D01*
X85185000Y-58015000D02*
X85185000Y-57685000D01*
X85185000Y-57685000D02*
X78645000Y-57685000D01*
X78645000Y-57685000D02*
X78645000Y-58015000D01*
X79470000Y-73430000D02*
X79470000Y-73760000D01*
X79470000Y-73760000D02*
X72930000Y-73760000D01*
X72930000Y-73760000D02*
X72930000Y-73430000D01*
X79470000Y-71350000D02*
X79470000Y-71020000D01*
X79470000Y-71020000D02*
X72930000Y-71020000D01*
X72930000Y-71020000D02*
X72930000Y-71350000D01*
X83598000Y-71020000D02*
X83598000Y-71350000D01*
X90138000Y-71020000D02*
X83598000Y-71020000D01*
X90138000Y-71350000D02*
X90138000Y-71020000D01*
X83598000Y-73760000D02*
X83598000Y-73430000D01*
X90138000Y-73760000D02*
X83598000Y-73760000D01*
X90138000Y-73430000D02*
X90138000Y-73760000D01*
X90138000Y-69188000D02*
X90138000Y-68858000D01*
X83598000Y-69188000D02*
X90138000Y-69188000D01*
X83598000Y-68858000D02*
X83598000Y-69188000D01*
X90138000Y-66448000D02*
X90138000Y-66778000D01*
X83598000Y-66448000D02*
X90138000Y-66448000D01*
X83598000Y-66778000D02*
X83598000Y-66448000D01*
X95985000Y-60230000D02*
X95655000Y-60230000D01*
X95985000Y-66770000D02*
X95985000Y-60230000D01*
X95655000Y-66770000D02*
X95985000Y-66770000D01*
X93245000Y-60230000D02*
X93575000Y-60230000D01*
X93245000Y-66770000D02*
X93245000Y-60230000D01*
X93575000Y-66770000D02*
X93245000Y-66770000D01*
X100430000Y-60230000D02*
X100100000Y-60230000D01*
X100430000Y-66770000D02*
X100430000Y-60230000D01*
X100100000Y-66770000D02*
X100430000Y-66770000D01*
X97690000Y-60230000D02*
X98020000Y-60230000D01*
X97690000Y-66770000D02*
X97690000Y-60230000D01*
X98020000Y-66770000D02*
X97690000Y-66770000D01*
X105640000Y-66770000D02*
X105310000Y-66770000D01*
X105310000Y-66770000D02*
X105310000Y-60230000D01*
X105310000Y-60230000D02*
X105640000Y-60230000D01*
X107720000Y-66770000D02*
X108050000Y-66770000D01*
X108050000Y-66770000D02*
X108050000Y-60230000D01*
X108050000Y-60230000D02*
X107720000Y-60230000D01*
X101060000Y-73430000D02*
X101060000Y-73760000D01*
X101060000Y-73760000D02*
X94520000Y-73760000D01*
X94520000Y-73760000D02*
X94520000Y-73430000D01*
X101060000Y-71350000D02*
X101060000Y-71020000D01*
X101060000Y-71020000D02*
X94520000Y-71020000D01*
X94520000Y-71020000D02*
X94520000Y-71350000D01*
X116940000Y-60230000D02*
X116610000Y-60230000D01*
X116940000Y-66770000D02*
X116940000Y-60230000D01*
X116610000Y-66770000D02*
X116940000Y-66770000D01*
X114200000Y-60230000D02*
X114530000Y-60230000D01*
X114200000Y-66770000D02*
X114200000Y-60230000D01*
X114530000Y-66770000D02*
X114200000Y-66770000D01*
X104680000Y-71020000D02*
X104680000Y-71350000D01*
X111220000Y-71020000D02*
X104680000Y-71020000D01*
X111220000Y-71350000D02*
X111220000Y-71020000D01*
X104680000Y-73760000D02*
X104680000Y-73430000D01*
X111220000Y-73760000D02*
X104680000Y-73760000D01*
X111220000Y-73430000D02*
X111220000Y-73760000D01*
X120118000Y-66770000D02*
X119788000Y-66770000D01*
X119788000Y-66770000D02*
X119788000Y-60230000D01*
X119788000Y-60230000D02*
X120118000Y-60230000D01*
X122198000Y-66770000D02*
X122528000Y-66770000D01*
X122528000Y-66770000D02*
X122528000Y-60230000D01*
X122528000Y-60230000D02*
X122198000Y-60230000D01*
X131850000Y-60230000D02*
X132180000Y-60230000D01*
X132180000Y-60230000D02*
X132180000Y-66770000D01*
X132180000Y-66770000D02*
X131850000Y-66770000D01*
X129770000Y-60230000D02*
X129440000Y-60230000D01*
X129440000Y-60230000D02*
X129440000Y-66770000D01*
X129440000Y-66770000D02*
X129770000Y-66770000D01*
X122650000Y-73430000D02*
X122650000Y-73760000D01*
X122650000Y-73760000D02*
X116110000Y-73760000D01*
X116110000Y-73760000D02*
X116110000Y-73430000D01*
X122650000Y-71350000D02*
X122650000Y-71020000D01*
X122650000Y-71020000D02*
X116110000Y-71020000D01*
X116110000Y-71020000D02*
X116110000Y-71350000D01*
X127540000Y-71020000D02*
X127540000Y-71350000D01*
X134080000Y-71020000D02*
X127540000Y-71020000D01*
X134080000Y-71350000D02*
X134080000Y-71020000D01*
X127540000Y-73760000D02*
X127540000Y-73430000D01*
X134080000Y-73760000D02*
X127540000Y-73760000D01*
X134080000Y-73430000D02*
X134080000Y-73760000D01*
X141070000Y-60230000D02*
X140740000Y-60230000D01*
X141070000Y-66770000D02*
X141070000Y-60230000D01*
X140740000Y-66770000D02*
X141070000Y-66770000D01*
X138330000Y-60230000D02*
X138660000Y-60230000D01*
X138330000Y-66770000D02*
X138330000Y-60230000D01*
X138660000Y-66770000D02*
X138330000Y-66770000D01*
X125630000Y-85820000D02*
X125960000Y-85820000D01*
X125630000Y-79280000D02*
X125630000Y-85820000D01*
X125960000Y-79280000D02*
X125630000Y-79280000D01*
X128370000Y-85820000D02*
X128040000Y-85820000D01*
X128370000Y-79280000D02*
X128370000Y-85820000D01*
X128040000Y-79280000D02*
X128370000Y-79280000D01*
X150900000Y-60230000D02*
X151230000Y-60230000D01*
X151230000Y-60230000D02*
X151230000Y-66770000D01*
X151230000Y-66770000D02*
X150900000Y-66770000D01*
X148820000Y-60230000D02*
X148490000Y-60230000D01*
X148490000Y-60230000D02*
X148490000Y-66770000D01*
X148490000Y-66770000D02*
X148820000Y-66770000D01*
X131980000Y-85820000D02*
X132310000Y-85820000D01*
X131980000Y-79280000D02*
X131980000Y-85820000D01*
X132310000Y-79280000D02*
X131980000Y-79280000D01*
X134720000Y-85820000D02*
X134390000Y-85820000D01*
X134720000Y-79280000D02*
X134720000Y-85820000D01*
X134390000Y-79280000D02*
X134720000Y-79280000D01*
X146780000Y-73430000D02*
X146780000Y-73760000D01*
X146780000Y-73760000D02*
X140240000Y-73760000D01*
X140240000Y-73760000D02*
X140240000Y-73430000D01*
X146780000Y-71350000D02*
X146780000Y-71020000D01*
X146780000Y-71020000D02*
X140240000Y-71020000D01*
X140240000Y-71020000D02*
X140240000Y-71350000D01*
X137390000Y-85820000D02*
X137060000Y-85820000D01*
X137060000Y-85820000D02*
X137060000Y-79280000D01*
X137060000Y-79280000D02*
X137390000Y-79280000D01*
X139470000Y-85820000D02*
X139800000Y-85820000D01*
X139800000Y-85820000D02*
X139800000Y-79280000D01*
X139800000Y-79280000D02*
X139470000Y-79280000D01*
X161644000Y-60230000D02*
X161314000Y-60230000D01*
X161644000Y-66770000D02*
X161644000Y-60230000D01*
X161314000Y-66770000D02*
X161644000Y-66770000D01*
X158904000Y-60230000D02*
X159234000Y-60230000D01*
X158904000Y-66770000D02*
X158904000Y-60230000D01*
X159234000Y-66770000D02*
X158904000Y-66770000D01*
X153194000Y-71020000D02*
X153194000Y-71350000D01*
X159734000Y-71020000D02*
X153194000Y-71020000D01*
X159734000Y-71350000D02*
X159734000Y-71020000D01*
X153194000Y-73760000D02*
X153194000Y-73430000D01*
X159734000Y-73760000D02*
X153194000Y-73760000D01*
X159734000Y-73430000D02*
X159734000Y-73760000D01*
X153130000Y-95020000D02*
X153130000Y-95350000D01*
X153130000Y-95350000D02*
X146590000Y-95350000D01*
X146590000Y-95350000D02*
X146590000Y-95020000D01*
X153130000Y-92940000D02*
X153130000Y-92610000D01*
X153130000Y-92610000D02*
X146590000Y-92610000D01*
X146590000Y-92610000D02*
X146590000Y-92940000D01*
X153130000Y-100430000D02*
X153130000Y-100100000D01*
X146590000Y-100430000D02*
X153130000Y-100430000D01*
X146590000Y-100100000D02*
X146590000Y-100430000D01*
X153130000Y-97690000D02*
X153130000Y-98020000D01*
X146590000Y-97690000D02*
X153130000Y-97690000D01*
X146590000Y-98020000D02*
X146590000Y-97690000D01*
X126460000Y-93750000D02*
X126460000Y-94080000D01*
X126460000Y-94080000D02*
X119920000Y-94080000D01*
X119920000Y-94080000D02*
X119920000Y-93750000D01*
X126460000Y-91670000D02*
X126460000Y-91340000D01*
X126460000Y-91340000D02*
X119920000Y-91340000D01*
X119920000Y-91340000D02*
X119920000Y-91670000D01*
X101060000Y-94080000D02*
X101060000Y-93750000D01*
X94520000Y-94080000D02*
X101060000Y-94080000D01*
X94520000Y-93750000D02*
X94520000Y-94080000D01*
X101060000Y-91340000D02*
X101060000Y-91670000D01*
X94520000Y-91340000D02*
X101060000Y-91340000D01*
X94520000Y-91670000D02*
X94520000Y-91340000D01*
X79720000Y-77410000D02*
X78470000Y-77410000D01*
X79720000Y-87690000D02*
X79720000Y-77410000D01*
X75220000Y-87690000D02*
X79720000Y-87690000D01*
X75220000Y-77410000D02*
X75220000Y-87690000D01*
X76470000Y-77410000D02*
X75220000Y-77410000D01*
X78470000Y-77410000D02*
G75*
G02X76470000Y-77410000I-1000000J0D01*
G01*
X98790000Y-77410000D02*
G75*
G02X96790000Y-77410000I-1000000J0D01*
G01*
X96790000Y-77410000D02*
X95540000Y-77410000D01*
X95540000Y-77410000D02*
X95540000Y-87690000D01*
X95540000Y-87690000D02*
X100040000Y-87690000D01*
X100040000Y-87690000D02*
X100040000Y-77410000D01*
X100040000Y-77410000D02*
X98790000Y-77410000D01*
X117820000Y-77410000D02*
X116570000Y-77410000D01*
X117820000Y-87690000D02*
X117820000Y-77410000D01*
X113320000Y-87690000D02*
X117820000Y-87690000D01*
X113320000Y-77410000D02*
X113320000Y-87690000D01*
X114570000Y-77410000D02*
X113320000Y-77410000D01*
X116570000Y-77410000D02*
G75*
G02X114570000Y-77410000I-1000000J0D01*
G01*
X149590000Y-77410000D02*
G75*
G02X147590000Y-77410000I-1000000J0D01*
G01*
X147590000Y-77410000D02*
X146340000Y-77410000D01*
X146340000Y-77410000D02*
X146340000Y-87690000D01*
X146340000Y-87690000D02*
X150840000Y-87690000D01*
X150840000Y-87690000D02*
X150840000Y-77410000D01*
X150840000Y-77410000D02*
X149590000Y-77410000D01*
X60420000Y-66318000D02*
X60420000Y-66648000D01*
X60420000Y-66648000D02*
X53880000Y-66648000D01*
X53880000Y-66648000D02*
X53880000Y-66318000D01*
X60420000Y-64238000D02*
X60420000Y-63908000D01*
X60420000Y-63908000D02*
X53880000Y-63908000D01*
X53880000Y-63908000D02*
X53880000Y-64238000D01*
D10*
X74763333Y-58777142D02*
X74715714Y-58824761D01*
X74572857Y-58872380D01*
X74477619Y-58872380D01*
X74334761Y-58824761D01*
X74239523Y-58729523D01*
X74191904Y-58634285D01*
X74144285Y-58443809D01*
X74144285Y-58300952D01*
X74191904Y-58110476D01*
X74239523Y-58015238D01*
X74334761Y-57920000D01*
X74477619Y-57872380D01*
X74572857Y-57872380D01*
X74715714Y-57920000D01*
X74763333Y-57967619D01*
X75620476Y-57872380D02*
X75430000Y-57872380D01*
X75334761Y-57920000D01*
X75287142Y-57967619D01*
X75191904Y-58110476D01*
X75144285Y-58300952D01*
X75144285Y-58681904D01*
X75191904Y-58777142D01*
X75239523Y-58824761D01*
X75334761Y-58872380D01*
X75525238Y-58872380D01*
X75620476Y-58824761D01*
X75668095Y-58777142D01*
X75715714Y-58681904D01*
X75715714Y-58443809D01*
X75668095Y-58348571D01*
X75620476Y-58300952D01*
X75525238Y-58253333D01*
X75334761Y-58253333D01*
X75239523Y-58300952D01*
X75191904Y-58348571D01*
X75144285Y-58443809D01*
X74180000Y-64832666D02*
X73780000Y-64832666D01*
X73980000Y-64832666D02*
X73980000Y-64132666D01*
X73913333Y-64232666D01*
X73846666Y-64299333D01*
X73780000Y-64332666D01*
X74613333Y-64132666D02*
X74680000Y-64132666D01*
X74746666Y-64166000D01*
X74780000Y-64199333D01*
X74813333Y-64266000D01*
X74846666Y-64399333D01*
X74846666Y-64566000D01*
X74813333Y-64699333D01*
X74780000Y-64766000D01*
X74746666Y-64799333D01*
X74680000Y-64832666D01*
X74613333Y-64832666D01*
X74546666Y-64799333D01*
X74513333Y-64766000D01*
X74480000Y-64699333D01*
X74446666Y-64566000D01*
X74446666Y-64399333D01*
X74480000Y-64266000D01*
X74513333Y-64199333D01*
X74546666Y-64166000D01*
X74613333Y-64132666D01*
X75446666Y-64366000D02*
X75446666Y-64832666D01*
X75146666Y-64366000D02*
X75146666Y-64732666D01*
X75180000Y-64799333D01*
X75246666Y-64832666D01*
X75346666Y-64832666D01*
X75413333Y-64799333D01*
X75446666Y-64766000D01*
X76013333Y-64466000D02*
X75780000Y-64466000D01*
X75780000Y-64832666D02*
X75780000Y-64132666D01*
X76113333Y-64132666D01*
X125341142Y-65849142D02*
X125293523Y-65896761D01*
X125150666Y-65944380D01*
X125055428Y-65944380D01*
X124912571Y-65896761D01*
X124817333Y-65801523D01*
X124769714Y-65706285D01*
X124722095Y-65515809D01*
X124722095Y-65372952D01*
X124769714Y-65182476D01*
X124817333Y-65087238D01*
X124912571Y-64992000D01*
X125055428Y-64944380D01*
X125150666Y-64944380D01*
X125293523Y-64992000D01*
X125341142Y-65039619D01*
X126293523Y-65944380D02*
X125722095Y-65944380D01*
X126007809Y-65944380D02*
X126007809Y-64944380D01*
X125912571Y-65087238D01*
X125817333Y-65182476D01*
X125722095Y-65230095D01*
X126674476Y-65039619D02*
X126722095Y-64992000D01*
X126817333Y-64944380D01*
X127055428Y-64944380D01*
X127150666Y-64992000D01*
X127198285Y-65039619D01*
X127245904Y-65134857D01*
X127245904Y-65230095D01*
X127198285Y-65372952D01*
X126626857Y-65944380D01*
X127245904Y-65944380D01*
X125031619Y-59753142D02*
X125079238Y-59800761D01*
X125031619Y-59848380D01*
X124984000Y-59800761D01*
X125031619Y-59753142D01*
X125031619Y-59848380D01*
X125698285Y-58848380D02*
X125793523Y-58848380D01*
X125888761Y-58896000D01*
X125936380Y-58943619D01*
X125984000Y-59038857D01*
X126031619Y-59229333D01*
X126031619Y-59467428D01*
X125984000Y-59657904D01*
X125936380Y-59753142D01*
X125888761Y-59800761D01*
X125793523Y-59848380D01*
X125698285Y-59848380D01*
X125603047Y-59800761D01*
X125555428Y-59753142D01*
X125507809Y-59657904D01*
X125460190Y-59467428D01*
X125460190Y-59229333D01*
X125507809Y-59038857D01*
X125555428Y-58943619D01*
X125603047Y-58896000D01*
X125698285Y-58848380D01*
X126984000Y-59848380D02*
X126412571Y-59848380D01*
X126698285Y-59848380D02*
X126698285Y-58848380D01*
X126603047Y-58991238D01*
X126507809Y-59086476D01*
X126412571Y-59134095D01*
X149264761Y-54300380D02*
X148931428Y-53824190D01*
X148693333Y-54300380D02*
X148693333Y-53300380D01*
X149074285Y-53300380D01*
X149169523Y-53348000D01*
X149217142Y-53395619D01*
X149264761Y-53490857D01*
X149264761Y-53633714D01*
X149217142Y-53728952D01*
X149169523Y-53776571D01*
X149074285Y-53824190D01*
X148693333Y-53824190D01*
X149550476Y-53300380D02*
X149883809Y-54300380D01*
X150217142Y-53300380D01*
X151026666Y-53300380D02*
X150550476Y-53300380D01*
X150502857Y-53776571D01*
X150550476Y-53728952D01*
X150645714Y-53681333D01*
X150883809Y-53681333D01*
X150979047Y-53728952D01*
X151026666Y-53776571D01*
X151074285Y-53871809D01*
X151074285Y-54109904D01*
X151026666Y-54205142D01*
X150979047Y-54252761D01*
X150883809Y-54300380D01*
X150645714Y-54300380D01*
X150550476Y-54252761D01*
X150502857Y-54205142D01*
X147669523Y-55173619D02*
X147717142Y-55126000D01*
X147812380Y-55078380D01*
X148050476Y-55078380D01*
X148145714Y-55126000D01*
X148193333Y-55173619D01*
X148240952Y-55268857D01*
X148240952Y-55364095D01*
X148193333Y-55506952D01*
X147621904Y-56078380D01*
X148240952Y-56078380D01*
X149145714Y-55078380D02*
X148669523Y-55078380D01*
X148621904Y-55554571D01*
X148669523Y-55506952D01*
X148764761Y-55459333D01*
X149002857Y-55459333D01*
X149098095Y-55506952D01*
X149145714Y-55554571D01*
X149193333Y-55649809D01*
X149193333Y-55887904D01*
X149145714Y-55983142D01*
X149098095Y-56030761D01*
X149002857Y-56078380D01*
X148764761Y-56078380D01*
X148669523Y-56030761D01*
X148621904Y-55983142D01*
X149621904Y-56078380D02*
X149621904Y-55078380D01*
X149717142Y-55697428D02*
X150002857Y-56078380D01*
X150002857Y-55411714D02*
X149621904Y-55792666D01*
X150431428Y-55697428D02*
X151193333Y-55697428D01*
X152145714Y-56078380D02*
X151669523Y-56078380D01*
X151669523Y-55078380D01*
X128770761Y-54300380D02*
X128437428Y-53824190D01*
X128199333Y-54300380D02*
X128199333Y-53300380D01*
X128580285Y-53300380D01*
X128675523Y-53348000D01*
X128723142Y-53395619D01*
X128770761Y-53490857D01*
X128770761Y-53633714D01*
X128723142Y-53728952D01*
X128675523Y-53776571D01*
X128580285Y-53824190D01*
X128199333Y-53824190D01*
X129056476Y-53300380D02*
X129389809Y-54300380D01*
X129723142Y-53300380D01*
X130485047Y-53633714D02*
X130485047Y-54300380D01*
X130246952Y-53252761D02*
X130008857Y-53967047D01*
X130627904Y-53967047D01*
X127175523Y-55173619D02*
X127223142Y-55126000D01*
X127318380Y-55078380D01*
X127556476Y-55078380D01*
X127651714Y-55126000D01*
X127699333Y-55173619D01*
X127746952Y-55268857D01*
X127746952Y-55364095D01*
X127699333Y-55506952D01*
X127127904Y-56078380D01*
X127746952Y-56078380D01*
X128651714Y-55078380D02*
X128175523Y-55078380D01*
X128127904Y-55554571D01*
X128175523Y-55506952D01*
X128270761Y-55459333D01*
X128508857Y-55459333D01*
X128604095Y-55506952D01*
X128651714Y-55554571D01*
X128699333Y-55649809D01*
X128699333Y-55887904D01*
X128651714Y-55983142D01*
X128604095Y-56030761D01*
X128508857Y-56078380D01*
X128270761Y-56078380D01*
X128175523Y-56030761D01*
X128127904Y-55983142D01*
X129127904Y-56078380D02*
X129127904Y-55078380D01*
X129223142Y-55697428D02*
X129508857Y-56078380D01*
X129508857Y-55411714D02*
X129127904Y-55792666D01*
X129937428Y-55697428D02*
X130699333Y-55697428D01*
X131651714Y-56078380D02*
X131175523Y-56078380D01*
X131175523Y-55078380D01*
X107956761Y-54300380D02*
X107623428Y-53824190D01*
X107385333Y-54300380D02*
X107385333Y-53300380D01*
X107766285Y-53300380D01*
X107861523Y-53348000D01*
X107909142Y-53395619D01*
X107956761Y-53490857D01*
X107956761Y-53633714D01*
X107909142Y-53728952D01*
X107861523Y-53776571D01*
X107766285Y-53824190D01*
X107385333Y-53824190D01*
X108242476Y-53300380D02*
X108575809Y-54300380D01*
X108909142Y-53300380D01*
X109147238Y-53300380D02*
X109766285Y-53300380D01*
X109432952Y-53681333D01*
X109575809Y-53681333D01*
X109671047Y-53728952D01*
X109718666Y-53776571D01*
X109766285Y-53871809D01*
X109766285Y-54109904D01*
X109718666Y-54205142D01*
X109671047Y-54252761D01*
X109575809Y-54300380D01*
X109290095Y-54300380D01*
X109194857Y-54252761D01*
X109147238Y-54205142D01*
X106337714Y-55427619D02*
X106385333Y-55380000D01*
X106480571Y-55332380D01*
X106718666Y-55332380D01*
X106813904Y-55380000D01*
X106861523Y-55427619D01*
X106909142Y-55522857D01*
X106909142Y-55618095D01*
X106861523Y-55760952D01*
X106290095Y-56332380D01*
X106909142Y-56332380D01*
X107813904Y-55332380D02*
X107337714Y-55332380D01*
X107290095Y-55808571D01*
X107337714Y-55760952D01*
X107432952Y-55713333D01*
X107671047Y-55713333D01*
X107766285Y-55760952D01*
X107813904Y-55808571D01*
X107861523Y-55903809D01*
X107861523Y-56141904D01*
X107813904Y-56237142D01*
X107766285Y-56284761D01*
X107671047Y-56332380D01*
X107432952Y-56332380D01*
X107337714Y-56284761D01*
X107290095Y-56237142D01*
X108290095Y-56332380D02*
X108290095Y-55332380D01*
X108385333Y-55951428D02*
X108671047Y-56332380D01*
X108671047Y-55665714D02*
X108290095Y-56046666D01*
X109099619Y-55951428D02*
X109861523Y-55951428D01*
X110290095Y-56046666D02*
X110766285Y-56046666D01*
X110194857Y-56332380D02*
X110528190Y-55332380D01*
X110861523Y-56332380D01*
X87542761Y-54300380D02*
X87209428Y-53824190D01*
X86971333Y-54300380D02*
X86971333Y-53300380D01*
X87352285Y-53300380D01*
X87447523Y-53348000D01*
X87495142Y-53395619D01*
X87542761Y-53490857D01*
X87542761Y-53633714D01*
X87495142Y-53728952D01*
X87447523Y-53776571D01*
X87352285Y-53824190D01*
X86971333Y-53824190D01*
X87828476Y-53300380D02*
X88161809Y-54300380D01*
X88495142Y-53300380D01*
X88780857Y-53395619D02*
X88828476Y-53348000D01*
X88923714Y-53300380D01*
X89161809Y-53300380D01*
X89257047Y-53348000D01*
X89304666Y-53395619D01*
X89352285Y-53490857D01*
X89352285Y-53586095D01*
X89304666Y-53728952D01*
X88733238Y-54300380D01*
X89352285Y-54300380D01*
X85947523Y-55427619D02*
X85995142Y-55380000D01*
X86090380Y-55332380D01*
X86328476Y-55332380D01*
X86423714Y-55380000D01*
X86471333Y-55427619D01*
X86518952Y-55522857D01*
X86518952Y-55618095D01*
X86471333Y-55760952D01*
X85899904Y-56332380D01*
X86518952Y-56332380D01*
X87423714Y-55332380D02*
X86947523Y-55332380D01*
X86899904Y-55808571D01*
X86947523Y-55760952D01*
X87042761Y-55713333D01*
X87280857Y-55713333D01*
X87376095Y-55760952D01*
X87423714Y-55808571D01*
X87471333Y-55903809D01*
X87471333Y-56141904D01*
X87423714Y-56237142D01*
X87376095Y-56284761D01*
X87280857Y-56332380D01*
X87042761Y-56332380D01*
X86947523Y-56284761D01*
X86899904Y-56237142D01*
X87899904Y-56332380D02*
X87899904Y-55332380D01*
X87995142Y-55951428D02*
X88280857Y-56332380D01*
X88280857Y-55665714D02*
X87899904Y-56046666D01*
X88709428Y-55951428D02*
X89471333Y-55951428D01*
X90423714Y-56332380D02*
X89947523Y-56332380D01*
X89947523Y-55332380D01*
X66968761Y-53792380D02*
X66635428Y-53316190D01*
X66397333Y-53792380D02*
X66397333Y-52792380D01*
X66778285Y-52792380D01*
X66873523Y-52840000D01*
X66921142Y-52887619D01*
X66968761Y-52982857D01*
X66968761Y-53125714D01*
X66921142Y-53220952D01*
X66873523Y-53268571D01*
X66778285Y-53316190D01*
X66397333Y-53316190D01*
X67254476Y-52792380D02*
X67587809Y-53792380D01*
X67921142Y-52792380D01*
X68778285Y-53792380D02*
X68206857Y-53792380D01*
X68492571Y-53792380D02*
X68492571Y-52792380D01*
X68397333Y-52935238D01*
X68302095Y-53030476D01*
X68206857Y-53078095D01*
X65453523Y-54665619D02*
X65501142Y-54618000D01*
X65596380Y-54570380D01*
X65834476Y-54570380D01*
X65929714Y-54618000D01*
X65977333Y-54665619D01*
X66024952Y-54760857D01*
X66024952Y-54856095D01*
X65977333Y-54998952D01*
X65405904Y-55570380D01*
X66024952Y-55570380D01*
X66929714Y-54570380D02*
X66453523Y-54570380D01*
X66405904Y-55046571D01*
X66453523Y-54998952D01*
X66548761Y-54951333D01*
X66786857Y-54951333D01*
X66882095Y-54998952D01*
X66929714Y-55046571D01*
X66977333Y-55141809D01*
X66977333Y-55379904D01*
X66929714Y-55475142D01*
X66882095Y-55522761D01*
X66786857Y-55570380D01*
X66548761Y-55570380D01*
X66453523Y-55522761D01*
X66405904Y-55475142D01*
X67405904Y-55570380D02*
X67405904Y-54570380D01*
X67501142Y-55189428D02*
X67786857Y-55570380D01*
X67786857Y-54903714D02*
X67405904Y-55284666D01*
X68215428Y-55189428D02*
X68977333Y-55189428D01*
X69929714Y-55570380D02*
X69453523Y-55570380D01*
X69453523Y-54570380D01*
X68667333Y-89765142D02*
X68619714Y-89812761D01*
X68476857Y-89860380D01*
X68381619Y-89860380D01*
X68238761Y-89812761D01*
X68143523Y-89717523D01*
X68095904Y-89622285D01*
X68048285Y-89431809D01*
X68048285Y-89288952D01*
X68095904Y-89098476D01*
X68143523Y-89003238D01*
X68238761Y-88908000D01*
X68381619Y-88860380D01*
X68476857Y-88860380D01*
X68619714Y-88908000D01*
X68667333Y-88955619D01*
X69619714Y-89860380D02*
X69048285Y-89860380D01*
X69334000Y-89860380D02*
X69334000Y-88860380D01*
X69238761Y-89003238D01*
X69143523Y-89098476D01*
X69048285Y-89146095D01*
X65129285Y-94755857D02*
X65165000Y-94791571D01*
X65129285Y-94827285D01*
X65093571Y-94791571D01*
X65129285Y-94755857D01*
X65129285Y-94827285D01*
X65879285Y-94827285D02*
X65450714Y-94827285D01*
X65665000Y-94827285D02*
X65665000Y-94077285D01*
X65593571Y-94184428D01*
X65522142Y-94255857D01*
X65450714Y-94291571D01*
X66522142Y-94327285D02*
X66522142Y-94827285D01*
X66200714Y-94327285D02*
X66200714Y-94720142D01*
X66236428Y-94791571D01*
X66307857Y-94827285D01*
X66415000Y-94827285D01*
X66486428Y-94791571D01*
X66522142Y-94755857D01*
X66772142Y-94327285D02*
X67057857Y-94327285D01*
X66879285Y-94827285D02*
X66879285Y-94184428D01*
X66915000Y-94113000D01*
X66986428Y-94077285D01*
X67057857Y-94077285D01*
X62063333Y-91797142D02*
X62015714Y-91844761D01*
X61872857Y-91892380D01*
X61777619Y-91892380D01*
X61634761Y-91844761D01*
X61539523Y-91749523D01*
X61491904Y-91654285D01*
X61444285Y-91463809D01*
X61444285Y-91320952D01*
X61491904Y-91130476D01*
X61539523Y-91035238D01*
X61634761Y-90940000D01*
X61777619Y-90892380D01*
X61872857Y-90892380D01*
X62015714Y-90940000D01*
X62063333Y-90987619D01*
X62444285Y-90987619D02*
X62491904Y-90940000D01*
X62587142Y-90892380D01*
X62825238Y-90892380D01*
X62920476Y-90940000D01*
X62968095Y-90987619D01*
X63015714Y-91082857D01*
X63015714Y-91178095D01*
X62968095Y-91320952D01*
X62396666Y-91892380D01*
X63015714Y-91892380D01*
X58636428Y-94827285D02*
X58207857Y-94827285D01*
X58422142Y-94827285D02*
X58422142Y-94077285D01*
X58350714Y-94184428D01*
X58279285Y-94255857D01*
X58207857Y-94291571D01*
X59100714Y-94077285D02*
X59172142Y-94077285D01*
X59243571Y-94113000D01*
X59279285Y-94148714D01*
X59315000Y-94220142D01*
X59350714Y-94363000D01*
X59350714Y-94541571D01*
X59315000Y-94684428D01*
X59279285Y-94755857D01*
X59243571Y-94791571D01*
X59172142Y-94827285D01*
X59100714Y-94827285D01*
X59029285Y-94791571D01*
X58993571Y-94755857D01*
X58957857Y-94684428D01*
X58922142Y-94541571D01*
X58922142Y-94363000D01*
X58957857Y-94220142D01*
X58993571Y-94148714D01*
X59029285Y-94113000D01*
X59100714Y-94077285D01*
X59815000Y-94077285D02*
X59886428Y-94077285D01*
X59957857Y-94113000D01*
X59993571Y-94148714D01*
X60029285Y-94220142D01*
X60065000Y-94363000D01*
X60065000Y-94541571D01*
X60029285Y-94684428D01*
X59993571Y-94755857D01*
X59957857Y-94791571D01*
X59886428Y-94827285D01*
X59815000Y-94827285D01*
X59743571Y-94791571D01*
X59707857Y-94755857D01*
X59672142Y-94684428D01*
X59636428Y-94541571D01*
X59636428Y-94363000D01*
X59672142Y-94220142D01*
X59707857Y-94148714D01*
X59743571Y-94113000D01*
X59815000Y-94077285D01*
X60386428Y-94327285D02*
X60386428Y-95077285D01*
X60386428Y-94363000D02*
X60457857Y-94327285D01*
X60600714Y-94327285D01*
X60672142Y-94363000D01*
X60707857Y-94398714D01*
X60743571Y-94470142D01*
X60743571Y-94684428D01*
X60707857Y-94755857D01*
X60672142Y-94791571D01*
X60600714Y-94827285D01*
X60457857Y-94827285D01*
X60386428Y-94791571D01*
X60957857Y-94327285D02*
X61243571Y-94327285D01*
X61065000Y-94827285D02*
X61065000Y-94184428D01*
X61100714Y-94113000D01*
X61172142Y-94077285D01*
X61243571Y-94077285D01*
X69175333Y-75541142D02*
X69127714Y-75588761D01*
X68984857Y-75636380D01*
X68889619Y-75636380D01*
X68746761Y-75588761D01*
X68651523Y-75493523D01*
X68603904Y-75398285D01*
X68556285Y-75207809D01*
X68556285Y-75064952D01*
X68603904Y-74874476D01*
X68651523Y-74779238D01*
X68746761Y-74684000D01*
X68889619Y-74636380D01*
X68984857Y-74636380D01*
X69127714Y-74684000D01*
X69175333Y-74731619D01*
X69508666Y-74636380D02*
X70127714Y-74636380D01*
X69794380Y-75017333D01*
X69937238Y-75017333D01*
X70032476Y-75064952D01*
X70080095Y-75112571D01*
X70127714Y-75207809D01*
X70127714Y-75445904D01*
X70080095Y-75541142D01*
X70032476Y-75588761D01*
X69937238Y-75636380D01*
X69651523Y-75636380D01*
X69556285Y-75588761D01*
X69508666Y-75541142D01*
X63970000Y-78938380D02*
X63570000Y-78938380D01*
X63770000Y-78938380D02*
X63770000Y-77938380D01*
X63703333Y-78081238D01*
X63636666Y-78176476D01*
X63570000Y-78224095D01*
X64403333Y-77938380D02*
X64470000Y-77938380D01*
X64536666Y-77986000D01*
X64570000Y-78033619D01*
X64603333Y-78128857D01*
X64636666Y-78319333D01*
X64636666Y-78557428D01*
X64603333Y-78747904D01*
X64570000Y-78843142D01*
X64536666Y-78890761D01*
X64470000Y-78938380D01*
X64403333Y-78938380D01*
X64336666Y-78890761D01*
X64303333Y-78843142D01*
X64270000Y-78747904D01*
X64236666Y-78557428D01*
X64236666Y-78319333D01*
X64270000Y-78128857D01*
X64303333Y-78033619D01*
X64336666Y-77986000D01*
X64403333Y-77938380D01*
X64936666Y-78271714D02*
X64936666Y-79271714D01*
X65270000Y-78795523D02*
X65303333Y-78890761D01*
X65370000Y-78938380D01*
X64936666Y-78795523D02*
X64970000Y-78890761D01*
X65036666Y-78938380D01*
X65170000Y-78938380D01*
X65236666Y-78890761D01*
X65270000Y-78795523D01*
X65270000Y-78271714D01*
X65903333Y-78414571D02*
X65670000Y-78414571D01*
X65670000Y-78938380D02*
X65670000Y-77938380D01*
X66003333Y-77938380D01*
X56254666Y-52355714D02*
X56216571Y-52393809D01*
X56102285Y-52431904D01*
X56026095Y-52431904D01*
X55911809Y-52393809D01*
X55835619Y-52317619D01*
X55797523Y-52241428D01*
X55759428Y-52089047D01*
X55759428Y-51974761D01*
X55797523Y-51822380D01*
X55835619Y-51746190D01*
X55911809Y-51670000D01*
X56026095Y-51631904D01*
X56102285Y-51631904D01*
X56216571Y-51670000D01*
X56254666Y-51708095D01*
X56940380Y-51898571D02*
X56940380Y-52431904D01*
X56749904Y-51593809D02*
X56559428Y-52165238D01*
X57054666Y-52165238D01*
X53181333Y-55368000D02*
X53214666Y-55401333D01*
X53181333Y-55434666D01*
X53148000Y-55401333D01*
X53181333Y-55368000D01*
X53181333Y-55434666D01*
X53481333Y-54801333D02*
X53514666Y-54768000D01*
X53581333Y-54734666D01*
X53748000Y-54734666D01*
X53814666Y-54768000D01*
X53848000Y-54801333D01*
X53881333Y-54868000D01*
X53881333Y-54934666D01*
X53848000Y-55034666D01*
X53448000Y-55434666D01*
X53881333Y-55434666D01*
X54148000Y-54801333D02*
X54181333Y-54768000D01*
X54248000Y-54734666D01*
X54414666Y-54734666D01*
X54481333Y-54768000D01*
X54514666Y-54801333D01*
X54548000Y-54868000D01*
X54548000Y-54934666D01*
X54514666Y-55034666D01*
X54114666Y-55434666D01*
X54548000Y-55434666D01*
X65599333Y-67413142D02*
X65551714Y-67460761D01*
X65408857Y-67508380D01*
X65313619Y-67508380D01*
X65170761Y-67460761D01*
X65075523Y-67365523D01*
X65027904Y-67270285D01*
X64980285Y-67079809D01*
X64980285Y-66936952D01*
X65027904Y-66746476D01*
X65075523Y-66651238D01*
X65170761Y-66556000D01*
X65313619Y-66508380D01*
X65408857Y-66508380D01*
X65551714Y-66556000D01*
X65599333Y-66603619D01*
X66504095Y-66508380D02*
X66027904Y-66508380D01*
X65980285Y-66984571D01*
X66027904Y-66936952D01*
X66123142Y-66889333D01*
X66361238Y-66889333D01*
X66456476Y-66936952D01*
X66504095Y-66984571D01*
X66551714Y-67079809D01*
X66551714Y-67317904D01*
X66504095Y-67413142D01*
X66456476Y-67460761D01*
X66361238Y-67508380D01*
X66123142Y-67508380D01*
X66027904Y-67460761D01*
X65980285Y-67413142D01*
X64412666Y-71370000D02*
X64446000Y-71403333D01*
X64412666Y-71436666D01*
X64379333Y-71403333D01*
X64412666Y-71370000D01*
X64412666Y-71436666D01*
X64879333Y-70736666D02*
X64946000Y-70736666D01*
X65012666Y-70770000D01*
X65046000Y-70803333D01*
X65079333Y-70870000D01*
X65112666Y-71003333D01*
X65112666Y-71170000D01*
X65079333Y-71303333D01*
X65046000Y-71370000D01*
X65012666Y-71403333D01*
X64946000Y-71436666D01*
X64879333Y-71436666D01*
X64812666Y-71403333D01*
X64779333Y-71370000D01*
X64746000Y-71303333D01*
X64712666Y-71170000D01*
X64712666Y-71003333D01*
X64746000Y-70870000D01*
X64779333Y-70803333D01*
X64812666Y-70770000D01*
X64879333Y-70736666D01*
X65546000Y-70736666D02*
X65612666Y-70736666D01*
X65679333Y-70770000D01*
X65712666Y-70803333D01*
X65746000Y-70870000D01*
X65779333Y-71003333D01*
X65779333Y-71170000D01*
X65746000Y-71303333D01*
X65712666Y-71370000D01*
X65679333Y-71403333D01*
X65612666Y-71436666D01*
X65546000Y-71436666D01*
X65479333Y-71403333D01*
X65446000Y-71370000D01*
X65412666Y-71303333D01*
X65379333Y-71170000D01*
X65379333Y-71003333D01*
X65412666Y-70870000D01*
X65446000Y-70803333D01*
X65479333Y-70770000D01*
X65546000Y-70736666D01*
X66012666Y-70736666D02*
X66446000Y-70736666D01*
X66212666Y-71003333D01*
X66312666Y-71003333D01*
X66379333Y-71036666D01*
X66412666Y-71070000D01*
X66446000Y-71136666D01*
X66446000Y-71303333D01*
X66412666Y-71370000D01*
X66379333Y-71403333D01*
X66312666Y-71436666D01*
X66112666Y-71436666D01*
X66046000Y-71403333D01*
X66012666Y-71370000D01*
X66679333Y-70736666D02*
X67112666Y-70736666D01*
X66879333Y-71003333D01*
X66979333Y-71003333D01*
X67046000Y-71036666D01*
X67079333Y-71070000D01*
X67112666Y-71136666D01*
X67112666Y-71303333D01*
X67079333Y-71370000D01*
X67046000Y-71403333D01*
X66979333Y-71436666D01*
X66779333Y-71436666D01*
X66712666Y-71403333D01*
X66679333Y-71370000D01*
X87005333Y-62734000D02*
X86972000Y-62767333D01*
X86872000Y-62800666D01*
X86805333Y-62800666D01*
X86705333Y-62767333D01*
X86638666Y-62700666D01*
X86605333Y-62634000D01*
X86572000Y-62500666D01*
X86572000Y-62400666D01*
X86605333Y-62267333D01*
X86638666Y-62200666D01*
X86705333Y-62134000D01*
X86805333Y-62100666D01*
X86872000Y-62100666D01*
X86972000Y-62134000D01*
X87005333Y-62167333D01*
X87238666Y-62100666D02*
X87705333Y-62100666D01*
X87405333Y-62800666D01*
X89173333Y-65021666D02*
X88840000Y-65021666D01*
X88806666Y-65355000D01*
X88840000Y-65321666D01*
X88906666Y-65288333D01*
X89073333Y-65288333D01*
X89140000Y-65321666D01*
X89173333Y-65355000D01*
X89206666Y-65421666D01*
X89206666Y-65588333D01*
X89173333Y-65655000D01*
X89140000Y-65688333D01*
X89073333Y-65721666D01*
X88906666Y-65721666D01*
X88840000Y-65688333D01*
X88806666Y-65655000D01*
X89806666Y-65021666D02*
X89673333Y-65021666D01*
X89606666Y-65055000D01*
X89573333Y-65088333D01*
X89506666Y-65188333D01*
X89473333Y-65321666D01*
X89473333Y-65588333D01*
X89506666Y-65655000D01*
X89540000Y-65688333D01*
X89606666Y-65721666D01*
X89740000Y-65721666D01*
X89806666Y-65688333D01*
X89840000Y-65655000D01*
X89873333Y-65588333D01*
X89873333Y-65421666D01*
X89840000Y-65355000D01*
X89806666Y-65321666D01*
X89740000Y-65288333D01*
X89606666Y-65288333D01*
X89540000Y-65321666D01*
X89506666Y-65355000D01*
X89473333Y-65421666D01*
X90306666Y-65021666D02*
X90373333Y-65021666D01*
X90440000Y-65055000D01*
X90473333Y-65088333D01*
X90506666Y-65155000D01*
X90540000Y-65288333D01*
X90540000Y-65455000D01*
X90506666Y-65588333D01*
X90473333Y-65655000D01*
X90440000Y-65688333D01*
X90373333Y-65721666D01*
X90306666Y-65721666D01*
X90240000Y-65688333D01*
X90206666Y-65655000D01*
X90173333Y-65588333D01*
X90140000Y-65455000D01*
X90140000Y-65288333D01*
X90173333Y-65155000D01*
X90206666Y-65088333D01*
X90240000Y-65055000D01*
X90306666Y-65021666D01*
X90840000Y-65255000D02*
X90840000Y-65955000D01*
X90840000Y-65288333D02*
X90906666Y-65255000D01*
X91040000Y-65255000D01*
X91106666Y-65288333D01*
X91140000Y-65321666D01*
X91173333Y-65388333D01*
X91173333Y-65588333D01*
X91140000Y-65655000D01*
X91106666Y-65688333D01*
X91040000Y-65721666D01*
X90906666Y-65721666D01*
X90840000Y-65688333D01*
X91373333Y-65255000D02*
X91640000Y-65255000D01*
X91473333Y-65721666D02*
X91473333Y-65121666D01*
X91506666Y-65055000D01*
X91573333Y-65021666D01*
X91640000Y-65021666D01*
X93101333Y-58416000D02*
X93068000Y-58449333D01*
X92968000Y-58482666D01*
X92901333Y-58482666D01*
X92801333Y-58449333D01*
X92734666Y-58382666D01*
X92701333Y-58316000D01*
X92668000Y-58182666D01*
X92668000Y-58082666D01*
X92701333Y-57949333D01*
X92734666Y-57882666D01*
X92801333Y-57816000D01*
X92901333Y-57782666D01*
X92968000Y-57782666D01*
X93068000Y-57816000D01*
X93101333Y-57849333D01*
X93501333Y-58082666D02*
X93434666Y-58049333D01*
X93401333Y-58016000D01*
X93368000Y-57949333D01*
X93368000Y-57916000D01*
X93401333Y-57849333D01*
X93434666Y-57816000D01*
X93501333Y-57782666D01*
X93634666Y-57782666D01*
X93701333Y-57816000D01*
X93734666Y-57849333D01*
X93768000Y-57916000D01*
X93768000Y-57949333D01*
X93734666Y-58016000D01*
X93701333Y-58049333D01*
X93634666Y-58082666D01*
X93501333Y-58082666D01*
X93434666Y-58116000D01*
X93401333Y-58149333D01*
X93368000Y-58216000D01*
X93368000Y-58349333D01*
X93401333Y-58416000D01*
X93434666Y-58449333D01*
X93501333Y-58482666D01*
X93634666Y-58482666D01*
X93701333Y-58449333D01*
X93734666Y-58416000D01*
X93768000Y-58349333D01*
X93768000Y-58216000D01*
X93734666Y-58149333D01*
X93701333Y-58116000D01*
X93634666Y-58082666D01*
X89053333Y-60830666D02*
X88720000Y-60830666D01*
X88686666Y-61164000D01*
X88720000Y-61130666D01*
X88786666Y-61097333D01*
X88953333Y-61097333D01*
X89020000Y-61130666D01*
X89053333Y-61164000D01*
X89086666Y-61230666D01*
X89086666Y-61397333D01*
X89053333Y-61464000D01*
X89020000Y-61497333D01*
X88953333Y-61530666D01*
X88786666Y-61530666D01*
X88720000Y-61497333D01*
X88686666Y-61464000D01*
X89686666Y-60830666D02*
X89553333Y-60830666D01*
X89486666Y-60864000D01*
X89453333Y-60897333D01*
X89386666Y-60997333D01*
X89353333Y-61130666D01*
X89353333Y-61397333D01*
X89386666Y-61464000D01*
X89420000Y-61497333D01*
X89486666Y-61530666D01*
X89620000Y-61530666D01*
X89686666Y-61497333D01*
X89720000Y-61464000D01*
X89753333Y-61397333D01*
X89753333Y-61230666D01*
X89720000Y-61164000D01*
X89686666Y-61130666D01*
X89620000Y-61097333D01*
X89486666Y-61097333D01*
X89420000Y-61130666D01*
X89386666Y-61164000D01*
X89353333Y-61230666D01*
X90186666Y-60830666D02*
X90253333Y-60830666D01*
X90320000Y-60864000D01*
X90353333Y-60897333D01*
X90386666Y-60964000D01*
X90420000Y-61097333D01*
X90420000Y-61264000D01*
X90386666Y-61397333D01*
X90353333Y-61464000D01*
X90320000Y-61497333D01*
X90253333Y-61530666D01*
X90186666Y-61530666D01*
X90120000Y-61497333D01*
X90086666Y-61464000D01*
X90053333Y-61397333D01*
X90020000Y-61264000D01*
X90020000Y-61097333D01*
X90053333Y-60964000D01*
X90086666Y-60897333D01*
X90120000Y-60864000D01*
X90186666Y-60830666D01*
X90720000Y-61064000D02*
X90720000Y-61764000D01*
X90720000Y-61097333D02*
X90786666Y-61064000D01*
X90920000Y-61064000D01*
X90986666Y-61097333D01*
X91020000Y-61130666D01*
X91053333Y-61197333D01*
X91053333Y-61397333D01*
X91020000Y-61464000D01*
X90986666Y-61497333D01*
X90920000Y-61530666D01*
X90786666Y-61530666D01*
X90720000Y-61497333D01*
X91586666Y-61164000D02*
X91353333Y-61164000D01*
X91353333Y-61530666D02*
X91353333Y-60830666D01*
X91686666Y-60830666D01*
X111339333Y-65849142D02*
X111291714Y-65896761D01*
X111148857Y-65944380D01*
X111053619Y-65944380D01*
X110910761Y-65896761D01*
X110815523Y-65801523D01*
X110767904Y-65706285D01*
X110720285Y-65515809D01*
X110720285Y-65372952D01*
X110767904Y-65182476D01*
X110815523Y-65087238D01*
X110910761Y-64992000D01*
X111053619Y-64944380D01*
X111148857Y-64944380D01*
X111291714Y-64992000D01*
X111339333Y-65039619D01*
X111815523Y-65944380D02*
X112006000Y-65944380D01*
X112101238Y-65896761D01*
X112148857Y-65849142D01*
X112244095Y-65706285D01*
X112291714Y-65515809D01*
X112291714Y-65134857D01*
X112244095Y-65039619D01*
X112196476Y-64992000D01*
X112101238Y-64944380D01*
X111910761Y-64944380D01*
X111815523Y-64992000D01*
X111767904Y-65039619D01*
X111720285Y-65134857D01*
X111720285Y-65372952D01*
X111767904Y-65468190D01*
X111815523Y-65515809D01*
X111910761Y-65563428D01*
X112101238Y-65563428D01*
X112196476Y-65515809D01*
X112244095Y-65468190D01*
X112291714Y-65372952D01*
X110172666Y-59646000D02*
X110206000Y-59679333D01*
X110172666Y-59712666D01*
X110139333Y-59679333D01*
X110172666Y-59646000D01*
X110172666Y-59712666D01*
X110639333Y-59012666D02*
X110706000Y-59012666D01*
X110772666Y-59046000D01*
X110806000Y-59079333D01*
X110839333Y-59146000D01*
X110872666Y-59279333D01*
X110872666Y-59446000D01*
X110839333Y-59579333D01*
X110806000Y-59646000D01*
X110772666Y-59679333D01*
X110706000Y-59712666D01*
X110639333Y-59712666D01*
X110572666Y-59679333D01*
X110539333Y-59646000D01*
X110506000Y-59579333D01*
X110472666Y-59446000D01*
X110472666Y-59279333D01*
X110506000Y-59146000D01*
X110539333Y-59079333D01*
X110572666Y-59046000D01*
X110639333Y-59012666D01*
X111306000Y-59012666D02*
X111372666Y-59012666D01*
X111439333Y-59046000D01*
X111472666Y-59079333D01*
X111506000Y-59146000D01*
X111539333Y-59279333D01*
X111539333Y-59446000D01*
X111506000Y-59579333D01*
X111472666Y-59646000D01*
X111439333Y-59679333D01*
X111372666Y-59712666D01*
X111306000Y-59712666D01*
X111239333Y-59679333D01*
X111206000Y-59646000D01*
X111172666Y-59579333D01*
X111139333Y-59446000D01*
X111139333Y-59279333D01*
X111172666Y-59146000D01*
X111206000Y-59079333D01*
X111239333Y-59046000D01*
X111306000Y-59012666D01*
X111806000Y-59079333D02*
X111839333Y-59046000D01*
X111906000Y-59012666D01*
X112072666Y-59012666D01*
X112139333Y-59046000D01*
X112172666Y-59079333D01*
X112206000Y-59146000D01*
X112206000Y-59212666D01*
X112172666Y-59312666D01*
X111772666Y-59712666D01*
X112206000Y-59712666D01*
X112472666Y-59079333D02*
X112506000Y-59046000D01*
X112572666Y-59012666D01*
X112739333Y-59012666D01*
X112806000Y-59046000D01*
X112839333Y-59079333D01*
X112872666Y-59146000D01*
X112872666Y-59212666D01*
X112839333Y-59312666D01*
X112439333Y-59712666D01*
X112872666Y-59712666D01*
X102481142Y-66016142D02*
X102433523Y-66063761D01*
X102290666Y-66111380D01*
X102195428Y-66111380D01*
X102052571Y-66063761D01*
X101957333Y-65968523D01*
X101909714Y-65873285D01*
X101862095Y-65682809D01*
X101862095Y-65539952D01*
X101909714Y-65349476D01*
X101957333Y-65254238D01*
X102052571Y-65159000D01*
X102195428Y-65111380D01*
X102290666Y-65111380D01*
X102433523Y-65159000D01*
X102481142Y-65206619D01*
X103433523Y-66111380D02*
X102862095Y-66111380D01*
X103147809Y-66111380D02*
X103147809Y-65111380D01*
X103052571Y-65254238D01*
X102957333Y-65349476D01*
X102862095Y-65397095D01*
X104052571Y-65111380D02*
X104147809Y-65111380D01*
X104243047Y-65159000D01*
X104290666Y-65206619D01*
X104338285Y-65301857D01*
X104385904Y-65492333D01*
X104385904Y-65730428D01*
X104338285Y-65920904D01*
X104290666Y-66016142D01*
X104243047Y-66063761D01*
X104147809Y-66111380D01*
X104052571Y-66111380D01*
X103957333Y-66063761D01*
X103909714Y-66016142D01*
X103862095Y-65920904D01*
X103814476Y-65730428D01*
X103814476Y-65492333D01*
X103862095Y-65301857D01*
X103909714Y-65206619D01*
X103957333Y-65159000D01*
X104052571Y-65111380D01*
X101790666Y-59559000D02*
X101824000Y-59592333D01*
X101790666Y-59625666D01*
X101757333Y-59592333D01*
X101790666Y-59559000D01*
X101790666Y-59625666D01*
X102257333Y-58925666D02*
X102324000Y-58925666D01*
X102390666Y-58959000D01*
X102424000Y-58992333D01*
X102457333Y-59059000D01*
X102490666Y-59192333D01*
X102490666Y-59359000D01*
X102457333Y-59492333D01*
X102424000Y-59559000D01*
X102390666Y-59592333D01*
X102324000Y-59625666D01*
X102257333Y-59625666D01*
X102190666Y-59592333D01*
X102157333Y-59559000D01*
X102124000Y-59492333D01*
X102090666Y-59359000D01*
X102090666Y-59192333D01*
X102124000Y-59059000D01*
X102157333Y-58992333D01*
X102190666Y-58959000D01*
X102257333Y-58925666D01*
X102924000Y-58925666D02*
X102990666Y-58925666D01*
X103057333Y-58959000D01*
X103090666Y-58992333D01*
X103124000Y-59059000D01*
X103157333Y-59192333D01*
X103157333Y-59359000D01*
X103124000Y-59492333D01*
X103090666Y-59559000D01*
X103057333Y-59592333D01*
X102990666Y-59625666D01*
X102924000Y-59625666D01*
X102857333Y-59592333D01*
X102824000Y-59559000D01*
X102790666Y-59492333D01*
X102757333Y-59359000D01*
X102757333Y-59192333D01*
X102790666Y-59059000D01*
X102824000Y-58992333D01*
X102857333Y-58959000D01*
X102924000Y-58925666D01*
X103424000Y-58992333D02*
X103457333Y-58959000D01*
X103524000Y-58925666D01*
X103690666Y-58925666D01*
X103757333Y-58959000D01*
X103790666Y-58992333D01*
X103824000Y-59059000D01*
X103824000Y-59125666D01*
X103790666Y-59225666D01*
X103390666Y-59625666D01*
X103824000Y-59625666D01*
X104090666Y-58992333D02*
X104124000Y-58959000D01*
X104190666Y-58925666D01*
X104357333Y-58925666D01*
X104424000Y-58959000D01*
X104457333Y-58992333D01*
X104490666Y-59059000D01*
X104490666Y-59125666D01*
X104457333Y-59225666D01*
X104057333Y-59625666D01*
X104490666Y-59625666D01*
X134993142Y-65849142D02*
X134945523Y-65896761D01*
X134802666Y-65944380D01*
X134707428Y-65944380D01*
X134564571Y-65896761D01*
X134469333Y-65801523D01*
X134421714Y-65706285D01*
X134374095Y-65515809D01*
X134374095Y-65372952D01*
X134421714Y-65182476D01*
X134469333Y-65087238D01*
X134564571Y-64992000D01*
X134707428Y-64944380D01*
X134802666Y-64944380D01*
X134945523Y-64992000D01*
X134993142Y-65039619D01*
X135945523Y-65944380D02*
X135374095Y-65944380D01*
X135659809Y-65944380D02*
X135659809Y-64944380D01*
X135564571Y-65087238D01*
X135469333Y-65182476D01*
X135374095Y-65230095D01*
X136897904Y-65944380D02*
X136326476Y-65944380D01*
X136612190Y-65944380D02*
X136612190Y-64944380D01*
X136516952Y-65087238D01*
X136421714Y-65182476D01*
X136326476Y-65230095D01*
X134683619Y-59753142D02*
X134731238Y-59800761D01*
X134683619Y-59848380D01*
X134636000Y-59800761D01*
X134683619Y-59753142D01*
X134683619Y-59848380D01*
X135350285Y-58848380D02*
X135445523Y-58848380D01*
X135540761Y-58896000D01*
X135588380Y-58943619D01*
X135636000Y-59038857D01*
X135683619Y-59229333D01*
X135683619Y-59467428D01*
X135636000Y-59657904D01*
X135588380Y-59753142D01*
X135540761Y-59800761D01*
X135445523Y-59848380D01*
X135350285Y-59848380D01*
X135255047Y-59800761D01*
X135207428Y-59753142D01*
X135159809Y-59657904D01*
X135112190Y-59467428D01*
X135112190Y-59229333D01*
X135159809Y-59038857D01*
X135207428Y-58943619D01*
X135255047Y-58896000D01*
X135350285Y-58848380D01*
X136636000Y-59848380D02*
X136064571Y-59848380D01*
X136350285Y-59848380D02*
X136350285Y-58848380D01*
X136255047Y-58991238D01*
X136159809Y-59086476D01*
X136064571Y-59134095D01*
X154551142Y-66143142D02*
X154503523Y-66190761D01*
X154360666Y-66238380D01*
X154265428Y-66238380D01*
X154122571Y-66190761D01*
X154027333Y-66095523D01*
X153979714Y-66000285D01*
X153932095Y-65809809D01*
X153932095Y-65666952D01*
X153979714Y-65476476D01*
X154027333Y-65381238D01*
X154122571Y-65286000D01*
X154265428Y-65238380D01*
X154360666Y-65238380D01*
X154503523Y-65286000D01*
X154551142Y-65333619D01*
X155503523Y-66238380D02*
X154932095Y-66238380D01*
X155217809Y-66238380D02*
X155217809Y-65238380D01*
X155122571Y-65381238D01*
X155027333Y-65476476D01*
X154932095Y-65524095D01*
X155836857Y-65238380D02*
X156455904Y-65238380D01*
X156122571Y-65619333D01*
X156265428Y-65619333D01*
X156360666Y-65666952D01*
X156408285Y-65714571D01*
X156455904Y-65809809D01*
X156455904Y-66047904D01*
X156408285Y-66143142D01*
X156360666Y-66190761D01*
X156265428Y-66238380D01*
X155979714Y-66238380D01*
X155884476Y-66190761D01*
X155836857Y-66143142D01*
X153765428Y-59793142D02*
X153813047Y-59840761D01*
X153765428Y-59888380D01*
X153717809Y-59840761D01*
X153765428Y-59793142D01*
X153765428Y-59888380D01*
X154432095Y-58888380D02*
X154527333Y-58888380D01*
X154622571Y-58936000D01*
X154670190Y-58983619D01*
X154717809Y-59078857D01*
X154765428Y-59269333D01*
X154765428Y-59507428D01*
X154717809Y-59697904D01*
X154670190Y-59793142D01*
X154622571Y-59840761D01*
X154527333Y-59888380D01*
X154432095Y-59888380D01*
X154336857Y-59840761D01*
X154289238Y-59793142D01*
X154241619Y-59697904D01*
X154194000Y-59507428D01*
X154194000Y-59269333D01*
X154241619Y-59078857D01*
X154289238Y-58983619D01*
X154336857Y-58936000D01*
X154432095Y-58888380D01*
X155622571Y-59221714D02*
X155622571Y-59888380D01*
X155384476Y-58840761D02*
X155146380Y-59555047D01*
X155765428Y-59555047D01*
X156051142Y-58888380D02*
X156717809Y-58888380D01*
X156289238Y-59888380D01*
X144772142Y-66016142D02*
X144724523Y-66063761D01*
X144581666Y-66111380D01*
X144486428Y-66111380D01*
X144343571Y-66063761D01*
X144248333Y-65968523D01*
X144200714Y-65873285D01*
X144153095Y-65682809D01*
X144153095Y-65539952D01*
X144200714Y-65349476D01*
X144248333Y-65254238D01*
X144343571Y-65159000D01*
X144486428Y-65111380D01*
X144581666Y-65111380D01*
X144724523Y-65159000D01*
X144772142Y-65206619D01*
X145724523Y-66111380D02*
X145153095Y-66111380D01*
X145438809Y-66111380D02*
X145438809Y-65111380D01*
X145343571Y-65254238D01*
X145248333Y-65349476D01*
X145153095Y-65397095D01*
X146581666Y-65444714D02*
X146581666Y-66111380D01*
X146343571Y-65063761D02*
X146105476Y-65778047D01*
X146724523Y-65778047D01*
X143859428Y-59793142D02*
X143907047Y-59840761D01*
X143859428Y-59888380D01*
X143811809Y-59840761D01*
X143859428Y-59793142D01*
X143859428Y-59888380D01*
X144526095Y-58888380D02*
X144621333Y-58888380D01*
X144716571Y-58936000D01*
X144764190Y-58983619D01*
X144811809Y-59078857D01*
X144859428Y-59269333D01*
X144859428Y-59507428D01*
X144811809Y-59697904D01*
X144764190Y-59793142D01*
X144716571Y-59840761D01*
X144621333Y-59888380D01*
X144526095Y-59888380D01*
X144430857Y-59840761D01*
X144383238Y-59793142D01*
X144335619Y-59697904D01*
X144288000Y-59507428D01*
X144288000Y-59269333D01*
X144335619Y-59078857D01*
X144383238Y-58983619D01*
X144430857Y-58936000D01*
X144526095Y-58888380D01*
X145716571Y-59221714D02*
X145716571Y-59888380D01*
X145478476Y-58840761D02*
X145240380Y-59555047D01*
X145859428Y-59555047D01*
X146145142Y-58888380D02*
X146811809Y-58888380D01*
X146383238Y-59888380D01*
X112407142Y-90527142D02*
X112359523Y-90574761D01*
X112216666Y-90622380D01*
X112121428Y-90622380D01*
X111978571Y-90574761D01*
X111883333Y-90479523D01*
X111835714Y-90384285D01*
X111788095Y-90193809D01*
X111788095Y-90050952D01*
X111835714Y-89860476D01*
X111883333Y-89765238D01*
X111978571Y-89670000D01*
X112121428Y-89622380D01*
X112216666Y-89622380D01*
X112359523Y-89670000D01*
X112407142Y-89717619D01*
X113359523Y-90622380D02*
X112788095Y-90622380D01*
X113073809Y-90622380D02*
X113073809Y-89622380D01*
X112978571Y-89765238D01*
X112883333Y-89860476D01*
X112788095Y-89908095D01*
X114264285Y-89622380D02*
X113788095Y-89622380D01*
X113740476Y-90098571D01*
X113788095Y-90050952D01*
X113883333Y-90003333D01*
X114121428Y-90003333D01*
X114216666Y-90050952D01*
X114264285Y-90098571D01*
X114311904Y-90193809D01*
X114311904Y-90431904D01*
X114264285Y-90527142D01*
X114216666Y-90574761D01*
X114121428Y-90622380D01*
X113883333Y-90622380D01*
X113788095Y-90574761D01*
X113740476Y-90527142D01*
X112553809Y-95353142D02*
X112601428Y-95400761D01*
X112553809Y-95448380D01*
X112506190Y-95400761D01*
X112553809Y-95353142D01*
X112553809Y-95448380D01*
X113553809Y-95448380D02*
X112982380Y-95448380D01*
X113268095Y-95448380D02*
X113268095Y-94448380D01*
X113172857Y-94591238D01*
X113077619Y-94686476D01*
X112982380Y-94734095D01*
X140601142Y-92305142D02*
X140553523Y-92352761D01*
X140410666Y-92400380D01*
X140315428Y-92400380D01*
X140172571Y-92352761D01*
X140077333Y-92257523D01*
X140029714Y-92162285D01*
X139982095Y-91971809D01*
X139982095Y-91828952D01*
X140029714Y-91638476D01*
X140077333Y-91543238D01*
X140172571Y-91448000D01*
X140315428Y-91400380D01*
X140410666Y-91400380D01*
X140553523Y-91448000D01*
X140601142Y-91495619D01*
X141553523Y-92400380D02*
X140982095Y-92400380D01*
X141267809Y-92400380D02*
X141267809Y-91400380D01*
X141172571Y-91543238D01*
X141077333Y-91638476D01*
X140982095Y-91686095D01*
X142410666Y-91400380D02*
X142220190Y-91400380D01*
X142124952Y-91448000D01*
X142077333Y-91495619D01*
X141982095Y-91638476D01*
X141934476Y-91828952D01*
X141934476Y-92209904D01*
X141982095Y-92305142D01*
X142029714Y-92352761D01*
X142124952Y-92400380D01*
X142315428Y-92400380D01*
X142410666Y-92352761D01*
X142458285Y-92305142D01*
X142505904Y-92209904D01*
X142505904Y-91971809D01*
X142458285Y-91876571D01*
X142410666Y-91828952D01*
X142315428Y-91781333D01*
X142124952Y-91781333D01*
X142029714Y-91828952D01*
X141982095Y-91876571D01*
X141934476Y-91971809D01*
X140747809Y-96623142D02*
X140795428Y-96670761D01*
X140747809Y-96718380D01*
X140700190Y-96670761D01*
X140747809Y-96623142D01*
X140747809Y-96718380D01*
X141747809Y-96718380D02*
X141176380Y-96718380D01*
X141462095Y-96718380D02*
X141462095Y-95718380D01*
X141366857Y-95861238D01*
X141271619Y-95956476D01*
X141176380Y-96004095D01*
X72334380Y-95734095D02*
X71334380Y-95734095D01*
X71334380Y-95496000D01*
X71382000Y-95353142D01*
X71477238Y-95257904D01*
X71572476Y-95210285D01*
X71762952Y-95162666D01*
X71905809Y-95162666D01*
X72096285Y-95210285D01*
X72191523Y-95257904D01*
X72286761Y-95353142D01*
X72334380Y-95496000D01*
X72334380Y-95734095D01*
X72334380Y-94210285D02*
X72334380Y-94781714D01*
X72334380Y-94496000D02*
X71334380Y-94496000D01*
X71477238Y-94591238D01*
X71572476Y-94686476D01*
X71620095Y-94781714D01*
X75836428Y-96250000D02*
X75836428Y-96592857D01*
X75836428Y-96421428D02*
X75236428Y-96421428D01*
X75322142Y-96478571D01*
X75379285Y-96535714D01*
X75407857Y-96592857D01*
X75836428Y-95992857D02*
X75236428Y-95992857D01*
X75836428Y-95650000D01*
X75236428Y-95650000D01*
X75236428Y-95421428D02*
X75236428Y-95021428D01*
X75836428Y-95278571D01*
X75236428Y-94507142D02*
X75236428Y-94792857D01*
X75522142Y-94821428D01*
X75493571Y-94792857D01*
X75465000Y-94735714D01*
X75465000Y-94592857D01*
X75493571Y-94535714D01*
X75522142Y-94507142D01*
X75579285Y-94478571D01*
X75722142Y-94478571D01*
X75779285Y-94507142D01*
X75807857Y-94535714D01*
X75836428Y-94592857D01*
X75836428Y-94735714D01*
X75807857Y-94792857D01*
X75779285Y-94821428D01*
X75836428Y-94192857D02*
X75836428Y-94078571D01*
X75807857Y-94021428D01*
X75779285Y-93992857D01*
X75693571Y-93935714D01*
X75579285Y-93907142D01*
X75350714Y-93907142D01*
X75293571Y-93935714D01*
X75265000Y-93964285D01*
X75236428Y-94021428D01*
X75236428Y-94135714D01*
X75265000Y-94192857D01*
X75293571Y-94221428D01*
X75350714Y-94250000D01*
X75493571Y-94250000D01*
X75550714Y-94221428D01*
X75579285Y-94192857D01*
X75607857Y-94135714D01*
X75607857Y-94021428D01*
X75579285Y-93964285D01*
X75550714Y-93935714D01*
X75493571Y-93907142D01*
X61491904Y-100362380D02*
X61491904Y-99362380D01*
X61730000Y-99362380D01*
X61872857Y-99410000D01*
X61968095Y-99505238D01*
X62015714Y-99600476D01*
X62063333Y-99790952D01*
X62063333Y-99933809D01*
X62015714Y-100124285D01*
X61968095Y-100219523D01*
X61872857Y-100314761D01*
X61730000Y-100362380D01*
X61491904Y-100362380D01*
X62444285Y-99457619D02*
X62491904Y-99410000D01*
X62587142Y-99362380D01*
X62825238Y-99362380D01*
X62920476Y-99410000D01*
X62968095Y-99457619D01*
X63015714Y-99552857D01*
X63015714Y-99648095D01*
X62968095Y-99790952D01*
X62396666Y-100362380D01*
X63015714Y-100362380D01*
X61063333Y-96201666D02*
X60663333Y-96201666D01*
X60863333Y-96201666D02*
X60863333Y-95501666D01*
X60796666Y-95601666D01*
X60730000Y-95668333D01*
X60663333Y-95701666D01*
X61363333Y-96201666D02*
X61363333Y-95501666D01*
X61763333Y-96201666D01*
X61763333Y-95501666D01*
X62030000Y-95501666D02*
X62496666Y-95501666D01*
X62196666Y-96201666D01*
X63096666Y-95501666D02*
X62763333Y-95501666D01*
X62730000Y-95835000D01*
X62763333Y-95801666D01*
X62830000Y-95768333D01*
X62996666Y-95768333D01*
X63063333Y-95801666D01*
X63096666Y-95835000D01*
X63130000Y-95901666D01*
X63130000Y-96068333D01*
X63096666Y-96135000D01*
X63063333Y-96168333D01*
X62996666Y-96201666D01*
X62830000Y-96201666D01*
X62763333Y-96168333D01*
X62730000Y-96135000D01*
X63463333Y-96201666D02*
X63596666Y-96201666D01*
X63663333Y-96168333D01*
X63696666Y-96135000D01*
X63763333Y-96035000D01*
X63796666Y-95901666D01*
X63796666Y-95635000D01*
X63763333Y-95568333D01*
X63730000Y-95535000D01*
X63663333Y-95501666D01*
X63530000Y-95501666D01*
X63463333Y-95535000D01*
X63430000Y-95568333D01*
X63396666Y-95635000D01*
X63396666Y-95801666D01*
X63430000Y-95868333D01*
X63463333Y-95901666D01*
X63530000Y-95935000D01*
X63663333Y-95935000D01*
X63730000Y-95901666D01*
X63763333Y-95868333D01*
X63796666Y-95801666D01*
X155265380Y-90908095D02*
X154265380Y-90908095D01*
X154265380Y-90670000D01*
X154313000Y-90527142D01*
X154408238Y-90431904D01*
X154503476Y-90384285D01*
X154693952Y-90336666D01*
X154836809Y-90336666D01*
X155027285Y-90384285D01*
X155122523Y-90431904D01*
X155217761Y-90527142D01*
X155265380Y-90670000D01*
X155265380Y-90908095D01*
X154265380Y-90003333D02*
X154265380Y-89384285D01*
X154646333Y-89717619D01*
X154646333Y-89574761D01*
X154693952Y-89479523D01*
X154741571Y-89431904D01*
X154836809Y-89384285D01*
X155074904Y-89384285D01*
X155170142Y-89431904D01*
X155217761Y-89479523D01*
X155265380Y-89574761D01*
X155265380Y-89860476D01*
X155217761Y-89955714D01*
X155170142Y-90003333D01*
X156989428Y-90916000D02*
X156989428Y-91258857D01*
X156989428Y-91087428D02*
X156389428Y-91087428D01*
X156475142Y-91144571D01*
X156532285Y-91201714D01*
X156560857Y-91258857D01*
X156989428Y-90658857D02*
X156389428Y-90658857D01*
X156989428Y-90316000D01*
X156389428Y-90316000D01*
X156389428Y-90087428D02*
X156389428Y-89687428D01*
X156989428Y-89944571D01*
X156389428Y-89173142D02*
X156389428Y-89458857D01*
X156675142Y-89487428D01*
X156646571Y-89458857D01*
X156618000Y-89401714D01*
X156618000Y-89258857D01*
X156646571Y-89201714D01*
X156675142Y-89173142D01*
X156732285Y-89144571D01*
X156875142Y-89144571D01*
X156932285Y-89173142D01*
X156960857Y-89201714D01*
X156989428Y-89258857D01*
X156989428Y-89401714D01*
X156960857Y-89458857D01*
X156932285Y-89487428D01*
X156989428Y-88858857D02*
X156989428Y-88744571D01*
X156960857Y-88687428D01*
X156932285Y-88658857D01*
X156846571Y-88601714D01*
X156732285Y-88573142D01*
X156503714Y-88573142D01*
X156446571Y-88601714D01*
X156418000Y-88630285D01*
X156389428Y-88687428D01*
X156389428Y-88801714D01*
X156418000Y-88858857D01*
X156446571Y-88887428D01*
X156503714Y-88916000D01*
X156646571Y-88916000D01*
X156703714Y-88887428D01*
X156732285Y-88858857D01*
X156760857Y-88801714D01*
X156760857Y-88687428D01*
X156732285Y-88630285D01*
X156703714Y-88601714D01*
X156646571Y-88573142D01*
X159710380Y-90908095D02*
X158710380Y-90908095D01*
X158710380Y-90670000D01*
X158758000Y-90527142D01*
X158853238Y-90431904D01*
X158948476Y-90384285D01*
X159138952Y-90336666D01*
X159281809Y-90336666D01*
X159472285Y-90384285D01*
X159567523Y-90431904D01*
X159662761Y-90527142D01*
X159710380Y-90670000D01*
X159710380Y-90908095D01*
X159043714Y-89479523D02*
X159710380Y-89479523D01*
X158662761Y-89717619D02*
X159377047Y-89955714D01*
X159377047Y-89336666D01*
X161307428Y-90916000D02*
X161307428Y-91258857D01*
X161307428Y-91087428D02*
X160707428Y-91087428D01*
X160793142Y-91144571D01*
X160850285Y-91201714D01*
X160878857Y-91258857D01*
X161307428Y-90658857D02*
X160707428Y-90658857D01*
X161307428Y-90316000D01*
X160707428Y-90316000D01*
X160707428Y-90087428D02*
X160707428Y-89687428D01*
X161307428Y-89944571D01*
X160707428Y-89173142D02*
X160707428Y-89458857D01*
X160993142Y-89487428D01*
X160964571Y-89458857D01*
X160936000Y-89401714D01*
X160936000Y-89258857D01*
X160964571Y-89201714D01*
X160993142Y-89173142D01*
X161050285Y-89144571D01*
X161193142Y-89144571D01*
X161250285Y-89173142D01*
X161278857Y-89201714D01*
X161307428Y-89258857D01*
X161307428Y-89401714D01*
X161278857Y-89458857D01*
X161250285Y-89487428D01*
X161307428Y-88858857D02*
X161307428Y-88744571D01*
X161278857Y-88687428D01*
X161250285Y-88658857D01*
X161164571Y-88601714D01*
X161050285Y-88573142D01*
X160821714Y-88573142D01*
X160764571Y-88601714D01*
X160736000Y-88630285D01*
X160707428Y-88687428D01*
X160707428Y-88801714D01*
X160736000Y-88858857D01*
X160764571Y-88887428D01*
X160821714Y-88916000D01*
X160964571Y-88916000D01*
X161021714Y-88887428D01*
X161050285Y-88858857D01*
X161078857Y-88801714D01*
X161078857Y-88687428D01*
X161050285Y-88630285D01*
X161021714Y-88601714D01*
X160964571Y-88573142D01*
X53006666Y-83562380D02*
X53006666Y-84276666D01*
X52959047Y-84419523D01*
X52863809Y-84514761D01*
X52720952Y-84562380D01*
X52625714Y-84562380D01*
X54006666Y-84562380D02*
X53435238Y-84562380D01*
X53720952Y-84562380D02*
X53720952Y-83562380D01*
X53625714Y-83705238D01*
X53530476Y-83800476D01*
X53435238Y-83848095D01*
X93646666Y-98512380D02*
X93646666Y-99226666D01*
X93599047Y-99369523D01*
X93503809Y-99464761D01*
X93360952Y-99512380D01*
X93265714Y-99512380D01*
X94075238Y-98607619D02*
X94122857Y-98560000D01*
X94218095Y-98512380D01*
X94456190Y-98512380D01*
X94551428Y-98560000D01*
X94599047Y-98607619D01*
X94646666Y-98702857D01*
X94646666Y-98798095D01*
X94599047Y-98940952D01*
X94027619Y-99512380D01*
X94646666Y-99512380D01*
X114756666Y-98512380D02*
X114756666Y-99226666D01*
X114709047Y-99369523D01*
X114613809Y-99464761D01*
X114470952Y-99512380D01*
X114375714Y-99512380D01*
X115137619Y-98512380D02*
X115756666Y-98512380D01*
X115423333Y-98893333D01*
X115566190Y-98893333D01*
X115661428Y-98940952D01*
X115709047Y-98988571D01*
X115756666Y-99083809D01*
X115756666Y-99321904D01*
X115709047Y-99417142D01*
X115661428Y-99464761D01*
X115566190Y-99512380D01*
X115280476Y-99512380D01*
X115185238Y-99464761D01*
X115137619Y-99417142D01*
X107465761Y-100044047D02*
X107513380Y-99901190D01*
X107513380Y-99663095D01*
X107465761Y-99567857D01*
X107418142Y-99520238D01*
X107322904Y-99472619D01*
X107227666Y-99472619D01*
X107132428Y-99520238D01*
X107084809Y-99567857D01*
X107037190Y-99663095D01*
X106989571Y-99853571D01*
X106941952Y-99948809D01*
X106894333Y-99996428D01*
X106799095Y-100044047D01*
X106703857Y-100044047D01*
X106608619Y-99996428D01*
X106561000Y-99948809D01*
X106513380Y-99853571D01*
X106513380Y-99615476D01*
X106561000Y-99472619D01*
X107465761Y-98663095D02*
X107513380Y-98758333D01*
X107513380Y-98948809D01*
X107465761Y-99044047D01*
X107370523Y-99091666D01*
X106989571Y-99091666D01*
X106894333Y-99044047D01*
X106846714Y-98948809D01*
X106846714Y-98758333D01*
X106894333Y-98663095D01*
X106989571Y-98615476D01*
X107084809Y-98615476D01*
X107180047Y-99091666D01*
X106846714Y-98186904D02*
X107513380Y-98186904D01*
X106941952Y-98186904D02*
X106894333Y-98139285D01*
X106846714Y-98044047D01*
X106846714Y-97901190D01*
X106894333Y-97805952D01*
X106989571Y-97758333D01*
X107513380Y-97758333D01*
X107513380Y-96853571D02*
X106513380Y-96853571D01*
X107465761Y-96853571D02*
X107513380Y-96948809D01*
X107513380Y-97139285D01*
X107465761Y-97234523D01*
X107418142Y-97282142D01*
X107322904Y-97329761D01*
X107037190Y-97329761D01*
X106941952Y-97282142D01*
X106894333Y-97234523D01*
X106846714Y-97139285D01*
X106846714Y-96948809D01*
X106894333Y-96853571D01*
X126376666Y-98512380D02*
X126376666Y-99226666D01*
X126329047Y-99369523D01*
X126233809Y-99464761D01*
X126090952Y-99512380D01*
X125995714Y-99512380D01*
X127281428Y-98845714D02*
X127281428Y-99512380D01*
X127043333Y-98464761D02*
X126805238Y-99179047D01*
X127424285Y-99179047D01*
X119197380Y-99409047D02*
X118721190Y-99742380D01*
X119197380Y-99980476D02*
X118197380Y-99980476D01*
X118197380Y-99599523D01*
X118245000Y-99504285D01*
X118292619Y-99456666D01*
X118387857Y-99409047D01*
X118530714Y-99409047D01*
X118625952Y-99456666D01*
X118673571Y-99504285D01*
X118721190Y-99599523D01*
X118721190Y-99980476D01*
X119149761Y-98599523D02*
X119197380Y-98694761D01*
X119197380Y-98885238D01*
X119149761Y-98980476D01*
X119054523Y-99028095D01*
X118673571Y-99028095D01*
X118578333Y-98980476D01*
X118530714Y-98885238D01*
X118530714Y-98694761D01*
X118578333Y-98599523D01*
X118673571Y-98551904D01*
X118768809Y-98551904D01*
X118864047Y-99028095D01*
X118530714Y-98266190D02*
X118530714Y-97885238D01*
X118197380Y-98123333D02*
X119054523Y-98123333D01*
X119149761Y-98075714D01*
X119197380Y-97980476D01*
X119197380Y-97885238D01*
X118530714Y-97123333D02*
X119197380Y-97123333D01*
X118530714Y-97551904D02*
X119054523Y-97551904D01*
X119149761Y-97504285D01*
X119197380Y-97409047D01*
X119197380Y-97266190D01*
X119149761Y-97170952D01*
X119102142Y-97123333D01*
X119197380Y-96647142D02*
X118530714Y-96647142D01*
X118721190Y-96647142D02*
X118625952Y-96599523D01*
X118578333Y-96551904D01*
X118530714Y-96456666D01*
X118530714Y-96361428D01*
X118530714Y-96028095D02*
X119197380Y-96028095D01*
X118625952Y-96028095D02*
X118578333Y-95980476D01*
X118530714Y-95885238D01*
X118530714Y-95742380D01*
X118578333Y-95647142D01*
X118673571Y-95599523D01*
X119197380Y-95599523D01*
X137616666Y-98512380D02*
X137616666Y-99226666D01*
X137569047Y-99369523D01*
X137473809Y-99464761D01*
X137330952Y-99512380D01*
X137235714Y-99512380D01*
X138569047Y-98512380D02*
X138092857Y-98512380D01*
X138045238Y-98988571D01*
X138092857Y-98940952D01*
X138188095Y-98893333D01*
X138426190Y-98893333D01*
X138521428Y-98940952D01*
X138569047Y-98988571D01*
X138616666Y-99083809D01*
X138616666Y-99321904D01*
X138569047Y-99417142D01*
X138521428Y-99464761D01*
X138426190Y-99512380D01*
X138188095Y-99512380D01*
X138092857Y-99464761D01*
X138045238Y-99417142D01*
X61301333Y-84780380D02*
X60968000Y-84304190D01*
X60729904Y-84780380D02*
X60729904Y-83780380D01*
X61110857Y-83780380D01*
X61206095Y-83828000D01*
X61253714Y-83875619D01*
X61301333Y-83970857D01*
X61301333Y-84113714D01*
X61253714Y-84208952D01*
X61206095Y-84256571D01*
X61110857Y-84304190D01*
X60729904Y-84304190D01*
X62253714Y-84780380D02*
X61682285Y-84780380D01*
X61968000Y-84780380D02*
X61968000Y-83780380D01*
X61872761Y-83923238D01*
X61777523Y-84018476D01*
X61682285Y-84066095D01*
X60253714Y-85812380D02*
X60872761Y-85812380D01*
X60539428Y-86193333D01*
X60682285Y-86193333D01*
X60777523Y-86240952D01*
X60825142Y-86288571D01*
X60872761Y-86383809D01*
X60872761Y-86621904D01*
X60825142Y-86717142D01*
X60777523Y-86764761D01*
X60682285Y-86812380D01*
X60396571Y-86812380D01*
X60301333Y-86764761D01*
X60253714Y-86717142D01*
X61206095Y-85812380D02*
X61825142Y-85812380D01*
X61491809Y-86193333D01*
X61634666Y-86193333D01*
X61729904Y-86240952D01*
X61777523Y-86288571D01*
X61825142Y-86383809D01*
X61825142Y-86621904D01*
X61777523Y-86717142D01*
X61729904Y-86764761D01*
X61634666Y-86812380D01*
X61348952Y-86812380D01*
X61253714Y-86764761D01*
X61206095Y-86717142D01*
X62253714Y-86812380D02*
X62253714Y-85812380D01*
X62348952Y-86431428D02*
X62634666Y-86812380D01*
X62634666Y-86145714D02*
X62253714Y-86526666D01*
X56983333Y-78430380D02*
X56650000Y-77954190D01*
X56411904Y-78430380D02*
X56411904Y-77430380D01*
X56792857Y-77430380D01*
X56888095Y-77478000D01*
X56935714Y-77525619D01*
X56983333Y-77620857D01*
X56983333Y-77763714D01*
X56935714Y-77858952D01*
X56888095Y-77906571D01*
X56792857Y-77954190D01*
X56411904Y-77954190D01*
X57364285Y-77525619D02*
X57411904Y-77478000D01*
X57507142Y-77430380D01*
X57745238Y-77430380D01*
X57840476Y-77478000D01*
X57888095Y-77525619D01*
X57935714Y-77620857D01*
X57935714Y-77716095D01*
X57888095Y-77858952D01*
X57316666Y-78430380D01*
X57935714Y-78430380D01*
X55983333Y-79557619D02*
X56030952Y-79510000D01*
X56126190Y-79462380D01*
X56364285Y-79462380D01*
X56459523Y-79510000D01*
X56507142Y-79557619D01*
X56554761Y-79652857D01*
X56554761Y-79748095D01*
X56507142Y-79890952D01*
X55935714Y-80462380D01*
X56554761Y-80462380D01*
X56935714Y-79557619D02*
X56983333Y-79510000D01*
X57078571Y-79462380D01*
X57316666Y-79462380D01*
X57411904Y-79510000D01*
X57459523Y-79557619D01*
X57507142Y-79652857D01*
X57507142Y-79748095D01*
X57459523Y-79890952D01*
X56888095Y-80462380D01*
X57507142Y-80462380D01*
X57935714Y-80462380D02*
X57935714Y-79462380D01*
X58030952Y-80081428D02*
X58316666Y-80462380D01*
X58316666Y-79795714D02*
X57935714Y-80176666D01*
X84780380Y-95416666D02*
X84304190Y-95750000D01*
X84780380Y-95988095D02*
X83780380Y-95988095D01*
X83780380Y-95607142D01*
X83828000Y-95511904D01*
X83875619Y-95464285D01*
X83970857Y-95416666D01*
X84113714Y-95416666D01*
X84208952Y-95464285D01*
X84256571Y-95511904D01*
X84304190Y-95607142D01*
X84304190Y-95988095D01*
X83780380Y-95083333D02*
X83780380Y-94464285D01*
X84161333Y-94797619D01*
X84161333Y-94654761D01*
X84208952Y-94559523D01*
X84256571Y-94511904D01*
X84351809Y-94464285D01*
X84589904Y-94464285D01*
X84685142Y-94511904D01*
X84732761Y-94559523D01*
X84780380Y-94654761D01*
X84780380Y-94940476D01*
X84732761Y-95035714D01*
X84685142Y-95083333D01*
X85907619Y-96892857D02*
X85860000Y-96845238D01*
X85812380Y-96750000D01*
X85812380Y-96511904D01*
X85860000Y-96416666D01*
X85907619Y-96369047D01*
X86002857Y-96321428D01*
X86098095Y-96321428D01*
X86240952Y-96369047D01*
X86812380Y-96940476D01*
X86812380Y-96321428D01*
X85907619Y-95940476D02*
X85860000Y-95892857D01*
X85812380Y-95797619D01*
X85812380Y-95559523D01*
X85860000Y-95464285D01*
X85907619Y-95416666D01*
X86002857Y-95369047D01*
X86098095Y-95369047D01*
X86240952Y-95416666D01*
X86812380Y-95988095D01*
X86812380Y-95369047D01*
X85812380Y-94750000D02*
X85812380Y-94654761D01*
X85860000Y-94559523D01*
X85907619Y-94511904D01*
X86002857Y-94464285D01*
X86193333Y-94416666D01*
X86431428Y-94416666D01*
X86621904Y-94464285D01*
X86717142Y-94511904D01*
X86764761Y-94559523D01*
X86812380Y-94654761D01*
X86812380Y-94750000D01*
X86764761Y-94845238D01*
X86717142Y-94892857D01*
X86621904Y-94940476D01*
X86431428Y-94988095D01*
X86193333Y-94988095D01*
X86002857Y-94940476D01*
X85907619Y-94892857D01*
X85860000Y-94845238D01*
X85812380Y-94750000D01*
X86812380Y-93988095D02*
X85812380Y-93988095D01*
X86431428Y-93892857D02*
X86812380Y-93607142D01*
X86145714Y-93607142D02*
X86526666Y-93988095D01*
X78430380Y-95416666D02*
X77954190Y-95750000D01*
X78430380Y-95988095D02*
X77430380Y-95988095D01*
X77430380Y-95607142D01*
X77478000Y-95511904D01*
X77525619Y-95464285D01*
X77620857Y-95416666D01*
X77763714Y-95416666D01*
X77858952Y-95464285D01*
X77906571Y-95511904D01*
X77954190Y-95607142D01*
X77954190Y-95988095D01*
X77763714Y-94559523D02*
X78430380Y-94559523D01*
X77382761Y-94797619D02*
X78097047Y-95035714D01*
X78097047Y-94416666D01*
X79462380Y-96702380D02*
X79462380Y-96083333D01*
X79843333Y-96416666D01*
X79843333Y-96273809D01*
X79890952Y-96178571D01*
X79938571Y-96130952D01*
X80033809Y-96083333D01*
X80271904Y-96083333D01*
X80367142Y-96130952D01*
X80414761Y-96178571D01*
X80462380Y-96273809D01*
X80462380Y-96559523D01*
X80414761Y-96654761D01*
X80367142Y-96702380D01*
X80367142Y-95654761D02*
X80414761Y-95607142D01*
X80462380Y-95654761D01*
X80414761Y-95702380D01*
X80367142Y-95654761D01*
X80462380Y-95654761D01*
X79462380Y-95273809D02*
X79462380Y-94654761D01*
X79843333Y-94988095D01*
X79843333Y-94845238D01*
X79890952Y-94750000D01*
X79938571Y-94702380D01*
X80033809Y-94654761D01*
X80271904Y-94654761D01*
X80367142Y-94702380D01*
X80414761Y-94750000D01*
X80462380Y-94845238D01*
X80462380Y-95130952D01*
X80414761Y-95226190D01*
X80367142Y-95273809D01*
X80462380Y-94226190D02*
X79462380Y-94226190D01*
X80081428Y-94130952D02*
X80462380Y-93845238D01*
X79795714Y-93845238D02*
X80176666Y-94226190D01*
X67000380Y-82716666D02*
X66524190Y-83050000D01*
X67000380Y-83288095D02*
X66000380Y-83288095D01*
X66000380Y-82907142D01*
X66048000Y-82811904D01*
X66095619Y-82764285D01*
X66190857Y-82716666D01*
X66333714Y-82716666D01*
X66428952Y-82764285D01*
X66476571Y-82811904D01*
X66524190Y-82907142D01*
X66524190Y-83288095D01*
X66000380Y-81811904D02*
X66000380Y-82288095D01*
X66476571Y-82335714D01*
X66428952Y-82288095D01*
X66381333Y-82192857D01*
X66381333Y-81954761D01*
X66428952Y-81859523D01*
X66476571Y-81811904D01*
X66571809Y-81764285D01*
X66809904Y-81764285D01*
X66905142Y-81811904D01*
X66952761Y-81859523D01*
X67000380Y-81954761D01*
X67000380Y-82192857D01*
X66952761Y-82288095D01*
X66905142Y-82335714D01*
X68032380Y-83764285D02*
X68032380Y-83145238D01*
X68413333Y-83478571D01*
X68413333Y-83335714D01*
X68460952Y-83240476D01*
X68508571Y-83192857D01*
X68603809Y-83145238D01*
X68841904Y-83145238D01*
X68937142Y-83192857D01*
X68984761Y-83240476D01*
X69032380Y-83335714D01*
X69032380Y-83621428D01*
X68984761Y-83716666D01*
X68937142Y-83764285D01*
X68032380Y-82811904D02*
X68032380Y-82192857D01*
X68413333Y-82526190D01*
X68413333Y-82383333D01*
X68460952Y-82288095D01*
X68508571Y-82240476D01*
X68603809Y-82192857D01*
X68841904Y-82192857D01*
X68937142Y-82240476D01*
X68984761Y-82288095D01*
X69032380Y-82383333D01*
X69032380Y-82669047D01*
X68984761Y-82764285D01*
X68937142Y-82811904D01*
X69032380Y-81764285D02*
X68032380Y-81764285D01*
X68651428Y-81669047D02*
X69032380Y-81383333D01*
X68365714Y-81383333D02*
X68746666Y-81764285D01*
X56983333Y-68524380D02*
X56650000Y-68048190D01*
X56411904Y-68524380D02*
X56411904Y-67524380D01*
X56792857Y-67524380D01*
X56888095Y-67572000D01*
X56935714Y-67619619D01*
X56983333Y-67714857D01*
X56983333Y-67857714D01*
X56935714Y-67952952D01*
X56888095Y-68000571D01*
X56792857Y-68048190D01*
X56411904Y-68048190D01*
X57840476Y-67524380D02*
X57650000Y-67524380D01*
X57554761Y-67572000D01*
X57507142Y-67619619D01*
X57411904Y-67762476D01*
X57364285Y-67952952D01*
X57364285Y-68333904D01*
X57411904Y-68429142D01*
X57459523Y-68476761D01*
X57554761Y-68524380D01*
X57745238Y-68524380D01*
X57840476Y-68476761D01*
X57888095Y-68429142D01*
X57935714Y-68333904D01*
X57935714Y-68095809D01*
X57888095Y-68000571D01*
X57840476Y-67952952D01*
X57745238Y-67905333D01*
X57554761Y-67905333D01*
X57459523Y-67952952D01*
X57411904Y-68000571D01*
X57364285Y-68095809D01*
X55697619Y-69683380D02*
X56316666Y-69683380D01*
X55983333Y-70064333D01*
X56126190Y-70064333D01*
X56221428Y-70111952D01*
X56269047Y-70159571D01*
X56316666Y-70254809D01*
X56316666Y-70492904D01*
X56269047Y-70588142D01*
X56221428Y-70635761D01*
X56126190Y-70683380D01*
X55840476Y-70683380D01*
X55745238Y-70635761D01*
X55697619Y-70588142D01*
X56745238Y-70588142D02*
X56792857Y-70635761D01*
X56745238Y-70683380D01*
X56697619Y-70635761D01*
X56745238Y-70588142D01*
X56745238Y-70683380D01*
X57126190Y-69683380D02*
X57745238Y-69683380D01*
X57411904Y-70064333D01*
X57554761Y-70064333D01*
X57650000Y-70111952D01*
X57697619Y-70159571D01*
X57745238Y-70254809D01*
X57745238Y-70492904D01*
X57697619Y-70588142D01*
X57650000Y-70635761D01*
X57554761Y-70683380D01*
X57269047Y-70683380D01*
X57173809Y-70635761D01*
X57126190Y-70588142D01*
X58173809Y-70683380D02*
X58173809Y-69683380D01*
X58269047Y-70302428D02*
X58554761Y-70683380D01*
X58554761Y-70016714D02*
X58173809Y-70397666D01*
X56983333Y-73604380D02*
X56650000Y-73128190D01*
X56411904Y-73604380D02*
X56411904Y-72604380D01*
X56792857Y-72604380D01*
X56888095Y-72652000D01*
X56935714Y-72699619D01*
X56983333Y-72794857D01*
X56983333Y-72937714D01*
X56935714Y-73032952D01*
X56888095Y-73080571D01*
X56792857Y-73128190D01*
X56411904Y-73128190D01*
X57316666Y-72604380D02*
X57983333Y-72604380D01*
X57554761Y-73604380D01*
X55983333Y-74731619D02*
X56030952Y-74684000D01*
X56126190Y-74636380D01*
X56364285Y-74636380D01*
X56459523Y-74684000D01*
X56507142Y-74731619D01*
X56554761Y-74826857D01*
X56554761Y-74922095D01*
X56507142Y-75064952D01*
X55935714Y-75636380D01*
X56554761Y-75636380D01*
X56935714Y-74731619D02*
X56983333Y-74684000D01*
X57078571Y-74636380D01*
X57316666Y-74636380D01*
X57411904Y-74684000D01*
X57459523Y-74731619D01*
X57507142Y-74826857D01*
X57507142Y-74922095D01*
X57459523Y-75064952D01*
X56888095Y-75636380D01*
X57507142Y-75636380D01*
X57935714Y-75636380D02*
X57935714Y-74636380D01*
X58030952Y-75255428D02*
X58316666Y-75636380D01*
X58316666Y-74969714D02*
X57935714Y-75350666D01*
X56983333Y-58872380D02*
X56650000Y-58396190D01*
X56411904Y-58872380D02*
X56411904Y-57872380D01*
X56792857Y-57872380D01*
X56888095Y-57920000D01*
X56935714Y-57967619D01*
X56983333Y-58062857D01*
X56983333Y-58205714D01*
X56935714Y-58300952D01*
X56888095Y-58348571D01*
X56792857Y-58396190D01*
X56411904Y-58396190D01*
X57459523Y-58872380D02*
X57650000Y-58872380D01*
X57745238Y-58824761D01*
X57792857Y-58777142D01*
X57888095Y-58634285D01*
X57935714Y-58443809D01*
X57935714Y-58062857D01*
X57888095Y-57967619D01*
X57840476Y-57920000D01*
X57745238Y-57872380D01*
X57554761Y-57872380D01*
X57459523Y-57920000D01*
X57411904Y-57967619D01*
X57364285Y-58062857D01*
X57364285Y-58300952D01*
X57411904Y-58396190D01*
X57459523Y-58443809D01*
X57554761Y-58491428D01*
X57745238Y-58491428D01*
X57840476Y-58443809D01*
X57888095Y-58396190D01*
X57935714Y-58300952D01*
X57030952Y-60777380D02*
X56459523Y-60777380D01*
X56745238Y-60777380D02*
X56745238Y-59777380D01*
X56650000Y-59920238D01*
X56554761Y-60015476D01*
X56459523Y-60063095D01*
X57459523Y-60777380D02*
X57459523Y-59777380D01*
X57554761Y-60396428D02*
X57840476Y-60777380D01*
X57840476Y-60110714D02*
X57459523Y-60491666D01*
X65461428Y-62637142D02*
X65161428Y-62208571D01*
X64947142Y-62637142D02*
X64947142Y-61737142D01*
X65290000Y-61737142D01*
X65375714Y-61780000D01*
X65418571Y-61822857D01*
X65461428Y-61908571D01*
X65461428Y-62037142D01*
X65418571Y-62122857D01*
X65375714Y-62165714D01*
X65290000Y-62208571D01*
X64947142Y-62208571D01*
X66318571Y-62637142D02*
X65804285Y-62637142D01*
X66061428Y-62637142D02*
X66061428Y-61737142D01*
X65975714Y-61865714D01*
X65890000Y-61951428D01*
X65804285Y-61994285D01*
X66875714Y-61737142D02*
X66961428Y-61737142D01*
X67047142Y-61780000D01*
X67090000Y-61822857D01*
X67132857Y-61908571D01*
X67175714Y-62080000D01*
X67175714Y-62294285D01*
X67132857Y-62465714D01*
X67090000Y-62551428D01*
X67047142Y-62594285D01*
X66961428Y-62637142D01*
X66875714Y-62637142D01*
X66790000Y-62594285D01*
X66747142Y-62551428D01*
X66704285Y-62465714D01*
X66661428Y-62294285D01*
X66661428Y-62080000D01*
X66704285Y-61908571D01*
X66747142Y-61822857D01*
X66790000Y-61780000D01*
X66875714Y-61737142D01*
X66778333Y-63809619D02*
X66825952Y-63762000D01*
X66921190Y-63714380D01*
X67159285Y-63714380D01*
X67254523Y-63762000D01*
X67302142Y-63809619D01*
X67349761Y-63904857D01*
X67349761Y-64000095D01*
X67302142Y-64142952D01*
X66730714Y-64714380D01*
X67349761Y-64714380D01*
X67730714Y-63809619D02*
X67778333Y-63762000D01*
X67873571Y-63714380D01*
X68111666Y-63714380D01*
X68206904Y-63762000D01*
X68254523Y-63809619D01*
X68302142Y-63904857D01*
X68302142Y-64000095D01*
X68254523Y-64142952D01*
X67683095Y-64714380D01*
X68302142Y-64714380D01*
X68730714Y-64714380D02*
X68730714Y-63714380D01*
X68825952Y-64333428D02*
X69111666Y-64714380D01*
X69111666Y-64047714D02*
X68730714Y-64428666D01*
X69017428Y-61621142D02*
X68717428Y-61192571D01*
X68503142Y-61621142D02*
X68503142Y-60721142D01*
X68846000Y-60721142D01*
X68931714Y-60764000D01*
X68974571Y-60806857D01*
X69017428Y-60892571D01*
X69017428Y-61021142D01*
X68974571Y-61106857D01*
X68931714Y-61149714D01*
X68846000Y-61192571D01*
X68503142Y-61192571D01*
X69874571Y-61621142D02*
X69360285Y-61621142D01*
X69617428Y-61621142D02*
X69617428Y-60721142D01*
X69531714Y-60849714D01*
X69446000Y-60935428D01*
X69360285Y-60978285D01*
X70731714Y-61621142D02*
X70217428Y-61621142D01*
X70474571Y-61621142D02*
X70474571Y-60721142D01*
X70388857Y-60849714D01*
X70303142Y-60935428D01*
X70217428Y-60978285D01*
X66778333Y-58602619D02*
X66825952Y-58555000D01*
X66921190Y-58507380D01*
X67159285Y-58507380D01*
X67254523Y-58555000D01*
X67302142Y-58602619D01*
X67349761Y-58697857D01*
X67349761Y-58793095D01*
X67302142Y-58935952D01*
X66730714Y-59507380D01*
X67349761Y-59507380D01*
X67730714Y-58602619D02*
X67778333Y-58555000D01*
X67873571Y-58507380D01*
X68111666Y-58507380D01*
X68206904Y-58555000D01*
X68254523Y-58602619D01*
X68302142Y-58697857D01*
X68302142Y-58793095D01*
X68254523Y-58935952D01*
X67683095Y-59507380D01*
X68302142Y-59507380D01*
X68730714Y-59507380D02*
X68730714Y-58507380D01*
X68825952Y-59126428D02*
X69111666Y-59507380D01*
X69111666Y-58840714D02*
X68730714Y-59221666D01*
X75430142Y-70429380D02*
X75096809Y-69953190D01*
X74858714Y-70429380D02*
X74858714Y-69429380D01*
X75239666Y-69429380D01*
X75334904Y-69477000D01*
X75382523Y-69524619D01*
X75430142Y-69619857D01*
X75430142Y-69762714D01*
X75382523Y-69857952D01*
X75334904Y-69905571D01*
X75239666Y-69953190D01*
X74858714Y-69953190D01*
X76382523Y-70429380D02*
X75811095Y-70429380D01*
X76096809Y-70429380D02*
X76096809Y-69429380D01*
X76001571Y-69572238D01*
X75906333Y-69667476D01*
X75811095Y-69715095D01*
X76763476Y-69524619D02*
X76811095Y-69477000D01*
X76906333Y-69429380D01*
X77144428Y-69429380D01*
X77239666Y-69477000D01*
X77287285Y-69524619D01*
X77334904Y-69619857D01*
X77334904Y-69715095D01*
X77287285Y-69857952D01*
X76715857Y-70429380D01*
X77334904Y-70429380D01*
X76334952Y-68270380D02*
X75763523Y-68270380D01*
X76049238Y-68270380D02*
X76049238Y-67270380D01*
X75954000Y-67413238D01*
X75858761Y-67508476D01*
X75763523Y-67556095D01*
X76763523Y-68270380D02*
X76763523Y-67270380D01*
X76858761Y-67889428D02*
X77144476Y-68270380D01*
X77144476Y-67603714D02*
X76763523Y-67984666D01*
X89182380Y-84462857D02*
X88706190Y-84796190D01*
X89182380Y-85034285D02*
X88182380Y-85034285D01*
X88182380Y-84653333D01*
X88230000Y-84558095D01*
X88277619Y-84510476D01*
X88372857Y-84462857D01*
X88515714Y-84462857D01*
X88610952Y-84510476D01*
X88658571Y-84558095D01*
X88706190Y-84653333D01*
X88706190Y-85034285D01*
X89182380Y-83510476D02*
X89182380Y-84081904D01*
X89182380Y-83796190D02*
X88182380Y-83796190D01*
X88325238Y-83891428D01*
X88420476Y-83986666D01*
X88468095Y-84081904D01*
X88182380Y-83177142D02*
X88182380Y-82558095D01*
X88563333Y-82891428D01*
X88563333Y-82748571D01*
X88610952Y-82653333D01*
X88658571Y-82605714D01*
X88753809Y-82558095D01*
X88991904Y-82558095D01*
X89087142Y-82605714D01*
X89134761Y-82653333D01*
X89182380Y-82748571D01*
X89182380Y-83034285D01*
X89134761Y-83129523D01*
X89087142Y-83177142D01*
X86240952Y-84796190D02*
X86193333Y-84891428D01*
X86145714Y-84939047D01*
X86050476Y-84986666D01*
X86002857Y-84986666D01*
X85907619Y-84939047D01*
X85860000Y-84891428D01*
X85812380Y-84796190D01*
X85812380Y-84605714D01*
X85860000Y-84510476D01*
X85907619Y-84462857D01*
X86002857Y-84415238D01*
X86050476Y-84415238D01*
X86145714Y-84462857D01*
X86193333Y-84510476D01*
X86240952Y-84605714D01*
X86240952Y-84796190D01*
X86288571Y-84891428D01*
X86336190Y-84939047D01*
X86431428Y-84986666D01*
X86621904Y-84986666D01*
X86717142Y-84939047D01*
X86764761Y-84891428D01*
X86812380Y-84796190D01*
X86812380Y-84605714D01*
X86764761Y-84510476D01*
X86717142Y-84462857D01*
X86621904Y-84415238D01*
X86431428Y-84415238D01*
X86336190Y-84462857D01*
X86288571Y-84510476D01*
X86240952Y-84605714D01*
X85907619Y-84034285D02*
X85860000Y-83986666D01*
X85812380Y-83891428D01*
X85812380Y-83653333D01*
X85860000Y-83558095D01*
X85907619Y-83510476D01*
X86002857Y-83462857D01*
X86098095Y-83462857D01*
X86240952Y-83510476D01*
X86812380Y-84081904D01*
X86812380Y-83462857D01*
X86812380Y-83034285D02*
X85812380Y-83034285D01*
X86431428Y-82939047D02*
X86812380Y-82653333D01*
X86145714Y-82653333D02*
X86526666Y-83034285D01*
X79527857Y-62315285D02*
X79277857Y-61958142D01*
X79099285Y-62315285D02*
X79099285Y-61565285D01*
X79385000Y-61565285D01*
X79456428Y-61601000D01*
X79492142Y-61636714D01*
X79527857Y-61708142D01*
X79527857Y-61815285D01*
X79492142Y-61886714D01*
X79456428Y-61922428D01*
X79385000Y-61958142D01*
X79099285Y-61958142D01*
X80242142Y-62315285D02*
X79813571Y-62315285D01*
X80027857Y-62315285D02*
X80027857Y-61565285D01*
X79956428Y-61672428D01*
X79885000Y-61743857D01*
X79813571Y-61779571D01*
X80885000Y-61815285D02*
X80885000Y-62315285D01*
X80706428Y-61529571D02*
X80527857Y-62065285D01*
X80992142Y-62065285D01*
X80716619Y-63587380D02*
X81335666Y-63587380D01*
X81002333Y-63968333D01*
X81145190Y-63968333D01*
X81240428Y-64015952D01*
X81288047Y-64063571D01*
X81335666Y-64158809D01*
X81335666Y-64396904D01*
X81288047Y-64492142D01*
X81240428Y-64539761D01*
X81145190Y-64587380D01*
X80859476Y-64587380D01*
X80764238Y-64539761D01*
X80716619Y-64492142D01*
X81764238Y-64492142D02*
X81811857Y-64539761D01*
X81764238Y-64587380D01*
X81716619Y-64539761D01*
X81764238Y-64492142D01*
X81764238Y-64587380D01*
X82145190Y-63587380D02*
X82764238Y-63587380D01*
X82430904Y-63968333D01*
X82573761Y-63968333D01*
X82669000Y-64015952D01*
X82716619Y-64063571D01*
X82764238Y-64158809D01*
X82764238Y-64396904D01*
X82716619Y-64492142D01*
X82669000Y-64539761D01*
X82573761Y-64587380D01*
X82288047Y-64587380D01*
X82192809Y-64539761D01*
X82145190Y-64492142D01*
X83192809Y-64587380D02*
X83192809Y-63587380D01*
X83288047Y-64206428D02*
X83573761Y-64587380D01*
X83573761Y-63920714D02*
X83192809Y-64301666D01*
X83591857Y-61553285D02*
X83341857Y-61196142D01*
X83163285Y-61553285D02*
X83163285Y-60803285D01*
X83449000Y-60803285D01*
X83520428Y-60839000D01*
X83556142Y-60874714D01*
X83591857Y-60946142D01*
X83591857Y-61053285D01*
X83556142Y-61124714D01*
X83520428Y-61160428D01*
X83449000Y-61196142D01*
X83163285Y-61196142D01*
X84306142Y-61553285D02*
X83877571Y-61553285D01*
X84091857Y-61553285D02*
X84091857Y-60803285D01*
X84020428Y-60910428D01*
X83949000Y-60981857D01*
X83877571Y-61017571D01*
X84984714Y-60803285D02*
X84627571Y-60803285D01*
X84591857Y-61160428D01*
X84627571Y-61124714D01*
X84699000Y-61089000D01*
X84877571Y-61089000D01*
X84949000Y-61124714D01*
X84984714Y-61160428D01*
X85020428Y-61231857D01*
X85020428Y-61410428D01*
X84984714Y-61481857D01*
X84949000Y-61517571D01*
X84877571Y-61553285D01*
X84699000Y-61553285D01*
X84627571Y-61517571D01*
X84591857Y-61481857D01*
X80716619Y-58507380D02*
X81335666Y-58507380D01*
X81002333Y-58888333D01*
X81145190Y-58888333D01*
X81240428Y-58935952D01*
X81288047Y-58983571D01*
X81335666Y-59078809D01*
X81335666Y-59316904D01*
X81288047Y-59412142D01*
X81240428Y-59459761D01*
X81145190Y-59507380D01*
X80859476Y-59507380D01*
X80764238Y-59459761D01*
X80716619Y-59412142D01*
X81764238Y-59412142D02*
X81811857Y-59459761D01*
X81764238Y-59507380D01*
X81716619Y-59459761D01*
X81764238Y-59412142D01*
X81764238Y-59507380D01*
X82145190Y-58507380D02*
X82764238Y-58507380D01*
X82430904Y-58888333D01*
X82573761Y-58888333D01*
X82669000Y-58935952D01*
X82716619Y-58983571D01*
X82764238Y-59078809D01*
X82764238Y-59316904D01*
X82716619Y-59412142D01*
X82669000Y-59459761D01*
X82573761Y-59507380D01*
X82288047Y-59507380D01*
X82192809Y-59459761D01*
X82145190Y-59412142D01*
X83192809Y-59507380D02*
X83192809Y-58507380D01*
X83288047Y-59126428D02*
X83573761Y-59507380D01*
X83573761Y-58840714D02*
X83192809Y-59221666D01*
X75557142Y-75128380D02*
X75223809Y-74652190D01*
X74985714Y-75128380D02*
X74985714Y-74128380D01*
X75366666Y-74128380D01*
X75461904Y-74176000D01*
X75509523Y-74223619D01*
X75557142Y-74318857D01*
X75557142Y-74461714D01*
X75509523Y-74556952D01*
X75461904Y-74604571D01*
X75366666Y-74652190D01*
X74985714Y-74652190D01*
X76509523Y-75128380D02*
X75938095Y-75128380D01*
X76223809Y-75128380D02*
X76223809Y-74128380D01*
X76128571Y-74271238D01*
X76033333Y-74366476D01*
X75938095Y-74414095D01*
X77366666Y-74128380D02*
X77176190Y-74128380D01*
X77080952Y-74176000D01*
X77033333Y-74223619D01*
X76938095Y-74366476D01*
X76890476Y-74556952D01*
X76890476Y-74937904D01*
X76938095Y-75033142D01*
X76985714Y-75080761D01*
X77080952Y-75128380D01*
X77271428Y-75128380D01*
X77366666Y-75080761D01*
X77414285Y-75033142D01*
X77461904Y-74937904D01*
X77461904Y-74699809D01*
X77414285Y-74604571D01*
X77366666Y-74556952D01*
X77271428Y-74509333D01*
X77080952Y-74509333D01*
X76985714Y-74556952D01*
X76938095Y-74604571D01*
X76890476Y-74699809D01*
X74715904Y-71937619D02*
X74763523Y-71890000D01*
X74858761Y-71842380D01*
X75096857Y-71842380D01*
X75192095Y-71890000D01*
X75239714Y-71937619D01*
X75287333Y-72032857D01*
X75287333Y-72128095D01*
X75239714Y-72270952D01*
X74668285Y-72842380D01*
X75287333Y-72842380D01*
X75668285Y-71937619D02*
X75715904Y-71890000D01*
X75811142Y-71842380D01*
X76049238Y-71842380D01*
X76144476Y-71890000D01*
X76192095Y-71937619D01*
X76239714Y-72032857D01*
X76239714Y-72128095D01*
X76192095Y-72270952D01*
X75620666Y-72842380D01*
X76239714Y-72842380D01*
X76858761Y-71842380D02*
X76954000Y-71842380D01*
X77049238Y-71890000D01*
X77096857Y-71937619D01*
X77144476Y-72032857D01*
X77192095Y-72223333D01*
X77192095Y-72461428D01*
X77144476Y-72651904D01*
X77096857Y-72747142D01*
X77049238Y-72794761D01*
X76954000Y-72842380D01*
X76858761Y-72842380D01*
X76763523Y-72794761D01*
X76715904Y-72747142D01*
X76668285Y-72651904D01*
X76620666Y-72461428D01*
X76620666Y-72223333D01*
X76668285Y-72032857D01*
X76715904Y-71937619D01*
X76763523Y-71890000D01*
X76858761Y-71842380D01*
X77620666Y-72842380D02*
X77620666Y-71842380D01*
X78192095Y-72842380D02*
X77763523Y-72270952D01*
X78192095Y-71842380D02*
X77620666Y-72413809D01*
X86225142Y-75128380D02*
X85891809Y-74652190D01*
X85653714Y-75128380D02*
X85653714Y-74128380D01*
X86034666Y-74128380D01*
X86129904Y-74176000D01*
X86177523Y-74223619D01*
X86225142Y-74318857D01*
X86225142Y-74461714D01*
X86177523Y-74556952D01*
X86129904Y-74604571D01*
X86034666Y-74652190D01*
X85653714Y-74652190D01*
X87177523Y-75128380D02*
X86606095Y-75128380D01*
X86891809Y-75128380D02*
X86891809Y-74128380D01*
X86796571Y-74271238D01*
X86701333Y-74366476D01*
X86606095Y-74414095D01*
X87510857Y-74128380D02*
X88177523Y-74128380D01*
X87748952Y-75128380D01*
X85129904Y-71937619D02*
X85177523Y-71890000D01*
X85272761Y-71842380D01*
X85510857Y-71842380D01*
X85606095Y-71890000D01*
X85653714Y-71937619D01*
X85701333Y-72032857D01*
X85701333Y-72128095D01*
X85653714Y-72270952D01*
X85082285Y-72842380D01*
X85701333Y-72842380D01*
X86082285Y-71937619D02*
X86129904Y-71890000D01*
X86225142Y-71842380D01*
X86463238Y-71842380D01*
X86558476Y-71890000D01*
X86606095Y-71937619D01*
X86653714Y-72032857D01*
X86653714Y-72128095D01*
X86606095Y-72270952D01*
X86034666Y-72842380D01*
X86653714Y-72842380D01*
X87272761Y-71842380D02*
X87368000Y-71842380D01*
X87463238Y-71890000D01*
X87510857Y-71937619D01*
X87558476Y-72032857D01*
X87606095Y-72223333D01*
X87606095Y-72461428D01*
X87558476Y-72651904D01*
X87510857Y-72747142D01*
X87463238Y-72794761D01*
X87368000Y-72842380D01*
X87272761Y-72842380D01*
X87177523Y-72794761D01*
X87129904Y-72747142D01*
X87082285Y-72651904D01*
X87034666Y-72461428D01*
X87034666Y-72223333D01*
X87082285Y-72032857D01*
X87129904Y-71937619D01*
X87177523Y-71890000D01*
X87272761Y-71842380D01*
X88034666Y-72842380D02*
X88034666Y-71842380D01*
X88606095Y-72842380D02*
X88177523Y-72270952D01*
X88606095Y-71842380D02*
X88034666Y-72413809D01*
X86225142Y-70302380D02*
X85891809Y-69826190D01*
X85653714Y-70302380D02*
X85653714Y-69302380D01*
X86034666Y-69302380D01*
X86129904Y-69350000D01*
X86177523Y-69397619D01*
X86225142Y-69492857D01*
X86225142Y-69635714D01*
X86177523Y-69730952D01*
X86129904Y-69778571D01*
X86034666Y-69826190D01*
X85653714Y-69826190D01*
X87177523Y-70302380D02*
X86606095Y-70302380D01*
X86891809Y-70302380D02*
X86891809Y-69302380D01*
X86796571Y-69445238D01*
X86701333Y-69540476D01*
X86606095Y-69588095D01*
X87748952Y-69730952D02*
X87653714Y-69683333D01*
X87606095Y-69635714D01*
X87558476Y-69540476D01*
X87558476Y-69492857D01*
X87606095Y-69397619D01*
X87653714Y-69350000D01*
X87748952Y-69302380D01*
X87939428Y-69302380D01*
X88034666Y-69350000D01*
X88082285Y-69397619D01*
X88129904Y-69492857D01*
X88129904Y-69540476D01*
X88082285Y-69635714D01*
X88034666Y-69683333D01*
X87939428Y-69730952D01*
X87748952Y-69730952D01*
X87653714Y-69778571D01*
X87606095Y-69826190D01*
X87558476Y-69921428D01*
X87558476Y-70111904D01*
X87606095Y-70207142D01*
X87653714Y-70254761D01*
X87748952Y-70302380D01*
X87939428Y-70302380D01*
X88034666Y-70254761D01*
X88082285Y-70207142D01*
X88129904Y-70111904D01*
X88129904Y-69921428D01*
X88082285Y-69826190D01*
X88034666Y-69778571D01*
X87939428Y-69730952D01*
X85415619Y-67270380D02*
X86034666Y-67270380D01*
X85701333Y-67651333D01*
X85844190Y-67651333D01*
X85939428Y-67698952D01*
X85987047Y-67746571D01*
X86034666Y-67841809D01*
X86034666Y-68079904D01*
X85987047Y-68175142D01*
X85939428Y-68222761D01*
X85844190Y-68270380D01*
X85558476Y-68270380D01*
X85463238Y-68222761D01*
X85415619Y-68175142D01*
X86463238Y-68175142D02*
X86510857Y-68222761D01*
X86463238Y-68270380D01*
X86415619Y-68222761D01*
X86463238Y-68175142D01*
X86463238Y-68270380D01*
X86844190Y-67270380D02*
X87463238Y-67270380D01*
X87129904Y-67651333D01*
X87272761Y-67651333D01*
X87368000Y-67698952D01*
X87415619Y-67746571D01*
X87463238Y-67841809D01*
X87463238Y-68079904D01*
X87415619Y-68175142D01*
X87368000Y-68222761D01*
X87272761Y-68270380D01*
X86987047Y-68270380D01*
X86891809Y-68222761D01*
X86844190Y-68175142D01*
X87891809Y-68270380D02*
X87891809Y-67270380D01*
X87987047Y-67889428D02*
X88272761Y-68270380D01*
X88272761Y-67603714D02*
X87891809Y-67984666D01*
X97226380Y-64142857D02*
X96750190Y-64476190D01*
X97226380Y-64714285D02*
X96226380Y-64714285D01*
X96226380Y-64333333D01*
X96274000Y-64238095D01*
X96321619Y-64190476D01*
X96416857Y-64142857D01*
X96559714Y-64142857D01*
X96654952Y-64190476D01*
X96702571Y-64238095D01*
X96750190Y-64333333D01*
X96750190Y-64714285D01*
X97226380Y-63190476D02*
X97226380Y-63761904D01*
X97226380Y-63476190D02*
X96226380Y-63476190D01*
X96369238Y-63571428D01*
X96464476Y-63666666D01*
X96512095Y-63761904D01*
X97226380Y-62714285D02*
X97226380Y-62523809D01*
X97178761Y-62428571D01*
X97131142Y-62380952D01*
X96988285Y-62285714D01*
X96797809Y-62238095D01*
X96416857Y-62238095D01*
X96321619Y-62285714D01*
X96274000Y-62333333D01*
X96226380Y-62428571D01*
X96226380Y-62619047D01*
X96274000Y-62714285D01*
X96321619Y-62761904D01*
X96416857Y-62809523D01*
X96654952Y-62809523D01*
X96750190Y-62761904D01*
X96797809Y-62714285D01*
X96845428Y-62619047D01*
X96845428Y-62428571D01*
X96797809Y-62333333D01*
X96750190Y-62285714D01*
X96654952Y-62238095D01*
X94067380Y-64380952D02*
X94067380Y-64857142D01*
X94543571Y-64904761D01*
X94495952Y-64857142D01*
X94448333Y-64761904D01*
X94448333Y-64523809D01*
X94495952Y-64428571D01*
X94543571Y-64380952D01*
X94638809Y-64333333D01*
X94876904Y-64333333D01*
X94972142Y-64380952D01*
X95019761Y-64428571D01*
X95067380Y-64523809D01*
X95067380Y-64761904D01*
X95019761Y-64857142D01*
X94972142Y-64904761D01*
X94972142Y-63904761D02*
X95019761Y-63857142D01*
X95067380Y-63904761D01*
X95019761Y-63952380D01*
X94972142Y-63904761D01*
X95067380Y-63904761D01*
X94067380Y-63000000D02*
X94067380Y-63190476D01*
X94115000Y-63285714D01*
X94162619Y-63333333D01*
X94305476Y-63428571D01*
X94495952Y-63476190D01*
X94876904Y-63476190D01*
X94972142Y-63428571D01*
X95019761Y-63380952D01*
X95067380Y-63285714D01*
X95067380Y-63095238D01*
X95019761Y-63000000D01*
X94972142Y-62952380D01*
X94876904Y-62904761D01*
X94638809Y-62904761D01*
X94543571Y-62952380D01*
X94495952Y-63000000D01*
X94448333Y-63095238D01*
X94448333Y-63285714D01*
X94495952Y-63380952D01*
X94543571Y-63428571D01*
X94638809Y-63476190D01*
X95067380Y-62476190D02*
X94067380Y-62476190D01*
X94686428Y-62380952D02*
X95067380Y-62095238D01*
X94400714Y-62095238D02*
X94781666Y-62476190D01*
X101499142Y-64078571D02*
X101070571Y-64378571D01*
X101499142Y-64592857D02*
X100599142Y-64592857D01*
X100599142Y-64250000D01*
X100642000Y-64164285D01*
X100684857Y-64121428D01*
X100770571Y-64078571D01*
X100899142Y-64078571D01*
X100984857Y-64121428D01*
X101027714Y-64164285D01*
X101070571Y-64250000D01*
X101070571Y-64592857D01*
X100684857Y-63735714D02*
X100642000Y-63692857D01*
X100599142Y-63607142D01*
X100599142Y-63392857D01*
X100642000Y-63307142D01*
X100684857Y-63264285D01*
X100770571Y-63221428D01*
X100856285Y-63221428D01*
X100984857Y-63264285D01*
X101499142Y-63778571D01*
X101499142Y-63221428D01*
X100599142Y-62664285D02*
X100599142Y-62578571D01*
X100642000Y-62492857D01*
X100684857Y-62450000D01*
X100770571Y-62407142D01*
X100942000Y-62364285D01*
X101156285Y-62364285D01*
X101327714Y-62407142D01*
X101413428Y-62450000D01*
X101456285Y-62492857D01*
X101499142Y-62578571D01*
X101499142Y-62664285D01*
X101456285Y-62750000D01*
X101413428Y-62792857D01*
X101327714Y-62835714D01*
X101156285Y-62878571D01*
X100942000Y-62878571D01*
X100770571Y-62835714D01*
X100684857Y-62792857D01*
X100642000Y-62750000D01*
X100599142Y-62664285D01*
X99512380Y-64095238D02*
X99512380Y-64666666D01*
X99512380Y-64380952D02*
X98512380Y-64380952D01*
X98655238Y-64476190D01*
X98750476Y-64571428D01*
X98798095Y-64666666D01*
X98607619Y-63714285D02*
X98560000Y-63666666D01*
X98512380Y-63571428D01*
X98512380Y-63333333D01*
X98560000Y-63238095D01*
X98607619Y-63190476D01*
X98702857Y-63142857D01*
X98798095Y-63142857D01*
X98940952Y-63190476D01*
X99512380Y-63761904D01*
X99512380Y-63142857D01*
X99512380Y-62714285D02*
X98512380Y-62714285D01*
X99131428Y-62619047D02*
X99512380Y-62333333D01*
X98845714Y-62333333D02*
X99226666Y-62714285D01*
X109291380Y-64142857D02*
X108815190Y-64476190D01*
X109291380Y-64714285D02*
X108291380Y-64714285D01*
X108291380Y-64333333D01*
X108339000Y-64238095D01*
X108386619Y-64190476D01*
X108481857Y-64142857D01*
X108624714Y-64142857D01*
X108719952Y-64190476D01*
X108767571Y-64238095D01*
X108815190Y-64333333D01*
X108815190Y-64714285D01*
X108386619Y-63761904D02*
X108339000Y-63714285D01*
X108291380Y-63619047D01*
X108291380Y-63380952D01*
X108339000Y-63285714D01*
X108386619Y-63238095D01*
X108481857Y-63190476D01*
X108577095Y-63190476D01*
X108719952Y-63238095D01*
X109291380Y-63809523D01*
X109291380Y-63190476D01*
X109291380Y-62238095D02*
X109291380Y-62809523D01*
X109291380Y-62523809D02*
X108291380Y-62523809D01*
X108434238Y-62619047D01*
X108529476Y-62714285D01*
X108577095Y-62809523D01*
X107132380Y-63841238D02*
X107132380Y-64412666D01*
X107132380Y-64126952D02*
X106132380Y-64126952D01*
X106275238Y-64222190D01*
X106370476Y-64317428D01*
X106418095Y-64412666D01*
X106227619Y-63460285D02*
X106180000Y-63412666D01*
X106132380Y-63317428D01*
X106132380Y-63079333D01*
X106180000Y-62984095D01*
X106227619Y-62936476D01*
X106322857Y-62888857D01*
X106418095Y-62888857D01*
X106560952Y-62936476D01*
X107132380Y-63507904D01*
X107132380Y-62888857D01*
X107132380Y-62460285D02*
X106132380Y-62460285D01*
X106751428Y-62365047D02*
X107132380Y-62079333D01*
X106465714Y-62079333D02*
X106846666Y-62460285D01*
X97147142Y-75128380D02*
X96813809Y-74652190D01*
X96575714Y-75128380D02*
X96575714Y-74128380D01*
X96956666Y-74128380D01*
X97051904Y-74176000D01*
X97099523Y-74223619D01*
X97147142Y-74318857D01*
X97147142Y-74461714D01*
X97099523Y-74556952D01*
X97051904Y-74604571D01*
X96956666Y-74652190D01*
X96575714Y-74652190D01*
X97528095Y-74223619D02*
X97575714Y-74176000D01*
X97670952Y-74128380D01*
X97909047Y-74128380D01*
X98004285Y-74176000D01*
X98051904Y-74223619D01*
X98099523Y-74318857D01*
X98099523Y-74414095D01*
X98051904Y-74556952D01*
X97480476Y-75128380D01*
X98099523Y-75128380D01*
X98480476Y-74223619D02*
X98528095Y-74176000D01*
X98623333Y-74128380D01*
X98861428Y-74128380D01*
X98956666Y-74176000D01*
X99004285Y-74223619D01*
X99051904Y-74318857D01*
X99051904Y-74414095D01*
X99004285Y-74556952D01*
X98432857Y-75128380D01*
X99051904Y-75128380D01*
X96051904Y-71937619D02*
X96099523Y-71890000D01*
X96194761Y-71842380D01*
X96432857Y-71842380D01*
X96528095Y-71890000D01*
X96575714Y-71937619D01*
X96623333Y-72032857D01*
X96623333Y-72128095D01*
X96575714Y-72270952D01*
X96004285Y-72842380D01*
X96623333Y-72842380D01*
X97004285Y-71937619D02*
X97051904Y-71890000D01*
X97147142Y-71842380D01*
X97385238Y-71842380D01*
X97480476Y-71890000D01*
X97528095Y-71937619D01*
X97575714Y-72032857D01*
X97575714Y-72128095D01*
X97528095Y-72270952D01*
X96956666Y-72842380D01*
X97575714Y-72842380D01*
X98194761Y-71842380D02*
X98290000Y-71842380D01*
X98385238Y-71890000D01*
X98432857Y-71937619D01*
X98480476Y-72032857D01*
X98528095Y-72223333D01*
X98528095Y-72461428D01*
X98480476Y-72651904D01*
X98432857Y-72747142D01*
X98385238Y-72794761D01*
X98290000Y-72842380D01*
X98194761Y-72842380D01*
X98099523Y-72794761D01*
X98051904Y-72747142D01*
X98004285Y-72651904D01*
X97956666Y-72461428D01*
X97956666Y-72223333D01*
X98004285Y-72032857D01*
X98051904Y-71937619D01*
X98099523Y-71890000D01*
X98194761Y-71842380D01*
X98956666Y-72842380D02*
X98956666Y-71842380D01*
X99528095Y-72842380D02*
X99099523Y-72270952D01*
X99528095Y-71842380D02*
X98956666Y-72413809D01*
X118181380Y-64142857D02*
X117705190Y-64476190D01*
X118181380Y-64714285D02*
X117181380Y-64714285D01*
X117181380Y-64333333D01*
X117229000Y-64238095D01*
X117276619Y-64190476D01*
X117371857Y-64142857D01*
X117514714Y-64142857D01*
X117609952Y-64190476D01*
X117657571Y-64238095D01*
X117705190Y-64333333D01*
X117705190Y-64714285D01*
X117276619Y-63761904D02*
X117229000Y-63714285D01*
X117181380Y-63619047D01*
X117181380Y-63380952D01*
X117229000Y-63285714D01*
X117276619Y-63238095D01*
X117371857Y-63190476D01*
X117467095Y-63190476D01*
X117609952Y-63238095D01*
X118181380Y-63809523D01*
X118181380Y-63190476D01*
X117181380Y-62857142D02*
X117181380Y-62238095D01*
X117562333Y-62571428D01*
X117562333Y-62428571D01*
X117609952Y-62333333D01*
X117657571Y-62285714D01*
X117752809Y-62238095D01*
X117990904Y-62238095D01*
X118086142Y-62285714D01*
X118133761Y-62333333D01*
X118181380Y-62428571D01*
X118181380Y-62714285D01*
X118133761Y-62809523D01*
X118086142Y-62857142D01*
X116022380Y-64095238D02*
X116022380Y-64666666D01*
X116022380Y-64380952D02*
X115022380Y-64380952D01*
X115165238Y-64476190D01*
X115260476Y-64571428D01*
X115308095Y-64666666D01*
X115117619Y-63714285D02*
X115070000Y-63666666D01*
X115022380Y-63571428D01*
X115022380Y-63333333D01*
X115070000Y-63238095D01*
X115117619Y-63190476D01*
X115212857Y-63142857D01*
X115308095Y-63142857D01*
X115450952Y-63190476D01*
X116022380Y-63761904D01*
X116022380Y-63142857D01*
X116022380Y-62714285D02*
X115022380Y-62714285D01*
X115641428Y-62619047D02*
X116022380Y-62333333D01*
X115355714Y-62333333D02*
X115736666Y-62714285D01*
X107307142Y-75128380D02*
X106973809Y-74652190D01*
X106735714Y-75128380D02*
X106735714Y-74128380D01*
X107116666Y-74128380D01*
X107211904Y-74176000D01*
X107259523Y-74223619D01*
X107307142Y-74318857D01*
X107307142Y-74461714D01*
X107259523Y-74556952D01*
X107211904Y-74604571D01*
X107116666Y-74652190D01*
X106735714Y-74652190D01*
X107688095Y-74223619D02*
X107735714Y-74176000D01*
X107830952Y-74128380D01*
X108069047Y-74128380D01*
X108164285Y-74176000D01*
X108211904Y-74223619D01*
X108259523Y-74318857D01*
X108259523Y-74414095D01*
X108211904Y-74556952D01*
X107640476Y-75128380D01*
X108259523Y-75128380D01*
X109116666Y-74461714D02*
X109116666Y-75128380D01*
X108878571Y-74080761D02*
X108640476Y-74795047D01*
X109259523Y-74795047D01*
X106211904Y-71937619D02*
X106259523Y-71890000D01*
X106354761Y-71842380D01*
X106592857Y-71842380D01*
X106688095Y-71890000D01*
X106735714Y-71937619D01*
X106783333Y-72032857D01*
X106783333Y-72128095D01*
X106735714Y-72270952D01*
X106164285Y-72842380D01*
X106783333Y-72842380D01*
X107164285Y-71937619D02*
X107211904Y-71890000D01*
X107307142Y-71842380D01*
X107545238Y-71842380D01*
X107640476Y-71890000D01*
X107688095Y-71937619D01*
X107735714Y-72032857D01*
X107735714Y-72128095D01*
X107688095Y-72270952D01*
X107116666Y-72842380D01*
X107735714Y-72842380D01*
X108354761Y-71842380D02*
X108450000Y-71842380D01*
X108545238Y-71890000D01*
X108592857Y-71937619D01*
X108640476Y-72032857D01*
X108688095Y-72223333D01*
X108688095Y-72461428D01*
X108640476Y-72651904D01*
X108592857Y-72747142D01*
X108545238Y-72794761D01*
X108450000Y-72842380D01*
X108354761Y-72842380D01*
X108259523Y-72794761D01*
X108211904Y-72747142D01*
X108164285Y-72651904D01*
X108116666Y-72461428D01*
X108116666Y-72223333D01*
X108164285Y-72032857D01*
X108211904Y-71937619D01*
X108259523Y-71890000D01*
X108354761Y-71842380D01*
X109116666Y-72842380D02*
X109116666Y-71842380D01*
X109688095Y-72842380D02*
X109259523Y-72270952D01*
X109688095Y-71842380D02*
X109116666Y-72413809D01*
X123896380Y-64142857D02*
X123420190Y-64476190D01*
X123896380Y-64714285D02*
X122896380Y-64714285D01*
X122896380Y-64333333D01*
X122944000Y-64238095D01*
X122991619Y-64190476D01*
X123086857Y-64142857D01*
X123229714Y-64142857D01*
X123324952Y-64190476D01*
X123372571Y-64238095D01*
X123420190Y-64333333D01*
X123420190Y-64714285D01*
X122991619Y-63761904D02*
X122944000Y-63714285D01*
X122896380Y-63619047D01*
X122896380Y-63380952D01*
X122944000Y-63285714D01*
X122991619Y-63238095D01*
X123086857Y-63190476D01*
X123182095Y-63190476D01*
X123324952Y-63238095D01*
X123896380Y-63809523D01*
X123896380Y-63190476D01*
X122896380Y-62285714D02*
X122896380Y-62761904D01*
X123372571Y-62809523D01*
X123324952Y-62761904D01*
X123277333Y-62666666D01*
X123277333Y-62428571D01*
X123324952Y-62333333D01*
X123372571Y-62285714D01*
X123467809Y-62238095D01*
X123705904Y-62238095D01*
X123801142Y-62285714D01*
X123848761Y-62333333D01*
X123896380Y-62428571D01*
X123896380Y-62666666D01*
X123848761Y-62761904D01*
X123801142Y-62809523D01*
X120610380Y-64380952D02*
X120610380Y-64857142D01*
X121086571Y-64904761D01*
X121038952Y-64857142D01*
X120991333Y-64761904D01*
X120991333Y-64523809D01*
X121038952Y-64428571D01*
X121086571Y-64380952D01*
X121181809Y-64333333D01*
X121419904Y-64333333D01*
X121515142Y-64380952D01*
X121562761Y-64428571D01*
X121610380Y-64523809D01*
X121610380Y-64761904D01*
X121562761Y-64857142D01*
X121515142Y-64904761D01*
X121515142Y-63904761D02*
X121562761Y-63857142D01*
X121610380Y-63904761D01*
X121562761Y-63952380D01*
X121515142Y-63904761D01*
X121610380Y-63904761D01*
X120610380Y-63000000D02*
X120610380Y-63190476D01*
X120658000Y-63285714D01*
X120705619Y-63333333D01*
X120848476Y-63428571D01*
X121038952Y-63476190D01*
X121419904Y-63476190D01*
X121515142Y-63428571D01*
X121562761Y-63380952D01*
X121610380Y-63285714D01*
X121610380Y-63095238D01*
X121562761Y-63000000D01*
X121515142Y-62952380D01*
X121419904Y-62904761D01*
X121181809Y-62904761D01*
X121086571Y-62952380D01*
X121038952Y-63000000D01*
X120991333Y-63095238D01*
X120991333Y-63285714D01*
X121038952Y-63380952D01*
X121086571Y-63428571D01*
X121181809Y-63476190D01*
X121610380Y-62476190D02*
X120610380Y-62476190D01*
X121229428Y-62380952D02*
X121610380Y-62095238D01*
X120943714Y-62095238D02*
X121324666Y-62476190D01*
X133632380Y-64142857D02*
X133156190Y-64476190D01*
X133632380Y-64714285D02*
X132632380Y-64714285D01*
X132632380Y-64333333D01*
X132680000Y-64238095D01*
X132727619Y-64190476D01*
X132822857Y-64142857D01*
X132965714Y-64142857D01*
X133060952Y-64190476D01*
X133108571Y-64238095D01*
X133156190Y-64333333D01*
X133156190Y-64714285D01*
X132727619Y-63761904D02*
X132680000Y-63714285D01*
X132632380Y-63619047D01*
X132632380Y-63380952D01*
X132680000Y-63285714D01*
X132727619Y-63238095D01*
X132822857Y-63190476D01*
X132918095Y-63190476D01*
X133060952Y-63238095D01*
X133632380Y-63809523D01*
X133632380Y-63190476D01*
X132632380Y-62333333D02*
X132632380Y-62523809D01*
X132680000Y-62619047D01*
X132727619Y-62666666D01*
X132870476Y-62761904D01*
X133060952Y-62809523D01*
X133441904Y-62809523D01*
X133537142Y-62761904D01*
X133584761Y-62714285D01*
X133632380Y-62619047D01*
X133632380Y-62428571D01*
X133584761Y-62333333D01*
X133537142Y-62285714D01*
X133441904Y-62238095D01*
X133203809Y-62238095D01*
X133108571Y-62285714D01*
X133060952Y-62333333D01*
X133013333Y-62428571D01*
X133013333Y-62619047D01*
X133060952Y-62714285D01*
X133108571Y-62761904D01*
X133203809Y-62809523D01*
X130262380Y-64380952D02*
X130262380Y-64857142D01*
X130738571Y-64904761D01*
X130690952Y-64857142D01*
X130643333Y-64761904D01*
X130643333Y-64523809D01*
X130690952Y-64428571D01*
X130738571Y-64380952D01*
X130833809Y-64333333D01*
X131071904Y-64333333D01*
X131167142Y-64380952D01*
X131214761Y-64428571D01*
X131262380Y-64523809D01*
X131262380Y-64761904D01*
X131214761Y-64857142D01*
X131167142Y-64904761D01*
X131167142Y-63904761D02*
X131214761Y-63857142D01*
X131262380Y-63904761D01*
X131214761Y-63952380D01*
X131167142Y-63904761D01*
X131262380Y-63904761D01*
X130262380Y-63000000D02*
X130262380Y-63190476D01*
X130310000Y-63285714D01*
X130357619Y-63333333D01*
X130500476Y-63428571D01*
X130690952Y-63476190D01*
X131071904Y-63476190D01*
X131167142Y-63428571D01*
X131214761Y-63380952D01*
X131262380Y-63285714D01*
X131262380Y-63095238D01*
X131214761Y-63000000D01*
X131167142Y-62952380D01*
X131071904Y-62904761D01*
X130833809Y-62904761D01*
X130738571Y-62952380D01*
X130690952Y-63000000D01*
X130643333Y-63095238D01*
X130643333Y-63285714D01*
X130690952Y-63380952D01*
X130738571Y-63428571D01*
X130833809Y-63476190D01*
X131262380Y-62476190D02*
X130262380Y-62476190D01*
X130881428Y-62380952D02*
X131262380Y-62095238D01*
X130595714Y-62095238D02*
X130976666Y-62476190D01*
X118991142Y-75128380D02*
X118657809Y-74652190D01*
X118419714Y-75128380D02*
X118419714Y-74128380D01*
X118800666Y-74128380D01*
X118895904Y-74176000D01*
X118943523Y-74223619D01*
X118991142Y-74318857D01*
X118991142Y-74461714D01*
X118943523Y-74556952D01*
X118895904Y-74604571D01*
X118800666Y-74652190D01*
X118419714Y-74652190D01*
X119372095Y-74223619D02*
X119419714Y-74176000D01*
X119514952Y-74128380D01*
X119753047Y-74128380D01*
X119848285Y-74176000D01*
X119895904Y-74223619D01*
X119943523Y-74318857D01*
X119943523Y-74414095D01*
X119895904Y-74556952D01*
X119324476Y-75128380D01*
X119943523Y-75128380D01*
X120276857Y-74128380D02*
X120943523Y-74128380D01*
X120514952Y-75128380D01*
X117641904Y-71937619D02*
X117689523Y-71890000D01*
X117784761Y-71842380D01*
X118022857Y-71842380D01*
X118118095Y-71890000D01*
X118165714Y-71937619D01*
X118213333Y-72032857D01*
X118213333Y-72128095D01*
X118165714Y-72270952D01*
X117594285Y-72842380D01*
X118213333Y-72842380D01*
X118594285Y-71937619D02*
X118641904Y-71890000D01*
X118737142Y-71842380D01*
X118975238Y-71842380D01*
X119070476Y-71890000D01*
X119118095Y-71937619D01*
X119165714Y-72032857D01*
X119165714Y-72128095D01*
X119118095Y-72270952D01*
X118546666Y-72842380D01*
X119165714Y-72842380D01*
X119784761Y-71842380D02*
X119880000Y-71842380D01*
X119975238Y-71890000D01*
X120022857Y-71937619D01*
X120070476Y-72032857D01*
X120118095Y-72223333D01*
X120118095Y-72461428D01*
X120070476Y-72651904D01*
X120022857Y-72747142D01*
X119975238Y-72794761D01*
X119880000Y-72842380D01*
X119784761Y-72842380D01*
X119689523Y-72794761D01*
X119641904Y-72747142D01*
X119594285Y-72651904D01*
X119546666Y-72461428D01*
X119546666Y-72223333D01*
X119594285Y-72032857D01*
X119641904Y-71937619D01*
X119689523Y-71890000D01*
X119784761Y-71842380D01*
X120546666Y-72842380D02*
X120546666Y-71842380D01*
X121118095Y-72842380D02*
X120689523Y-72270952D01*
X121118095Y-71842380D02*
X120546666Y-72413809D01*
X130167142Y-75128380D02*
X129833809Y-74652190D01*
X129595714Y-75128380D02*
X129595714Y-74128380D01*
X129976666Y-74128380D01*
X130071904Y-74176000D01*
X130119523Y-74223619D01*
X130167142Y-74318857D01*
X130167142Y-74461714D01*
X130119523Y-74556952D01*
X130071904Y-74604571D01*
X129976666Y-74652190D01*
X129595714Y-74652190D01*
X130548095Y-74223619D02*
X130595714Y-74176000D01*
X130690952Y-74128380D01*
X130929047Y-74128380D01*
X131024285Y-74176000D01*
X131071904Y-74223619D01*
X131119523Y-74318857D01*
X131119523Y-74414095D01*
X131071904Y-74556952D01*
X130500476Y-75128380D01*
X131119523Y-75128380D01*
X131690952Y-74556952D02*
X131595714Y-74509333D01*
X131548095Y-74461714D01*
X131500476Y-74366476D01*
X131500476Y-74318857D01*
X131548095Y-74223619D01*
X131595714Y-74176000D01*
X131690952Y-74128380D01*
X131881428Y-74128380D01*
X131976666Y-74176000D01*
X132024285Y-74223619D01*
X132071904Y-74318857D01*
X132071904Y-74366476D01*
X132024285Y-74461714D01*
X131976666Y-74509333D01*
X131881428Y-74556952D01*
X131690952Y-74556952D01*
X131595714Y-74604571D01*
X131548095Y-74652190D01*
X131500476Y-74747428D01*
X131500476Y-74937904D01*
X131548095Y-75033142D01*
X131595714Y-75080761D01*
X131690952Y-75128380D01*
X131881428Y-75128380D01*
X131976666Y-75080761D01*
X132024285Y-75033142D01*
X132071904Y-74937904D01*
X132071904Y-74747428D01*
X132024285Y-74652190D01*
X131976666Y-74604571D01*
X131881428Y-74556952D01*
X129071904Y-71937619D02*
X129119523Y-71890000D01*
X129214761Y-71842380D01*
X129452857Y-71842380D01*
X129548095Y-71890000D01*
X129595714Y-71937619D01*
X129643333Y-72032857D01*
X129643333Y-72128095D01*
X129595714Y-72270952D01*
X129024285Y-72842380D01*
X129643333Y-72842380D01*
X130024285Y-71937619D02*
X130071904Y-71890000D01*
X130167142Y-71842380D01*
X130405238Y-71842380D01*
X130500476Y-71890000D01*
X130548095Y-71937619D01*
X130595714Y-72032857D01*
X130595714Y-72128095D01*
X130548095Y-72270952D01*
X129976666Y-72842380D01*
X130595714Y-72842380D01*
X131214761Y-71842380D02*
X131310000Y-71842380D01*
X131405238Y-71890000D01*
X131452857Y-71937619D01*
X131500476Y-72032857D01*
X131548095Y-72223333D01*
X131548095Y-72461428D01*
X131500476Y-72651904D01*
X131452857Y-72747142D01*
X131405238Y-72794761D01*
X131310000Y-72842380D01*
X131214761Y-72842380D01*
X131119523Y-72794761D01*
X131071904Y-72747142D01*
X131024285Y-72651904D01*
X130976666Y-72461428D01*
X130976666Y-72223333D01*
X131024285Y-72032857D01*
X131071904Y-71937619D01*
X131119523Y-71890000D01*
X131214761Y-71842380D01*
X131976666Y-72842380D02*
X131976666Y-71842380D01*
X132548095Y-72842380D02*
X132119523Y-72270952D01*
X132548095Y-71842380D02*
X131976666Y-72413809D01*
X142438380Y-64142857D02*
X141962190Y-64476190D01*
X142438380Y-64714285D02*
X141438380Y-64714285D01*
X141438380Y-64333333D01*
X141486000Y-64238095D01*
X141533619Y-64190476D01*
X141628857Y-64142857D01*
X141771714Y-64142857D01*
X141866952Y-64190476D01*
X141914571Y-64238095D01*
X141962190Y-64333333D01*
X141962190Y-64714285D01*
X141533619Y-63761904D02*
X141486000Y-63714285D01*
X141438380Y-63619047D01*
X141438380Y-63380952D01*
X141486000Y-63285714D01*
X141533619Y-63238095D01*
X141628857Y-63190476D01*
X141724095Y-63190476D01*
X141866952Y-63238095D01*
X142438380Y-63809523D01*
X142438380Y-63190476D01*
X142438380Y-62714285D02*
X142438380Y-62523809D01*
X142390761Y-62428571D01*
X142343142Y-62380952D01*
X142200285Y-62285714D01*
X142009809Y-62238095D01*
X141628857Y-62238095D01*
X141533619Y-62285714D01*
X141486000Y-62333333D01*
X141438380Y-62428571D01*
X141438380Y-62619047D01*
X141486000Y-62714285D01*
X141533619Y-62761904D01*
X141628857Y-62809523D01*
X141866952Y-62809523D01*
X141962190Y-62761904D01*
X142009809Y-62714285D01*
X142057428Y-62619047D01*
X142057428Y-62428571D01*
X142009809Y-62333333D01*
X141962190Y-62285714D01*
X141866952Y-62238095D01*
X139152380Y-64380952D02*
X139152380Y-64857142D01*
X139628571Y-64904761D01*
X139580952Y-64857142D01*
X139533333Y-64761904D01*
X139533333Y-64523809D01*
X139580952Y-64428571D01*
X139628571Y-64380952D01*
X139723809Y-64333333D01*
X139961904Y-64333333D01*
X140057142Y-64380952D01*
X140104761Y-64428571D01*
X140152380Y-64523809D01*
X140152380Y-64761904D01*
X140104761Y-64857142D01*
X140057142Y-64904761D01*
X140057142Y-63904761D02*
X140104761Y-63857142D01*
X140152380Y-63904761D01*
X140104761Y-63952380D01*
X140057142Y-63904761D01*
X140152380Y-63904761D01*
X139152380Y-63000000D02*
X139152380Y-63190476D01*
X139200000Y-63285714D01*
X139247619Y-63333333D01*
X139390476Y-63428571D01*
X139580952Y-63476190D01*
X139961904Y-63476190D01*
X140057142Y-63428571D01*
X140104761Y-63380952D01*
X140152380Y-63285714D01*
X140152380Y-63095238D01*
X140104761Y-63000000D01*
X140057142Y-62952380D01*
X139961904Y-62904761D01*
X139723809Y-62904761D01*
X139628571Y-62952380D01*
X139580952Y-63000000D01*
X139533333Y-63095238D01*
X139533333Y-63285714D01*
X139580952Y-63380952D01*
X139628571Y-63428571D01*
X139723809Y-63476190D01*
X140152380Y-62476190D02*
X139152380Y-62476190D01*
X139771428Y-62380952D02*
X140152380Y-62095238D01*
X139485714Y-62095238D02*
X139866666Y-62476190D01*
X129611380Y-83192857D02*
X129135190Y-83526190D01*
X129611380Y-83764285D02*
X128611380Y-83764285D01*
X128611380Y-83383333D01*
X128659000Y-83288095D01*
X128706619Y-83240476D01*
X128801857Y-83192857D01*
X128944714Y-83192857D01*
X129039952Y-83240476D01*
X129087571Y-83288095D01*
X129135190Y-83383333D01*
X129135190Y-83764285D01*
X128611380Y-82859523D02*
X128611380Y-82240476D01*
X128992333Y-82573809D01*
X128992333Y-82430952D01*
X129039952Y-82335714D01*
X129087571Y-82288095D01*
X129182809Y-82240476D01*
X129420904Y-82240476D01*
X129516142Y-82288095D01*
X129563761Y-82335714D01*
X129611380Y-82430952D01*
X129611380Y-82716666D01*
X129563761Y-82811904D01*
X129516142Y-82859523D01*
X128611380Y-81621428D02*
X128611380Y-81526190D01*
X128659000Y-81430952D01*
X128706619Y-81383333D01*
X128801857Y-81335714D01*
X128992333Y-81288095D01*
X129230428Y-81288095D01*
X129420904Y-81335714D01*
X129516142Y-81383333D01*
X129563761Y-81430952D01*
X129611380Y-81526190D01*
X129611380Y-81621428D01*
X129563761Y-81716666D01*
X129516142Y-81764285D01*
X129420904Y-81811904D01*
X129230428Y-81859523D01*
X128992333Y-81859523D01*
X128801857Y-81811904D01*
X128706619Y-81764285D01*
X128659000Y-81716666D01*
X128611380Y-81621428D01*
X126452380Y-83764285D02*
X126452380Y-83145238D01*
X126833333Y-83478571D01*
X126833333Y-83335714D01*
X126880952Y-83240476D01*
X126928571Y-83192857D01*
X127023809Y-83145238D01*
X127261904Y-83145238D01*
X127357142Y-83192857D01*
X127404761Y-83240476D01*
X127452380Y-83335714D01*
X127452380Y-83621428D01*
X127404761Y-83716666D01*
X127357142Y-83764285D01*
X126452380Y-82811904D02*
X126452380Y-82192857D01*
X126833333Y-82526190D01*
X126833333Y-82383333D01*
X126880952Y-82288095D01*
X126928571Y-82240476D01*
X127023809Y-82192857D01*
X127261904Y-82192857D01*
X127357142Y-82240476D01*
X127404761Y-82288095D01*
X127452380Y-82383333D01*
X127452380Y-82669047D01*
X127404761Y-82764285D01*
X127357142Y-82811904D01*
X127452380Y-81764285D02*
X126452380Y-81764285D01*
X127071428Y-81669047D02*
X127452380Y-81383333D01*
X126785714Y-81383333D02*
X127166666Y-81764285D01*
X152682380Y-64142857D02*
X152206190Y-64476190D01*
X152682380Y-64714285D02*
X151682380Y-64714285D01*
X151682380Y-64333333D01*
X151730000Y-64238095D01*
X151777619Y-64190476D01*
X151872857Y-64142857D01*
X152015714Y-64142857D01*
X152110952Y-64190476D01*
X152158571Y-64238095D01*
X152206190Y-64333333D01*
X152206190Y-64714285D01*
X151682380Y-63809523D02*
X151682380Y-63190476D01*
X152063333Y-63523809D01*
X152063333Y-63380952D01*
X152110952Y-63285714D01*
X152158571Y-63238095D01*
X152253809Y-63190476D01*
X152491904Y-63190476D01*
X152587142Y-63238095D01*
X152634761Y-63285714D01*
X152682380Y-63380952D01*
X152682380Y-63666666D01*
X152634761Y-63761904D01*
X152587142Y-63809523D01*
X152682380Y-62238095D02*
X152682380Y-62809523D01*
X152682380Y-62523809D02*
X151682380Y-62523809D01*
X151825238Y-62619047D01*
X151920476Y-62714285D01*
X151968095Y-62809523D01*
X149312380Y-64952380D02*
X149312380Y-64333333D01*
X149693333Y-64666666D01*
X149693333Y-64523809D01*
X149740952Y-64428571D01*
X149788571Y-64380952D01*
X149883809Y-64333333D01*
X150121904Y-64333333D01*
X150217142Y-64380952D01*
X150264761Y-64428571D01*
X150312380Y-64523809D01*
X150312380Y-64809523D01*
X150264761Y-64904761D01*
X150217142Y-64952380D01*
X150217142Y-63904761D02*
X150264761Y-63857142D01*
X150312380Y-63904761D01*
X150264761Y-63952380D01*
X150217142Y-63904761D01*
X150312380Y-63904761D01*
X149312380Y-63523809D02*
X149312380Y-62904761D01*
X149693333Y-63238095D01*
X149693333Y-63095238D01*
X149740952Y-63000000D01*
X149788571Y-62952380D01*
X149883809Y-62904761D01*
X150121904Y-62904761D01*
X150217142Y-62952380D01*
X150264761Y-63000000D01*
X150312380Y-63095238D01*
X150312380Y-63380952D01*
X150264761Y-63476190D01*
X150217142Y-63523809D01*
X150312380Y-62476190D02*
X149312380Y-62476190D01*
X149931428Y-62380952D02*
X150312380Y-62095238D01*
X149645714Y-62095238D02*
X150026666Y-62476190D01*
X135961380Y-83192857D02*
X135485190Y-83526190D01*
X135961380Y-83764285D02*
X134961380Y-83764285D01*
X134961380Y-83383333D01*
X135009000Y-83288095D01*
X135056619Y-83240476D01*
X135151857Y-83192857D01*
X135294714Y-83192857D01*
X135389952Y-83240476D01*
X135437571Y-83288095D01*
X135485190Y-83383333D01*
X135485190Y-83764285D01*
X134961380Y-82859523D02*
X134961380Y-82240476D01*
X135342333Y-82573809D01*
X135342333Y-82430952D01*
X135389952Y-82335714D01*
X135437571Y-82288095D01*
X135532809Y-82240476D01*
X135770904Y-82240476D01*
X135866142Y-82288095D01*
X135913761Y-82335714D01*
X135961380Y-82430952D01*
X135961380Y-82716666D01*
X135913761Y-82811904D01*
X135866142Y-82859523D01*
X135056619Y-81859523D02*
X135009000Y-81811904D01*
X134961380Y-81716666D01*
X134961380Y-81478571D01*
X135009000Y-81383333D01*
X135056619Y-81335714D01*
X135151857Y-81288095D01*
X135247095Y-81288095D01*
X135389952Y-81335714D01*
X135961380Y-81907142D01*
X135961380Y-81288095D01*
X132897619Y-83716666D02*
X132850000Y-83669047D01*
X132802380Y-83573809D01*
X132802380Y-83335714D01*
X132850000Y-83240476D01*
X132897619Y-83192857D01*
X132992857Y-83145238D01*
X133088095Y-83145238D01*
X133230952Y-83192857D01*
X133802380Y-83764285D01*
X133802380Y-83145238D01*
X132897619Y-82764285D02*
X132850000Y-82716666D01*
X132802380Y-82621428D01*
X132802380Y-82383333D01*
X132850000Y-82288095D01*
X132897619Y-82240476D01*
X132992857Y-82192857D01*
X133088095Y-82192857D01*
X133230952Y-82240476D01*
X133802380Y-82811904D01*
X133802380Y-82192857D01*
X133802380Y-81764285D02*
X132802380Y-81764285D01*
X133421428Y-81669047D02*
X133802380Y-81383333D01*
X133135714Y-81383333D02*
X133516666Y-81764285D01*
X142867142Y-75128380D02*
X142533809Y-74652190D01*
X142295714Y-75128380D02*
X142295714Y-74128380D01*
X142676666Y-74128380D01*
X142771904Y-74176000D01*
X142819523Y-74223619D01*
X142867142Y-74318857D01*
X142867142Y-74461714D01*
X142819523Y-74556952D01*
X142771904Y-74604571D01*
X142676666Y-74652190D01*
X142295714Y-74652190D01*
X143200476Y-74128380D02*
X143819523Y-74128380D01*
X143486190Y-74509333D01*
X143629047Y-74509333D01*
X143724285Y-74556952D01*
X143771904Y-74604571D01*
X143819523Y-74699809D01*
X143819523Y-74937904D01*
X143771904Y-75033142D01*
X143724285Y-75080761D01*
X143629047Y-75128380D01*
X143343333Y-75128380D01*
X143248095Y-75080761D01*
X143200476Y-75033142D01*
X144152857Y-74128380D02*
X144771904Y-74128380D01*
X144438571Y-74509333D01*
X144581428Y-74509333D01*
X144676666Y-74556952D01*
X144724285Y-74604571D01*
X144771904Y-74699809D01*
X144771904Y-74937904D01*
X144724285Y-75033142D01*
X144676666Y-75080761D01*
X144581428Y-75128380D01*
X144295714Y-75128380D01*
X144200476Y-75080761D01*
X144152857Y-75033142D01*
X141771904Y-71937619D02*
X141819523Y-71890000D01*
X141914761Y-71842380D01*
X142152857Y-71842380D01*
X142248095Y-71890000D01*
X142295714Y-71937619D01*
X142343333Y-72032857D01*
X142343333Y-72128095D01*
X142295714Y-72270952D01*
X141724285Y-72842380D01*
X142343333Y-72842380D01*
X142724285Y-71937619D02*
X142771904Y-71890000D01*
X142867142Y-71842380D01*
X143105238Y-71842380D01*
X143200476Y-71890000D01*
X143248095Y-71937619D01*
X143295714Y-72032857D01*
X143295714Y-72128095D01*
X143248095Y-72270952D01*
X142676666Y-72842380D01*
X143295714Y-72842380D01*
X143914761Y-71842380D02*
X144010000Y-71842380D01*
X144105238Y-71890000D01*
X144152857Y-71937619D01*
X144200476Y-72032857D01*
X144248095Y-72223333D01*
X144248095Y-72461428D01*
X144200476Y-72651904D01*
X144152857Y-72747142D01*
X144105238Y-72794761D01*
X144010000Y-72842380D01*
X143914761Y-72842380D01*
X143819523Y-72794761D01*
X143771904Y-72747142D01*
X143724285Y-72651904D01*
X143676666Y-72461428D01*
X143676666Y-72223333D01*
X143724285Y-72032857D01*
X143771904Y-71937619D01*
X143819523Y-71890000D01*
X143914761Y-71842380D01*
X144676666Y-72842380D02*
X144676666Y-71842380D01*
X145248095Y-72842380D02*
X144819523Y-72270952D01*
X145248095Y-71842380D02*
X144676666Y-72413809D01*
X141041380Y-83192857D02*
X140565190Y-83526190D01*
X141041380Y-83764285D02*
X140041380Y-83764285D01*
X140041380Y-83383333D01*
X140089000Y-83288095D01*
X140136619Y-83240476D01*
X140231857Y-83192857D01*
X140374714Y-83192857D01*
X140469952Y-83240476D01*
X140517571Y-83288095D01*
X140565190Y-83383333D01*
X140565190Y-83764285D01*
X140041380Y-82859523D02*
X140041380Y-82240476D01*
X140422333Y-82573809D01*
X140422333Y-82430952D01*
X140469952Y-82335714D01*
X140517571Y-82288095D01*
X140612809Y-82240476D01*
X140850904Y-82240476D01*
X140946142Y-82288095D01*
X140993761Y-82335714D01*
X141041380Y-82430952D01*
X141041380Y-82716666D01*
X140993761Y-82811904D01*
X140946142Y-82859523D01*
X140374714Y-81383333D02*
X141041380Y-81383333D01*
X139993761Y-81621428D02*
X140708047Y-81859523D01*
X140708047Y-81240476D01*
X137882380Y-83176952D02*
X137882380Y-83653142D01*
X138358571Y-83700761D01*
X138310952Y-83653142D01*
X138263333Y-83557904D01*
X138263333Y-83319809D01*
X138310952Y-83224571D01*
X138358571Y-83176952D01*
X138453809Y-83129333D01*
X138691904Y-83129333D01*
X138787142Y-83176952D01*
X138834761Y-83224571D01*
X138882380Y-83319809D01*
X138882380Y-83557904D01*
X138834761Y-83653142D01*
X138787142Y-83700761D01*
X138787142Y-82700761D02*
X138834761Y-82653142D01*
X138882380Y-82700761D01*
X138834761Y-82748380D01*
X138787142Y-82700761D01*
X138882380Y-82700761D01*
X137882380Y-81796000D02*
X137882380Y-81986476D01*
X137930000Y-82081714D01*
X137977619Y-82129333D01*
X138120476Y-82224571D01*
X138310952Y-82272190D01*
X138691904Y-82272190D01*
X138787142Y-82224571D01*
X138834761Y-82176952D01*
X138882380Y-82081714D01*
X138882380Y-81891238D01*
X138834761Y-81796000D01*
X138787142Y-81748380D01*
X138691904Y-81700761D01*
X138453809Y-81700761D01*
X138358571Y-81748380D01*
X138310952Y-81796000D01*
X138263333Y-81891238D01*
X138263333Y-82081714D01*
X138310952Y-82176952D01*
X138358571Y-82224571D01*
X138453809Y-82272190D01*
X138882380Y-81272190D02*
X137882380Y-81272190D01*
X138501428Y-81176952D02*
X138882380Y-80891238D01*
X138215714Y-80891238D02*
X138596666Y-81272190D01*
X163012380Y-64142857D02*
X162536190Y-64476190D01*
X163012380Y-64714285D02*
X162012380Y-64714285D01*
X162012380Y-64333333D01*
X162060000Y-64238095D01*
X162107619Y-64190476D01*
X162202857Y-64142857D01*
X162345714Y-64142857D01*
X162440952Y-64190476D01*
X162488571Y-64238095D01*
X162536190Y-64333333D01*
X162536190Y-64714285D01*
X162012380Y-63809523D02*
X162012380Y-63190476D01*
X162393333Y-63523809D01*
X162393333Y-63380952D01*
X162440952Y-63285714D01*
X162488571Y-63238095D01*
X162583809Y-63190476D01*
X162821904Y-63190476D01*
X162917142Y-63238095D01*
X162964761Y-63285714D01*
X163012380Y-63380952D01*
X163012380Y-63666666D01*
X162964761Y-63761904D01*
X162917142Y-63809523D01*
X162012380Y-62285714D02*
X162012380Y-62761904D01*
X162488571Y-62809523D01*
X162440952Y-62761904D01*
X162393333Y-62666666D01*
X162393333Y-62428571D01*
X162440952Y-62333333D01*
X162488571Y-62285714D01*
X162583809Y-62238095D01*
X162821904Y-62238095D01*
X162917142Y-62285714D01*
X162964761Y-62333333D01*
X163012380Y-62428571D01*
X163012380Y-62666666D01*
X162964761Y-62761904D01*
X162917142Y-62809523D01*
X159726380Y-64952380D02*
X159726380Y-64333333D01*
X160107333Y-64666666D01*
X160107333Y-64523809D01*
X160154952Y-64428571D01*
X160202571Y-64380952D01*
X160297809Y-64333333D01*
X160535904Y-64333333D01*
X160631142Y-64380952D01*
X160678761Y-64428571D01*
X160726380Y-64523809D01*
X160726380Y-64809523D01*
X160678761Y-64904761D01*
X160631142Y-64952380D01*
X160631142Y-63904761D02*
X160678761Y-63857142D01*
X160726380Y-63904761D01*
X160678761Y-63952380D01*
X160631142Y-63904761D01*
X160726380Y-63904761D01*
X159726380Y-63523809D02*
X159726380Y-62904761D01*
X160107333Y-63238095D01*
X160107333Y-63095238D01*
X160154952Y-63000000D01*
X160202571Y-62952380D01*
X160297809Y-62904761D01*
X160535904Y-62904761D01*
X160631142Y-62952380D01*
X160678761Y-63000000D01*
X160726380Y-63095238D01*
X160726380Y-63380952D01*
X160678761Y-63476190D01*
X160631142Y-63523809D01*
X160726380Y-62476190D02*
X159726380Y-62476190D01*
X160345428Y-62380952D02*
X160726380Y-62095238D01*
X160059714Y-62095238D02*
X160440666Y-62476190D01*
X155821142Y-75128380D02*
X155487809Y-74652190D01*
X155249714Y-75128380D02*
X155249714Y-74128380D01*
X155630666Y-74128380D01*
X155725904Y-74176000D01*
X155773523Y-74223619D01*
X155821142Y-74318857D01*
X155821142Y-74461714D01*
X155773523Y-74556952D01*
X155725904Y-74604571D01*
X155630666Y-74652190D01*
X155249714Y-74652190D01*
X156154476Y-74128380D02*
X156773523Y-74128380D01*
X156440190Y-74509333D01*
X156583047Y-74509333D01*
X156678285Y-74556952D01*
X156725904Y-74604571D01*
X156773523Y-74699809D01*
X156773523Y-74937904D01*
X156725904Y-75033142D01*
X156678285Y-75080761D01*
X156583047Y-75128380D01*
X156297333Y-75128380D01*
X156202095Y-75080761D01*
X156154476Y-75033142D01*
X157630666Y-74128380D02*
X157440190Y-74128380D01*
X157344952Y-74176000D01*
X157297333Y-74223619D01*
X157202095Y-74366476D01*
X157154476Y-74556952D01*
X157154476Y-74937904D01*
X157202095Y-75033142D01*
X157249714Y-75080761D01*
X157344952Y-75128380D01*
X157535428Y-75128380D01*
X157630666Y-75080761D01*
X157678285Y-75033142D01*
X157725904Y-74937904D01*
X157725904Y-74699809D01*
X157678285Y-74604571D01*
X157630666Y-74556952D01*
X157535428Y-74509333D01*
X157344952Y-74509333D01*
X157249714Y-74556952D01*
X157202095Y-74604571D01*
X157154476Y-74699809D01*
X154725904Y-71937619D02*
X154773523Y-71890000D01*
X154868761Y-71842380D01*
X155106857Y-71842380D01*
X155202095Y-71890000D01*
X155249714Y-71937619D01*
X155297333Y-72032857D01*
X155297333Y-72128095D01*
X155249714Y-72270952D01*
X154678285Y-72842380D01*
X155297333Y-72842380D01*
X155678285Y-71937619D02*
X155725904Y-71890000D01*
X155821142Y-71842380D01*
X156059238Y-71842380D01*
X156154476Y-71890000D01*
X156202095Y-71937619D01*
X156249714Y-72032857D01*
X156249714Y-72128095D01*
X156202095Y-72270952D01*
X155630666Y-72842380D01*
X156249714Y-72842380D01*
X156868761Y-71842380D02*
X156964000Y-71842380D01*
X157059238Y-71890000D01*
X157106857Y-71937619D01*
X157154476Y-72032857D01*
X157202095Y-72223333D01*
X157202095Y-72461428D01*
X157154476Y-72651904D01*
X157106857Y-72747142D01*
X157059238Y-72794761D01*
X156964000Y-72842380D01*
X156868761Y-72842380D01*
X156773523Y-72794761D01*
X156725904Y-72747142D01*
X156678285Y-72651904D01*
X156630666Y-72461428D01*
X156630666Y-72223333D01*
X156678285Y-72032857D01*
X156725904Y-71937619D01*
X156773523Y-71890000D01*
X156868761Y-71842380D01*
X157630666Y-72842380D02*
X157630666Y-71842380D01*
X158202095Y-72842380D02*
X157773523Y-72270952D01*
X158202095Y-71842380D02*
X157630666Y-72413809D01*
X149217142Y-92273380D02*
X148883809Y-91797190D01*
X148645714Y-92273380D02*
X148645714Y-91273380D01*
X149026666Y-91273380D01*
X149121904Y-91321000D01*
X149169523Y-91368619D01*
X149217142Y-91463857D01*
X149217142Y-91606714D01*
X149169523Y-91701952D01*
X149121904Y-91749571D01*
X149026666Y-91797190D01*
X148645714Y-91797190D01*
X149550476Y-91273380D02*
X150169523Y-91273380D01*
X149836190Y-91654333D01*
X149979047Y-91654333D01*
X150074285Y-91701952D01*
X150121904Y-91749571D01*
X150169523Y-91844809D01*
X150169523Y-92082904D01*
X150121904Y-92178142D01*
X150074285Y-92225761D01*
X149979047Y-92273380D01*
X149693333Y-92273380D01*
X149598095Y-92225761D01*
X149550476Y-92178142D01*
X150502857Y-91273380D02*
X151169523Y-91273380D01*
X150740952Y-92273380D01*
X149264761Y-94432380D02*
X148693333Y-94432380D01*
X148979047Y-94432380D02*
X148979047Y-93432380D01*
X148883809Y-93575238D01*
X148788571Y-93670476D01*
X148693333Y-93718095D01*
X149645714Y-93527619D02*
X149693333Y-93480000D01*
X149788571Y-93432380D01*
X150026666Y-93432380D01*
X150121904Y-93480000D01*
X150169523Y-93527619D01*
X150217142Y-93622857D01*
X150217142Y-93718095D01*
X150169523Y-93860952D01*
X149598095Y-94432380D01*
X150217142Y-94432380D01*
X150645714Y-94432380D02*
X150645714Y-93432380D01*
X150740952Y-94051428D02*
X151026666Y-94432380D01*
X151026666Y-93765714D02*
X150645714Y-94146666D01*
X149217142Y-97353380D02*
X148883809Y-96877190D01*
X148645714Y-97353380D02*
X148645714Y-96353380D01*
X149026666Y-96353380D01*
X149121904Y-96401000D01*
X149169523Y-96448619D01*
X149217142Y-96543857D01*
X149217142Y-96686714D01*
X149169523Y-96781952D01*
X149121904Y-96829571D01*
X149026666Y-96877190D01*
X148645714Y-96877190D01*
X149550476Y-96353380D02*
X150169523Y-96353380D01*
X149836190Y-96734333D01*
X149979047Y-96734333D01*
X150074285Y-96781952D01*
X150121904Y-96829571D01*
X150169523Y-96924809D01*
X150169523Y-97162904D01*
X150121904Y-97258142D01*
X150074285Y-97305761D01*
X149979047Y-97353380D01*
X149693333Y-97353380D01*
X149598095Y-97305761D01*
X149550476Y-97258142D01*
X150740952Y-96781952D02*
X150645714Y-96734333D01*
X150598095Y-96686714D01*
X150550476Y-96591476D01*
X150550476Y-96543857D01*
X150598095Y-96448619D01*
X150645714Y-96401000D01*
X150740952Y-96353380D01*
X150931428Y-96353380D01*
X151026666Y-96401000D01*
X151074285Y-96448619D01*
X151121904Y-96543857D01*
X151121904Y-96591476D01*
X151074285Y-96686714D01*
X151026666Y-96734333D01*
X150931428Y-96781952D01*
X150740952Y-96781952D01*
X150645714Y-96829571D01*
X150598095Y-96877190D01*
X150550476Y-96972428D01*
X150550476Y-97162904D01*
X150598095Y-97258142D01*
X150645714Y-97305761D01*
X150740952Y-97353380D01*
X150931428Y-97353380D01*
X151026666Y-97305761D01*
X151074285Y-97258142D01*
X151121904Y-97162904D01*
X151121904Y-96972428D01*
X151074285Y-96877190D01*
X151026666Y-96829571D01*
X150931428Y-96781952D01*
X148217142Y-98607619D02*
X148264761Y-98560000D01*
X148360000Y-98512380D01*
X148598095Y-98512380D01*
X148693333Y-98560000D01*
X148740952Y-98607619D01*
X148788571Y-98702857D01*
X148788571Y-98798095D01*
X148740952Y-98940952D01*
X148169523Y-99512380D01*
X148788571Y-99512380D01*
X149169523Y-98607619D02*
X149217142Y-98560000D01*
X149312380Y-98512380D01*
X149550476Y-98512380D01*
X149645714Y-98560000D01*
X149693333Y-98607619D01*
X149740952Y-98702857D01*
X149740952Y-98798095D01*
X149693333Y-98940952D01*
X149121904Y-99512380D01*
X149740952Y-99512380D01*
X150360000Y-98512380D02*
X150455238Y-98512380D01*
X150550476Y-98560000D01*
X150598095Y-98607619D01*
X150645714Y-98702857D01*
X150693333Y-98893333D01*
X150693333Y-99131428D01*
X150645714Y-99321904D01*
X150598095Y-99417142D01*
X150550476Y-99464761D01*
X150455238Y-99512380D01*
X150360000Y-99512380D01*
X150264761Y-99464761D01*
X150217142Y-99417142D01*
X150169523Y-99321904D01*
X150121904Y-99131428D01*
X150121904Y-98893333D01*
X150169523Y-98702857D01*
X150217142Y-98607619D01*
X150264761Y-98560000D01*
X150360000Y-98512380D01*
X151121904Y-99512380D02*
X151121904Y-98512380D01*
X151217142Y-99131428D02*
X151502857Y-99512380D01*
X151502857Y-98845714D02*
X151121904Y-99226666D01*
X122547142Y-91130380D02*
X122213809Y-90654190D01*
X121975714Y-91130380D02*
X121975714Y-90130380D01*
X122356666Y-90130380D01*
X122451904Y-90178000D01*
X122499523Y-90225619D01*
X122547142Y-90320857D01*
X122547142Y-90463714D01*
X122499523Y-90558952D01*
X122451904Y-90606571D01*
X122356666Y-90654190D01*
X121975714Y-90654190D01*
X122880476Y-90130380D02*
X123499523Y-90130380D01*
X123166190Y-90511333D01*
X123309047Y-90511333D01*
X123404285Y-90558952D01*
X123451904Y-90606571D01*
X123499523Y-90701809D01*
X123499523Y-90939904D01*
X123451904Y-91035142D01*
X123404285Y-91082761D01*
X123309047Y-91130380D01*
X123023333Y-91130380D01*
X122928095Y-91082761D01*
X122880476Y-91035142D01*
X123975714Y-91130380D02*
X124166190Y-91130380D01*
X124261428Y-91082761D01*
X124309047Y-91035142D01*
X124404285Y-90892285D01*
X124451904Y-90701809D01*
X124451904Y-90320857D01*
X124404285Y-90225619D01*
X124356666Y-90178000D01*
X124261428Y-90130380D01*
X124070952Y-90130380D01*
X123975714Y-90178000D01*
X123928095Y-90225619D01*
X123880476Y-90320857D01*
X123880476Y-90558952D01*
X123928095Y-90654190D01*
X123975714Y-90701809D01*
X124070952Y-90749428D01*
X124261428Y-90749428D01*
X124356666Y-90701809D01*
X124404285Y-90654190D01*
X124451904Y-90558952D01*
X121975714Y-92162380D02*
X122594761Y-92162380D01*
X122261428Y-92543333D01*
X122404285Y-92543333D01*
X122499523Y-92590952D01*
X122547142Y-92638571D01*
X122594761Y-92733809D01*
X122594761Y-92971904D01*
X122547142Y-93067142D01*
X122499523Y-93114761D01*
X122404285Y-93162380D01*
X122118571Y-93162380D01*
X122023333Y-93114761D01*
X121975714Y-93067142D01*
X122928095Y-92162380D02*
X123547142Y-92162380D01*
X123213809Y-92543333D01*
X123356666Y-92543333D01*
X123451904Y-92590952D01*
X123499523Y-92638571D01*
X123547142Y-92733809D01*
X123547142Y-92971904D01*
X123499523Y-93067142D01*
X123451904Y-93114761D01*
X123356666Y-93162380D01*
X123070952Y-93162380D01*
X122975714Y-93114761D01*
X122928095Y-93067142D01*
X123975714Y-93162380D02*
X123975714Y-92162380D01*
X124070952Y-92781428D02*
X124356666Y-93162380D01*
X124356666Y-92495714D02*
X123975714Y-92876666D01*
X97147142Y-90792380D02*
X96813809Y-90316190D01*
X96575714Y-90792380D02*
X96575714Y-89792380D01*
X96956666Y-89792380D01*
X97051904Y-89840000D01*
X97099523Y-89887619D01*
X97147142Y-89982857D01*
X97147142Y-90125714D01*
X97099523Y-90220952D01*
X97051904Y-90268571D01*
X96956666Y-90316190D01*
X96575714Y-90316190D01*
X98004285Y-90125714D02*
X98004285Y-90792380D01*
X97766190Y-89744761D02*
X97528095Y-90459047D01*
X98147142Y-90459047D01*
X98718571Y-89792380D02*
X98813809Y-89792380D01*
X98909047Y-89840000D01*
X98956666Y-89887619D01*
X99004285Y-89982857D01*
X99051904Y-90173333D01*
X99051904Y-90411428D01*
X99004285Y-90601904D01*
X98956666Y-90697142D01*
X98909047Y-90744761D01*
X98813809Y-90792380D01*
X98718571Y-90792380D01*
X98623333Y-90744761D01*
X98575714Y-90697142D01*
X98528095Y-90601904D01*
X98480476Y-90411428D01*
X98480476Y-90173333D01*
X98528095Y-89982857D01*
X98575714Y-89887619D01*
X98623333Y-89840000D01*
X98718571Y-89792380D01*
X96909047Y-92162380D02*
X96432857Y-92162380D01*
X96385238Y-92638571D01*
X96432857Y-92590952D01*
X96528095Y-92543333D01*
X96766190Y-92543333D01*
X96861428Y-92590952D01*
X96909047Y-92638571D01*
X96956666Y-92733809D01*
X96956666Y-92971904D01*
X96909047Y-93067142D01*
X96861428Y-93114761D01*
X96766190Y-93162380D01*
X96528095Y-93162380D01*
X96432857Y-93114761D01*
X96385238Y-93067142D01*
X97385238Y-93067142D02*
X97432857Y-93114761D01*
X97385238Y-93162380D01*
X97337619Y-93114761D01*
X97385238Y-93067142D01*
X97385238Y-93162380D01*
X98290000Y-92162380D02*
X98099523Y-92162380D01*
X98004285Y-92210000D01*
X97956666Y-92257619D01*
X97861428Y-92400476D01*
X97813809Y-92590952D01*
X97813809Y-92971904D01*
X97861428Y-93067142D01*
X97909047Y-93114761D01*
X98004285Y-93162380D01*
X98194761Y-93162380D01*
X98290000Y-93114761D01*
X98337619Y-93067142D01*
X98385238Y-92971904D01*
X98385238Y-92733809D01*
X98337619Y-92638571D01*
X98290000Y-92590952D01*
X98194761Y-92543333D01*
X98004285Y-92543333D01*
X97909047Y-92590952D01*
X97861428Y-92638571D01*
X97813809Y-92733809D01*
X98813809Y-93162380D02*
X98813809Y-92162380D01*
X98909047Y-92781428D02*
X99194761Y-93162380D01*
X99194761Y-92495714D02*
X98813809Y-92876666D01*
X76708095Y-76287380D02*
X76708095Y-77096904D01*
X76755714Y-77192142D01*
X76803333Y-77239761D01*
X76898571Y-77287380D01*
X77089047Y-77287380D01*
X77184285Y-77239761D01*
X77231904Y-77192142D01*
X77279523Y-77096904D01*
X77279523Y-76287380D01*
X78279523Y-77287380D02*
X77708095Y-77287380D01*
X77993809Y-77287380D02*
X77993809Y-76287380D01*
X77898571Y-76430238D01*
X77803333Y-76525476D01*
X77708095Y-76573095D01*
X75398571Y-89098380D02*
X74922380Y-89098380D01*
X74922380Y-88098380D01*
X76065238Y-88574571D02*
X75731904Y-88574571D01*
X75731904Y-89098380D02*
X75731904Y-88098380D01*
X76208095Y-88098380D01*
X76493809Y-88098380D02*
X77112857Y-88098380D01*
X76779523Y-88479333D01*
X76922380Y-88479333D01*
X77017619Y-88526952D01*
X77065238Y-88574571D01*
X77112857Y-88669809D01*
X77112857Y-88907904D01*
X77065238Y-89003142D01*
X77017619Y-89050761D01*
X76922380Y-89098380D01*
X76636666Y-89098380D01*
X76541428Y-89050761D01*
X76493809Y-89003142D01*
X78017619Y-88098380D02*
X77541428Y-88098380D01*
X77493809Y-88574571D01*
X77541428Y-88526952D01*
X77636666Y-88479333D01*
X77874761Y-88479333D01*
X77970000Y-88526952D01*
X78017619Y-88574571D01*
X78065238Y-88669809D01*
X78065238Y-88907904D01*
X78017619Y-89003142D01*
X77970000Y-89050761D01*
X77874761Y-89098380D01*
X77636666Y-89098380D01*
X77541428Y-89050761D01*
X77493809Y-89003142D01*
X78398571Y-88098380D02*
X79017619Y-88098380D01*
X78684285Y-88479333D01*
X78827142Y-88479333D01*
X78922380Y-88526952D01*
X78970000Y-88574571D01*
X79017619Y-88669809D01*
X79017619Y-88907904D01*
X78970000Y-89003142D01*
X78922380Y-89050761D01*
X78827142Y-89098380D01*
X78541428Y-89098380D01*
X78446190Y-89050761D01*
X78398571Y-89003142D01*
X79446190Y-89098380D02*
X79446190Y-88098380D01*
X80017619Y-89098380D01*
X80017619Y-88098380D01*
X97028095Y-76287380D02*
X97028095Y-77096904D01*
X97075714Y-77192142D01*
X97123333Y-77239761D01*
X97218571Y-77287380D01*
X97409047Y-77287380D01*
X97504285Y-77239761D01*
X97551904Y-77192142D01*
X97599523Y-77096904D01*
X97599523Y-76287380D01*
X98028095Y-76382619D02*
X98075714Y-76335000D01*
X98170952Y-76287380D01*
X98409047Y-76287380D01*
X98504285Y-76335000D01*
X98551904Y-76382619D01*
X98599523Y-76477857D01*
X98599523Y-76573095D01*
X98551904Y-76715952D01*
X97980476Y-77287380D01*
X98599523Y-77287380D01*
X95718571Y-89098380D02*
X95242380Y-89098380D01*
X95242380Y-88098380D01*
X96385238Y-88574571D02*
X96051904Y-88574571D01*
X96051904Y-89098380D02*
X96051904Y-88098380D01*
X96528095Y-88098380D01*
X96813809Y-88098380D02*
X97432857Y-88098380D01*
X97099523Y-88479333D01*
X97242380Y-88479333D01*
X97337619Y-88526952D01*
X97385238Y-88574571D01*
X97432857Y-88669809D01*
X97432857Y-88907904D01*
X97385238Y-89003142D01*
X97337619Y-89050761D01*
X97242380Y-89098380D01*
X96956666Y-89098380D01*
X96861428Y-89050761D01*
X96813809Y-89003142D01*
X98337619Y-88098380D02*
X97861428Y-88098380D01*
X97813809Y-88574571D01*
X97861428Y-88526952D01*
X97956666Y-88479333D01*
X98194761Y-88479333D01*
X98290000Y-88526952D01*
X98337619Y-88574571D01*
X98385238Y-88669809D01*
X98385238Y-88907904D01*
X98337619Y-89003142D01*
X98290000Y-89050761D01*
X98194761Y-89098380D01*
X97956666Y-89098380D01*
X97861428Y-89050761D01*
X97813809Y-89003142D01*
X98718571Y-88098380D02*
X99337619Y-88098380D01*
X99004285Y-88479333D01*
X99147142Y-88479333D01*
X99242380Y-88526952D01*
X99290000Y-88574571D01*
X99337619Y-88669809D01*
X99337619Y-88907904D01*
X99290000Y-89003142D01*
X99242380Y-89050761D01*
X99147142Y-89098380D01*
X98861428Y-89098380D01*
X98766190Y-89050761D01*
X98718571Y-89003142D01*
X99766190Y-89098380D02*
X99766190Y-88098380D01*
X100337619Y-89098380D01*
X100337619Y-88098380D01*
X114808095Y-75862380D02*
X114808095Y-76671904D01*
X114855714Y-76767142D01*
X114903333Y-76814761D01*
X114998571Y-76862380D01*
X115189047Y-76862380D01*
X115284285Y-76814761D01*
X115331904Y-76767142D01*
X115379523Y-76671904D01*
X115379523Y-75862380D01*
X115760476Y-75862380D02*
X116379523Y-75862380D01*
X116046190Y-76243333D01*
X116189047Y-76243333D01*
X116284285Y-76290952D01*
X116331904Y-76338571D01*
X116379523Y-76433809D01*
X116379523Y-76671904D01*
X116331904Y-76767142D01*
X116284285Y-76814761D01*
X116189047Y-76862380D01*
X115903333Y-76862380D01*
X115808095Y-76814761D01*
X115760476Y-76767142D01*
X113498571Y-89098380D02*
X113022380Y-89098380D01*
X113022380Y-88098380D01*
X114165238Y-88574571D02*
X113831904Y-88574571D01*
X113831904Y-89098380D02*
X113831904Y-88098380D01*
X114308095Y-88098380D01*
X114593809Y-88098380D02*
X115212857Y-88098380D01*
X114879523Y-88479333D01*
X115022380Y-88479333D01*
X115117619Y-88526952D01*
X115165238Y-88574571D01*
X115212857Y-88669809D01*
X115212857Y-88907904D01*
X115165238Y-89003142D01*
X115117619Y-89050761D01*
X115022380Y-89098380D01*
X114736666Y-89098380D01*
X114641428Y-89050761D01*
X114593809Y-89003142D01*
X116117619Y-88098380D02*
X115641428Y-88098380D01*
X115593809Y-88574571D01*
X115641428Y-88526952D01*
X115736666Y-88479333D01*
X115974761Y-88479333D01*
X116070000Y-88526952D01*
X116117619Y-88574571D01*
X116165238Y-88669809D01*
X116165238Y-88907904D01*
X116117619Y-89003142D01*
X116070000Y-89050761D01*
X115974761Y-89098380D01*
X115736666Y-89098380D01*
X115641428Y-89050761D01*
X115593809Y-89003142D01*
X116498571Y-88098380D02*
X117117619Y-88098380D01*
X116784285Y-88479333D01*
X116927142Y-88479333D01*
X117022380Y-88526952D01*
X117070000Y-88574571D01*
X117117619Y-88669809D01*
X117117619Y-88907904D01*
X117070000Y-89003142D01*
X117022380Y-89050761D01*
X116927142Y-89098380D01*
X116641428Y-89098380D01*
X116546190Y-89050761D01*
X116498571Y-89003142D01*
X117546190Y-89098380D02*
X117546190Y-88098380D01*
X118117619Y-89098380D01*
X118117619Y-88098380D01*
X147828095Y-75862380D02*
X147828095Y-76671904D01*
X147875714Y-76767142D01*
X147923333Y-76814761D01*
X148018571Y-76862380D01*
X148209047Y-76862380D01*
X148304285Y-76814761D01*
X148351904Y-76767142D01*
X148399523Y-76671904D01*
X148399523Y-75862380D01*
X149304285Y-76195714D02*
X149304285Y-76862380D01*
X149066190Y-75814761D02*
X148828095Y-76529047D01*
X149447142Y-76529047D01*
X146518571Y-89098380D02*
X146042380Y-89098380D01*
X146042380Y-88098380D01*
X147185238Y-88574571D02*
X146851904Y-88574571D01*
X146851904Y-89098380D02*
X146851904Y-88098380D01*
X147328095Y-88098380D01*
X147613809Y-88098380D02*
X148232857Y-88098380D01*
X147899523Y-88479333D01*
X148042380Y-88479333D01*
X148137619Y-88526952D01*
X148185238Y-88574571D01*
X148232857Y-88669809D01*
X148232857Y-88907904D01*
X148185238Y-89003142D01*
X148137619Y-89050761D01*
X148042380Y-89098380D01*
X147756666Y-89098380D01*
X147661428Y-89050761D01*
X147613809Y-89003142D01*
X149137619Y-88098380D02*
X148661428Y-88098380D01*
X148613809Y-88574571D01*
X148661428Y-88526952D01*
X148756666Y-88479333D01*
X148994761Y-88479333D01*
X149090000Y-88526952D01*
X149137619Y-88574571D01*
X149185238Y-88669809D01*
X149185238Y-88907904D01*
X149137619Y-89003142D01*
X149090000Y-89050761D01*
X148994761Y-89098380D01*
X148756666Y-89098380D01*
X148661428Y-89050761D01*
X148613809Y-89003142D01*
X149518571Y-88098380D02*
X150137619Y-88098380D01*
X149804285Y-88479333D01*
X149947142Y-88479333D01*
X150042380Y-88526952D01*
X150090000Y-88574571D01*
X150137619Y-88669809D01*
X150137619Y-88907904D01*
X150090000Y-89003142D01*
X150042380Y-89050761D01*
X149947142Y-89098380D01*
X149661428Y-89098380D01*
X149566190Y-89050761D01*
X149518571Y-89003142D01*
X150566190Y-89098380D02*
X150566190Y-88098380D01*
X151137619Y-89098380D01*
X151137619Y-88098380D01*
X56856333Y-63571380D02*
X56523000Y-63095190D01*
X56284904Y-63571380D02*
X56284904Y-62571380D01*
X56665857Y-62571380D01*
X56761095Y-62619000D01*
X56808714Y-62666619D01*
X56856333Y-62761857D01*
X56856333Y-62904714D01*
X56808714Y-62999952D01*
X56761095Y-63047571D01*
X56665857Y-63095190D01*
X56284904Y-63095190D01*
X57427761Y-62999952D02*
X57332523Y-62952333D01*
X57284904Y-62904714D01*
X57237285Y-62809476D01*
X57237285Y-62761857D01*
X57284904Y-62666619D01*
X57332523Y-62619000D01*
X57427761Y-62571380D01*
X57618238Y-62571380D01*
X57713476Y-62619000D01*
X57761095Y-62666619D01*
X57808714Y-62761857D01*
X57808714Y-62809476D01*
X57761095Y-62904714D01*
X57713476Y-62952333D01*
X57618238Y-62999952D01*
X57427761Y-62999952D01*
X57332523Y-63047571D01*
X57284904Y-63095190D01*
X57237285Y-63190428D01*
X57237285Y-63380904D01*
X57284904Y-63476142D01*
X57332523Y-63523761D01*
X57427761Y-63571380D01*
X57618238Y-63571380D01*
X57713476Y-63523761D01*
X57761095Y-63476142D01*
X57808714Y-63380904D01*
X57808714Y-63190428D01*
X57761095Y-63095190D01*
X57713476Y-63047571D01*
X57618238Y-62999952D01*
X56554761Y-65730380D02*
X55983333Y-65730380D01*
X56269047Y-65730380D02*
X56269047Y-64730380D01*
X56173809Y-64873238D01*
X56078571Y-64968476D01*
X55983333Y-65016095D01*
X56935714Y-64825619D02*
X56983333Y-64778000D01*
X57078571Y-64730380D01*
X57316666Y-64730380D01*
X57411904Y-64778000D01*
X57459523Y-64825619D01*
X57507142Y-64920857D01*
X57507142Y-65016095D01*
X57459523Y-65158952D01*
X56888095Y-65730380D01*
X57507142Y-65730380D01*
X57935714Y-65730380D02*
X57935714Y-64730380D01*
X58030952Y-65349428D02*
X58316666Y-65730380D01*
X58316666Y-65063714D02*
X57935714Y-65444666D01*
M02*
