G04 #@! TF.GenerationSoftware,KiCad,Pcbnew,(5.0.2-5-10.14)*
G04 #@! TF.CreationDate,2019-03-15T18:51:59-07:00*
G04 #@! TF.ProjectId,Pre-amp,5072652d-616d-4702-9e6b-696361645f70,rev?*
G04 #@! TF.SameCoordinates,Original*
G04 #@! TF.FileFunction,Other,User*
%FSLAX46Y46*%
G04 Gerber Fmt 4.6, Leading zero omitted, Abs format (unit mm)*
G04 Created by KiCad (PCBNEW (5.0.2-5-10.14)) date Friday, March 15, 2019 at 06:51:59 PM*
%MOMM*%
%LPD*%
G01*
G04 APERTURE LIST*
%ADD10C,0.050000*%
G04 APERTURE END LIST*
D10*
G04 #@! TO.C,C1*
X64490000Y-93760000D02*
X67590000Y-93760000D01*
X67590000Y-93760000D02*
X67590000Y-89160000D01*
X67590000Y-89160000D02*
X64490000Y-89160000D01*
X64490000Y-89160000D02*
X64490000Y-93760000D01*
G04 #@! TO.C,C2*
X56870000Y-93760000D02*
X59970000Y-93760000D01*
X59970000Y-93760000D02*
X59970000Y-89160000D01*
X59970000Y-89160000D02*
X56870000Y-89160000D01*
X56870000Y-89160000D02*
X56870000Y-93760000D01*
G04 #@! TO.C,C3*
X68290000Y-74180000D02*
G75*
G03X68290000Y-74180000I-2250000J0D01*
G01*
G04 #@! TO.C,C4*
X56870000Y-53080000D02*
X59970000Y-53080000D01*
X59970000Y-53080000D02*
X59970000Y-48480000D01*
X59970000Y-48480000D02*
X56870000Y-48480000D01*
X56870000Y-48480000D02*
X56870000Y-53080000D01*
G04 #@! TO.C,C5*
X64490000Y-64990000D02*
X64490000Y-69590000D01*
X67590000Y-64990000D02*
X64490000Y-64990000D01*
X67590000Y-69590000D02*
X67590000Y-64990000D01*
X64490000Y-69590000D02*
X67590000Y-69590000D01*
G04 #@! TO.C,C6*
X60680000Y-49790000D02*
X60680000Y-54390000D01*
X63780000Y-49790000D02*
X60680000Y-49790000D01*
X63780000Y-54390000D02*
X63780000Y-49790000D01*
X60680000Y-54390000D02*
X63780000Y-54390000D01*
G04 #@! TO.C,C7*
X92490000Y-58700000D02*
X92490000Y-55600000D01*
X92490000Y-55600000D02*
X87890000Y-55600000D01*
X87890000Y-55600000D02*
X87890000Y-58700000D01*
X87890000Y-58700000D02*
X92490000Y-58700000D01*
G04 #@! TO.C,C8*
X82830000Y-54350000D02*
X82830000Y-49750000D01*
X79730000Y-54350000D02*
X82830000Y-54350000D01*
X79730000Y-49750000D02*
X79730000Y-54350000D01*
X82830000Y-49750000D02*
X79730000Y-49750000D01*
G04 #@! TO.C,C9*
X109480000Y-58700000D02*
X114080000Y-58700000D01*
X109480000Y-55600000D02*
X109480000Y-58700000D01*
X114080000Y-55600000D02*
X109480000Y-55600000D01*
X114080000Y-58700000D02*
X114080000Y-55600000D01*
G04 #@! TO.C,C10*
X104420000Y-57410000D02*
X101320000Y-57410000D01*
X101320000Y-57410000D02*
X101320000Y-62010000D01*
X101320000Y-62010000D02*
X104420000Y-62010000D01*
X104420000Y-62010000D02*
X104420000Y-57410000D01*
G04 #@! TO.C,C11*
X133610000Y-58700000D02*
X138210000Y-58700000D01*
X133610000Y-55600000D02*
X133610000Y-58700000D01*
X138210000Y-55600000D02*
X133610000Y-55600000D01*
X138210000Y-58700000D02*
X138210000Y-55600000D01*
G04 #@! TO.C,C12*
X124740000Y-49750000D02*
X121640000Y-49750000D01*
X121640000Y-49750000D02*
X121640000Y-54350000D01*
X121640000Y-54350000D02*
X124740000Y-54350000D01*
X124740000Y-54350000D02*
X124740000Y-49750000D01*
G04 #@! TO.C,C13*
X155990000Y-58700000D02*
X155990000Y-55600000D01*
X155990000Y-55600000D02*
X151390000Y-55600000D01*
X151390000Y-55600000D02*
X151390000Y-58700000D01*
X151390000Y-58700000D02*
X155990000Y-58700000D01*
G04 #@! TO.C,C14*
X145060000Y-54350000D02*
X145060000Y-49750000D01*
X141960000Y-54350000D02*
X145060000Y-54350000D01*
X141960000Y-49750000D02*
X141960000Y-54350000D01*
X145060000Y-49750000D02*
X141960000Y-49750000D01*
G04 #@! TO.C,C15*
X115350000Y-94260000D02*
X115350000Y-91160000D01*
X115350000Y-91160000D02*
X110750000Y-91160000D01*
X110750000Y-91160000D02*
X110750000Y-94260000D01*
X110750000Y-94260000D02*
X115350000Y-94260000D01*
G04 #@! TO.C,C16*
X138210000Y-91160000D02*
X133610000Y-91160000D01*
X138210000Y-94260000D02*
X138210000Y-91160000D01*
X133610000Y-94260000D02*
X138210000Y-94260000D01*
X133610000Y-91160000D02*
X133610000Y-94260000D01*
G04 #@! TO.C,D1*
X72410000Y-90390000D02*
X72410000Y-100110000D01*
X74910000Y-90390000D02*
X72410000Y-90390000D01*
X74910000Y-100110000D02*
X74910000Y-90390000D01*
X72410000Y-100110000D02*
X74910000Y-100110000D01*
G04 #@! TO.C,D2*
X67090000Y-96540000D02*
X57370000Y-96540000D01*
X67090000Y-99040000D02*
X67090000Y-96540000D01*
X57370000Y-99040000D02*
X67090000Y-99040000D01*
X57370000Y-96540000D02*
X57370000Y-99040000D01*
G04 #@! TO.C,D3*
X162540000Y-84040000D02*
X160040000Y-84040000D01*
X160040000Y-84040000D02*
X160040000Y-93760000D01*
X160040000Y-93760000D02*
X162540000Y-93760000D01*
X162540000Y-93760000D02*
X162540000Y-84040000D01*
G04 #@! TO.C,D4*
X162540000Y-72610000D02*
X160040000Y-72610000D01*
X160040000Y-72610000D02*
X160040000Y-82330000D01*
X160040000Y-82330000D02*
X162540000Y-82330000D01*
X162540000Y-82330000D02*
X162540000Y-72610000D01*
G04 #@! TO.C,H1*
X55490000Y-99060000D02*
G75*
G03X55490000Y-99060000I-2150000J0D01*
G01*
G04 #@! TO.C,H2*
X55490000Y-50800000D02*
G75*
G03X55490000Y-50800000I-2150000J0D01*
G01*
G04 #@! TO.C,H3*
X163440000Y-50800000D02*
G75*
G03X163440000Y-50800000I-2150000J0D01*
G01*
G04 #@! TO.C,H4*
X163440000Y-99060000D02*
G75*
G03X163440000Y-99060000I-2150000J0D01*
G01*
G04 #@! TO.C,J1*
X54840000Y-84670000D02*
X51840000Y-84670000D01*
X54840000Y-91670000D02*
X54840000Y-84670000D01*
X51840000Y-91670000D02*
X54840000Y-91670000D01*
X51840000Y-84670000D02*
X51840000Y-91670000D01*
G04 #@! TO.C,J2*
X101830000Y-97560000D02*
X94830000Y-97560000D01*
X94830000Y-97560000D02*
X94830000Y-100560000D01*
X94830000Y-100560000D02*
X101830000Y-100560000D01*
X101830000Y-100560000D02*
X101830000Y-97560000D01*
G04 #@! TO.C,J3*
X114530000Y-97560000D02*
X107530000Y-97560000D01*
X107530000Y-97560000D02*
X107530000Y-100560000D01*
X107530000Y-100560000D02*
X114530000Y-100560000D01*
X114530000Y-100560000D02*
X114530000Y-97560000D01*
G04 #@! TO.C,J4*
X126150000Y-97560000D02*
X119150000Y-97560000D01*
X119150000Y-97560000D02*
X119150000Y-100560000D01*
X119150000Y-100560000D02*
X126150000Y-100560000D01*
X126150000Y-100560000D02*
X126150000Y-97560000D01*
G04 #@! TO.C,J5*
X137390000Y-100560000D02*
X137390000Y-97560000D01*
X130390000Y-100560000D02*
X137390000Y-100560000D01*
X130390000Y-97560000D02*
X130390000Y-100560000D01*
X137390000Y-97560000D02*
X130390000Y-97560000D01*
G04 #@! TO.C,R1*
X56100000Y-87860000D02*
X65820000Y-87860000D01*
X56100000Y-84860000D02*
X56100000Y-87860000D01*
X65820000Y-84860000D02*
X56100000Y-84860000D01*
X65820000Y-87860000D02*
X65820000Y-84860000D01*
G04 #@! TO.C,R2*
X62010000Y-81510000D02*
X62010000Y-78510000D01*
X62010000Y-78510000D02*
X52290000Y-78510000D01*
X52290000Y-78510000D02*
X52290000Y-81510000D01*
X52290000Y-81510000D02*
X62010000Y-81510000D01*
G04 #@! TO.C,R3*
X84860000Y-100110000D02*
X87860000Y-100110000D01*
X87860000Y-100110000D02*
X87860000Y-90390000D01*
X87860000Y-90390000D02*
X84860000Y-90390000D01*
X84860000Y-90390000D02*
X84860000Y-100110000D01*
G04 #@! TO.C,R4*
X78510000Y-100110000D02*
X81510000Y-100110000D01*
X81510000Y-100110000D02*
X81510000Y-90390000D01*
X81510000Y-90390000D02*
X78510000Y-90390000D01*
X78510000Y-90390000D02*
X78510000Y-100110000D01*
G04 #@! TO.C,R5*
X67080000Y-77690000D02*
X67080000Y-87410000D01*
X70080000Y-77690000D02*
X67080000Y-77690000D01*
X70080000Y-87410000D02*
X70080000Y-77690000D01*
X67080000Y-87410000D02*
X70080000Y-87410000D01*
G04 #@! TO.C,R6*
X62010000Y-65810000D02*
X52290000Y-65810000D01*
X62010000Y-68810000D02*
X62010000Y-65810000D01*
X52290000Y-68810000D02*
X62010000Y-68810000D01*
X52290000Y-65810000D02*
X52290000Y-68810000D01*
G04 #@! TO.C,R7*
X62010000Y-72160000D02*
X52290000Y-72160000D01*
X62010000Y-75160000D02*
X62010000Y-72160000D01*
X52290000Y-75160000D02*
X62010000Y-75160000D01*
X52290000Y-72160000D02*
X52290000Y-75160000D01*
G04 #@! TO.C,R9*
X62010000Y-55650000D02*
X52290000Y-55650000D01*
X62010000Y-58650000D02*
X62010000Y-55650000D01*
X52290000Y-58650000D02*
X62010000Y-58650000D01*
X52290000Y-55650000D02*
X52290000Y-58650000D01*
G04 #@! TO.C,R10*
X64990000Y-60730000D02*
X64990000Y-63730000D01*
X64990000Y-63730000D02*
X74710000Y-63730000D01*
X74710000Y-63730000D02*
X74710000Y-60730000D01*
X74710000Y-60730000D02*
X64990000Y-60730000D01*
G04 #@! TO.C,R11*
X74710000Y-59920000D02*
X74710000Y-56920000D01*
X74710000Y-56920000D02*
X64990000Y-56920000D01*
X64990000Y-56920000D02*
X64990000Y-59920000D01*
X64990000Y-59920000D02*
X74710000Y-59920000D01*
G04 #@! TO.C,R12*
X71340000Y-65810000D02*
X71340000Y-68810000D01*
X71340000Y-68810000D02*
X81060000Y-68810000D01*
X81060000Y-68810000D02*
X81060000Y-65810000D01*
X81060000Y-65810000D02*
X71340000Y-65810000D01*
G04 #@! TO.C,R13*
X87860000Y-88680000D02*
X87860000Y-78960000D01*
X84860000Y-88680000D02*
X87860000Y-88680000D01*
X84860000Y-78960000D02*
X84860000Y-88680000D01*
X87860000Y-78960000D02*
X84860000Y-78960000D01*
G04 #@! TO.C,R14*
X76420000Y-60730000D02*
X76420000Y-63730000D01*
X76420000Y-63730000D02*
X86140000Y-63730000D01*
X86140000Y-63730000D02*
X86140000Y-60730000D01*
X86140000Y-60730000D02*
X76420000Y-60730000D01*
G04 #@! TO.C,R15*
X86140000Y-59920000D02*
X86140000Y-56920000D01*
X86140000Y-56920000D02*
X76420000Y-56920000D01*
X76420000Y-56920000D02*
X76420000Y-59920000D01*
X76420000Y-59920000D02*
X86140000Y-59920000D01*
G04 #@! TO.C,R16*
X81060000Y-73890000D02*
X81060000Y-70890000D01*
X81060000Y-70890000D02*
X71340000Y-70890000D01*
X71340000Y-70890000D02*
X71340000Y-73890000D01*
X71340000Y-73890000D02*
X81060000Y-73890000D01*
G04 #@! TO.C,R17*
X81500000Y-73890000D02*
X91220000Y-73890000D01*
X81500000Y-70890000D02*
X81500000Y-73890000D01*
X91220000Y-70890000D02*
X81500000Y-70890000D01*
X91220000Y-73890000D02*
X91220000Y-70890000D01*
G04 #@! TO.C,R18*
X91220000Y-65810000D02*
X81500000Y-65810000D01*
X91220000Y-68810000D02*
X91220000Y-65810000D01*
X81500000Y-68810000D02*
X91220000Y-68810000D01*
X81500000Y-65810000D02*
X81500000Y-68810000D01*
G04 #@! TO.C,R19*
X92480000Y-58640000D02*
X92480000Y-68360000D01*
X95480000Y-58640000D02*
X92480000Y-58640000D01*
X95480000Y-68360000D02*
X95480000Y-58640000D01*
X92480000Y-68360000D02*
X95480000Y-68360000D01*
G04 #@! TO.C,R20*
X97560000Y-58640000D02*
X97560000Y-68360000D01*
X100560000Y-58640000D02*
X97560000Y-58640000D01*
X100560000Y-68360000D02*
X100560000Y-58640000D01*
X97560000Y-68360000D02*
X100560000Y-68360000D01*
G04 #@! TO.C,R21*
X105180000Y-68360000D02*
X108180000Y-68360000D01*
X108180000Y-68360000D02*
X108180000Y-58640000D01*
X108180000Y-58640000D02*
X105180000Y-58640000D01*
X105180000Y-58640000D02*
X105180000Y-68360000D01*
G04 #@! TO.C,R22*
X102650000Y-73890000D02*
X102650000Y-70890000D01*
X102650000Y-70890000D02*
X92930000Y-70890000D01*
X92930000Y-70890000D02*
X92930000Y-73890000D01*
X92930000Y-73890000D02*
X102650000Y-73890000D01*
G04 #@! TO.C,R23*
X114070000Y-58640000D02*
X114070000Y-68360000D01*
X117070000Y-58640000D02*
X114070000Y-58640000D01*
X117070000Y-68360000D02*
X117070000Y-58640000D01*
X114070000Y-68360000D02*
X117070000Y-68360000D01*
G04 #@! TO.C,R24*
X103090000Y-73890000D02*
X112810000Y-73890000D01*
X103090000Y-70890000D02*
X103090000Y-73890000D01*
X112810000Y-70890000D02*
X103090000Y-70890000D01*
X112810000Y-73890000D02*
X112810000Y-70890000D01*
G04 #@! TO.C,R25*
X120420000Y-68360000D02*
X123420000Y-68360000D01*
X123420000Y-68360000D02*
X123420000Y-58640000D01*
X123420000Y-58640000D02*
X120420000Y-58640000D01*
X120420000Y-58640000D02*
X120420000Y-68360000D01*
G04 #@! TO.C,R26*
X133580000Y-58640000D02*
X130580000Y-58640000D01*
X130580000Y-58640000D02*
X130580000Y-68360000D01*
X130580000Y-68360000D02*
X133580000Y-68360000D01*
X133580000Y-68360000D02*
X133580000Y-58640000D01*
G04 #@! TO.C,R27*
X124240000Y-73890000D02*
X124240000Y-70890000D01*
X124240000Y-70890000D02*
X114520000Y-70890000D01*
X114520000Y-70890000D02*
X114520000Y-73890000D01*
X114520000Y-73890000D02*
X124240000Y-73890000D01*
G04 #@! TO.C,R28*
X125950000Y-73890000D02*
X135670000Y-73890000D01*
X125950000Y-70890000D02*
X125950000Y-73890000D01*
X135670000Y-70890000D02*
X125950000Y-70890000D01*
X135670000Y-73890000D02*
X135670000Y-70890000D01*
G04 #@! TO.C,R29*
X138200000Y-58640000D02*
X138200000Y-68360000D01*
X141200000Y-58640000D02*
X138200000Y-58640000D01*
X141200000Y-68360000D02*
X141200000Y-58640000D01*
X138200000Y-68360000D02*
X141200000Y-68360000D01*
G04 #@! TO.C,R30*
X128500000Y-87410000D02*
X128500000Y-77690000D01*
X125500000Y-87410000D02*
X128500000Y-87410000D01*
X125500000Y-77690000D02*
X125500000Y-87410000D01*
X128500000Y-77690000D02*
X125500000Y-77690000D01*
G04 #@! TO.C,R31*
X151360000Y-58640000D02*
X148360000Y-58640000D01*
X148360000Y-58640000D02*
X148360000Y-68360000D01*
X148360000Y-68360000D02*
X151360000Y-68360000D01*
X151360000Y-68360000D02*
X151360000Y-58640000D01*
G04 #@! TO.C,R32*
X134850000Y-87410000D02*
X134850000Y-77690000D01*
X131850000Y-87410000D02*
X134850000Y-87410000D01*
X131850000Y-77690000D02*
X131850000Y-87410000D01*
X134850000Y-77690000D02*
X131850000Y-77690000D01*
G04 #@! TO.C,R33*
X147100000Y-73890000D02*
X147100000Y-70890000D01*
X147100000Y-70890000D02*
X137380000Y-70890000D01*
X137380000Y-70890000D02*
X137380000Y-73890000D01*
X137380000Y-73890000D02*
X147100000Y-73890000D01*
G04 #@! TO.C,R34*
X136930000Y-87410000D02*
X139930000Y-87410000D01*
X139930000Y-87410000D02*
X139930000Y-77690000D01*
X139930000Y-77690000D02*
X136930000Y-77690000D01*
X136930000Y-77690000D02*
X136930000Y-87410000D01*
G04 #@! TO.C,R35*
X155980000Y-58640000D02*
X155980000Y-68360000D01*
X158980000Y-58640000D02*
X155980000Y-58640000D01*
X158980000Y-68360000D02*
X158980000Y-58640000D01*
X155980000Y-68360000D02*
X158980000Y-68360000D01*
G04 #@! TO.C,R36*
X148810000Y-73890000D02*
X158530000Y-73890000D01*
X148810000Y-70890000D02*
X148810000Y-73890000D01*
X158530000Y-70890000D02*
X148810000Y-70890000D01*
X158530000Y-73890000D02*
X158530000Y-70890000D01*
G04 #@! TO.C,R37*
X154720000Y-95480000D02*
X154720000Y-92480000D01*
X154720000Y-92480000D02*
X145000000Y-92480000D01*
X145000000Y-92480000D02*
X145000000Y-95480000D01*
X145000000Y-95480000D02*
X154720000Y-95480000D01*
G04 #@! TO.C,R38*
X154720000Y-97560000D02*
X145000000Y-97560000D01*
X154720000Y-100560000D02*
X154720000Y-97560000D01*
X145000000Y-100560000D02*
X154720000Y-100560000D01*
X145000000Y-97560000D02*
X145000000Y-100560000D01*
G04 #@! TO.C,R39*
X128050000Y-94210000D02*
X128050000Y-91210000D01*
X128050000Y-91210000D02*
X118330000Y-91210000D01*
X118330000Y-91210000D02*
X118330000Y-94210000D01*
X118330000Y-94210000D02*
X128050000Y-94210000D01*
G04 #@! TO.C,R40*
X102650000Y-91210000D02*
X92930000Y-91210000D01*
X102650000Y-94210000D02*
X102650000Y-91210000D01*
X92930000Y-94210000D02*
X102650000Y-94210000D01*
X92930000Y-91210000D02*
X92930000Y-94210000D01*
G04 #@! TO.C,U1*
X82760000Y-77190000D02*
X72210000Y-77190000D01*
X82760000Y-87890000D02*
X82760000Y-77190000D01*
X72210000Y-87890000D02*
X82760000Y-87890000D01*
X72210000Y-77190000D02*
X72210000Y-87890000D01*
G04 #@! TO.C,U2*
X92530000Y-77190000D02*
X92530000Y-87890000D01*
X92530000Y-87890000D02*
X103080000Y-87890000D01*
X103080000Y-87890000D02*
X103080000Y-77190000D01*
X103080000Y-77190000D02*
X92530000Y-77190000D01*
G04 #@! TO.C,U3*
X120860000Y-77190000D02*
X110310000Y-77190000D01*
X120860000Y-87890000D02*
X120860000Y-77190000D01*
X110310000Y-87890000D02*
X120860000Y-87890000D01*
X110310000Y-77190000D02*
X110310000Y-87890000D01*
G04 #@! TO.C,U4*
X143330000Y-77190000D02*
X143330000Y-87890000D01*
X143330000Y-87890000D02*
X153880000Y-87890000D01*
X153880000Y-87890000D02*
X153880000Y-77190000D01*
X153880000Y-77190000D02*
X143330000Y-77190000D01*
G04 #@! TO.C,R8*
X62010000Y-63730000D02*
X62010000Y-60730000D01*
X62010000Y-60730000D02*
X52290000Y-60730000D01*
X52290000Y-60730000D02*
X52290000Y-63730000D01*
X52290000Y-63730000D02*
X62010000Y-63730000D01*
G04 #@! TD*
M02*
