G04 #@! TF.GenerationSoftware,KiCad,Pcbnew,(5.0.2-5-10.14)*
G04 #@! TF.CreationDate,2019-03-15T18:51:59-07:00*
G04 #@! TF.ProjectId,Pre-amp,5072652d-616d-4702-9e6b-696361645f70,rev?*
G04 #@! TF.SameCoordinates,Original*
G04 #@! TF.FileFunction,Copper,L2,Bot*
G04 #@! TF.FilePolarity,Positive*
%FSLAX46Y46*%
G04 Gerber Fmt 4.6, Leading zero omitted, Abs format (unit mm)*
G04 Created by KiCad (PCBNEW (5.0.2-5-10.14)) date Friday, March 15, 2019 at 06:51:59 PM*
%MOMM*%
%LPD*%
G01*
G04 APERTURE LIST*
G04 #@! TA.AperFunction,ComponentPad*
%ADD10C,1.600000*%
G04 #@! TD*
G04 #@! TA.AperFunction,ComponentPad*
%ADD11R,1.200000X1.200000*%
G04 #@! TD*
G04 #@! TA.AperFunction,ComponentPad*
%ADD12C,1.200000*%
G04 #@! TD*
G04 #@! TA.AperFunction,ComponentPad*
%ADD13O,1.600000X1.600000*%
G04 #@! TD*
G04 #@! TA.AperFunction,ComponentPad*
%ADD14R,1.600000X1.600000*%
G04 #@! TD*
G04 #@! TA.AperFunction,ComponentPad*
%ADD15C,3.800000*%
G04 #@! TD*
G04 #@! TA.AperFunction,ComponentPad*
%ADD16O,1.350000X1.350000*%
G04 #@! TD*
G04 #@! TA.AperFunction,ComponentPad*
%ADD17R,1.350000X1.350000*%
G04 #@! TD*
G04 #@! TA.AperFunction,ComponentPad*
%ADD18C,2.340000*%
G04 #@! TD*
G04 #@! TA.AperFunction,ComponentPad*
%ADD19O,2.400000X1.600000*%
G04 #@! TD*
G04 #@! TA.AperFunction,ComponentPad*
%ADD20R,2.400000X1.600000*%
G04 #@! TD*
G04 #@! TA.AperFunction,Conductor*
%ADD21C,0.250000*%
G04 #@! TD*
G04 #@! TA.AperFunction,Conductor*
%ADD22C,0.254000*%
G04 #@! TD*
G04 APERTURE END LIST*
D10*
G04 #@! TO.P,C1,1*
G04 #@! TO.N,Net-(C1-Pad1)*
X66040000Y-92710000D03*
G04 #@! TO.P,C1,2*
G04 #@! TO.N,Net-(C1-Pad2)*
X66040000Y-90210000D03*
G04 #@! TD*
G04 #@! TO.P,C2,1*
G04 #@! TO.N,GND*
X58420000Y-92710000D03*
G04 #@! TO.P,C2,2*
G04 #@! TO.N,Net-(C1-Pad1)*
X58420000Y-90210000D03*
G04 #@! TD*
D11*
G04 #@! TO.P,C3,1*
G04 #@! TO.N,Net-(C3-Pad1)*
X66040000Y-73430000D03*
D12*
G04 #@! TO.P,C3,2*
G04 #@! TO.N,Net-(C3-Pad2)*
X66040000Y-74930000D03*
G04 #@! TD*
D10*
G04 #@! TO.P,C4,1*
G04 #@! TO.N,Net-(C4-Pad1)*
X58420000Y-52030000D03*
G04 #@! TO.P,C4,2*
G04 #@! TO.N,GND*
X58420000Y-49530000D03*
G04 #@! TD*
G04 #@! TO.P,C5,2*
G04 #@! TO.N,Net-(C5-Pad2)*
X66040000Y-66040000D03*
G04 #@! TO.P,C5,1*
G04 #@! TO.N,Net-(C5-Pad1)*
X66040000Y-68540000D03*
G04 #@! TD*
G04 #@! TO.P,C6,2*
G04 #@! TO.N,Net-(C6-Pad2)*
X62230000Y-50840000D03*
G04 #@! TO.P,C6,1*
G04 #@! TO.N,Net-(C6-Pad1)*
X62230000Y-53340000D03*
G04 #@! TD*
G04 #@! TO.P,C7,1*
G04 #@! TO.N,Net-(C7-Pad1)*
X91440000Y-57150000D03*
G04 #@! TO.P,C7,2*
G04 #@! TO.N,Net-(C7-Pad2)*
X88940000Y-57150000D03*
G04 #@! TD*
G04 #@! TO.P,C8,2*
G04 #@! TO.N,Net-(C8-Pad2)*
X81280000Y-53300000D03*
G04 #@! TO.P,C8,1*
G04 #@! TO.N,Net-(C8-Pad1)*
X81280000Y-50800000D03*
G04 #@! TD*
G04 #@! TO.P,C9,2*
G04 #@! TO.N,Net-(C9-Pad2)*
X110530000Y-57150000D03*
G04 #@! TO.P,C9,1*
G04 #@! TO.N,Net-(C9-Pad1)*
X113030000Y-57150000D03*
G04 #@! TD*
G04 #@! TO.P,C10,1*
G04 #@! TO.N,Net-(C10-Pad1)*
X102870000Y-58460000D03*
G04 #@! TO.P,C10,2*
G04 #@! TO.N,Net-(C10-Pad2)*
X102870000Y-60960000D03*
G04 #@! TD*
G04 #@! TO.P,C11,2*
G04 #@! TO.N,Net-(C11-Pad2)*
X134660000Y-57150000D03*
G04 #@! TO.P,C11,1*
G04 #@! TO.N,Net-(C11-Pad1)*
X137160000Y-57150000D03*
G04 #@! TD*
G04 #@! TO.P,C12,1*
G04 #@! TO.N,Net-(C12-Pad1)*
X123190000Y-50800000D03*
G04 #@! TO.P,C12,2*
G04 #@! TO.N,Net-(C12-Pad2)*
X123190000Y-53300000D03*
G04 #@! TD*
G04 #@! TO.P,C13,1*
G04 #@! TO.N,Net-(C13-Pad1)*
X154940000Y-57150000D03*
G04 #@! TO.P,C13,2*
G04 #@! TO.N,Net-(C13-Pad2)*
X152440000Y-57150000D03*
G04 #@! TD*
G04 #@! TO.P,C14,2*
G04 #@! TO.N,Net-(C14-Pad2)*
X143510000Y-53300000D03*
G04 #@! TO.P,C14,1*
G04 #@! TO.N,Net-(C14-Pad1)*
X143510000Y-50800000D03*
G04 #@! TD*
G04 #@! TO.P,C15,1*
G04 #@! TO.N,Net-(C15-Pad1)*
X114300000Y-92710000D03*
G04 #@! TO.P,C15,2*
G04 #@! TO.N,Net-(C15-Pad2)*
X111800000Y-92710000D03*
G04 #@! TD*
G04 #@! TO.P,C16,2*
G04 #@! TO.N,Net-(C16-Pad2)*
X137160000Y-92710000D03*
G04 #@! TO.P,C16,1*
G04 #@! TO.N,Net-(C16-Pad1)*
X134660000Y-92710000D03*
G04 #@! TD*
D13*
G04 #@! TO.P,D1,2*
G04 #@! TO.N,Net-(C1-Pad1)*
X73660000Y-91440000D03*
D14*
G04 #@! TO.P,D1,1*
G04 #@! TO.N,Net-(D1-Pad1)*
X73660000Y-99060000D03*
G04 #@! TD*
D13*
G04 #@! TO.P,D2,2*
G04 #@! TO.N,Net-(D1-Pad1)*
X66040000Y-97790000D03*
D14*
G04 #@! TO.P,D2,1*
G04 #@! TO.N,GND*
X58420000Y-97790000D03*
G04 #@! TD*
G04 #@! TO.P,D3,1*
G04 #@! TO.N,Net-(D3-Pad1)*
X161290000Y-85090000D03*
D13*
G04 #@! TO.P,D3,2*
G04 #@! TO.N,Net-(D3-Pad2)*
X161290000Y-92710000D03*
G04 #@! TD*
D14*
G04 #@! TO.P,D4,1*
G04 #@! TO.N,GND*
X161290000Y-73660000D03*
D13*
G04 #@! TO.P,D4,2*
G04 #@! TO.N,Net-(D3-Pad1)*
X161290000Y-81280000D03*
G04 #@! TD*
D15*
G04 #@! TO.P,H1,1*
G04 #@! TO.N,N/C*
X53340000Y-99060000D03*
G04 #@! TD*
G04 #@! TO.P,H2,1*
G04 #@! TO.N,N/C*
X53340000Y-50800000D03*
G04 #@! TD*
G04 #@! TO.P,H3,1*
G04 #@! TO.N,N/C*
X161290000Y-50800000D03*
G04 #@! TD*
G04 #@! TO.P,H4,1*
G04 #@! TO.N,N/C*
X161290000Y-99060000D03*
G04 #@! TD*
D16*
G04 #@! TO.P,J1,3*
G04 #@! TO.N,GND*
X53340000Y-90170000D03*
G04 #@! TO.P,J1,2*
G04 #@! TO.N,Net-(J1-Pad2)*
X53340000Y-88170000D03*
D17*
G04 #@! TO.P,J1,1*
G04 #@! TO.N,GND*
X53340000Y-86170000D03*
G04 #@! TD*
G04 #@! TO.P,J2,1*
G04 #@! TO.N,+15V*
X100330000Y-99060000D03*
D16*
G04 #@! TO.P,J2,2*
G04 #@! TO.N,-15V*
X98330000Y-99060000D03*
G04 #@! TO.P,J2,3*
G04 #@! TO.N,GND*
X96330000Y-99060000D03*
G04 #@! TD*
D17*
G04 #@! TO.P,J3,1*
G04 #@! TO.N,GND*
X113030000Y-99060000D03*
D16*
G04 #@! TO.P,J3,2*
G04 #@! TO.N,Net-(J3-Pad2)*
X111030000Y-99060000D03*
G04 #@! TO.P,J3,3*
G04 #@! TO.N,Net-(J3-Pad3)*
X109030000Y-99060000D03*
G04 #@! TD*
D17*
G04 #@! TO.P,J4,1*
G04 #@! TO.N,GND*
X124650000Y-99060000D03*
D16*
G04 #@! TO.P,J4,2*
G04 #@! TO.N,Net-(C16-Pad1)*
X122650000Y-99060000D03*
G04 #@! TO.P,J4,3*
G04 #@! TO.N,Net-(J3-Pad2)*
X120650000Y-99060000D03*
G04 #@! TD*
G04 #@! TO.P,J5,3*
G04 #@! TO.N,Net-(J5-Pad3)*
X131890000Y-99060000D03*
G04 #@! TO.P,J5,2*
G04 #@! TO.N,Net-(J5-Pad2)*
X133890000Y-99060000D03*
D17*
G04 #@! TO.P,J5,1*
G04 #@! TO.N,GND*
X135890000Y-99060000D03*
G04 #@! TD*
D13*
G04 #@! TO.P,R1,2*
G04 #@! TO.N,Net-(J1-Pad2)*
X57150000Y-86360000D03*
D10*
G04 #@! TO.P,R1,1*
G04 #@! TO.N,Net-(C1-Pad2)*
X64770000Y-86360000D03*
G04 #@! TD*
G04 #@! TO.P,R2,1*
G04 #@! TO.N,Net-(C1-Pad2)*
X60960000Y-80010000D03*
D13*
G04 #@! TO.P,R2,2*
G04 #@! TO.N,Net-(J1-Pad2)*
X53340000Y-80010000D03*
G04 #@! TD*
D10*
G04 #@! TO.P,R3,1*
G04 #@! TO.N,GND*
X86360000Y-99060000D03*
D13*
G04 #@! TO.P,R3,2*
G04 #@! TO.N,Net-(C1-Pad1)*
X86360000Y-91440000D03*
G04 #@! TD*
D10*
G04 #@! TO.P,R4,1*
G04 #@! TO.N,GND*
X80010000Y-99060000D03*
D13*
G04 #@! TO.P,R4,2*
G04 #@! TO.N,Net-(R4-Pad2)*
X80010000Y-91440000D03*
G04 #@! TD*
G04 #@! TO.P,R5,2*
G04 #@! TO.N,Net-(C3-Pad2)*
X68580000Y-78740000D03*
D10*
G04 #@! TO.P,R5,1*
G04 #@! TO.N,Net-(R4-Pad2)*
X68580000Y-86360000D03*
G04 #@! TD*
D13*
G04 #@! TO.P,R6,2*
G04 #@! TO.N,Net-(C3-Pad1)*
X60960000Y-67310000D03*
D10*
G04 #@! TO.P,R6,1*
G04 #@! TO.N,Net-(C5-Pad1)*
X53340000Y-67310000D03*
G04 #@! TD*
D13*
G04 #@! TO.P,R7,2*
G04 #@! TO.N,Net-(C5-Pad1)*
X60960000Y-73660000D03*
D10*
G04 #@! TO.P,R7,1*
G04 #@! TO.N,GND*
X53340000Y-73660000D03*
G04 #@! TD*
D13*
G04 #@! TO.P,R9,2*
G04 #@! TO.N,Net-(R8-Pad1)*
X60960000Y-57150000D03*
D10*
G04 #@! TO.P,R9,1*
G04 #@! TO.N,Net-(C4-Pad1)*
X53340000Y-57150000D03*
G04 #@! TD*
G04 #@! TO.P,R10,1*
G04 #@! TO.N,Net-(R10-Pad1)*
X66040000Y-62230000D03*
D13*
G04 #@! TO.P,R10,2*
G04 #@! TO.N,Net-(C5-Pad2)*
X73660000Y-62230000D03*
G04 #@! TD*
D10*
G04 #@! TO.P,R11,1*
G04 #@! TO.N,GND*
X73660000Y-58420000D03*
D13*
G04 #@! TO.P,R11,2*
G04 #@! TO.N,Net-(R10-Pad1)*
X66040000Y-58420000D03*
G04 #@! TD*
D10*
G04 #@! TO.P,R12,1*
G04 #@! TO.N,Net-(C6-Pad1)*
X72390000Y-67310000D03*
D13*
G04 #@! TO.P,R12,2*
G04 #@! TO.N,Net-(R12-Pad2)*
X80010000Y-67310000D03*
G04 #@! TD*
G04 #@! TO.P,R13,2*
G04 #@! TO.N,Net-(R12-Pad2)*
X86360000Y-87630000D03*
D10*
G04 #@! TO.P,R13,1*
G04 #@! TO.N,Net-(R13-Pad1)*
X86360000Y-80010000D03*
G04 #@! TD*
G04 #@! TO.P,R14,1*
G04 #@! TO.N,Net-(R14-Pad1)*
X77470000Y-62230000D03*
D13*
G04 #@! TO.P,R14,2*
G04 #@! TO.N,Net-(R13-Pad1)*
X85090000Y-62230000D03*
G04 #@! TD*
D10*
G04 #@! TO.P,R15,1*
G04 #@! TO.N,Net-(C7-Pad2)*
X85090000Y-58420000D03*
D13*
G04 #@! TO.P,R15,2*
G04 #@! TO.N,Net-(R14-Pad1)*
X77470000Y-58420000D03*
G04 #@! TD*
D10*
G04 #@! TO.P,R16,1*
G04 #@! TO.N,Net-(C8-Pad2)*
X80010000Y-72390000D03*
D13*
G04 #@! TO.P,R16,2*
G04 #@! TO.N,Net-(R14-Pad1)*
X72390000Y-72390000D03*
G04 #@! TD*
G04 #@! TO.P,R17,2*
G04 #@! TO.N,Net-(C8-Pad2)*
X82550000Y-72390000D03*
D10*
G04 #@! TO.P,R17,1*
G04 #@! TO.N,Net-(R17-Pad1)*
X90170000Y-72390000D03*
G04 #@! TD*
D13*
G04 #@! TO.P,R18,2*
G04 #@! TO.N,Net-(C7-Pad1)*
X90170000Y-67310000D03*
D10*
G04 #@! TO.P,R18,1*
G04 #@! TO.N,Net-(R17-Pad1)*
X82550000Y-67310000D03*
G04 #@! TD*
D13*
G04 #@! TO.P,R19,2*
G04 #@! TO.N,Net-(R19-Pad2)*
X93980000Y-59690000D03*
D10*
G04 #@! TO.P,R19,1*
G04 #@! TO.N,Net-(R17-Pad1)*
X93980000Y-67310000D03*
G04 #@! TD*
D13*
G04 #@! TO.P,R20,2*
G04 #@! TO.N,Net-(C9-Pad2)*
X99060000Y-59690000D03*
D10*
G04 #@! TO.P,R20,1*
G04 #@! TO.N,Net-(R19-Pad2)*
X99060000Y-67310000D03*
G04 #@! TD*
G04 #@! TO.P,R21,1*
G04 #@! TO.N,Net-(C10-Pad1)*
X106680000Y-67310000D03*
D13*
G04 #@! TO.P,R21,2*
G04 #@! TO.N,Net-(C9-Pad2)*
X106680000Y-59690000D03*
G04 #@! TD*
D10*
G04 #@! TO.P,R22,1*
G04 #@! TO.N,Net-(C10-Pad2)*
X101600000Y-72390000D03*
D13*
G04 #@! TO.P,R22,2*
G04 #@! TO.N,Net-(R17-Pad1)*
X93980000Y-72390000D03*
G04 #@! TD*
G04 #@! TO.P,R23,2*
G04 #@! TO.N,Net-(C9-Pad1)*
X115570000Y-59690000D03*
D10*
G04 #@! TO.P,R23,1*
G04 #@! TO.N,Net-(C10-Pad1)*
X115570000Y-67310000D03*
G04 #@! TD*
D13*
G04 #@! TO.P,R24,2*
G04 #@! TO.N,Net-(C10-Pad2)*
X104140000Y-72390000D03*
D10*
G04 #@! TO.P,R24,1*
G04 #@! TO.N,Net-(R24-Pad1)*
X111760000Y-72390000D03*
G04 #@! TD*
G04 #@! TO.P,R25,1*
G04 #@! TO.N,Net-(R24-Pad1)*
X121920000Y-67310000D03*
D13*
G04 #@! TO.P,R25,2*
G04 #@! TO.N,Net-(C9-Pad1)*
X121920000Y-59690000D03*
G04 #@! TD*
D10*
G04 #@! TO.P,R26,1*
G04 #@! TO.N,Net-(C11-Pad2)*
X132080000Y-59690000D03*
D13*
G04 #@! TO.P,R26,2*
G04 #@! TO.N,Net-(R24-Pad1)*
X132080000Y-67310000D03*
G04 #@! TD*
D10*
G04 #@! TO.P,R27,1*
G04 #@! TO.N,Net-(C12-Pad2)*
X123190000Y-72390000D03*
D13*
G04 #@! TO.P,R27,2*
G04 #@! TO.N,Net-(R24-Pad1)*
X115570000Y-72390000D03*
G04 #@! TD*
G04 #@! TO.P,R28,2*
G04 #@! TO.N,Net-(C12-Pad2)*
X127000000Y-72390000D03*
D10*
G04 #@! TO.P,R28,1*
G04 #@! TO.N,Net-(R28-Pad1)*
X134620000Y-72390000D03*
G04 #@! TD*
D13*
G04 #@! TO.P,R29,2*
G04 #@! TO.N,Net-(C11-Pad1)*
X139700000Y-59690000D03*
D10*
G04 #@! TO.P,R29,1*
G04 #@! TO.N,Net-(R28-Pad1)*
X139700000Y-67310000D03*
G04 #@! TD*
D13*
G04 #@! TO.P,R30,2*
G04 #@! TO.N,Net-(J5-Pad2)*
X127000000Y-86360000D03*
D10*
G04 #@! TO.P,R30,1*
G04 #@! TO.N,Net-(R30-Pad1)*
X127000000Y-78740000D03*
G04 #@! TD*
G04 #@! TO.P,R31,1*
G04 #@! TO.N,Net-(C13-Pad2)*
X149860000Y-59690000D03*
D13*
G04 #@! TO.P,R31,2*
G04 #@! TO.N,Net-(R28-Pad1)*
X149860000Y-67310000D03*
G04 #@! TD*
G04 #@! TO.P,R32,2*
G04 #@! TO.N,Net-(R32-Pad2)*
X133350000Y-86360000D03*
D10*
G04 #@! TO.P,R32,1*
G04 #@! TO.N,Net-(R30-Pad1)*
X133350000Y-78740000D03*
G04 #@! TD*
G04 #@! TO.P,R33,1*
G04 #@! TO.N,Net-(C14-Pad2)*
X146050000Y-72390000D03*
D13*
G04 #@! TO.P,R33,2*
G04 #@! TO.N,Net-(R28-Pad1)*
X138430000Y-72390000D03*
G04 #@! TD*
D10*
G04 #@! TO.P,R34,1*
G04 #@! TO.N,Net-(R32-Pad2)*
X138430000Y-86360000D03*
D13*
G04 #@! TO.P,R34,2*
G04 #@! TO.N,GND*
X138430000Y-78740000D03*
G04 #@! TD*
G04 #@! TO.P,R35,2*
G04 #@! TO.N,Net-(C13-Pad1)*
X157480000Y-59690000D03*
D10*
G04 #@! TO.P,R35,1*
G04 #@! TO.N,Net-(C15-Pad2)*
X157480000Y-67310000D03*
G04 #@! TD*
D13*
G04 #@! TO.P,R36,2*
G04 #@! TO.N,Net-(C14-Pad2)*
X149860000Y-72390000D03*
D10*
G04 #@! TO.P,R36,1*
G04 #@! TO.N,Net-(C15-Pad2)*
X157480000Y-72390000D03*
G04 #@! TD*
G04 #@! TO.P,R37,1*
G04 #@! TO.N,Net-(D3-Pad2)*
X153670000Y-93980000D03*
D13*
G04 #@! TO.P,R37,2*
G04 #@! TO.N,Net-(C16-Pad2)*
X146050000Y-93980000D03*
G04 #@! TD*
G04 #@! TO.P,R38,2*
G04 #@! TO.N,GND*
X153670000Y-99060000D03*
D10*
G04 #@! TO.P,R38,1*
G04 #@! TO.N,Net-(C16-Pad2)*
X146050000Y-99060000D03*
G04 #@! TD*
G04 #@! TO.P,R39,1*
G04 #@! TO.N,Net-(J3-Pad2)*
X127000000Y-92710000D03*
D13*
G04 #@! TO.P,R39,2*
G04 #@! TO.N,Net-(C15-Pad1)*
X119380000Y-92710000D03*
G04 #@! TD*
G04 #@! TO.P,R40,2*
G04 #@! TO.N,Net-(J3-Pad2)*
X101600000Y-92710000D03*
D10*
G04 #@! TO.P,R40,1*
G04 #@! TO.N,GND*
X93980000Y-92710000D03*
G04 #@! TD*
D18*
G04 #@! TO.P,RV1,3*
G04 #@! TO.N,Net-(C6-Pad2)*
X67390000Y-53340000D03*
G04 #@! TO.P,RV1,2*
G04 #@! TO.N,GND*
X69890000Y-50840000D03*
G04 #@! TO.P,RV1,1*
G04 #@! TO.N,Net-(R14-Pad1)*
X72390000Y-53340000D03*
G04 #@! TD*
G04 #@! TO.P,RV2,1*
G04 #@! TO.N,Net-(C7-Pad1)*
X92710000Y-53340000D03*
G04 #@! TO.P,RV2,2*
G04 #@! TO.N,Net-(C8-Pad1)*
X90210000Y-50840000D03*
G04 #@! TO.P,RV2,3*
G04 #@! TO.N,Net-(C7-Pad2)*
X87710000Y-53340000D03*
G04 #@! TD*
G04 #@! TO.P,RV3,3*
G04 #@! TO.N,Net-(C9-Pad2)*
X109220000Y-53340000D03*
G04 #@! TO.P,RV3,2*
G04 #@! TO.N,Net-(C10-Pad1)*
X111720000Y-50840000D03*
G04 #@! TO.P,RV3,1*
G04 #@! TO.N,Net-(C9-Pad1)*
X114220000Y-53340000D03*
G04 #@! TD*
G04 #@! TO.P,RV4,1*
G04 #@! TO.N,Net-(C11-Pad1)*
X135810000Y-53340000D03*
G04 #@! TO.P,RV4,2*
G04 #@! TO.N,Net-(C12-Pad1)*
X133310000Y-50840000D03*
G04 #@! TO.P,RV4,3*
G04 #@! TO.N,Net-(C11-Pad2)*
X130810000Y-53340000D03*
G04 #@! TD*
G04 #@! TO.P,RV5,3*
G04 #@! TO.N,Net-(C13-Pad2)*
X151210000Y-53340000D03*
G04 #@! TO.P,RV5,2*
G04 #@! TO.N,Net-(C14-Pad1)*
X153710000Y-50840000D03*
G04 #@! TO.P,RV5,1*
G04 #@! TO.N,Net-(C13-Pad1)*
X156210000Y-53340000D03*
G04 #@! TD*
D19*
G04 #@! TO.P,U1,8*
G04 #@! TO.N,+15V*
X81280000Y-78740000D03*
G04 #@! TO.P,U1,4*
G04 #@! TO.N,-15V*
X73660000Y-86360000D03*
G04 #@! TO.P,U1,7*
G04 #@! TO.N,Net-(R13-Pad1)*
X81280000Y-81280000D03*
G04 #@! TO.P,U1,3*
G04 #@! TO.N,Net-(C1-Pad1)*
X73660000Y-83820000D03*
G04 #@! TO.P,U1,6*
G04 #@! TO.N,Net-(R12-Pad2)*
X81280000Y-83820000D03*
G04 #@! TO.P,U1,2*
G04 #@! TO.N,Net-(R4-Pad2)*
X73660000Y-81280000D03*
G04 #@! TO.P,U1,5*
G04 #@! TO.N,Net-(C5-Pad2)*
X81280000Y-86360000D03*
D20*
G04 #@! TO.P,U1,1*
G04 #@! TO.N,Net-(C3-Pad2)*
X73660000Y-78740000D03*
G04 #@! TD*
G04 #@! TO.P,U2,1*
G04 #@! TO.N,Net-(R17-Pad1)*
X93980000Y-78740000D03*
D19*
G04 #@! TO.P,U2,5*
G04 #@! TO.N,GND*
X101600000Y-86360000D03*
G04 #@! TO.P,U2,2*
G04 #@! TO.N,Net-(C8-Pad2)*
X93980000Y-81280000D03*
G04 #@! TO.P,U2,6*
G04 #@! TO.N,Net-(C10-Pad2)*
X101600000Y-83820000D03*
G04 #@! TO.P,U2,3*
G04 #@! TO.N,GND*
X93980000Y-83820000D03*
G04 #@! TO.P,U2,7*
G04 #@! TO.N,Net-(R24-Pad1)*
X101600000Y-81280000D03*
G04 #@! TO.P,U2,4*
G04 #@! TO.N,-15V*
X93980000Y-86360000D03*
G04 #@! TO.P,U2,8*
G04 #@! TO.N,+15V*
X101600000Y-78740000D03*
G04 #@! TD*
G04 #@! TO.P,U3,8*
G04 #@! TO.N,+15V*
X119380000Y-78740000D03*
G04 #@! TO.P,U3,4*
G04 #@! TO.N,-15V*
X111760000Y-86360000D03*
G04 #@! TO.P,U3,7*
G04 #@! TO.N,Net-(C15-Pad2)*
X119380000Y-81280000D03*
G04 #@! TO.P,U3,3*
G04 #@! TO.N,GND*
X111760000Y-83820000D03*
G04 #@! TO.P,U3,6*
G04 #@! TO.N,Net-(C14-Pad2)*
X119380000Y-83820000D03*
G04 #@! TO.P,U3,2*
G04 #@! TO.N,Net-(C12-Pad2)*
X111760000Y-81280000D03*
G04 #@! TO.P,U3,5*
G04 #@! TO.N,GND*
X119380000Y-86360000D03*
D20*
G04 #@! TO.P,U3,1*
G04 #@! TO.N,Net-(R28-Pad1)*
X111760000Y-78740000D03*
G04 #@! TD*
G04 #@! TO.P,U4,1*
G04 #@! TO.N,Net-(R30-Pad1)*
X144780000Y-78740000D03*
D19*
G04 #@! TO.P,U4,5*
G04 #@! TO.N,Net-(U4-Pad5)*
X152400000Y-86360000D03*
G04 #@! TO.P,U4,2*
G04 #@! TO.N,Net-(R32-Pad2)*
X144780000Y-81280000D03*
G04 #@! TO.P,U4,6*
G04 #@! TO.N,Net-(U4-Pad6)*
X152400000Y-83820000D03*
G04 #@! TO.P,U4,3*
G04 #@! TO.N,Net-(D3-Pad2)*
X144780000Y-83820000D03*
G04 #@! TO.P,U4,7*
G04 #@! TO.N,Net-(U4-Pad7)*
X152400000Y-81280000D03*
G04 #@! TO.P,U4,4*
G04 #@! TO.N,-15V*
X144780000Y-86360000D03*
G04 #@! TO.P,U4,8*
G04 #@! TO.N,+15V*
X152400000Y-78740000D03*
G04 #@! TD*
D10*
G04 #@! TO.P,R8,1*
G04 #@! TO.N,Net-(R8-Pad1)*
X60960000Y-62230000D03*
D13*
G04 #@! TO.P,R8,2*
G04 #@! TO.N,Net-(C5-Pad1)*
X53340000Y-62230000D03*
G04 #@! TD*
D21*
G04 #@! TO.N,Net-(C3-Pad1)*
X66040000Y-72390000D02*
X66040000Y-73430000D01*
X60960000Y-67310000D02*
X66040000Y-72390000D01*
G04 #@! TO.N,Net-(C6-Pad2)*
X64890000Y-50840000D02*
X67390000Y-53340000D01*
X62230000Y-50840000D02*
X64890000Y-50840000D01*
G04 #@! TO.N,Net-(C8-Pad2)*
X91440000Y-81280000D02*
X82550000Y-72390000D01*
X93980000Y-81280000D02*
X91440000Y-81280000D01*
X82550000Y-72390000D02*
X80010000Y-72390000D01*
X81280000Y-71120000D02*
X81280000Y-53300000D01*
X80010000Y-72390000D02*
X81280000Y-71120000D01*
G04 #@! TO.N,Net-(C10-Pad1)*
X106680000Y-62270000D02*
X106680000Y-67310000D01*
X102870000Y-58460000D02*
X106680000Y-62270000D01*
X110065371Y-50840000D02*
X111720000Y-50840000D01*
X109358630Y-50840000D02*
X110065371Y-50840000D01*
X102870000Y-57328630D02*
X109358630Y-50840000D01*
X102870000Y-58460000D02*
X102870000Y-57328630D01*
G04 #@! TO.N,Net-(C11-Pad2)*
X134620000Y-57150000D02*
X134660000Y-57150000D01*
X130810000Y-53340000D02*
X134620000Y-57150000D01*
G04 #@! TO.N,Net-(C12-Pad1)*
X123230000Y-50840000D02*
X123190000Y-50800000D01*
X133310000Y-50840000D02*
X123230000Y-50840000D01*
G04 #@! TO.N,Net-(C13-Pad2)*
X151210000Y-55920000D02*
X152440000Y-57150000D01*
X151210000Y-53340000D02*
X151210000Y-55920000D01*
G04 #@! TO.N,Net-(C14-Pad1)*
X143550000Y-50840000D02*
X143510000Y-50800000D01*
X153710000Y-50840000D02*
X143550000Y-50840000D01*
G04 #@! TO.N,+15V*
X100074990Y-79865010D02*
X101200000Y-78740000D01*
X100330000Y-98135000D02*
X100074990Y-97879990D01*
X100330000Y-99060000D02*
X100330000Y-98135000D01*
X100074990Y-97879990D02*
X100074990Y-79865010D01*
X101200000Y-78740000D02*
X101600000Y-78740000D01*
X85345010Y-82405010D02*
X97534990Y-82405010D01*
X81680000Y-78740000D02*
X85345010Y-82405010D01*
X97534990Y-82405010D02*
X101200000Y-78740000D01*
X81280000Y-78740000D02*
X81680000Y-78740000D01*
X103125001Y-79865001D02*
X116804999Y-79865001D01*
X117930000Y-78740000D02*
X119380000Y-78740000D01*
X116804999Y-79865001D02*
X117930000Y-78740000D01*
X102000000Y-78740000D02*
X103125001Y-79865001D01*
X101600000Y-78740000D02*
X102000000Y-78740000D01*
X149824999Y-79865001D02*
X150950000Y-78740000D01*
X150950000Y-78740000D02*
X152400000Y-78740000D01*
X120905001Y-79865001D02*
X149824999Y-79865001D01*
X119780000Y-78740000D02*
X120905001Y-79865001D01*
X119380000Y-78740000D02*
X119780000Y-78740000D01*
G04 #@! TO.N,Net-(J3-Pad2)*
X120650000Y-99060000D02*
X127000000Y-92710000D01*
G04 #@! TO.N,Net-(R4-Pad2)*
X80010000Y-90308630D02*
X80010000Y-91440000D01*
X80010000Y-87230000D02*
X80010000Y-90308630D01*
X74060000Y-81280000D02*
X80010000Y-87230000D01*
X73660000Y-81280000D02*
X74060000Y-81280000D01*
G04 #@! TO.N,Net-(R14-Pad1)*
X72390000Y-53340000D02*
X77470000Y-58420000D01*
G04 #@! TD*
D22*
G04 #@! TO.N,-15V*
G36*
X56985000Y-49244561D02*
X56985000Y-49815439D01*
X57203466Y-50342862D01*
X57607138Y-50746534D01*
X57687932Y-50780000D01*
X57607138Y-50813466D01*
X57203466Y-51217138D01*
X56985000Y-51744561D01*
X56985000Y-52315439D01*
X57203466Y-52842862D01*
X57607138Y-53246534D01*
X58134561Y-53465000D01*
X58705439Y-53465000D01*
X59232862Y-53246534D01*
X59636534Y-52842862D01*
X59855000Y-52315439D01*
X59855000Y-51744561D01*
X59636534Y-51217138D01*
X59232862Y-50813466D01*
X59152068Y-50780000D01*
X59232862Y-50746534D01*
X59424835Y-50554561D01*
X60795000Y-50554561D01*
X60795000Y-51125439D01*
X61013466Y-51652862D01*
X61417138Y-52056534D01*
X61497932Y-52090000D01*
X61417138Y-52123466D01*
X61013466Y-52527138D01*
X60795000Y-53054561D01*
X60795000Y-53625439D01*
X61013466Y-54152862D01*
X61417138Y-54556534D01*
X61944561Y-54775000D01*
X62515439Y-54775000D01*
X63042862Y-54556534D01*
X63446534Y-54152862D01*
X63665000Y-53625439D01*
X63665000Y-53054561D01*
X63446534Y-52527138D01*
X63042862Y-52123466D01*
X62962068Y-52090000D01*
X63042862Y-52056534D01*
X63446534Y-51652862D01*
X63468430Y-51600000D01*
X64575199Y-51600000D01*
X65693711Y-52718512D01*
X65585000Y-52980963D01*
X65585000Y-53699037D01*
X65859795Y-54362450D01*
X66367550Y-54870205D01*
X67030963Y-55145000D01*
X67749037Y-55145000D01*
X68412450Y-54870205D01*
X68920205Y-54362450D01*
X69195000Y-53699037D01*
X69195000Y-52980963D01*
X68957438Y-52407438D01*
X69530963Y-52645000D01*
X70249037Y-52645000D01*
X70822562Y-52407438D01*
X70585000Y-52980963D01*
X70585000Y-53699037D01*
X70859795Y-54362450D01*
X71367550Y-54870205D01*
X72030963Y-55145000D01*
X72749037Y-55145000D01*
X73011488Y-55036289D01*
X76071312Y-58096114D01*
X76006887Y-58420000D01*
X76118260Y-58979909D01*
X76435423Y-59454577D01*
X76910091Y-59771740D01*
X77328667Y-59855000D01*
X77611333Y-59855000D01*
X78029909Y-59771740D01*
X78504577Y-59454577D01*
X78821740Y-58979909D01*
X78933113Y-58420000D01*
X78821740Y-57860091D01*
X78504577Y-57385423D01*
X78029909Y-57068260D01*
X77611333Y-56985000D01*
X77328667Y-56985000D01*
X77146114Y-57021312D01*
X74086289Y-53961488D01*
X74195000Y-53699037D01*
X74195000Y-52980963D01*
X73920205Y-52317550D01*
X73412450Y-51809795D01*
X72749037Y-51535000D01*
X72030963Y-51535000D01*
X71457438Y-51772562D01*
X71695000Y-51199037D01*
X71695000Y-50480963D01*
X71420205Y-49817550D01*
X70912450Y-49309795D01*
X70249037Y-49035000D01*
X69530963Y-49035000D01*
X68867550Y-49309795D01*
X68359795Y-49817550D01*
X68085000Y-50480963D01*
X68085000Y-51199037D01*
X68322562Y-51772562D01*
X67749037Y-51535000D01*
X67030963Y-51535000D01*
X66768512Y-51643711D01*
X65480331Y-50355530D01*
X65437929Y-50292071D01*
X65186537Y-50124096D01*
X64964852Y-50080000D01*
X64964847Y-50080000D01*
X64890000Y-50065112D01*
X64815153Y-50080000D01*
X63468430Y-50080000D01*
X63446534Y-50027138D01*
X63042862Y-49623466D01*
X62515439Y-49405000D01*
X61944561Y-49405000D01*
X61417138Y-49623466D01*
X61013466Y-50027138D01*
X60795000Y-50554561D01*
X59424835Y-50554561D01*
X59636534Y-50342862D01*
X59855000Y-49815439D01*
X59855000Y-49244561D01*
X59741273Y-48970000D01*
X159534968Y-48970000D01*
X159140930Y-49364038D01*
X158755000Y-50295757D01*
X158755000Y-51304243D01*
X159140930Y-52235962D01*
X159854038Y-52949070D01*
X160785757Y-53335000D01*
X161794243Y-53335000D01*
X162725962Y-52949070D01*
X163120000Y-52555032D01*
X163120001Y-97304969D01*
X162725962Y-96910930D01*
X161794243Y-96525000D01*
X160785757Y-96525000D01*
X159854038Y-96910930D01*
X159140930Y-97624038D01*
X158755000Y-98555757D01*
X158755000Y-99564243D01*
X159140930Y-100495962D01*
X159534968Y-100890000D01*
X55095032Y-100890000D01*
X55489070Y-100495962D01*
X55875000Y-99564243D01*
X55875000Y-98555757D01*
X55489070Y-97624038D01*
X54855032Y-96990000D01*
X56972560Y-96990000D01*
X56972560Y-98590000D01*
X57021843Y-98837765D01*
X57162191Y-99047809D01*
X57372235Y-99188157D01*
X57620000Y-99237440D01*
X59220000Y-99237440D01*
X59467765Y-99188157D01*
X59677809Y-99047809D01*
X59818157Y-98837765D01*
X59867440Y-98590000D01*
X59867440Y-97790000D01*
X64576887Y-97790000D01*
X64688260Y-98349909D01*
X65005423Y-98824577D01*
X65480091Y-99141740D01*
X65898667Y-99225000D01*
X66181333Y-99225000D01*
X66599909Y-99141740D01*
X67074577Y-98824577D01*
X67391740Y-98349909D01*
X67409624Y-98260000D01*
X72212560Y-98260000D01*
X72212560Y-99860000D01*
X72261843Y-100107765D01*
X72402191Y-100317809D01*
X72612235Y-100458157D01*
X72860000Y-100507440D01*
X74460000Y-100507440D01*
X74707765Y-100458157D01*
X74917809Y-100317809D01*
X75058157Y-100107765D01*
X75107440Y-99860000D01*
X75107440Y-98774561D01*
X78575000Y-98774561D01*
X78575000Y-99345439D01*
X78793466Y-99872862D01*
X79197138Y-100276534D01*
X79724561Y-100495000D01*
X80295439Y-100495000D01*
X80822862Y-100276534D01*
X81226534Y-99872862D01*
X81445000Y-99345439D01*
X81445000Y-98774561D01*
X84925000Y-98774561D01*
X84925000Y-99345439D01*
X85143466Y-99872862D01*
X85547138Y-100276534D01*
X86074561Y-100495000D01*
X86645439Y-100495000D01*
X87172862Y-100276534D01*
X87576534Y-99872862D01*
X87795000Y-99345439D01*
X87795000Y-99060000D01*
X94994336Y-99060000D01*
X95096007Y-99571136D01*
X95385543Y-100004457D01*
X95818864Y-100293993D01*
X96200978Y-100370000D01*
X96459022Y-100370000D01*
X96841136Y-100293993D01*
X97274457Y-100004457D01*
X97343156Y-99901642D01*
X97666367Y-100189478D01*
X98000600Y-100327910D01*
X98203000Y-100204224D01*
X98203000Y-99187000D01*
X98183000Y-99187000D01*
X98183000Y-98933000D01*
X98203000Y-98933000D01*
X98203000Y-97915776D01*
X98000600Y-97792090D01*
X97666367Y-97930522D01*
X97343156Y-98218358D01*
X97274457Y-98115543D01*
X96841136Y-97826007D01*
X96459022Y-97750000D01*
X96200978Y-97750000D01*
X95818864Y-97826007D01*
X95385543Y-98115543D01*
X95096007Y-98548864D01*
X94994336Y-99060000D01*
X87795000Y-99060000D01*
X87795000Y-98774561D01*
X87576534Y-98247138D01*
X87172862Y-97843466D01*
X86645439Y-97625000D01*
X86074561Y-97625000D01*
X85547138Y-97843466D01*
X85143466Y-98247138D01*
X84925000Y-98774561D01*
X81445000Y-98774561D01*
X81226534Y-98247138D01*
X80822862Y-97843466D01*
X80295439Y-97625000D01*
X79724561Y-97625000D01*
X79197138Y-97843466D01*
X78793466Y-98247138D01*
X78575000Y-98774561D01*
X75107440Y-98774561D01*
X75107440Y-98260000D01*
X75058157Y-98012235D01*
X74917809Y-97802191D01*
X74707765Y-97661843D01*
X74460000Y-97612560D01*
X72860000Y-97612560D01*
X72612235Y-97661843D01*
X72402191Y-97802191D01*
X72261843Y-98012235D01*
X72212560Y-98260000D01*
X67409624Y-98260000D01*
X67503113Y-97790000D01*
X67391740Y-97230091D01*
X67074577Y-96755423D01*
X66599909Y-96438260D01*
X66181333Y-96355000D01*
X65898667Y-96355000D01*
X65480091Y-96438260D01*
X65005423Y-96755423D01*
X64688260Y-97230091D01*
X64576887Y-97790000D01*
X59867440Y-97790000D01*
X59867440Y-96990000D01*
X59818157Y-96742235D01*
X59677809Y-96532191D01*
X59467765Y-96391843D01*
X59220000Y-96342560D01*
X57620000Y-96342560D01*
X57372235Y-96391843D01*
X57162191Y-96532191D01*
X57021843Y-96742235D01*
X56972560Y-96990000D01*
X54855032Y-96990000D01*
X54775962Y-96910930D01*
X53844243Y-96525000D01*
X52835757Y-96525000D01*
X51904038Y-96910930D01*
X51510000Y-97304968D01*
X51510000Y-88170000D01*
X52004336Y-88170000D01*
X52106007Y-88681136D01*
X52395543Y-89114457D01*
X52478669Y-89170000D01*
X52395543Y-89225543D01*
X52106007Y-89658864D01*
X52004336Y-90170000D01*
X52106007Y-90681136D01*
X52395543Y-91114457D01*
X52828864Y-91403993D01*
X53210978Y-91480000D01*
X53469022Y-91480000D01*
X53851136Y-91403993D01*
X54284457Y-91114457D01*
X54573993Y-90681136D01*
X54675664Y-90170000D01*
X54626844Y-89924561D01*
X56985000Y-89924561D01*
X56985000Y-90495439D01*
X57203466Y-91022862D01*
X57607138Y-91426534D01*
X57687932Y-91460000D01*
X57607138Y-91493466D01*
X57203466Y-91897138D01*
X56985000Y-92424561D01*
X56985000Y-92995439D01*
X57203466Y-93522862D01*
X57607138Y-93926534D01*
X58134561Y-94145000D01*
X58705439Y-94145000D01*
X59232862Y-93926534D01*
X59636534Y-93522862D01*
X59855000Y-92995439D01*
X59855000Y-92424561D01*
X59636534Y-91897138D01*
X59232862Y-91493466D01*
X59152068Y-91460000D01*
X59232862Y-91426534D01*
X59636534Y-91022862D01*
X59855000Y-90495439D01*
X59855000Y-89924561D01*
X64605000Y-89924561D01*
X64605000Y-90495439D01*
X64823466Y-91022862D01*
X65227138Y-91426534D01*
X65307932Y-91460000D01*
X65227138Y-91493466D01*
X64823466Y-91897138D01*
X64605000Y-92424561D01*
X64605000Y-92995439D01*
X64823466Y-93522862D01*
X65227138Y-93926534D01*
X65754561Y-94145000D01*
X66325439Y-94145000D01*
X66852862Y-93926534D01*
X67256534Y-93522862D01*
X67475000Y-92995439D01*
X67475000Y-92424561D01*
X67256534Y-91897138D01*
X66852862Y-91493466D01*
X66772068Y-91460000D01*
X66820352Y-91440000D01*
X72196887Y-91440000D01*
X72308260Y-91999909D01*
X72625423Y-92474577D01*
X73100091Y-92791740D01*
X73518667Y-92875000D01*
X73801333Y-92875000D01*
X74219909Y-92791740D01*
X74694577Y-92474577D01*
X75011740Y-91999909D01*
X75123113Y-91440000D01*
X75011740Y-90880091D01*
X74694577Y-90405423D01*
X74219909Y-90088260D01*
X73801333Y-90005000D01*
X73518667Y-90005000D01*
X73100091Y-90088260D01*
X72625423Y-90405423D01*
X72308260Y-90880091D01*
X72196887Y-91440000D01*
X66820352Y-91440000D01*
X66852862Y-91426534D01*
X67256534Y-91022862D01*
X67475000Y-90495439D01*
X67475000Y-89924561D01*
X67256534Y-89397138D01*
X66852862Y-88993466D01*
X66325439Y-88775000D01*
X65754561Y-88775000D01*
X65227138Y-88993466D01*
X64823466Y-89397138D01*
X64605000Y-89924561D01*
X59855000Y-89924561D01*
X59636534Y-89397138D01*
X59232862Y-88993466D01*
X58705439Y-88775000D01*
X58134561Y-88775000D01*
X57607138Y-88993466D01*
X57203466Y-89397138D01*
X56985000Y-89924561D01*
X54626844Y-89924561D01*
X54573993Y-89658864D01*
X54284457Y-89225543D01*
X54201331Y-89170000D01*
X54284457Y-89114457D01*
X54573993Y-88681136D01*
X54675664Y-88170000D01*
X54573993Y-87658864D01*
X54378286Y-87365968D01*
X54472809Y-87302809D01*
X54613157Y-87092765D01*
X54662440Y-86845000D01*
X54662440Y-86360000D01*
X55686887Y-86360000D01*
X55798260Y-86919909D01*
X56115423Y-87394577D01*
X56590091Y-87711740D01*
X57008667Y-87795000D01*
X57291333Y-87795000D01*
X57709909Y-87711740D01*
X58184577Y-87394577D01*
X58501740Y-86919909D01*
X58613113Y-86360000D01*
X58556336Y-86074561D01*
X63335000Y-86074561D01*
X63335000Y-86645439D01*
X63553466Y-87172862D01*
X63957138Y-87576534D01*
X64484561Y-87795000D01*
X65055439Y-87795000D01*
X65582862Y-87576534D01*
X65986534Y-87172862D01*
X66205000Y-86645439D01*
X66205000Y-86074561D01*
X67145000Y-86074561D01*
X67145000Y-86645439D01*
X67363466Y-87172862D01*
X67767138Y-87576534D01*
X68294561Y-87795000D01*
X68865439Y-87795000D01*
X69392862Y-87576534D01*
X69796534Y-87172862D01*
X69988655Y-86709039D01*
X71868096Y-86709039D01*
X71885633Y-86791819D01*
X72155500Y-87284896D01*
X72593517Y-87637166D01*
X73133000Y-87795000D01*
X73533000Y-87795000D01*
X73533000Y-86487000D01*
X73787000Y-86487000D01*
X73787000Y-87795000D01*
X74187000Y-87795000D01*
X74726483Y-87637166D01*
X75164500Y-87284896D01*
X75434367Y-86791819D01*
X75451904Y-86709039D01*
X75329915Y-86487000D01*
X73787000Y-86487000D01*
X73533000Y-86487000D01*
X71990085Y-86487000D01*
X71868096Y-86709039D01*
X69988655Y-86709039D01*
X70015000Y-86645439D01*
X70015000Y-86074561D01*
X69796534Y-85547138D01*
X69392862Y-85143466D01*
X68865439Y-84925000D01*
X68294561Y-84925000D01*
X67767138Y-85143466D01*
X67363466Y-85547138D01*
X67145000Y-86074561D01*
X66205000Y-86074561D01*
X65986534Y-85547138D01*
X65582862Y-85143466D01*
X65055439Y-84925000D01*
X64484561Y-84925000D01*
X63957138Y-85143466D01*
X63553466Y-85547138D01*
X63335000Y-86074561D01*
X58556336Y-86074561D01*
X58501740Y-85800091D01*
X58184577Y-85325423D01*
X57709909Y-85008260D01*
X57291333Y-84925000D01*
X57008667Y-84925000D01*
X56590091Y-85008260D01*
X56115423Y-85325423D01*
X55798260Y-85800091D01*
X55686887Y-86360000D01*
X54662440Y-86360000D01*
X54662440Y-85495000D01*
X54613157Y-85247235D01*
X54472809Y-85037191D01*
X54262765Y-84896843D01*
X54015000Y-84847560D01*
X52665000Y-84847560D01*
X52417235Y-84896843D01*
X52207191Y-85037191D01*
X52066843Y-85247235D01*
X52017560Y-85495000D01*
X52017560Y-86845000D01*
X52066843Y-87092765D01*
X52207191Y-87302809D01*
X52301714Y-87365968D01*
X52106007Y-87658864D01*
X52004336Y-88170000D01*
X51510000Y-88170000D01*
X51510000Y-80010000D01*
X51876887Y-80010000D01*
X51988260Y-80569909D01*
X52305423Y-81044577D01*
X52780091Y-81361740D01*
X53198667Y-81445000D01*
X53481333Y-81445000D01*
X53899909Y-81361740D01*
X54374577Y-81044577D01*
X54691740Y-80569909D01*
X54803113Y-80010000D01*
X54746336Y-79724561D01*
X59525000Y-79724561D01*
X59525000Y-80295439D01*
X59743466Y-80822862D01*
X60147138Y-81226534D01*
X60674561Y-81445000D01*
X61245439Y-81445000D01*
X61643783Y-81280000D01*
X71796887Y-81280000D01*
X71908260Y-81839909D01*
X72225423Y-82314577D01*
X72577758Y-82550000D01*
X72225423Y-82785423D01*
X71908260Y-83260091D01*
X71796887Y-83820000D01*
X71908260Y-84379909D01*
X72225423Y-84854577D01*
X72581499Y-85092499D01*
X72155500Y-85435104D01*
X71885633Y-85928181D01*
X71868096Y-86010961D01*
X71990085Y-86233000D01*
X73533000Y-86233000D01*
X73533000Y-86213000D01*
X73787000Y-86213000D01*
X73787000Y-86233000D01*
X75329915Y-86233000D01*
X75451904Y-86010961D01*
X75434367Y-85928181D01*
X75164500Y-85435104D01*
X74738501Y-85092499D01*
X75094577Y-84854577D01*
X75411740Y-84379909D01*
X75523113Y-83820000D01*
X75522595Y-83817396D01*
X79250000Y-87544802D01*
X79250001Y-90221956D01*
X78975423Y-90405423D01*
X78658260Y-90880091D01*
X78546887Y-91440000D01*
X78658260Y-91999909D01*
X78975423Y-92474577D01*
X79450091Y-92791740D01*
X79868667Y-92875000D01*
X80151333Y-92875000D01*
X80569909Y-92791740D01*
X81044577Y-92474577D01*
X81361740Y-91999909D01*
X81473113Y-91440000D01*
X84896887Y-91440000D01*
X85008260Y-91999909D01*
X85325423Y-92474577D01*
X85800091Y-92791740D01*
X86218667Y-92875000D01*
X86501333Y-92875000D01*
X86919909Y-92791740D01*
X87394577Y-92474577D01*
X87427996Y-92424561D01*
X92545000Y-92424561D01*
X92545000Y-92995439D01*
X92763466Y-93522862D01*
X93167138Y-93926534D01*
X93694561Y-94145000D01*
X94265439Y-94145000D01*
X94792862Y-93926534D01*
X95196534Y-93522862D01*
X95415000Y-92995439D01*
X95415000Y-92424561D01*
X95196534Y-91897138D01*
X94792862Y-91493466D01*
X94265439Y-91275000D01*
X93694561Y-91275000D01*
X93167138Y-91493466D01*
X92763466Y-91897138D01*
X92545000Y-92424561D01*
X87427996Y-92424561D01*
X87711740Y-91999909D01*
X87823113Y-91440000D01*
X87711740Y-90880091D01*
X87394577Y-90405423D01*
X86919909Y-90088260D01*
X86501333Y-90005000D01*
X86218667Y-90005000D01*
X85800091Y-90088260D01*
X85325423Y-90405423D01*
X85008260Y-90880091D01*
X84896887Y-91440000D01*
X81473113Y-91440000D01*
X81361740Y-90880091D01*
X81044577Y-90405423D01*
X80770000Y-90221957D01*
X80770000Y-87795000D01*
X81821333Y-87795000D01*
X82239909Y-87711740D01*
X82362241Y-87630000D01*
X84896887Y-87630000D01*
X85008260Y-88189909D01*
X85325423Y-88664577D01*
X85800091Y-88981740D01*
X86218667Y-89065000D01*
X86501333Y-89065000D01*
X86919909Y-88981740D01*
X87394577Y-88664577D01*
X87711740Y-88189909D01*
X87823113Y-87630000D01*
X87711740Y-87070091D01*
X87470493Y-86709039D01*
X92188096Y-86709039D01*
X92205633Y-86791819D01*
X92475500Y-87284896D01*
X92913517Y-87637166D01*
X93453000Y-87795000D01*
X93853000Y-87795000D01*
X93853000Y-86487000D01*
X94107000Y-86487000D01*
X94107000Y-87795000D01*
X94507000Y-87795000D01*
X95046483Y-87637166D01*
X95484500Y-87284896D01*
X95754367Y-86791819D01*
X95771904Y-86709039D01*
X95649915Y-86487000D01*
X94107000Y-86487000D01*
X93853000Y-86487000D01*
X92310085Y-86487000D01*
X92188096Y-86709039D01*
X87470493Y-86709039D01*
X87394577Y-86595423D01*
X86919909Y-86278260D01*
X86501333Y-86195000D01*
X86218667Y-86195000D01*
X85800091Y-86278260D01*
X85325423Y-86595423D01*
X85008260Y-87070091D01*
X84896887Y-87630000D01*
X82362241Y-87630000D01*
X82714577Y-87394577D01*
X83031740Y-86919909D01*
X83143113Y-86360000D01*
X83031740Y-85800091D01*
X82714577Y-85325423D01*
X82362242Y-85090000D01*
X82714577Y-84854577D01*
X83031740Y-84379909D01*
X83143113Y-83820000D01*
X83031740Y-83260091D01*
X82714577Y-82785423D01*
X82362242Y-82550000D01*
X82714577Y-82314577D01*
X83031740Y-81839909D01*
X83143113Y-81280000D01*
X83142595Y-81277397D01*
X84754681Y-82889483D01*
X84797081Y-82952939D01*
X84860537Y-82995339D01*
X85048472Y-83120914D01*
X85096615Y-83130490D01*
X85270158Y-83165010D01*
X85270162Y-83165010D01*
X85345010Y-83179898D01*
X85419858Y-83165010D01*
X92291791Y-83165010D01*
X92228260Y-83260091D01*
X92116887Y-83820000D01*
X92228260Y-84379909D01*
X92545423Y-84854577D01*
X92901499Y-85092499D01*
X92475500Y-85435104D01*
X92205633Y-85928181D01*
X92188096Y-86010961D01*
X92310085Y-86233000D01*
X93853000Y-86233000D01*
X93853000Y-86213000D01*
X94107000Y-86213000D01*
X94107000Y-86233000D01*
X95649915Y-86233000D01*
X95771904Y-86010961D01*
X95754367Y-85928181D01*
X95484500Y-85435104D01*
X95058501Y-85092499D01*
X95414577Y-84854577D01*
X95731740Y-84379909D01*
X95843113Y-83820000D01*
X95731740Y-83260091D01*
X95668209Y-83165010D01*
X97460143Y-83165010D01*
X97534990Y-83179898D01*
X97609837Y-83165010D01*
X97609842Y-83165010D01*
X97831527Y-83120914D01*
X98082919Y-82952939D01*
X98125321Y-82889480D01*
X99314991Y-81699810D01*
X99314990Y-97805143D01*
X99305048Y-97855122D01*
X99197191Y-97927191D01*
X99119856Y-98042930D01*
X98993633Y-97930522D01*
X98659400Y-97792090D01*
X98457000Y-97915776D01*
X98457000Y-98933000D01*
X98477000Y-98933000D01*
X98477000Y-99187000D01*
X98457000Y-99187000D01*
X98457000Y-100204224D01*
X98659400Y-100327910D01*
X98993633Y-100189478D01*
X99119856Y-100077070D01*
X99197191Y-100192809D01*
X99407235Y-100333157D01*
X99655000Y-100382440D01*
X101005000Y-100382440D01*
X101252765Y-100333157D01*
X101462809Y-100192809D01*
X101603157Y-99982765D01*
X101652440Y-99735000D01*
X101652440Y-99060000D01*
X107694336Y-99060000D01*
X107796007Y-99571136D01*
X108085543Y-100004457D01*
X108518864Y-100293993D01*
X108900978Y-100370000D01*
X109159022Y-100370000D01*
X109541136Y-100293993D01*
X109974457Y-100004457D01*
X110030000Y-99921331D01*
X110085543Y-100004457D01*
X110518864Y-100293993D01*
X110900978Y-100370000D01*
X111159022Y-100370000D01*
X111541136Y-100293993D01*
X111834032Y-100098286D01*
X111897191Y-100192809D01*
X112107235Y-100333157D01*
X112355000Y-100382440D01*
X113705000Y-100382440D01*
X113952765Y-100333157D01*
X114162809Y-100192809D01*
X114303157Y-99982765D01*
X114352440Y-99735000D01*
X114352440Y-99060000D01*
X119314336Y-99060000D01*
X119416007Y-99571136D01*
X119705543Y-100004457D01*
X120138864Y-100293993D01*
X120520978Y-100370000D01*
X120779022Y-100370000D01*
X121161136Y-100293993D01*
X121594457Y-100004457D01*
X121650000Y-99921331D01*
X121705543Y-100004457D01*
X122138864Y-100293993D01*
X122520978Y-100370000D01*
X122779022Y-100370000D01*
X123161136Y-100293993D01*
X123454032Y-100098286D01*
X123517191Y-100192809D01*
X123727235Y-100333157D01*
X123975000Y-100382440D01*
X125325000Y-100382440D01*
X125572765Y-100333157D01*
X125782809Y-100192809D01*
X125923157Y-99982765D01*
X125972440Y-99735000D01*
X125972440Y-99060000D01*
X130554336Y-99060000D01*
X130656007Y-99571136D01*
X130945543Y-100004457D01*
X131378864Y-100293993D01*
X131760978Y-100370000D01*
X132019022Y-100370000D01*
X132401136Y-100293993D01*
X132834457Y-100004457D01*
X132890000Y-99921331D01*
X132945543Y-100004457D01*
X133378864Y-100293993D01*
X133760978Y-100370000D01*
X134019022Y-100370000D01*
X134401136Y-100293993D01*
X134694032Y-100098286D01*
X134757191Y-100192809D01*
X134967235Y-100333157D01*
X135215000Y-100382440D01*
X136565000Y-100382440D01*
X136812765Y-100333157D01*
X137022809Y-100192809D01*
X137163157Y-99982765D01*
X137212440Y-99735000D01*
X137212440Y-98774561D01*
X144615000Y-98774561D01*
X144615000Y-99345439D01*
X144833466Y-99872862D01*
X145237138Y-100276534D01*
X145764561Y-100495000D01*
X146335439Y-100495000D01*
X146862862Y-100276534D01*
X147266534Y-99872862D01*
X147485000Y-99345439D01*
X147485000Y-99060000D01*
X152206887Y-99060000D01*
X152318260Y-99619909D01*
X152635423Y-100094577D01*
X153110091Y-100411740D01*
X153528667Y-100495000D01*
X153811333Y-100495000D01*
X154229909Y-100411740D01*
X154704577Y-100094577D01*
X155021740Y-99619909D01*
X155133113Y-99060000D01*
X155021740Y-98500091D01*
X154704577Y-98025423D01*
X154229909Y-97708260D01*
X153811333Y-97625000D01*
X153528667Y-97625000D01*
X153110091Y-97708260D01*
X152635423Y-98025423D01*
X152318260Y-98500091D01*
X152206887Y-99060000D01*
X147485000Y-99060000D01*
X147485000Y-98774561D01*
X147266534Y-98247138D01*
X146862862Y-97843466D01*
X146335439Y-97625000D01*
X145764561Y-97625000D01*
X145237138Y-97843466D01*
X144833466Y-98247138D01*
X144615000Y-98774561D01*
X137212440Y-98774561D01*
X137212440Y-98385000D01*
X137163157Y-98137235D01*
X137022809Y-97927191D01*
X136812765Y-97786843D01*
X136565000Y-97737560D01*
X135215000Y-97737560D01*
X134967235Y-97786843D01*
X134757191Y-97927191D01*
X134694032Y-98021714D01*
X134401136Y-97826007D01*
X134019022Y-97750000D01*
X133760978Y-97750000D01*
X133378864Y-97826007D01*
X132945543Y-98115543D01*
X132890000Y-98198669D01*
X132834457Y-98115543D01*
X132401136Y-97826007D01*
X132019022Y-97750000D01*
X131760978Y-97750000D01*
X131378864Y-97826007D01*
X130945543Y-98115543D01*
X130656007Y-98548864D01*
X130554336Y-99060000D01*
X125972440Y-99060000D01*
X125972440Y-98385000D01*
X125923157Y-98137235D01*
X125782809Y-97927191D01*
X125572765Y-97786843D01*
X125325000Y-97737560D01*
X123975000Y-97737560D01*
X123727235Y-97786843D01*
X123517191Y-97927191D01*
X123454032Y-98021714D01*
X123161136Y-97826007D01*
X122992365Y-97792436D01*
X126661698Y-94123104D01*
X126714561Y-94145000D01*
X127285439Y-94145000D01*
X127812862Y-93926534D01*
X128216534Y-93522862D01*
X128435000Y-92995439D01*
X128435000Y-92424561D01*
X133225000Y-92424561D01*
X133225000Y-92995439D01*
X133443466Y-93522862D01*
X133847138Y-93926534D01*
X134374561Y-94145000D01*
X134945439Y-94145000D01*
X135472862Y-93926534D01*
X135876534Y-93522862D01*
X135910000Y-93442068D01*
X135943466Y-93522862D01*
X136347138Y-93926534D01*
X136874561Y-94145000D01*
X137445439Y-94145000D01*
X137843783Y-93980000D01*
X144586887Y-93980000D01*
X144698260Y-94539909D01*
X145015423Y-95014577D01*
X145490091Y-95331740D01*
X145908667Y-95415000D01*
X146191333Y-95415000D01*
X146609909Y-95331740D01*
X147084577Y-95014577D01*
X147401740Y-94539909D01*
X147513113Y-93980000D01*
X147456336Y-93694561D01*
X152235000Y-93694561D01*
X152235000Y-94265439D01*
X152453466Y-94792862D01*
X152857138Y-95196534D01*
X153384561Y-95415000D01*
X153955439Y-95415000D01*
X154482862Y-95196534D01*
X154886534Y-94792862D01*
X155105000Y-94265439D01*
X155105000Y-93694561D01*
X154886534Y-93167138D01*
X154482862Y-92763466D01*
X154353784Y-92710000D01*
X159826887Y-92710000D01*
X159938260Y-93269909D01*
X160255423Y-93744577D01*
X160730091Y-94061740D01*
X161148667Y-94145000D01*
X161431333Y-94145000D01*
X161849909Y-94061740D01*
X162324577Y-93744577D01*
X162641740Y-93269909D01*
X162753113Y-92710000D01*
X162641740Y-92150091D01*
X162324577Y-91675423D01*
X161849909Y-91358260D01*
X161431333Y-91275000D01*
X161148667Y-91275000D01*
X160730091Y-91358260D01*
X160255423Y-91675423D01*
X159938260Y-92150091D01*
X159826887Y-92710000D01*
X154353784Y-92710000D01*
X153955439Y-92545000D01*
X153384561Y-92545000D01*
X152857138Y-92763466D01*
X152453466Y-93167138D01*
X152235000Y-93694561D01*
X147456336Y-93694561D01*
X147401740Y-93420091D01*
X147084577Y-92945423D01*
X146609909Y-92628260D01*
X146191333Y-92545000D01*
X145908667Y-92545000D01*
X145490091Y-92628260D01*
X145015423Y-92945423D01*
X144698260Y-93420091D01*
X144586887Y-93980000D01*
X137843783Y-93980000D01*
X137972862Y-93926534D01*
X138376534Y-93522862D01*
X138595000Y-92995439D01*
X138595000Y-92424561D01*
X138376534Y-91897138D01*
X137972862Y-91493466D01*
X137445439Y-91275000D01*
X136874561Y-91275000D01*
X136347138Y-91493466D01*
X135943466Y-91897138D01*
X135910000Y-91977932D01*
X135876534Y-91897138D01*
X135472862Y-91493466D01*
X134945439Y-91275000D01*
X134374561Y-91275000D01*
X133847138Y-91493466D01*
X133443466Y-91897138D01*
X133225000Y-92424561D01*
X128435000Y-92424561D01*
X128216534Y-91897138D01*
X127812862Y-91493466D01*
X127285439Y-91275000D01*
X126714561Y-91275000D01*
X126187138Y-91493466D01*
X125783466Y-91897138D01*
X125565000Y-92424561D01*
X125565000Y-92995439D01*
X125586896Y-93048302D01*
X120867583Y-97767616D01*
X120779022Y-97750000D01*
X120520978Y-97750000D01*
X120138864Y-97826007D01*
X119705543Y-98115543D01*
X119416007Y-98548864D01*
X119314336Y-99060000D01*
X114352440Y-99060000D01*
X114352440Y-98385000D01*
X114303157Y-98137235D01*
X114162809Y-97927191D01*
X113952765Y-97786843D01*
X113705000Y-97737560D01*
X112355000Y-97737560D01*
X112107235Y-97786843D01*
X111897191Y-97927191D01*
X111834032Y-98021714D01*
X111541136Y-97826007D01*
X111159022Y-97750000D01*
X110900978Y-97750000D01*
X110518864Y-97826007D01*
X110085543Y-98115543D01*
X110030000Y-98198669D01*
X109974457Y-98115543D01*
X109541136Y-97826007D01*
X109159022Y-97750000D01*
X108900978Y-97750000D01*
X108518864Y-97826007D01*
X108085543Y-98115543D01*
X107796007Y-98548864D01*
X107694336Y-99060000D01*
X101652440Y-99060000D01*
X101652440Y-98385000D01*
X101603157Y-98137235D01*
X101462809Y-97927191D01*
X101252765Y-97786843D01*
X101005000Y-97737560D01*
X100978483Y-97737560D01*
X100877929Y-97587071D01*
X100834990Y-97558380D01*
X100834990Y-93924696D01*
X101040091Y-94061740D01*
X101458667Y-94145000D01*
X101741333Y-94145000D01*
X102159909Y-94061740D01*
X102634577Y-93744577D01*
X102951740Y-93269909D01*
X103063113Y-92710000D01*
X103006336Y-92424561D01*
X110365000Y-92424561D01*
X110365000Y-92995439D01*
X110583466Y-93522862D01*
X110987138Y-93926534D01*
X111514561Y-94145000D01*
X112085439Y-94145000D01*
X112612862Y-93926534D01*
X113016534Y-93522862D01*
X113050000Y-93442068D01*
X113083466Y-93522862D01*
X113487138Y-93926534D01*
X114014561Y-94145000D01*
X114585439Y-94145000D01*
X115112862Y-93926534D01*
X115516534Y-93522862D01*
X115735000Y-92995439D01*
X115735000Y-92710000D01*
X117916887Y-92710000D01*
X118028260Y-93269909D01*
X118345423Y-93744577D01*
X118820091Y-94061740D01*
X119238667Y-94145000D01*
X119521333Y-94145000D01*
X119939909Y-94061740D01*
X120414577Y-93744577D01*
X120731740Y-93269909D01*
X120843113Y-92710000D01*
X120731740Y-92150091D01*
X120414577Y-91675423D01*
X119939909Y-91358260D01*
X119521333Y-91275000D01*
X119238667Y-91275000D01*
X118820091Y-91358260D01*
X118345423Y-91675423D01*
X118028260Y-92150091D01*
X117916887Y-92710000D01*
X115735000Y-92710000D01*
X115735000Y-92424561D01*
X115516534Y-91897138D01*
X115112862Y-91493466D01*
X114585439Y-91275000D01*
X114014561Y-91275000D01*
X113487138Y-91493466D01*
X113083466Y-91897138D01*
X113050000Y-91977932D01*
X113016534Y-91897138D01*
X112612862Y-91493466D01*
X112085439Y-91275000D01*
X111514561Y-91275000D01*
X110987138Y-91493466D01*
X110583466Y-91897138D01*
X110365000Y-92424561D01*
X103006336Y-92424561D01*
X102951740Y-92150091D01*
X102634577Y-91675423D01*
X102159909Y-91358260D01*
X101741333Y-91275000D01*
X101458667Y-91275000D01*
X101040091Y-91358260D01*
X100834990Y-91495304D01*
X100834990Y-87750508D01*
X101058667Y-87795000D01*
X102141333Y-87795000D01*
X102559909Y-87711740D01*
X103034577Y-87394577D01*
X103351740Y-86919909D01*
X103393684Y-86709039D01*
X109968096Y-86709039D01*
X109985633Y-86791819D01*
X110255500Y-87284896D01*
X110693517Y-87637166D01*
X111233000Y-87795000D01*
X111633000Y-87795000D01*
X111633000Y-86487000D01*
X111887000Y-86487000D01*
X111887000Y-87795000D01*
X112287000Y-87795000D01*
X112826483Y-87637166D01*
X113264500Y-87284896D01*
X113534367Y-86791819D01*
X113551904Y-86709039D01*
X113429915Y-86487000D01*
X111887000Y-86487000D01*
X111633000Y-86487000D01*
X110090085Y-86487000D01*
X109968096Y-86709039D01*
X103393684Y-86709039D01*
X103463113Y-86360000D01*
X103351740Y-85800091D01*
X103034577Y-85325423D01*
X102682242Y-85090000D01*
X103034577Y-84854577D01*
X103351740Y-84379909D01*
X103463113Y-83820000D01*
X103351740Y-83260091D01*
X103034577Y-82785423D01*
X102682242Y-82550000D01*
X103034577Y-82314577D01*
X103351740Y-81839909D01*
X103463113Y-81280000D01*
X103351740Y-80720091D01*
X103288203Y-80625001D01*
X110071797Y-80625001D01*
X110008260Y-80720091D01*
X109896887Y-81280000D01*
X110008260Y-81839909D01*
X110325423Y-82314577D01*
X110677758Y-82550000D01*
X110325423Y-82785423D01*
X110008260Y-83260091D01*
X109896887Y-83820000D01*
X110008260Y-84379909D01*
X110325423Y-84854577D01*
X110681499Y-85092499D01*
X110255500Y-85435104D01*
X109985633Y-85928181D01*
X109968096Y-86010961D01*
X110090085Y-86233000D01*
X111633000Y-86233000D01*
X111633000Y-86213000D01*
X111887000Y-86213000D01*
X111887000Y-86233000D01*
X113429915Y-86233000D01*
X113551904Y-86010961D01*
X113534367Y-85928181D01*
X113264500Y-85435104D01*
X112838501Y-85092499D01*
X113194577Y-84854577D01*
X113511740Y-84379909D01*
X113623113Y-83820000D01*
X113511740Y-83260091D01*
X113194577Y-82785423D01*
X112842242Y-82550000D01*
X113194577Y-82314577D01*
X113511740Y-81839909D01*
X113623113Y-81280000D01*
X113511740Y-80720091D01*
X113448203Y-80625001D01*
X116730152Y-80625001D01*
X116804999Y-80639889D01*
X116879846Y-80625001D01*
X116879851Y-80625001D01*
X117101536Y-80580905D01*
X117352928Y-80412930D01*
X117395330Y-80349471D01*
X117960290Y-79784511D01*
X118297758Y-80010000D01*
X117945423Y-80245423D01*
X117628260Y-80720091D01*
X117516887Y-81280000D01*
X117628260Y-81839909D01*
X117945423Y-82314577D01*
X118297758Y-82550000D01*
X117945423Y-82785423D01*
X117628260Y-83260091D01*
X117516887Y-83820000D01*
X117628260Y-84379909D01*
X117945423Y-84854577D01*
X118297758Y-85090000D01*
X117945423Y-85325423D01*
X117628260Y-85800091D01*
X117516887Y-86360000D01*
X117628260Y-86919909D01*
X117945423Y-87394577D01*
X118420091Y-87711740D01*
X118838667Y-87795000D01*
X119921333Y-87795000D01*
X120339909Y-87711740D01*
X120814577Y-87394577D01*
X121131740Y-86919909D01*
X121243113Y-86360000D01*
X125536887Y-86360000D01*
X125648260Y-86919909D01*
X125965423Y-87394577D01*
X126440091Y-87711740D01*
X126858667Y-87795000D01*
X127141333Y-87795000D01*
X127559909Y-87711740D01*
X128034577Y-87394577D01*
X128351740Y-86919909D01*
X128463113Y-86360000D01*
X131886887Y-86360000D01*
X131998260Y-86919909D01*
X132315423Y-87394577D01*
X132790091Y-87711740D01*
X133208667Y-87795000D01*
X133491333Y-87795000D01*
X133909909Y-87711740D01*
X134384577Y-87394577D01*
X134701740Y-86919909D01*
X134813113Y-86360000D01*
X134756336Y-86074561D01*
X136995000Y-86074561D01*
X136995000Y-86645439D01*
X137213466Y-87172862D01*
X137617138Y-87576534D01*
X138144561Y-87795000D01*
X138715439Y-87795000D01*
X139242862Y-87576534D01*
X139646534Y-87172862D01*
X139838655Y-86709039D01*
X142988096Y-86709039D01*
X143005633Y-86791819D01*
X143275500Y-87284896D01*
X143713517Y-87637166D01*
X144253000Y-87795000D01*
X144653000Y-87795000D01*
X144653000Y-86487000D01*
X144907000Y-86487000D01*
X144907000Y-87795000D01*
X145307000Y-87795000D01*
X145846483Y-87637166D01*
X146284500Y-87284896D01*
X146554367Y-86791819D01*
X146571904Y-86709039D01*
X146449915Y-86487000D01*
X144907000Y-86487000D01*
X144653000Y-86487000D01*
X143110085Y-86487000D01*
X142988096Y-86709039D01*
X139838655Y-86709039D01*
X139865000Y-86645439D01*
X139865000Y-86074561D01*
X139646534Y-85547138D01*
X139242862Y-85143466D01*
X138715439Y-84925000D01*
X138144561Y-84925000D01*
X137617138Y-85143466D01*
X137213466Y-85547138D01*
X136995000Y-86074561D01*
X134756336Y-86074561D01*
X134701740Y-85800091D01*
X134384577Y-85325423D01*
X133909909Y-85008260D01*
X133491333Y-84925000D01*
X133208667Y-84925000D01*
X132790091Y-85008260D01*
X132315423Y-85325423D01*
X131998260Y-85800091D01*
X131886887Y-86360000D01*
X128463113Y-86360000D01*
X128351740Y-85800091D01*
X128034577Y-85325423D01*
X127559909Y-85008260D01*
X127141333Y-84925000D01*
X126858667Y-84925000D01*
X126440091Y-85008260D01*
X125965423Y-85325423D01*
X125648260Y-85800091D01*
X125536887Y-86360000D01*
X121243113Y-86360000D01*
X121131740Y-85800091D01*
X120814577Y-85325423D01*
X120462242Y-85090000D01*
X120814577Y-84854577D01*
X121131740Y-84379909D01*
X121243113Y-83820000D01*
X121131740Y-83260091D01*
X120814577Y-82785423D01*
X120462242Y-82550000D01*
X120814577Y-82314577D01*
X121131740Y-81839909D01*
X121243113Y-81280000D01*
X121131740Y-80720091D01*
X121068203Y-80625001D01*
X143091797Y-80625001D01*
X143028260Y-80720091D01*
X142916887Y-81280000D01*
X143028260Y-81839909D01*
X143345423Y-82314577D01*
X143697758Y-82550000D01*
X143345423Y-82785423D01*
X143028260Y-83260091D01*
X142916887Y-83820000D01*
X143028260Y-84379909D01*
X143345423Y-84854577D01*
X143701499Y-85092499D01*
X143275500Y-85435104D01*
X143005633Y-85928181D01*
X142988096Y-86010961D01*
X143110085Y-86233000D01*
X144653000Y-86233000D01*
X144653000Y-86213000D01*
X144907000Y-86213000D01*
X144907000Y-86233000D01*
X146449915Y-86233000D01*
X146571904Y-86010961D01*
X146554367Y-85928181D01*
X146284500Y-85435104D01*
X145858501Y-85092499D01*
X146214577Y-84854577D01*
X146531740Y-84379909D01*
X146643113Y-83820000D01*
X146531740Y-83260091D01*
X146214577Y-82785423D01*
X145862242Y-82550000D01*
X146214577Y-82314577D01*
X146531740Y-81839909D01*
X146643113Y-81280000D01*
X146531740Y-80720091D01*
X146468203Y-80625001D01*
X149750152Y-80625001D01*
X149824999Y-80639889D01*
X149899846Y-80625001D01*
X149899851Y-80625001D01*
X150121536Y-80580905D01*
X150372928Y-80412930D01*
X150415330Y-80349471D01*
X150980290Y-79784511D01*
X151317758Y-80010000D01*
X150965423Y-80245423D01*
X150648260Y-80720091D01*
X150536887Y-81280000D01*
X150648260Y-81839909D01*
X150965423Y-82314577D01*
X151317758Y-82550000D01*
X150965423Y-82785423D01*
X150648260Y-83260091D01*
X150536887Y-83820000D01*
X150648260Y-84379909D01*
X150965423Y-84854577D01*
X151317758Y-85090000D01*
X150965423Y-85325423D01*
X150648260Y-85800091D01*
X150536887Y-86360000D01*
X150648260Y-86919909D01*
X150965423Y-87394577D01*
X151440091Y-87711740D01*
X151858667Y-87795000D01*
X152941333Y-87795000D01*
X153359909Y-87711740D01*
X153834577Y-87394577D01*
X154151740Y-86919909D01*
X154263113Y-86360000D01*
X154151740Y-85800091D01*
X153834577Y-85325423D01*
X153482242Y-85090000D01*
X153834577Y-84854577D01*
X154151740Y-84379909D01*
X154169624Y-84290000D01*
X159842560Y-84290000D01*
X159842560Y-85890000D01*
X159891843Y-86137765D01*
X160032191Y-86347809D01*
X160242235Y-86488157D01*
X160490000Y-86537440D01*
X162090000Y-86537440D01*
X162337765Y-86488157D01*
X162547809Y-86347809D01*
X162688157Y-86137765D01*
X162737440Y-85890000D01*
X162737440Y-84290000D01*
X162688157Y-84042235D01*
X162547809Y-83832191D01*
X162337765Y-83691843D01*
X162090000Y-83642560D01*
X160490000Y-83642560D01*
X160242235Y-83691843D01*
X160032191Y-83832191D01*
X159891843Y-84042235D01*
X159842560Y-84290000D01*
X154169624Y-84290000D01*
X154263113Y-83820000D01*
X154151740Y-83260091D01*
X153834577Y-82785423D01*
X153482242Y-82550000D01*
X153834577Y-82314577D01*
X154151740Y-81839909D01*
X154263113Y-81280000D01*
X159826887Y-81280000D01*
X159938260Y-81839909D01*
X160255423Y-82314577D01*
X160730091Y-82631740D01*
X161148667Y-82715000D01*
X161431333Y-82715000D01*
X161849909Y-82631740D01*
X162324577Y-82314577D01*
X162641740Y-81839909D01*
X162753113Y-81280000D01*
X162641740Y-80720091D01*
X162324577Y-80245423D01*
X161849909Y-79928260D01*
X161431333Y-79845000D01*
X161148667Y-79845000D01*
X160730091Y-79928260D01*
X160255423Y-80245423D01*
X159938260Y-80720091D01*
X159826887Y-81280000D01*
X154263113Y-81280000D01*
X154151740Y-80720091D01*
X153834577Y-80245423D01*
X153482242Y-80010000D01*
X153834577Y-79774577D01*
X154151740Y-79299909D01*
X154263113Y-78740000D01*
X154151740Y-78180091D01*
X153834577Y-77705423D01*
X153359909Y-77388260D01*
X152941333Y-77305000D01*
X151858667Y-77305000D01*
X151440091Y-77388260D01*
X150965423Y-77705423D01*
X150767672Y-78001378D01*
X150701605Y-78014520D01*
X150653462Y-78024096D01*
X150466418Y-78149076D01*
X150402071Y-78192071D01*
X150359671Y-78255527D01*
X149510198Y-79105001D01*
X146627440Y-79105001D01*
X146627440Y-77940000D01*
X146578157Y-77692235D01*
X146437809Y-77482191D01*
X146227765Y-77341843D01*
X145980000Y-77292560D01*
X143580000Y-77292560D01*
X143332235Y-77341843D01*
X143122191Y-77482191D01*
X142981843Y-77692235D01*
X142932560Y-77940000D01*
X142932560Y-79105001D01*
X139820510Y-79105001D01*
X139893113Y-78740000D01*
X139781740Y-78180091D01*
X139464577Y-77705423D01*
X138989909Y-77388260D01*
X138571333Y-77305000D01*
X138288667Y-77305000D01*
X137870091Y-77388260D01*
X137395423Y-77705423D01*
X137078260Y-78180091D01*
X136966887Y-78740000D01*
X137039490Y-79105001D01*
X134752044Y-79105001D01*
X134785000Y-79025439D01*
X134785000Y-78454561D01*
X134566534Y-77927138D01*
X134162862Y-77523466D01*
X133635439Y-77305000D01*
X133064561Y-77305000D01*
X132537138Y-77523466D01*
X132133466Y-77927138D01*
X131915000Y-78454561D01*
X131915000Y-79025439D01*
X131947956Y-79105001D01*
X128402044Y-79105001D01*
X128435000Y-79025439D01*
X128435000Y-78454561D01*
X128216534Y-77927138D01*
X127812862Y-77523466D01*
X127285439Y-77305000D01*
X126714561Y-77305000D01*
X126187138Y-77523466D01*
X125783466Y-77927138D01*
X125565000Y-78454561D01*
X125565000Y-79025439D01*
X125597956Y-79105001D01*
X121219803Y-79105001D01*
X121178688Y-79063886D01*
X121243113Y-78740000D01*
X121131740Y-78180091D01*
X120814577Y-77705423D01*
X120339909Y-77388260D01*
X119921333Y-77305000D01*
X118838667Y-77305000D01*
X118420091Y-77388260D01*
X117945423Y-77705423D01*
X117747672Y-78001378D01*
X117681605Y-78014520D01*
X117633462Y-78024096D01*
X117446418Y-78149076D01*
X117382071Y-78192071D01*
X117339671Y-78255527D01*
X116490198Y-79105001D01*
X113607440Y-79105001D01*
X113607440Y-77940000D01*
X113558157Y-77692235D01*
X113417809Y-77482191D01*
X113207765Y-77341843D01*
X112960000Y-77292560D01*
X110560000Y-77292560D01*
X110312235Y-77341843D01*
X110102191Y-77482191D01*
X109961843Y-77692235D01*
X109912560Y-77940000D01*
X109912560Y-79105001D01*
X103439803Y-79105001D01*
X103398688Y-79063886D01*
X103463113Y-78740000D01*
X103351740Y-78180091D01*
X103034577Y-77705423D01*
X102559909Y-77388260D01*
X102141333Y-77305000D01*
X101058667Y-77305000D01*
X100640091Y-77388260D01*
X100165423Y-77705423D01*
X99848260Y-78180091D01*
X99736887Y-78740000D01*
X99801312Y-79063886D01*
X99590516Y-79274682D01*
X99527062Y-79317081D01*
X99484663Y-79380535D01*
X97220189Y-81645010D01*
X95770508Y-81645010D01*
X95843113Y-81280000D01*
X95731740Y-80720091D01*
X95414577Y-80245423D01*
X95293894Y-80164785D01*
X95427765Y-80138157D01*
X95637809Y-79997809D01*
X95778157Y-79787765D01*
X95827440Y-79540000D01*
X95827440Y-77940000D01*
X95778157Y-77692235D01*
X95637809Y-77482191D01*
X95427765Y-77341843D01*
X95180000Y-77292560D01*
X92780000Y-77292560D01*
X92532235Y-77341843D01*
X92322191Y-77482191D01*
X92181843Y-77692235D01*
X92132560Y-77940000D01*
X92132560Y-79540000D01*
X92181843Y-79787765D01*
X92322191Y-79997809D01*
X92532235Y-80138157D01*
X92666106Y-80164785D01*
X92545423Y-80245423D01*
X92361957Y-80520000D01*
X91754802Y-80520000D01*
X83948688Y-72713887D01*
X84013113Y-72390000D01*
X83956336Y-72104561D01*
X88735000Y-72104561D01*
X88735000Y-72675439D01*
X88953466Y-73202862D01*
X89357138Y-73606534D01*
X89884561Y-73825000D01*
X90455439Y-73825000D01*
X90982862Y-73606534D01*
X91386534Y-73202862D01*
X91605000Y-72675439D01*
X91605000Y-72390000D01*
X92516887Y-72390000D01*
X92628260Y-72949909D01*
X92945423Y-73424577D01*
X93420091Y-73741740D01*
X93838667Y-73825000D01*
X94121333Y-73825000D01*
X94539909Y-73741740D01*
X95014577Y-73424577D01*
X95331740Y-72949909D01*
X95443113Y-72390000D01*
X95386336Y-72104561D01*
X100165000Y-72104561D01*
X100165000Y-72675439D01*
X100383466Y-73202862D01*
X100787138Y-73606534D01*
X101314561Y-73825000D01*
X101885439Y-73825000D01*
X102412862Y-73606534D01*
X102816534Y-73202862D01*
X102870394Y-73072832D01*
X103105423Y-73424577D01*
X103580091Y-73741740D01*
X103998667Y-73825000D01*
X104281333Y-73825000D01*
X104699909Y-73741740D01*
X105174577Y-73424577D01*
X105491740Y-72949909D01*
X105603113Y-72390000D01*
X105546336Y-72104561D01*
X110325000Y-72104561D01*
X110325000Y-72675439D01*
X110543466Y-73202862D01*
X110947138Y-73606534D01*
X111474561Y-73825000D01*
X112045439Y-73825000D01*
X112572862Y-73606534D01*
X112976534Y-73202862D01*
X113195000Y-72675439D01*
X113195000Y-72390000D01*
X114106887Y-72390000D01*
X114218260Y-72949909D01*
X114535423Y-73424577D01*
X115010091Y-73741740D01*
X115428667Y-73825000D01*
X115711333Y-73825000D01*
X116129909Y-73741740D01*
X116604577Y-73424577D01*
X116921740Y-72949909D01*
X117033113Y-72390000D01*
X116976336Y-72104561D01*
X121755000Y-72104561D01*
X121755000Y-72675439D01*
X121973466Y-73202862D01*
X122377138Y-73606534D01*
X122904561Y-73825000D01*
X123475439Y-73825000D01*
X124002862Y-73606534D01*
X124406534Y-73202862D01*
X124625000Y-72675439D01*
X124625000Y-72390000D01*
X125536887Y-72390000D01*
X125648260Y-72949909D01*
X125965423Y-73424577D01*
X126440091Y-73741740D01*
X126858667Y-73825000D01*
X127141333Y-73825000D01*
X127559909Y-73741740D01*
X128034577Y-73424577D01*
X128351740Y-72949909D01*
X128463113Y-72390000D01*
X128406336Y-72104561D01*
X133185000Y-72104561D01*
X133185000Y-72675439D01*
X133403466Y-73202862D01*
X133807138Y-73606534D01*
X134334561Y-73825000D01*
X134905439Y-73825000D01*
X135432862Y-73606534D01*
X135836534Y-73202862D01*
X136055000Y-72675439D01*
X136055000Y-72390000D01*
X136966887Y-72390000D01*
X137078260Y-72949909D01*
X137395423Y-73424577D01*
X137870091Y-73741740D01*
X138288667Y-73825000D01*
X138571333Y-73825000D01*
X138989909Y-73741740D01*
X139464577Y-73424577D01*
X139781740Y-72949909D01*
X139893113Y-72390000D01*
X139836336Y-72104561D01*
X144615000Y-72104561D01*
X144615000Y-72675439D01*
X144833466Y-73202862D01*
X145237138Y-73606534D01*
X145764561Y-73825000D01*
X146335439Y-73825000D01*
X146862862Y-73606534D01*
X147266534Y-73202862D01*
X147485000Y-72675439D01*
X147485000Y-72390000D01*
X148396887Y-72390000D01*
X148508260Y-72949909D01*
X148825423Y-73424577D01*
X149300091Y-73741740D01*
X149718667Y-73825000D01*
X150001333Y-73825000D01*
X150419909Y-73741740D01*
X150894577Y-73424577D01*
X151211740Y-72949909D01*
X151323113Y-72390000D01*
X151266336Y-72104561D01*
X156045000Y-72104561D01*
X156045000Y-72675439D01*
X156263466Y-73202862D01*
X156667138Y-73606534D01*
X157194561Y-73825000D01*
X157765439Y-73825000D01*
X158292862Y-73606534D01*
X158696534Y-73202862D01*
X158838552Y-72860000D01*
X159842560Y-72860000D01*
X159842560Y-74460000D01*
X159891843Y-74707765D01*
X160032191Y-74917809D01*
X160242235Y-75058157D01*
X160490000Y-75107440D01*
X162090000Y-75107440D01*
X162337765Y-75058157D01*
X162547809Y-74917809D01*
X162688157Y-74707765D01*
X162737440Y-74460000D01*
X162737440Y-72860000D01*
X162688157Y-72612235D01*
X162547809Y-72402191D01*
X162337765Y-72261843D01*
X162090000Y-72212560D01*
X160490000Y-72212560D01*
X160242235Y-72261843D01*
X160032191Y-72402191D01*
X159891843Y-72612235D01*
X159842560Y-72860000D01*
X158838552Y-72860000D01*
X158915000Y-72675439D01*
X158915000Y-72104561D01*
X158696534Y-71577138D01*
X158292862Y-71173466D01*
X157765439Y-70955000D01*
X157194561Y-70955000D01*
X156667138Y-71173466D01*
X156263466Y-71577138D01*
X156045000Y-72104561D01*
X151266336Y-72104561D01*
X151211740Y-71830091D01*
X150894577Y-71355423D01*
X150419909Y-71038260D01*
X150001333Y-70955000D01*
X149718667Y-70955000D01*
X149300091Y-71038260D01*
X148825423Y-71355423D01*
X148508260Y-71830091D01*
X148396887Y-72390000D01*
X147485000Y-72390000D01*
X147485000Y-72104561D01*
X147266534Y-71577138D01*
X146862862Y-71173466D01*
X146335439Y-70955000D01*
X145764561Y-70955000D01*
X145237138Y-71173466D01*
X144833466Y-71577138D01*
X144615000Y-72104561D01*
X139836336Y-72104561D01*
X139781740Y-71830091D01*
X139464577Y-71355423D01*
X138989909Y-71038260D01*
X138571333Y-70955000D01*
X138288667Y-70955000D01*
X137870091Y-71038260D01*
X137395423Y-71355423D01*
X137078260Y-71830091D01*
X136966887Y-72390000D01*
X136055000Y-72390000D01*
X136055000Y-72104561D01*
X135836534Y-71577138D01*
X135432862Y-71173466D01*
X134905439Y-70955000D01*
X134334561Y-70955000D01*
X133807138Y-71173466D01*
X133403466Y-71577138D01*
X133185000Y-72104561D01*
X128406336Y-72104561D01*
X128351740Y-71830091D01*
X128034577Y-71355423D01*
X127559909Y-71038260D01*
X127141333Y-70955000D01*
X126858667Y-70955000D01*
X126440091Y-71038260D01*
X125965423Y-71355423D01*
X125648260Y-71830091D01*
X125536887Y-72390000D01*
X124625000Y-72390000D01*
X124625000Y-72104561D01*
X124406534Y-71577138D01*
X124002862Y-71173466D01*
X123475439Y-70955000D01*
X122904561Y-70955000D01*
X122377138Y-71173466D01*
X121973466Y-71577138D01*
X121755000Y-72104561D01*
X116976336Y-72104561D01*
X116921740Y-71830091D01*
X116604577Y-71355423D01*
X116129909Y-71038260D01*
X115711333Y-70955000D01*
X115428667Y-70955000D01*
X115010091Y-71038260D01*
X114535423Y-71355423D01*
X114218260Y-71830091D01*
X114106887Y-72390000D01*
X113195000Y-72390000D01*
X113195000Y-72104561D01*
X112976534Y-71577138D01*
X112572862Y-71173466D01*
X112045439Y-70955000D01*
X111474561Y-70955000D01*
X110947138Y-71173466D01*
X110543466Y-71577138D01*
X110325000Y-72104561D01*
X105546336Y-72104561D01*
X105491740Y-71830091D01*
X105174577Y-71355423D01*
X104699909Y-71038260D01*
X104281333Y-70955000D01*
X103998667Y-70955000D01*
X103580091Y-71038260D01*
X103105423Y-71355423D01*
X102870394Y-71707168D01*
X102816534Y-71577138D01*
X102412862Y-71173466D01*
X101885439Y-70955000D01*
X101314561Y-70955000D01*
X100787138Y-71173466D01*
X100383466Y-71577138D01*
X100165000Y-72104561D01*
X95386336Y-72104561D01*
X95331740Y-71830091D01*
X95014577Y-71355423D01*
X94539909Y-71038260D01*
X94121333Y-70955000D01*
X93838667Y-70955000D01*
X93420091Y-71038260D01*
X92945423Y-71355423D01*
X92628260Y-71830091D01*
X92516887Y-72390000D01*
X91605000Y-72390000D01*
X91605000Y-72104561D01*
X91386534Y-71577138D01*
X90982862Y-71173466D01*
X90455439Y-70955000D01*
X89884561Y-70955000D01*
X89357138Y-71173466D01*
X88953466Y-71577138D01*
X88735000Y-72104561D01*
X83956336Y-72104561D01*
X83901740Y-71830091D01*
X83584577Y-71355423D01*
X83109909Y-71038260D01*
X82691333Y-70955000D01*
X82408667Y-70955000D01*
X82040000Y-71028332D01*
X82040000Y-68651984D01*
X82264561Y-68745000D01*
X82835439Y-68745000D01*
X83362862Y-68526534D01*
X83766534Y-68122862D01*
X83985000Y-67595439D01*
X83985000Y-67310000D01*
X88706887Y-67310000D01*
X88818260Y-67869909D01*
X89135423Y-68344577D01*
X89610091Y-68661740D01*
X90028667Y-68745000D01*
X90311333Y-68745000D01*
X90729909Y-68661740D01*
X91204577Y-68344577D01*
X91521740Y-67869909D01*
X91633113Y-67310000D01*
X91576336Y-67024561D01*
X92545000Y-67024561D01*
X92545000Y-67595439D01*
X92763466Y-68122862D01*
X93167138Y-68526534D01*
X93694561Y-68745000D01*
X94265439Y-68745000D01*
X94792862Y-68526534D01*
X95196534Y-68122862D01*
X95415000Y-67595439D01*
X95415000Y-67024561D01*
X97625000Y-67024561D01*
X97625000Y-67595439D01*
X97843466Y-68122862D01*
X98247138Y-68526534D01*
X98774561Y-68745000D01*
X99345439Y-68745000D01*
X99872862Y-68526534D01*
X100276534Y-68122862D01*
X100495000Y-67595439D01*
X100495000Y-67024561D01*
X100276534Y-66497138D01*
X99872862Y-66093466D01*
X99345439Y-65875000D01*
X98774561Y-65875000D01*
X98247138Y-66093466D01*
X97843466Y-66497138D01*
X97625000Y-67024561D01*
X95415000Y-67024561D01*
X95196534Y-66497138D01*
X94792862Y-66093466D01*
X94265439Y-65875000D01*
X93694561Y-65875000D01*
X93167138Y-66093466D01*
X92763466Y-66497138D01*
X92545000Y-67024561D01*
X91576336Y-67024561D01*
X91521740Y-66750091D01*
X91204577Y-66275423D01*
X90729909Y-65958260D01*
X90311333Y-65875000D01*
X90028667Y-65875000D01*
X89610091Y-65958260D01*
X89135423Y-66275423D01*
X88818260Y-66750091D01*
X88706887Y-67310000D01*
X83985000Y-67310000D01*
X83985000Y-67024561D01*
X83766534Y-66497138D01*
X83362862Y-66093466D01*
X82835439Y-65875000D01*
X82264561Y-65875000D01*
X82040000Y-65968016D01*
X82040000Y-62230000D01*
X83626887Y-62230000D01*
X83738260Y-62789909D01*
X84055423Y-63264577D01*
X84530091Y-63581740D01*
X84948667Y-63665000D01*
X85231333Y-63665000D01*
X85649909Y-63581740D01*
X86124577Y-63264577D01*
X86441740Y-62789909D01*
X86553113Y-62230000D01*
X86441740Y-61670091D01*
X86124577Y-61195423D01*
X85649909Y-60878260D01*
X85231333Y-60795000D01*
X84948667Y-60795000D01*
X84530091Y-60878260D01*
X84055423Y-61195423D01*
X83738260Y-61670091D01*
X83626887Y-62230000D01*
X82040000Y-62230000D01*
X82040000Y-58134561D01*
X83655000Y-58134561D01*
X83655000Y-58705439D01*
X83873466Y-59232862D01*
X84277138Y-59636534D01*
X84804561Y-59855000D01*
X85375439Y-59855000D01*
X85773783Y-59690000D01*
X92516887Y-59690000D01*
X92628260Y-60249909D01*
X92945423Y-60724577D01*
X93420091Y-61041740D01*
X93838667Y-61125000D01*
X94121333Y-61125000D01*
X94539909Y-61041740D01*
X95014577Y-60724577D01*
X95331740Y-60249909D01*
X95443113Y-59690000D01*
X97596887Y-59690000D01*
X97708260Y-60249909D01*
X98025423Y-60724577D01*
X98500091Y-61041740D01*
X98918667Y-61125000D01*
X99201333Y-61125000D01*
X99619909Y-61041740D01*
X100094577Y-60724577D01*
X100411740Y-60249909D01*
X100523113Y-59690000D01*
X100411740Y-59130091D01*
X100094577Y-58655423D01*
X99619909Y-58338260D01*
X99201333Y-58255000D01*
X98918667Y-58255000D01*
X98500091Y-58338260D01*
X98025423Y-58655423D01*
X97708260Y-59130091D01*
X97596887Y-59690000D01*
X95443113Y-59690000D01*
X95331740Y-59130091D01*
X95014577Y-58655423D01*
X94539909Y-58338260D01*
X94121333Y-58255000D01*
X93838667Y-58255000D01*
X93420091Y-58338260D01*
X92945423Y-58655423D01*
X92628260Y-59130091D01*
X92516887Y-59690000D01*
X85773783Y-59690000D01*
X85902862Y-59636534D01*
X86306534Y-59232862D01*
X86525000Y-58705439D01*
X86525000Y-58134561D01*
X86306534Y-57607138D01*
X85902862Y-57203466D01*
X85375439Y-56985000D01*
X84804561Y-56985000D01*
X84277138Y-57203466D01*
X83873466Y-57607138D01*
X83655000Y-58134561D01*
X82040000Y-58134561D01*
X82040000Y-56864561D01*
X87505000Y-56864561D01*
X87505000Y-57435439D01*
X87723466Y-57962862D01*
X88127138Y-58366534D01*
X88654561Y-58585000D01*
X89225439Y-58585000D01*
X89752862Y-58366534D01*
X90156534Y-57962862D01*
X90190000Y-57882068D01*
X90223466Y-57962862D01*
X90627138Y-58366534D01*
X91154561Y-58585000D01*
X91725439Y-58585000D01*
X92252862Y-58366534D01*
X92444835Y-58174561D01*
X101435000Y-58174561D01*
X101435000Y-58745439D01*
X101653466Y-59272862D01*
X102057138Y-59676534D01*
X102137932Y-59710000D01*
X102057138Y-59743466D01*
X101653466Y-60147138D01*
X101435000Y-60674561D01*
X101435000Y-61245439D01*
X101653466Y-61772862D01*
X102057138Y-62176534D01*
X102584561Y-62395000D01*
X103155439Y-62395000D01*
X103682862Y-62176534D01*
X104086534Y-61772862D01*
X104305000Y-61245439D01*
X104305000Y-60969802D01*
X105920000Y-62584802D01*
X105920001Y-66071570D01*
X105867138Y-66093466D01*
X105463466Y-66497138D01*
X105245000Y-67024561D01*
X105245000Y-67595439D01*
X105463466Y-68122862D01*
X105867138Y-68526534D01*
X106394561Y-68745000D01*
X106965439Y-68745000D01*
X107492862Y-68526534D01*
X107896534Y-68122862D01*
X108115000Y-67595439D01*
X108115000Y-67024561D01*
X114135000Y-67024561D01*
X114135000Y-67595439D01*
X114353466Y-68122862D01*
X114757138Y-68526534D01*
X115284561Y-68745000D01*
X115855439Y-68745000D01*
X116382862Y-68526534D01*
X116786534Y-68122862D01*
X117005000Y-67595439D01*
X117005000Y-67024561D01*
X120485000Y-67024561D01*
X120485000Y-67595439D01*
X120703466Y-68122862D01*
X121107138Y-68526534D01*
X121634561Y-68745000D01*
X122205439Y-68745000D01*
X122732862Y-68526534D01*
X123136534Y-68122862D01*
X123355000Y-67595439D01*
X123355000Y-67310000D01*
X130616887Y-67310000D01*
X130728260Y-67869909D01*
X131045423Y-68344577D01*
X131520091Y-68661740D01*
X131938667Y-68745000D01*
X132221333Y-68745000D01*
X132639909Y-68661740D01*
X133114577Y-68344577D01*
X133431740Y-67869909D01*
X133543113Y-67310000D01*
X133486336Y-67024561D01*
X138265000Y-67024561D01*
X138265000Y-67595439D01*
X138483466Y-68122862D01*
X138887138Y-68526534D01*
X139414561Y-68745000D01*
X139985439Y-68745000D01*
X140512862Y-68526534D01*
X140916534Y-68122862D01*
X141135000Y-67595439D01*
X141135000Y-67310000D01*
X148396887Y-67310000D01*
X148508260Y-67869909D01*
X148825423Y-68344577D01*
X149300091Y-68661740D01*
X149718667Y-68745000D01*
X150001333Y-68745000D01*
X150419909Y-68661740D01*
X150894577Y-68344577D01*
X151211740Y-67869909D01*
X151323113Y-67310000D01*
X151266336Y-67024561D01*
X156045000Y-67024561D01*
X156045000Y-67595439D01*
X156263466Y-68122862D01*
X156667138Y-68526534D01*
X157194561Y-68745000D01*
X157765439Y-68745000D01*
X158292862Y-68526534D01*
X158696534Y-68122862D01*
X158915000Y-67595439D01*
X158915000Y-67024561D01*
X158696534Y-66497138D01*
X158292862Y-66093466D01*
X157765439Y-65875000D01*
X157194561Y-65875000D01*
X156667138Y-66093466D01*
X156263466Y-66497138D01*
X156045000Y-67024561D01*
X151266336Y-67024561D01*
X151211740Y-66750091D01*
X150894577Y-66275423D01*
X150419909Y-65958260D01*
X150001333Y-65875000D01*
X149718667Y-65875000D01*
X149300091Y-65958260D01*
X148825423Y-66275423D01*
X148508260Y-66750091D01*
X148396887Y-67310000D01*
X141135000Y-67310000D01*
X141135000Y-67024561D01*
X140916534Y-66497138D01*
X140512862Y-66093466D01*
X139985439Y-65875000D01*
X139414561Y-65875000D01*
X138887138Y-66093466D01*
X138483466Y-66497138D01*
X138265000Y-67024561D01*
X133486336Y-67024561D01*
X133431740Y-66750091D01*
X133114577Y-66275423D01*
X132639909Y-65958260D01*
X132221333Y-65875000D01*
X131938667Y-65875000D01*
X131520091Y-65958260D01*
X131045423Y-66275423D01*
X130728260Y-66750091D01*
X130616887Y-67310000D01*
X123355000Y-67310000D01*
X123355000Y-67024561D01*
X123136534Y-66497138D01*
X122732862Y-66093466D01*
X122205439Y-65875000D01*
X121634561Y-65875000D01*
X121107138Y-66093466D01*
X120703466Y-66497138D01*
X120485000Y-67024561D01*
X117005000Y-67024561D01*
X116786534Y-66497138D01*
X116382862Y-66093466D01*
X115855439Y-65875000D01*
X115284561Y-65875000D01*
X114757138Y-66093466D01*
X114353466Y-66497138D01*
X114135000Y-67024561D01*
X108115000Y-67024561D01*
X107896534Y-66497138D01*
X107492862Y-66093466D01*
X107440000Y-66071570D01*
X107440000Y-62344848D01*
X107454888Y-62270000D01*
X107440000Y-62195152D01*
X107440000Y-62195148D01*
X107395904Y-61973463D01*
X107395904Y-61973462D01*
X107270329Y-61785527D01*
X107227929Y-61722071D01*
X107164473Y-61679671D01*
X106609802Y-61125000D01*
X106821333Y-61125000D01*
X107239909Y-61041740D01*
X107714577Y-60724577D01*
X108031740Y-60249909D01*
X108143113Y-59690000D01*
X114106887Y-59690000D01*
X114218260Y-60249909D01*
X114535423Y-60724577D01*
X115010091Y-61041740D01*
X115428667Y-61125000D01*
X115711333Y-61125000D01*
X116129909Y-61041740D01*
X116604577Y-60724577D01*
X116921740Y-60249909D01*
X117033113Y-59690000D01*
X120456887Y-59690000D01*
X120568260Y-60249909D01*
X120885423Y-60724577D01*
X121360091Y-61041740D01*
X121778667Y-61125000D01*
X122061333Y-61125000D01*
X122479909Y-61041740D01*
X122954577Y-60724577D01*
X123271740Y-60249909D01*
X123383113Y-59690000D01*
X123326336Y-59404561D01*
X130645000Y-59404561D01*
X130645000Y-59975439D01*
X130863466Y-60502862D01*
X131267138Y-60906534D01*
X131794561Y-61125000D01*
X132365439Y-61125000D01*
X132892862Y-60906534D01*
X133296534Y-60502862D01*
X133515000Y-59975439D01*
X133515000Y-59690000D01*
X138236887Y-59690000D01*
X138348260Y-60249909D01*
X138665423Y-60724577D01*
X139140091Y-61041740D01*
X139558667Y-61125000D01*
X139841333Y-61125000D01*
X140259909Y-61041740D01*
X140734577Y-60724577D01*
X141051740Y-60249909D01*
X141163113Y-59690000D01*
X141106336Y-59404561D01*
X148425000Y-59404561D01*
X148425000Y-59975439D01*
X148643466Y-60502862D01*
X149047138Y-60906534D01*
X149574561Y-61125000D01*
X150145439Y-61125000D01*
X150672862Y-60906534D01*
X151076534Y-60502862D01*
X151295000Y-59975439D01*
X151295000Y-59690000D01*
X156016887Y-59690000D01*
X156128260Y-60249909D01*
X156445423Y-60724577D01*
X156920091Y-61041740D01*
X157338667Y-61125000D01*
X157621333Y-61125000D01*
X158039909Y-61041740D01*
X158514577Y-60724577D01*
X158831740Y-60249909D01*
X158943113Y-59690000D01*
X158831740Y-59130091D01*
X158514577Y-58655423D01*
X158039909Y-58338260D01*
X157621333Y-58255000D01*
X157338667Y-58255000D01*
X156920091Y-58338260D01*
X156445423Y-58655423D01*
X156128260Y-59130091D01*
X156016887Y-59690000D01*
X151295000Y-59690000D01*
X151295000Y-59404561D01*
X151076534Y-58877138D01*
X150672862Y-58473466D01*
X150145439Y-58255000D01*
X149574561Y-58255000D01*
X149047138Y-58473466D01*
X148643466Y-58877138D01*
X148425000Y-59404561D01*
X141106336Y-59404561D01*
X141051740Y-59130091D01*
X140734577Y-58655423D01*
X140259909Y-58338260D01*
X139841333Y-58255000D01*
X139558667Y-58255000D01*
X139140091Y-58338260D01*
X138665423Y-58655423D01*
X138348260Y-59130091D01*
X138236887Y-59690000D01*
X133515000Y-59690000D01*
X133515000Y-59404561D01*
X133296534Y-58877138D01*
X132892862Y-58473466D01*
X132365439Y-58255000D01*
X131794561Y-58255000D01*
X131267138Y-58473466D01*
X130863466Y-58877138D01*
X130645000Y-59404561D01*
X123326336Y-59404561D01*
X123271740Y-59130091D01*
X122954577Y-58655423D01*
X122479909Y-58338260D01*
X122061333Y-58255000D01*
X121778667Y-58255000D01*
X121360091Y-58338260D01*
X120885423Y-58655423D01*
X120568260Y-59130091D01*
X120456887Y-59690000D01*
X117033113Y-59690000D01*
X116921740Y-59130091D01*
X116604577Y-58655423D01*
X116129909Y-58338260D01*
X115711333Y-58255000D01*
X115428667Y-58255000D01*
X115010091Y-58338260D01*
X114535423Y-58655423D01*
X114218260Y-59130091D01*
X114106887Y-59690000D01*
X108143113Y-59690000D01*
X108031740Y-59130091D01*
X107714577Y-58655423D01*
X107239909Y-58338260D01*
X106821333Y-58255000D01*
X106538667Y-58255000D01*
X106120091Y-58338260D01*
X105645423Y-58655423D01*
X105328260Y-59130091D01*
X105216887Y-59690000D01*
X105227337Y-59742535D01*
X104283103Y-58798302D01*
X104305000Y-58745439D01*
X104305000Y-58174561D01*
X104086534Y-57647138D01*
X103856414Y-57417018D01*
X104408871Y-56864561D01*
X109095000Y-56864561D01*
X109095000Y-57435439D01*
X109313466Y-57962862D01*
X109717138Y-58366534D01*
X110244561Y-58585000D01*
X110815439Y-58585000D01*
X111342862Y-58366534D01*
X111746534Y-57962862D01*
X111780000Y-57882068D01*
X111813466Y-57962862D01*
X112217138Y-58366534D01*
X112744561Y-58585000D01*
X113315439Y-58585000D01*
X113842862Y-58366534D01*
X114246534Y-57962862D01*
X114465000Y-57435439D01*
X114465000Y-56864561D01*
X114246534Y-56337138D01*
X113842862Y-55933466D01*
X113315439Y-55715000D01*
X112744561Y-55715000D01*
X112217138Y-55933466D01*
X111813466Y-56337138D01*
X111780000Y-56417932D01*
X111746534Y-56337138D01*
X111342862Y-55933466D01*
X110815439Y-55715000D01*
X110244561Y-55715000D01*
X109717138Y-55933466D01*
X109313466Y-56337138D01*
X109095000Y-56864561D01*
X104408871Y-56864561D01*
X107461686Y-53811746D01*
X107689795Y-54362450D01*
X108197550Y-54870205D01*
X108860963Y-55145000D01*
X109579037Y-55145000D01*
X110242450Y-54870205D01*
X110750205Y-54362450D01*
X111025000Y-53699037D01*
X111025000Y-52980963D01*
X110787438Y-52407438D01*
X111360963Y-52645000D01*
X112079037Y-52645000D01*
X112652562Y-52407438D01*
X112415000Y-52980963D01*
X112415000Y-53699037D01*
X112689795Y-54362450D01*
X113197550Y-54870205D01*
X113860963Y-55145000D01*
X114579037Y-55145000D01*
X115242450Y-54870205D01*
X115750205Y-54362450D01*
X116025000Y-53699037D01*
X116025000Y-52980963D01*
X115750205Y-52317550D01*
X115242450Y-51809795D01*
X114579037Y-51535000D01*
X113860963Y-51535000D01*
X113287438Y-51772562D01*
X113525000Y-51199037D01*
X113525000Y-50514561D01*
X121755000Y-50514561D01*
X121755000Y-51085439D01*
X121973466Y-51612862D01*
X122377138Y-52016534D01*
X122457932Y-52050000D01*
X122377138Y-52083466D01*
X121973466Y-52487138D01*
X121755000Y-53014561D01*
X121755000Y-53585439D01*
X121973466Y-54112862D01*
X122377138Y-54516534D01*
X122904561Y-54735000D01*
X123475439Y-54735000D01*
X124002862Y-54516534D01*
X124406534Y-54112862D01*
X124625000Y-53585439D01*
X124625000Y-53014561D01*
X124406534Y-52487138D01*
X124002862Y-52083466D01*
X123922068Y-52050000D01*
X124002862Y-52016534D01*
X124406534Y-51612862D01*
X124411862Y-51600000D01*
X130294039Y-51600000D01*
X129787550Y-51809795D01*
X129279795Y-52317550D01*
X129005000Y-52980963D01*
X129005000Y-53699037D01*
X129279795Y-54362450D01*
X129787550Y-54870205D01*
X130450963Y-55145000D01*
X131169037Y-55145000D01*
X131431488Y-55036289D01*
X133235181Y-56839983D01*
X133225000Y-56864561D01*
X133225000Y-57435439D01*
X133443466Y-57962862D01*
X133847138Y-58366534D01*
X134374561Y-58585000D01*
X134945439Y-58585000D01*
X135472862Y-58366534D01*
X135876534Y-57962862D01*
X135910000Y-57882068D01*
X135943466Y-57962862D01*
X136347138Y-58366534D01*
X136874561Y-58585000D01*
X137445439Y-58585000D01*
X137972862Y-58366534D01*
X138376534Y-57962862D01*
X138595000Y-57435439D01*
X138595000Y-56864561D01*
X138376534Y-56337138D01*
X137972862Y-55933466D01*
X137445439Y-55715000D01*
X136874561Y-55715000D01*
X136347138Y-55933466D01*
X135943466Y-56337138D01*
X135910000Y-56417932D01*
X135876534Y-56337138D01*
X135472862Y-55933466D01*
X134945439Y-55715000D01*
X134374561Y-55715000D01*
X134293414Y-55748612D01*
X132506289Y-53961488D01*
X132615000Y-53699037D01*
X132615000Y-52980963D01*
X132377438Y-52407438D01*
X132950963Y-52645000D01*
X133669037Y-52645000D01*
X134242562Y-52407438D01*
X134005000Y-52980963D01*
X134005000Y-53699037D01*
X134279795Y-54362450D01*
X134787550Y-54870205D01*
X135450963Y-55145000D01*
X136169037Y-55145000D01*
X136832450Y-54870205D01*
X137340205Y-54362450D01*
X137615000Y-53699037D01*
X137615000Y-52980963D01*
X137340205Y-52317550D01*
X136832450Y-51809795D01*
X136169037Y-51535000D01*
X135450963Y-51535000D01*
X134877438Y-51772562D01*
X135115000Y-51199037D01*
X135115000Y-50514561D01*
X142075000Y-50514561D01*
X142075000Y-51085439D01*
X142293466Y-51612862D01*
X142697138Y-52016534D01*
X142777932Y-52050000D01*
X142697138Y-52083466D01*
X142293466Y-52487138D01*
X142075000Y-53014561D01*
X142075000Y-53585439D01*
X142293466Y-54112862D01*
X142697138Y-54516534D01*
X143224561Y-54735000D01*
X143795439Y-54735000D01*
X144322862Y-54516534D01*
X144726534Y-54112862D01*
X144945000Y-53585439D01*
X144945000Y-53014561D01*
X144726534Y-52487138D01*
X144322862Y-52083466D01*
X144242068Y-52050000D01*
X144322862Y-52016534D01*
X144726534Y-51612862D01*
X144731862Y-51600000D01*
X150694039Y-51600000D01*
X150187550Y-51809795D01*
X149679795Y-52317550D01*
X149405000Y-52980963D01*
X149405000Y-53699037D01*
X149679795Y-54362450D01*
X150187550Y-54870205D01*
X150450001Y-54978916D01*
X150450001Y-55845148D01*
X150435112Y-55920000D01*
X150450001Y-55994852D01*
X150494097Y-56216537D01*
X150662072Y-56467929D01*
X150725528Y-56510329D01*
X151026897Y-56811698D01*
X151005000Y-56864561D01*
X151005000Y-57435439D01*
X151223466Y-57962862D01*
X151627138Y-58366534D01*
X152154561Y-58585000D01*
X152725439Y-58585000D01*
X153252862Y-58366534D01*
X153656534Y-57962862D01*
X153690000Y-57882068D01*
X153723466Y-57962862D01*
X154127138Y-58366534D01*
X154654561Y-58585000D01*
X155225439Y-58585000D01*
X155752862Y-58366534D01*
X156156534Y-57962862D01*
X156375000Y-57435439D01*
X156375000Y-56864561D01*
X156156534Y-56337138D01*
X155752862Y-55933466D01*
X155225439Y-55715000D01*
X154654561Y-55715000D01*
X154127138Y-55933466D01*
X153723466Y-56337138D01*
X153690000Y-56417932D01*
X153656534Y-56337138D01*
X153252862Y-55933466D01*
X152725439Y-55715000D01*
X152154561Y-55715000D01*
X152101698Y-55736897D01*
X151970000Y-55605199D01*
X151970000Y-54978915D01*
X152232450Y-54870205D01*
X152740205Y-54362450D01*
X153015000Y-53699037D01*
X153015000Y-52980963D01*
X152777438Y-52407438D01*
X153350963Y-52645000D01*
X154069037Y-52645000D01*
X154642562Y-52407438D01*
X154405000Y-52980963D01*
X154405000Y-53699037D01*
X154679795Y-54362450D01*
X155187550Y-54870205D01*
X155850963Y-55145000D01*
X156569037Y-55145000D01*
X157232450Y-54870205D01*
X157740205Y-54362450D01*
X158015000Y-53699037D01*
X158015000Y-52980963D01*
X157740205Y-52317550D01*
X157232450Y-51809795D01*
X156569037Y-51535000D01*
X155850963Y-51535000D01*
X155277438Y-51772562D01*
X155515000Y-51199037D01*
X155515000Y-50480963D01*
X155240205Y-49817550D01*
X154732450Y-49309795D01*
X154069037Y-49035000D01*
X153350963Y-49035000D01*
X152687550Y-49309795D01*
X152179795Y-49817550D01*
X152071085Y-50080000D01*
X144764999Y-50080000D01*
X144726534Y-49987138D01*
X144322862Y-49583466D01*
X143795439Y-49365000D01*
X143224561Y-49365000D01*
X142697138Y-49583466D01*
X142293466Y-49987138D01*
X142075000Y-50514561D01*
X135115000Y-50514561D01*
X135115000Y-50480963D01*
X134840205Y-49817550D01*
X134332450Y-49309795D01*
X133669037Y-49035000D01*
X132950963Y-49035000D01*
X132287550Y-49309795D01*
X131779795Y-49817550D01*
X131671085Y-50080000D01*
X124444999Y-50080000D01*
X124406534Y-49987138D01*
X124002862Y-49583466D01*
X123475439Y-49365000D01*
X122904561Y-49365000D01*
X122377138Y-49583466D01*
X121973466Y-49987138D01*
X121755000Y-50514561D01*
X113525000Y-50514561D01*
X113525000Y-50480963D01*
X113250205Y-49817550D01*
X112742450Y-49309795D01*
X112079037Y-49035000D01*
X111360963Y-49035000D01*
X110697550Y-49309795D01*
X110189795Y-49817550D01*
X110081085Y-50080000D01*
X109433478Y-50080000D01*
X109358630Y-50065112D01*
X109283782Y-50080000D01*
X109283778Y-50080000D01*
X109062093Y-50124096D01*
X108810701Y-50292071D01*
X108768301Y-50355527D01*
X102385528Y-56738301D01*
X102322072Y-56780701D01*
X102279672Y-56844157D01*
X102279671Y-56844158D01*
X102154097Y-57032093D01*
X102116983Y-57218677D01*
X102057138Y-57243466D01*
X101653466Y-57647138D01*
X101435000Y-58174561D01*
X92444835Y-58174561D01*
X92656534Y-57962862D01*
X92875000Y-57435439D01*
X92875000Y-56864561D01*
X92656534Y-56337138D01*
X92252862Y-55933466D01*
X91725439Y-55715000D01*
X91154561Y-55715000D01*
X90627138Y-55933466D01*
X90223466Y-56337138D01*
X90190000Y-56417932D01*
X90156534Y-56337138D01*
X89752862Y-55933466D01*
X89225439Y-55715000D01*
X88654561Y-55715000D01*
X88127138Y-55933466D01*
X87723466Y-56337138D01*
X87505000Y-56864561D01*
X82040000Y-56864561D01*
X82040000Y-54538430D01*
X82092862Y-54516534D01*
X82496534Y-54112862D01*
X82715000Y-53585439D01*
X82715000Y-53014561D01*
X82701084Y-52980963D01*
X85905000Y-52980963D01*
X85905000Y-53699037D01*
X86179795Y-54362450D01*
X86687550Y-54870205D01*
X87350963Y-55145000D01*
X88069037Y-55145000D01*
X88732450Y-54870205D01*
X89240205Y-54362450D01*
X89515000Y-53699037D01*
X89515000Y-52980963D01*
X89277438Y-52407438D01*
X89850963Y-52645000D01*
X90569037Y-52645000D01*
X91142562Y-52407438D01*
X90905000Y-52980963D01*
X90905000Y-53699037D01*
X91179795Y-54362450D01*
X91687550Y-54870205D01*
X92350963Y-55145000D01*
X93069037Y-55145000D01*
X93732450Y-54870205D01*
X94240205Y-54362450D01*
X94515000Y-53699037D01*
X94515000Y-52980963D01*
X94240205Y-52317550D01*
X93732450Y-51809795D01*
X93069037Y-51535000D01*
X92350963Y-51535000D01*
X91777438Y-51772562D01*
X92015000Y-51199037D01*
X92015000Y-50480963D01*
X91740205Y-49817550D01*
X91232450Y-49309795D01*
X90569037Y-49035000D01*
X89850963Y-49035000D01*
X89187550Y-49309795D01*
X88679795Y-49817550D01*
X88405000Y-50480963D01*
X88405000Y-51199037D01*
X88642562Y-51772562D01*
X88069037Y-51535000D01*
X87350963Y-51535000D01*
X86687550Y-51809795D01*
X86179795Y-52317550D01*
X85905000Y-52980963D01*
X82701084Y-52980963D01*
X82496534Y-52487138D01*
X82092862Y-52083466D01*
X82012068Y-52050000D01*
X82092862Y-52016534D01*
X82496534Y-51612862D01*
X82715000Y-51085439D01*
X82715000Y-50514561D01*
X82496534Y-49987138D01*
X82092862Y-49583466D01*
X81565439Y-49365000D01*
X80994561Y-49365000D01*
X80467138Y-49583466D01*
X80063466Y-49987138D01*
X79845000Y-50514561D01*
X79845000Y-51085439D01*
X80063466Y-51612862D01*
X80467138Y-52016534D01*
X80547932Y-52050000D01*
X80467138Y-52083466D01*
X80063466Y-52487138D01*
X79845000Y-53014561D01*
X79845000Y-53585439D01*
X80063466Y-54112862D01*
X80467138Y-54516534D01*
X80520001Y-54538431D01*
X80520000Y-65948333D01*
X80151333Y-65875000D01*
X79868667Y-65875000D01*
X79450091Y-65958260D01*
X78975423Y-66275423D01*
X78658260Y-66750091D01*
X78546887Y-67310000D01*
X78658260Y-67869909D01*
X78975423Y-68344577D01*
X79450091Y-68661740D01*
X79868667Y-68745000D01*
X80151333Y-68745000D01*
X80520000Y-68671667D01*
X80520000Y-70805198D01*
X80348302Y-70976897D01*
X80295439Y-70955000D01*
X79724561Y-70955000D01*
X79197138Y-71173466D01*
X78793466Y-71577138D01*
X78575000Y-72104561D01*
X78575000Y-72675439D01*
X78793466Y-73202862D01*
X79197138Y-73606534D01*
X79724561Y-73825000D01*
X80295439Y-73825000D01*
X80822862Y-73606534D01*
X81226534Y-73202862D01*
X81248430Y-73150000D01*
X81331957Y-73150000D01*
X81515423Y-73424577D01*
X81990091Y-73741740D01*
X82408667Y-73825000D01*
X82691333Y-73825000D01*
X82873887Y-73788688D01*
X90730208Y-81645010D01*
X85659812Y-81645010D01*
X83739363Y-79724561D01*
X84925000Y-79724561D01*
X84925000Y-80295439D01*
X85143466Y-80822862D01*
X85547138Y-81226534D01*
X86074561Y-81445000D01*
X86645439Y-81445000D01*
X87172862Y-81226534D01*
X87576534Y-80822862D01*
X87795000Y-80295439D01*
X87795000Y-79724561D01*
X87576534Y-79197138D01*
X87172862Y-78793466D01*
X86645439Y-78575000D01*
X86074561Y-78575000D01*
X85547138Y-78793466D01*
X85143466Y-79197138D01*
X84925000Y-79724561D01*
X83739363Y-79724561D01*
X83078688Y-79063887D01*
X83143113Y-78740000D01*
X83031740Y-78180091D01*
X82714577Y-77705423D01*
X82239909Y-77388260D01*
X81821333Y-77305000D01*
X80738667Y-77305000D01*
X80320091Y-77388260D01*
X79845423Y-77705423D01*
X79528260Y-78180091D01*
X79416887Y-78740000D01*
X79528260Y-79299909D01*
X79845423Y-79774577D01*
X80197758Y-80010000D01*
X79845423Y-80245423D01*
X79528260Y-80720091D01*
X79416887Y-81280000D01*
X79528260Y-81839909D01*
X79845423Y-82314577D01*
X80197758Y-82550000D01*
X79845423Y-82785423D01*
X79528260Y-83260091D01*
X79416887Y-83820000D01*
X79528260Y-84379909D01*
X79845423Y-84854577D01*
X80197758Y-85090000D01*
X79845423Y-85325423D01*
X79578982Y-85724180D01*
X75458688Y-81603887D01*
X75523113Y-81280000D01*
X75411740Y-80720091D01*
X75094577Y-80245423D01*
X74973894Y-80164785D01*
X75107765Y-80138157D01*
X75317809Y-79997809D01*
X75458157Y-79787765D01*
X75507440Y-79540000D01*
X75507440Y-77940000D01*
X75458157Y-77692235D01*
X75317809Y-77482191D01*
X75107765Y-77341843D01*
X74860000Y-77292560D01*
X72460000Y-77292560D01*
X72212235Y-77341843D01*
X72002191Y-77482191D01*
X71861843Y-77692235D01*
X71812560Y-77940000D01*
X71812560Y-79540000D01*
X71861843Y-79787765D01*
X72002191Y-79997809D01*
X72212235Y-80138157D01*
X72346106Y-80164785D01*
X72225423Y-80245423D01*
X71908260Y-80720091D01*
X71796887Y-81280000D01*
X61643783Y-81280000D01*
X61772862Y-81226534D01*
X62176534Y-80822862D01*
X62395000Y-80295439D01*
X62395000Y-79724561D01*
X62176534Y-79197138D01*
X61772862Y-78793466D01*
X61643784Y-78740000D01*
X67116887Y-78740000D01*
X67228260Y-79299909D01*
X67545423Y-79774577D01*
X68020091Y-80091740D01*
X68438667Y-80175000D01*
X68721333Y-80175000D01*
X69139909Y-80091740D01*
X69614577Y-79774577D01*
X69931740Y-79299909D01*
X70043113Y-78740000D01*
X69931740Y-78180091D01*
X69614577Y-77705423D01*
X69139909Y-77388260D01*
X68721333Y-77305000D01*
X68438667Y-77305000D01*
X68020091Y-77388260D01*
X67545423Y-77705423D01*
X67228260Y-78180091D01*
X67116887Y-78740000D01*
X61643784Y-78740000D01*
X61245439Y-78575000D01*
X60674561Y-78575000D01*
X60147138Y-78793466D01*
X59743466Y-79197138D01*
X59525000Y-79724561D01*
X54746336Y-79724561D01*
X54691740Y-79450091D01*
X54374577Y-78975423D01*
X53899909Y-78658260D01*
X53481333Y-78575000D01*
X53198667Y-78575000D01*
X52780091Y-78658260D01*
X52305423Y-78975423D01*
X51988260Y-79450091D01*
X51876887Y-80010000D01*
X51510000Y-80010000D01*
X51510000Y-73374561D01*
X51905000Y-73374561D01*
X51905000Y-73945439D01*
X52123466Y-74472862D01*
X52527138Y-74876534D01*
X53054561Y-75095000D01*
X53625439Y-75095000D01*
X54152862Y-74876534D01*
X54556534Y-74472862D01*
X54775000Y-73945439D01*
X54775000Y-73660000D01*
X59496887Y-73660000D01*
X59608260Y-74219909D01*
X59925423Y-74694577D01*
X60400091Y-75011740D01*
X60818667Y-75095000D01*
X61101333Y-75095000D01*
X61519909Y-75011740D01*
X61994577Y-74694577D01*
X62311740Y-74219909D01*
X62423113Y-73660000D01*
X62311740Y-73100091D01*
X61994577Y-72625423D01*
X61519909Y-72308260D01*
X61101333Y-72225000D01*
X60818667Y-72225000D01*
X60400091Y-72308260D01*
X59925423Y-72625423D01*
X59608260Y-73100091D01*
X59496887Y-73660000D01*
X54775000Y-73660000D01*
X54775000Y-73374561D01*
X54556534Y-72847138D01*
X54152862Y-72443466D01*
X53625439Y-72225000D01*
X53054561Y-72225000D01*
X52527138Y-72443466D01*
X52123466Y-72847138D01*
X51905000Y-73374561D01*
X51510000Y-73374561D01*
X51510000Y-67024561D01*
X51905000Y-67024561D01*
X51905000Y-67595439D01*
X52123466Y-68122862D01*
X52527138Y-68526534D01*
X53054561Y-68745000D01*
X53625439Y-68745000D01*
X54152862Y-68526534D01*
X54556534Y-68122862D01*
X54775000Y-67595439D01*
X54775000Y-67310000D01*
X59496887Y-67310000D01*
X59608260Y-67869909D01*
X59925423Y-68344577D01*
X60400091Y-68661740D01*
X60818667Y-68745000D01*
X61101333Y-68745000D01*
X61283887Y-68708688D01*
X64968251Y-72393053D01*
X64841843Y-72582235D01*
X64792560Y-72830000D01*
X64792560Y-74030000D01*
X64841843Y-74277765D01*
X64923062Y-74399317D01*
X64805000Y-74684343D01*
X64805000Y-75175657D01*
X64993018Y-75629571D01*
X65340429Y-75976982D01*
X65794343Y-76165000D01*
X66285657Y-76165000D01*
X66739571Y-75976982D01*
X67086982Y-75629571D01*
X67275000Y-75175657D01*
X67275000Y-74684343D01*
X67156938Y-74399317D01*
X67238157Y-74277765D01*
X67287440Y-74030000D01*
X67287440Y-72830000D01*
X67238157Y-72582235D01*
X67109709Y-72390000D01*
X70926887Y-72390000D01*
X71038260Y-72949909D01*
X71355423Y-73424577D01*
X71830091Y-73741740D01*
X72248667Y-73825000D01*
X72531333Y-73825000D01*
X72949909Y-73741740D01*
X73424577Y-73424577D01*
X73741740Y-72949909D01*
X73853113Y-72390000D01*
X73741740Y-71830091D01*
X73424577Y-71355423D01*
X72949909Y-71038260D01*
X72531333Y-70955000D01*
X72248667Y-70955000D01*
X71830091Y-71038260D01*
X71355423Y-71355423D01*
X71038260Y-71830091D01*
X70926887Y-72390000D01*
X67109709Y-72390000D01*
X67097809Y-72372191D01*
X66887765Y-72231843D01*
X66779131Y-72210235D01*
X66755904Y-72093463D01*
X66587929Y-71842071D01*
X66524473Y-71799671D01*
X62358688Y-67633887D01*
X62423113Y-67310000D01*
X62311740Y-66750091D01*
X61994577Y-66275423D01*
X61519909Y-65958260D01*
X61101333Y-65875000D01*
X60818667Y-65875000D01*
X60400091Y-65958260D01*
X59925423Y-66275423D01*
X59608260Y-66750091D01*
X59496887Y-67310000D01*
X54775000Y-67310000D01*
X54775000Y-67024561D01*
X54556534Y-66497138D01*
X54152862Y-66093466D01*
X53625439Y-65875000D01*
X53054561Y-65875000D01*
X52527138Y-66093466D01*
X52123466Y-66497138D01*
X51905000Y-67024561D01*
X51510000Y-67024561D01*
X51510000Y-65754561D01*
X64605000Y-65754561D01*
X64605000Y-66325439D01*
X64823466Y-66852862D01*
X65227138Y-67256534D01*
X65307932Y-67290000D01*
X65227138Y-67323466D01*
X64823466Y-67727138D01*
X64605000Y-68254561D01*
X64605000Y-68825439D01*
X64823466Y-69352862D01*
X65227138Y-69756534D01*
X65754561Y-69975000D01*
X66325439Y-69975000D01*
X66852862Y-69756534D01*
X67256534Y-69352862D01*
X67475000Y-68825439D01*
X67475000Y-68254561D01*
X67256534Y-67727138D01*
X66852862Y-67323466D01*
X66772068Y-67290000D01*
X66852862Y-67256534D01*
X67084835Y-67024561D01*
X70955000Y-67024561D01*
X70955000Y-67595439D01*
X71173466Y-68122862D01*
X71577138Y-68526534D01*
X72104561Y-68745000D01*
X72675439Y-68745000D01*
X73202862Y-68526534D01*
X73606534Y-68122862D01*
X73825000Y-67595439D01*
X73825000Y-67024561D01*
X73606534Y-66497138D01*
X73202862Y-66093466D01*
X72675439Y-65875000D01*
X72104561Y-65875000D01*
X71577138Y-66093466D01*
X71173466Y-66497138D01*
X70955000Y-67024561D01*
X67084835Y-67024561D01*
X67256534Y-66852862D01*
X67475000Y-66325439D01*
X67475000Y-65754561D01*
X67256534Y-65227138D01*
X66852862Y-64823466D01*
X66325439Y-64605000D01*
X65754561Y-64605000D01*
X65227138Y-64823466D01*
X64823466Y-65227138D01*
X64605000Y-65754561D01*
X51510000Y-65754561D01*
X51510000Y-62230000D01*
X51876887Y-62230000D01*
X51988260Y-62789909D01*
X52305423Y-63264577D01*
X52780091Y-63581740D01*
X53198667Y-63665000D01*
X53481333Y-63665000D01*
X53899909Y-63581740D01*
X54374577Y-63264577D01*
X54691740Y-62789909D01*
X54803113Y-62230000D01*
X54746336Y-61944561D01*
X59525000Y-61944561D01*
X59525000Y-62515439D01*
X59743466Y-63042862D01*
X60147138Y-63446534D01*
X60674561Y-63665000D01*
X61245439Y-63665000D01*
X61772862Y-63446534D01*
X62176534Y-63042862D01*
X62395000Y-62515439D01*
X62395000Y-61944561D01*
X64605000Y-61944561D01*
X64605000Y-62515439D01*
X64823466Y-63042862D01*
X65227138Y-63446534D01*
X65754561Y-63665000D01*
X66325439Y-63665000D01*
X66852862Y-63446534D01*
X67256534Y-63042862D01*
X67475000Y-62515439D01*
X67475000Y-62230000D01*
X72196887Y-62230000D01*
X72308260Y-62789909D01*
X72625423Y-63264577D01*
X73100091Y-63581740D01*
X73518667Y-63665000D01*
X73801333Y-63665000D01*
X74219909Y-63581740D01*
X74694577Y-63264577D01*
X75011740Y-62789909D01*
X75123113Y-62230000D01*
X75066336Y-61944561D01*
X76035000Y-61944561D01*
X76035000Y-62515439D01*
X76253466Y-63042862D01*
X76657138Y-63446534D01*
X77184561Y-63665000D01*
X77755439Y-63665000D01*
X78282862Y-63446534D01*
X78686534Y-63042862D01*
X78905000Y-62515439D01*
X78905000Y-61944561D01*
X78686534Y-61417138D01*
X78282862Y-61013466D01*
X77755439Y-60795000D01*
X77184561Y-60795000D01*
X76657138Y-61013466D01*
X76253466Y-61417138D01*
X76035000Y-61944561D01*
X75066336Y-61944561D01*
X75011740Y-61670091D01*
X74694577Y-61195423D01*
X74219909Y-60878260D01*
X73801333Y-60795000D01*
X73518667Y-60795000D01*
X73100091Y-60878260D01*
X72625423Y-61195423D01*
X72308260Y-61670091D01*
X72196887Y-62230000D01*
X67475000Y-62230000D01*
X67475000Y-61944561D01*
X67256534Y-61417138D01*
X66852862Y-61013466D01*
X66325439Y-60795000D01*
X65754561Y-60795000D01*
X65227138Y-61013466D01*
X64823466Y-61417138D01*
X64605000Y-61944561D01*
X62395000Y-61944561D01*
X62176534Y-61417138D01*
X61772862Y-61013466D01*
X61245439Y-60795000D01*
X60674561Y-60795000D01*
X60147138Y-61013466D01*
X59743466Y-61417138D01*
X59525000Y-61944561D01*
X54746336Y-61944561D01*
X54691740Y-61670091D01*
X54374577Y-61195423D01*
X53899909Y-60878260D01*
X53481333Y-60795000D01*
X53198667Y-60795000D01*
X52780091Y-60878260D01*
X52305423Y-61195423D01*
X51988260Y-61670091D01*
X51876887Y-62230000D01*
X51510000Y-62230000D01*
X51510000Y-56864561D01*
X51905000Y-56864561D01*
X51905000Y-57435439D01*
X52123466Y-57962862D01*
X52527138Y-58366534D01*
X53054561Y-58585000D01*
X53625439Y-58585000D01*
X54152862Y-58366534D01*
X54556534Y-57962862D01*
X54775000Y-57435439D01*
X54775000Y-57150000D01*
X59496887Y-57150000D01*
X59608260Y-57709909D01*
X59925423Y-58184577D01*
X60400091Y-58501740D01*
X60818667Y-58585000D01*
X61101333Y-58585000D01*
X61519909Y-58501740D01*
X61642241Y-58420000D01*
X64576887Y-58420000D01*
X64688260Y-58979909D01*
X65005423Y-59454577D01*
X65480091Y-59771740D01*
X65898667Y-59855000D01*
X66181333Y-59855000D01*
X66599909Y-59771740D01*
X67074577Y-59454577D01*
X67391740Y-58979909D01*
X67503113Y-58420000D01*
X67446336Y-58134561D01*
X72225000Y-58134561D01*
X72225000Y-58705439D01*
X72443466Y-59232862D01*
X72847138Y-59636534D01*
X73374561Y-59855000D01*
X73945439Y-59855000D01*
X74472862Y-59636534D01*
X74876534Y-59232862D01*
X75095000Y-58705439D01*
X75095000Y-58134561D01*
X74876534Y-57607138D01*
X74472862Y-57203466D01*
X73945439Y-56985000D01*
X73374561Y-56985000D01*
X72847138Y-57203466D01*
X72443466Y-57607138D01*
X72225000Y-58134561D01*
X67446336Y-58134561D01*
X67391740Y-57860091D01*
X67074577Y-57385423D01*
X66599909Y-57068260D01*
X66181333Y-56985000D01*
X65898667Y-56985000D01*
X65480091Y-57068260D01*
X65005423Y-57385423D01*
X64688260Y-57860091D01*
X64576887Y-58420000D01*
X61642241Y-58420000D01*
X61994577Y-58184577D01*
X62311740Y-57709909D01*
X62423113Y-57150000D01*
X62311740Y-56590091D01*
X61994577Y-56115423D01*
X61519909Y-55798260D01*
X61101333Y-55715000D01*
X60818667Y-55715000D01*
X60400091Y-55798260D01*
X59925423Y-56115423D01*
X59608260Y-56590091D01*
X59496887Y-57150000D01*
X54775000Y-57150000D01*
X54775000Y-56864561D01*
X54556534Y-56337138D01*
X54152862Y-55933466D01*
X53625439Y-55715000D01*
X53054561Y-55715000D01*
X52527138Y-55933466D01*
X52123466Y-56337138D01*
X51905000Y-56864561D01*
X51510000Y-56864561D01*
X51510000Y-52555032D01*
X51904038Y-52949070D01*
X52835757Y-53335000D01*
X53844243Y-53335000D01*
X54775962Y-52949070D01*
X55489070Y-52235962D01*
X55875000Y-51304243D01*
X55875000Y-50295757D01*
X55489070Y-49364038D01*
X55095032Y-48970000D01*
X57098727Y-48970000D01*
X56985000Y-49244561D01*
X56985000Y-49244561D01*
G37*
X56985000Y-49244561D02*
X56985000Y-49815439D01*
X57203466Y-50342862D01*
X57607138Y-50746534D01*
X57687932Y-50780000D01*
X57607138Y-50813466D01*
X57203466Y-51217138D01*
X56985000Y-51744561D01*
X56985000Y-52315439D01*
X57203466Y-52842862D01*
X57607138Y-53246534D01*
X58134561Y-53465000D01*
X58705439Y-53465000D01*
X59232862Y-53246534D01*
X59636534Y-52842862D01*
X59855000Y-52315439D01*
X59855000Y-51744561D01*
X59636534Y-51217138D01*
X59232862Y-50813466D01*
X59152068Y-50780000D01*
X59232862Y-50746534D01*
X59424835Y-50554561D01*
X60795000Y-50554561D01*
X60795000Y-51125439D01*
X61013466Y-51652862D01*
X61417138Y-52056534D01*
X61497932Y-52090000D01*
X61417138Y-52123466D01*
X61013466Y-52527138D01*
X60795000Y-53054561D01*
X60795000Y-53625439D01*
X61013466Y-54152862D01*
X61417138Y-54556534D01*
X61944561Y-54775000D01*
X62515439Y-54775000D01*
X63042862Y-54556534D01*
X63446534Y-54152862D01*
X63665000Y-53625439D01*
X63665000Y-53054561D01*
X63446534Y-52527138D01*
X63042862Y-52123466D01*
X62962068Y-52090000D01*
X63042862Y-52056534D01*
X63446534Y-51652862D01*
X63468430Y-51600000D01*
X64575199Y-51600000D01*
X65693711Y-52718512D01*
X65585000Y-52980963D01*
X65585000Y-53699037D01*
X65859795Y-54362450D01*
X66367550Y-54870205D01*
X67030963Y-55145000D01*
X67749037Y-55145000D01*
X68412450Y-54870205D01*
X68920205Y-54362450D01*
X69195000Y-53699037D01*
X69195000Y-52980963D01*
X68957438Y-52407438D01*
X69530963Y-52645000D01*
X70249037Y-52645000D01*
X70822562Y-52407438D01*
X70585000Y-52980963D01*
X70585000Y-53699037D01*
X70859795Y-54362450D01*
X71367550Y-54870205D01*
X72030963Y-55145000D01*
X72749037Y-55145000D01*
X73011488Y-55036289D01*
X76071312Y-58096114D01*
X76006887Y-58420000D01*
X76118260Y-58979909D01*
X76435423Y-59454577D01*
X76910091Y-59771740D01*
X77328667Y-59855000D01*
X77611333Y-59855000D01*
X78029909Y-59771740D01*
X78504577Y-59454577D01*
X78821740Y-58979909D01*
X78933113Y-58420000D01*
X78821740Y-57860091D01*
X78504577Y-57385423D01*
X78029909Y-57068260D01*
X77611333Y-56985000D01*
X77328667Y-56985000D01*
X77146114Y-57021312D01*
X74086289Y-53961488D01*
X74195000Y-53699037D01*
X74195000Y-52980963D01*
X73920205Y-52317550D01*
X73412450Y-51809795D01*
X72749037Y-51535000D01*
X72030963Y-51535000D01*
X71457438Y-51772562D01*
X71695000Y-51199037D01*
X71695000Y-50480963D01*
X71420205Y-49817550D01*
X70912450Y-49309795D01*
X70249037Y-49035000D01*
X69530963Y-49035000D01*
X68867550Y-49309795D01*
X68359795Y-49817550D01*
X68085000Y-50480963D01*
X68085000Y-51199037D01*
X68322562Y-51772562D01*
X67749037Y-51535000D01*
X67030963Y-51535000D01*
X66768512Y-51643711D01*
X65480331Y-50355530D01*
X65437929Y-50292071D01*
X65186537Y-50124096D01*
X64964852Y-50080000D01*
X64964847Y-50080000D01*
X64890000Y-50065112D01*
X64815153Y-50080000D01*
X63468430Y-50080000D01*
X63446534Y-50027138D01*
X63042862Y-49623466D01*
X62515439Y-49405000D01*
X61944561Y-49405000D01*
X61417138Y-49623466D01*
X61013466Y-50027138D01*
X60795000Y-50554561D01*
X59424835Y-50554561D01*
X59636534Y-50342862D01*
X59855000Y-49815439D01*
X59855000Y-49244561D01*
X59741273Y-48970000D01*
X159534968Y-48970000D01*
X159140930Y-49364038D01*
X158755000Y-50295757D01*
X158755000Y-51304243D01*
X159140930Y-52235962D01*
X159854038Y-52949070D01*
X160785757Y-53335000D01*
X161794243Y-53335000D01*
X162725962Y-52949070D01*
X163120000Y-52555032D01*
X163120001Y-97304969D01*
X162725962Y-96910930D01*
X161794243Y-96525000D01*
X160785757Y-96525000D01*
X159854038Y-96910930D01*
X159140930Y-97624038D01*
X158755000Y-98555757D01*
X158755000Y-99564243D01*
X159140930Y-100495962D01*
X159534968Y-100890000D01*
X55095032Y-100890000D01*
X55489070Y-100495962D01*
X55875000Y-99564243D01*
X55875000Y-98555757D01*
X55489070Y-97624038D01*
X54855032Y-96990000D01*
X56972560Y-96990000D01*
X56972560Y-98590000D01*
X57021843Y-98837765D01*
X57162191Y-99047809D01*
X57372235Y-99188157D01*
X57620000Y-99237440D01*
X59220000Y-99237440D01*
X59467765Y-99188157D01*
X59677809Y-99047809D01*
X59818157Y-98837765D01*
X59867440Y-98590000D01*
X59867440Y-97790000D01*
X64576887Y-97790000D01*
X64688260Y-98349909D01*
X65005423Y-98824577D01*
X65480091Y-99141740D01*
X65898667Y-99225000D01*
X66181333Y-99225000D01*
X66599909Y-99141740D01*
X67074577Y-98824577D01*
X67391740Y-98349909D01*
X67409624Y-98260000D01*
X72212560Y-98260000D01*
X72212560Y-99860000D01*
X72261843Y-100107765D01*
X72402191Y-100317809D01*
X72612235Y-100458157D01*
X72860000Y-100507440D01*
X74460000Y-100507440D01*
X74707765Y-100458157D01*
X74917809Y-100317809D01*
X75058157Y-100107765D01*
X75107440Y-99860000D01*
X75107440Y-98774561D01*
X78575000Y-98774561D01*
X78575000Y-99345439D01*
X78793466Y-99872862D01*
X79197138Y-100276534D01*
X79724561Y-100495000D01*
X80295439Y-100495000D01*
X80822862Y-100276534D01*
X81226534Y-99872862D01*
X81445000Y-99345439D01*
X81445000Y-98774561D01*
X84925000Y-98774561D01*
X84925000Y-99345439D01*
X85143466Y-99872862D01*
X85547138Y-100276534D01*
X86074561Y-100495000D01*
X86645439Y-100495000D01*
X87172862Y-100276534D01*
X87576534Y-99872862D01*
X87795000Y-99345439D01*
X87795000Y-99060000D01*
X94994336Y-99060000D01*
X95096007Y-99571136D01*
X95385543Y-100004457D01*
X95818864Y-100293993D01*
X96200978Y-100370000D01*
X96459022Y-100370000D01*
X96841136Y-100293993D01*
X97274457Y-100004457D01*
X97343156Y-99901642D01*
X97666367Y-100189478D01*
X98000600Y-100327910D01*
X98203000Y-100204224D01*
X98203000Y-99187000D01*
X98183000Y-99187000D01*
X98183000Y-98933000D01*
X98203000Y-98933000D01*
X98203000Y-97915776D01*
X98000600Y-97792090D01*
X97666367Y-97930522D01*
X97343156Y-98218358D01*
X97274457Y-98115543D01*
X96841136Y-97826007D01*
X96459022Y-97750000D01*
X96200978Y-97750000D01*
X95818864Y-97826007D01*
X95385543Y-98115543D01*
X95096007Y-98548864D01*
X94994336Y-99060000D01*
X87795000Y-99060000D01*
X87795000Y-98774561D01*
X87576534Y-98247138D01*
X87172862Y-97843466D01*
X86645439Y-97625000D01*
X86074561Y-97625000D01*
X85547138Y-97843466D01*
X85143466Y-98247138D01*
X84925000Y-98774561D01*
X81445000Y-98774561D01*
X81226534Y-98247138D01*
X80822862Y-97843466D01*
X80295439Y-97625000D01*
X79724561Y-97625000D01*
X79197138Y-97843466D01*
X78793466Y-98247138D01*
X78575000Y-98774561D01*
X75107440Y-98774561D01*
X75107440Y-98260000D01*
X75058157Y-98012235D01*
X74917809Y-97802191D01*
X74707765Y-97661843D01*
X74460000Y-97612560D01*
X72860000Y-97612560D01*
X72612235Y-97661843D01*
X72402191Y-97802191D01*
X72261843Y-98012235D01*
X72212560Y-98260000D01*
X67409624Y-98260000D01*
X67503113Y-97790000D01*
X67391740Y-97230091D01*
X67074577Y-96755423D01*
X66599909Y-96438260D01*
X66181333Y-96355000D01*
X65898667Y-96355000D01*
X65480091Y-96438260D01*
X65005423Y-96755423D01*
X64688260Y-97230091D01*
X64576887Y-97790000D01*
X59867440Y-97790000D01*
X59867440Y-96990000D01*
X59818157Y-96742235D01*
X59677809Y-96532191D01*
X59467765Y-96391843D01*
X59220000Y-96342560D01*
X57620000Y-96342560D01*
X57372235Y-96391843D01*
X57162191Y-96532191D01*
X57021843Y-96742235D01*
X56972560Y-96990000D01*
X54855032Y-96990000D01*
X54775962Y-96910930D01*
X53844243Y-96525000D01*
X52835757Y-96525000D01*
X51904038Y-96910930D01*
X51510000Y-97304968D01*
X51510000Y-88170000D01*
X52004336Y-88170000D01*
X52106007Y-88681136D01*
X52395543Y-89114457D01*
X52478669Y-89170000D01*
X52395543Y-89225543D01*
X52106007Y-89658864D01*
X52004336Y-90170000D01*
X52106007Y-90681136D01*
X52395543Y-91114457D01*
X52828864Y-91403993D01*
X53210978Y-91480000D01*
X53469022Y-91480000D01*
X53851136Y-91403993D01*
X54284457Y-91114457D01*
X54573993Y-90681136D01*
X54675664Y-90170000D01*
X54626844Y-89924561D01*
X56985000Y-89924561D01*
X56985000Y-90495439D01*
X57203466Y-91022862D01*
X57607138Y-91426534D01*
X57687932Y-91460000D01*
X57607138Y-91493466D01*
X57203466Y-91897138D01*
X56985000Y-92424561D01*
X56985000Y-92995439D01*
X57203466Y-93522862D01*
X57607138Y-93926534D01*
X58134561Y-94145000D01*
X58705439Y-94145000D01*
X59232862Y-93926534D01*
X59636534Y-93522862D01*
X59855000Y-92995439D01*
X59855000Y-92424561D01*
X59636534Y-91897138D01*
X59232862Y-91493466D01*
X59152068Y-91460000D01*
X59232862Y-91426534D01*
X59636534Y-91022862D01*
X59855000Y-90495439D01*
X59855000Y-89924561D01*
X64605000Y-89924561D01*
X64605000Y-90495439D01*
X64823466Y-91022862D01*
X65227138Y-91426534D01*
X65307932Y-91460000D01*
X65227138Y-91493466D01*
X64823466Y-91897138D01*
X64605000Y-92424561D01*
X64605000Y-92995439D01*
X64823466Y-93522862D01*
X65227138Y-93926534D01*
X65754561Y-94145000D01*
X66325439Y-94145000D01*
X66852862Y-93926534D01*
X67256534Y-93522862D01*
X67475000Y-92995439D01*
X67475000Y-92424561D01*
X67256534Y-91897138D01*
X66852862Y-91493466D01*
X66772068Y-91460000D01*
X66820352Y-91440000D01*
X72196887Y-91440000D01*
X72308260Y-91999909D01*
X72625423Y-92474577D01*
X73100091Y-92791740D01*
X73518667Y-92875000D01*
X73801333Y-92875000D01*
X74219909Y-92791740D01*
X74694577Y-92474577D01*
X75011740Y-91999909D01*
X75123113Y-91440000D01*
X75011740Y-90880091D01*
X74694577Y-90405423D01*
X74219909Y-90088260D01*
X73801333Y-90005000D01*
X73518667Y-90005000D01*
X73100091Y-90088260D01*
X72625423Y-90405423D01*
X72308260Y-90880091D01*
X72196887Y-91440000D01*
X66820352Y-91440000D01*
X66852862Y-91426534D01*
X67256534Y-91022862D01*
X67475000Y-90495439D01*
X67475000Y-89924561D01*
X67256534Y-89397138D01*
X66852862Y-88993466D01*
X66325439Y-88775000D01*
X65754561Y-88775000D01*
X65227138Y-88993466D01*
X64823466Y-89397138D01*
X64605000Y-89924561D01*
X59855000Y-89924561D01*
X59636534Y-89397138D01*
X59232862Y-88993466D01*
X58705439Y-88775000D01*
X58134561Y-88775000D01*
X57607138Y-88993466D01*
X57203466Y-89397138D01*
X56985000Y-89924561D01*
X54626844Y-89924561D01*
X54573993Y-89658864D01*
X54284457Y-89225543D01*
X54201331Y-89170000D01*
X54284457Y-89114457D01*
X54573993Y-88681136D01*
X54675664Y-88170000D01*
X54573993Y-87658864D01*
X54378286Y-87365968D01*
X54472809Y-87302809D01*
X54613157Y-87092765D01*
X54662440Y-86845000D01*
X54662440Y-86360000D01*
X55686887Y-86360000D01*
X55798260Y-86919909D01*
X56115423Y-87394577D01*
X56590091Y-87711740D01*
X57008667Y-87795000D01*
X57291333Y-87795000D01*
X57709909Y-87711740D01*
X58184577Y-87394577D01*
X58501740Y-86919909D01*
X58613113Y-86360000D01*
X58556336Y-86074561D01*
X63335000Y-86074561D01*
X63335000Y-86645439D01*
X63553466Y-87172862D01*
X63957138Y-87576534D01*
X64484561Y-87795000D01*
X65055439Y-87795000D01*
X65582862Y-87576534D01*
X65986534Y-87172862D01*
X66205000Y-86645439D01*
X66205000Y-86074561D01*
X67145000Y-86074561D01*
X67145000Y-86645439D01*
X67363466Y-87172862D01*
X67767138Y-87576534D01*
X68294561Y-87795000D01*
X68865439Y-87795000D01*
X69392862Y-87576534D01*
X69796534Y-87172862D01*
X69988655Y-86709039D01*
X71868096Y-86709039D01*
X71885633Y-86791819D01*
X72155500Y-87284896D01*
X72593517Y-87637166D01*
X73133000Y-87795000D01*
X73533000Y-87795000D01*
X73533000Y-86487000D01*
X73787000Y-86487000D01*
X73787000Y-87795000D01*
X74187000Y-87795000D01*
X74726483Y-87637166D01*
X75164500Y-87284896D01*
X75434367Y-86791819D01*
X75451904Y-86709039D01*
X75329915Y-86487000D01*
X73787000Y-86487000D01*
X73533000Y-86487000D01*
X71990085Y-86487000D01*
X71868096Y-86709039D01*
X69988655Y-86709039D01*
X70015000Y-86645439D01*
X70015000Y-86074561D01*
X69796534Y-85547138D01*
X69392862Y-85143466D01*
X68865439Y-84925000D01*
X68294561Y-84925000D01*
X67767138Y-85143466D01*
X67363466Y-85547138D01*
X67145000Y-86074561D01*
X66205000Y-86074561D01*
X65986534Y-85547138D01*
X65582862Y-85143466D01*
X65055439Y-84925000D01*
X64484561Y-84925000D01*
X63957138Y-85143466D01*
X63553466Y-85547138D01*
X63335000Y-86074561D01*
X58556336Y-86074561D01*
X58501740Y-85800091D01*
X58184577Y-85325423D01*
X57709909Y-85008260D01*
X57291333Y-84925000D01*
X57008667Y-84925000D01*
X56590091Y-85008260D01*
X56115423Y-85325423D01*
X55798260Y-85800091D01*
X55686887Y-86360000D01*
X54662440Y-86360000D01*
X54662440Y-85495000D01*
X54613157Y-85247235D01*
X54472809Y-85037191D01*
X54262765Y-84896843D01*
X54015000Y-84847560D01*
X52665000Y-84847560D01*
X52417235Y-84896843D01*
X52207191Y-85037191D01*
X52066843Y-85247235D01*
X52017560Y-85495000D01*
X52017560Y-86845000D01*
X52066843Y-87092765D01*
X52207191Y-87302809D01*
X52301714Y-87365968D01*
X52106007Y-87658864D01*
X52004336Y-88170000D01*
X51510000Y-88170000D01*
X51510000Y-80010000D01*
X51876887Y-80010000D01*
X51988260Y-80569909D01*
X52305423Y-81044577D01*
X52780091Y-81361740D01*
X53198667Y-81445000D01*
X53481333Y-81445000D01*
X53899909Y-81361740D01*
X54374577Y-81044577D01*
X54691740Y-80569909D01*
X54803113Y-80010000D01*
X54746336Y-79724561D01*
X59525000Y-79724561D01*
X59525000Y-80295439D01*
X59743466Y-80822862D01*
X60147138Y-81226534D01*
X60674561Y-81445000D01*
X61245439Y-81445000D01*
X61643783Y-81280000D01*
X71796887Y-81280000D01*
X71908260Y-81839909D01*
X72225423Y-82314577D01*
X72577758Y-82550000D01*
X72225423Y-82785423D01*
X71908260Y-83260091D01*
X71796887Y-83820000D01*
X71908260Y-84379909D01*
X72225423Y-84854577D01*
X72581499Y-85092499D01*
X72155500Y-85435104D01*
X71885633Y-85928181D01*
X71868096Y-86010961D01*
X71990085Y-86233000D01*
X73533000Y-86233000D01*
X73533000Y-86213000D01*
X73787000Y-86213000D01*
X73787000Y-86233000D01*
X75329915Y-86233000D01*
X75451904Y-86010961D01*
X75434367Y-85928181D01*
X75164500Y-85435104D01*
X74738501Y-85092499D01*
X75094577Y-84854577D01*
X75411740Y-84379909D01*
X75523113Y-83820000D01*
X75522595Y-83817396D01*
X79250000Y-87544802D01*
X79250001Y-90221956D01*
X78975423Y-90405423D01*
X78658260Y-90880091D01*
X78546887Y-91440000D01*
X78658260Y-91999909D01*
X78975423Y-92474577D01*
X79450091Y-92791740D01*
X79868667Y-92875000D01*
X80151333Y-92875000D01*
X80569909Y-92791740D01*
X81044577Y-92474577D01*
X81361740Y-91999909D01*
X81473113Y-91440000D01*
X84896887Y-91440000D01*
X85008260Y-91999909D01*
X85325423Y-92474577D01*
X85800091Y-92791740D01*
X86218667Y-92875000D01*
X86501333Y-92875000D01*
X86919909Y-92791740D01*
X87394577Y-92474577D01*
X87427996Y-92424561D01*
X92545000Y-92424561D01*
X92545000Y-92995439D01*
X92763466Y-93522862D01*
X93167138Y-93926534D01*
X93694561Y-94145000D01*
X94265439Y-94145000D01*
X94792862Y-93926534D01*
X95196534Y-93522862D01*
X95415000Y-92995439D01*
X95415000Y-92424561D01*
X95196534Y-91897138D01*
X94792862Y-91493466D01*
X94265439Y-91275000D01*
X93694561Y-91275000D01*
X93167138Y-91493466D01*
X92763466Y-91897138D01*
X92545000Y-92424561D01*
X87427996Y-92424561D01*
X87711740Y-91999909D01*
X87823113Y-91440000D01*
X87711740Y-90880091D01*
X87394577Y-90405423D01*
X86919909Y-90088260D01*
X86501333Y-90005000D01*
X86218667Y-90005000D01*
X85800091Y-90088260D01*
X85325423Y-90405423D01*
X85008260Y-90880091D01*
X84896887Y-91440000D01*
X81473113Y-91440000D01*
X81361740Y-90880091D01*
X81044577Y-90405423D01*
X80770000Y-90221957D01*
X80770000Y-87795000D01*
X81821333Y-87795000D01*
X82239909Y-87711740D01*
X82362241Y-87630000D01*
X84896887Y-87630000D01*
X85008260Y-88189909D01*
X85325423Y-88664577D01*
X85800091Y-88981740D01*
X86218667Y-89065000D01*
X86501333Y-89065000D01*
X86919909Y-88981740D01*
X87394577Y-88664577D01*
X87711740Y-88189909D01*
X87823113Y-87630000D01*
X87711740Y-87070091D01*
X87470493Y-86709039D01*
X92188096Y-86709039D01*
X92205633Y-86791819D01*
X92475500Y-87284896D01*
X92913517Y-87637166D01*
X93453000Y-87795000D01*
X93853000Y-87795000D01*
X93853000Y-86487000D01*
X94107000Y-86487000D01*
X94107000Y-87795000D01*
X94507000Y-87795000D01*
X95046483Y-87637166D01*
X95484500Y-87284896D01*
X95754367Y-86791819D01*
X95771904Y-86709039D01*
X95649915Y-86487000D01*
X94107000Y-86487000D01*
X93853000Y-86487000D01*
X92310085Y-86487000D01*
X92188096Y-86709039D01*
X87470493Y-86709039D01*
X87394577Y-86595423D01*
X86919909Y-86278260D01*
X86501333Y-86195000D01*
X86218667Y-86195000D01*
X85800091Y-86278260D01*
X85325423Y-86595423D01*
X85008260Y-87070091D01*
X84896887Y-87630000D01*
X82362241Y-87630000D01*
X82714577Y-87394577D01*
X83031740Y-86919909D01*
X83143113Y-86360000D01*
X83031740Y-85800091D01*
X82714577Y-85325423D01*
X82362242Y-85090000D01*
X82714577Y-84854577D01*
X83031740Y-84379909D01*
X83143113Y-83820000D01*
X83031740Y-83260091D01*
X82714577Y-82785423D01*
X82362242Y-82550000D01*
X82714577Y-82314577D01*
X83031740Y-81839909D01*
X83143113Y-81280000D01*
X83142595Y-81277397D01*
X84754681Y-82889483D01*
X84797081Y-82952939D01*
X84860537Y-82995339D01*
X85048472Y-83120914D01*
X85096615Y-83130490D01*
X85270158Y-83165010D01*
X85270162Y-83165010D01*
X85345010Y-83179898D01*
X85419858Y-83165010D01*
X92291791Y-83165010D01*
X92228260Y-83260091D01*
X92116887Y-83820000D01*
X92228260Y-84379909D01*
X92545423Y-84854577D01*
X92901499Y-85092499D01*
X92475500Y-85435104D01*
X92205633Y-85928181D01*
X92188096Y-86010961D01*
X92310085Y-86233000D01*
X93853000Y-86233000D01*
X93853000Y-86213000D01*
X94107000Y-86213000D01*
X94107000Y-86233000D01*
X95649915Y-86233000D01*
X95771904Y-86010961D01*
X95754367Y-85928181D01*
X95484500Y-85435104D01*
X95058501Y-85092499D01*
X95414577Y-84854577D01*
X95731740Y-84379909D01*
X95843113Y-83820000D01*
X95731740Y-83260091D01*
X95668209Y-83165010D01*
X97460143Y-83165010D01*
X97534990Y-83179898D01*
X97609837Y-83165010D01*
X97609842Y-83165010D01*
X97831527Y-83120914D01*
X98082919Y-82952939D01*
X98125321Y-82889480D01*
X99314991Y-81699810D01*
X99314990Y-97805143D01*
X99305048Y-97855122D01*
X99197191Y-97927191D01*
X99119856Y-98042930D01*
X98993633Y-97930522D01*
X98659400Y-97792090D01*
X98457000Y-97915776D01*
X98457000Y-98933000D01*
X98477000Y-98933000D01*
X98477000Y-99187000D01*
X98457000Y-99187000D01*
X98457000Y-100204224D01*
X98659400Y-100327910D01*
X98993633Y-100189478D01*
X99119856Y-100077070D01*
X99197191Y-100192809D01*
X99407235Y-100333157D01*
X99655000Y-100382440D01*
X101005000Y-100382440D01*
X101252765Y-100333157D01*
X101462809Y-100192809D01*
X101603157Y-99982765D01*
X101652440Y-99735000D01*
X101652440Y-99060000D01*
X107694336Y-99060000D01*
X107796007Y-99571136D01*
X108085543Y-100004457D01*
X108518864Y-100293993D01*
X108900978Y-100370000D01*
X109159022Y-100370000D01*
X109541136Y-100293993D01*
X109974457Y-100004457D01*
X110030000Y-99921331D01*
X110085543Y-100004457D01*
X110518864Y-100293993D01*
X110900978Y-100370000D01*
X111159022Y-100370000D01*
X111541136Y-100293993D01*
X111834032Y-100098286D01*
X111897191Y-100192809D01*
X112107235Y-100333157D01*
X112355000Y-100382440D01*
X113705000Y-100382440D01*
X113952765Y-100333157D01*
X114162809Y-100192809D01*
X114303157Y-99982765D01*
X114352440Y-99735000D01*
X114352440Y-99060000D01*
X119314336Y-99060000D01*
X119416007Y-99571136D01*
X119705543Y-100004457D01*
X120138864Y-100293993D01*
X120520978Y-100370000D01*
X120779022Y-100370000D01*
X121161136Y-100293993D01*
X121594457Y-100004457D01*
X121650000Y-99921331D01*
X121705543Y-100004457D01*
X122138864Y-100293993D01*
X122520978Y-100370000D01*
X122779022Y-100370000D01*
X123161136Y-100293993D01*
X123454032Y-100098286D01*
X123517191Y-100192809D01*
X123727235Y-100333157D01*
X123975000Y-100382440D01*
X125325000Y-100382440D01*
X125572765Y-100333157D01*
X125782809Y-100192809D01*
X125923157Y-99982765D01*
X125972440Y-99735000D01*
X125972440Y-99060000D01*
X130554336Y-99060000D01*
X130656007Y-99571136D01*
X130945543Y-100004457D01*
X131378864Y-100293993D01*
X131760978Y-100370000D01*
X132019022Y-100370000D01*
X132401136Y-100293993D01*
X132834457Y-100004457D01*
X132890000Y-99921331D01*
X132945543Y-100004457D01*
X133378864Y-100293993D01*
X133760978Y-100370000D01*
X134019022Y-100370000D01*
X134401136Y-100293993D01*
X134694032Y-100098286D01*
X134757191Y-100192809D01*
X134967235Y-100333157D01*
X135215000Y-100382440D01*
X136565000Y-100382440D01*
X136812765Y-100333157D01*
X137022809Y-100192809D01*
X137163157Y-99982765D01*
X137212440Y-99735000D01*
X137212440Y-98774561D01*
X144615000Y-98774561D01*
X144615000Y-99345439D01*
X144833466Y-99872862D01*
X145237138Y-100276534D01*
X145764561Y-100495000D01*
X146335439Y-100495000D01*
X146862862Y-100276534D01*
X147266534Y-99872862D01*
X147485000Y-99345439D01*
X147485000Y-99060000D01*
X152206887Y-99060000D01*
X152318260Y-99619909D01*
X152635423Y-100094577D01*
X153110091Y-100411740D01*
X153528667Y-100495000D01*
X153811333Y-100495000D01*
X154229909Y-100411740D01*
X154704577Y-100094577D01*
X155021740Y-99619909D01*
X155133113Y-99060000D01*
X155021740Y-98500091D01*
X154704577Y-98025423D01*
X154229909Y-97708260D01*
X153811333Y-97625000D01*
X153528667Y-97625000D01*
X153110091Y-97708260D01*
X152635423Y-98025423D01*
X152318260Y-98500091D01*
X152206887Y-99060000D01*
X147485000Y-99060000D01*
X147485000Y-98774561D01*
X147266534Y-98247138D01*
X146862862Y-97843466D01*
X146335439Y-97625000D01*
X145764561Y-97625000D01*
X145237138Y-97843466D01*
X144833466Y-98247138D01*
X144615000Y-98774561D01*
X137212440Y-98774561D01*
X137212440Y-98385000D01*
X137163157Y-98137235D01*
X137022809Y-97927191D01*
X136812765Y-97786843D01*
X136565000Y-97737560D01*
X135215000Y-97737560D01*
X134967235Y-97786843D01*
X134757191Y-97927191D01*
X134694032Y-98021714D01*
X134401136Y-97826007D01*
X134019022Y-97750000D01*
X133760978Y-97750000D01*
X133378864Y-97826007D01*
X132945543Y-98115543D01*
X132890000Y-98198669D01*
X132834457Y-98115543D01*
X132401136Y-97826007D01*
X132019022Y-97750000D01*
X131760978Y-97750000D01*
X131378864Y-97826007D01*
X130945543Y-98115543D01*
X130656007Y-98548864D01*
X130554336Y-99060000D01*
X125972440Y-99060000D01*
X125972440Y-98385000D01*
X125923157Y-98137235D01*
X125782809Y-97927191D01*
X125572765Y-97786843D01*
X125325000Y-97737560D01*
X123975000Y-97737560D01*
X123727235Y-97786843D01*
X123517191Y-97927191D01*
X123454032Y-98021714D01*
X123161136Y-97826007D01*
X122992365Y-97792436D01*
X126661698Y-94123104D01*
X126714561Y-94145000D01*
X127285439Y-94145000D01*
X127812862Y-93926534D01*
X128216534Y-93522862D01*
X128435000Y-92995439D01*
X128435000Y-92424561D01*
X133225000Y-92424561D01*
X133225000Y-92995439D01*
X133443466Y-93522862D01*
X133847138Y-93926534D01*
X134374561Y-94145000D01*
X134945439Y-94145000D01*
X135472862Y-93926534D01*
X135876534Y-93522862D01*
X135910000Y-93442068D01*
X135943466Y-93522862D01*
X136347138Y-93926534D01*
X136874561Y-94145000D01*
X137445439Y-94145000D01*
X137843783Y-93980000D01*
X144586887Y-93980000D01*
X144698260Y-94539909D01*
X145015423Y-95014577D01*
X145490091Y-95331740D01*
X145908667Y-95415000D01*
X146191333Y-95415000D01*
X146609909Y-95331740D01*
X147084577Y-95014577D01*
X147401740Y-94539909D01*
X147513113Y-93980000D01*
X147456336Y-93694561D01*
X152235000Y-93694561D01*
X152235000Y-94265439D01*
X152453466Y-94792862D01*
X152857138Y-95196534D01*
X153384561Y-95415000D01*
X153955439Y-95415000D01*
X154482862Y-95196534D01*
X154886534Y-94792862D01*
X155105000Y-94265439D01*
X155105000Y-93694561D01*
X154886534Y-93167138D01*
X154482862Y-92763466D01*
X154353784Y-92710000D01*
X159826887Y-92710000D01*
X159938260Y-93269909D01*
X160255423Y-93744577D01*
X160730091Y-94061740D01*
X161148667Y-94145000D01*
X161431333Y-94145000D01*
X161849909Y-94061740D01*
X162324577Y-93744577D01*
X162641740Y-93269909D01*
X162753113Y-92710000D01*
X162641740Y-92150091D01*
X162324577Y-91675423D01*
X161849909Y-91358260D01*
X161431333Y-91275000D01*
X161148667Y-91275000D01*
X160730091Y-91358260D01*
X160255423Y-91675423D01*
X159938260Y-92150091D01*
X159826887Y-92710000D01*
X154353784Y-92710000D01*
X153955439Y-92545000D01*
X153384561Y-92545000D01*
X152857138Y-92763466D01*
X152453466Y-93167138D01*
X152235000Y-93694561D01*
X147456336Y-93694561D01*
X147401740Y-93420091D01*
X147084577Y-92945423D01*
X146609909Y-92628260D01*
X146191333Y-92545000D01*
X145908667Y-92545000D01*
X145490091Y-92628260D01*
X145015423Y-92945423D01*
X144698260Y-93420091D01*
X144586887Y-93980000D01*
X137843783Y-93980000D01*
X137972862Y-93926534D01*
X138376534Y-93522862D01*
X138595000Y-92995439D01*
X138595000Y-92424561D01*
X138376534Y-91897138D01*
X137972862Y-91493466D01*
X137445439Y-91275000D01*
X136874561Y-91275000D01*
X136347138Y-91493466D01*
X135943466Y-91897138D01*
X135910000Y-91977932D01*
X135876534Y-91897138D01*
X135472862Y-91493466D01*
X134945439Y-91275000D01*
X134374561Y-91275000D01*
X133847138Y-91493466D01*
X133443466Y-91897138D01*
X133225000Y-92424561D01*
X128435000Y-92424561D01*
X128216534Y-91897138D01*
X127812862Y-91493466D01*
X127285439Y-91275000D01*
X126714561Y-91275000D01*
X126187138Y-91493466D01*
X125783466Y-91897138D01*
X125565000Y-92424561D01*
X125565000Y-92995439D01*
X125586896Y-93048302D01*
X120867583Y-97767616D01*
X120779022Y-97750000D01*
X120520978Y-97750000D01*
X120138864Y-97826007D01*
X119705543Y-98115543D01*
X119416007Y-98548864D01*
X119314336Y-99060000D01*
X114352440Y-99060000D01*
X114352440Y-98385000D01*
X114303157Y-98137235D01*
X114162809Y-97927191D01*
X113952765Y-97786843D01*
X113705000Y-97737560D01*
X112355000Y-97737560D01*
X112107235Y-97786843D01*
X111897191Y-97927191D01*
X111834032Y-98021714D01*
X111541136Y-97826007D01*
X111159022Y-97750000D01*
X110900978Y-97750000D01*
X110518864Y-97826007D01*
X110085543Y-98115543D01*
X110030000Y-98198669D01*
X109974457Y-98115543D01*
X109541136Y-97826007D01*
X109159022Y-97750000D01*
X108900978Y-97750000D01*
X108518864Y-97826007D01*
X108085543Y-98115543D01*
X107796007Y-98548864D01*
X107694336Y-99060000D01*
X101652440Y-99060000D01*
X101652440Y-98385000D01*
X101603157Y-98137235D01*
X101462809Y-97927191D01*
X101252765Y-97786843D01*
X101005000Y-97737560D01*
X100978483Y-97737560D01*
X100877929Y-97587071D01*
X100834990Y-97558380D01*
X100834990Y-93924696D01*
X101040091Y-94061740D01*
X101458667Y-94145000D01*
X101741333Y-94145000D01*
X102159909Y-94061740D01*
X102634577Y-93744577D01*
X102951740Y-93269909D01*
X103063113Y-92710000D01*
X103006336Y-92424561D01*
X110365000Y-92424561D01*
X110365000Y-92995439D01*
X110583466Y-93522862D01*
X110987138Y-93926534D01*
X111514561Y-94145000D01*
X112085439Y-94145000D01*
X112612862Y-93926534D01*
X113016534Y-93522862D01*
X113050000Y-93442068D01*
X113083466Y-93522862D01*
X113487138Y-93926534D01*
X114014561Y-94145000D01*
X114585439Y-94145000D01*
X115112862Y-93926534D01*
X115516534Y-93522862D01*
X115735000Y-92995439D01*
X115735000Y-92710000D01*
X117916887Y-92710000D01*
X118028260Y-93269909D01*
X118345423Y-93744577D01*
X118820091Y-94061740D01*
X119238667Y-94145000D01*
X119521333Y-94145000D01*
X119939909Y-94061740D01*
X120414577Y-93744577D01*
X120731740Y-93269909D01*
X120843113Y-92710000D01*
X120731740Y-92150091D01*
X120414577Y-91675423D01*
X119939909Y-91358260D01*
X119521333Y-91275000D01*
X119238667Y-91275000D01*
X118820091Y-91358260D01*
X118345423Y-91675423D01*
X118028260Y-92150091D01*
X117916887Y-92710000D01*
X115735000Y-92710000D01*
X115735000Y-92424561D01*
X115516534Y-91897138D01*
X115112862Y-91493466D01*
X114585439Y-91275000D01*
X114014561Y-91275000D01*
X113487138Y-91493466D01*
X113083466Y-91897138D01*
X113050000Y-91977932D01*
X113016534Y-91897138D01*
X112612862Y-91493466D01*
X112085439Y-91275000D01*
X111514561Y-91275000D01*
X110987138Y-91493466D01*
X110583466Y-91897138D01*
X110365000Y-92424561D01*
X103006336Y-92424561D01*
X102951740Y-92150091D01*
X102634577Y-91675423D01*
X102159909Y-91358260D01*
X101741333Y-91275000D01*
X101458667Y-91275000D01*
X101040091Y-91358260D01*
X100834990Y-91495304D01*
X100834990Y-87750508D01*
X101058667Y-87795000D01*
X102141333Y-87795000D01*
X102559909Y-87711740D01*
X103034577Y-87394577D01*
X103351740Y-86919909D01*
X103393684Y-86709039D01*
X109968096Y-86709039D01*
X109985633Y-86791819D01*
X110255500Y-87284896D01*
X110693517Y-87637166D01*
X111233000Y-87795000D01*
X111633000Y-87795000D01*
X111633000Y-86487000D01*
X111887000Y-86487000D01*
X111887000Y-87795000D01*
X112287000Y-87795000D01*
X112826483Y-87637166D01*
X113264500Y-87284896D01*
X113534367Y-86791819D01*
X113551904Y-86709039D01*
X113429915Y-86487000D01*
X111887000Y-86487000D01*
X111633000Y-86487000D01*
X110090085Y-86487000D01*
X109968096Y-86709039D01*
X103393684Y-86709039D01*
X103463113Y-86360000D01*
X103351740Y-85800091D01*
X103034577Y-85325423D01*
X102682242Y-85090000D01*
X103034577Y-84854577D01*
X103351740Y-84379909D01*
X103463113Y-83820000D01*
X103351740Y-83260091D01*
X103034577Y-82785423D01*
X102682242Y-82550000D01*
X103034577Y-82314577D01*
X103351740Y-81839909D01*
X103463113Y-81280000D01*
X103351740Y-80720091D01*
X103288203Y-80625001D01*
X110071797Y-80625001D01*
X110008260Y-80720091D01*
X109896887Y-81280000D01*
X110008260Y-81839909D01*
X110325423Y-82314577D01*
X110677758Y-82550000D01*
X110325423Y-82785423D01*
X110008260Y-83260091D01*
X109896887Y-83820000D01*
X110008260Y-84379909D01*
X110325423Y-84854577D01*
X110681499Y-85092499D01*
X110255500Y-85435104D01*
X109985633Y-85928181D01*
X109968096Y-86010961D01*
X110090085Y-86233000D01*
X111633000Y-86233000D01*
X111633000Y-86213000D01*
X111887000Y-86213000D01*
X111887000Y-86233000D01*
X113429915Y-86233000D01*
X113551904Y-86010961D01*
X113534367Y-85928181D01*
X113264500Y-85435104D01*
X112838501Y-85092499D01*
X113194577Y-84854577D01*
X113511740Y-84379909D01*
X113623113Y-83820000D01*
X113511740Y-83260091D01*
X113194577Y-82785423D01*
X112842242Y-82550000D01*
X113194577Y-82314577D01*
X113511740Y-81839909D01*
X113623113Y-81280000D01*
X113511740Y-80720091D01*
X113448203Y-80625001D01*
X116730152Y-80625001D01*
X116804999Y-80639889D01*
X116879846Y-80625001D01*
X116879851Y-80625001D01*
X117101536Y-80580905D01*
X117352928Y-80412930D01*
X117395330Y-80349471D01*
X117960290Y-79784511D01*
X118297758Y-80010000D01*
X117945423Y-80245423D01*
X117628260Y-80720091D01*
X117516887Y-81280000D01*
X117628260Y-81839909D01*
X117945423Y-82314577D01*
X118297758Y-82550000D01*
X117945423Y-82785423D01*
X117628260Y-83260091D01*
X117516887Y-83820000D01*
X117628260Y-84379909D01*
X117945423Y-84854577D01*
X118297758Y-85090000D01*
X117945423Y-85325423D01*
X117628260Y-85800091D01*
X117516887Y-86360000D01*
X117628260Y-86919909D01*
X117945423Y-87394577D01*
X118420091Y-87711740D01*
X118838667Y-87795000D01*
X119921333Y-87795000D01*
X120339909Y-87711740D01*
X120814577Y-87394577D01*
X121131740Y-86919909D01*
X121243113Y-86360000D01*
X125536887Y-86360000D01*
X125648260Y-86919909D01*
X125965423Y-87394577D01*
X126440091Y-87711740D01*
X126858667Y-87795000D01*
X127141333Y-87795000D01*
X127559909Y-87711740D01*
X128034577Y-87394577D01*
X128351740Y-86919909D01*
X128463113Y-86360000D01*
X131886887Y-86360000D01*
X131998260Y-86919909D01*
X132315423Y-87394577D01*
X132790091Y-87711740D01*
X133208667Y-87795000D01*
X133491333Y-87795000D01*
X133909909Y-87711740D01*
X134384577Y-87394577D01*
X134701740Y-86919909D01*
X134813113Y-86360000D01*
X134756336Y-86074561D01*
X136995000Y-86074561D01*
X136995000Y-86645439D01*
X137213466Y-87172862D01*
X137617138Y-87576534D01*
X138144561Y-87795000D01*
X138715439Y-87795000D01*
X139242862Y-87576534D01*
X139646534Y-87172862D01*
X139838655Y-86709039D01*
X142988096Y-86709039D01*
X143005633Y-86791819D01*
X143275500Y-87284896D01*
X143713517Y-87637166D01*
X144253000Y-87795000D01*
X144653000Y-87795000D01*
X144653000Y-86487000D01*
X144907000Y-86487000D01*
X144907000Y-87795000D01*
X145307000Y-87795000D01*
X145846483Y-87637166D01*
X146284500Y-87284896D01*
X146554367Y-86791819D01*
X146571904Y-86709039D01*
X146449915Y-86487000D01*
X144907000Y-86487000D01*
X144653000Y-86487000D01*
X143110085Y-86487000D01*
X142988096Y-86709039D01*
X139838655Y-86709039D01*
X139865000Y-86645439D01*
X139865000Y-86074561D01*
X139646534Y-85547138D01*
X139242862Y-85143466D01*
X138715439Y-84925000D01*
X138144561Y-84925000D01*
X137617138Y-85143466D01*
X137213466Y-85547138D01*
X136995000Y-86074561D01*
X134756336Y-86074561D01*
X134701740Y-85800091D01*
X134384577Y-85325423D01*
X133909909Y-85008260D01*
X133491333Y-84925000D01*
X133208667Y-84925000D01*
X132790091Y-85008260D01*
X132315423Y-85325423D01*
X131998260Y-85800091D01*
X131886887Y-86360000D01*
X128463113Y-86360000D01*
X128351740Y-85800091D01*
X128034577Y-85325423D01*
X127559909Y-85008260D01*
X127141333Y-84925000D01*
X126858667Y-84925000D01*
X126440091Y-85008260D01*
X125965423Y-85325423D01*
X125648260Y-85800091D01*
X125536887Y-86360000D01*
X121243113Y-86360000D01*
X121131740Y-85800091D01*
X120814577Y-85325423D01*
X120462242Y-85090000D01*
X120814577Y-84854577D01*
X121131740Y-84379909D01*
X121243113Y-83820000D01*
X121131740Y-83260091D01*
X120814577Y-82785423D01*
X120462242Y-82550000D01*
X120814577Y-82314577D01*
X121131740Y-81839909D01*
X121243113Y-81280000D01*
X121131740Y-80720091D01*
X121068203Y-80625001D01*
X143091797Y-80625001D01*
X143028260Y-80720091D01*
X142916887Y-81280000D01*
X143028260Y-81839909D01*
X143345423Y-82314577D01*
X143697758Y-82550000D01*
X143345423Y-82785423D01*
X143028260Y-83260091D01*
X142916887Y-83820000D01*
X143028260Y-84379909D01*
X143345423Y-84854577D01*
X143701499Y-85092499D01*
X143275500Y-85435104D01*
X143005633Y-85928181D01*
X142988096Y-86010961D01*
X143110085Y-86233000D01*
X144653000Y-86233000D01*
X144653000Y-86213000D01*
X144907000Y-86213000D01*
X144907000Y-86233000D01*
X146449915Y-86233000D01*
X146571904Y-86010961D01*
X146554367Y-85928181D01*
X146284500Y-85435104D01*
X145858501Y-85092499D01*
X146214577Y-84854577D01*
X146531740Y-84379909D01*
X146643113Y-83820000D01*
X146531740Y-83260091D01*
X146214577Y-82785423D01*
X145862242Y-82550000D01*
X146214577Y-82314577D01*
X146531740Y-81839909D01*
X146643113Y-81280000D01*
X146531740Y-80720091D01*
X146468203Y-80625001D01*
X149750152Y-80625001D01*
X149824999Y-80639889D01*
X149899846Y-80625001D01*
X149899851Y-80625001D01*
X150121536Y-80580905D01*
X150372928Y-80412930D01*
X150415330Y-80349471D01*
X150980290Y-79784511D01*
X151317758Y-80010000D01*
X150965423Y-80245423D01*
X150648260Y-80720091D01*
X150536887Y-81280000D01*
X150648260Y-81839909D01*
X150965423Y-82314577D01*
X151317758Y-82550000D01*
X150965423Y-82785423D01*
X150648260Y-83260091D01*
X150536887Y-83820000D01*
X150648260Y-84379909D01*
X150965423Y-84854577D01*
X151317758Y-85090000D01*
X150965423Y-85325423D01*
X150648260Y-85800091D01*
X150536887Y-86360000D01*
X150648260Y-86919909D01*
X150965423Y-87394577D01*
X151440091Y-87711740D01*
X151858667Y-87795000D01*
X152941333Y-87795000D01*
X153359909Y-87711740D01*
X153834577Y-87394577D01*
X154151740Y-86919909D01*
X154263113Y-86360000D01*
X154151740Y-85800091D01*
X153834577Y-85325423D01*
X153482242Y-85090000D01*
X153834577Y-84854577D01*
X154151740Y-84379909D01*
X154169624Y-84290000D01*
X159842560Y-84290000D01*
X159842560Y-85890000D01*
X159891843Y-86137765D01*
X160032191Y-86347809D01*
X160242235Y-86488157D01*
X160490000Y-86537440D01*
X162090000Y-86537440D01*
X162337765Y-86488157D01*
X162547809Y-86347809D01*
X162688157Y-86137765D01*
X162737440Y-85890000D01*
X162737440Y-84290000D01*
X162688157Y-84042235D01*
X162547809Y-83832191D01*
X162337765Y-83691843D01*
X162090000Y-83642560D01*
X160490000Y-83642560D01*
X160242235Y-83691843D01*
X160032191Y-83832191D01*
X159891843Y-84042235D01*
X159842560Y-84290000D01*
X154169624Y-84290000D01*
X154263113Y-83820000D01*
X154151740Y-83260091D01*
X153834577Y-82785423D01*
X153482242Y-82550000D01*
X153834577Y-82314577D01*
X154151740Y-81839909D01*
X154263113Y-81280000D01*
X159826887Y-81280000D01*
X159938260Y-81839909D01*
X160255423Y-82314577D01*
X160730091Y-82631740D01*
X161148667Y-82715000D01*
X161431333Y-82715000D01*
X161849909Y-82631740D01*
X162324577Y-82314577D01*
X162641740Y-81839909D01*
X162753113Y-81280000D01*
X162641740Y-80720091D01*
X162324577Y-80245423D01*
X161849909Y-79928260D01*
X161431333Y-79845000D01*
X161148667Y-79845000D01*
X160730091Y-79928260D01*
X160255423Y-80245423D01*
X159938260Y-80720091D01*
X159826887Y-81280000D01*
X154263113Y-81280000D01*
X154151740Y-80720091D01*
X153834577Y-80245423D01*
X153482242Y-80010000D01*
X153834577Y-79774577D01*
X154151740Y-79299909D01*
X154263113Y-78740000D01*
X154151740Y-78180091D01*
X153834577Y-77705423D01*
X153359909Y-77388260D01*
X152941333Y-77305000D01*
X151858667Y-77305000D01*
X151440091Y-77388260D01*
X150965423Y-77705423D01*
X150767672Y-78001378D01*
X150701605Y-78014520D01*
X150653462Y-78024096D01*
X150466418Y-78149076D01*
X150402071Y-78192071D01*
X150359671Y-78255527D01*
X149510198Y-79105001D01*
X146627440Y-79105001D01*
X146627440Y-77940000D01*
X146578157Y-77692235D01*
X146437809Y-77482191D01*
X146227765Y-77341843D01*
X145980000Y-77292560D01*
X143580000Y-77292560D01*
X143332235Y-77341843D01*
X143122191Y-77482191D01*
X142981843Y-77692235D01*
X142932560Y-77940000D01*
X142932560Y-79105001D01*
X139820510Y-79105001D01*
X139893113Y-78740000D01*
X139781740Y-78180091D01*
X139464577Y-77705423D01*
X138989909Y-77388260D01*
X138571333Y-77305000D01*
X138288667Y-77305000D01*
X137870091Y-77388260D01*
X137395423Y-77705423D01*
X137078260Y-78180091D01*
X136966887Y-78740000D01*
X137039490Y-79105001D01*
X134752044Y-79105001D01*
X134785000Y-79025439D01*
X134785000Y-78454561D01*
X134566534Y-77927138D01*
X134162862Y-77523466D01*
X133635439Y-77305000D01*
X133064561Y-77305000D01*
X132537138Y-77523466D01*
X132133466Y-77927138D01*
X131915000Y-78454561D01*
X131915000Y-79025439D01*
X131947956Y-79105001D01*
X128402044Y-79105001D01*
X128435000Y-79025439D01*
X128435000Y-78454561D01*
X128216534Y-77927138D01*
X127812862Y-77523466D01*
X127285439Y-77305000D01*
X126714561Y-77305000D01*
X126187138Y-77523466D01*
X125783466Y-77927138D01*
X125565000Y-78454561D01*
X125565000Y-79025439D01*
X125597956Y-79105001D01*
X121219803Y-79105001D01*
X121178688Y-79063886D01*
X121243113Y-78740000D01*
X121131740Y-78180091D01*
X120814577Y-77705423D01*
X120339909Y-77388260D01*
X119921333Y-77305000D01*
X118838667Y-77305000D01*
X118420091Y-77388260D01*
X117945423Y-77705423D01*
X117747672Y-78001378D01*
X117681605Y-78014520D01*
X117633462Y-78024096D01*
X117446418Y-78149076D01*
X117382071Y-78192071D01*
X117339671Y-78255527D01*
X116490198Y-79105001D01*
X113607440Y-79105001D01*
X113607440Y-77940000D01*
X113558157Y-77692235D01*
X113417809Y-77482191D01*
X113207765Y-77341843D01*
X112960000Y-77292560D01*
X110560000Y-77292560D01*
X110312235Y-77341843D01*
X110102191Y-77482191D01*
X109961843Y-77692235D01*
X109912560Y-77940000D01*
X109912560Y-79105001D01*
X103439803Y-79105001D01*
X103398688Y-79063886D01*
X103463113Y-78740000D01*
X103351740Y-78180091D01*
X103034577Y-77705423D01*
X102559909Y-77388260D01*
X102141333Y-77305000D01*
X101058667Y-77305000D01*
X100640091Y-77388260D01*
X100165423Y-77705423D01*
X99848260Y-78180091D01*
X99736887Y-78740000D01*
X99801312Y-79063886D01*
X99590516Y-79274682D01*
X99527062Y-79317081D01*
X99484663Y-79380535D01*
X97220189Y-81645010D01*
X95770508Y-81645010D01*
X95843113Y-81280000D01*
X95731740Y-80720091D01*
X95414577Y-80245423D01*
X95293894Y-80164785D01*
X95427765Y-80138157D01*
X95637809Y-79997809D01*
X95778157Y-79787765D01*
X95827440Y-79540000D01*
X95827440Y-77940000D01*
X95778157Y-77692235D01*
X95637809Y-77482191D01*
X95427765Y-77341843D01*
X95180000Y-77292560D01*
X92780000Y-77292560D01*
X92532235Y-77341843D01*
X92322191Y-77482191D01*
X92181843Y-77692235D01*
X92132560Y-77940000D01*
X92132560Y-79540000D01*
X92181843Y-79787765D01*
X92322191Y-79997809D01*
X92532235Y-80138157D01*
X92666106Y-80164785D01*
X92545423Y-80245423D01*
X92361957Y-80520000D01*
X91754802Y-80520000D01*
X83948688Y-72713887D01*
X84013113Y-72390000D01*
X83956336Y-72104561D01*
X88735000Y-72104561D01*
X88735000Y-72675439D01*
X88953466Y-73202862D01*
X89357138Y-73606534D01*
X89884561Y-73825000D01*
X90455439Y-73825000D01*
X90982862Y-73606534D01*
X91386534Y-73202862D01*
X91605000Y-72675439D01*
X91605000Y-72390000D01*
X92516887Y-72390000D01*
X92628260Y-72949909D01*
X92945423Y-73424577D01*
X93420091Y-73741740D01*
X93838667Y-73825000D01*
X94121333Y-73825000D01*
X94539909Y-73741740D01*
X95014577Y-73424577D01*
X95331740Y-72949909D01*
X95443113Y-72390000D01*
X95386336Y-72104561D01*
X100165000Y-72104561D01*
X100165000Y-72675439D01*
X100383466Y-73202862D01*
X100787138Y-73606534D01*
X101314561Y-73825000D01*
X101885439Y-73825000D01*
X102412862Y-73606534D01*
X102816534Y-73202862D01*
X102870394Y-73072832D01*
X103105423Y-73424577D01*
X103580091Y-73741740D01*
X103998667Y-73825000D01*
X104281333Y-73825000D01*
X104699909Y-73741740D01*
X105174577Y-73424577D01*
X105491740Y-72949909D01*
X105603113Y-72390000D01*
X105546336Y-72104561D01*
X110325000Y-72104561D01*
X110325000Y-72675439D01*
X110543466Y-73202862D01*
X110947138Y-73606534D01*
X111474561Y-73825000D01*
X112045439Y-73825000D01*
X112572862Y-73606534D01*
X112976534Y-73202862D01*
X113195000Y-72675439D01*
X113195000Y-72390000D01*
X114106887Y-72390000D01*
X114218260Y-72949909D01*
X114535423Y-73424577D01*
X115010091Y-73741740D01*
X115428667Y-73825000D01*
X115711333Y-73825000D01*
X116129909Y-73741740D01*
X116604577Y-73424577D01*
X116921740Y-72949909D01*
X117033113Y-72390000D01*
X116976336Y-72104561D01*
X121755000Y-72104561D01*
X121755000Y-72675439D01*
X121973466Y-73202862D01*
X122377138Y-73606534D01*
X122904561Y-73825000D01*
X123475439Y-73825000D01*
X124002862Y-73606534D01*
X124406534Y-73202862D01*
X124625000Y-72675439D01*
X124625000Y-72390000D01*
X125536887Y-72390000D01*
X125648260Y-72949909D01*
X125965423Y-73424577D01*
X126440091Y-73741740D01*
X126858667Y-73825000D01*
X127141333Y-73825000D01*
X127559909Y-73741740D01*
X128034577Y-73424577D01*
X128351740Y-72949909D01*
X128463113Y-72390000D01*
X128406336Y-72104561D01*
X133185000Y-72104561D01*
X133185000Y-72675439D01*
X133403466Y-73202862D01*
X133807138Y-73606534D01*
X134334561Y-73825000D01*
X134905439Y-73825000D01*
X135432862Y-73606534D01*
X135836534Y-73202862D01*
X136055000Y-72675439D01*
X136055000Y-72390000D01*
X136966887Y-72390000D01*
X137078260Y-72949909D01*
X137395423Y-73424577D01*
X137870091Y-73741740D01*
X138288667Y-73825000D01*
X138571333Y-73825000D01*
X138989909Y-73741740D01*
X139464577Y-73424577D01*
X139781740Y-72949909D01*
X139893113Y-72390000D01*
X139836336Y-72104561D01*
X144615000Y-72104561D01*
X144615000Y-72675439D01*
X144833466Y-73202862D01*
X145237138Y-73606534D01*
X145764561Y-73825000D01*
X146335439Y-73825000D01*
X146862862Y-73606534D01*
X147266534Y-73202862D01*
X147485000Y-72675439D01*
X147485000Y-72390000D01*
X148396887Y-72390000D01*
X148508260Y-72949909D01*
X148825423Y-73424577D01*
X149300091Y-73741740D01*
X149718667Y-73825000D01*
X150001333Y-73825000D01*
X150419909Y-73741740D01*
X150894577Y-73424577D01*
X151211740Y-72949909D01*
X151323113Y-72390000D01*
X151266336Y-72104561D01*
X156045000Y-72104561D01*
X156045000Y-72675439D01*
X156263466Y-73202862D01*
X156667138Y-73606534D01*
X157194561Y-73825000D01*
X157765439Y-73825000D01*
X158292862Y-73606534D01*
X158696534Y-73202862D01*
X158838552Y-72860000D01*
X159842560Y-72860000D01*
X159842560Y-74460000D01*
X159891843Y-74707765D01*
X160032191Y-74917809D01*
X160242235Y-75058157D01*
X160490000Y-75107440D01*
X162090000Y-75107440D01*
X162337765Y-75058157D01*
X162547809Y-74917809D01*
X162688157Y-74707765D01*
X162737440Y-74460000D01*
X162737440Y-72860000D01*
X162688157Y-72612235D01*
X162547809Y-72402191D01*
X162337765Y-72261843D01*
X162090000Y-72212560D01*
X160490000Y-72212560D01*
X160242235Y-72261843D01*
X160032191Y-72402191D01*
X159891843Y-72612235D01*
X159842560Y-72860000D01*
X158838552Y-72860000D01*
X158915000Y-72675439D01*
X158915000Y-72104561D01*
X158696534Y-71577138D01*
X158292862Y-71173466D01*
X157765439Y-70955000D01*
X157194561Y-70955000D01*
X156667138Y-71173466D01*
X156263466Y-71577138D01*
X156045000Y-72104561D01*
X151266336Y-72104561D01*
X151211740Y-71830091D01*
X150894577Y-71355423D01*
X150419909Y-71038260D01*
X150001333Y-70955000D01*
X149718667Y-70955000D01*
X149300091Y-71038260D01*
X148825423Y-71355423D01*
X148508260Y-71830091D01*
X148396887Y-72390000D01*
X147485000Y-72390000D01*
X147485000Y-72104561D01*
X147266534Y-71577138D01*
X146862862Y-71173466D01*
X146335439Y-70955000D01*
X145764561Y-70955000D01*
X145237138Y-71173466D01*
X144833466Y-71577138D01*
X144615000Y-72104561D01*
X139836336Y-72104561D01*
X139781740Y-71830091D01*
X139464577Y-71355423D01*
X138989909Y-71038260D01*
X138571333Y-70955000D01*
X138288667Y-70955000D01*
X137870091Y-71038260D01*
X137395423Y-71355423D01*
X137078260Y-71830091D01*
X136966887Y-72390000D01*
X136055000Y-72390000D01*
X136055000Y-72104561D01*
X135836534Y-71577138D01*
X135432862Y-71173466D01*
X134905439Y-70955000D01*
X134334561Y-70955000D01*
X133807138Y-71173466D01*
X133403466Y-71577138D01*
X133185000Y-72104561D01*
X128406336Y-72104561D01*
X128351740Y-71830091D01*
X128034577Y-71355423D01*
X127559909Y-71038260D01*
X127141333Y-70955000D01*
X126858667Y-70955000D01*
X126440091Y-71038260D01*
X125965423Y-71355423D01*
X125648260Y-71830091D01*
X125536887Y-72390000D01*
X124625000Y-72390000D01*
X124625000Y-72104561D01*
X124406534Y-71577138D01*
X124002862Y-71173466D01*
X123475439Y-70955000D01*
X122904561Y-70955000D01*
X122377138Y-71173466D01*
X121973466Y-71577138D01*
X121755000Y-72104561D01*
X116976336Y-72104561D01*
X116921740Y-71830091D01*
X116604577Y-71355423D01*
X116129909Y-71038260D01*
X115711333Y-70955000D01*
X115428667Y-70955000D01*
X115010091Y-71038260D01*
X114535423Y-71355423D01*
X114218260Y-71830091D01*
X114106887Y-72390000D01*
X113195000Y-72390000D01*
X113195000Y-72104561D01*
X112976534Y-71577138D01*
X112572862Y-71173466D01*
X112045439Y-70955000D01*
X111474561Y-70955000D01*
X110947138Y-71173466D01*
X110543466Y-71577138D01*
X110325000Y-72104561D01*
X105546336Y-72104561D01*
X105491740Y-71830091D01*
X105174577Y-71355423D01*
X104699909Y-71038260D01*
X104281333Y-70955000D01*
X103998667Y-70955000D01*
X103580091Y-71038260D01*
X103105423Y-71355423D01*
X102870394Y-71707168D01*
X102816534Y-71577138D01*
X102412862Y-71173466D01*
X101885439Y-70955000D01*
X101314561Y-70955000D01*
X100787138Y-71173466D01*
X100383466Y-71577138D01*
X100165000Y-72104561D01*
X95386336Y-72104561D01*
X95331740Y-71830091D01*
X95014577Y-71355423D01*
X94539909Y-71038260D01*
X94121333Y-70955000D01*
X93838667Y-70955000D01*
X93420091Y-71038260D01*
X92945423Y-71355423D01*
X92628260Y-71830091D01*
X92516887Y-72390000D01*
X91605000Y-72390000D01*
X91605000Y-72104561D01*
X91386534Y-71577138D01*
X90982862Y-71173466D01*
X90455439Y-70955000D01*
X89884561Y-70955000D01*
X89357138Y-71173466D01*
X88953466Y-71577138D01*
X88735000Y-72104561D01*
X83956336Y-72104561D01*
X83901740Y-71830091D01*
X83584577Y-71355423D01*
X83109909Y-71038260D01*
X82691333Y-70955000D01*
X82408667Y-70955000D01*
X82040000Y-71028332D01*
X82040000Y-68651984D01*
X82264561Y-68745000D01*
X82835439Y-68745000D01*
X83362862Y-68526534D01*
X83766534Y-68122862D01*
X83985000Y-67595439D01*
X83985000Y-67310000D01*
X88706887Y-67310000D01*
X88818260Y-67869909D01*
X89135423Y-68344577D01*
X89610091Y-68661740D01*
X90028667Y-68745000D01*
X90311333Y-68745000D01*
X90729909Y-68661740D01*
X91204577Y-68344577D01*
X91521740Y-67869909D01*
X91633113Y-67310000D01*
X91576336Y-67024561D01*
X92545000Y-67024561D01*
X92545000Y-67595439D01*
X92763466Y-68122862D01*
X93167138Y-68526534D01*
X93694561Y-68745000D01*
X94265439Y-68745000D01*
X94792862Y-68526534D01*
X95196534Y-68122862D01*
X95415000Y-67595439D01*
X95415000Y-67024561D01*
X97625000Y-67024561D01*
X97625000Y-67595439D01*
X97843466Y-68122862D01*
X98247138Y-68526534D01*
X98774561Y-68745000D01*
X99345439Y-68745000D01*
X99872862Y-68526534D01*
X100276534Y-68122862D01*
X100495000Y-67595439D01*
X100495000Y-67024561D01*
X100276534Y-66497138D01*
X99872862Y-66093466D01*
X99345439Y-65875000D01*
X98774561Y-65875000D01*
X98247138Y-66093466D01*
X97843466Y-66497138D01*
X97625000Y-67024561D01*
X95415000Y-67024561D01*
X95196534Y-66497138D01*
X94792862Y-66093466D01*
X94265439Y-65875000D01*
X93694561Y-65875000D01*
X93167138Y-66093466D01*
X92763466Y-66497138D01*
X92545000Y-67024561D01*
X91576336Y-67024561D01*
X91521740Y-66750091D01*
X91204577Y-66275423D01*
X90729909Y-65958260D01*
X90311333Y-65875000D01*
X90028667Y-65875000D01*
X89610091Y-65958260D01*
X89135423Y-66275423D01*
X88818260Y-66750091D01*
X88706887Y-67310000D01*
X83985000Y-67310000D01*
X83985000Y-67024561D01*
X83766534Y-66497138D01*
X83362862Y-66093466D01*
X82835439Y-65875000D01*
X82264561Y-65875000D01*
X82040000Y-65968016D01*
X82040000Y-62230000D01*
X83626887Y-62230000D01*
X83738260Y-62789909D01*
X84055423Y-63264577D01*
X84530091Y-63581740D01*
X84948667Y-63665000D01*
X85231333Y-63665000D01*
X85649909Y-63581740D01*
X86124577Y-63264577D01*
X86441740Y-62789909D01*
X86553113Y-62230000D01*
X86441740Y-61670091D01*
X86124577Y-61195423D01*
X85649909Y-60878260D01*
X85231333Y-60795000D01*
X84948667Y-60795000D01*
X84530091Y-60878260D01*
X84055423Y-61195423D01*
X83738260Y-61670091D01*
X83626887Y-62230000D01*
X82040000Y-62230000D01*
X82040000Y-58134561D01*
X83655000Y-58134561D01*
X83655000Y-58705439D01*
X83873466Y-59232862D01*
X84277138Y-59636534D01*
X84804561Y-59855000D01*
X85375439Y-59855000D01*
X85773783Y-59690000D01*
X92516887Y-59690000D01*
X92628260Y-60249909D01*
X92945423Y-60724577D01*
X93420091Y-61041740D01*
X93838667Y-61125000D01*
X94121333Y-61125000D01*
X94539909Y-61041740D01*
X95014577Y-60724577D01*
X95331740Y-60249909D01*
X95443113Y-59690000D01*
X97596887Y-59690000D01*
X97708260Y-60249909D01*
X98025423Y-60724577D01*
X98500091Y-61041740D01*
X98918667Y-61125000D01*
X99201333Y-61125000D01*
X99619909Y-61041740D01*
X100094577Y-60724577D01*
X100411740Y-60249909D01*
X100523113Y-59690000D01*
X100411740Y-59130091D01*
X100094577Y-58655423D01*
X99619909Y-58338260D01*
X99201333Y-58255000D01*
X98918667Y-58255000D01*
X98500091Y-58338260D01*
X98025423Y-58655423D01*
X97708260Y-59130091D01*
X97596887Y-59690000D01*
X95443113Y-59690000D01*
X95331740Y-59130091D01*
X95014577Y-58655423D01*
X94539909Y-58338260D01*
X94121333Y-58255000D01*
X93838667Y-58255000D01*
X93420091Y-58338260D01*
X92945423Y-58655423D01*
X92628260Y-59130091D01*
X92516887Y-59690000D01*
X85773783Y-59690000D01*
X85902862Y-59636534D01*
X86306534Y-59232862D01*
X86525000Y-58705439D01*
X86525000Y-58134561D01*
X86306534Y-57607138D01*
X85902862Y-57203466D01*
X85375439Y-56985000D01*
X84804561Y-56985000D01*
X84277138Y-57203466D01*
X83873466Y-57607138D01*
X83655000Y-58134561D01*
X82040000Y-58134561D01*
X82040000Y-56864561D01*
X87505000Y-56864561D01*
X87505000Y-57435439D01*
X87723466Y-57962862D01*
X88127138Y-58366534D01*
X88654561Y-58585000D01*
X89225439Y-58585000D01*
X89752862Y-58366534D01*
X90156534Y-57962862D01*
X90190000Y-57882068D01*
X90223466Y-57962862D01*
X90627138Y-58366534D01*
X91154561Y-58585000D01*
X91725439Y-58585000D01*
X92252862Y-58366534D01*
X92444835Y-58174561D01*
X101435000Y-58174561D01*
X101435000Y-58745439D01*
X101653466Y-59272862D01*
X102057138Y-59676534D01*
X102137932Y-59710000D01*
X102057138Y-59743466D01*
X101653466Y-60147138D01*
X101435000Y-60674561D01*
X101435000Y-61245439D01*
X101653466Y-61772862D01*
X102057138Y-62176534D01*
X102584561Y-62395000D01*
X103155439Y-62395000D01*
X103682862Y-62176534D01*
X104086534Y-61772862D01*
X104305000Y-61245439D01*
X104305000Y-60969802D01*
X105920000Y-62584802D01*
X105920001Y-66071570D01*
X105867138Y-66093466D01*
X105463466Y-66497138D01*
X105245000Y-67024561D01*
X105245000Y-67595439D01*
X105463466Y-68122862D01*
X105867138Y-68526534D01*
X106394561Y-68745000D01*
X106965439Y-68745000D01*
X107492862Y-68526534D01*
X107896534Y-68122862D01*
X108115000Y-67595439D01*
X108115000Y-67024561D01*
X114135000Y-67024561D01*
X114135000Y-67595439D01*
X114353466Y-68122862D01*
X114757138Y-68526534D01*
X115284561Y-68745000D01*
X115855439Y-68745000D01*
X116382862Y-68526534D01*
X116786534Y-68122862D01*
X117005000Y-67595439D01*
X117005000Y-67024561D01*
X120485000Y-67024561D01*
X120485000Y-67595439D01*
X120703466Y-68122862D01*
X121107138Y-68526534D01*
X121634561Y-68745000D01*
X122205439Y-68745000D01*
X122732862Y-68526534D01*
X123136534Y-68122862D01*
X123355000Y-67595439D01*
X123355000Y-67310000D01*
X130616887Y-67310000D01*
X130728260Y-67869909D01*
X131045423Y-68344577D01*
X131520091Y-68661740D01*
X131938667Y-68745000D01*
X132221333Y-68745000D01*
X132639909Y-68661740D01*
X133114577Y-68344577D01*
X133431740Y-67869909D01*
X133543113Y-67310000D01*
X133486336Y-67024561D01*
X138265000Y-67024561D01*
X138265000Y-67595439D01*
X138483466Y-68122862D01*
X138887138Y-68526534D01*
X139414561Y-68745000D01*
X139985439Y-68745000D01*
X140512862Y-68526534D01*
X140916534Y-68122862D01*
X141135000Y-67595439D01*
X141135000Y-67310000D01*
X148396887Y-67310000D01*
X148508260Y-67869909D01*
X148825423Y-68344577D01*
X149300091Y-68661740D01*
X149718667Y-68745000D01*
X150001333Y-68745000D01*
X150419909Y-68661740D01*
X150894577Y-68344577D01*
X151211740Y-67869909D01*
X151323113Y-67310000D01*
X151266336Y-67024561D01*
X156045000Y-67024561D01*
X156045000Y-67595439D01*
X156263466Y-68122862D01*
X156667138Y-68526534D01*
X157194561Y-68745000D01*
X157765439Y-68745000D01*
X158292862Y-68526534D01*
X158696534Y-68122862D01*
X158915000Y-67595439D01*
X158915000Y-67024561D01*
X158696534Y-66497138D01*
X158292862Y-66093466D01*
X157765439Y-65875000D01*
X157194561Y-65875000D01*
X156667138Y-66093466D01*
X156263466Y-66497138D01*
X156045000Y-67024561D01*
X151266336Y-67024561D01*
X151211740Y-66750091D01*
X150894577Y-66275423D01*
X150419909Y-65958260D01*
X150001333Y-65875000D01*
X149718667Y-65875000D01*
X149300091Y-65958260D01*
X148825423Y-66275423D01*
X148508260Y-66750091D01*
X148396887Y-67310000D01*
X141135000Y-67310000D01*
X141135000Y-67024561D01*
X140916534Y-66497138D01*
X140512862Y-66093466D01*
X139985439Y-65875000D01*
X139414561Y-65875000D01*
X138887138Y-66093466D01*
X138483466Y-66497138D01*
X138265000Y-67024561D01*
X133486336Y-67024561D01*
X133431740Y-66750091D01*
X133114577Y-66275423D01*
X132639909Y-65958260D01*
X132221333Y-65875000D01*
X131938667Y-65875000D01*
X131520091Y-65958260D01*
X131045423Y-66275423D01*
X130728260Y-66750091D01*
X130616887Y-67310000D01*
X123355000Y-67310000D01*
X123355000Y-67024561D01*
X123136534Y-66497138D01*
X122732862Y-66093466D01*
X122205439Y-65875000D01*
X121634561Y-65875000D01*
X121107138Y-66093466D01*
X120703466Y-66497138D01*
X120485000Y-67024561D01*
X117005000Y-67024561D01*
X116786534Y-66497138D01*
X116382862Y-66093466D01*
X115855439Y-65875000D01*
X115284561Y-65875000D01*
X114757138Y-66093466D01*
X114353466Y-66497138D01*
X114135000Y-67024561D01*
X108115000Y-67024561D01*
X107896534Y-66497138D01*
X107492862Y-66093466D01*
X107440000Y-66071570D01*
X107440000Y-62344848D01*
X107454888Y-62270000D01*
X107440000Y-62195152D01*
X107440000Y-62195148D01*
X107395904Y-61973463D01*
X107395904Y-61973462D01*
X107270329Y-61785527D01*
X107227929Y-61722071D01*
X107164473Y-61679671D01*
X106609802Y-61125000D01*
X106821333Y-61125000D01*
X107239909Y-61041740D01*
X107714577Y-60724577D01*
X108031740Y-60249909D01*
X108143113Y-59690000D01*
X114106887Y-59690000D01*
X114218260Y-60249909D01*
X114535423Y-60724577D01*
X115010091Y-61041740D01*
X115428667Y-61125000D01*
X115711333Y-61125000D01*
X116129909Y-61041740D01*
X116604577Y-60724577D01*
X116921740Y-60249909D01*
X117033113Y-59690000D01*
X120456887Y-59690000D01*
X120568260Y-60249909D01*
X120885423Y-60724577D01*
X121360091Y-61041740D01*
X121778667Y-61125000D01*
X122061333Y-61125000D01*
X122479909Y-61041740D01*
X122954577Y-60724577D01*
X123271740Y-60249909D01*
X123383113Y-59690000D01*
X123326336Y-59404561D01*
X130645000Y-59404561D01*
X130645000Y-59975439D01*
X130863466Y-60502862D01*
X131267138Y-60906534D01*
X131794561Y-61125000D01*
X132365439Y-61125000D01*
X132892862Y-60906534D01*
X133296534Y-60502862D01*
X133515000Y-59975439D01*
X133515000Y-59690000D01*
X138236887Y-59690000D01*
X138348260Y-60249909D01*
X138665423Y-60724577D01*
X139140091Y-61041740D01*
X139558667Y-61125000D01*
X139841333Y-61125000D01*
X140259909Y-61041740D01*
X140734577Y-60724577D01*
X141051740Y-60249909D01*
X141163113Y-59690000D01*
X141106336Y-59404561D01*
X148425000Y-59404561D01*
X148425000Y-59975439D01*
X148643466Y-60502862D01*
X149047138Y-60906534D01*
X149574561Y-61125000D01*
X150145439Y-61125000D01*
X150672862Y-60906534D01*
X151076534Y-60502862D01*
X151295000Y-59975439D01*
X151295000Y-59690000D01*
X156016887Y-59690000D01*
X156128260Y-60249909D01*
X156445423Y-60724577D01*
X156920091Y-61041740D01*
X157338667Y-61125000D01*
X157621333Y-61125000D01*
X158039909Y-61041740D01*
X158514577Y-60724577D01*
X158831740Y-60249909D01*
X158943113Y-59690000D01*
X158831740Y-59130091D01*
X158514577Y-58655423D01*
X158039909Y-58338260D01*
X157621333Y-58255000D01*
X157338667Y-58255000D01*
X156920091Y-58338260D01*
X156445423Y-58655423D01*
X156128260Y-59130091D01*
X156016887Y-59690000D01*
X151295000Y-59690000D01*
X151295000Y-59404561D01*
X151076534Y-58877138D01*
X150672862Y-58473466D01*
X150145439Y-58255000D01*
X149574561Y-58255000D01*
X149047138Y-58473466D01*
X148643466Y-58877138D01*
X148425000Y-59404561D01*
X141106336Y-59404561D01*
X141051740Y-59130091D01*
X140734577Y-58655423D01*
X140259909Y-58338260D01*
X139841333Y-58255000D01*
X139558667Y-58255000D01*
X139140091Y-58338260D01*
X138665423Y-58655423D01*
X138348260Y-59130091D01*
X138236887Y-59690000D01*
X133515000Y-59690000D01*
X133515000Y-59404561D01*
X133296534Y-58877138D01*
X132892862Y-58473466D01*
X132365439Y-58255000D01*
X131794561Y-58255000D01*
X131267138Y-58473466D01*
X130863466Y-58877138D01*
X130645000Y-59404561D01*
X123326336Y-59404561D01*
X123271740Y-59130091D01*
X122954577Y-58655423D01*
X122479909Y-58338260D01*
X122061333Y-58255000D01*
X121778667Y-58255000D01*
X121360091Y-58338260D01*
X120885423Y-58655423D01*
X120568260Y-59130091D01*
X120456887Y-59690000D01*
X117033113Y-59690000D01*
X116921740Y-59130091D01*
X116604577Y-58655423D01*
X116129909Y-58338260D01*
X115711333Y-58255000D01*
X115428667Y-58255000D01*
X115010091Y-58338260D01*
X114535423Y-58655423D01*
X114218260Y-59130091D01*
X114106887Y-59690000D01*
X108143113Y-59690000D01*
X108031740Y-59130091D01*
X107714577Y-58655423D01*
X107239909Y-58338260D01*
X106821333Y-58255000D01*
X106538667Y-58255000D01*
X106120091Y-58338260D01*
X105645423Y-58655423D01*
X105328260Y-59130091D01*
X105216887Y-59690000D01*
X105227337Y-59742535D01*
X104283103Y-58798302D01*
X104305000Y-58745439D01*
X104305000Y-58174561D01*
X104086534Y-57647138D01*
X103856414Y-57417018D01*
X104408871Y-56864561D01*
X109095000Y-56864561D01*
X109095000Y-57435439D01*
X109313466Y-57962862D01*
X109717138Y-58366534D01*
X110244561Y-58585000D01*
X110815439Y-58585000D01*
X111342862Y-58366534D01*
X111746534Y-57962862D01*
X111780000Y-57882068D01*
X111813466Y-57962862D01*
X112217138Y-58366534D01*
X112744561Y-58585000D01*
X113315439Y-58585000D01*
X113842862Y-58366534D01*
X114246534Y-57962862D01*
X114465000Y-57435439D01*
X114465000Y-56864561D01*
X114246534Y-56337138D01*
X113842862Y-55933466D01*
X113315439Y-55715000D01*
X112744561Y-55715000D01*
X112217138Y-55933466D01*
X111813466Y-56337138D01*
X111780000Y-56417932D01*
X111746534Y-56337138D01*
X111342862Y-55933466D01*
X110815439Y-55715000D01*
X110244561Y-55715000D01*
X109717138Y-55933466D01*
X109313466Y-56337138D01*
X109095000Y-56864561D01*
X104408871Y-56864561D01*
X107461686Y-53811746D01*
X107689795Y-54362450D01*
X108197550Y-54870205D01*
X108860963Y-55145000D01*
X109579037Y-55145000D01*
X110242450Y-54870205D01*
X110750205Y-54362450D01*
X111025000Y-53699037D01*
X111025000Y-52980963D01*
X110787438Y-52407438D01*
X111360963Y-52645000D01*
X112079037Y-52645000D01*
X112652562Y-52407438D01*
X112415000Y-52980963D01*
X112415000Y-53699037D01*
X112689795Y-54362450D01*
X113197550Y-54870205D01*
X113860963Y-55145000D01*
X114579037Y-55145000D01*
X115242450Y-54870205D01*
X115750205Y-54362450D01*
X116025000Y-53699037D01*
X116025000Y-52980963D01*
X115750205Y-52317550D01*
X115242450Y-51809795D01*
X114579037Y-51535000D01*
X113860963Y-51535000D01*
X113287438Y-51772562D01*
X113525000Y-51199037D01*
X113525000Y-50514561D01*
X121755000Y-50514561D01*
X121755000Y-51085439D01*
X121973466Y-51612862D01*
X122377138Y-52016534D01*
X122457932Y-52050000D01*
X122377138Y-52083466D01*
X121973466Y-52487138D01*
X121755000Y-53014561D01*
X121755000Y-53585439D01*
X121973466Y-54112862D01*
X122377138Y-54516534D01*
X122904561Y-54735000D01*
X123475439Y-54735000D01*
X124002862Y-54516534D01*
X124406534Y-54112862D01*
X124625000Y-53585439D01*
X124625000Y-53014561D01*
X124406534Y-52487138D01*
X124002862Y-52083466D01*
X123922068Y-52050000D01*
X124002862Y-52016534D01*
X124406534Y-51612862D01*
X124411862Y-51600000D01*
X130294039Y-51600000D01*
X129787550Y-51809795D01*
X129279795Y-52317550D01*
X129005000Y-52980963D01*
X129005000Y-53699037D01*
X129279795Y-54362450D01*
X129787550Y-54870205D01*
X130450963Y-55145000D01*
X131169037Y-55145000D01*
X131431488Y-55036289D01*
X133235181Y-56839983D01*
X133225000Y-56864561D01*
X133225000Y-57435439D01*
X133443466Y-57962862D01*
X133847138Y-58366534D01*
X134374561Y-58585000D01*
X134945439Y-58585000D01*
X135472862Y-58366534D01*
X135876534Y-57962862D01*
X135910000Y-57882068D01*
X135943466Y-57962862D01*
X136347138Y-58366534D01*
X136874561Y-58585000D01*
X137445439Y-58585000D01*
X137972862Y-58366534D01*
X138376534Y-57962862D01*
X138595000Y-57435439D01*
X138595000Y-56864561D01*
X138376534Y-56337138D01*
X137972862Y-55933466D01*
X137445439Y-55715000D01*
X136874561Y-55715000D01*
X136347138Y-55933466D01*
X135943466Y-56337138D01*
X135910000Y-56417932D01*
X135876534Y-56337138D01*
X135472862Y-55933466D01*
X134945439Y-55715000D01*
X134374561Y-55715000D01*
X134293414Y-55748612D01*
X132506289Y-53961488D01*
X132615000Y-53699037D01*
X132615000Y-52980963D01*
X132377438Y-52407438D01*
X132950963Y-52645000D01*
X133669037Y-52645000D01*
X134242562Y-52407438D01*
X134005000Y-52980963D01*
X134005000Y-53699037D01*
X134279795Y-54362450D01*
X134787550Y-54870205D01*
X135450963Y-55145000D01*
X136169037Y-55145000D01*
X136832450Y-54870205D01*
X137340205Y-54362450D01*
X137615000Y-53699037D01*
X137615000Y-52980963D01*
X137340205Y-52317550D01*
X136832450Y-51809795D01*
X136169037Y-51535000D01*
X135450963Y-51535000D01*
X134877438Y-51772562D01*
X135115000Y-51199037D01*
X135115000Y-50514561D01*
X142075000Y-50514561D01*
X142075000Y-51085439D01*
X142293466Y-51612862D01*
X142697138Y-52016534D01*
X142777932Y-52050000D01*
X142697138Y-52083466D01*
X142293466Y-52487138D01*
X142075000Y-53014561D01*
X142075000Y-53585439D01*
X142293466Y-54112862D01*
X142697138Y-54516534D01*
X143224561Y-54735000D01*
X143795439Y-54735000D01*
X144322862Y-54516534D01*
X144726534Y-54112862D01*
X144945000Y-53585439D01*
X144945000Y-53014561D01*
X144726534Y-52487138D01*
X144322862Y-52083466D01*
X144242068Y-52050000D01*
X144322862Y-52016534D01*
X144726534Y-51612862D01*
X144731862Y-51600000D01*
X150694039Y-51600000D01*
X150187550Y-51809795D01*
X149679795Y-52317550D01*
X149405000Y-52980963D01*
X149405000Y-53699037D01*
X149679795Y-54362450D01*
X150187550Y-54870205D01*
X150450001Y-54978916D01*
X150450001Y-55845148D01*
X150435112Y-55920000D01*
X150450001Y-55994852D01*
X150494097Y-56216537D01*
X150662072Y-56467929D01*
X150725528Y-56510329D01*
X151026897Y-56811698D01*
X151005000Y-56864561D01*
X151005000Y-57435439D01*
X151223466Y-57962862D01*
X151627138Y-58366534D01*
X152154561Y-58585000D01*
X152725439Y-58585000D01*
X153252862Y-58366534D01*
X153656534Y-57962862D01*
X153690000Y-57882068D01*
X153723466Y-57962862D01*
X154127138Y-58366534D01*
X154654561Y-58585000D01*
X155225439Y-58585000D01*
X155752862Y-58366534D01*
X156156534Y-57962862D01*
X156375000Y-57435439D01*
X156375000Y-56864561D01*
X156156534Y-56337138D01*
X155752862Y-55933466D01*
X155225439Y-55715000D01*
X154654561Y-55715000D01*
X154127138Y-55933466D01*
X153723466Y-56337138D01*
X153690000Y-56417932D01*
X153656534Y-56337138D01*
X153252862Y-55933466D01*
X152725439Y-55715000D01*
X152154561Y-55715000D01*
X152101698Y-55736897D01*
X151970000Y-55605199D01*
X151970000Y-54978915D01*
X152232450Y-54870205D01*
X152740205Y-54362450D01*
X153015000Y-53699037D01*
X153015000Y-52980963D01*
X152777438Y-52407438D01*
X153350963Y-52645000D01*
X154069037Y-52645000D01*
X154642562Y-52407438D01*
X154405000Y-52980963D01*
X154405000Y-53699037D01*
X154679795Y-54362450D01*
X155187550Y-54870205D01*
X155850963Y-55145000D01*
X156569037Y-55145000D01*
X157232450Y-54870205D01*
X157740205Y-54362450D01*
X158015000Y-53699037D01*
X158015000Y-52980963D01*
X157740205Y-52317550D01*
X157232450Y-51809795D01*
X156569037Y-51535000D01*
X155850963Y-51535000D01*
X155277438Y-51772562D01*
X155515000Y-51199037D01*
X155515000Y-50480963D01*
X155240205Y-49817550D01*
X154732450Y-49309795D01*
X154069037Y-49035000D01*
X153350963Y-49035000D01*
X152687550Y-49309795D01*
X152179795Y-49817550D01*
X152071085Y-50080000D01*
X144764999Y-50080000D01*
X144726534Y-49987138D01*
X144322862Y-49583466D01*
X143795439Y-49365000D01*
X143224561Y-49365000D01*
X142697138Y-49583466D01*
X142293466Y-49987138D01*
X142075000Y-50514561D01*
X135115000Y-50514561D01*
X135115000Y-50480963D01*
X134840205Y-49817550D01*
X134332450Y-49309795D01*
X133669037Y-49035000D01*
X132950963Y-49035000D01*
X132287550Y-49309795D01*
X131779795Y-49817550D01*
X131671085Y-50080000D01*
X124444999Y-50080000D01*
X124406534Y-49987138D01*
X124002862Y-49583466D01*
X123475439Y-49365000D01*
X122904561Y-49365000D01*
X122377138Y-49583466D01*
X121973466Y-49987138D01*
X121755000Y-50514561D01*
X113525000Y-50514561D01*
X113525000Y-50480963D01*
X113250205Y-49817550D01*
X112742450Y-49309795D01*
X112079037Y-49035000D01*
X111360963Y-49035000D01*
X110697550Y-49309795D01*
X110189795Y-49817550D01*
X110081085Y-50080000D01*
X109433478Y-50080000D01*
X109358630Y-50065112D01*
X109283782Y-50080000D01*
X109283778Y-50080000D01*
X109062093Y-50124096D01*
X108810701Y-50292071D01*
X108768301Y-50355527D01*
X102385528Y-56738301D01*
X102322072Y-56780701D01*
X102279672Y-56844157D01*
X102279671Y-56844158D01*
X102154097Y-57032093D01*
X102116983Y-57218677D01*
X102057138Y-57243466D01*
X101653466Y-57647138D01*
X101435000Y-58174561D01*
X92444835Y-58174561D01*
X92656534Y-57962862D01*
X92875000Y-57435439D01*
X92875000Y-56864561D01*
X92656534Y-56337138D01*
X92252862Y-55933466D01*
X91725439Y-55715000D01*
X91154561Y-55715000D01*
X90627138Y-55933466D01*
X90223466Y-56337138D01*
X90190000Y-56417932D01*
X90156534Y-56337138D01*
X89752862Y-55933466D01*
X89225439Y-55715000D01*
X88654561Y-55715000D01*
X88127138Y-55933466D01*
X87723466Y-56337138D01*
X87505000Y-56864561D01*
X82040000Y-56864561D01*
X82040000Y-54538430D01*
X82092862Y-54516534D01*
X82496534Y-54112862D01*
X82715000Y-53585439D01*
X82715000Y-53014561D01*
X82701084Y-52980963D01*
X85905000Y-52980963D01*
X85905000Y-53699037D01*
X86179795Y-54362450D01*
X86687550Y-54870205D01*
X87350963Y-55145000D01*
X88069037Y-55145000D01*
X88732450Y-54870205D01*
X89240205Y-54362450D01*
X89515000Y-53699037D01*
X89515000Y-52980963D01*
X89277438Y-52407438D01*
X89850963Y-52645000D01*
X90569037Y-52645000D01*
X91142562Y-52407438D01*
X90905000Y-52980963D01*
X90905000Y-53699037D01*
X91179795Y-54362450D01*
X91687550Y-54870205D01*
X92350963Y-55145000D01*
X93069037Y-55145000D01*
X93732450Y-54870205D01*
X94240205Y-54362450D01*
X94515000Y-53699037D01*
X94515000Y-52980963D01*
X94240205Y-52317550D01*
X93732450Y-51809795D01*
X93069037Y-51535000D01*
X92350963Y-51535000D01*
X91777438Y-51772562D01*
X92015000Y-51199037D01*
X92015000Y-50480963D01*
X91740205Y-49817550D01*
X91232450Y-49309795D01*
X90569037Y-49035000D01*
X89850963Y-49035000D01*
X89187550Y-49309795D01*
X88679795Y-49817550D01*
X88405000Y-50480963D01*
X88405000Y-51199037D01*
X88642562Y-51772562D01*
X88069037Y-51535000D01*
X87350963Y-51535000D01*
X86687550Y-51809795D01*
X86179795Y-52317550D01*
X85905000Y-52980963D01*
X82701084Y-52980963D01*
X82496534Y-52487138D01*
X82092862Y-52083466D01*
X82012068Y-52050000D01*
X82092862Y-52016534D01*
X82496534Y-51612862D01*
X82715000Y-51085439D01*
X82715000Y-50514561D01*
X82496534Y-49987138D01*
X82092862Y-49583466D01*
X81565439Y-49365000D01*
X80994561Y-49365000D01*
X80467138Y-49583466D01*
X80063466Y-49987138D01*
X79845000Y-50514561D01*
X79845000Y-51085439D01*
X80063466Y-51612862D01*
X80467138Y-52016534D01*
X80547932Y-52050000D01*
X80467138Y-52083466D01*
X80063466Y-52487138D01*
X79845000Y-53014561D01*
X79845000Y-53585439D01*
X80063466Y-54112862D01*
X80467138Y-54516534D01*
X80520001Y-54538431D01*
X80520000Y-65948333D01*
X80151333Y-65875000D01*
X79868667Y-65875000D01*
X79450091Y-65958260D01*
X78975423Y-66275423D01*
X78658260Y-66750091D01*
X78546887Y-67310000D01*
X78658260Y-67869909D01*
X78975423Y-68344577D01*
X79450091Y-68661740D01*
X79868667Y-68745000D01*
X80151333Y-68745000D01*
X80520000Y-68671667D01*
X80520000Y-70805198D01*
X80348302Y-70976897D01*
X80295439Y-70955000D01*
X79724561Y-70955000D01*
X79197138Y-71173466D01*
X78793466Y-71577138D01*
X78575000Y-72104561D01*
X78575000Y-72675439D01*
X78793466Y-73202862D01*
X79197138Y-73606534D01*
X79724561Y-73825000D01*
X80295439Y-73825000D01*
X80822862Y-73606534D01*
X81226534Y-73202862D01*
X81248430Y-73150000D01*
X81331957Y-73150000D01*
X81515423Y-73424577D01*
X81990091Y-73741740D01*
X82408667Y-73825000D01*
X82691333Y-73825000D01*
X82873887Y-73788688D01*
X90730208Y-81645010D01*
X85659812Y-81645010D01*
X83739363Y-79724561D01*
X84925000Y-79724561D01*
X84925000Y-80295439D01*
X85143466Y-80822862D01*
X85547138Y-81226534D01*
X86074561Y-81445000D01*
X86645439Y-81445000D01*
X87172862Y-81226534D01*
X87576534Y-80822862D01*
X87795000Y-80295439D01*
X87795000Y-79724561D01*
X87576534Y-79197138D01*
X87172862Y-78793466D01*
X86645439Y-78575000D01*
X86074561Y-78575000D01*
X85547138Y-78793466D01*
X85143466Y-79197138D01*
X84925000Y-79724561D01*
X83739363Y-79724561D01*
X83078688Y-79063887D01*
X83143113Y-78740000D01*
X83031740Y-78180091D01*
X82714577Y-77705423D01*
X82239909Y-77388260D01*
X81821333Y-77305000D01*
X80738667Y-77305000D01*
X80320091Y-77388260D01*
X79845423Y-77705423D01*
X79528260Y-78180091D01*
X79416887Y-78740000D01*
X79528260Y-79299909D01*
X79845423Y-79774577D01*
X80197758Y-80010000D01*
X79845423Y-80245423D01*
X79528260Y-80720091D01*
X79416887Y-81280000D01*
X79528260Y-81839909D01*
X79845423Y-82314577D01*
X80197758Y-82550000D01*
X79845423Y-82785423D01*
X79528260Y-83260091D01*
X79416887Y-83820000D01*
X79528260Y-84379909D01*
X79845423Y-84854577D01*
X80197758Y-85090000D01*
X79845423Y-85325423D01*
X79578982Y-85724180D01*
X75458688Y-81603887D01*
X75523113Y-81280000D01*
X75411740Y-80720091D01*
X75094577Y-80245423D01*
X74973894Y-80164785D01*
X75107765Y-80138157D01*
X75317809Y-79997809D01*
X75458157Y-79787765D01*
X75507440Y-79540000D01*
X75507440Y-77940000D01*
X75458157Y-77692235D01*
X75317809Y-77482191D01*
X75107765Y-77341843D01*
X74860000Y-77292560D01*
X72460000Y-77292560D01*
X72212235Y-77341843D01*
X72002191Y-77482191D01*
X71861843Y-77692235D01*
X71812560Y-77940000D01*
X71812560Y-79540000D01*
X71861843Y-79787765D01*
X72002191Y-79997809D01*
X72212235Y-80138157D01*
X72346106Y-80164785D01*
X72225423Y-80245423D01*
X71908260Y-80720091D01*
X71796887Y-81280000D01*
X61643783Y-81280000D01*
X61772862Y-81226534D01*
X62176534Y-80822862D01*
X62395000Y-80295439D01*
X62395000Y-79724561D01*
X62176534Y-79197138D01*
X61772862Y-78793466D01*
X61643784Y-78740000D01*
X67116887Y-78740000D01*
X67228260Y-79299909D01*
X67545423Y-79774577D01*
X68020091Y-80091740D01*
X68438667Y-80175000D01*
X68721333Y-80175000D01*
X69139909Y-80091740D01*
X69614577Y-79774577D01*
X69931740Y-79299909D01*
X70043113Y-78740000D01*
X69931740Y-78180091D01*
X69614577Y-77705423D01*
X69139909Y-77388260D01*
X68721333Y-77305000D01*
X68438667Y-77305000D01*
X68020091Y-77388260D01*
X67545423Y-77705423D01*
X67228260Y-78180091D01*
X67116887Y-78740000D01*
X61643784Y-78740000D01*
X61245439Y-78575000D01*
X60674561Y-78575000D01*
X60147138Y-78793466D01*
X59743466Y-79197138D01*
X59525000Y-79724561D01*
X54746336Y-79724561D01*
X54691740Y-79450091D01*
X54374577Y-78975423D01*
X53899909Y-78658260D01*
X53481333Y-78575000D01*
X53198667Y-78575000D01*
X52780091Y-78658260D01*
X52305423Y-78975423D01*
X51988260Y-79450091D01*
X51876887Y-80010000D01*
X51510000Y-80010000D01*
X51510000Y-73374561D01*
X51905000Y-73374561D01*
X51905000Y-73945439D01*
X52123466Y-74472862D01*
X52527138Y-74876534D01*
X53054561Y-75095000D01*
X53625439Y-75095000D01*
X54152862Y-74876534D01*
X54556534Y-74472862D01*
X54775000Y-73945439D01*
X54775000Y-73660000D01*
X59496887Y-73660000D01*
X59608260Y-74219909D01*
X59925423Y-74694577D01*
X60400091Y-75011740D01*
X60818667Y-75095000D01*
X61101333Y-75095000D01*
X61519909Y-75011740D01*
X61994577Y-74694577D01*
X62311740Y-74219909D01*
X62423113Y-73660000D01*
X62311740Y-73100091D01*
X61994577Y-72625423D01*
X61519909Y-72308260D01*
X61101333Y-72225000D01*
X60818667Y-72225000D01*
X60400091Y-72308260D01*
X59925423Y-72625423D01*
X59608260Y-73100091D01*
X59496887Y-73660000D01*
X54775000Y-73660000D01*
X54775000Y-73374561D01*
X54556534Y-72847138D01*
X54152862Y-72443466D01*
X53625439Y-72225000D01*
X53054561Y-72225000D01*
X52527138Y-72443466D01*
X52123466Y-72847138D01*
X51905000Y-73374561D01*
X51510000Y-73374561D01*
X51510000Y-67024561D01*
X51905000Y-67024561D01*
X51905000Y-67595439D01*
X52123466Y-68122862D01*
X52527138Y-68526534D01*
X53054561Y-68745000D01*
X53625439Y-68745000D01*
X54152862Y-68526534D01*
X54556534Y-68122862D01*
X54775000Y-67595439D01*
X54775000Y-67310000D01*
X59496887Y-67310000D01*
X59608260Y-67869909D01*
X59925423Y-68344577D01*
X60400091Y-68661740D01*
X60818667Y-68745000D01*
X61101333Y-68745000D01*
X61283887Y-68708688D01*
X64968251Y-72393053D01*
X64841843Y-72582235D01*
X64792560Y-72830000D01*
X64792560Y-74030000D01*
X64841843Y-74277765D01*
X64923062Y-74399317D01*
X64805000Y-74684343D01*
X64805000Y-75175657D01*
X64993018Y-75629571D01*
X65340429Y-75976982D01*
X65794343Y-76165000D01*
X66285657Y-76165000D01*
X66739571Y-75976982D01*
X67086982Y-75629571D01*
X67275000Y-75175657D01*
X67275000Y-74684343D01*
X67156938Y-74399317D01*
X67238157Y-74277765D01*
X67287440Y-74030000D01*
X67287440Y-72830000D01*
X67238157Y-72582235D01*
X67109709Y-72390000D01*
X70926887Y-72390000D01*
X71038260Y-72949909D01*
X71355423Y-73424577D01*
X71830091Y-73741740D01*
X72248667Y-73825000D01*
X72531333Y-73825000D01*
X72949909Y-73741740D01*
X73424577Y-73424577D01*
X73741740Y-72949909D01*
X73853113Y-72390000D01*
X73741740Y-71830091D01*
X73424577Y-71355423D01*
X72949909Y-71038260D01*
X72531333Y-70955000D01*
X72248667Y-70955000D01*
X71830091Y-71038260D01*
X71355423Y-71355423D01*
X71038260Y-71830091D01*
X70926887Y-72390000D01*
X67109709Y-72390000D01*
X67097809Y-72372191D01*
X66887765Y-72231843D01*
X66779131Y-72210235D01*
X66755904Y-72093463D01*
X66587929Y-71842071D01*
X66524473Y-71799671D01*
X62358688Y-67633887D01*
X62423113Y-67310000D01*
X62311740Y-66750091D01*
X61994577Y-66275423D01*
X61519909Y-65958260D01*
X61101333Y-65875000D01*
X60818667Y-65875000D01*
X60400091Y-65958260D01*
X59925423Y-66275423D01*
X59608260Y-66750091D01*
X59496887Y-67310000D01*
X54775000Y-67310000D01*
X54775000Y-67024561D01*
X54556534Y-66497138D01*
X54152862Y-66093466D01*
X53625439Y-65875000D01*
X53054561Y-65875000D01*
X52527138Y-66093466D01*
X52123466Y-66497138D01*
X51905000Y-67024561D01*
X51510000Y-67024561D01*
X51510000Y-65754561D01*
X64605000Y-65754561D01*
X64605000Y-66325439D01*
X64823466Y-66852862D01*
X65227138Y-67256534D01*
X65307932Y-67290000D01*
X65227138Y-67323466D01*
X64823466Y-67727138D01*
X64605000Y-68254561D01*
X64605000Y-68825439D01*
X64823466Y-69352862D01*
X65227138Y-69756534D01*
X65754561Y-69975000D01*
X66325439Y-69975000D01*
X66852862Y-69756534D01*
X67256534Y-69352862D01*
X67475000Y-68825439D01*
X67475000Y-68254561D01*
X67256534Y-67727138D01*
X66852862Y-67323466D01*
X66772068Y-67290000D01*
X66852862Y-67256534D01*
X67084835Y-67024561D01*
X70955000Y-67024561D01*
X70955000Y-67595439D01*
X71173466Y-68122862D01*
X71577138Y-68526534D01*
X72104561Y-68745000D01*
X72675439Y-68745000D01*
X73202862Y-68526534D01*
X73606534Y-68122862D01*
X73825000Y-67595439D01*
X73825000Y-67024561D01*
X73606534Y-66497138D01*
X73202862Y-66093466D01*
X72675439Y-65875000D01*
X72104561Y-65875000D01*
X71577138Y-66093466D01*
X71173466Y-66497138D01*
X70955000Y-67024561D01*
X67084835Y-67024561D01*
X67256534Y-66852862D01*
X67475000Y-66325439D01*
X67475000Y-65754561D01*
X67256534Y-65227138D01*
X66852862Y-64823466D01*
X66325439Y-64605000D01*
X65754561Y-64605000D01*
X65227138Y-64823466D01*
X64823466Y-65227138D01*
X64605000Y-65754561D01*
X51510000Y-65754561D01*
X51510000Y-62230000D01*
X51876887Y-62230000D01*
X51988260Y-62789909D01*
X52305423Y-63264577D01*
X52780091Y-63581740D01*
X53198667Y-63665000D01*
X53481333Y-63665000D01*
X53899909Y-63581740D01*
X54374577Y-63264577D01*
X54691740Y-62789909D01*
X54803113Y-62230000D01*
X54746336Y-61944561D01*
X59525000Y-61944561D01*
X59525000Y-62515439D01*
X59743466Y-63042862D01*
X60147138Y-63446534D01*
X60674561Y-63665000D01*
X61245439Y-63665000D01*
X61772862Y-63446534D01*
X62176534Y-63042862D01*
X62395000Y-62515439D01*
X62395000Y-61944561D01*
X64605000Y-61944561D01*
X64605000Y-62515439D01*
X64823466Y-63042862D01*
X65227138Y-63446534D01*
X65754561Y-63665000D01*
X66325439Y-63665000D01*
X66852862Y-63446534D01*
X67256534Y-63042862D01*
X67475000Y-62515439D01*
X67475000Y-62230000D01*
X72196887Y-62230000D01*
X72308260Y-62789909D01*
X72625423Y-63264577D01*
X73100091Y-63581740D01*
X73518667Y-63665000D01*
X73801333Y-63665000D01*
X74219909Y-63581740D01*
X74694577Y-63264577D01*
X75011740Y-62789909D01*
X75123113Y-62230000D01*
X75066336Y-61944561D01*
X76035000Y-61944561D01*
X76035000Y-62515439D01*
X76253466Y-63042862D01*
X76657138Y-63446534D01*
X77184561Y-63665000D01*
X77755439Y-63665000D01*
X78282862Y-63446534D01*
X78686534Y-63042862D01*
X78905000Y-62515439D01*
X78905000Y-61944561D01*
X78686534Y-61417138D01*
X78282862Y-61013466D01*
X77755439Y-60795000D01*
X77184561Y-60795000D01*
X76657138Y-61013466D01*
X76253466Y-61417138D01*
X76035000Y-61944561D01*
X75066336Y-61944561D01*
X75011740Y-61670091D01*
X74694577Y-61195423D01*
X74219909Y-60878260D01*
X73801333Y-60795000D01*
X73518667Y-60795000D01*
X73100091Y-60878260D01*
X72625423Y-61195423D01*
X72308260Y-61670091D01*
X72196887Y-62230000D01*
X67475000Y-62230000D01*
X67475000Y-61944561D01*
X67256534Y-61417138D01*
X66852862Y-61013466D01*
X66325439Y-60795000D01*
X65754561Y-60795000D01*
X65227138Y-61013466D01*
X64823466Y-61417138D01*
X64605000Y-61944561D01*
X62395000Y-61944561D01*
X62176534Y-61417138D01*
X61772862Y-61013466D01*
X61245439Y-60795000D01*
X60674561Y-60795000D01*
X60147138Y-61013466D01*
X59743466Y-61417138D01*
X59525000Y-61944561D01*
X54746336Y-61944561D01*
X54691740Y-61670091D01*
X54374577Y-61195423D01*
X53899909Y-60878260D01*
X53481333Y-60795000D01*
X53198667Y-60795000D01*
X52780091Y-60878260D01*
X52305423Y-61195423D01*
X51988260Y-61670091D01*
X51876887Y-62230000D01*
X51510000Y-62230000D01*
X51510000Y-56864561D01*
X51905000Y-56864561D01*
X51905000Y-57435439D01*
X52123466Y-57962862D01*
X52527138Y-58366534D01*
X53054561Y-58585000D01*
X53625439Y-58585000D01*
X54152862Y-58366534D01*
X54556534Y-57962862D01*
X54775000Y-57435439D01*
X54775000Y-57150000D01*
X59496887Y-57150000D01*
X59608260Y-57709909D01*
X59925423Y-58184577D01*
X60400091Y-58501740D01*
X60818667Y-58585000D01*
X61101333Y-58585000D01*
X61519909Y-58501740D01*
X61642241Y-58420000D01*
X64576887Y-58420000D01*
X64688260Y-58979909D01*
X65005423Y-59454577D01*
X65480091Y-59771740D01*
X65898667Y-59855000D01*
X66181333Y-59855000D01*
X66599909Y-59771740D01*
X67074577Y-59454577D01*
X67391740Y-58979909D01*
X67503113Y-58420000D01*
X67446336Y-58134561D01*
X72225000Y-58134561D01*
X72225000Y-58705439D01*
X72443466Y-59232862D01*
X72847138Y-59636534D01*
X73374561Y-59855000D01*
X73945439Y-59855000D01*
X74472862Y-59636534D01*
X74876534Y-59232862D01*
X75095000Y-58705439D01*
X75095000Y-58134561D01*
X74876534Y-57607138D01*
X74472862Y-57203466D01*
X73945439Y-56985000D01*
X73374561Y-56985000D01*
X72847138Y-57203466D01*
X72443466Y-57607138D01*
X72225000Y-58134561D01*
X67446336Y-58134561D01*
X67391740Y-57860091D01*
X67074577Y-57385423D01*
X66599909Y-57068260D01*
X66181333Y-56985000D01*
X65898667Y-56985000D01*
X65480091Y-57068260D01*
X65005423Y-57385423D01*
X64688260Y-57860091D01*
X64576887Y-58420000D01*
X61642241Y-58420000D01*
X61994577Y-58184577D01*
X62311740Y-57709909D01*
X62423113Y-57150000D01*
X62311740Y-56590091D01*
X61994577Y-56115423D01*
X61519909Y-55798260D01*
X61101333Y-55715000D01*
X60818667Y-55715000D01*
X60400091Y-55798260D01*
X59925423Y-56115423D01*
X59608260Y-56590091D01*
X59496887Y-57150000D01*
X54775000Y-57150000D01*
X54775000Y-56864561D01*
X54556534Y-56337138D01*
X54152862Y-55933466D01*
X53625439Y-55715000D01*
X53054561Y-55715000D01*
X52527138Y-55933466D01*
X52123466Y-56337138D01*
X51905000Y-56864561D01*
X51510000Y-56864561D01*
X51510000Y-52555032D01*
X51904038Y-52949070D01*
X52835757Y-53335000D01*
X53844243Y-53335000D01*
X54775962Y-52949070D01*
X55489070Y-52235962D01*
X55875000Y-51304243D01*
X55875000Y-50295757D01*
X55489070Y-49364038D01*
X55095032Y-48970000D01*
X57098727Y-48970000D01*
X56985000Y-49244561D01*
G04 #@! TD*
M02*
