G04 #@! TF.GenerationSoftware,KiCad,Pcbnew,(5.1.0-0)*
G04 #@! TF.CreationDate,2019-04-02T15:54:33-07:00*
G04 #@! TF.ProjectId,Pre-amp,5072652d-616d-4702-9e6b-696361645f70,rev?*
G04 #@! TF.SameCoordinates,Original*
G04 #@! TF.FileFunction,Soldermask,Top*
G04 #@! TF.FilePolarity,Negative*
%FSLAX46Y46*%
G04 Gerber Fmt 4.6, Leading zero omitted, Abs format (unit mm)*
G04 Created by KiCad (PCBNEW (5.1.0-0)) date 2019-04-02 15:54:33*
%MOMM*%
%LPD*%
G04 APERTURE LIST*
%ADD10C,0.100000*%
G04 APERTURE END LIST*
D10*
G36*
X161859085Y-97183975D02*
G01*
X162214143Y-97331045D01*
X162214145Y-97331046D01*
X162533690Y-97544559D01*
X162805441Y-97816310D01*
X162899330Y-97956825D01*
X163018955Y-98135857D01*
X163166025Y-98490915D01*
X163241000Y-98867842D01*
X163241000Y-99252158D01*
X163166025Y-99629085D01*
X163062798Y-99878297D01*
X163018954Y-99984145D01*
X162805441Y-100303690D01*
X162533690Y-100575441D01*
X162214145Y-100788954D01*
X162214144Y-100788955D01*
X162214143Y-100788955D01*
X161859085Y-100936025D01*
X161482158Y-101011000D01*
X161097842Y-101011000D01*
X160720915Y-100936025D01*
X160365857Y-100788955D01*
X160365856Y-100788955D01*
X160365855Y-100788954D01*
X160046310Y-100575441D01*
X159774559Y-100303690D01*
X159561046Y-99984145D01*
X159517202Y-99878297D01*
X159413975Y-99629085D01*
X159339000Y-99252158D01*
X159339000Y-98867842D01*
X159413975Y-98490915D01*
X159561045Y-98135857D01*
X159680670Y-97956825D01*
X159774559Y-97816310D01*
X160046310Y-97544559D01*
X160365855Y-97331046D01*
X160365857Y-97331045D01*
X160720915Y-97183975D01*
X161097842Y-97109000D01*
X161482158Y-97109000D01*
X161859085Y-97183975D01*
X161859085Y-97183975D01*
G37*
G36*
X53909085Y-97183975D02*
G01*
X54264143Y-97331045D01*
X54264145Y-97331046D01*
X54583690Y-97544559D01*
X54855441Y-97816310D01*
X54949330Y-97956825D01*
X55068955Y-98135857D01*
X55216025Y-98490915D01*
X55291000Y-98867842D01*
X55291000Y-99252158D01*
X55216025Y-99629085D01*
X55112798Y-99878297D01*
X55068954Y-99984145D01*
X54855441Y-100303690D01*
X54583690Y-100575441D01*
X54264145Y-100788954D01*
X54264144Y-100788955D01*
X54264143Y-100788955D01*
X53909085Y-100936025D01*
X53532158Y-101011000D01*
X53147842Y-101011000D01*
X52770915Y-100936025D01*
X52415857Y-100788955D01*
X52415856Y-100788955D01*
X52415855Y-100788954D01*
X52096310Y-100575441D01*
X51824559Y-100303690D01*
X51611046Y-99984145D01*
X51567202Y-99878297D01*
X51463975Y-99629085D01*
X51389000Y-99252158D01*
X51389000Y-98867842D01*
X51463975Y-98490915D01*
X51611045Y-98135857D01*
X51730670Y-97956825D01*
X51824559Y-97816310D01*
X52096310Y-97544559D01*
X52415855Y-97331046D01*
X52415857Y-97331045D01*
X52770915Y-97183975D01*
X53147842Y-97109000D01*
X53532158Y-97109000D01*
X53909085Y-97183975D01*
X53909085Y-97183975D01*
G37*
G36*
X153836823Y-98221313D02*
G01*
X153997242Y-98269976D01*
X154064361Y-98305852D01*
X154145078Y-98348996D01*
X154200718Y-98394659D01*
X154274659Y-98455341D01*
X154381005Y-98584923D01*
X154460024Y-98732758D01*
X154508687Y-98893177D01*
X154525117Y-99060000D01*
X154508687Y-99226823D01*
X154460024Y-99387242D01*
X154419477Y-99463100D01*
X154381004Y-99535078D01*
X154274659Y-99664659D01*
X154145078Y-99771004D01*
X154145076Y-99771005D01*
X153997242Y-99850024D01*
X153836823Y-99898687D01*
X153711804Y-99911000D01*
X153628196Y-99911000D01*
X153503177Y-99898687D01*
X153342758Y-99850024D01*
X153194924Y-99771005D01*
X153194922Y-99771004D01*
X153065341Y-99664659D01*
X152958996Y-99535078D01*
X152920523Y-99463100D01*
X152879976Y-99387242D01*
X152831313Y-99226823D01*
X152814883Y-99060000D01*
X152831313Y-98893177D01*
X152879976Y-98732758D01*
X152958995Y-98584923D01*
X153065341Y-98455341D01*
X153139282Y-98394659D01*
X153194922Y-98348996D01*
X153275639Y-98305852D01*
X153342758Y-98269976D01*
X153503177Y-98221313D01*
X153628196Y-98209000D01*
X153711804Y-98209000D01*
X153836823Y-98221313D01*
X153836823Y-98221313D01*
G37*
G36*
X146298228Y-98241703D02*
G01*
X146453100Y-98305853D01*
X146592481Y-98398985D01*
X146711015Y-98517519D01*
X146804147Y-98656900D01*
X146868297Y-98811772D01*
X146901000Y-98976184D01*
X146901000Y-99143816D01*
X146868297Y-99308228D01*
X146804147Y-99463100D01*
X146711015Y-99602481D01*
X146592481Y-99721015D01*
X146453100Y-99814147D01*
X146298228Y-99878297D01*
X146133816Y-99911000D01*
X145966184Y-99911000D01*
X145801772Y-99878297D01*
X145646900Y-99814147D01*
X145507519Y-99721015D01*
X145388985Y-99602481D01*
X145295853Y-99463100D01*
X145231703Y-99308228D01*
X145199000Y-99143816D01*
X145199000Y-98976184D01*
X145231703Y-98811772D01*
X145295853Y-98656900D01*
X145388985Y-98517519D01*
X145507519Y-98398985D01*
X145646900Y-98305853D01*
X145801772Y-98241703D01*
X145966184Y-98209000D01*
X146133816Y-98209000D01*
X146298228Y-98241703D01*
X146298228Y-98241703D01*
G37*
G36*
X86608228Y-98241703D02*
G01*
X86763100Y-98305853D01*
X86902481Y-98398985D01*
X87021015Y-98517519D01*
X87114147Y-98656900D01*
X87178297Y-98811772D01*
X87211000Y-98976184D01*
X87211000Y-99143816D01*
X87178297Y-99308228D01*
X87114147Y-99463100D01*
X87021015Y-99602481D01*
X86902481Y-99721015D01*
X86763100Y-99814147D01*
X86608228Y-99878297D01*
X86443816Y-99911000D01*
X86276184Y-99911000D01*
X86111772Y-99878297D01*
X85956900Y-99814147D01*
X85817519Y-99721015D01*
X85698985Y-99602481D01*
X85605853Y-99463100D01*
X85541703Y-99308228D01*
X85509000Y-99143816D01*
X85509000Y-98976184D01*
X85541703Y-98811772D01*
X85605853Y-98656900D01*
X85698985Y-98517519D01*
X85817519Y-98398985D01*
X85956900Y-98305853D01*
X86111772Y-98241703D01*
X86276184Y-98209000D01*
X86443816Y-98209000D01*
X86608228Y-98241703D01*
X86608228Y-98241703D01*
G37*
G36*
X80258228Y-98241703D02*
G01*
X80413100Y-98305853D01*
X80552481Y-98398985D01*
X80671015Y-98517519D01*
X80764147Y-98656900D01*
X80828297Y-98811772D01*
X80861000Y-98976184D01*
X80861000Y-99143816D01*
X80828297Y-99308228D01*
X80764147Y-99463100D01*
X80671015Y-99602481D01*
X80552481Y-99721015D01*
X80413100Y-99814147D01*
X80258228Y-99878297D01*
X80093816Y-99911000D01*
X79926184Y-99911000D01*
X79761772Y-99878297D01*
X79606900Y-99814147D01*
X79467519Y-99721015D01*
X79348985Y-99602481D01*
X79255853Y-99463100D01*
X79191703Y-99308228D01*
X79159000Y-99143816D01*
X79159000Y-98976184D01*
X79191703Y-98811772D01*
X79255853Y-98656900D01*
X79348985Y-98517519D01*
X79467519Y-98398985D01*
X79606900Y-98305853D01*
X79761772Y-98241703D01*
X79926184Y-98209000D01*
X80093816Y-98209000D01*
X80258228Y-98241703D01*
X80258228Y-98241703D01*
G37*
G36*
X74511000Y-99911000D02*
G01*
X72809000Y-99911000D01*
X72809000Y-98209000D01*
X74511000Y-98209000D01*
X74511000Y-99911000D01*
X74511000Y-99911000D01*
G37*
G36*
X111101213Y-98337502D02*
G01*
X111172321Y-98344505D01*
X111309172Y-98386019D01*
X111309175Y-98386020D01*
X111435294Y-98453432D01*
X111545843Y-98544157D01*
X111636568Y-98654706D01*
X111703980Y-98780825D01*
X111703981Y-98780828D01*
X111745495Y-98917679D01*
X111759512Y-99060000D01*
X111745495Y-99202321D01*
X111703981Y-99339172D01*
X111703980Y-99339175D01*
X111636568Y-99465294D01*
X111545843Y-99575843D01*
X111435294Y-99666568D01*
X111309175Y-99733980D01*
X111309172Y-99733981D01*
X111172321Y-99775495D01*
X111101213Y-99782498D01*
X111065660Y-99786000D01*
X110994340Y-99786000D01*
X110958787Y-99782498D01*
X110887679Y-99775495D01*
X110750828Y-99733981D01*
X110750825Y-99733980D01*
X110624706Y-99666568D01*
X110514157Y-99575843D01*
X110423432Y-99465294D01*
X110356020Y-99339175D01*
X110356019Y-99339172D01*
X110314505Y-99202321D01*
X110300488Y-99060000D01*
X110314505Y-98917679D01*
X110356019Y-98780828D01*
X110356020Y-98780825D01*
X110423432Y-98654706D01*
X110514157Y-98544157D01*
X110624706Y-98453432D01*
X110750825Y-98386020D01*
X110750828Y-98386019D01*
X110887679Y-98344505D01*
X110958787Y-98337502D01*
X110994340Y-98334000D01*
X111065660Y-98334000D01*
X111101213Y-98337502D01*
X111101213Y-98337502D01*
G37*
G36*
X109101213Y-98337502D02*
G01*
X109172321Y-98344505D01*
X109309172Y-98386019D01*
X109309175Y-98386020D01*
X109435294Y-98453432D01*
X109545843Y-98544157D01*
X109636568Y-98654706D01*
X109703980Y-98780825D01*
X109703981Y-98780828D01*
X109745495Y-98917679D01*
X109759512Y-99060000D01*
X109745495Y-99202321D01*
X109703981Y-99339172D01*
X109703980Y-99339175D01*
X109636568Y-99465294D01*
X109545843Y-99575843D01*
X109435294Y-99666568D01*
X109309175Y-99733980D01*
X109309172Y-99733981D01*
X109172321Y-99775495D01*
X109101213Y-99782498D01*
X109065660Y-99786000D01*
X108994340Y-99786000D01*
X108958787Y-99782498D01*
X108887679Y-99775495D01*
X108750828Y-99733981D01*
X108750825Y-99733980D01*
X108624706Y-99666568D01*
X108514157Y-99575843D01*
X108423432Y-99465294D01*
X108356020Y-99339175D01*
X108356019Y-99339172D01*
X108314505Y-99202321D01*
X108300488Y-99060000D01*
X108314505Y-98917679D01*
X108356019Y-98780828D01*
X108356020Y-98780825D01*
X108423432Y-98654706D01*
X108514157Y-98544157D01*
X108624706Y-98453432D01*
X108750825Y-98386020D01*
X108750828Y-98386019D01*
X108887679Y-98344505D01*
X108958787Y-98337502D01*
X108994340Y-98334000D01*
X109065660Y-98334000D01*
X109101213Y-98337502D01*
X109101213Y-98337502D01*
G37*
G36*
X101056000Y-99786000D02*
G01*
X99604000Y-99786000D01*
X99604000Y-98334000D01*
X101056000Y-98334000D01*
X101056000Y-99786000D01*
X101056000Y-99786000D01*
G37*
G36*
X98401213Y-98337502D02*
G01*
X98472321Y-98344505D01*
X98609172Y-98386019D01*
X98609175Y-98386020D01*
X98735294Y-98453432D01*
X98845843Y-98544157D01*
X98936568Y-98654706D01*
X99003980Y-98780825D01*
X99003981Y-98780828D01*
X99045495Y-98917679D01*
X99059512Y-99060000D01*
X99045495Y-99202321D01*
X99003981Y-99339172D01*
X99003980Y-99339175D01*
X98936568Y-99465294D01*
X98845843Y-99575843D01*
X98735294Y-99666568D01*
X98609175Y-99733980D01*
X98609172Y-99733981D01*
X98472321Y-99775495D01*
X98401213Y-99782498D01*
X98365660Y-99786000D01*
X98294340Y-99786000D01*
X98258787Y-99782498D01*
X98187679Y-99775495D01*
X98050828Y-99733981D01*
X98050825Y-99733980D01*
X97924706Y-99666568D01*
X97814157Y-99575843D01*
X97723432Y-99465294D01*
X97656020Y-99339175D01*
X97656019Y-99339172D01*
X97614505Y-99202321D01*
X97600488Y-99060000D01*
X97614505Y-98917679D01*
X97656019Y-98780828D01*
X97656020Y-98780825D01*
X97723432Y-98654706D01*
X97814157Y-98544157D01*
X97924706Y-98453432D01*
X98050825Y-98386020D01*
X98050828Y-98386019D01*
X98187679Y-98344505D01*
X98258787Y-98337502D01*
X98294340Y-98334000D01*
X98365660Y-98334000D01*
X98401213Y-98337502D01*
X98401213Y-98337502D01*
G37*
G36*
X96401213Y-98337502D02*
G01*
X96472321Y-98344505D01*
X96609172Y-98386019D01*
X96609175Y-98386020D01*
X96735294Y-98453432D01*
X96845843Y-98544157D01*
X96936568Y-98654706D01*
X97003980Y-98780825D01*
X97003981Y-98780828D01*
X97045495Y-98917679D01*
X97059512Y-99060000D01*
X97045495Y-99202321D01*
X97003981Y-99339172D01*
X97003980Y-99339175D01*
X96936568Y-99465294D01*
X96845843Y-99575843D01*
X96735294Y-99666568D01*
X96609175Y-99733980D01*
X96609172Y-99733981D01*
X96472321Y-99775495D01*
X96401213Y-99782498D01*
X96365660Y-99786000D01*
X96294340Y-99786000D01*
X96258787Y-99782498D01*
X96187679Y-99775495D01*
X96050828Y-99733981D01*
X96050825Y-99733980D01*
X95924706Y-99666568D01*
X95814157Y-99575843D01*
X95723432Y-99465294D01*
X95656020Y-99339175D01*
X95656019Y-99339172D01*
X95614505Y-99202321D01*
X95600488Y-99060000D01*
X95614505Y-98917679D01*
X95656019Y-98780828D01*
X95656020Y-98780825D01*
X95723432Y-98654706D01*
X95814157Y-98544157D01*
X95924706Y-98453432D01*
X96050825Y-98386020D01*
X96050828Y-98386019D01*
X96187679Y-98344505D01*
X96258787Y-98337502D01*
X96294340Y-98334000D01*
X96365660Y-98334000D01*
X96401213Y-98337502D01*
X96401213Y-98337502D01*
G37*
G36*
X131961213Y-98337502D02*
G01*
X132032321Y-98344505D01*
X132169172Y-98386019D01*
X132169175Y-98386020D01*
X132295294Y-98453432D01*
X132405843Y-98544157D01*
X132496568Y-98654706D01*
X132563980Y-98780825D01*
X132563981Y-98780828D01*
X132605495Y-98917679D01*
X132619512Y-99060000D01*
X132605495Y-99202321D01*
X132563981Y-99339172D01*
X132563980Y-99339175D01*
X132496568Y-99465294D01*
X132405843Y-99575843D01*
X132295294Y-99666568D01*
X132169175Y-99733980D01*
X132169172Y-99733981D01*
X132032321Y-99775495D01*
X131961213Y-99782498D01*
X131925660Y-99786000D01*
X131854340Y-99786000D01*
X131818787Y-99782498D01*
X131747679Y-99775495D01*
X131610828Y-99733981D01*
X131610825Y-99733980D01*
X131484706Y-99666568D01*
X131374157Y-99575843D01*
X131283432Y-99465294D01*
X131216020Y-99339175D01*
X131216019Y-99339172D01*
X131174505Y-99202321D01*
X131160488Y-99060000D01*
X131174505Y-98917679D01*
X131216019Y-98780828D01*
X131216020Y-98780825D01*
X131283432Y-98654706D01*
X131374157Y-98544157D01*
X131484706Y-98453432D01*
X131610825Y-98386020D01*
X131610828Y-98386019D01*
X131747679Y-98344505D01*
X131818787Y-98337502D01*
X131854340Y-98334000D01*
X131925660Y-98334000D01*
X131961213Y-98337502D01*
X131961213Y-98337502D01*
G37*
G36*
X113756000Y-99786000D02*
G01*
X112304000Y-99786000D01*
X112304000Y-98334000D01*
X113756000Y-98334000D01*
X113756000Y-99786000D01*
X113756000Y-99786000D01*
G37*
G36*
X120721213Y-98337502D02*
G01*
X120792321Y-98344505D01*
X120929172Y-98386019D01*
X120929175Y-98386020D01*
X121055294Y-98453432D01*
X121165843Y-98544157D01*
X121256568Y-98654706D01*
X121323980Y-98780825D01*
X121323981Y-98780828D01*
X121365495Y-98917679D01*
X121379512Y-99060000D01*
X121365495Y-99202321D01*
X121323981Y-99339172D01*
X121323980Y-99339175D01*
X121256568Y-99465294D01*
X121165843Y-99575843D01*
X121055294Y-99666568D01*
X120929175Y-99733980D01*
X120929172Y-99733981D01*
X120792321Y-99775495D01*
X120721213Y-99782498D01*
X120685660Y-99786000D01*
X120614340Y-99786000D01*
X120578787Y-99782498D01*
X120507679Y-99775495D01*
X120370828Y-99733981D01*
X120370825Y-99733980D01*
X120244706Y-99666568D01*
X120134157Y-99575843D01*
X120043432Y-99465294D01*
X119976020Y-99339175D01*
X119976019Y-99339172D01*
X119934505Y-99202321D01*
X119920488Y-99060000D01*
X119934505Y-98917679D01*
X119976019Y-98780828D01*
X119976020Y-98780825D01*
X120043432Y-98654706D01*
X120134157Y-98544157D01*
X120244706Y-98453432D01*
X120370825Y-98386020D01*
X120370828Y-98386019D01*
X120507679Y-98344505D01*
X120578787Y-98337502D01*
X120614340Y-98334000D01*
X120685660Y-98334000D01*
X120721213Y-98337502D01*
X120721213Y-98337502D01*
G37*
G36*
X122721213Y-98337502D02*
G01*
X122792321Y-98344505D01*
X122929172Y-98386019D01*
X122929175Y-98386020D01*
X123055294Y-98453432D01*
X123165843Y-98544157D01*
X123256568Y-98654706D01*
X123323980Y-98780825D01*
X123323981Y-98780828D01*
X123365495Y-98917679D01*
X123379512Y-99060000D01*
X123365495Y-99202321D01*
X123323981Y-99339172D01*
X123323980Y-99339175D01*
X123256568Y-99465294D01*
X123165843Y-99575843D01*
X123055294Y-99666568D01*
X122929175Y-99733980D01*
X122929172Y-99733981D01*
X122792321Y-99775495D01*
X122721213Y-99782498D01*
X122685660Y-99786000D01*
X122614340Y-99786000D01*
X122578787Y-99782498D01*
X122507679Y-99775495D01*
X122370828Y-99733981D01*
X122370825Y-99733980D01*
X122244706Y-99666568D01*
X122134157Y-99575843D01*
X122043432Y-99465294D01*
X121976020Y-99339175D01*
X121976019Y-99339172D01*
X121934505Y-99202321D01*
X121920488Y-99060000D01*
X121934505Y-98917679D01*
X121976019Y-98780828D01*
X121976020Y-98780825D01*
X122043432Y-98654706D01*
X122134157Y-98544157D01*
X122244706Y-98453432D01*
X122370825Y-98386020D01*
X122370828Y-98386019D01*
X122507679Y-98344505D01*
X122578787Y-98337502D01*
X122614340Y-98334000D01*
X122685660Y-98334000D01*
X122721213Y-98337502D01*
X122721213Y-98337502D01*
G37*
G36*
X125376000Y-99786000D02*
G01*
X123924000Y-99786000D01*
X123924000Y-98334000D01*
X125376000Y-98334000D01*
X125376000Y-99786000D01*
X125376000Y-99786000D01*
G37*
G36*
X133961213Y-98337502D02*
G01*
X134032321Y-98344505D01*
X134169172Y-98386019D01*
X134169175Y-98386020D01*
X134295294Y-98453432D01*
X134405843Y-98544157D01*
X134496568Y-98654706D01*
X134563980Y-98780825D01*
X134563981Y-98780828D01*
X134605495Y-98917679D01*
X134619512Y-99060000D01*
X134605495Y-99202321D01*
X134563981Y-99339172D01*
X134563980Y-99339175D01*
X134496568Y-99465294D01*
X134405843Y-99575843D01*
X134295294Y-99666568D01*
X134169175Y-99733980D01*
X134169172Y-99733981D01*
X134032321Y-99775495D01*
X133961213Y-99782498D01*
X133925660Y-99786000D01*
X133854340Y-99786000D01*
X133818787Y-99782498D01*
X133747679Y-99775495D01*
X133610828Y-99733981D01*
X133610825Y-99733980D01*
X133484706Y-99666568D01*
X133374157Y-99575843D01*
X133283432Y-99465294D01*
X133216020Y-99339175D01*
X133216019Y-99339172D01*
X133174505Y-99202321D01*
X133160488Y-99060000D01*
X133174505Y-98917679D01*
X133216019Y-98780828D01*
X133216020Y-98780825D01*
X133283432Y-98654706D01*
X133374157Y-98544157D01*
X133484706Y-98453432D01*
X133610825Y-98386020D01*
X133610828Y-98386019D01*
X133747679Y-98344505D01*
X133818787Y-98337502D01*
X133854340Y-98334000D01*
X133925660Y-98334000D01*
X133961213Y-98337502D01*
X133961213Y-98337502D01*
G37*
G36*
X136616000Y-99786000D02*
G01*
X135164000Y-99786000D01*
X135164000Y-98334000D01*
X136616000Y-98334000D01*
X136616000Y-99786000D01*
X136616000Y-99786000D01*
G37*
G36*
X59271000Y-98641000D02*
G01*
X57569000Y-98641000D01*
X57569000Y-96939000D01*
X59271000Y-96939000D01*
X59271000Y-98641000D01*
X59271000Y-98641000D01*
G37*
G36*
X66206823Y-96951313D02*
G01*
X66367242Y-96999976D01*
X66499906Y-97070886D01*
X66515078Y-97078996D01*
X66644659Y-97185341D01*
X66751004Y-97314922D01*
X66751005Y-97314924D01*
X66830024Y-97462758D01*
X66878687Y-97623177D01*
X66895117Y-97790000D01*
X66878687Y-97956823D01*
X66830024Y-98117242D01*
X66820075Y-98135855D01*
X66751004Y-98265078D01*
X66644659Y-98394659D01*
X66515078Y-98501004D01*
X66515076Y-98501005D01*
X66367242Y-98580024D01*
X66206823Y-98628687D01*
X66081804Y-98641000D01*
X65998196Y-98641000D01*
X65873177Y-98628687D01*
X65712758Y-98580024D01*
X65564924Y-98501005D01*
X65564922Y-98501004D01*
X65435341Y-98394659D01*
X65328996Y-98265078D01*
X65259925Y-98135855D01*
X65249976Y-98117242D01*
X65201313Y-97956823D01*
X65184883Y-97790000D01*
X65201313Y-97623177D01*
X65249976Y-97462758D01*
X65328995Y-97314924D01*
X65328996Y-97314922D01*
X65435341Y-97185341D01*
X65564922Y-97078996D01*
X65580094Y-97070886D01*
X65712758Y-96999976D01*
X65873177Y-96951313D01*
X65998196Y-96939000D01*
X66081804Y-96939000D01*
X66206823Y-96951313D01*
X66206823Y-96951313D01*
G37*
G36*
X146216823Y-93141313D02*
G01*
X146377242Y-93189976D01*
X146509906Y-93260886D01*
X146525078Y-93268996D01*
X146654659Y-93375341D01*
X146761004Y-93504922D01*
X146761005Y-93504924D01*
X146840024Y-93652758D01*
X146888687Y-93813177D01*
X146905117Y-93980000D01*
X146888687Y-94146823D01*
X146840024Y-94307242D01*
X146799477Y-94383100D01*
X146761004Y-94455078D01*
X146654659Y-94584659D01*
X146525078Y-94691004D01*
X146525076Y-94691005D01*
X146377242Y-94770024D01*
X146216823Y-94818687D01*
X146091804Y-94831000D01*
X146008196Y-94831000D01*
X145883177Y-94818687D01*
X145722758Y-94770024D01*
X145574924Y-94691005D01*
X145574922Y-94691004D01*
X145445341Y-94584659D01*
X145338996Y-94455078D01*
X145300523Y-94383100D01*
X145259976Y-94307242D01*
X145211313Y-94146823D01*
X145194883Y-93980000D01*
X145211313Y-93813177D01*
X145259976Y-93652758D01*
X145338995Y-93504924D01*
X145338996Y-93504922D01*
X145445341Y-93375341D01*
X145574922Y-93268996D01*
X145590094Y-93260886D01*
X145722758Y-93189976D01*
X145883177Y-93141313D01*
X146008196Y-93129000D01*
X146091804Y-93129000D01*
X146216823Y-93141313D01*
X146216823Y-93141313D01*
G37*
G36*
X153918228Y-93161703D02*
G01*
X154073100Y-93225853D01*
X154212481Y-93318985D01*
X154331015Y-93437519D01*
X154424147Y-93576900D01*
X154488297Y-93731772D01*
X154521000Y-93896184D01*
X154521000Y-94063816D01*
X154488297Y-94228228D01*
X154424147Y-94383100D01*
X154331015Y-94522481D01*
X154212481Y-94641015D01*
X154073100Y-94734147D01*
X153918228Y-94798297D01*
X153753816Y-94831000D01*
X153586184Y-94831000D01*
X153421772Y-94798297D01*
X153266900Y-94734147D01*
X153127519Y-94641015D01*
X153008985Y-94522481D01*
X152915853Y-94383100D01*
X152851703Y-94228228D01*
X152819000Y-94063816D01*
X152819000Y-93896184D01*
X152851703Y-93731772D01*
X152915853Y-93576900D01*
X153008985Y-93437519D01*
X153127519Y-93318985D01*
X153266900Y-93225853D01*
X153421772Y-93161703D01*
X153586184Y-93129000D01*
X153753816Y-93129000D01*
X153918228Y-93161703D01*
X153918228Y-93161703D01*
G37*
G36*
X127248228Y-91891703D02*
G01*
X127403100Y-91955853D01*
X127542481Y-92048985D01*
X127661015Y-92167519D01*
X127754147Y-92306900D01*
X127818297Y-92461772D01*
X127851000Y-92626184D01*
X127851000Y-92793816D01*
X127818297Y-92958228D01*
X127754147Y-93113100D01*
X127661015Y-93252481D01*
X127542481Y-93371015D01*
X127403100Y-93464147D01*
X127248228Y-93528297D01*
X127083816Y-93561000D01*
X126916184Y-93561000D01*
X126751772Y-93528297D01*
X126596900Y-93464147D01*
X126457519Y-93371015D01*
X126338985Y-93252481D01*
X126245853Y-93113100D01*
X126181703Y-92958228D01*
X126149000Y-92793816D01*
X126149000Y-92626184D01*
X126181703Y-92461772D01*
X126245853Y-92306900D01*
X126338985Y-92167519D01*
X126457519Y-92048985D01*
X126596900Y-91955853D01*
X126751772Y-91891703D01*
X126916184Y-91859000D01*
X127083816Y-91859000D01*
X127248228Y-91891703D01*
X127248228Y-91891703D01*
G37*
G36*
X119546823Y-91871313D02*
G01*
X119707242Y-91919976D01*
X119774361Y-91955852D01*
X119855078Y-91998996D01*
X119984659Y-92105341D01*
X120091004Y-92234922D01*
X120091005Y-92234924D01*
X120170024Y-92382758D01*
X120218687Y-92543177D01*
X120235117Y-92710000D01*
X120218687Y-92876823D01*
X120170024Y-93037242D01*
X120129477Y-93113100D01*
X120091004Y-93185078D01*
X119984659Y-93314659D01*
X119855078Y-93421004D01*
X119855076Y-93421005D01*
X119707242Y-93500024D01*
X119546823Y-93548687D01*
X119421804Y-93561000D01*
X119338196Y-93561000D01*
X119213177Y-93548687D01*
X119052758Y-93500024D01*
X118904924Y-93421005D01*
X118904922Y-93421004D01*
X118775341Y-93314659D01*
X118668996Y-93185078D01*
X118630523Y-93113100D01*
X118589976Y-93037242D01*
X118541313Y-92876823D01*
X118524883Y-92710000D01*
X118541313Y-92543177D01*
X118589976Y-92382758D01*
X118668995Y-92234924D01*
X118668996Y-92234922D01*
X118775341Y-92105341D01*
X118904922Y-91998996D01*
X118985639Y-91955852D01*
X119052758Y-91919976D01*
X119213177Y-91871313D01*
X119338196Y-91859000D01*
X119421804Y-91859000D01*
X119546823Y-91871313D01*
X119546823Y-91871313D01*
G37*
G36*
X66288228Y-91891703D02*
G01*
X66443100Y-91955853D01*
X66582481Y-92048985D01*
X66701015Y-92167519D01*
X66794147Y-92306900D01*
X66858297Y-92461772D01*
X66891000Y-92626184D01*
X66891000Y-92793816D01*
X66858297Y-92958228D01*
X66794147Y-93113100D01*
X66701015Y-93252481D01*
X66582481Y-93371015D01*
X66443100Y-93464147D01*
X66288228Y-93528297D01*
X66123816Y-93561000D01*
X65956184Y-93561000D01*
X65791772Y-93528297D01*
X65636900Y-93464147D01*
X65497519Y-93371015D01*
X65378985Y-93252481D01*
X65285853Y-93113100D01*
X65221703Y-92958228D01*
X65189000Y-92793816D01*
X65189000Y-92626184D01*
X65221703Y-92461772D01*
X65285853Y-92306900D01*
X65378985Y-92167519D01*
X65497519Y-92048985D01*
X65636900Y-91955853D01*
X65791772Y-91891703D01*
X65956184Y-91859000D01*
X66123816Y-91859000D01*
X66288228Y-91891703D01*
X66288228Y-91891703D01*
G37*
G36*
X58668228Y-91891703D02*
G01*
X58823100Y-91955853D01*
X58962481Y-92048985D01*
X59081015Y-92167519D01*
X59174147Y-92306900D01*
X59238297Y-92461772D01*
X59271000Y-92626184D01*
X59271000Y-92793816D01*
X59238297Y-92958228D01*
X59174147Y-93113100D01*
X59081015Y-93252481D01*
X58962481Y-93371015D01*
X58823100Y-93464147D01*
X58668228Y-93528297D01*
X58503816Y-93561000D01*
X58336184Y-93561000D01*
X58171772Y-93528297D01*
X58016900Y-93464147D01*
X57877519Y-93371015D01*
X57758985Y-93252481D01*
X57665853Y-93113100D01*
X57601703Y-92958228D01*
X57569000Y-92793816D01*
X57569000Y-92626184D01*
X57601703Y-92461772D01*
X57665853Y-92306900D01*
X57758985Y-92167519D01*
X57877519Y-92048985D01*
X58016900Y-91955853D01*
X58171772Y-91891703D01*
X58336184Y-91859000D01*
X58503816Y-91859000D01*
X58668228Y-91891703D01*
X58668228Y-91891703D01*
G37*
G36*
X101766823Y-91871313D02*
G01*
X101927242Y-91919976D01*
X101994361Y-91955852D01*
X102075078Y-91998996D01*
X102204659Y-92105341D01*
X102311004Y-92234922D01*
X102311005Y-92234924D01*
X102390024Y-92382758D01*
X102438687Y-92543177D01*
X102455117Y-92710000D01*
X102438687Y-92876823D01*
X102390024Y-93037242D01*
X102349477Y-93113100D01*
X102311004Y-93185078D01*
X102204659Y-93314659D01*
X102075078Y-93421004D01*
X102075076Y-93421005D01*
X101927242Y-93500024D01*
X101766823Y-93548687D01*
X101641804Y-93561000D01*
X101558196Y-93561000D01*
X101433177Y-93548687D01*
X101272758Y-93500024D01*
X101124924Y-93421005D01*
X101124922Y-93421004D01*
X100995341Y-93314659D01*
X100888996Y-93185078D01*
X100850523Y-93113100D01*
X100809976Y-93037242D01*
X100761313Y-92876823D01*
X100744883Y-92710000D01*
X100761313Y-92543177D01*
X100809976Y-92382758D01*
X100888995Y-92234924D01*
X100888996Y-92234922D01*
X100995341Y-92105341D01*
X101124922Y-91998996D01*
X101205639Y-91955852D01*
X101272758Y-91919976D01*
X101433177Y-91871313D01*
X101558196Y-91859000D01*
X101641804Y-91859000D01*
X101766823Y-91871313D01*
X101766823Y-91871313D01*
G37*
G36*
X161456823Y-91871313D02*
G01*
X161617242Y-91919976D01*
X161684361Y-91955852D01*
X161765078Y-91998996D01*
X161894659Y-92105341D01*
X162001004Y-92234922D01*
X162001005Y-92234924D01*
X162080024Y-92382758D01*
X162128687Y-92543177D01*
X162145117Y-92710000D01*
X162128687Y-92876823D01*
X162080024Y-93037242D01*
X162039477Y-93113100D01*
X162001004Y-93185078D01*
X161894659Y-93314659D01*
X161765078Y-93421004D01*
X161765076Y-93421005D01*
X161617242Y-93500024D01*
X161456823Y-93548687D01*
X161331804Y-93561000D01*
X161248196Y-93561000D01*
X161123177Y-93548687D01*
X160962758Y-93500024D01*
X160814924Y-93421005D01*
X160814922Y-93421004D01*
X160685341Y-93314659D01*
X160578996Y-93185078D01*
X160540523Y-93113100D01*
X160499976Y-93037242D01*
X160451313Y-92876823D01*
X160434883Y-92710000D01*
X160451313Y-92543177D01*
X160499976Y-92382758D01*
X160578995Y-92234924D01*
X160578996Y-92234922D01*
X160685341Y-92105341D01*
X160814922Y-91998996D01*
X160895639Y-91955852D01*
X160962758Y-91919976D01*
X161123177Y-91871313D01*
X161248196Y-91859000D01*
X161331804Y-91859000D01*
X161456823Y-91871313D01*
X161456823Y-91871313D01*
G37*
G36*
X114548228Y-91891703D02*
G01*
X114703100Y-91955853D01*
X114842481Y-92048985D01*
X114961015Y-92167519D01*
X115054147Y-92306900D01*
X115118297Y-92461772D01*
X115151000Y-92626184D01*
X115151000Y-92793816D01*
X115118297Y-92958228D01*
X115054147Y-93113100D01*
X114961015Y-93252481D01*
X114842481Y-93371015D01*
X114703100Y-93464147D01*
X114548228Y-93528297D01*
X114383816Y-93561000D01*
X114216184Y-93561000D01*
X114051772Y-93528297D01*
X113896900Y-93464147D01*
X113757519Y-93371015D01*
X113638985Y-93252481D01*
X113545853Y-93113100D01*
X113481703Y-92958228D01*
X113449000Y-92793816D01*
X113449000Y-92626184D01*
X113481703Y-92461772D01*
X113545853Y-92306900D01*
X113638985Y-92167519D01*
X113757519Y-92048985D01*
X113896900Y-91955853D01*
X114051772Y-91891703D01*
X114216184Y-91859000D01*
X114383816Y-91859000D01*
X114548228Y-91891703D01*
X114548228Y-91891703D01*
G37*
G36*
X112048228Y-91891703D02*
G01*
X112203100Y-91955853D01*
X112342481Y-92048985D01*
X112461015Y-92167519D01*
X112554147Y-92306900D01*
X112618297Y-92461772D01*
X112651000Y-92626184D01*
X112651000Y-92793816D01*
X112618297Y-92958228D01*
X112554147Y-93113100D01*
X112461015Y-93252481D01*
X112342481Y-93371015D01*
X112203100Y-93464147D01*
X112048228Y-93528297D01*
X111883816Y-93561000D01*
X111716184Y-93561000D01*
X111551772Y-93528297D01*
X111396900Y-93464147D01*
X111257519Y-93371015D01*
X111138985Y-93252481D01*
X111045853Y-93113100D01*
X110981703Y-92958228D01*
X110949000Y-92793816D01*
X110949000Y-92626184D01*
X110981703Y-92461772D01*
X111045853Y-92306900D01*
X111138985Y-92167519D01*
X111257519Y-92048985D01*
X111396900Y-91955853D01*
X111551772Y-91891703D01*
X111716184Y-91859000D01*
X111883816Y-91859000D01*
X112048228Y-91891703D01*
X112048228Y-91891703D01*
G37*
G36*
X137408228Y-91891703D02*
G01*
X137563100Y-91955853D01*
X137702481Y-92048985D01*
X137821015Y-92167519D01*
X137914147Y-92306900D01*
X137978297Y-92461772D01*
X138011000Y-92626184D01*
X138011000Y-92793816D01*
X137978297Y-92958228D01*
X137914147Y-93113100D01*
X137821015Y-93252481D01*
X137702481Y-93371015D01*
X137563100Y-93464147D01*
X137408228Y-93528297D01*
X137243816Y-93561000D01*
X137076184Y-93561000D01*
X136911772Y-93528297D01*
X136756900Y-93464147D01*
X136617519Y-93371015D01*
X136498985Y-93252481D01*
X136405853Y-93113100D01*
X136341703Y-92958228D01*
X136309000Y-92793816D01*
X136309000Y-92626184D01*
X136341703Y-92461772D01*
X136405853Y-92306900D01*
X136498985Y-92167519D01*
X136617519Y-92048985D01*
X136756900Y-91955853D01*
X136911772Y-91891703D01*
X137076184Y-91859000D01*
X137243816Y-91859000D01*
X137408228Y-91891703D01*
X137408228Y-91891703D01*
G37*
G36*
X134908228Y-91891703D02*
G01*
X135063100Y-91955853D01*
X135202481Y-92048985D01*
X135321015Y-92167519D01*
X135414147Y-92306900D01*
X135478297Y-92461772D01*
X135511000Y-92626184D01*
X135511000Y-92793816D01*
X135478297Y-92958228D01*
X135414147Y-93113100D01*
X135321015Y-93252481D01*
X135202481Y-93371015D01*
X135063100Y-93464147D01*
X134908228Y-93528297D01*
X134743816Y-93561000D01*
X134576184Y-93561000D01*
X134411772Y-93528297D01*
X134256900Y-93464147D01*
X134117519Y-93371015D01*
X133998985Y-93252481D01*
X133905853Y-93113100D01*
X133841703Y-92958228D01*
X133809000Y-92793816D01*
X133809000Y-92626184D01*
X133841703Y-92461772D01*
X133905853Y-92306900D01*
X133998985Y-92167519D01*
X134117519Y-92048985D01*
X134256900Y-91955853D01*
X134411772Y-91891703D01*
X134576184Y-91859000D01*
X134743816Y-91859000D01*
X134908228Y-91891703D01*
X134908228Y-91891703D01*
G37*
G36*
X94228228Y-91891703D02*
G01*
X94383100Y-91955853D01*
X94522481Y-92048985D01*
X94641015Y-92167519D01*
X94734147Y-92306900D01*
X94798297Y-92461772D01*
X94831000Y-92626184D01*
X94831000Y-92793816D01*
X94798297Y-92958228D01*
X94734147Y-93113100D01*
X94641015Y-93252481D01*
X94522481Y-93371015D01*
X94383100Y-93464147D01*
X94228228Y-93528297D01*
X94063816Y-93561000D01*
X93896184Y-93561000D01*
X93731772Y-93528297D01*
X93576900Y-93464147D01*
X93437519Y-93371015D01*
X93318985Y-93252481D01*
X93225853Y-93113100D01*
X93161703Y-92958228D01*
X93129000Y-92793816D01*
X93129000Y-92626184D01*
X93161703Y-92461772D01*
X93225853Y-92306900D01*
X93318985Y-92167519D01*
X93437519Y-92048985D01*
X93576900Y-91955853D01*
X93731772Y-91891703D01*
X93896184Y-91859000D01*
X94063816Y-91859000D01*
X94228228Y-91891703D01*
X94228228Y-91891703D01*
G37*
G36*
X80176823Y-90601313D02*
G01*
X80337242Y-90649976D01*
X80404344Y-90685843D01*
X80485078Y-90728996D01*
X80614659Y-90835341D01*
X80721004Y-90964922D01*
X80721005Y-90964924D01*
X80800024Y-91112758D01*
X80848687Y-91273177D01*
X80865117Y-91440000D01*
X80848687Y-91606823D01*
X80800024Y-91767242D01*
X80750978Y-91859000D01*
X80721004Y-91915078D01*
X80614659Y-92044659D01*
X80485078Y-92151004D01*
X80485076Y-92151005D01*
X80337242Y-92230024D01*
X80176823Y-92278687D01*
X80051804Y-92291000D01*
X79968196Y-92291000D01*
X79843177Y-92278687D01*
X79682758Y-92230024D01*
X79534924Y-92151005D01*
X79534922Y-92151004D01*
X79405341Y-92044659D01*
X79298996Y-91915078D01*
X79269022Y-91859000D01*
X79219976Y-91767242D01*
X79171313Y-91606823D01*
X79154883Y-91440000D01*
X79171313Y-91273177D01*
X79219976Y-91112758D01*
X79298995Y-90964924D01*
X79298996Y-90964922D01*
X79405341Y-90835341D01*
X79534922Y-90728996D01*
X79615656Y-90685843D01*
X79682758Y-90649976D01*
X79843177Y-90601313D01*
X79968196Y-90589000D01*
X80051804Y-90589000D01*
X80176823Y-90601313D01*
X80176823Y-90601313D01*
G37*
G36*
X86526823Y-90601313D02*
G01*
X86687242Y-90649976D01*
X86754344Y-90685843D01*
X86835078Y-90728996D01*
X86964659Y-90835341D01*
X87071004Y-90964922D01*
X87071005Y-90964924D01*
X87150024Y-91112758D01*
X87198687Y-91273177D01*
X87215117Y-91440000D01*
X87198687Y-91606823D01*
X87150024Y-91767242D01*
X87100978Y-91859000D01*
X87071004Y-91915078D01*
X86964659Y-92044659D01*
X86835078Y-92151004D01*
X86835076Y-92151005D01*
X86687242Y-92230024D01*
X86526823Y-92278687D01*
X86401804Y-92291000D01*
X86318196Y-92291000D01*
X86193177Y-92278687D01*
X86032758Y-92230024D01*
X85884924Y-92151005D01*
X85884922Y-92151004D01*
X85755341Y-92044659D01*
X85648996Y-91915078D01*
X85619022Y-91859000D01*
X85569976Y-91767242D01*
X85521313Y-91606823D01*
X85504883Y-91440000D01*
X85521313Y-91273177D01*
X85569976Y-91112758D01*
X85648995Y-90964924D01*
X85648996Y-90964922D01*
X85755341Y-90835341D01*
X85884922Y-90728996D01*
X85965656Y-90685843D01*
X86032758Y-90649976D01*
X86193177Y-90601313D01*
X86318196Y-90589000D01*
X86401804Y-90589000D01*
X86526823Y-90601313D01*
X86526823Y-90601313D01*
G37*
G36*
X73826823Y-90601313D02*
G01*
X73987242Y-90649976D01*
X74054344Y-90685843D01*
X74135078Y-90728996D01*
X74264659Y-90835341D01*
X74371004Y-90964922D01*
X74371005Y-90964924D01*
X74450024Y-91112758D01*
X74498687Y-91273177D01*
X74515117Y-91440000D01*
X74498687Y-91606823D01*
X74450024Y-91767242D01*
X74400978Y-91859000D01*
X74371004Y-91915078D01*
X74264659Y-92044659D01*
X74135078Y-92151004D01*
X74135076Y-92151005D01*
X73987242Y-92230024D01*
X73826823Y-92278687D01*
X73701804Y-92291000D01*
X73618196Y-92291000D01*
X73493177Y-92278687D01*
X73332758Y-92230024D01*
X73184924Y-92151005D01*
X73184922Y-92151004D01*
X73055341Y-92044659D01*
X72948996Y-91915078D01*
X72919022Y-91859000D01*
X72869976Y-91767242D01*
X72821313Y-91606823D01*
X72804883Y-91440000D01*
X72821313Y-91273177D01*
X72869976Y-91112758D01*
X72948995Y-90964924D01*
X72948996Y-90964922D01*
X73055341Y-90835341D01*
X73184922Y-90728996D01*
X73265656Y-90685843D01*
X73332758Y-90649976D01*
X73493177Y-90601313D01*
X73618196Y-90589000D01*
X73701804Y-90589000D01*
X73826823Y-90601313D01*
X73826823Y-90601313D01*
G37*
G36*
X58668228Y-89391703D02*
G01*
X58823100Y-89455853D01*
X58962481Y-89548985D01*
X59081015Y-89667519D01*
X59174147Y-89806900D01*
X59238297Y-89961772D01*
X59271000Y-90126184D01*
X59271000Y-90293816D01*
X59238297Y-90458228D01*
X59174147Y-90613100D01*
X59081015Y-90752481D01*
X58962481Y-90871015D01*
X58823100Y-90964147D01*
X58668228Y-91028297D01*
X58503816Y-91061000D01*
X58336184Y-91061000D01*
X58171772Y-91028297D01*
X58016900Y-90964147D01*
X57877519Y-90871015D01*
X57758985Y-90752481D01*
X57665853Y-90613100D01*
X57601703Y-90458228D01*
X57569000Y-90293816D01*
X57569000Y-90126184D01*
X57601703Y-89961772D01*
X57665853Y-89806900D01*
X57758985Y-89667519D01*
X57877519Y-89548985D01*
X58016900Y-89455853D01*
X58171772Y-89391703D01*
X58336184Y-89359000D01*
X58503816Y-89359000D01*
X58668228Y-89391703D01*
X58668228Y-89391703D01*
G37*
G36*
X66288228Y-89391703D02*
G01*
X66443100Y-89455853D01*
X66582481Y-89548985D01*
X66701015Y-89667519D01*
X66794147Y-89806900D01*
X66858297Y-89961772D01*
X66891000Y-90126184D01*
X66891000Y-90293816D01*
X66858297Y-90458228D01*
X66794147Y-90613100D01*
X66701015Y-90752481D01*
X66582481Y-90871015D01*
X66443100Y-90964147D01*
X66288228Y-91028297D01*
X66123816Y-91061000D01*
X65956184Y-91061000D01*
X65791772Y-91028297D01*
X65636900Y-90964147D01*
X65497519Y-90871015D01*
X65378985Y-90752481D01*
X65285853Y-90613100D01*
X65221703Y-90458228D01*
X65189000Y-90293816D01*
X65189000Y-90126184D01*
X65221703Y-89961772D01*
X65285853Y-89806900D01*
X65378985Y-89667519D01*
X65497519Y-89548985D01*
X65636900Y-89455853D01*
X65791772Y-89391703D01*
X65956184Y-89359000D01*
X66123816Y-89359000D01*
X66288228Y-89391703D01*
X66288228Y-89391703D01*
G37*
G36*
X53411213Y-89447502D02*
G01*
X53482321Y-89454505D01*
X53619172Y-89496019D01*
X53619175Y-89496020D01*
X53745294Y-89563432D01*
X53855843Y-89654157D01*
X53946568Y-89764706D01*
X54013980Y-89890825D01*
X54013981Y-89890828D01*
X54055495Y-90027679D01*
X54069512Y-90170000D01*
X54055495Y-90312321D01*
X54013981Y-90449172D01*
X54013980Y-90449175D01*
X53946568Y-90575294D01*
X53855843Y-90685843D01*
X53745294Y-90776568D01*
X53619175Y-90843980D01*
X53619172Y-90843981D01*
X53482321Y-90885495D01*
X53411213Y-90892498D01*
X53375660Y-90896000D01*
X53304340Y-90896000D01*
X53268787Y-90892498D01*
X53197679Y-90885495D01*
X53060828Y-90843981D01*
X53060825Y-90843980D01*
X52934706Y-90776568D01*
X52824157Y-90685843D01*
X52733432Y-90575294D01*
X52666020Y-90449175D01*
X52666019Y-90449172D01*
X52624505Y-90312321D01*
X52610488Y-90170000D01*
X52624505Y-90027679D01*
X52666019Y-89890828D01*
X52666020Y-89890825D01*
X52733432Y-89764706D01*
X52824157Y-89654157D01*
X52934706Y-89563432D01*
X53060825Y-89496020D01*
X53060828Y-89496019D01*
X53197679Y-89454505D01*
X53268787Y-89447502D01*
X53304340Y-89444000D01*
X53375660Y-89444000D01*
X53411213Y-89447502D01*
X53411213Y-89447502D01*
G37*
G36*
X53411213Y-87447502D02*
G01*
X53482321Y-87454505D01*
X53619172Y-87496019D01*
X53619175Y-87496020D01*
X53745294Y-87563432D01*
X53855843Y-87654157D01*
X53946568Y-87764706D01*
X54013980Y-87890825D01*
X54013981Y-87890828D01*
X54055495Y-88027679D01*
X54069512Y-88170000D01*
X54055495Y-88312321D01*
X54022823Y-88420024D01*
X54013980Y-88449175D01*
X53946568Y-88575294D01*
X53855843Y-88685843D01*
X53745294Y-88776568D01*
X53619175Y-88843980D01*
X53619172Y-88843981D01*
X53482321Y-88885495D01*
X53411213Y-88892498D01*
X53375660Y-88896000D01*
X53304340Y-88896000D01*
X53268787Y-88892498D01*
X53197679Y-88885495D01*
X53060828Y-88843981D01*
X53060825Y-88843980D01*
X52934706Y-88776568D01*
X52824157Y-88685843D01*
X52733432Y-88575294D01*
X52666020Y-88449175D01*
X52657177Y-88420024D01*
X52624505Y-88312321D01*
X52610488Y-88170000D01*
X52624505Y-88027679D01*
X52666019Y-87890828D01*
X52666020Y-87890825D01*
X52733432Y-87764706D01*
X52824157Y-87654157D01*
X52934706Y-87563432D01*
X53060825Y-87496020D01*
X53060828Y-87496019D01*
X53197679Y-87454505D01*
X53268787Y-87447502D01*
X53304340Y-87444000D01*
X53375660Y-87444000D01*
X53411213Y-87447502D01*
X53411213Y-87447502D01*
G37*
G36*
X86526823Y-86791313D02*
G01*
X86687242Y-86839976D01*
X86819906Y-86910886D01*
X86835078Y-86918996D01*
X86964659Y-87025341D01*
X87071004Y-87154922D01*
X87071005Y-87154924D01*
X87150024Y-87302758D01*
X87198687Y-87463177D01*
X87215117Y-87630000D01*
X87198687Y-87796823D01*
X87150024Y-87957242D01*
X87079114Y-88089906D01*
X87071004Y-88105078D01*
X86964659Y-88234659D01*
X86835078Y-88341004D01*
X86835076Y-88341005D01*
X86687242Y-88420024D01*
X86526823Y-88468687D01*
X86401804Y-88481000D01*
X86318196Y-88481000D01*
X86193177Y-88468687D01*
X86032758Y-88420024D01*
X85884924Y-88341005D01*
X85884922Y-88341004D01*
X85755341Y-88234659D01*
X85648996Y-88105078D01*
X85640886Y-88089906D01*
X85569976Y-87957242D01*
X85521313Y-87796823D01*
X85504883Y-87630000D01*
X85521313Y-87463177D01*
X85569976Y-87302758D01*
X85648995Y-87154924D01*
X85648996Y-87154922D01*
X85755341Y-87025341D01*
X85884922Y-86918996D01*
X85900094Y-86910886D01*
X86032758Y-86839976D01*
X86193177Y-86791313D01*
X86318196Y-86779000D01*
X86401804Y-86779000D01*
X86526823Y-86791313D01*
X86526823Y-86791313D01*
G37*
G36*
X119946823Y-85521313D02*
G01*
X120107242Y-85569976D01*
X120174361Y-85605852D01*
X120255078Y-85648996D01*
X120384659Y-85755341D01*
X120491004Y-85884922D01*
X120491005Y-85884924D01*
X120570024Y-86032758D01*
X120618687Y-86193177D01*
X120635117Y-86360000D01*
X120618687Y-86526823D01*
X120570024Y-86687242D01*
X120529477Y-86763100D01*
X120491004Y-86835078D01*
X120384659Y-86964659D01*
X120255078Y-87071004D01*
X120255076Y-87071005D01*
X120107242Y-87150024D01*
X119946823Y-87198687D01*
X119821804Y-87211000D01*
X118938196Y-87211000D01*
X118813177Y-87198687D01*
X118652758Y-87150024D01*
X118504924Y-87071005D01*
X118504922Y-87071004D01*
X118375341Y-86964659D01*
X118268996Y-86835078D01*
X118230523Y-86763100D01*
X118189976Y-86687242D01*
X118141313Y-86526823D01*
X118124883Y-86360000D01*
X118141313Y-86193177D01*
X118189976Y-86032758D01*
X118268995Y-85884924D01*
X118268996Y-85884922D01*
X118375341Y-85755341D01*
X118504922Y-85648996D01*
X118585639Y-85605852D01*
X118652758Y-85569976D01*
X118813177Y-85521313D01*
X118938196Y-85509000D01*
X119821804Y-85509000D01*
X119946823Y-85521313D01*
X119946823Y-85521313D01*
G37*
G36*
X112326823Y-85521313D02*
G01*
X112487242Y-85569976D01*
X112554361Y-85605852D01*
X112635078Y-85648996D01*
X112764659Y-85755341D01*
X112871004Y-85884922D01*
X112871005Y-85884924D01*
X112950024Y-86032758D01*
X112998687Y-86193177D01*
X113015117Y-86360000D01*
X112998687Y-86526823D01*
X112950024Y-86687242D01*
X112909477Y-86763100D01*
X112871004Y-86835078D01*
X112764659Y-86964659D01*
X112635078Y-87071004D01*
X112635076Y-87071005D01*
X112487242Y-87150024D01*
X112326823Y-87198687D01*
X112201804Y-87211000D01*
X111318196Y-87211000D01*
X111193177Y-87198687D01*
X111032758Y-87150024D01*
X110884924Y-87071005D01*
X110884922Y-87071004D01*
X110755341Y-86964659D01*
X110648996Y-86835078D01*
X110610523Y-86763100D01*
X110569976Y-86687242D01*
X110521313Y-86526823D01*
X110504883Y-86360000D01*
X110521313Y-86193177D01*
X110569976Y-86032758D01*
X110648995Y-85884924D01*
X110648996Y-85884922D01*
X110755341Y-85755341D01*
X110884922Y-85648996D01*
X110965639Y-85605852D01*
X111032758Y-85569976D01*
X111193177Y-85521313D01*
X111318196Y-85509000D01*
X112201804Y-85509000D01*
X112326823Y-85521313D01*
X112326823Y-85521313D01*
G37*
G36*
X152966823Y-85521313D02*
G01*
X153127242Y-85569976D01*
X153194361Y-85605852D01*
X153275078Y-85648996D01*
X153404659Y-85755341D01*
X153511004Y-85884922D01*
X153511005Y-85884924D01*
X153590024Y-86032758D01*
X153638687Y-86193177D01*
X153655117Y-86360000D01*
X153638687Y-86526823D01*
X153590024Y-86687242D01*
X153549477Y-86763100D01*
X153511004Y-86835078D01*
X153404659Y-86964659D01*
X153275078Y-87071004D01*
X153275076Y-87071005D01*
X153127242Y-87150024D01*
X152966823Y-87198687D01*
X152841804Y-87211000D01*
X151958196Y-87211000D01*
X151833177Y-87198687D01*
X151672758Y-87150024D01*
X151524924Y-87071005D01*
X151524922Y-87071004D01*
X151395341Y-86964659D01*
X151288996Y-86835078D01*
X151250523Y-86763100D01*
X151209976Y-86687242D01*
X151161313Y-86526823D01*
X151144883Y-86360000D01*
X151161313Y-86193177D01*
X151209976Y-86032758D01*
X151288995Y-85884924D01*
X151288996Y-85884922D01*
X151395341Y-85755341D01*
X151524922Y-85648996D01*
X151605639Y-85605852D01*
X151672758Y-85569976D01*
X151833177Y-85521313D01*
X151958196Y-85509000D01*
X152841804Y-85509000D01*
X152966823Y-85521313D01*
X152966823Y-85521313D01*
G37*
G36*
X102166823Y-85521313D02*
G01*
X102327242Y-85569976D01*
X102394361Y-85605852D01*
X102475078Y-85648996D01*
X102604659Y-85755341D01*
X102711004Y-85884922D01*
X102711005Y-85884924D01*
X102790024Y-86032758D01*
X102838687Y-86193177D01*
X102855117Y-86360000D01*
X102838687Y-86526823D01*
X102790024Y-86687242D01*
X102749477Y-86763100D01*
X102711004Y-86835078D01*
X102604659Y-86964659D01*
X102475078Y-87071004D01*
X102475076Y-87071005D01*
X102327242Y-87150024D01*
X102166823Y-87198687D01*
X102041804Y-87211000D01*
X101158196Y-87211000D01*
X101033177Y-87198687D01*
X100872758Y-87150024D01*
X100724924Y-87071005D01*
X100724922Y-87071004D01*
X100595341Y-86964659D01*
X100488996Y-86835078D01*
X100450523Y-86763100D01*
X100409976Y-86687242D01*
X100361313Y-86526823D01*
X100344883Y-86360000D01*
X100361313Y-86193177D01*
X100409976Y-86032758D01*
X100488995Y-85884924D01*
X100488996Y-85884922D01*
X100595341Y-85755341D01*
X100724922Y-85648996D01*
X100805639Y-85605852D01*
X100872758Y-85569976D01*
X101033177Y-85521313D01*
X101158196Y-85509000D01*
X102041804Y-85509000D01*
X102166823Y-85521313D01*
X102166823Y-85521313D01*
G37*
G36*
X74226823Y-85521313D02*
G01*
X74387242Y-85569976D01*
X74454361Y-85605852D01*
X74535078Y-85648996D01*
X74664659Y-85755341D01*
X74771004Y-85884922D01*
X74771005Y-85884924D01*
X74850024Y-86032758D01*
X74898687Y-86193177D01*
X74915117Y-86360000D01*
X74898687Y-86526823D01*
X74850024Y-86687242D01*
X74809477Y-86763100D01*
X74771004Y-86835078D01*
X74664659Y-86964659D01*
X74535078Y-87071004D01*
X74535076Y-87071005D01*
X74387242Y-87150024D01*
X74226823Y-87198687D01*
X74101804Y-87211000D01*
X73218196Y-87211000D01*
X73093177Y-87198687D01*
X72932758Y-87150024D01*
X72784924Y-87071005D01*
X72784922Y-87071004D01*
X72655341Y-86964659D01*
X72548996Y-86835078D01*
X72510523Y-86763100D01*
X72469976Y-86687242D01*
X72421313Y-86526823D01*
X72404883Y-86360000D01*
X72421313Y-86193177D01*
X72469976Y-86032758D01*
X72548995Y-85884924D01*
X72548996Y-85884922D01*
X72655341Y-85755341D01*
X72784922Y-85648996D01*
X72865639Y-85605852D01*
X72932758Y-85569976D01*
X73093177Y-85521313D01*
X73218196Y-85509000D01*
X74101804Y-85509000D01*
X74226823Y-85521313D01*
X74226823Y-85521313D01*
G37*
G36*
X94546823Y-85521313D02*
G01*
X94707242Y-85569976D01*
X94774361Y-85605852D01*
X94855078Y-85648996D01*
X94984659Y-85755341D01*
X95091004Y-85884922D01*
X95091005Y-85884924D01*
X95170024Y-86032758D01*
X95218687Y-86193177D01*
X95235117Y-86360000D01*
X95218687Y-86526823D01*
X95170024Y-86687242D01*
X95129477Y-86763100D01*
X95091004Y-86835078D01*
X94984659Y-86964659D01*
X94855078Y-87071004D01*
X94855076Y-87071005D01*
X94707242Y-87150024D01*
X94546823Y-87198687D01*
X94421804Y-87211000D01*
X93538196Y-87211000D01*
X93413177Y-87198687D01*
X93252758Y-87150024D01*
X93104924Y-87071005D01*
X93104922Y-87071004D01*
X92975341Y-86964659D01*
X92868996Y-86835078D01*
X92830523Y-86763100D01*
X92789976Y-86687242D01*
X92741313Y-86526823D01*
X92724883Y-86360000D01*
X92741313Y-86193177D01*
X92789976Y-86032758D01*
X92868995Y-85884924D01*
X92868996Y-85884922D01*
X92975341Y-85755341D01*
X93104922Y-85648996D01*
X93185639Y-85605852D01*
X93252758Y-85569976D01*
X93413177Y-85521313D01*
X93538196Y-85509000D01*
X94421804Y-85509000D01*
X94546823Y-85521313D01*
X94546823Y-85521313D01*
G37*
G36*
X145346823Y-85521313D02*
G01*
X145507242Y-85569976D01*
X145574361Y-85605852D01*
X145655078Y-85648996D01*
X145784659Y-85755341D01*
X145891004Y-85884922D01*
X145891005Y-85884924D01*
X145970024Y-86032758D01*
X146018687Y-86193177D01*
X146035117Y-86360000D01*
X146018687Y-86526823D01*
X145970024Y-86687242D01*
X145929477Y-86763100D01*
X145891004Y-86835078D01*
X145784659Y-86964659D01*
X145655078Y-87071004D01*
X145655076Y-87071005D01*
X145507242Y-87150024D01*
X145346823Y-87198687D01*
X145221804Y-87211000D01*
X144338196Y-87211000D01*
X144213177Y-87198687D01*
X144052758Y-87150024D01*
X143904924Y-87071005D01*
X143904922Y-87071004D01*
X143775341Y-86964659D01*
X143668996Y-86835078D01*
X143630523Y-86763100D01*
X143589976Y-86687242D01*
X143541313Y-86526823D01*
X143524883Y-86360000D01*
X143541313Y-86193177D01*
X143589976Y-86032758D01*
X143668995Y-85884924D01*
X143668996Y-85884922D01*
X143775341Y-85755341D01*
X143904922Y-85648996D01*
X143985639Y-85605852D01*
X144052758Y-85569976D01*
X144213177Y-85521313D01*
X144338196Y-85509000D01*
X145221804Y-85509000D01*
X145346823Y-85521313D01*
X145346823Y-85521313D01*
G37*
G36*
X138678228Y-85541703D02*
G01*
X138833100Y-85605853D01*
X138972481Y-85698985D01*
X139091015Y-85817519D01*
X139184147Y-85956900D01*
X139248297Y-86111772D01*
X139281000Y-86276184D01*
X139281000Y-86443816D01*
X139248297Y-86608228D01*
X139184147Y-86763100D01*
X139091015Y-86902481D01*
X138972481Y-87021015D01*
X138833100Y-87114147D01*
X138678228Y-87178297D01*
X138513816Y-87211000D01*
X138346184Y-87211000D01*
X138181772Y-87178297D01*
X138026900Y-87114147D01*
X137887519Y-87021015D01*
X137768985Y-86902481D01*
X137675853Y-86763100D01*
X137611703Y-86608228D01*
X137579000Y-86443816D01*
X137579000Y-86276184D01*
X137611703Y-86111772D01*
X137675853Y-85956900D01*
X137768985Y-85817519D01*
X137887519Y-85698985D01*
X138026900Y-85605853D01*
X138181772Y-85541703D01*
X138346184Y-85509000D01*
X138513816Y-85509000D01*
X138678228Y-85541703D01*
X138678228Y-85541703D01*
G37*
G36*
X133516823Y-85521313D02*
G01*
X133677242Y-85569976D01*
X133744361Y-85605852D01*
X133825078Y-85648996D01*
X133954659Y-85755341D01*
X134061004Y-85884922D01*
X134061005Y-85884924D01*
X134140024Y-86032758D01*
X134188687Y-86193177D01*
X134205117Y-86360000D01*
X134188687Y-86526823D01*
X134140024Y-86687242D01*
X134099477Y-86763100D01*
X134061004Y-86835078D01*
X133954659Y-86964659D01*
X133825078Y-87071004D01*
X133825076Y-87071005D01*
X133677242Y-87150024D01*
X133516823Y-87198687D01*
X133391804Y-87211000D01*
X133308196Y-87211000D01*
X133183177Y-87198687D01*
X133022758Y-87150024D01*
X132874924Y-87071005D01*
X132874922Y-87071004D01*
X132745341Y-86964659D01*
X132638996Y-86835078D01*
X132600523Y-86763100D01*
X132559976Y-86687242D01*
X132511313Y-86526823D01*
X132494883Y-86360000D01*
X132511313Y-86193177D01*
X132559976Y-86032758D01*
X132638995Y-85884924D01*
X132638996Y-85884922D01*
X132745341Y-85755341D01*
X132874922Y-85648996D01*
X132955639Y-85605852D01*
X133022758Y-85569976D01*
X133183177Y-85521313D01*
X133308196Y-85509000D01*
X133391804Y-85509000D01*
X133516823Y-85521313D01*
X133516823Y-85521313D01*
G37*
G36*
X127166823Y-85521313D02*
G01*
X127327242Y-85569976D01*
X127394361Y-85605852D01*
X127475078Y-85648996D01*
X127604659Y-85755341D01*
X127711004Y-85884922D01*
X127711005Y-85884924D01*
X127790024Y-86032758D01*
X127838687Y-86193177D01*
X127855117Y-86360000D01*
X127838687Y-86526823D01*
X127790024Y-86687242D01*
X127749477Y-86763100D01*
X127711004Y-86835078D01*
X127604659Y-86964659D01*
X127475078Y-87071004D01*
X127475076Y-87071005D01*
X127327242Y-87150024D01*
X127166823Y-87198687D01*
X127041804Y-87211000D01*
X126958196Y-87211000D01*
X126833177Y-87198687D01*
X126672758Y-87150024D01*
X126524924Y-87071005D01*
X126524922Y-87071004D01*
X126395341Y-86964659D01*
X126288996Y-86835078D01*
X126250523Y-86763100D01*
X126209976Y-86687242D01*
X126161313Y-86526823D01*
X126144883Y-86360000D01*
X126161313Y-86193177D01*
X126209976Y-86032758D01*
X126288995Y-85884924D01*
X126288996Y-85884922D01*
X126395341Y-85755341D01*
X126524922Y-85648996D01*
X126605639Y-85605852D01*
X126672758Y-85569976D01*
X126833177Y-85521313D01*
X126958196Y-85509000D01*
X127041804Y-85509000D01*
X127166823Y-85521313D01*
X127166823Y-85521313D01*
G37*
G36*
X81846823Y-85521313D02*
G01*
X82007242Y-85569976D01*
X82074361Y-85605852D01*
X82155078Y-85648996D01*
X82284659Y-85755341D01*
X82391004Y-85884922D01*
X82391005Y-85884924D01*
X82470024Y-86032758D01*
X82518687Y-86193177D01*
X82535117Y-86360000D01*
X82518687Y-86526823D01*
X82470024Y-86687242D01*
X82429477Y-86763100D01*
X82391004Y-86835078D01*
X82284659Y-86964659D01*
X82155078Y-87071004D01*
X82155076Y-87071005D01*
X82007242Y-87150024D01*
X81846823Y-87198687D01*
X81721804Y-87211000D01*
X80838196Y-87211000D01*
X80713177Y-87198687D01*
X80552758Y-87150024D01*
X80404924Y-87071005D01*
X80404922Y-87071004D01*
X80275341Y-86964659D01*
X80168996Y-86835078D01*
X80130523Y-86763100D01*
X80089976Y-86687242D01*
X80041313Y-86526823D01*
X80024883Y-86360000D01*
X80041313Y-86193177D01*
X80089976Y-86032758D01*
X80168995Y-85884924D01*
X80168996Y-85884922D01*
X80275341Y-85755341D01*
X80404922Y-85648996D01*
X80485639Y-85605852D01*
X80552758Y-85569976D01*
X80713177Y-85521313D01*
X80838196Y-85509000D01*
X81721804Y-85509000D01*
X81846823Y-85521313D01*
X81846823Y-85521313D01*
G37*
G36*
X68828228Y-85541703D02*
G01*
X68983100Y-85605853D01*
X69122481Y-85698985D01*
X69241015Y-85817519D01*
X69334147Y-85956900D01*
X69398297Y-86111772D01*
X69431000Y-86276184D01*
X69431000Y-86443816D01*
X69398297Y-86608228D01*
X69334147Y-86763100D01*
X69241015Y-86902481D01*
X69122481Y-87021015D01*
X68983100Y-87114147D01*
X68828228Y-87178297D01*
X68663816Y-87211000D01*
X68496184Y-87211000D01*
X68331772Y-87178297D01*
X68176900Y-87114147D01*
X68037519Y-87021015D01*
X67918985Y-86902481D01*
X67825853Y-86763100D01*
X67761703Y-86608228D01*
X67729000Y-86443816D01*
X67729000Y-86276184D01*
X67761703Y-86111772D01*
X67825853Y-85956900D01*
X67918985Y-85817519D01*
X68037519Y-85698985D01*
X68176900Y-85605853D01*
X68331772Y-85541703D01*
X68496184Y-85509000D01*
X68663816Y-85509000D01*
X68828228Y-85541703D01*
X68828228Y-85541703D01*
G37*
G36*
X57316823Y-85521313D02*
G01*
X57477242Y-85569976D01*
X57544361Y-85605852D01*
X57625078Y-85648996D01*
X57754659Y-85755341D01*
X57861004Y-85884922D01*
X57861005Y-85884924D01*
X57940024Y-86032758D01*
X57988687Y-86193177D01*
X58005117Y-86360000D01*
X57988687Y-86526823D01*
X57940024Y-86687242D01*
X57899477Y-86763100D01*
X57861004Y-86835078D01*
X57754659Y-86964659D01*
X57625078Y-87071004D01*
X57625076Y-87071005D01*
X57477242Y-87150024D01*
X57316823Y-87198687D01*
X57191804Y-87211000D01*
X57108196Y-87211000D01*
X56983177Y-87198687D01*
X56822758Y-87150024D01*
X56674924Y-87071005D01*
X56674922Y-87071004D01*
X56545341Y-86964659D01*
X56438996Y-86835078D01*
X56400523Y-86763100D01*
X56359976Y-86687242D01*
X56311313Y-86526823D01*
X56294883Y-86360000D01*
X56311313Y-86193177D01*
X56359976Y-86032758D01*
X56438995Y-85884924D01*
X56438996Y-85884922D01*
X56545341Y-85755341D01*
X56674922Y-85648996D01*
X56755639Y-85605852D01*
X56822758Y-85569976D01*
X56983177Y-85521313D01*
X57108196Y-85509000D01*
X57191804Y-85509000D01*
X57316823Y-85521313D01*
X57316823Y-85521313D01*
G37*
G36*
X65018228Y-85541703D02*
G01*
X65173100Y-85605853D01*
X65312481Y-85698985D01*
X65431015Y-85817519D01*
X65524147Y-85956900D01*
X65588297Y-86111772D01*
X65621000Y-86276184D01*
X65621000Y-86443816D01*
X65588297Y-86608228D01*
X65524147Y-86763100D01*
X65431015Y-86902481D01*
X65312481Y-87021015D01*
X65173100Y-87114147D01*
X65018228Y-87178297D01*
X64853816Y-87211000D01*
X64686184Y-87211000D01*
X64521772Y-87178297D01*
X64366900Y-87114147D01*
X64227519Y-87021015D01*
X64108985Y-86902481D01*
X64015853Y-86763100D01*
X63951703Y-86608228D01*
X63919000Y-86443816D01*
X63919000Y-86276184D01*
X63951703Y-86111772D01*
X64015853Y-85956900D01*
X64108985Y-85817519D01*
X64227519Y-85698985D01*
X64366900Y-85605853D01*
X64521772Y-85541703D01*
X64686184Y-85509000D01*
X64853816Y-85509000D01*
X65018228Y-85541703D01*
X65018228Y-85541703D01*
G37*
G36*
X54066000Y-86896000D02*
G01*
X52614000Y-86896000D01*
X52614000Y-85444000D01*
X54066000Y-85444000D01*
X54066000Y-86896000D01*
X54066000Y-86896000D01*
G37*
G36*
X162141000Y-85941000D02*
G01*
X160439000Y-85941000D01*
X160439000Y-84239000D01*
X162141000Y-84239000D01*
X162141000Y-85941000D01*
X162141000Y-85941000D01*
G37*
G36*
X81846823Y-82981313D02*
G01*
X82007242Y-83029976D01*
X82139906Y-83100886D01*
X82155078Y-83108996D01*
X82284659Y-83215341D01*
X82391004Y-83344922D01*
X82391005Y-83344924D01*
X82470024Y-83492758D01*
X82518687Y-83653177D01*
X82535117Y-83820000D01*
X82518687Y-83986823D01*
X82470024Y-84147242D01*
X82420978Y-84239000D01*
X82391004Y-84295078D01*
X82284659Y-84424659D01*
X82155078Y-84531004D01*
X82155076Y-84531005D01*
X82007242Y-84610024D01*
X81846823Y-84658687D01*
X81721804Y-84671000D01*
X80838196Y-84671000D01*
X80713177Y-84658687D01*
X80552758Y-84610024D01*
X80404924Y-84531005D01*
X80404922Y-84531004D01*
X80275341Y-84424659D01*
X80168996Y-84295078D01*
X80139022Y-84239000D01*
X80089976Y-84147242D01*
X80041313Y-83986823D01*
X80024883Y-83820000D01*
X80041313Y-83653177D01*
X80089976Y-83492758D01*
X80168995Y-83344924D01*
X80168996Y-83344922D01*
X80275341Y-83215341D01*
X80404922Y-83108996D01*
X80420094Y-83100886D01*
X80552758Y-83029976D01*
X80713177Y-82981313D01*
X80838196Y-82969000D01*
X81721804Y-82969000D01*
X81846823Y-82981313D01*
X81846823Y-82981313D01*
G37*
G36*
X102166823Y-82981313D02*
G01*
X102327242Y-83029976D01*
X102459906Y-83100886D01*
X102475078Y-83108996D01*
X102604659Y-83215341D01*
X102711004Y-83344922D01*
X102711005Y-83344924D01*
X102790024Y-83492758D01*
X102838687Y-83653177D01*
X102855117Y-83820000D01*
X102838687Y-83986823D01*
X102790024Y-84147242D01*
X102740978Y-84239000D01*
X102711004Y-84295078D01*
X102604659Y-84424659D01*
X102475078Y-84531004D01*
X102475076Y-84531005D01*
X102327242Y-84610024D01*
X102166823Y-84658687D01*
X102041804Y-84671000D01*
X101158196Y-84671000D01*
X101033177Y-84658687D01*
X100872758Y-84610024D01*
X100724924Y-84531005D01*
X100724922Y-84531004D01*
X100595341Y-84424659D01*
X100488996Y-84295078D01*
X100459022Y-84239000D01*
X100409976Y-84147242D01*
X100361313Y-83986823D01*
X100344883Y-83820000D01*
X100361313Y-83653177D01*
X100409976Y-83492758D01*
X100488995Y-83344924D01*
X100488996Y-83344922D01*
X100595341Y-83215341D01*
X100724922Y-83108996D01*
X100740094Y-83100886D01*
X100872758Y-83029976D01*
X101033177Y-82981313D01*
X101158196Y-82969000D01*
X102041804Y-82969000D01*
X102166823Y-82981313D01*
X102166823Y-82981313D01*
G37*
G36*
X94546823Y-82981313D02*
G01*
X94707242Y-83029976D01*
X94839906Y-83100886D01*
X94855078Y-83108996D01*
X94984659Y-83215341D01*
X95091004Y-83344922D01*
X95091005Y-83344924D01*
X95170024Y-83492758D01*
X95218687Y-83653177D01*
X95235117Y-83820000D01*
X95218687Y-83986823D01*
X95170024Y-84147242D01*
X95120978Y-84239000D01*
X95091004Y-84295078D01*
X94984659Y-84424659D01*
X94855078Y-84531004D01*
X94855076Y-84531005D01*
X94707242Y-84610024D01*
X94546823Y-84658687D01*
X94421804Y-84671000D01*
X93538196Y-84671000D01*
X93413177Y-84658687D01*
X93252758Y-84610024D01*
X93104924Y-84531005D01*
X93104922Y-84531004D01*
X92975341Y-84424659D01*
X92868996Y-84295078D01*
X92839022Y-84239000D01*
X92789976Y-84147242D01*
X92741313Y-83986823D01*
X92724883Y-83820000D01*
X92741313Y-83653177D01*
X92789976Y-83492758D01*
X92868995Y-83344924D01*
X92868996Y-83344922D01*
X92975341Y-83215341D01*
X93104922Y-83108996D01*
X93120094Y-83100886D01*
X93252758Y-83029976D01*
X93413177Y-82981313D01*
X93538196Y-82969000D01*
X94421804Y-82969000D01*
X94546823Y-82981313D01*
X94546823Y-82981313D01*
G37*
G36*
X74226823Y-82981313D02*
G01*
X74387242Y-83029976D01*
X74519906Y-83100886D01*
X74535078Y-83108996D01*
X74664659Y-83215341D01*
X74771004Y-83344922D01*
X74771005Y-83344924D01*
X74850024Y-83492758D01*
X74898687Y-83653177D01*
X74915117Y-83820000D01*
X74898687Y-83986823D01*
X74850024Y-84147242D01*
X74800978Y-84239000D01*
X74771004Y-84295078D01*
X74664659Y-84424659D01*
X74535078Y-84531004D01*
X74535076Y-84531005D01*
X74387242Y-84610024D01*
X74226823Y-84658687D01*
X74101804Y-84671000D01*
X73218196Y-84671000D01*
X73093177Y-84658687D01*
X72932758Y-84610024D01*
X72784924Y-84531005D01*
X72784922Y-84531004D01*
X72655341Y-84424659D01*
X72548996Y-84295078D01*
X72519022Y-84239000D01*
X72469976Y-84147242D01*
X72421313Y-83986823D01*
X72404883Y-83820000D01*
X72421313Y-83653177D01*
X72469976Y-83492758D01*
X72548995Y-83344924D01*
X72548996Y-83344922D01*
X72655341Y-83215341D01*
X72784922Y-83108996D01*
X72800094Y-83100886D01*
X72932758Y-83029976D01*
X73093177Y-82981313D01*
X73218196Y-82969000D01*
X74101804Y-82969000D01*
X74226823Y-82981313D01*
X74226823Y-82981313D01*
G37*
G36*
X152966823Y-82981313D02*
G01*
X153127242Y-83029976D01*
X153259906Y-83100886D01*
X153275078Y-83108996D01*
X153404659Y-83215341D01*
X153511004Y-83344922D01*
X153511005Y-83344924D01*
X153590024Y-83492758D01*
X153638687Y-83653177D01*
X153655117Y-83820000D01*
X153638687Y-83986823D01*
X153590024Y-84147242D01*
X153540978Y-84239000D01*
X153511004Y-84295078D01*
X153404659Y-84424659D01*
X153275078Y-84531004D01*
X153275076Y-84531005D01*
X153127242Y-84610024D01*
X152966823Y-84658687D01*
X152841804Y-84671000D01*
X151958196Y-84671000D01*
X151833177Y-84658687D01*
X151672758Y-84610024D01*
X151524924Y-84531005D01*
X151524922Y-84531004D01*
X151395341Y-84424659D01*
X151288996Y-84295078D01*
X151259022Y-84239000D01*
X151209976Y-84147242D01*
X151161313Y-83986823D01*
X151144883Y-83820000D01*
X151161313Y-83653177D01*
X151209976Y-83492758D01*
X151288995Y-83344924D01*
X151288996Y-83344922D01*
X151395341Y-83215341D01*
X151524922Y-83108996D01*
X151540094Y-83100886D01*
X151672758Y-83029976D01*
X151833177Y-82981313D01*
X151958196Y-82969000D01*
X152841804Y-82969000D01*
X152966823Y-82981313D01*
X152966823Y-82981313D01*
G37*
G36*
X145346823Y-82981313D02*
G01*
X145507242Y-83029976D01*
X145639906Y-83100886D01*
X145655078Y-83108996D01*
X145784659Y-83215341D01*
X145891004Y-83344922D01*
X145891005Y-83344924D01*
X145970024Y-83492758D01*
X146018687Y-83653177D01*
X146035117Y-83820000D01*
X146018687Y-83986823D01*
X145970024Y-84147242D01*
X145920978Y-84239000D01*
X145891004Y-84295078D01*
X145784659Y-84424659D01*
X145655078Y-84531004D01*
X145655076Y-84531005D01*
X145507242Y-84610024D01*
X145346823Y-84658687D01*
X145221804Y-84671000D01*
X144338196Y-84671000D01*
X144213177Y-84658687D01*
X144052758Y-84610024D01*
X143904924Y-84531005D01*
X143904922Y-84531004D01*
X143775341Y-84424659D01*
X143668996Y-84295078D01*
X143639022Y-84239000D01*
X143589976Y-84147242D01*
X143541313Y-83986823D01*
X143524883Y-83820000D01*
X143541313Y-83653177D01*
X143589976Y-83492758D01*
X143668995Y-83344924D01*
X143668996Y-83344922D01*
X143775341Y-83215341D01*
X143904922Y-83108996D01*
X143920094Y-83100886D01*
X144052758Y-83029976D01*
X144213177Y-82981313D01*
X144338196Y-82969000D01*
X145221804Y-82969000D01*
X145346823Y-82981313D01*
X145346823Y-82981313D01*
G37*
G36*
X119946823Y-82981313D02*
G01*
X120107242Y-83029976D01*
X120239906Y-83100886D01*
X120255078Y-83108996D01*
X120384659Y-83215341D01*
X120491004Y-83344922D01*
X120491005Y-83344924D01*
X120570024Y-83492758D01*
X120618687Y-83653177D01*
X120635117Y-83820000D01*
X120618687Y-83986823D01*
X120570024Y-84147242D01*
X120520978Y-84239000D01*
X120491004Y-84295078D01*
X120384659Y-84424659D01*
X120255078Y-84531004D01*
X120255076Y-84531005D01*
X120107242Y-84610024D01*
X119946823Y-84658687D01*
X119821804Y-84671000D01*
X118938196Y-84671000D01*
X118813177Y-84658687D01*
X118652758Y-84610024D01*
X118504924Y-84531005D01*
X118504922Y-84531004D01*
X118375341Y-84424659D01*
X118268996Y-84295078D01*
X118239022Y-84239000D01*
X118189976Y-84147242D01*
X118141313Y-83986823D01*
X118124883Y-83820000D01*
X118141313Y-83653177D01*
X118189976Y-83492758D01*
X118268995Y-83344924D01*
X118268996Y-83344922D01*
X118375341Y-83215341D01*
X118504922Y-83108996D01*
X118520094Y-83100886D01*
X118652758Y-83029976D01*
X118813177Y-82981313D01*
X118938196Y-82969000D01*
X119821804Y-82969000D01*
X119946823Y-82981313D01*
X119946823Y-82981313D01*
G37*
G36*
X112326823Y-82981313D02*
G01*
X112487242Y-83029976D01*
X112619906Y-83100886D01*
X112635078Y-83108996D01*
X112764659Y-83215341D01*
X112871004Y-83344922D01*
X112871005Y-83344924D01*
X112950024Y-83492758D01*
X112998687Y-83653177D01*
X113015117Y-83820000D01*
X112998687Y-83986823D01*
X112950024Y-84147242D01*
X112900978Y-84239000D01*
X112871004Y-84295078D01*
X112764659Y-84424659D01*
X112635078Y-84531004D01*
X112635076Y-84531005D01*
X112487242Y-84610024D01*
X112326823Y-84658687D01*
X112201804Y-84671000D01*
X111318196Y-84671000D01*
X111193177Y-84658687D01*
X111032758Y-84610024D01*
X110884924Y-84531005D01*
X110884922Y-84531004D01*
X110755341Y-84424659D01*
X110648996Y-84295078D01*
X110619022Y-84239000D01*
X110569976Y-84147242D01*
X110521313Y-83986823D01*
X110504883Y-83820000D01*
X110521313Y-83653177D01*
X110569976Y-83492758D01*
X110648995Y-83344924D01*
X110648996Y-83344922D01*
X110755341Y-83215341D01*
X110884922Y-83108996D01*
X110900094Y-83100886D01*
X111032758Y-83029976D01*
X111193177Y-82981313D01*
X111318196Y-82969000D01*
X112201804Y-82969000D01*
X112326823Y-82981313D01*
X112326823Y-82981313D01*
G37*
G36*
X152966823Y-80441313D02*
G01*
X153127242Y-80489976D01*
X153259906Y-80560886D01*
X153275078Y-80568996D01*
X153404659Y-80675341D01*
X153511004Y-80804922D01*
X153511005Y-80804924D01*
X153590024Y-80952758D01*
X153638687Y-81113177D01*
X153655117Y-81280000D01*
X153638687Y-81446823D01*
X153590024Y-81607242D01*
X153519114Y-81739906D01*
X153511004Y-81755078D01*
X153404659Y-81884659D01*
X153275078Y-81991004D01*
X153275076Y-81991005D01*
X153127242Y-82070024D01*
X152966823Y-82118687D01*
X152841804Y-82131000D01*
X151958196Y-82131000D01*
X151833177Y-82118687D01*
X151672758Y-82070024D01*
X151524924Y-81991005D01*
X151524922Y-81991004D01*
X151395341Y-81884659D01*
X151288996Y-81755078D01*
X151280886Y-81739906D01*
X151209976Y-81607242D01*
X151161313Y-81446823D01*
X151144883Y-81280000D01*
X151161313Y-81113177D01*
X151209976Y-80952758D01*
X151288995Y-80804924D01*
X151288996Y-80804922D01*
X151395341Y-80675341D01*
X151524922Y-80568996D01*
X151540094Y-80560886D01*
X151672758Y-80489976D01*
X151833177Y-80441313D01*
X151958196Y-80429000D01*
X152841804Y-80429000D01*
X152966823Y-80441313D01*
X152966823Y-80441313D01*
G37*
G36*
X145346823Y-80441313D02*
G01*
X145507242Y-80489976D01*
X145639906Y-80560886D01*
X145655078Y-80568996D01*
X145784659Y-80675341D01*
X145891004Y-80804922D01*
X145891005Y-80804924D01*
X145970024Y-80952758D01*
X146018687Y-81113177D01*
X146035117Y-81280000D01*
X146018687Y-81446823D01*
X145970024Y-81607242D01*
X145899114Y-81739906D01*
X145891004Y-81755078D01*
X145784659Y-81884659D01*
X145655078Y-81991004D01*
X145655076Y-81991005D01*
X145507242Y-82070024D01*
X145346823Y-82118687D01*
X145221804Y-82131000D01*
X144338196Y-82131000D01*
X144213177Y-82118687D01*
X144052758Y-82070024D01*
X143904924Y-81991005D01*
X143904922Y-81991004D01*
X143775341Y-81884659D01*
X143668996Y-81755078D01*
X143660886Y-81739906D01*
X143589976Y-81607242D01*
X143541313Y-81446823D01*
X143524883Y-81280000D01*
X143541313Y-81113177D01*
X143589976Y-80952758D01*
X143668995Y-80804924D01*
X143668996Y-80804922D01*
X143775341Y-80675341D01*
X143904922Y-80568996D01*
X143920094Y-80560886D01*
X144052758Y-80489976D01*
X144213177Y-80441313D01*
X144338196Y-80429000D01*
X145221804Y-80429000D01*
X145346823Y-80441313D01*
X145346823Y-80441313D01*
G37*
G36*
X161456823Y-80441313D02*
G01*
X161617242Y-80489976D01*
X161749906Y-80560886D01*
X161765078Y-80568996D01*
X161894659Y-80675341D01*
X162001004Y-80804922D01*
X162001005Y-80804924D01*
X162080024Y-80952758D01*
X162128687Y-81113177D01*
X162145117Y-81280000D01*
X162128687Y-81446823D01*
X162080024Y-81607242D01*
X162009114Y-81739906D01*
X162001004Y-81755078D01*
X161894659Y-81884659D01*
X161765078Y-81991004D01*
X161765076Y-81991005D01*
X161617242Y-82070024D01*
X161456823Y-82118687D01*
X161331804Y-82131000D01*
X161248196Y-82131000D01*
X161123177Y-82118687D01*
X160962758Y-82070024D01*
X160814924Y-81991005D01*
X160814922Y-81991004D01*
X160685341Y-81884659D01*
X160578996Y-81755078D01*
X160570886Y-81739906D01*
X160499976Y-81607242D01*
X160451313Y-81446823D01*
X160434883Y-81280000D01*
X160451313Y-81113177D01*
X160499976Y-80952758D01*
X160578995Y-80804924D01*
X160578996Y-80804922D01*
X160685341Y-80675341D01*
X160814922Y-80568996D01*
X160830094Y-80560886D01*
X160962758Y-80489976D01*
X161123177Y-80441313D01*
X161248196Y-80429000D01*
X161331804Y-80429000D01*
X161456823Y-80441313D01*
X161456823Y-80441313D01*
G37*
G36*
X81846823Y-80441313D02*
G01*
X82007242Y-80489976D01*
X82139906Y-80560886D01*
X82155078Y-80568996D01*
X82284659Y-80675341D01*
X82391004Y-80804922D01*
X82391005Y-80804924D01*
X82470024Y-80952758D01*
X82518687Y-81113177D01*
X82535117Y-81280000D01*
X82518687Y-81446823D01*
X82470024Y-81607242D01*
X82399114Y-81739906D01*
X82391004Y-81755078D01*
X82284659Y-81884659D01*
X82155078Y-81991004D01*
X82155076Y-81991005D01*
X82007242Y-82070024D01*
X81846823Y-82118687D01*
X81721804Y-82131000D01*
X80838196Y-82131000D01*
X80713177Y-82118687D01*
X80552758Y-82070024D01*
X80404924Y-81991005D01*
X80404922Y-81991004D01*
X80275341Y-81884659D01*
X80168996Y-81755078D01*
X80160886Y-81739906D01*
X80089976Y-81607242D01*
X80041313Y-81446823D01*
X80024883Y-81280000D01*
X80041313Y-81113177D01*
X80089976Y-80952758D01*
X80168995Y-80804924D01*
X80168996Y-80804922D01*
X80275341Y-80675341D01*
X80404922Y-80568996D01*
X80420094Y-80560886D01*
X80552758Y-80489976D01*
X80713177Y-80441313D01*
X80838196Y-80429000D01*
X81721804Y-80429000D01*
X81846823Y-80441313D01*
X81846823Y-80441313D01*
G37*
G36*
X119946823Y-80441313D02*
G01*
X120107242Y-80489976D01*
X120239906Y-80560886D01*
X120255078Y-80568996D01*
X120384659Y-80675341D01*
X120491004Y-80804922D01*
X120491005Y-80804924D01*
X120570024Y-80952758D01*
X120618687Y-81113177D01*
X120635117Y-81280000D01*
X120618687Y-81446823D01*
X120570024Y-81607242D01*
X120499114Y-81739906D01*
X120491004Y-81755078D01*
X120384659Y-81884659D01*
X120255078Y-81991004D01*
X120255076Y-81991005D01*
X120107242Y-82070024D01*
X119946823Y-82118687D01*
X119821804Y-82131000D01*
X118938196Y-82131000D01*
X118813177Y-82118687D01*
X118652758Y-82070024D01*
X118504924Y-81991005D01*
X118504922Y-81991004D01*
X118375341Y-81884659D01*
X118268996Y-81755078D01*
X118260886Y-81739906D01*
X118189976Y-81607242D01*
X118141313Y-81446823D01*
X118124883Y-81280000D01*
X118141313Y-81113177D01*
X118189976Y-80952758D01*
X118268995Y-80804924D01*
X118268996Y-80804922D01*
X118375341Y-80675341D01*
X118504922Y-80568996D01*
X118520094Y-80560886D01*
X118652758Y-80489976D01*
X118813177Y-80441313D01*
X118938196Y-80429000D01*
X119821804Y-80429000D01*
X119946823Y-80441313D01*
X119946823Y-80441313D01*
G37*
G36*
X112326823Y-80441313D02*
G01*
X112487242Y-80489976D01*
X112619906Y-80560886D01*
X112635078Y-80568996D01*
X112764659Y-80675341D01*
X112871004Y-80804922D01*
X112871005Y-80804924D01*
X112950024Y-80952758D01*
X112998687Y-81113177D01*
X113015117Y-81280000D01*
X112998687Y-81446823D01*
X112950024Y-81607242D01*
X112879114Y-81739906D01*
X112871004Y-81755078D01*
X112764659Y-81884659D01*
X112635078Y-81991004D01*
X112635076Y-81991005D01*
X112487242Y-82070024D01*
X112326823Y-82118687D01*
X112201804Y-82131000D01*
X111318196Y-82131000D01*
X111193177Y-82118687D01*
X111032758Y-82070024D01*
X110884924Y-81991005D01*
X110884922Y-81991004D01*
X110755341Y-81884659D01*
X110648996Y-81755078D01*
X110640886Y-81739906D01*
X110569976Y-81607242D01*
X110521313Y-81446823D01*
X110504883Y-81280000D01*
X110521313Y-81113177D01*
X110569976Y-80952758D01*
X110648995Y-80804924D01*
X110648996Y-80804922D01*
X110755341Y-80675341D01*
X110884922Y-80568996D01*
X110900094Y-80560886D01*
X111032758Y-80489976D01*
X111193177Y-80441313D01*
X111318196Y-80429000D01*
X112201804Y-80429000D01*
X112326823Y-80441313D01*
X112326823Y-80441313D01*
G37*
G36*
X74226823Y-80441313D02*
G01*
X74387242Y-80489976D01*
X74519906Y-80560886D01*
X74535078Y-80568996D01*
X74664659Y-80675341D01*
X74771004Y-80804922D01*
X74771005Y-80804924D01*
X74850024Y-80952758D01*
X74898687Y-81113177D01*
X74915117Y-81280000D01*
X74898687Y-81446823D01*
X74850024Y-81607242D01*
X74779114Y-81739906D01*
X74771004Y-81755078D01*
X74664659Y-81884659D01*
X74535078Y-81991004D01*
X74535076Y-81991005D01*
X74387242Y-82070024D01*
X74226823Y-82118687D01*
X74101804Y-82131000D01*
X73218196Y-82131000D01*
X73093177Y-82118687D01*
X72932758Y-82070024D01*
X72784924Y-81991005D01*
X72784922Y-81991004D01*
X72655341Y-81884659D01*
X72548996Y-81755078D01*
X72540886Y-81739906D01*
X72469976Y-81607242D01*
X72421313Y-81446823D01*
X72404883Y-81280000D01*
X72421313Y-81113177D01*
X72469976Y-80952758D01*
X72548995Y-80804924D01*
X72548996Y-80804922D01*
X72655341Y-80675341D01*
X72784922Y-80568996D01*
X72800094Y-80560886D01*
X72932758Y-80489976D01*
X73093177Y-80441313D01*
X73218196Y-80429000D01*
X74101804Y-80429000D01*
X74226823Y-80441313D01*
X74226823Y-80441313D01*
G37*
G36*
X102166823Y-80441313D02*
G01*
X102327242Y-80489976D01*
X102459906Y-80560886D01*
X102475078Y-80568996D01*
X102604659Y-80675341D01*
X102711004Y-80804922D01*
X102711005Y-80804924D01*
X102790024Y-80952758D01*
X102838687Y-81113177D01*
X102855117Y-81280000D01*
X102838687Y-81446823D01*
X102790024Y-81607242D01*
X102719114Y-81739906D01*
X102711004Y-81755078D01*
X102604659Y-81884659D01*
X102475078Y-81991004D01*
X102475076Y-81991005D01*
X102327242Y-82070024D01*
X102166823Y-82118687D01*
X102041804Y-82131000D01*
X101158196Y-82131000D01*
X101033177Y-82118687D01*
X100872758Y-82070024D01*
X100724924Y-81991005D01*
X100724922Y-81991004D01*
X100595341Y-81884659D01*
X100488996Y-81755078D01*
X100480886Y-81739906D01*
X100409976Y-81607242D01*
X100361313Y-81446823D01*
X100344883Y-81280000D01*
X100361313Y-81113177D01*
X100409976Y-80952758D01*
X100488995Y-80804924D01*
X100488996Y-80804922D01*
X100595341Y-80675341D01*
X100724922Y-80568996D01*
X100740094Y-80560886D01*
X100872758Y-80489976D01*
X101033177Y-80441313D01*
X101158196Y-80429000D01*
X102041804Y-80429000D01*
X102166823Y-80441313D01*
X102166823Y-80441313D01*
G37*
G36*
X94546823Y-80441313D02*
G01*
X94707242Y-80489976D01*
X94839906Y-80560886D01*
X94855078Y-80568996D01*
X94984659Y-80675341D01*
X95091004Y-80804922D01*
X95091005Y-80804924D01*
X95170024Y-80952758D01*
X95218687Y-81113177D01*
X95235117Y-81280000D01*
X95218687Y-81446823D01*
X95170024Y-81607242D01*
X95099114Y-81739906D01*
X95091004Y-81755078D01*
X94984659Y-81884659D01*
X94855078Y-81991004D01*
X94855076Y-81991005D01*
X94707242Y-82070024D01*
X94546823Y-82118687D01*
X94421804Y-82131000D01*
X93538196Y-82131000D01*
X93413177Y-82118687D01*
X93252758Y-82070024D01*
X93104924Y-81991005D01*
X93104922Y-81991004D01*
X92975341Y-81884659D01*
X92868996Y-81755078D01*
X92860886Y-81739906D01*
X92789976Y-81607242D01*
X92741313Y-81446823D01*
X92724883Y-81280000D01*
X92741313Y-81113177D01*
X92789976Y-80952758D01*
X92868995Y-80804924D01*
X92868996Y-80804922D01*
X92975341Y-80675341D01*
X93104922Y-80568996D01*
X93120094Y-80560886D01*
X93252758Y-80489976D01*
X93413177Y-80441313D01*
X93538196Y-80429000D01*
X94421804Y-80429000D01*
X94546823Y-80441313D01*
X94546823Y-80441313D01*
G37*
G36*
X53506823Y-79171313D02*
G01*
X53667242Y-79219976D01*
X53799906Y-79290886D01*
X53815078Y-79298996D01*
X53944659Y-79405341D01*
X54051004Y-79534922D01*
X54051005Y-79534924D01*
X54130024Y-79682758D01*
X54178687Y-79843177D01*
X54195117Y-80010000D01*
X54178687Y-80176823D01*
X54130024Y-80337242D01*
X54089477Y-80413100D01*
X54051004Y-80485078D01*
X53944659Y-80614659D01*
X53815078Y-80721004D01*
X53815076Y-80721005D01*
X53667242Y-80800024D01*
X53506823Y-80848687D01*
X53381804Y-80861000D01*
X53298196Y-80861000D01*
X53173177Y-80848687D01*
X53012758Y-80800024D01*
X52864924Y-80721005D01*
X52864922Y-80721004D01*
X52735341Y-80614659D01*
X52628996Y-80485078D01*
X52590523Y-80413100D01*
X52549976Y-80337242D01*
X52501313Y-80176823D01*
X52484883Y-80010000D01*
X52501313Y-79843177D01*
X52549976Y-79682758D01*
X52628995Y-79534924D01*
X52628996Y-79534922D01*
X52735341Y-79405341D01*
X52864922Y-79298996D01*
X52880094Y-79290886D01*
X53012758Y-79219976D01*
X53173177Y-79171313D01*
X53298196Y-79159000D01*
X53381804Y-79159000D01*
X53506823Y-79171313D01*
X53506823Y-79171313D01*
G37*
G36*
X86608228Y-79191703D02*
G01*
X86763100Y-79255853D01*
X86902481Y-79348985D01*
X87021015Y-79467519D01*
X87114147Y-79606900D01*
X87178297Y-79761772D01*
X87211000Y-79926184D01*
X87211000Y-80093816D01*
X87178297Y-80258228D01*
X87114147Y-80413100D01*
X87021015Y-80552481D01*
X86902481Y-80671015D01*
X86763100Y-80764147D01*
X86608228Y-80828297D01*
X86443816Y-80861000D01*
X86276184Y-80861000D01*
X86111772Y-80828297D01*
X85956900Y-80764147D01*
X85817519Y-80671015D01*
X85698985Y-80552481D01*
X85605853Y-80413100D01*
X85541703Y-80258228D01*
X85509000Y-80093816D01*
X85509000Y-79926184D01*
X85541703Y-79761772D01*
X85605853Y-79606900D01*
X85698985Y-79467519D01*
X85817519Y-79348985D01*
X85956900Y-79255853D01*
X86111772Y-79191703D01*
X86276184Y-79159000D01*
X86443816Y-79159000D01*
X86608228Y-79191703D01*
X86608228Y-79191703D01*
G37*
G36*
X61208228Y-79191703D02*
G01*
X61363100Y-79255853D01*
X61502481Y-79348985D01*
X61621015Y-79467519D01*
X61714147Y-79606900D01*
X61778297Y-79761772D01*
X61811000Y-79926184D01*
X61811000Y-80093816D01*
X61778297Y-80258228D01*
X61714147Y-80413100D01*
X61621015Y-80552481D01*
X61502481Y-80671015D01*
X61363100Y-80764147D01*
X61208228Y-80828297D01*
X61043816Y-80861000D01*
X60876184Y-80861000D01*
X60711772Y-80828297D01*
X60556900Y-80764147D01*
X60417519Y-80671015D01*
X60298985Y-80552481D01*
X60205853Y-80413100D01*
X60141703Y-80258228D01*
X60109000Y-80093816D01*
X60109000Y-79926184D01*
X60141703Y-79761772D01*
X60205853Y-79606900D01*
X60298985Y-79467519D01*
X60417519Y-79348985D01*
X60556900Y-79255853D01*
X60711772Y-79191703D01*
X60876184Y-79159000D01*
X61043816Y-79159000D01*
X61208228Y-79191703D01*
X61208228Y-79191703D01*
G37*
G36*
X74911000Y-79591000D02*
G01*
X72409000Y-79591000D01*
X72409000Y-77889000D01*
X74911000Y-77889000D01*
X74911000Y-79591000D01*
X74911000Y-79591000D01*
G37*
G36*
X95231000Y-79591000D02*
G01*
X92729000Y-79591000D01*
X92729000Y-77889000D01*
X95231000Y-77889000D01*
X95231000Y-79591000D01*
X95231000Y-79591000D01*
G37*
G36*
X102166823Y-77901313D02*
G01*
X102327242Y-77949976D01*
X102394361Y-77985852D01*
X102475078Y-78028996D01*
X102604659Y-78135341D01*
X102711004Y-78264922D01*
X102711005Y-78264924D01*
X102790024Y-78412758D01*
X102838687Y-78573177D01*
X102855117Y-78740000D01*
X102838687Y-78906823D01*
X102790024Y-79067242D01*
X102749477Y-79143100D01*
X102711004Y-79215078D01*
X102604659Y-79344659D01*
X102475078Y-79451004D01*
X102475076Y-79451005D01*
X102327242Y-79530024D01*
X102166823Y-79578687D01*
X102041804Y-79591000D01*
X101158196Y-79591000D01*
X101033177Y-79578687D01*
X100872758Y-79530024D01*
X100724924Y-79451005D01*
X100724922Y-79451004D01*
X100595341Y-79344659D01*
X100488996Y-79215078D01*
X100450523Y-79143100D01*
X100409976Y-79067242D01*
X100361313Y-78906823D01*
X100344883Y-78740000D01*
X100361313Y-78573177D01*
X100409976Y-78412758D01*
X100488995Y-78264924D01*
X100488996Y-78264922D01*
X100595341Y-78135341D01*
X100724922Y-78028996D01*
X100805639Y-77985852D01*
X100872758Y-77949976D01*
X101033177Y-77901313D01*
X101158196Y-77889000D01*
X102041804Y-77889000D01*
X102166823Y-77901313D01*
X102166823Y-77901313D01*
G37*
G36*
X81846823Y-77901313D02*
G01*
X82007242Y-77949976D01*
X82074361Y-77985852D01*
X82155078Y-78028996D01*
X82284659Y-78135341D01*
X82391004Y-78264922D01*
X82391005Y-78264924D01*
X82470024Y-78412758D01*
X82518687Y-78573177D01*
X82535117Y-78740000D01*
X82518687Y-78906823D01*
X82470024Y-79067242D01*
X82429477Y-79143100D01*
X82391004Y-79215078D01*
X82284659Y-79344659D01*
X82155078Y-79451004D01*
X82155076Y-79451005D01*
X82007242Y-79530024D01*
X81846823Y-79578687D01*
X81721804Y-79591000D01*
X80838196Y-79591000D01*
X80713177Y-79578687D01*
X80552758Y-79530024D01*
X80404924Y-79451005D01*
X80404922Y-79451004D01*
X80275341Y-79344659D01*
X80168996Y-79215078D01*
X80130523Y-79143100D01*
X80089976Y-79067242D01*
X80041313Y-78906823D01*
X80024883Y-78740000D01*
X80041313Y-78573177D01*
X80089976Y-78412758D01*
X80168995Y-78264924D01*
X80168996Y-78264922D01*
X80275341Y-78135341D01*
X80404922Y-78028996D01*
X80485639Y-77985852D01*
X80552758Y-77949976D01*
X80713177Y-77901313D01*
X80838196Y-77889000D01*
X81721804Y-77889000D01*
X81846823Y-77901313D01*
X81846823Y-77901313D01*
G37*
G36*
X119946823Y-77901313D02*
G01*
X120107242Y-77949976D01*
X120174361Y-77985852D01*
X120255078Y-78028996D01*
X120384659Y-78135341D01*
X120491004Y-78264922D01*
X120491005Y-78264924D01*
X120570024Y-78412758D01*
X120618687Y-78573177D01*
X120635117Y-78740000D01*
X120618687Y-78906823D01*
X120570024Y-79067242D01*
X120529477Y-79143100D01*
X120491004Y-79215078D01*
X120384659Y-79344659D01*
X120255078Y-79451004D01*
X120255076Y-79451005D01*
X120107242Y-79530024D01*
X119946823Y-79578687D01*
X119821804Y-79591000D01*
X118938196Y-79591000D01*
X118813177Y-79578687D01*
X118652758Y-79530024D01*
X118504924Y-79451005D01*
X118504922Y-79451004D01*
X118375341Y-79344659D01*
X118268996Y-79215078D01*
X118230523Y-79143100D01*
X118189976Y-79067242D01*
X118141313Y-78906823D01*
X118124883Y-78740000D01*
X118141313Y-78573177D01*
X118189976Y-78412758D01*
X118268995Y-78264924D01*
X118268996Y-78264922D01*
X118375341Y-78135341D01*
X118504922Y-78028996D01*
X118585639Y-77985852D01*
X118652758Y-77949976D01*
X118813177Y-77901313D01*
X118938196Y-77889000D01*
X119821804Y-77889000D01*
X119946823Y-77901313D01*
X119946823Y-77901313D01*
G37*
G36*
X113011000Y-79591000D02*
G01*
X110509000Y-79591000D01*
X110509000Y-77889000D01*
X113011000Y-77889000D01*
X113011000Y-79591000D01*
X113011000Y-79591000D01*
G37*
G36*
X146031000Y-79591000D02*
G01*
X143529000Y-79591000D01*
X143529000Y-77889000D01*
X146031000Y-77889000D01*
X146031000Y-79591000D01*
X146031000Y-79591000D01*
G37*
G36*
X152966823Y-77901313D02*
G01*
X153127242Y-77949976D01*
X153194361Y-77985852D01*
X153275078Y-78028996D01*
X153404659Y-78135341D01*
X153511004Y-78264922D01*
X153511005Y-78264924D01*
X153590024Y-78412758D01*
X153638687Y-78573177D01*
X153655117Y-78740000D01*
X153638687Y-78906823D01*
X153590024Y-79067242D01*
X153549477Y-79143100D01*
X153511004Y-79215078D01*
X153404659Y-79344659D01*
X153275078Y-79451004D01*
X153275076Y-79451005D01*
X153127242Y-79530024D01*
X152966823Y-79578687D01*
X152841804Y-79591000D01*
X151958196Y-79591000D01*
X151833177Y-79578687D01*
X151672758Y-79530024D01*
X151524924Y-79451005D01*
X151524922Y-79451004D01*
X151395341Y-79344659D01*
X151288996Y-79215078D01*
X151250523Y-79143100D01*
X151209976Y-79067242D01*
X151161313Y-78906823D01*
X151144883Y-78740000D01*
X151161313Y-78573177D01*
X151209976Y-78412758D01*
X151288995Y-78264924D01*
X151288996Y-78264922D01*
X151395341Y-78135341D01*
X151524922Y-78028996D01*
X151605639Y-77985852D01*
X151672758Y-77949976D01*
X151833177Y-77901313D01*
X151958196Y-77889000D01*
X152841804Y-77889000D01*
X152966823Y-77901313D01*
X152966823Y-77901313D01*
G37*
G36*
X138596823Y-77901313D02*
G01*
X138757242Y-77949976D01*
X138824361Y-77985852D01*
X138905078Y-78028996D01*
X139034659Y-78135341D01*
X139141004Y-78264922D01*
X139141005Y-78264924D01*
X139220024Y-78412758D01*
X139268687Y-78573177D01*
X139285117Y-78740000D01*
X139268687Y-78906823D01*
X139220024Y-79067242D01*
X139179477Y-79143100D01*
X139141004Y-79215078D01*
X139034659Y-79344659D01*
X138905078Y-79451004D01*
X138905076Y-79451005D01*
X138757242Y-79530024D01*
X138596823Y-79578687D01*
X138471804Y-79591000D01*
X138388196Y-79591000D01*
X138263177Y-79578687D01*
X138102758Y-79530024D01*
X137954924Y-79451005D01*
X137954922Y-79451004D01*
X137825341Y-79344659D01*
X137718996Y-79215078D01*
X137680523Y-79143100D01*
X137639976Y-79067242D01*
X137591313Y-78906823D01*
X137574883Y-78740000D01*
X137591313Y-78573177D01*
X137639976Y-78412758D01*
X137718995Y-78264924D01*
X137718996Y-78264922D01*
X137825341Y-78135341D01*
X137954922Y-78028996D01*
X138035639Y-77985852D01*
X138102758Y-77949976D01*
X138263177Y-77901313D01*
X138388196Y-77889000D01*
X138471804Y-77889000D01*
X138596823Y-77901313D01*
X138596823Y-77901313D01*
G37*
G36*
X133598228Y-77921703D02*
G01*
X133753100Y-77985853D01*
X133892481Y-78078985D01*
X134011015Y-78197519D01*
X134104147Y-78336900D01*
X134168297Y-78491772D01*
X134201000Y-78656184D01*
X134201000Y-78823816D01*
X134168297Y-78988228D01*
X134104147Y-79143100D01*
X134011015Y-79282481D01*
X133892481Y-79401015D01*
X133753100Y-79494147D01*
X133598228Y-79558297D01*
X133433816Y-79591000D01*
X133266184Y-79591000D01*
X133101772Y-79558297D01*
X132946900Y-79494147D01*
X132807519Y-79401015D01*
X132688985Y-79282481D01*
X132595853Y-79143100D01*
X132531703Y-78988228D01*
X132499000Y-78823816D01*
X132499000Y-78656184D01*
X132531703Y-78491772D01*
X132595853Y-78336900D01*
X132688985Y-78197519D01*
X132807519Y-78078985D01*
X132946900Y-77985853D01*
X133101772Y-77921703D01*
X133266184Y-77889000D01*
X133433816Y-77889000D01*
X133598228Y-77921703D01*
X133598228Y-77921703D01*
G37*
G36*
X127248228Y-77921703D02*
G01*
X127403100Y-77985853D01*
X127542481Y-78078985D01*
X127661015Y-78197519D01*
X127754147Y-78336900D01*
X127818297Y-78491772D01*
X127851000Y-78656184D01*
X127851000Y-78823816D01*
X127818297Y-78988228D01*
X127754147Y-79143100D01*
X127661015Y-79282481D01*
X127542481Y-79401015D01*
X127403100Y-79494147D01*
X127248228Y-79558297D01*
X127083816Y-79591000D01*
X126916184Y-79591000D01*
X126751772Y-79558297D01*
X126596900Y-79494147D01*
X126457519Y-79401015D01*
X126338985Y-79282481D01*
X126245853Y-79143100D01*
X126181703Y-78988228D01*
X126149000Y-78823816D01*
X126149000Y-78656184D01*
X126181703Y-78491772D01*
X126245853Y-78336900D01*
X126338985Y-78197519D01*
X126457519Y-78078985D01*
X126596900Y-77985853D01*
X126751772Y-77921703D01*
X126916184Y-77889000D01*
X127083816Y-77889000D01*
X127248228Y-77921703D01*
X127248228Y-77921703D01*
G37*
G36*
X68746823Y-77901313D02*
G01*
X68907242Y-77949976D01*
X68974361Y-77985852D01*
X69055078Y-78028996D01*
X69184659Y-78135341D01*
X69291004Y-78264922D01*
X69291005Y-78264924D01*
X69370024Y-78412758D01*
X69418687Y-78573177D01*
X69435117Y-78740000D01*
X69418687Y-78906823D01*
X69370024Y-79067242D01*
X69329477Y-79143100D01*
X69291004Y-79215078D01*
X69184659Y-79344659D01*
X69055078Y-79451004D01*
X69055076Y-79451005D01*
X68907242Y-79530024D01*
X68746823Y-79578687D01*
X68621804Y-79591000D01*
X68538196Y-79591000D01*
X68413177Y-79578687D01*
X68252758Y-79530024D01*
X68104924Y-79451005D01*
X68104922Y-79451004D01*
X67975341Y-79344659D01*
X67868996Y-79215078D01*
X67830523Y-79143100D01*
X67789976Y-79067242D01*
X67741313Y-78906823D01*
X67724883Y-78740000D01*
X67741313Y-78573177D01*
X67789976Y-78412758D01*
X67868995Y-78264924D01*
X67868996Y-78264922D01*
X67975341Y-78135341D01*
X68104922Y-78028996D01*
X68185639Y-77985852D01*
X68252758Y-77949976D01*
X68413177Y-77901313D01*
X68538196Y-77889000D01*
X68621804Y-77889000D01*
X68746823Y-77901313D01*
X68746823Y-77901313D01*
G37*
G36*
X66691000Y-74081000D02*
G01*
X66319891Y-74081000D01*
X66295505Y-74083402D01*
X66272056Y-74090515D01*
X66250445Y-74102066D01*
X66231503Y-74117611D01*
X66215958Y-74136553D01*
X66204407Y-74158164D01*
X66197294Y-74181613D01*
X66194892Y-74205999D01*
X66197294Y-74230385D01*
X66204407Y-74253834D01*
X66215958Y-74275445D01*
X66231503Y-74294387D01*
X66250445Y-74309932D01*
X66272055Y-74321483D01*
X66348364Y-74353091D01*
X66454988Y-74424335D01*
X66545665Y-74515012D01*
X66616909Y-74621636D01*
X66665983Y-74740110D01*
X66691000Y-74865882D01*
X66691000Y-74994118D01*
X66665983Y-75119890D01*
X66616909Y-75238364D01*
X66545665Y-75344988D01*
X66454988Y-75435665D01*
X66348364Y-75506909D01*
X66348363Y-75506910D01*
X66348362Y-75506910D01*
X66229890Y-75555983D01*
X66104119Y-75581000D01*
X65975881Y-75581000D01*
X65850110Y-75555983D01*
X65731638Y-75506910D01*
X65731637Y-75506910D01*
X65731636Y-75506909D01*
X65625012Y-75435665D01*
X65534335Y-75344988D01*
X65463091Y-75238364D01*
X65414017Y-75119890D01*
X65389000Y-74994118D01*
X65389000Y-74865882D01*
X65414017Y-74740110D01*
X65463091Y-74621636D01*
X65534335Y-74515012D01*
X65625012Y-74424335D01*
X65731636Y-74353091D01*
X65807945Y-74321483D01*
X65829555Y-74309932D01*
X65848497Y-74294387D01*
X65864042Y-74275445D01*
X65875593Y-74253834D01*
X65882706Y-74230385D01*
X65885108Y-74205999D01*
X65882706Y-74181613D01*
X65875593Y-74158164D01*
X65864042Y-74136553D01*
X65848497Y-74117611D01*
X65829555Y-74102066D01*
X65807944Y-74090515D01*
X65784495Y-74083402D01*
X65760109Y-74081000D01*
X65389000Y-74081000D01*
X65389000Y-72779000D01*
X66691000Y-72779000D01*
X66691000Y-74081000D01*
X66691000Y-74081000D01*
G37*
G36*
X61126823Y-72821313D02*
G01*
X61287242Y-72869976D01*
X61419906Y-72940886D01*
X61435078Y-72948996D01*
X61564659Y-73055341D01*
X61671004Y-73184922D01*
X61671005Y-73184924D01*
X61750024Y-73332758D01*
X61798687Y-73493177D01*
X61815117Y-73660000D01*
X61798687Y-73826823D01*
X61750024Y-73987242D01*
X61709477Y-74063100D01*
X61671004Y-74135078D01*
X61564659Y-74264659D01*
X61435078Y-74371004D01*
X61435076Y-74371005D01*
X61287242Y-74450024D01*
X61126823Y-74498687D01*
X61001804Y-74511000D01*
X60918196Y-74511000D01*
X60793177Y-74498687D01*
X60632758Y-74450024D01*
X60484924Y-74371005D01*
X60484922Y-74371004D01*
X60355341Y-74264659D01*
X60248996Y-74135078D01*
X60210523Y-74063100D01*
X60169976Y-73987242D01*
X60121313Y-73826823D01*
X60104883Y-73660000D01*
X60121313Y-73493177D01*
X60169976Y-73332758D01*
X60248995Y-73184924D01*
X60248996Y-73184922D01*
X60355341Y-73055341D01*
X60484922Y-72948996D01*
X60500094Y-72940886D01*
X60632758Y-72869976D01*
X60793177Y-72821313D01*
X60918196Y-72809000D01*
X61001804Y-72809000D01*
X61126823Y-72821313D01*
X61126823Y-72821313D01*
G37*
G36*
X53588228Y-72841703D02*
G01*
X53743100Y-72905853D01*
X53882481Y-72998985D01*
X54001015Y-73117519D01*
X54094147Y-73256900D01*
X54158297Y-73411772D01*
X54191000Y-73576184D01*
X54191000Y-73743816D01*
X54158297Y-73908228D01*
X54094147Y-74063100D01*
X54001015Y-74202481D01*
X53882481Y-74321015D01*
X53743100Y-74414147D01*
X53588228Y-74478297D01*
X53423816Y-74511000D01*
X53256184Y-74511000D01*
X53091772Y-74478297D01*
X52936900Y-74414147D01*
X52797519Y-74321015D01*
X52678985Y-74202481D01*
X52585853Y-74063100D01*
X52521703Y-73908228D01*
X52489000Y-73743816D01*
X52489000Y-73576184D01*
X52521703Y-73411772D01*
X52585853Y-73256900D01*
X52678985Y-73117519D01*
X52797519Y-72998985D01*
X52936900Y-72905853D01*
X53091772Y-72841703D01*
X53256184Y-72809000D01*
X53423816Y-72809000D01*
X53588228Y-72841703D01*
X53588228Y-72841703D01*
G37*
G36*
X162141000Y-74511000D02*
G01*
X160439000Y-74511000D01*
X160439000Y-72809000D01*
X162141000Y-72809000D01*
X162141000Y-74511000D01*
X162141000Y-74511000D01*
G37*
G36*
X138596823Y-71551313D02*
G01*
X138757242Y-71599976D01*
X138824361Y-71635852D01*
X138905078Y-71678996D01*
X139034659Y-71785341D01*
X139141004Y-71914922D01*
X139141005Y-71914924D01*
X139220024Y-72062758D01*
X139268687Y-72223177D01*
X139285117Y-72390000D01*
X139268687Y-72556823D01*
X139220024Y-72717242D01*
X139179477Y-72793100D01*
X139141004Y-72865078D01*
X139034659Y-72994659D01*
X138905078Y-73101004D01*
X138905076Y-73101005D01*
X138757242Y-73180024D01*
X138596823Y-73228687D01*
X138471804Y-73241000D01*
X138388196Y-73241000D01*
X138263177Y-73228687D01*
X138102758Y-73180024D01*
X137954924Y-73101005D01*
X137954922Y-73101004D01*
X137825341Y-72994659D01*
X137718996Y-72865078D01*
X137680523Y-72793100D01*
X137639976Y-72717242D01*
X137591313Y-72556823D01*
X137574883Y-72390000D01*
X137591313Y-72223177D01*
X137639976Y-72062758D01*
X137718995Y-71914924D01*
X137718996Y-71914922D01*
X137825341Y-71785341D01*
X137954922Y-71678996D01*
X138035639Y-71635852D01*
X138102758Y-71599976D01*
X138263177Y-71551313D01*
X138388196Y-71539000D01*
X138471804Y-71539000D01*
X138596823Y-71551313D01*
X138596823Y-71551313D01*
G37*
G36*
X94146823Y-71551313D02*
G01*
X94307242Y-71599976D01*
X94374361Y-71635852D01*
X94455078Y-71678996D01*
X94584659Y-71785341D01*
X94691004Y-71914922D01*
X94691005Y-71914924D01*
X94770024Y-72062758D01*
X94818687Y-72223177D01*
X94835117Y-72390000D01*
X94818687Y-72556823D01*
X94770024Y-72717242D01*
X94729477Y-72793100D01*
X94691004Y-72865078D01*
X94584659Y-72994659D01*
X94455078Y-73101004D01*
X94455076Y-73101005D01*
X94307242Y-73180024D01*
X94146823Y-73228687D01*
X94021804Y-73241000D01*
X93938196Y-73241000D01*
X93813177Y-73228687D01*
X93652758Y-73180024D01*
X93504924Y-73101005D01*
X93504922Y-73101004D01*
X93375341Y-72994659D01*
X93268996Y-72865078D01*
X93230523Y-72793100D01*
X93189976Y-72717242D01*
X93141313Y-72556823D01*
X93124883Y-72390000D01*
X93141313Y-72223177D01*
X93189976Y-72062758D01*
X93268995Y-71914924D01*
X93268996Y-71914922D01*
X93375341Y-71785341D01*
X93504922Y-71678996D01*
X93585639Y-71635852D01*
X93652758Y-71599976D01*
X93813177Y-71551313D01*
X93938196Y-71539000D01*
X94021804Y-71539000D01*
X94146823Y-71551313D01*
X94146823Y-71551313D01*
G37*
G36*
X101848228Y-71571703D02*
G01*
X102003100Y-71635853D01*
X102142481Y-71728985D01*
X102261015Y-71847519D01*
X102354147Y-71986900D01*
X102418297Y-72141772D01*
X102451000Y-72306184D01*
X102451000Y-72473816D01*
X102418297Y-72638228D01*
X102354147Y-72793100D01*
X102261015Y-72932481D01*
X102142481Y-73051015D01*
X102003100Y-73144147D01*
X101848228Y-73208297D01*
X101683816Y-73241000D01*
X101516184Y-73241000D01*
X101351772Y-73208297D01*
X101196900Y-73144147D01*
X101057519Y-73051015D01*
X100938985Y-72932481D01*
X100845853Y-72793100D01*
X100781703Y-72638228D01*
X100749000Y-72473816D01*
X100749000Y-72306184D01*
X100781703Y-72141772D01*
X100845853Y-71986900D01*
X100938985Y-71847519D01*
X101057519Y-71728985D01*
X101196900Y-71635853D01*
X101351772Y-71571703D01*
X101516184Y-71539000D01*
X101683816Y-71539000D01*
X101848228Y-71571703D01*
X101848228Y-71571703D01*
G37*
G36*
X146298228Y-71571703D02*
G01*
X146453100Y-71635853D01*
X146592481Y-71728985D01*
X146711015Y-71847519D01*
X146804147Y-71986900D01*
X146868297Y-72141772D01*
X146901000Y-72306184D01*
X146901000Y-72473816D01*
X146868297Y-72638228D01*
X146804147Y-72793100D01*
X146711015Y-72932481D01*
X146592481Y-73051015D01*
X146453100Y-73144147D01*
X146298228Y-73208297D01*
X146133816Y-73241000D01*
X145966184Y-73241000D01*
X145801772Y-73208297D01*
X145646900Y-73144147D01*
X145507519Y-73051015D01*
X145388985Y-72932481D01*
X145295853Y-72793100D01*
X145231703Y-72638228D01*
X145199000Y-72473816D01*
X145199000Y-72306184D01*
X145231703Y-72141772D01*
X145295853Y-71986900D01*
X145388985Y-71847519D01*
X145507519Y-71728985D01*
X145646900Y-71635853D01*
X145801772Y-71571703D01*
X145966184Y-71539000D01*
X146133816Y-71539000D01*
X146298228Y-71571703D01*
X146298228Y-71571703D01*
G37*
G36*
X104306823Y-71551313D02*
G01*
X104467242Y-71599976D01*
X104534361Y-71635852D01*
X104615078Y-71678996D01*
X104744659Y-71785341D01*
X104851004Y-71914922D01*
X104851005Y-71914924D01*
X104930024Y-72062758D01*
X104978687Y-72223177D01*
X104995117Y-72390000D01*
X104978687Y-72556823D01*
X104930024Y-72717242D01*
X104889477Y-72793100D01*
X104851004Y-72865078D01*
X104744659Y-72994659D01*
X104615078Y-73101004D01*
X104615076Y-73101005D01*
X104467242Y-73180024D01*
X104306823Y-73228687D01*
X104181804Y-73241000D01*
X104098196Y-73241000D01*
X103973177Y-73228687D01*
X103812758Y-73180024D01*
X103664924Y-73101005D01*
X103664922Y-73101004D01*
X103535341Y-72994659D01*
X103428996Y-72865078D01*
X103390523Y-72793100D01*
X103349976Y-72717242D01*
X103301313Y-72556823D01*
X103284883Y-72390000D01*
X103301313Y-72223177D01*
X103349976Y-72062758D01*
X103428995Y-71914924D01*
X103428996Y-71914922D01*
X103535341Y-71785341D01*
X103664922Y-71678996D01*
X103745639Y-71635852D01*
X103812758Y-71599976D01*
X103973177Y-71551313D01*
X104098196Y-71539000D01*
X104181804Y-71539000D01*
X104306823Y-71551313D01*
X104306823Y-71551313D01*
G37*
G36*
X112008228Y-71571703D02*
G01*
X112163100Y-71635853D01*
X112302481Y-71728985D01*
X112421015Y-71847519D01*
X112514147Y-71986900D01*
X112578297Y-72141772D01*
X112611000Y-72306184D01*
X112611000Y-72473816D01*
X112578297Y-72638228D01*
X112514147Y-72793100D01*
X112421015Y-72932481D01*
X112302481Y-73051015D01*
X112163100Y-73144147D01*
X112008228Y-73208297D01*
X111843816Y-73241000D01*
X111676184Y-73241000D01*
X111511772Y-73208297D01*
X111356900Y-73144147D01*
X111217519Y-73051015D01*
X111098985Y-72932481D01*
X111005853Y-72793100D01*
X110941703Y-72638228D01*
X110909000Y-72473816D01*
X110909000Y-72306184D01*
X110941703Y-72141772D01*
X111005853Y-71986900D01*
X111098985Y-71847519D01*
X111217519Y-71728985D01*
X111356900Y-71635853D01*
X111511772Y-71571703D01*
X111676184Y-71539000D01*
X111843816Y-71539000D01*
X112008228Y-71571703D01*
X112008228Y-71571703D01*
G37*
G36*
X150026823Y-71551313D02*
G01*
X150187242Y-71599976D01*
X150254361Y-71635852D01*
X150335078Y-71678996D01*
X150464659Y-71785341D01*
X150571004Y-71914922D01*
X150571005Y-71914924D01*
X150650024Y-72062758D01*
X150698687Y-72223177D01*
X150715117Y-72390000D01*
X150698687Y-72556823D01*
X150650024Y-72717242D01*
X150609477Y-72793100D01*
X150571004Y-72865078D01*
X150464659Y-72994659D01*
X150335078Y-73101004D01*
X150335076Y-73101005D01*
X150187242Y-73180024D01*
X150026823Y-73228687D01*
X149901804Y-73241000D01*
X149818196Y-73241000D01*
X149693177Y-73228687D01*
X149532758Y-73180024D01*
X149384924Y-73101005D01*
X149384922Y-73101004D01*
X149255341Y-72994659D01*
X149148996Y-72865078D01*
X149110523Y-72793100D01*
X149069976Y-72717242D01*
X149021313Y-72556823D01*
X149004883Y-72390000D01*
X149021313Y-72223177D01*
X149069976Y-72062758D01*
X149148995Y-71914924D01*
X149148996Y-71914922D01*
X149255341Y-71785341D01*
X149384922Y-71678996D01*
X149465639Y-71635852D01*
X149532758Y-71599976D01*
X149693177Y-71551313D01*
X149818196Y-71539000D01*
X149901804Y-71539000D01*
X150026823Y-71551313D01*
X150026823Y-71551313D01*
G37*
G36*
X157728228Y-71571703D02*
G01*
X157883100Y-71635853D01*
X158022481Y-71728985D01*
X158141015Y-71847519D01*
X158234147Y-71986900D01*
X158298297Y-72141772D01*
X158331000Y-72306184D01*
X158331000Y-72473816D01*
X158298297Y-72638228D01*
X158234147Y-72793100D01*
X158141015Y-72932481D01*
X158022481Y-73051015D01*
X157883100Y-73144147D01*
X157728228Y-73208297D01*
X157563816Y-73241000D01*
X157396184Y-73241000D01*
X157231772Y-73208297D01*
X157076900Y-73144147D01*
X156937519Y-73051015D01*
X156818985Y-72932481D01*
X156725853Y-72793100D01*
X156661703Y-72638228D01*
X156629000Y-72473816D01*
X156629000Y-72306184D01*
X156661703Y-72141772D01*
X156725853Y-71986900D01*
X156818985Y-71847519D01*
X156937519Y-71728985D01*
X157076900Y-71635853D01*
X157231772Y-71571703D01*
X157396184Y-71539000D01*
X157563816Y-71539000D01*
X157728228Y-71571703D01*
X157728228Y-71571703D01*
G37*
G36*
X90418228Y-71571703D02*
G01*
X90573100Y-71635853D01*
X90712481Y-71728985D01*
X90831015Y-71847519D01*
X90924147Y-71986900D01*
X90988297Y-72141772D01*
X91021000Y-72306184D01*
X91021000Y-72473816D01*
X90988297Y-72638228D01*
X90924147Y-72793100D01*
X90831015Y-72932481D01*
X90712481Y-73051015D01*
X90573100Y-73144147D01*
X90418228Y-73208297D01*
X90253816Y-73241000D01*
X90086184Y-73241000D01*
X89921772Y-73208297D01*
X89766900Y-73144147D01*
X89627519Y-73051015D01*
X89508985Y-72932481D01*
X89415853Y-72793100D01*
X89351703Y-72638228D01*
X89319000Y-72473816D01*
X89319000Y-72306184D01*
X89351703Y-72141772D01*
X89415853Y-71986900D01*
X89508985Y-71847519D01*
X89627519Y-71728985D01*
X89766900Y-71635853D01*
X89921772Y-71571703D01*
X90086184Y-71539000D01*
X90253816Y-71539000D01*
X90418228Y-71571703D01*
X90418228Y-71571703D01*
G37*
G36*
X82716823Y-71551313D02*
G01*
X82877242Y-71599976D01*
X82944361Y-71635852D01*
X83025078Y-71678996D01*
X83154659Y-71785341D01*
X83261004Y-71914922D01*
X83261005Y-71914924D01*
X83340024Y-72062758D01*
X83388687Y-72223177D01*
X83405117Y-72390000D01*
X83388687Y-72556823D01*
X83340024Y-72717242D01*
X83299477Y-72793100D01*
X83261004Y-72865078D01*
X83154659Y-72994659D01*
X83025078Y-73101004D01*
X83025076Y-73101005D01*
X82877242Y-73180024D01*
X82716823Y-73228687D01*
X82591804Y-73241000D01*
X82508196Y-73241000D01*
X82383177Y-73228687D01*
X82222758Y-73180024D01*
X82074924Y-73101005D01*
X82074922Y-73101004D01*
X81945341Y-72994659D01*
X81838996Y-72865078D01*
X81800523Y-72793100D01*
X81759976Y-72717242D01*
X81711313Y-72556823D01*
X81694883Y-72390000D01*
X81711313Y-72223177D01*
X81759976Y-72062758D01*
X81838995Y-71914924D01*
X81838996Y-71914922D01*
X81945341Y-71785341D01*
X82074922Y-71678996D01*
X82155639Y-71635852D01*
X82222758Y-71599976D01*
X82383177Y-71551313D01*
X82508196Y-71539000D01*
X82591804Y-71539000D01*
X82716823Y-71551313D01*
X82716823Y-71551313D01*
G37*
G36*
X72556823Y-71551313D02*
G01*
X72717242Y-71599976D01*
X72784361Y-71635852D01*
X72865078Y-71678996D01*
X72994659Y-71785341D01*
X73101004Y-71914922D01*
X73101005Y-71914924D01*
X73180024Y-72062758D01*
X73228687Y-72223177D01*
X73245117Y-72390000D01*
X73228687Y-72556823D01*
X73180024Y-72717242D01*
X73139477Y-72793100D01*
X73101004Y-72865078D01*
X72994659Y-72994659D01*
X72865078Y-73101004D01*
X72865076Y-73101005D01*
X72717242Y-73180024D01*
X72556823Y-73228687D01*
X72431804Y-73241000D01*
X72348196Y-73241000D01*
X72223177Y-73228687D01*
X72062758Y-73180024D01*
X71914924Y-73101005D01*
X71914922Y-73101004D01*
X71785341Y-72994659D01*
X71678996Y-72865078D01*
X71640523Y-72793100D01*
X71599976Y-72717242D01*
X71551313Y-72556823D01*
X71534883Y-72390000D01*
X71551313Y-72223177D01*
X71599976Y-72062758D01*
X71678995Y-71914924D01*
X71678996Y-71914922D01*
X71785341Y-71785341D01*
X71914922Y-71678996D01*
X71995639Y-71635852D01*
X72062758Y-71599976D01*
X72223177Y-71551313D01*
X72348196Y-71539000D01*
X72431804Y-71539000D01*
X72556823Y-71551313D01*
X72556823Y-71551313D01*
G37*
G36*
X80258228Y-71571703D02*
G01*
X80413100Y-71635853D01*
X80552481Y-71728985D01*
X80671015Y-71847519D01*
X80764147Y-71986900D01*
X80828297Y-72141772D01*
X80861000Y-72306184D01*
X80861000Y-72473816D01*
X80828297Y-72638228D01*
X80764147Y-72793100D01*
X80671015Y-72932481D01*
X80552481Y-73051015D01*
X80413100Y-73144147D01*
X80258228Y-73208297D01*
X80093816Y-73241000D01*
X79926184Y-73241000D01*
X79761772Y-73208297D01*
X79606900Y-73144147D01*
X79467519Y-73051015D01*
X79348985Y-72932481D01*
X79255853Y-72793100D01*
X79191703Y-72638228D01*
X79159000Y-72473816D01*
X79159000Y-72306184D01*
X79191703Y-72141772D01*
X79255853Y-71986900D01*
X79348985Y-71847519D01*
X79467519Y-71728985D01*
X79606900Y-71635853D01*
X79761772Y-71571703D01*
X79926184Y-71539000D01*
X80093816Y-71539000D01*
X80258228Y-71571703D01*
X80258228Y-71571703D01*
G37*
G36*
X123438228Y-71571703D02*
G01*
X123593100Y-71635853D01*
X123732481Y-71728985D01*
X123851015Y-71847519D01*
X123944147Y-71986900D01*
X124008297Y-72141772D01*
X124041000Y-72306184D01*
X124041000Y-72473816D01*
X124008297Y-72638228D01*
X123944147Y-72793100D01*
X123851015Y-72932481D01*
X123732481Y-73051015D01*
X123593100Y-73144147D01*
X123438228Y-73208297D01*
X123273816Y-73241000D01*
X123106184Y-73241000D01*
X122941772Y-73208297D01*
X122786900Y-73144147D01*
X122647519Y-73051015D01*
X122528985Y-72932481D01*
X122435853Y-72793100D01*
X122371703Y-72638228D01*
X122339000Y-72473816D01*
X122339000Y-72306184D01*
X122371703Y-72141772D01*
X122435853Y-71986900D01*
X122528985Y-71847519D01*
X122647519Y-71728985D01*
X122786900Y-71635853D01*
X122941772Y-71571703D01*
X123106184Y-71539000D01*
X123273816Y-71539000D01*
X123438228Y-71571703D01*
X123438228Y-71571703D01*
G37*
G36*
X115736823Y-71551313D02*
G01*
X115897242Y-71599976D01*
X115964361Y-71635852D01*
X116045078Y-71678996D01*
X116174659Y-71785341D01*
X116281004Y-71914922D01*
X116281005Y-71914924D01*
X116360024Y-72062758D01*
X116408687Y-72223177D01*
X116425117Y-72390000D01*
X116408687Y-72556823D01*
X116360024Y-72717242D01*
X116319477Y-72793100D01*
X116281004Y-72865078D01*
X116174659Y-72994659D01*
X116045078Y-73101004D01*
X116045076Y-73101005D01*
X115897242Y-73180024D01*
X115736823Y-73228687D01*
X115611804Y-73241000D01*
X115528196Y-73241000D01*
X115403177Y-73228687D01*
X115242758Y-73180024D01*
X115094924Y-73101005D01*
X115094922Y-73101004D01*
X114965341Y-72994659D01*
X114858996Y-72865078D01*
X114820523Y-72793100D01*
X114779976Y-72717242D01*
X114731313Y-72556823D01*
X114714883Y-72390000D01*
X114731313Y-72223177D01*
X114779976Y-72062758D01*
X114858995Y-71914924D01*
X114858996Y-71914922D01*
X114965341Y-71785341D01*
X115094922Y-71678996D01*
X115175639Y-71635852D01*
X115242758Y-71599976D01*
X115403177Y-71551313D01*
X115528196Y-71539000D01*
X115611804Y-71539000D01*
X115736823Y-71551313D01*
X115736823Y-71551313D01*
G37*
G36*
X134868228Y-71571703D02*
G01*
X135023100Y-71635853D01*
X135162481Y-71728985D01*
X135281015Y-71847519D01*
X135374147Y-71986900D01*
X135438297Y-72141772D01*
X135471000Y-72306184D01*
X135471000Y-72473816D01*
X135438297Y-72638228D01*
X135374147Y-72793100D01*
X135281015Y-72932481D01*
X135162481Y-73051015D01*
X135023100Y-73144147D01*
X134868228Y-73208297D01*
X134703816Y-73241000D01*
X134536184Y-73241000D01*
X134371772Y-73208297D01*
X134216900Y-73144147D01*
X134077519Y-73051015D01*
X133958985Y-72932481D01*
X133865853Y-72793100D01*
X133801703Y-72638228D01*
X133769000Y-72473816D01*
X133769000Y-72306184D01*
X133801703Y-72141772D01*
X133865853Y-71986900D01*
X133958985Y-71847519D01*
X134077519Y-71728985D01*
X134216900Y-71635853D01*
X134371772Y-71571703D01*
X134536184Y-71539000D01*
X134703816Y-71539000D01*
X134868228Y-71571703D01*
X134868228Y-71571703D01*
G37*
G36*
X127166823Y-71551313D02*
G01*
X127327242Y-71599976D01*
X127394361Y-71635852D01*
X127475078Y-71678996D01*
X127604659Y-71785341D01*
X127711004Y-71914922D01*
X127711005Y-71914924D01*
X127790024Y-72062758D01*
X127838687Y-72223177D01*
X127855117Y-72390000D01*
X127838687Y-72556823D01*
X127790024Y-72717242D01*
X127749477Y-72793100D01*
X127711004Y-72865078D01*
X127604659Y-72994659D01*
X127475078Y-73101004D01*
X127475076Y-73101005D01*
X127327242Y-73180024D01*
X127166823Y-73228687D01*
X127041804Y-73241000D01*
X126958196Y-73241000D01*
X126833177Y-73228687D01*
X126672758Y-73180024D01*
X126524924Y-73101005D01*
X126524922Y-73101004D01*
X126395341Y-72994659D01*
X126288996Y-72865078D01*
X126250523Y-72793100D01*
X126209976Y-72717242D01*
X126161313Y-72556823D01*
X126144883Y-72390000D01*
X126161313Y-72223177D01*
X126209976Y-72062758D01*
X126288995Y-71914924D01*
X126288996Y-71914922D01*
X126395341Y-71785341D01*
X126524922Y-71678996D01*
X126605639Y-71635852D01*
X126672758Y-71599976D01*
X126833177Y-71551313D01*
X126958196Y-71539000D01*
X127041804Y-71539000D01*
X127166823Y-71551313D01*
X127166823Y-71551313D01*
G37*
G36*
X66288228Y-69031703D02*
G01*
X66443100Y-69095853D01*
X66582481Y-69188985D01*
X66701015Y-69307519D01*
X66794147Y-69446900D01*
X66858297Y-69601772D01*
X66891000Y-69766184D01*
X66891000Y-69933816D01*
X66858297Y-70098228D01*
X66794147Y-70253100D01*
X66701015Y-70392481D01*
X66582481Y-70511015D01*
X66443100Y-70604147D01*
X66288228Y-70668297D01*
X66123816Y-70701000D01*
X65956184Y-70701000D01*
X65791772Y-70668297D01*
X65636900Y-70604147D01*
X65497519Y-70511015D01*
X65378985Y-70392481D01*
X65285853Y-70253100D01*
X65221703Y-70098228D01*
X65189000Y-69933816D01*
X65189000Y-69766184D01*
X65221703Y-69601772D01*
X65285853Y-69446900D01*
X65378985Y-69307519D01*
X65497519Y-69188985D01*
X65636900Y-69095853D01*
X65791772Y-69031703D01*
X65956184Y-68999000D01*
X66123816Y-68999000D01*
X66288228Y-69031703D01*
X66288228Y-69031703D01*
G37*
G36*
X61126823Y-68249313D02*
G01*
X61287242Y-68297976D01*
X61354361Y-68333852D01*
X61435078Y-68376996D01*
X61564659Y-68483341D01*
X61671004Y-68612922D01*
X61671005Y-68612924D01*
X61750024Y-68760758D01*
X61798687Y-68921177D01*
X61815117Y-69088000D01*
X61798687Y-69254823D01*
X61750024Y-69415242D01*
X61709477Y-69491100D01*
X61671004Y-69563078D01*
X61564659Y-69692659D01*
X61435078Y-69799004D01*
X61435076Y-69799005D01*
X61287242Y-69878024D01*
X61126823Y-69926687D01*
X61001804Y-69939000D01*
X60918196Y-69939000D01*
X60793177Y-69926687D01*
X60632758Y-69878024D01*
X60484924Y-69799005D01*
X60484922Y-69799004D01*
X60355341Y-69692659D01*
X60248996Y-69563078D01*
X60210523Y-69491100D01*
X60169976Y-69415242D01*
X60121313Y-69254823D01*
X60104883Y-69088000D01*
X60121313Y-68921177D01*
X60169976Y-68760758D01*
X60248995Y-68612924D01*
X60248996Y-68612922D01*
X60355341Y-68483341D01*
X60484922Y-68376996D01*
X60565639Y-68333852D01*
X60632758Y-68297976D01*
X60793177Y-68249313D01*
X60918196Y-68237000D01*
X61001804Y-68237000D01*
X61126823Y-68249313D01*
X61126823Y-68249313D01*
G37*
G36*
X53588228Y-68269703D02*
G01*
X53743100Y-68333853D01*
X53882481Y-68426985D01*
X54001015Y-68545519D01*
X54094147Y-68684900D01*
X54158297Y-68839772D01*
X54191000Y-69004184D01*
X54191000Y-69171816D01*
X54158297Y-69336228D01*
X54094147Y-69491100D01*
X54001015Y-69630481D01*
X53882481Y-69749015D01*
X53743100Y-69842147D01*
X53588228Y-69906297D01*
X53423816Y-69939000D01*
X53256184Y-69939000D01*
X53091772Y-69906297D01*
X52936900Y-69842147D01*
X52797519Y-69749015D01*
X52678985Y-69630481D01*
X52585853Y-69491100D01*
X52521703Y-69336228D01*
X52489000Y-69171816D01*
X52489000Y-69004184D01*
X52521703Y-68839772D01*
X52585853Y-68684900D01*
X52678985Y-68545519D01*
X52797519Y-68426985D01*
X52936900Y-68333853D01*
X53091772Y-68269703D01*
X53256184Y-68237000D01*
X53423816Y-68237000D01*
X53588228Y-68269703D01*
X53588228Y-68269703D01*
G37*
G36*
X66288228Y-66531703D02*
G01*
X66443100Y-66595853D01*
X66582481Y-66688985D01*
X66701015Y-66807519D01*
X66794147Y-66946900D01*
X66858297Y-67101772D01*
X66891000Y-67266184D01*
X66891000Y-67433816D01*
X66858297Y-67598228D01*
X66794147Y-67753100D01*
X66701015Y-67892481D01*
X66582481Y-68011015D01*
X66443100Y-68104147D01*
X66288228Y-68168297D01*
X66123816Y-68201000D01*
X65956184Y-68201000D01*
X65791772Y-68168297D01*
X65636900Y-68104147D01*
X65497519Y-68011015D01*
X65378985Y-67892481D01*
X65285853Y-67753100D01*
X65221703Y-67598228D01*
X65189000Y-67433816D01*
X65189000Y-67266184D01*
X65221703Y-67101772D01*
X65285853Y-66946900D01*
X65378985Y-66807519D01*
X65497519Y-66688985D01*
X65636900Y-66595853D01*
X65791772Y-66531703D01*
X65956184Y-66499000D01*
X66123816Y-66499000D01*
X66288228Y-66531703D01*
X66288228Y-66531703D01*
G37*
G36*
X139948228Y-66491703D02*
G01*
X140103100Y-66555853D01*
X140242481Y-66648985D01*
X140361015Y-66767519D01*
X140454147Y-66906900D01*
X140518297Y-67061772D01*
X140551000Y-67226184D01*
X140551000Y-67393816D01*
X140518297Y-67558228D01*
X140454147Y-67713100D01*
X140361015Y-67852481D01*
X140242481Y-67971015D01*
X140103100Y-68064147D01*
X139948228Y-68128297D01*
X139783816Y-68161000D01*
X139616184Y-68161000D01*
X139451772Y-68128297D01*
X139296900Y-68064147D01*
X139157519Y-67971015D01*
X139038985Y-67852481D01*
X138945853Y-67713100D01*
X138881703Y-67558228D01*
X138849000Y-67393816D01*
X138849000Y-67226184D01*
X138881703Y-67061772D01*
X138945853Y-66906900D01*
X139038985Y-66767519D01*
X139157519Y-66648985D01*
X139296900Y-66555853D01*
X139451772Y-66491703D01*
X139616184Y-66459000D01*
X139783816Y-66459000D01*
X139948228Y-66491703D01*
X139948228Y-66491703D01*
G37*
G36*
X72638228Y-66491703D02*
G01*
X72793100Y-66555853D01*
X72932481Y-66648985D01*
X73051015Y-66767519D01*
X73144147Y-66906900D01*
X73208297Y-67061772D01*
X73241000Y-67226184D01*
X73241000Y-67393816D01*
X73208297Y-67558228D01*
X73144147Y-67713100D01*
X73051015Y-67852481D01*
X72932481Y-67971015D01*
X72793100Y-68064147D01*
X72638228Y-68128297D01*
X72473816Y-68161000D01*
X72306184Y-68161000D01*
X72141772Y-68128297D01*
X71986900Y-68064147D01*
X71847519Y-67971015D01*
X71728985Y-67852481D01*
X71635853Y-67713100D01*
X71571703Y-67558228D01*
X71539000Y-67393816D01*
X71539000Y-67226184D01*
X71571703Y-67061772D01*
X71635853Y-66906900D01*
X71728985Y-66767519D01*
X71847519Y-66648985D01*
X71986900Y-66555853D01*
X72141772Y-66491703D01*
X72306184Y-66459000D01*
X72473816Y-66459000D01*
X72638228Y-66491703D01*
X72638228Y-66491703D01*
G37*
G36*
X80176823Y-66471313D02*
G01*
X80337242Y-66519976D01*
X80378874Y-66542229D01*
X80485078Y-66598996D01*
X80614659Y-66705341D01*
X80721004Y-66834922D01*
X80721005Y-66834924D01*
X80800024Y-66982758D01*
X80848687Y-67143177D01*
X80865117Y-67310000D01*
X80848687Y-67476823D01*
X80800024Y-67637242D01*
X80729114Y-67769906D01*
X80721004Y-67785078D01*
X80614659Y-67914659D01*
X80485078Y-68021004D01*
X80485076Y-68021005D01*
X80337242Y-68100024D01*
X80337239Y-68100025D01*
X80323647Y-68104148D01*
X80176823Y-68148687D01*
X80051804Y-68161000D01*
X79968196Y-68161000D01*
X79843177Y-68148687D01*
X79696353Y-68104148D01*
X79682761Y-68100025D01*
X79682758Y-68100024D01*
X79534924Y-68021005D01*
X79534922Y-68021004D01*
X79405341Y-67914659D01*
X79298996Y-67785078D01*
X79290886Y-67769906D01*
X79219976Y-67637242D01*
X79171313Y-67476823D01*
X79154883Y-67310000D01*
X79171313Y-67143177D01*
X79219976Y-66982758D01*
X79298995Y-66834924D01*
X79298996Y-66834922D01*
X79405341Y-66705341D01*
X79534922Y-66598996D01*
X79641126Y-66542229D01*
X79682758Y-66519976D01*
X79843177Y-66471313D01*
X79968196Y-66459000D01*
X80051804Y-66459000D01*
X80176823Y-66471313D01*
X80176823Y-66471313D01*
G37*
G36*
X160522228Y-66491703D02*
G01*
X160677100Y-66555853D01*
X160816481Y-66648985D01*
X160935015Y-66767519D01*
X161028147Y-66906900D01*
X161092297Y-67061772D01*
X161125000Y-67226184D01*
X161125000Y-67393816D01*
X161092297Y-67558228D01*
X161028147Y-67713100D01*
X160935015Y-67852481D01*
X160816481Y-67971015D01*
X160677100Y-68064147D01*
X160522228Y-68128297D01*
X160357816Y-68161000D01*
X160190184Y-68161000D01*
X160025772Y-68128297D01*
X159870900Y-68064147D01*
X159731519Y-67971015D01*
X159612985Y-67852481D01*
X159519853Y-67713100D01*
X159455703Y-67558228D01*
X159423000Y-67393816D01*
X159423000Y-67226184D01*
X159455703Y-67061772D01*
X159519853Y-66906900D01*
X159612985Y-66767519D01*
X159731519Y-66648985D01*
X159870900Y-66555853D01*
X160025772Y-66491703D01*
X160190184Y-66459000D01*
X160357816Y-66459000D01*
X160522228Y-66491703D01*
X160522228Y-66491703D01*
G37*
G36*
X106928228Y-66491703D02*
G01*
X107083100Y-66555853D01*
X107222481Y-66648985D01*
X107341015Y-66767519D01*
X107434147Y-66906900D01*
X107498297Y-67061772D01*
X107531000Y-67226184D01*
X107531000Y-67393816D01*
X107498297Y-67558228D01*
X107434147Y-67713100D01*
X107341015Y-67852481D01*
X107222481Y-67971015D01*
X107083100Y-68064147D01*
X106928228Y-68128297D01*
X106763816Y-68161000D01*
X106596184Y-68161000D01*
X106431772Y-68128297D01*
X106276900Y-68064147D01*
X106137519Y-67971015D01*
X106018985Y-67852481D01*
X105925853Y-67713100D01*
X105861703Y-67558228D01*
X105829000Y-67393816D01*
X105829000Y-67226184D01*
X105861703Y-67061772D01*
X105925853Y-66906900D01*
X106018985Y-66767519D01*
X106137519Y-66648985D01*
X106276900Y-66555853D01*
X106431772Y-66491703D01*
X106596184Y-66459000D01*
X106763816Y-66459000D01*
X106928228Y-66491703D01*
X106928228Y-66491703D01*
G37*
G36*
X150026823Y-66471313D02*
G01*
X150187242Y-66519976D01*
X150228874Y-66542229D01*
X150335078Y-66598996D01*
X150464659Y-66705341D01*
X150571004Y-66834922D01*
X150571005Y-66834924D01*
X150650024Y-66982758D01*
X150698687Y-67143177D01*
X150715117Y-67310000D01*
X150698687Y-67476823D01*
X150650024Y-67637242D01*
X150579114Y-67769906D01*
X150571004Y-67785078D01*
X150464659Y-67914659D01*
X150335078Y-68021004D01*
X150335076Y-68021005D01*
X150187242Y-68100024D01*
X150187239Y-68100025D01*
X150173647Y-68104148D01*
X150026823Y-68148687D01*
X149901804Y-68161000D01*
X149818196Y-68161000D01*
X149693177Y-68148687D01*
X149546353Y-68104148D01*
X149532761Y-68100025D01*
X149532758Y-68100024D01*
X149384924Y-68021005D01*
X149384922Y-68021004D01*
X149255341Y-67914659D01*
X149148996Y-67785078D01*
X149140886Y-67769906D01*
X149069976Y-67637242D01*
X149021313Y-67476823D01*
X149004883Y-67310000D01*
X149021313Y-67143177D01*
X149069976Y-66982758D01*
X149148995Y-66834924D01*
X149148996Y-66834922D01*
X149255341Y-66705341D01*
X149384922Y-66598996D01*
X149491126Y-66542229D01*
X149532758Y-66519976D01*
X149693177Y-66471313D01*
X149818196Y-66459000D01*
X149901804Y-66459000D01*
X150026823Y-66471313D01*
X150026823Y-66471313D01*
G37*
G36*
X130976823Y-66471313D02*
G01*
X131137242Y-66519976D01*
X131178874Y-66542229D01*
X131285078Y-66598996D01*
X131414659Y-66705341D01*
X131521004Y-66834922D01*
X131521005Y-66834924D01*
X131600024Y-66982758D01*
X131648687Y-67143177D01*
X131665117Y-67310000D01*
X131648687Y-67476823D01*
X131600024Y-67637242D01*
X131529114Y-67769906D01*
X131521004Y-67785078D01*
X131414659Y-67914659D01*
X131285078Y-68021004D01*
X131285076Y-68021005D01*
X131137242Y-68100024D01*
X131137239Y-68100025D01*
X131123647Y-68104148D01*
X130976823Y-68148687D01*
X130851804Y-68161000D01*
X130768196Y-68161000D01*
X130643177Y-68148687D01*
X130496353Y-68104148D01*
X130482761Y-68100025D01*
X130482758Y-68100024D01*
X130334924Y-68021005D01*
X130334922Y-68021004D01*
X130205341Y-67914659D01*
X130098996Y-67785078D01*
X130090886Y-67769906D01*
X130019976Y-67637242D01*
X129971313Y-67476823D01*
X129954883Y-67310000D01*
X129971313Y-67143177D01*
X130019976Y-66982758D01*
X130098995Y-66834924D01*
X130098996Y-66834922D01*
X130205341Y-66705341D01*
X130334922Y-66598996D01*
X130441126Y-66542229D01*
X130482758Y-66519976D01*
X130643177Y-66471313D01*
X130768196Y-66459000D01*
X130851804Y-66459000D01*
X130976823Y-66471313D01*
X130976823Y-66471313D01*
G37*
G36*
X121406228Y-66491703D02*
G01*
X121561100Y-66555853D01*
X121700481Y-66648985D01*
X121819015Y-66767519D01*
X121912147Y-66906900D01*
X121976297Y-67061772D01*
X122009000Y-67226184D01*
X122009000Y-67393816D01*
X121976297Y-67558228D01*
X121912147Y-67713100D01*
X121819015Y-67852481D01*
X121700481Y-67971015D01*
X121561100Y-68064147D01*
X121406228Y-68128297D01*
X121241816Y-68161000D01*
X121074184Y-68161000D01*
X120909772Y-68128297D01*
X120754900Y-68064147D01*
X120615519Y-67971015D01*
X120496985Y-67852481D01*
X120403853Y-67713100D01*
X120339703Y-67558228D01*
X120307000Y-67393816D01*
X120307000Y-67226184D01*
X120339703Y-67061772D01*
X120403853Y-66906900D01*
X120496985Y-66767519D01*
X120615519Y-66648985D01*
X120754900Y-66555853D01*
X120909772Y-66491703D01*
X121074184Y-66459000D01*
X121241816Y-66459000D01*
X121406228Y-66491703D01*
X121406228Y-66491703D01*
G37*
G36*
X115818228Y-66491703D02*
G01*
X115973100Y-66555853D01*
X116112481Y-66648985D01*
X116231015Y-66767519D01*
X116324147Y-66906900D01*
X116388297Y-67061772D01*
X116421000Y-67226184D01*
X116421000Y-67393816D01*
X116388297Y-67558228D01*
X116324147Y-67713100D01*
X116231015Y-67852481D01*
X116112481Y-67971015D01*
X115973100Y-68064147D01*
X115818228Y-68128297D01*
X115653816Y-68161000D01*
X115486184Y-68161000D01*
X115321772Y-68128297D01*
X115166900Y-68064147D01*
X115027519Y-67971015D01*
X114908985Y-67852481D01*
X114815853Y-67713100D01*
X114751703Y-67558228D01*
X114719000Y-67393816D01*
X114719000Y-67226184D01*
X114751703Y-67061772D01*
X114815853Y-66906900D01*
X114908985Y-66767519D01*
X115027519Y-66648985D01*
X115166900Y-66555853D01*
X115321772Y-66491703D01*
X115486184Y-66459000D01*
X115653816Y-66459000D01*
X115818228Y-66491703D01*
X115818228Y-66491703D01*
G37*
G36*
X90336823Y-66471313D02*
G01*
X90497242Y-66519976D01*
X90538874Y-66542229D01*
X90645078Y-66598996D01*
X90774659Y-66705341D01*
X90881004Y-66834922D01*
X90881005Y-66834924D01*
X90960024Y-66982758D01*
X91008687Y-67143177D01*
X91025117Y-67310000D01*
X91008687Y-67476823D01*
X90960024Y-67637242D01*
X90889114Y-67769906D01*
X90881004Y-67785078D01*
X90774659Y-67914659D01*
X90645078Y-68021004D01*
X90645076Y-68021005D01*
X90497242Y-68100024D01*
X90497239Y-68100025D01*
X90483647Y-68104148D01*
X90336823Y-68148687D01*
X90211804Y-68161000D01*
X90128196Y-68161000D01*
X90003177Y-68148687D01*
X89856353Y-68104148D01*
X89842761Y-68100025D01*
X89842758Y-68100024D01*
X89694924Y-68021005D01*
X89694922Y-68021004D01*
X89565341Y-67914659D01*
X89458996Y-67785078D01*
X89450886Y-67769906D01*
X89379976Y-67637242D01*
X89331313Y-67476823D01*
X89314883Y-67310000D01*
X89331313Y-67143177D01*
X89379976Y-66982758D01*
X89458995Y-66834924D01*
X89458996Y-66834922D01*
X89565341Y-66705341D01*
X89694922Y-66598996D01*
X89801126Y-66542229D01*
X89842758Y-66519976D01*
X90003177Y-66471313D01*
X90128196Y-66459000D01*
X90211804Y-66459000D01*
X90336823Y-66471313D01*
X90336823Y-66471313D01*
G37*
G36*
X82798228Y-66491703D02*
G01*
X82953100Y-66555853D01*
X83092481Y-66648985D01*
X83211015Y-66767519D01*
X83304147Y-66906900D01*
X83368297Y-67061772D01*
X83401000Y-67226184D01*
X83401000Y-67393816D01*
X83368297Y-67558228D01*
X83304147Y-67713100D01*
X83211015Y-67852481D01*
X83092481Y-67971015D01*
X82953100Y-68064147D01*
X82798228Y-68128297D01*
X82633816Y-68161000D01*
X82466184Y-68161000D01*
X82301772Y-68128297D01*
X82146900Y-68064147D01*
X82007519Y-67971015D01*
X81888985Y-67852481D01*
X81795853Y-67713100D01*
X81731703Y-67558228D01*
X81699000Y-67393816D01*
X81699000Y-67226184D01*
X81731703Y-67061772D01*
X81795853Y-66906900D01*
X81888985Y-66767519D01*
X82007519Y-66648985D01*
X82146900Y-66555853D01*
X82301772Y-66491703D01*
X82466184Y-66459000D01*
X82633816Y-66459000D01*
X82798228Y-66491703D01*
X82798228Y-66491703D01*
G37*
G36*
X94228228Y-66491703D02*
G01*
X94383100Y-66555853D01*
X94522481Y-66648985D01*
X94641015Y-66767519D01*
X94734147Y-66906900D01*
X94798297Y-67061772D01*
X94831000Y-67226184D01*
X94831000Y-67393816D01*
X94798297Y-67558228D01*
X94734147Y-67713100D01*
X94641015Y-67852481D01*
X94522481Y-67971015D01*
X94383100Y-68064147D01*
X94228228Y-68128297D01*
X94063816Y-68161000D01*
X93896184Y-68161000D01*
X93731772Y-68128297D01*
X93576900Y-68064147D01*
X93437519Y-67971015D01*
X93318985Y-67852481D01*
X93225853Y-67713100D01*
X93161703Y-67558228D01*
X93129000Y-67393816D01*
X93129000Y-67226184D01*
X93161703Y-67061772D01*
X93225853Y-66906900D01*
X93318985Y-66767519D01*
X93437519Y-66648985D01*
X93576900Y-66555853D01*
X93731772Y-66491703D01*
X93896184Y-66459000D01*
X94063816Y-66459000D01*
X94228228Y-66491703D01*
X94228228Y-66491703D01*
G37*
G36*
X99308228Y-66491703D02*
G01*
X99463100Y-66555853D01*
X99602481Y-66648985D01*
X99721015Y-66767519D01*
X99814147Y-66906900D01*
X99878297Y-67061772D01*
X99911000Y-67226184D01*
X99911000Y-67393816D01*
X99878297Y-67558228D01*
X99814147Y-67713100D01*
X99721015Y-67852481D01*
X99602481Y-67971015D01*
X99463100Y-68064147D01*
X99308228Y-68128297D01*
X99143816Y-68161000D01*
X98976184Y-68161000D01*
X98811772Y-68128297D01*
X98656900Y-68064147D01*
X98517519Y-67971015D01*
X98398985Y-67852481D01*
X98305853Y-67713100D01*
X98241703Y-67558228D01*
X98209000Y-67393816D01*
X98209000Y-67226184D01*
X98241703Y-67061772D01*
X98305853Y-66906900D01*
X98398985Y-66767519D01*
X98517519Y-66648985D01*
X98656900Y-66555853D01*
X98811772Y-66491703D01*
X98976184Y-66459000D01*
X99143816Y-66459000D01*
X99308228Y-66491703D01*
X99308228Y-66491703D01*
G37*
G36*
X103372228Y-65475703D02*
G01*
X103527100Y-65539853D01*
X103666481Y-65632985D01*
X103785015Y-65751519D01*
X103878147Y-65890900D01*
X103942297Y-66045772D01*
X103975000Y-66210184D01*
X103975000Y-66377816D01*
X103942297Y-66542228D01*
X103878147Y-66697100D01*
X103785015Y-66836481D01*
X103666481Y-66955015D01*
X103527100Y-67048147D01*
X103372228Y-67112297D01*
X103207816Y-67145000D01*
X103040184Y-67145000D01*
X102875772Y-67112297D01*
X102720900Y-67048147D01*
X102581519Y-66955015D01*
X102462985Y-66836481D01*
X102369853Y-66697100D01*
X102305703Y-66542228D01*
X102273000Y-66377816D01*
X102273000Y-66210184D01*
X102305703Y-66045772D01*
X102369853Y-65890900D01*
X102462985Y-65751519D01*
X102581519Y-65632985D01*
X102720900Y-65539853D01*
X102875772Y-65475703D01*
X103040184Y-65443000D01*
X103207816Y-65443000D01*
X103372228Y-65475703D01*
X103372228Y-65475703D01*
G37*
G36*
X53506823Y-63423313D02*
G01*
X53667242Y-63471976D01*
X53799906Y-63542886D01*
X53815078Y-63550996D01*
X53944659Y-63657341D01*
X54051004Y-63786922D01*
X54051005Y-63786924D01*
X54130024Y-63934758D01*
X54178687Y-64095177D01*
X54195117Y-64262000D01*
X54178687Y-64428823D01*
X54130024Y-64589242D01*
X54089477Y-64665100D01*
X54051004Y-64737078D01*
X53944659Y-64866659D01*
X53815078Y-64973004D01*
X53815076Y-64973005D01*
X53667242Y-65052024D01*
X53506823Y-65100687D01*
X53381804Y-65113000D01*
X53298196Y-65113000D01*
X53173177Y-65100687D01*
X53012758Y-65052024D01*
X52864924Y-64973005D01*
X52864922Y-64973004D01*
X52735341Y-64866659D01*
X52628996Y-64737078D01*
X52590523Y-64665100D01*
X52549976Y-64589242D01*
X52501313Y-64428823D01*
X52484883Y-64262000D01*
X52501313Y-64095177D01*
X52549976Y-63934758D01*
X52628995Y-63786924D01*
X52628996Y-63786922D01*
X52735341Y-63657341D01*
X52864922Y-63550996D01*
X52880094Y-63542886D01*
X53012758Y-63471976D01*
X53173177Y-63423313D01*
X53298196Y-63411000D01*
X53381804Y-63411000D01*
X53506823Y-63423313D01*
X53506823Y-63423313D01*
G37*
G36*
X64510228Y-63443703D02*
G01*
X64665100Y-63507853D01*
X64804481Y-63600985D01*
X64923015Y-63719519D01*
X65016147Y-63858900D01*
X65080297Y-64013772D01*
X65113000Y-64178184D01*
X65113000Y-64345816D01*
X65080297Y-64510228D01*
X65016147Y-64665100D01*
X64923015Y-64804481D01*
X64804481Y-64923015D01*
X64665100Y-65016147D01*
X64510228Y-65080297D01*
X64345816Y-65113000D01*
X64178184Y-65113000D01*
X64013772Y-65080297D01*
X63858900Y-65016147D01*
X63719519Y-64923015D01*
X63600985Y-64804481D01*
X63507853Y-64665100D01*
X63443703Y-64510228D01*
X63411000Y-64345816D01*
X63411000Y-64178184D01*
X63443703Y-64013772D01*
X63507853Y-63858900D01*
X63600985Y-63719519D01*
X63719519Y-63600985D01*
X63858900Y-63507853D01*
X64013772Y-63443703D01*
X64178184Y-63411000D01*
X64345816Y-63411000D01*
X64510228Y-63443703D01*
X64510228Y-63443703D01*
G37*
G36*
X72048823Y-63423313D02*
G01*
X72209242Y-63471976D01*
X72341906Y-63542886D01*
X72357078Y-63550996D01*
X72486659Y-63657341D01*
X72593004Y-63786922D01*
X72593005Y-63786924D01*
X72672024Y-63934758D01*
X72720687Y-64095177D01*
X72737117Y-64262000D01*
X72720687Y-64428823D01*
X72672024Y-64589242D01*
X72631477Y-64665100D01*
X72593004Y-64737078D01*
X72486659Y-64866659D01*
X72357078Y-64973004D01*
X72357076Y-64973005D01*
X72209242Y-65052024D01*
X72048823Y-65100687D01*
X71923804Y-65113000D01*
X71840196Y-65113000D01*
X71715177Y-65100687D01*
X71554758Y-65052024D01*
X71406924Y-64973005D01*
X71406922Y-64973004D01*
X71277341Y-64866659D01*
X71170996Y-64737078D01*
X71132523Y-64665100D01*
X71091976Y-64589242D01*
X71043313Y-64428823D01*
X71026883Y-64262000D01*
X71043313Y-64095177D01*
X71091976Y-63934758D01*
X71170995Y-63786924D01*
X71170996Y-63786922D01*
X71277341Y-63657341D01*
X71406922Y-63550996D01*
X71422094Y-63542886D01*
X71554758Y-63471976D01*
X71715177Y-63423313D01*
X71840196Y-63411000D01*
X71923804Y-63411000D01*
X72048823Y-63423313D01*
X72048823Y-63423313D01*
G37*
G36*
X61208228Y-63443703D02*
G01*
X61363100Y-63507853D01*
X61502481Y-63600985D01*
X61621015Y-63719519D01*
X61714147Y-63858900D01*
X61778297Y-64013772D01*
X61811000Y-64178184D01*
X61811000Y-64345816D01*
X61778297Y-64510228D01*
X61714147Y-64665100D01*
X61621015Y-64804481D01*
X61502481Y-64923015D01*
X61363100Y-65016147D01*
X61208228Y-65080297D01*
X61043816Y-65113000D01*
X60876184Y-65113000D01*
X60711772Y-65080297D01*
X60556900Y-65016147D01*
X60417519Y-64923015D01*
X60298985Y-64804481D01*
X60205853Y-64665100D01*
X60141703Y-64510228D01*
X60109000Y-64345816D01*
X60109000Y-64178184D01*
X60141703Y-64013772D01*
X60205853Y-63858900D01*
X60298985Y-63719519D01*
X60417519Y-63600985D01*
X60556900Y-63507853D01*
X60711772Y-63443703D01*
X60876184Y-63411000D01*
X61043816Y-63411000D01*
X61208228Y-63443703D01*
X61208228Y-63443703D01*
G37*
G36*
X111754228Y-63189703D02*
G01*
X111909100Y-63253853D01*
X112048481Y-63346985D01*
X112167015Y-63465519D01*
X112260147Y-63604900D01*
X112324297Y-63759772D01*
X112357000Y-63924184D01*
X112357000Y-64091816D01*
X112324297Y-64256228D01*
X112260147Y-64411100D01*
X112167015Y-64550481D01*
X112048481Y-64669015D01*
X111909100Y-64762147D01*
X111754228Y-64826297D01*
X111589816Y-64859000D01*
X111422184Y-64859000D01*
X111257772Y-64826297D01*
X111102900Y-64762147D01*
X110963519Y-64669015D01*
X110844985Y-64550481D01*
X110751853Y-64411100D01*
X110687703Y-64256228D01*
X110655000Y-64091816D01*
X110655000Y-63924184D01*
X110687703Y-63759772D01*
X110751853Y-63604900D01*
X110844985Y-63465519D01*
X110963519Y-63346985D01*
X111102900Y-63253853D01*
X111257772Y-63189703D01*
X111422184Y-63157000D01*
X111589816Y-63157000D01*
X111754228Y-63189703D01*
X111754228Y-63189703D01*
G37*
G36*
X103372228Y-62975703D02*
G01*
X103527100Y-63039853D01*
X103666481Y-63132985D01*
X103785015Y-63251519D01*
X103878147Y-63390900D01*
X103942297Y-63545772D01*
X103975000Y-63710184D01*
X103975000Y-63877816D01*
X103942297Y-64042228D01*
X103878147Y-64197100D01*
X103785015Y-64336481D01*
X103666481Y-64455015D01*
X103527100Y-64548147D01*
X103372228Y-64612297D01*
X103207816Y-64645000D01*
X103040184Y-64645000D01*
X102875772Y-64612297D01*
X102720900Y-64548147D01*
X102581519Y-64455015D01*
X102462985Y-64336481D01*
X102369853Y-64197100D01*
X102305703Y-64042228D01*
X102273000Y-63877816D01*
X102273000Y-63710184D01*
X102305703Y-63545772D01*
X102369853Y-63390900D01*
X102462985Y-63251519D01*
X102581519Y-63132985D01*
X102720900Y-63039853D01*
X102875772Y-62975703D01*
X103040184Y-62943000D01*
X103207816Y-62943000D01*
X103372228Y-62975703D01*
X103372228Y-62975703D01*
G37*
G36*
X135884228Y-62681703D02*
G01*
X136039100Y-62745853D01*
X136178481Y-62838985D01*
X136297015Y-62957519D01*
X136390147Y-63096900D01*
X136454297Y-63251772D01*
X136487000Y-63416184D01*
X136487000Y-63583816D01*
X136454297Y-63748228D01*
X136390147Y-63903100D01*
X136297015Y-64042481D01*
X136178481Y-64161015D01*
X136039100Y-64254147D01*
X135884228Y-64318297D01*
X135719816Y-64351000D01*
X135552184Y-64351000D01*
X135387772Y-64318297D01*
X135232900Y-64254147D01*
X135093519Y-64161015D01*
X134974985Y-64042481D01*
X134881853Y-63903100D01*
X134817703Y-63748228D01*
X134785000Y-63583816D01*
X134785000Y-63416184D01*
X134817703Y-63251772D01*
X134881853Y-63096900D01*
X134974985Y-62957519D01*
X135093519Y-62838985D01*
X135232900Y-62745853D01*
X135387772Y-62681703D01*
X135552184Y-62649000D01*
X135719816Y-62649000D01*
X135884228Y-62681703D01*
X135884228Y-62681703D01*
G37*
G36*
X88172228Y-62681703D02*
G01*
X88327100Y-62745853D01*
X88466481Y-62838985D01*
X88585015Y-62957519D01*
X88678147Y-63096900D01*
X88742297Y-63251772D01*
X88775000Y-63416184D01*
X88775000Y-63583816D01*
X88742297Y-63748228D01*
X88678147Y-63903100D01*
X88585015Y-64042481D01*
X88466481Y-64161015D01*
X88327100Y-64254147D01*
X88172228Y-64318297D01*
X88007816Y-64351000D01*
X87840184Y-64351000D01*
X87675772Y-64318297D01*
X87520900Y-64254147D01*
X87381519Y-64161015D01*
X87262985Y-64042481D01*
X87169853Y-63903100D01*
X87105703Y-63748228D01*
X87073000Y-63583816D01*
X87073000Y-63416184D01*
X87105703Y-63251772D01*
X87169853Y-63096900D01*
X87262985Y-62957519D01*
X87381519Y-62838985D01*
X87520900Y-62745853D01*
X87675772Y-62681703D01*
X87840184Y-62649000D01*
X88007816Y-62649000D01*
X88172228Y-62681703D01*
X88172228Y-62681703D01*
G37*
G36*
X90672228Y-62681703D02*
G01*
X90827100Y-62745853D01*
X90966481Y-62838985D01*
X91085015Y-62957519D01*
X91178147Y-63096900D01*
X91242297Y-63251772D01*
X91275000Y-63416184D01*
X91275000Y-63583816D01*
X91242297Y-63748228D01*
X91178147Y-63903100D01*
X91085015Y-64042481D01*
X90966481Y-64161015D01*
X90827100Y-64254147D01*
X90672228Y-64318297D01*
X90507816Y-64351000D01*
X90340184Y-64351000D01*
X90175772Y-64318297D01*
X90020900Y-64254147D01*
X89881519Y-64161015D01*
X89762985Y-64042481D01*
X89669853Y-63903100D01*
X89605703Y-63748228D01*
X89573000Y-63583816D01*
X89573000Y-63416184D01*
X89605703Y-63251772D01*
X89669853Y-63096900D01*
X89762985Y-62957519D01*
X89881519Y-62838985D01*
X90020900Y-62745853D01*
X90175772Y-62681703D01*
X90340184Y-62649000D01*
X90507816Y-62649000D01*
X90672228Y-62681703D01*
X90672228Y-62681703D01*
G37*
G36*
X126232228Y-62681703D02*
G01*
X126387100Y-62745853D01*
X126526481Y-62838985D01*
X126645015Y-62957519D01*
X126738147Y-63096900D01*
X126802297Y-63251772D01*
X126835000Y-63416184D01*
X126835000Y-63583816D01*
X126802297Y-63748228D01*
X126738147Y-63903100D01*
X126645015Y-64042481D01*
X126526481Y-64161015D01*
X126387100Y-64254147D01*
X126232228Y-64318297D01*
X126067816Y-64351000D01*
X125900184Y-64351000D01*
X125735772Y-64318297D01*
X125580900Y-64254147D01*
X125441519Y-64161015D01*
X125322985Y-64042481D01*
X125229853Y-63903100D01*
X125165703Y-63748228D01*
X125133000Y-63583816D01*
X125133000Y-63416184D01*
X125165703Y-63251772D01*
X125229853Y-63096900D01*
X125322985Y-62957519D01*
X125441519Y-62838985D01*
X125580900Y-62745853D01*
X125735772Y-62681703D01*
X125900184Y-62649000D01*
X126067816Y-62649000D01*
X126232228Y-62681703D01*
X126232228Y-62681703D01*
G37*
G36*
X145536228Y-62681703D02*
G01*
X145691100Y-62745853D01*
X145830481Y-62838985D01*
X145949015Y-62957519D01*
X146042147Y-63096900D01*
X146106297Y-63251772D01*
X146139000Y-63416184D01*
X146139000Y-63583816D01*
X146106297Y-63748228D01*
X146042147Y-63903100D01*
X145949015Y-64042481D01*
X145830481Y-64161015D01*
X145691100Y-64254147D01*
X145536228Y-64318297D01*
X145371816Y-64351000D01*
X145204184Y-64351000D01*
X145039772Y-64318297D01*
X144884900Y-64254147D01*
X144745519Y-64161015D01*
X144626985Y-64042481D01*
X144533853Y-63903100D01*
X144469703Y-63748228D01*
X144437000Y-63583816D01*
X144437000Y-63416184D01*
X144469703Y-63251772D01*
X144533853Y-63096900D01*
X144626985Y-62957519D01*
X144745519Y-62838985D01*
X144884900Y-62745853D01*
X145039772Y-62681703D01*
X145204184Y-62649000D01*
X145371816Y-62649000D01*
X145536228Y-62681703D01*
X145536228Y-62681703D01*
G37*
G36*
X155442228Y-62681703D02*
G01*
X155597100Y-62745853D01*
X155736481Y-62838985D01*
X155855015Y-62957519D01*
X155948147Y-63096900D01*
X156012297Y-63251772D01*
X156045000Y-63416184D01*
X156045000Y-63583816D01*
X156012297Y-63748228D01*
X155948147Y-63903100D01*
X155855015Y-64042481D01*
X155736481Y-64161015D01*
X155597100Y-64254147D01*
X155442228Y-64318297D01*
X155277816Y-64351000D01*
X155110184Y-64351000D01*
X154945772Y-64318297D01*
X154790900Y-64254147D01*
X154651519Y-64161015D01*
X154532985Y-64042481D01*
X154439853Y-63903100D01*
X154375703Y-63748228D01*
X154343000Y-63583816D01*
X154343000Y-63416184D01*
X154375703Y-63251772D01*
X154439853Y-63096900D01*
X154532985Y-62957519D01*
X154651519Y-62838985D01*
X154790900Y-62745853D01*
X154945772Y-62681703D01*
X155110184Y-62649000D01*
X155277816Y-62649000D01*
X155442228Y-62681703D01*
X155442228Y-62681703D01*
G37*
G36*
X85764823Y-62153313D02*
G01*
X85925242Y-62201976D01*
X86057906Y-62272886D01*
X86073078Y-62280996D01*
X86202659Y-62387341D01*
X86309004Y-62516922D01*
X86309005Y-62516924D01*
X86388024Y-62664758D01*
X86436687Y-62825177D01*
X86453117Y-62992000D01*
X86436687Y-63158823D01*
X86388024Y-63319242D01*
X86347477Y-63395100D01*
X86309004Y-63467078D01*
X86202659Y-63596659D01*
X86073078Y-63703004D01*
X86073076Y-63703005D01*
X85925242Y-63782024D01*
X85764823Y-63830687D01*
X85639804Y-63843000D01*
X85556196Y-63843000D01*
X85431177Y-63830687D01*
X85270758Y-63782024D01*
X85122924Y-63703005D01*
X85122922Y-63703004D01*
X84993341Y-63596659D01*
X84886996Y-63467078D01*
X84848523Y-63395100D01*
X84807976Y-63319242D01*
X84759313Y-63158823D01*
X84742883Y-62992000D01*
X84759313Y-62825177D01*
X84807976Y-62664758D01*
X84886995Y-62516924D01*
X84886996Y-62516922D01*
X84993341Y-62387341D01*
X85122922Y-62280996D01*
X85138094Y-62272886D01*
X85270758Y-62201976D01*
X85431177Y-62153313D01*
X85556196Y-62141000D01*
X85639804Y-62141000D01*
X85764823Y-62153313D01*
X85764823Y-62153313D01*
G37*
G36*
X78226228Y-62173703D02*
G01*
X78381100Y-62237853D01*
X78520481Y-62330985D01*
X78639015Y-62449519D01*
X78732147Y-62588900D01*
X78796297Y-62743772D01*
X78829000Y-62908184D01*
X78829000Y-63075816D01*
X78796297Y-63240228D01*
X78732147Y-63395100D01*
X78639015Y-63534481D01*
X78520481Y-63653015D01*
X78381100Y-63746147D01*
X78226228Y-63810297D01*
X78061816Y-63843000D01*
X77894184Y-63843000D01*
X77729772Y-63810297D01*
X77574900Y-63746147D01*
X77435519Y-63653015D01*
X77316985Y-63534481D01*
X77223853Y-63395100D01*
X77159703Y-63240228D01*
X77127000Y-63075816D01*
X77127000Y-62908184D01*
X77159703Y-62743772D01*
X77223853Y-62588900D01*
X77316985Y-62449519D01*
X77435519Y-62330985D01*
X77574900Y-62237853D01*
X77729772Y-62173703D01*
X77894184Y-62141000D01*
X78061816Y-62141000D01*
X78226228Y-62173703D01*
X78226228Y-62173703D01*
G37*
G36*
X75178228Y-60903703D02*
G01*
X75333100Y-60967853D01*
X75472481Y-61060985D01*
X75591015Y-61179519D01*
X75684147Y-61318900D01*
X75748297Y-61473772D01*
X75781000Y-61638184D01*
X75781000Y-61805816D01*
X75748297Y-61970228D01*
X75684147Y-62125100D01*
X75591015Y-62264481D01*
X75472481Y-62383015D01*
X75333100Y-62476147D01*
X75178228Y-62540297D01*
X75013816Y-62573000D01*
X74846184Y-62573000D01*
X74681772Y-62540297D01*
X74526900Y-62476147D01*
X74387519Y-62383015D01*
X74268985Y-62264481D01*
X74175853Y-62125100D01*
X74111703Y-61970228D01*
X74079000Y-61805816D01*
X74079000Y-61638184D01*
X74111703Y-61473772D01*
X74175853Y-61318900D01*
X74268985Y-61179519D01*
X74387519Y-61060985D01*
X74526900Y-60967853D01*
X74681772Y-60903703D01*
X74846184Y-60871000D01*
X75013816Y-60871000D01*
X75178228Y-60903703D01*
X75178228Y-60903703D01*
G37*
G36*
X111754228Y-60689703D02*
G01*
X111909100Y-60753853D01*
X112048481Y-60846985D01*
X112167015Y-60965519D01*
X112260147Y-61104900D01*
X112324297Y-61259772D01*
X112357000Y-61424184D01*
X112357000Y-61591816D01*
X112324297Y-61756228D01*
X112260147Y-61911100D01*
X112167015Y-62050481D01*
X112048481Y-62169015D01*
X111909100Y-62262147D01*
X111754228Y-62326297D01*
X111589816Y-62359000D01*
X111422184Y-62359000D01*
X111257772Y-62326297D01*
X111102900Y-62262147D01*
X110963519Y-62169015D01*
X110844985Y-62050481D01*
X110751853Y-61911100D01*
X110687703Y-61756228D01*
X110655000Y-61591816D01*
X110655000Y-61424184D01*
X110687703Y-61259772D01*
X110751853Y-61104900D01*
X110844985Y-60965519D01*
X110963519Y-60846985D01*
X111102900Y-60753853D01*
X111257772Y-60689703D01*
X111422184Y-60657000D01*
X111589816Y-60657000D01*
X111754228Y-60689703D01*
X111754228Y-60689703D01*
G37*
G36*
X126232228Y-60181703D02*
G01*
X126387100Y-60245853D01*
X126526481Y-60338985D01*
X126645015Y-60457519D01*
X126738147Y-60596900D01*
X126802297Y-60751772D01*
X126835000Y-60916184D01*
X126835000Y-61083816D01*
X126802297Y-61248228D01*
X126738147Y-61403100D01*
X126645015Y-61542481D01*
X126526481Y-61661015D01*
X126387100Y-61754147D01*
X126232228Y-61818297D01*
X126067816Y-61851000D01*
X125900184Y-61851000D01*
X125735772Y-61818297D01*
X125580900Y-61754147D01*
X125441519Y-61661015D01*
X125322985Y-61542481D01*
X125229853Y-61403100D01*
X125165703Y-61248228D01*
X125133000Y-61083816D01*
X125133000Y-60916184D01*
X125165703Y-60751772D01*
X125229853Y-60596900D01*
X125322985Y-60457519D01*
X125441519Y-60338985D01*
X125580900Y-60245853D01*
X125735772Y-60181703D01*
X125900184Y-60149000D01*
X126067816Y-60149000D01*
X126232228Y-60181703D01*
X126232228Y-60181703D01*
G37*
G36*
X135884228Y-60181703D02*
G01*
X136039100Y-60245853D01*
X136178481Y-60338985D01*
X136297015Y-60457519D01*
X136390147Y-60596900D01*
X136454297Y-60751772D01*
X136487000Y-60916184D01*
X136487000Y-61083816D01*
X136454297Y-61248228D01*
X136390147Y-61403100D01*
X136297015Y-61542481D01*
X136178481Y-61661015D01*
X136039100Y-61754147D01*
X135884228Y-61818297D01*
X135719816Y-61851000D01*
X135552184Y-61851000D01*
X135387772Y-61818297D01*
X135232900Y-61754147D01*
X135093519Y-61661015D01*
X134974985Y-61542481D01*
X134881853Y-61403100D01*
X134817703Y-61248228D01*
X134785000Y-61083816D01*
X134785000Y-60916184D01*
X134817703Y-60751772D01*
X134881853Y-60596900D01*
X134974985Y-60457519D01*
X135093519Y-60338985D01*
X135232900Y-60245853D01*
X135387772Y-60181703D01*
X135552184Y-60149000D01*
X135719816Y-60149000D01*
X135884228Y-60181703D01*
X135884228Y-60181703D01*
G37*
G36*
X145536228Y-60181703D02*
G01*
X145691100Y-60245853D01*
X145830481Y-60338985D01*
X145949015Y-60457519D01*
X146042147Y-60596900D01*
X146106297Y-60751772D01*
X146139000Y-60916184D01*
X146139000Y-61083816D01*
X146106297Y-61248228D01*
X146042147Y-61403100D01*
X145949015Y-61542481D01*
X145830481Y-61661015D01*
X145691100Y-61754147D01*
X145536228Y-61818297D01*
X145371816Y-61851000D01*
X145204184Y-61851000D01*
X145039772Y-61818297D01*
X144884900Y-61754147D01*
X144745519Y-61661015D01*
X144626985Y-61542481D01*
X144533853Y-61403100D01*
X144469703Y-61248228D01*
X144437000Y-61083816D01*
X144437000Y-60916184D01*
X144469703Y-60751772D01*
X144533853Y-60596900D01*
X144626985Y-60457519D01*
X144745519Y-60338985D01*
X144884900Y-60245853D01*
X145039772Y-60181703D01*
X145204184Y-60149000D01*
X145371816Y-60149000D01*
X145536228Y-60181703D01*
X145536228Y-60181703D01*
G37*
G36*
X155442228Y-60181703D02*
G01*
X155597100Y-60245853D01*
X155736481Y-60338985D01*
X155855015Y-60457519D01*
X155948147Y-60596900D01*
X156012297Y-60751772D01*
X156045000Y-60916184D01*
X156045000Y-61083816D01*
X156012297Y-61248228D01*
X155948147Y-61403100D01*
X155855015Y-61542481D01*
X155736481Y-61661015D01*
X155597100Y-61754147D01*
X155442228Y-61818297D01*
X155277816Y-61851000D01*
X155110184Y-61851000D01*
X154945772Y-61818297D01*
X154790900Y-61754147D01*
X154651519Y-61661015D01*
X154532985Y-61542481D01*
X154439853Y-61403100D01*
X154375703Y-61248228D01*
X154343000Y-61083816D01*
X154343000Y-60916184D01*
X154375703Y-60751772D01*
X154439853Y-60596900D01*
X154532985Y-60457519D01*
X154651519Y-60338985D01*
X154790900Y-60245853D01*
X154945772Y-60181703D01*
X155110184Y-60149000D01*
X155277816Y-60149000D01*
X155442228Y-60181703D01*
X155442228Y-60181703D01*
G37*
G36*
X64428823Y-59105313D02*
G01*
X64589242Y-59153976D01*
X64721906Y-59224886D01*
X64737078Y-59232996D01*
X64866659Y-59339341D01*
X64973004Y-59468922D01*
X64973005Y-59468924D01*
X65052024Y-59616758D01*
X65100687Y-59777177D01*
X65117117Y-59944000D01*
X65100687Y-60110823D01*
X65052024Y-60271242D01*
X65011477Y-60347100D01*
X64973004Y-60419078D01*
X64866659Y-60548659D01*
X64737078Y-60655004D01*
X64737076Y-60655005D01*
X64589242Y-60734024D01*
X64428823Y-60782687D01*
X64303804Y-60795000D01*
X64220196Y-60795000D01*
X64095177Y-60782687D01*
X63934758Y-60734024D01*
X63786924Y-60655005D01*
X63786922Y-60655004D01*
X63657341Y-60548659D01*
X63550996Y-60419078D01*
X63512523Y-60347100D01*
X63471976Y-60271242D01*
X63423313Y-60110823D01*
X63406883Y-59944000D01*
X63423313Y-59777177D01*
X63471976Y-59616758D01*
X63550995Y-59468924D01*
X63550996Y-59468922D01*
X63657341Y-59339341D01*
X63786922Y-59232996D01*
X63802094Y-59224886D01*
X63934758Y-59153976D01*
X64095177Y-59105313D01*
X64220196Y-59093000D01*
X64303804Y-59093000D01*
X64428823Y-59105313D01*
X64428823Y-59105313D01*
G37*
G36*
X72130228Y-59125703D02*
G01*
X72285100Y-59189853D01*
X72424481Y-59282985D01*
X72543015Y-59401519D01*
X72636147Y-59540900D01*
X72700297Y-59695772D01*
X72733000Y-59860184D01*
X72733000Y-60027816D01*
X72700297Y-60192228D01*
X72636147Y-60347100D01*
X72543015Y-60486481D01*
X72424481Y-60605015D01*
X72285100Y-60698147D01*
X72130228Y-60762297D01*
X71965816Y-60795000D01*
X71798184Y-60795000D01*
X71633772Y-60762297D01*
X71478900Y-60698147D01*
X71339519Y-60605015D01*
X71220985Y-60486481D01*
X71127853Y-60347100D01*
X71063703Y-60192228D01*
X71031000Y-60027816D01*
X71031000Y-59860184D01*
X71063703Y-59695772D01*
X71127853Y-59540900D01*
X71220985Y-59401519D01*
X71339519Y-59282985D01*
X71478900Y-59189853D01*
X71633772Y-59125703D01*
X71798184Y-59093000D01*
X71965816Y-59093000D01*
X72130228Y-59125703D01*
X72130228Y-59125703D01*
G37*
G36*
X115736823Y-58851313D02*
G01*
X115897242Y-58899976D01*
X115964361Y-58935852D01*
X116045078Y-58978996D01*
X116174659Y-59085341D01*
X116281004Y-59214922D01*
X116281005Y-59214924D01*
X116360024Y-59362758D01*
X116408687Y-59523177D01*
X116425117Y-59690000D01*
X116408687Y-59856823D01*
X116360024Y-60017242D01*
X116319477Y-60093100D01*
X116281004Y-60165078D01*
X116174659Y-60294659D01*
X116045078Y-60401004D01*
X116045076Y-60401005D01*
X115897242Y-60480024D01*
X115736823Y-60528687D01*
X115611804Y-60541000D01*
X115528196Y-60541000D01*
X115403177Y-60528687D01*
X115242758Y-60480024D01*
X115094924Y-60401005D01*
X115094922Y-60401004D01*
X114965341Y-60294659D01*
X114858996Y-60165078D01*
X114820523Y-60093100D01*
X114779976Y-60017242D01*
X114731313Y-59856823D01*
X114714883Y-59690000D01*
X114731313Y-59523177D01*
X114779976Y-59362758D01*
X114858995Y-59214924D01*
X114858996Y-59214922D01*
X114965341Y-59085341D01*
X115094922Y-58978996D01*
X115175639Y-58935852D01*
X115242758Y-58899976D01*
X115403177Y-58851313D01*
X115528196Y-58839000D01*
X115611804Y-58839000D01*
X115736823Y-58851313D01*
X115736823Y-58851313D01*
G37*
G36*
X61126823Y-58851313D02*
G01*
X61287242Y-58899976D01*
X61354361Y-58935852D01*
X61435078Y-58978996D01*
X61564659Y-59085341D01*
X61671004Y-59214922D01*
X61671005Y-59214924D01*
X61750024Y-59362758D01*
X61798687Y-59523177D01*
X61815117Y-59690000D01*
X61798687Y-59856823D01*
X61750024Y-60017242D01*
X61709477Y-60093100D01*
X61671004Y-60165078D01*
X61564659Y-60294659D01*
X61435078Y-60401004D01*
X61435076Y-60401005D01*
X61287242Y-60480024D01*
X61126823Y-60528687D01*
X61001804Y-60541000D01*
X60918196Y-60541000D01*
X60793177Y-60528687D01*
X60632758Y-60480024D01*
X60484924Y-60401005D01*
X60484922Y-60401004D01*
X60355341Y-60294659D01*
X60248996Y-60165078D01*
X60210523Y-60093100D01*
X60169976Y-60017242D01*
X60121313Y-59856823D01*
X60104883Y-59690000D01*
X60121313Y-59523177D01*
X60169976Y-59362758D01*
X60248995Y-59214924D01*
X60248996Y-59214922D01*
X60355341Y-59085341D01*
X60484922Y-58978996D01*
X60565639Y-58935852D01*
X60632758Y-58899976D01*
X60793177Y-58851313D01*
X60918196Y-58839000D01*
X61001804Y-58839000D01*
X61126823Y-58851313D01*
X61126823Y-58851313D01*
G37*
G36*
X78144823Y-58851313D02*
G01*
X78305242Y-58899976D01*
X78372361Y-58935852D01*
X78453078Y-58978996D01*
X78582659Y-59085341D01*
X78689004Y-59214922D01*
X78689005Y-59214924D01*
X78768024Y-59362758D01*
X78816687Y-59523177D01*
X78833117Y-59690000D01*
X78816687Y-59856823D01*
X78768024Y-60017242D01*
X78727477Y-60093100D01*
X78689004Y-60165078D01*
X78582659Y-60294659D01*
X78453078Y-60401004D01*
X78453076Y-60401005D01*
X78305242Y-60480024D01*
X78144823Y-60528687D01*
X78019804Y-60541000D01*
X77936196Y-60541000D01*
X77811177Y-60528687D01*
X77650758Y-60480024D01*
X77502924Y-60401005D01*
X77502922Y-60401004D01*
X77373341Y-60294659D01*
X77266996Y-60165078D01*
X77228523Y-60093100D01*
X77187976Y-60017242D01*
X77139313Y-59856823D01*
X77122883Y-59690000D01*
X77139313Y-59523177D01*
X77187976Y-59362758D01*
X77266995Y-59214924D01*
X77266996Y-59214922D01*
X77373341Y-59085341D01*
X77502922Y-58978996D01*
X77583639Y-58935852D01*
X77650758Y-58899976D01*
X77811177Y-58851313D01*
X77936196Y-58839000D01*
X78019804Y-58839000D01*
X78144823Y-58851313D01*
X78144823Y-58851313D01*
G37*
G36*
X53588228Y-58871703D02*
G01*
X53743100Y-58935853D01*
X53882481Y-59028985D01*
X54001015Y-59147519D01*
X54094147Y-59286900D01*
X54158297Y-59441772D01*
X54191000Y-59606184D01*
X54191000Y-59773816D01*
X54158297Y-59938228D01*
X54094147Y-60093100D01*
X54001015Y-60232481D01*
X53882481Y-60351015D01*
X53743100Y-60444147D01*
X53588228Y-60508297D01*
X53423816Y-60541000D01*
X53256184Y-60541000D01*
X53091772Y-60508297D01*
X52936900Y-60444147D01*
X52797519Y-60351015D01*
X52678985Y-60232481D01*
X52585853Y-60093100D01*
X52521703Y-59938228D01*
X52489000Y-59773816D01*
X52489000Y-59606184D01*
X52521703Y-59441772D01*
X52585853Y-59286900D01*
X52678985Y-59147519D01*
X52797519Y-59028985D01*
X52936900Y-58935853D01*
X53091772Y-58871703D01*
X53256184Y-58839000D01*
X53423816Y-58839000D01*
X53588228Y-58871703D01*
X53588228Y-58871703D01*
G37*
G36*
X121324823Y-58851313D02*
G01*
X121485242Y-58899976D01*
X121552361Y-58935852D01*
X121633078Y-58978996D01*
X121762659Y-59085341D01*
X121869004Y-59214922D01*
X121869005Y-59214924D01*
X121948024Y-59362758D01*
X121996687Y-59523177D01*
X122013117Y-59690000D01*
X121996687Y-59856823D01*
X121948024Y-60017242D01*
X121907477Y-60093100D01*
X121869004Y-60165078D01*
X121762659Y-60294659D01*
X121633078Y-60401004D01*
X121633076Y-60401005D01*
X121485242Y-60480024D01*
X121324823Y-60528687D01*
X121199804Y-60541000D01*
X121116196Y-60541000D01*
X120991177Y-60528687D01*
X120830758Y-60480024D01*
X120682924Y-60401005D01*
X120682922Y-60401004D01*
X120553341Y-60294659D01*
X120446996Y-60165078D01*
X120408523Y-60093100D01*
X120367976Y-60017242D01*
X120319313Y-59856823D01*
X120302883Y-59690000D01*
X120319313Y-59523177D01*
X120367976Y-59362758D01*
X120446995Y-59214924D01*
X120446996Y-59214922D01*
X120553341Y-59085341D01*
X120682922Y-58978996D01*
X120763639Y-58935852D01*
X120830758Y-58899976D01*
X120991177Y-58851313D01*
X121116196Y-58839000D01*
X121199804Y-58839000D01*
X121324823Y-58851313D01*
X121324823Y-58851313D01*
G37*
G36*
X131058228Y-58871703D02*
G01*
X131213100Y-58935853D01*
X131352481Y-59028985D01*
X131471015Y-59147519D01*
X131564147Y-59286900D01*
X131628297Y-59441772D01*
X131661000Y-59606184D01*
X131661000Y-59773816D01*
X131628297Y-59938228D01*
X131564147Y-60093100D01*
X131471015Y-60232481D01*
X131352481Y-60351015D01*
X131213100Y-60444147D01*
X131058228Y-60508297D01*
X130893816Y-60541000D01*
X130726184Y-60541000D01*
X130561772Y-60508297D01*
X130406900Y-60444147D01*
X130267519Y-60351015D01*
X130148985Y-60232481D01*
X130055853Y-60093100D01*
X129991703Y-59938228D01*
X129959000Y-59773816D01*
X129959000Y-59606184D01*
X129991703Y-59441772D01*
X130055853Y-59286900D01*
X130148985Y-59147519D01*
X130267519Y-59028985D01*
X130406900Y-58935853D01*
X130561772Y-58871703D01*
X130726184Y-58839000D01*
X130893816Y-58839000D01*
X131058228Y-58871703D01*
X131058228Y-58871703D01*
G37*
G36*
X106846823Y-58851313D02*
G01*
X107007242Y-58899976D01*
X107074361Y-58935852D01*
X107155078Y-58978996D01*
X107284659Y-59085341D01*
X107391004Y-59214922D01*
X107391005Y-59214924D01*
X107470024Y-59362758D01*
X107518687Y-59523177D01*
X107535117Y-59690000D01*
X107518687Y-59856823D01*
X107470024Y-60017242D01*
X107429477Y-60093100D01*
X107391004Y-60165078D01*
X107284659Y-60294659D01*
X107155078Y-60401004D01*
X107155076Y-60401005D01*
X107007242Y-60480024D01*
X106846823Y-60528687D01*
X106721804Y-60541000D01*
X106638196Y-60541000D01*
X106513177Y-60528687D01*
X106352758Y-60480024D01*
X106204924Y-60401005D01*
X106204922Y-60401004D01*
X106075341Y-60294659D01*
X105968996Y-60165078D01*
X105930523Y-60093100D01*
X105889976Y-60017242D01*
X105841313Y-59856823D01*
X105824883Y-59690000D01*
X105841313Y-59523177D01*
X105889976Y-59362758D01*
X105968995Y-59214924D01*
X105968996Y-59214922D01*
X106075341Y-59085341D01*
X106204922Y-58978996D01*
X106285639Y-58935852D01*
X106352758Y-58899976D01*
X106513177Y-58851313D01*
X106638196Y-58839000D01*
X106721804Y-58839000D01*
X106846823Y-58851313D01*
X106846823Y-58851313D01*
G37*
G36*
X99226823Y-58851313D02*
G01*
X99387242Y-58899976D01*
X99454361Y-58935852D01*
X99535078Y-58978996D01*
X99664659Y-59085341D01*
X99771004Y-59214922D01*
X99771005Y-59214924D01*
X99850024Y-59362758D01*
X99898687Y-59523177D01*
X99915117Y-59690000D01*
X99898687Y-59856823D01*
X99850024Y-60017242D01*
X99809477Y-60093100D01*
X99771004Y-60165078D01*
X99664659Y-60294659D01*
X99535078Y-60401004D01*
X99535076Y-60401005D01*
X99387242Y-60480024D01*
X99226823Y-60528687D01*
X99101804Y-60541000D01*
X99018196Y-60541000D01*
X98893177Y-60528687D01*
X98732758Y-60480024D01*
X98584924Y-60401005D01*
X98584922Y-60401004D01*
X98455341Y-60294659D01*
X98348996Y-60165078D01*
X98310523Y-60093100D01*
X98269976Y-60017242D01*
X98221313Y-59856823D01*
X98204883Y-59690000D01*
X98221313Y-59523177D01*
X98269976Y-59362758D01*
X98348995Y-59214924D01*
X98348996Y-59214922D01*
X98455341Y-59085341D01*
X98584922Y-58978996D01*
X98665639Y-58935852D01*
X98732758Y-58899976D01*
X98893177Y-58851313D01*
X99018196Y-58839000D01*
X99101804Y-58839000D01*
X99226823Y-58851313D01*
X99226823Y-58851313D01*
G37*
G36*
X94146823Y-58851313D02*
G01*
X94307242Y-58899976D01*
X94374361Y-58935852D01*
X94455078Y-58978996D01*
X94584659Y-59085341D01*
X94691004Y-59214922D01*
X94691005Y-59214924D01*
X94770024Y-59362758D01*
X94818687Y-59523177D01*
X94835117Y-59690000D01*
X94818687Y-59856823D01*
X94770024Y-60017242D01*
X94729477Y-60093100D01*
X94691004Y-60165078D01*
X94584659Y-60294659D01*
X94455078Y-60401004D01*
X94455076Y-60401005D01*
X94307242Y-60480024D01*
X94146823Y-60528687D01*
X94021804Y-60541000D01*
X93938196Y-60541000D01*
X93813177Y-60528687D01*
X93652758Y-60480024D01*
X93504924Y-60401005D01*
X93504922Y-60401004D01*
X93375341Y-60294659D01*
X93268996Y-60165078D01*
X93230523Y-60093100D01*
X93189976Y-60017242D01*
X93141313Y-59856823D01*
X93124883Y-59690000D01*
X93141313Y-59523177D01*
X93189976Y-59362758D01*
X93268995Y-59214924D01*
X93268996Y-59214922D01*
X93375341Y-59085341D01*
X93504922Y-58978996D01*
X93585639Y-58935852D01*
X93652758Y-58899976D01*
X93813177Y-58851313D01*
X93938196Y-58839000D01*
X94021804Y-58839000D01*
X94146823Y-58851313D01*
X94146823Y-58851313D01*
G37*
G36*
X139866823Y-58851313D02*
G01*
X140027242Y-58899976D01*
X140094361Y-58935852D01*
X140175078Y-58978996D01*
X140304659Y-59085341D01*
X140411004Y-59214922D01*
X140411005Y-59214924D01*
X140490024Y-59362758D01*
X140538687Y-59523177D01*
X140555117Y-59690000D01*
X140538687Y-59856823D01*
X140490024Y-60017242D01*
X140449477Y-60093100D01*
X140411004Y-60165078D01*
X140304659Y-60294659D01*
X140175078Y-60401004D01*
X140175076Y-60401005D01*
X140027242Y-60480024D01*
X139866823Y-60528687D01*
X139741804Y-60541000D01*
X139658196Y-60541000D01*
X139533177Y-60528687D01*
X139372758Y-60480024D01*
X139224924Y-60401005D01*
X139224922Y-60401004D01*
X139095341Y-60294659D01*
X138988996Y-60165078D01*
X138950523Y-60093100D01*
X138909976Y-60017242D01*
X138861313Y-59856823D01*
X138844883Y-59690000D01*
X138861313Y-59523177D01*
X138909976Y-59362758D01*
X138988995Y-59214924D01*
X138988996Y-59214922D01*
X139095341Y-59085341D01*
X139224922Y-58978996D01*
X139305639Y-58935852D01*
X139372758Y-58899976D01*
X139533177Y-58851313D01*
X139658196Y-58839000D01*
X139741804Y-58839000D01*
X139866823Y-58851313D01*
X139866823Y-58851313D01*
G37*
G36*
X85846228Y-58871703D02*
G01*
X86001100Y-58935853D01*
X86140481Y-59028985D01*
X86259015Y-59147519D01*
X86352147Y-59286900D01*
X86416297Y-59441772D01*
X86449000Y-59606184D01*
X86449000Y-59773816D01*
X86416297Y-59938228D01*
X86352147Y-60093100D01*
X86259015Y-60232481D01*
X86140481Y-60351015D01*
X86001100Y-60444147D01*
X85846228Y-60508297D01*
X85681816Y-60541000D01*
X85514184Y-60541000D01*
X85349772Y-60508297D01*
X85194900Y-60444147D01*
X85055519Y-60351015D01*
X84936985Y-60232481D01*
X84843853Y-60093100D01*
X84779703Y-59938228D01*
X84747000Y-59773816D01*
X84747000Y-59606184D01*
X84779703Y-59441772D01*
X84843853Y-59286900D01*
X84936985Y-59147519D01*
X85055519Y-59028985D01*
X85194900Y-58935853D01*
X85349772Y-58871703D01*
X85514184Y-58839000D01*
X85681816Y-58839000D01*
X85846228Y-58871703D01*
X85846228Y-58871703D01*
G37*
G36*
X150108228Y-58871703D02*
G01*
X150263100Y-58935853D01*
X150402481Y-59028985D01*
X150521015Y-59147519D01*
X150614147Y-59286900D01*
X150678297Y-59441772D01*
X150711000Y-59606184D01*
X150711000Y-59773816D01*
X150678297Y-59938228D01*
X150614147Y-60093100D01*
X150521015Y-60232481D01*
X150402481Y-60351015D01*
X150263100Y-60444147D01*
X150108228Y-60508297D01*
X149943816Y-60541000D01*
X149776184Y-60541000D01*
X149611772Y-60508297D01*
X149456900Y-60444147D01*
X149317519Y-60351015D01*
X149198985Y-60232481D01*
X149105853Y-60093100D01*
X149041703Y-59938228D01*
X149009000Y-59773816D01*
X149009000Y-59606184D01*
X149041703Y-59441772D01*
X149105853Y-59286900D01*
X149198985Y-59147519D01*
X149317519Y-59028985D01*
X149456900Y-58935853D01*
X149611772Y-58871703D01*
X149776184Y-58839000D01*
X149943816Y-58839000D01*
X150108228Y-58871703D01*
X150108228Y-58871703D01*
G37*
G36*
X160440823Y-58851313D02*
G01*
X160601242Y-58899976D01*
X160668361Y-58935852D01*
X160749078Y-58978996D01*
X160878659Y-59085341D01*
X160985004Y-59214922D01*
X160985005Y-59214924D01*
X161064024Y-59362758D01*
X161112687Y-59523177D01*
X161129117Y-59690000D01*
X161112687Y-59856823D01*
X161064024Y-60017242D01*
X161023477Y-60093100D01*
X160985004Y-60165078D01*
X160878659Y-60294659D01*
X160749078Y-60401004D01*
X160749076Y-60401005D01*
X160601242Y-60480024D01*
X160440823Y-60528687D01*
X160315804Y-60541000D01*
X160232196Y-60541000D01*
X160107177Y-60528687D01*
X159946758Y-60480024D01*
X159798924Y-60401005D01*
X159798922Y-60401004D01*
X159669341Y-60294659D01*
X159562996Y-60165078D01*
X159524523Y-60093100D01*
X159483976Y-60017242D01*
X159435313Y-59856823D01*
X159418883Y-59690000D01*
X159435313Y-59523177D01*
X159483976Y-59362758D01*
X159562995Y-59214924D01*
X159562996Y-59214922D01*
X159669341Y-59085341D01*
X159798922Y-58978996D01*
X159879639Y-58935852D01*
X159946758Y-58899976D01*
X160107177Y-58851313D01*
X160232196Y-58839000D01*
X160315804Y-58839000D01*
X160440823Y-58851313D01*
X160440823Y-58851313D01*
G37*
G36*
X75178228Y-58403703D02*
G01*
X75333100Y-58467853D01*
X75472481Y-58560985D01*
X75591015Y-58679519D01*
X75684147Y-58818900D01*
X75748297Y-58973772D01*
X75781000Y-59138184D01*
X75781000Y-59305816D01*
X75748297Y-59470228D01*
X75684147Y-59625100D01*
X75591015Y-59764481D01*
X75472481Y-59883015D01*
X75333100Y-59976147D01*
X75178228Y-60040297D01*
X75013816Y-60073000D01*
X74846184Y-60073000D01*
X74681772Y-60040297D01*
X74526900Y-59976147D01*
X74387519Y-59883015D01*
X74268985Y-59764481D01*
X74175853Y-59625100D01*
X74111703Y-59470228D01*
X74079000Y-59305816D01*
X74079000Y-59138184D01*
X74111703Y-58973772D01*
X74175853Y-58818900D01*
X74268985Y-58679519D01*
X74387519Y-58560985D01*
X74526900Y-58467853D01*
X74681772Y-58403703D01*
X74846184Y-58371000D01*
X75013816Y-58371000D01*
X75178228Y-58403703D01*
X75178228Y-58403703D01*
G37*
G36*
X88132228Y-58363703D02*
G01*
X88287100Y-58427853D01*
X88426481Y-58520985D01*
X88545015Y-58639519D01*
X88638147Y-58778900D01*
X88702297Y-58933772D01*
X88735000Y-59098184D01*
X88735000Y-59265816D01*
X88702297Y-59430228D01*
X88638147Y-59585100D01*
X88545015Y-59724481D01*
X88426481Y-59843015D01*
X88287100Y-59936147D01*
X88132228Y-60000297D01*
X87967816Y-60033000D01*
X87800184Y-60033000D01*
X87635772Y-60000297D01*
X87480900Y-59936147D01*
X87341519Y-59843015D01*
X87222985Y-59724481D01*
X87129853Y-59585100D01*
X87065703Y-59430228D01*
X87033000Y-59265816D01*
X87033000Y-59098184D01*
X87065703Y-58933772D01*
X87129853Y-58778900D01*
X87222985Y-58639519D01*
X87341519Y-58520985D01*
X87480900Y-58427853D01*
X87635772Y-58363703D01*
X87800184Y-58331000D01*
X87967816Y-58331000D01*
X88132228Y-58363703D01*
X88132228Y-58363703D01*
G37*
G36*
X90632228Y-58363703D02*
G01*
X90787100Y-58427853D01*
X90926481Y-58520985D01*
X91045015Y-58639519D01*
X91138147Y-58778900D01*
X91202297Y-58933772D01*
X91235000Y-59098184D01*
X91235000Y-59265816D01*
X91202297Y-59430228D01*
X91138147Y-59585100D01*
X91045015Y-59724481D01*
X90926481Y-59843015D01*
X90787100Y-59936147D01*
X90632228Y-60000297D01*
X90467816Y-60033000D01*
X90300184Y-60033000D01*
X90135772Y-60000297D01*
X89980900Y-59936147D01*
X89841519Y-59843015D01*
X89722985Y-59724481D01*
X89629853Y-59585100D01*
X89565703Y-59430228D01*
X89533000Y-59265816D01*
X89533000Y-59098184D01*
X89565703Y-58933772D01*
X89629853Y-58778900D01*
X89722985Y-58639519D01*
X89841519Y-58520985D01*
X89980900Y-58427853D01*
X90135772Y-58363703D01*
X90300184Y-58331000D01*
X90467816Y-58331000D01*
X90632228Y-58363703D01*
X90632228Y-58363703D01*
G37*
G36*
X53588228Y-54553703D02*
G01*
X53743100Y-54617853D01*
X53882481Y-54710985D01*
X54001015Y-54829519D01*
X54094147Y-54968900D01*
X54158297Y-55123772D01*
X54191000Y-55288184D01*
X54191000Y-55455816D01*
X54158297Y-55620228D01*
X54094147Y-55775100D01*
X54001015Y-55914481D01*
X53882481Y-56033015D01*
X53743100Y-56126147D01*
X53588228Y-56190297D01*
X53423816Y-56223000D01*
X53256184Y-56223000D01*
X53091772Y-56190297D01*
X52936900Y-56126147D01*
X52797519Y-56033015D01*
X52678985Y-55914481D01*
X52585853Y-55775100D01*
X52521703Y-55620228D01*
X52489000Y-55455816D01*
X52489000Y-55288184D01*
X52521703Y-55123772D01*
X52585853Y-54968900D01*
X52678985Y-54829519D01*
X52797519Y-54710985D01*
X52936900Y-54617853D01*
X53091772Y-54553703D01*
X53256184Y-54521000D01*
X53423816Y-54521000D01*
X53588228Y-54553703D01*
X53588228Y-54553703D01*
G37*
G36*
X56088228Y-54553703D02*
G01*
X56243100Y-54617853D01*
X56382481Y-54710985D01*
X56501015Y-54829519D01*
X56594147Y-54968900D01*
X56658297Y-55123772D01*
X56691000Y-55288184D01*
X56691000Y-55455816D01*
X56658297Y-55620228D01*
X56594147Y-55775100D01*
X56501015Y-55914481D01*
X56382481Y-56033015D01*
X56243100Y-56126147D01*
X56088228Y-56190297D01*
X55923816Y-56223000D01*
X55756184Y-56223000D01*
X55591772Y-56190297D01*
X55436900Y-56126147D01*
X55297519Y-56033015D01*
X55178985Y-55914481D01*
X55085853Y-55775100D01*
X55021703Y-55620228D01*
X54989000Y-55455816D01*
X54989000Y-55288184D01*
X55021703Y-55123772D01*
X55085853Y-54968900D01*
X55178985Y-54829519D01*
X55297519Y-54710985D01*
X55436900Y-54617853D01*
X55591772Y-54553703D01*
X55756184Y-54521000D01*
X55923816Y-54521000D01*
X56088228Y-54553703D01*
X56088228Y-54553703D01*
G37*
G36*
X161859085Y-48923975D02*
G01*
X162214143Y-49071045D01*
X162214145Y-49071046D01*
X162533690Y-49284559D01*
X162805441Y-49556310D01*
X162833021Y-49597587D01*
X163018955Y-49875857D01*
X163166025Y-50230915D01*
X163241000Y-50607842D01*
X163241000Y-50992158D01*
X163166025Y-51369085D01*
X163114112Y-51494413D01*
X163018954Y-51724145D01*
X162805441Y-52043690D01*
X162533690Y-52315441D01*
X162214145Y-52528954D01*
X162214144Y-52528955D01*
X162214143Y-52528955D01*
X161859085Y-52676025D01*
X161482158Y-52751000D01*
X161097842Y-52751000D01*
X160720915Y-52676025D01*
X160365857Y-52528955D01*
X160365856Y-52528955D01*
X160365855Y-52528954D01*
X160046310Y-52315441D01*
X159774559Y-52043690D01*
X159561046Y-51724145D01*
X159465888Y-51494413D01*
X159413975Y-51369085D01*
X159339000Y-50992158D01*
X159339000Y-50607842D01*
X159413975Y-50230915D01*
X159561045Y-49875857D01*
X159746979Y-49597587D01*
X159774559Y-49556310D01*
X160046310Y-49284559D01*
X160365855Y-49071046D01*
X160365857Y-49071045D01*
X160720915Y-48923975D01*
X161097842Y-48849000D01*
X161482158Y-48849000D01*
X161859085Y-48923975D01*
X161859085Y-48923975D01*
G37*
G36*
X53909085Y-48923975D02*
G01*
X54264143Y-49071045D01*
X54264145Y-49071046D01*
X54583690Y-49284559D01*
X54855441Y-49556310D01*
X54883021Y-49597587D01*
X55068955Y-49875857D01*
X55216025Y-50230915D01*
X55291000Y-50607842D01*
X55291000Y-50992158D01*
X55216025Y-51369085D01*
X55164112Y-51494413D01*
X55068954Y-51724145D01*
X54855441Y-52043690D01*
X54583690Y-52315441D01*
X54264145Y-52528954D01*
X54264144Y-52528955D01*
X54264143Y-52528955D01*
X53909085Y-52676025D01*
X53532158Y-52751000D01*
X53147842Y-52751000D01*
X52770915Y-52676025D01*
X52415857Y-52528955D01*
X52415856Y-52528955D01*
X52415855Y-52528954D01*
X52096310Y-52315441D01*
X51824559Y-52043690D01*
X51611046Y-51724145D01*
X51515888Y-51494413D01*
X51463975Y-51369085D01*
X51389000Y-50992158D01*
X51389000Y-50607842D01*
X51463975Y-50230915D01*
X51611045Y-49875857D01*
X51796979Y-49597587D01*
X51824559Y-49556310D01*
X52096310Y-49284559D01*
X52415855Y-49071046D01*
X52415857Y-49071045D01*
X52770915Y-48923975D01*
X53147842Y-48849000D01*
X53532158Y-48849000D01*
X53909085Y-48923975D01*
X53909085Y-48923975D01*
G37*
G36*
X145098205Y-49348461D02*
G01*
X145216153Y-49371922D01*
X145308194Y-49410047D01*
X145438359Y-49463963D01*
X145638342Y-49597587D01*
X145808413Y-49767658D01*
X145942037Y-49967641D01*
X146034078Y-50189848D01*
X146081000Y-50425741D01*
X146081000Y-50666259D01*
X146034078Y-50902152D01*
X145942037Y-51124359D01*
X145808413Y-51324342D01*
X145638342Y-51494413D01*
X145438359Y-51628037D01*
X145308194Y-51681953D01*
X145216153Y-51720078D01*
X145098205Y-51743539D01*
X144980259Y-51767000D01*
X144739741Y-51767000D01*
X144503847Y-51720078D01*
X144411806Y-51681953D01*
X144281641Y-51628037D01*
X144081658Y-51494413D01*
X143911587Y-51324342D01*
X143777963Y-51124359D01*
X143685922Y-50902152D01*
X143639000Y-50666259D01*
X143639000Y-50425741D01*
X143685922Y-50189848D01*
X143777963Y-49967641D01*
X143911587Y-49767658D01*
X144081658Y-49597587D01*
X144281641Y-49463963D01*
X144411806Y-49410047D01*
X144503847Y-49371922D01*
X144621795Y-49348461D01*
X144739741Y-49325000D01*
X144980259Y-49325000D01*
X145098205Y-49348461D01*
X145098205Y-49348461D01*
G37*
G36*
X134604205Y-49348461D02*
G01*
X134722153Y-49371922D01*
X134814194Y-49410047D01*
X134944359Y-49463963D01*
X135144342Y-49597587D01*
X135314413Y-49767658D01*
X135448037Y-49967641D01*
X135540078Y-50189848D01*
X135587000Y-50425741D01*
X135587000Y-50666259D01*
X135540078Y-50902152D01*
X135448037Y-51124359D01*
X135314413Y-51324342D01*
X135144342Y-51494413D01*
X134944359Y-51628037D01*
X134814194Y-51681953D01*
X134722153Y-51720078D01*
X134604205Y-51743539D01*
X134486259Y-51767000D01*
X134245741Y-51767000D01*
X134009847Y-51720078D01*
X133917806Y-51681953D01*
X133787641Y-51628037D01*
X133587658Y-51494413D01*
X133417587Y-51324342D01*
X133283963Y-51124359D01*
X133191922Y-50902152D01*
X133145000Y-50666259D01*
X133145000Y-50425741D01*
X133191922Y-50189848D01*
X133283963Y-49967641D01*
X133417587Y-49767658D01*
X133587658Y-49597587D01*
X133787641Y-49463963D01*
X133917806Y-49410047D01*
X134009847Y-49371922D01*
X134127795Y-49348461D01*
X134245741Y-49325000D01*
X134486259Y-49325000D01*
X134604205Y-49348461D01*
X134604205Y-49348461D01*
G37*
G36*
X129604205Y-49348461D02*
G01*
X129722153Y-49371922D01*
X129814194Y-49410047D01*
X129944359Y-49463963D01*
X130144342Y-49597587D01*
X130314413Y-49767658D01*
X130448037Y-49967641D01*
X130540078Y-50189848D01*
X130587000Y-50425741D01*
X130587000Y-50666259D01*
X130540078Y-50902152D01*
X130448037Y-51124359D01*
X130314413Y-51324342D01*
X130144342Y-51494413D01*
X129944359Y-51628037D01*
X129814194Y-51681953D01*
X129722153Y-51720078D01*
X129604205Y-51743539D01*
X129486259Y-51767000D01*
X129245741Y-51767000D01*
X129009847Y-51720078D01*
X128917806Y-51681953D01*
X128787641Y-51628037D01*
X128587658Y-51494413D01*
X128417587Y-51324342D01*
X128283963Y-51124359D01*
X128191922Y-50902152D01*
X128145000Y-50666259D01*
X128145000Y-50425741D01*
X128191922Y-50189848D01*
X128283963Y-49967641D01*
X128417587Y-49767658D01*
X128587658Y-49597587D01*
X128787641Y-49463963D01*
X128917806Y-49410047D01*
X129009847Y-49371922D01*
X129127795Y-49348461D01*
X129245741Y-49325000D01*
X129486259Y-49325000D01*
X129604205Y-49348461D01*
X129604205Y-49348461D01*
G37*
G36*
X124604205Y-49348461D02*
G01*
X124722153Y-49371922D01*
X124814194Y-49410047D01*
X124944359Y-49463963D01*
X125144342Y-49597587D01*
X125314413Y-49767658D01*
X125448037Y-49967641D01*
X125540078Y-50189848D01*
X125587000Y-50425741D01*
X125587000Y-50666259D01*
X125540078Y-50902152D01*
X125448037Y-51124359D01*
X125314413Y-51324342D01*
X125144342Y-51494413D01*
X124944359Y-51628037D01*
X124814194Y-51681953D01*
X124722153Y-51720078D01*
X124604205Y-51743539D01*
X124486259Y-51767000D01*
X124245741Y-51767000D01*
X124009847Y-51720078D01*
X123917806Y-51681953D01*
X123787641Y-51628037D01*
X123587658Y-51494413D01*
X123417587Y-51324342D01*
X123283963Y-51124359D01*
X123191922Y-50902152D01*
X123145000Y-50666259D01*
X123145000Y-50425741D01*
X123191922Y-50189848D01*
X123283963Y-49967641D01*
X123417587Y-49767658D01*
X123587658Y-49597587D01*
X123787641Y-49463963D01*
X123917806Y-49410047D01*
X124009847Y-49371922D01*
X124127795Y-49348461D01*
X124245741Y-49325000D01*
X124486259Y-49325000D01*
X124604205Y-49348461D01*
X124604205Y-49348461D01*
G37*
G36*
X113870205Y-49348461D02*
G01*
X113988153Y-49371922D01*
X114080194Y-49410047D01*
X114210359Y-49463963D01*
X114410342Y-49597587D01*
X114580413Y-49767658D01*
X114714037Y-49967641D01*
X114806078Y-50189848D01*
X114853000Y-50425741D01*
X114853000Y-50666259D01*
X114806078Y-50902152D01*
X114714037Y-51124359D01*
X114580413Y-51324342D01*
X114410342Y-51494413D01*
X114210359Y-51628037D01*
X114080194Y-51681953D01*
X113988153Y-51720078D01*
X113870205Y-51743539D01*
X113752259Y-51767000D01*
X113511741Y-51767000D01*
X113275847Y-51720078D01*
X113183806Y-51681953D01*
X113053641Y-51628037D01*
X112853658Y-51494413D01*
X112683587Y-51324342D01*
X112549963Y-51124359D01*
X112457922Y-50902152D01*
X112411000Y-50666259D01*
X112411000Y-50425741D01*
X112457922Y-50189848D01*
X112549963Y-49967641D01*
X112683587Y-49767658D01*
X112853658Y-49597587D01*
X113053641Y-49463963D01*
X113183806Y-49410047D01*
X113275847Y-49371922D01*
X113393795Y-49348461D01*
X113511741Y-49325000D01*
X113752259Y-49325000D01*
X113870205Y-49348461D01*
X113870205Y-49348461D01*
G37*
G36*
X108870205Y-49348461D02*
G01*
X108988153Y-49371922D01*
X109080194Y-49410047D01*
X109210359Y-49463963D01*
X109410342Y-49597587D01*
X109580413Y-49767658D01*
X109714037Y-49967641D01*
X109806078Y-50189848D01*
X109853000Y-50425741D01*
X109853000Y-50666259D01*
X109806078Y-50902152D01*
X109714037Y-51124359D01*
X109580413Y-51324342D01*
X109410342Y-51494413D01*
X109210359Y-51628037D01*
X109080194Y-51681953D01*
X108988153Y-51720078D01*
X108870205Y-51743539D01*
X108752259Y-51767000D01*
X108511741Y-51767000D01*
X108275847Y-51720078D01*
X108183806Y-51681953D01*
X108053641Y-51628037D01*
X107853658Y-51494413D01*
X107683587Y-51324342D01*
X107549963Y-51124359D01*
X107457922Y-50902152D01*
X107411000Y-50666259D01*
X107411000Y-50425741D01*
X107457922Y-50189848D01*
X107549963Y-49967641D01*
X107683587Y-49767658D01*
X107853658Y-49597587D01*
X108053641Y-49463963D01*
X108183806Y-49410047D01*
X108275847Y-49371922D01*
X108393795Y-49348461D01*
X108511741Y-49325000D01*
X108752259Y-49325000D01*
X108870205Y-49348461D01*
X108870205Y-49348461D01*
G37*
G36*
X103870205Y-49348461D02*
G01*
X103988153Y-49371922D01*
X104080194Y-49410047D01*
X104210359Y-49463963D01*
X104410342Y-49597587D01*
X104580413Y-49767658D01*
X104714037Y-49967641D01*
X104806078Y-50189848D01*
X104853000Y-50425741D01*
X104853000Y-50666259D01*
X104806078Y-50902152D01*
X104714037Y-51124359D01*
X104580413Y-51324342D01*
X104410342Y-51494413D01*
X104210359Y-51628037D01*
X104080194Y-51681953D01*
X103988153Y-51720078D01*
X103870205Y-51743539D01*
X103752259Y-51767000D01*
X103511741Y-51767000D01*
X103275847Y-51720078D01*
X103183806Y-51681953D01*
X103053641Y-51628037D01*
X102853658Y-51494413D01*
X102683587Y-51324342D01*
X102549963Y-51124359D01*
X102457922Y-50902152D01*
X102411000Y-50666259D01*
X102411000Y-50425741D01*
X102457922Y-50189848D01*
X102549963Y-49967641D01*
X102683587Y-49767658D01*
X102853658Y-49597587D01*
X103053641Y-49463963D01*
X103183806Y-49410047D01*
X103275847Y-49371922D01*
X103393795Y-49348461D01*
X103511741Y-49325000D01*
X103752259Y-49325000D01*
X103870205Y-49348461D01*
X103870205Y-49348461D01*
G37*
G36*
X93376205Y-49348461D02*
G01*
X93494153Y-49371922D01*
X93586194Y-49410047D01*
X93716359Y-49463963D01*
X93916342Y-49597587D01*
X94086413Y-49767658D01*
X94220037Y-49967641D01*
X94312078Y-50189848D01*
X94359000Y-50425741D01*
X94359000Y-50666259D01*
X94312078Y-50902152D01*
X94220037Y-51124359D01*
X94086413Y-51324342D01*
X93916342Y-51494413D01*
X93716359Y-51628037D01*
X93586194Y-51681953D01*
X93494153Y-51720078D01*
X93376205Y-51743539D01*
X93258259Y-51767000D01*
X93017741Y-51767000D01*
X92781847Y-51720078D01*
X92689806Y-51681953D01*
X92559641Y-51628037D01*
X92359658Y-51494413D01*
X92189587Y-51324342D01*
X92055963Y-51124359D01*
X91963922Y-50902152D01*
X91917000Y-50666259D01*
X91917000Y-50425741D01*
X91963922Y-50189848D01*
X92055963Y-49967641D01*
X92189587Y-49767658D01*
X92359658Y-49597587D01*
X92559641Y-49463963D01*
X92689806Y-49410047D01*
X92781847Y-49371922D01*
X92899795Y-49348461D01*
X93017741Y-49325000D01*
X93258259Y-49325000D01*
X93376205Y-49348461D01*
X93376205Y-49348461D01*
G37*
G36*
X150098205Y-49348461D02*
G01*
X150216153Y-49371922D01*
X150308194Y-49410047D01*
X150438359Y-49463963D01*
X150638342Y-49597587D01*
X150808413Y-49767658D01*
X150942037Y-49967641D01*
X151034078Y-50189848D01*
X151081000Y-50425741D01*
X151081000Y-50666259D01*
X151034078Y-50902152D01*
X150942037Y-51124359D01*
X150808413Y-51324342D01*
X150638342Y-51494413D01*
X150438359Y-51628037D01*
X150308194Y-51681953D01*
X150216153Y-51720078D01*
X150098205Y-51743539D01*
X149980259Y-51767000D01*
X149739741Y-51767000D01*
X149503847Y-51720078D01*
X149411806Y-51681953D01*
X149281641Y-51628037D01*
X149081658Y-51494413D01*
X148911587Y-51324342D01*
X148777963Y-51124359D01*
X148685922Y-50902152D01*
X148639000Y-50666259D01*
X148639000Y-50425741D01*
X148685922Y-50189848D01*
X148777963Y-49967641D01*
X148911587Y-49767658D01*
X149081658Y-49597587D01*
X149281641Y-49463963D01*
X149411806Y-49410047D01*
X149503847Y-49371922D01*
X149621795Y-49348461D01*
X149739741Y-49325000D01*
X149980259Y-49325000D01*
X150098205Y-49348461D01*
X150098205Y-49348461D01*
G37*
G36*
X83376205Y-49348461D02*
G01*
X83494153Y-49371922D01*
X83586194Y-49410047D01*
X83716359Y-49463963D01*
X83916342Y-49597587D01*
X84086413Y-49767658D01*
X84220037Y-49967641D01*
X84312078Y-50189848D01*
X84359000Y-50425741D01*
X84359000Y-50666259D01*
X84312078Y-50902152D01*
X84220037Y-51124359D01*
X84086413Y-51324342D01*
X83916342Y-51494413D01*
X83716359Y-51628037D01*
X83586194Y-51681953D01*
X83494153Y-51720078D01*
X83376205Y-51743539D01*
X83258259Y-51767000D01*
X83017741Y-51767000D01*
X82781847Y-51720078D01*
X82689806Y-51681953D01*
X82559641Y-51628037D01*
X82359658Y-51494413D01*
X82189587Y-51324342D01*
X82055963Y-51124359D01*
X81963922Y-50902152D01*
X81917000Y-50666259D01*
X81917000Y-50425741D01*
X81963922Y-50189848D01*
X82055963Y-49967641D01*
X82189587Y-49767658D01*
X82359658Y-49597587D01*
X82559641Y-49463963D01*
X82689806Y-49410047D01*
X82781847Y-49371922D01*
X82899795Y-49348461D01*
X83017741Y-49325000D01*
X83258259Y-49325000D01*
X83376205Y-49348461D01*
X83376205Y-49348461D01*
G37*
G36*
X72882205Y-49348461D02*
G01*
X73000153Y-49371922D01*
X73092194Y-49410047D01*
X73222359Y-49463963D01*
X73422342Y-49597587D01*
X73592413Y-49767658D01*
X73726037Y-49967641D01*
X73818078Y-50189848D01*
X73865000Y-50425741D01*
X73865000Y-50666259D01*
X73818078Y-50902152D01*
X73726037Y-51124359D01*
X73592413Y-51324342D01*
X73422342Y-51494413D01*
X73222359Y-51628037D01*
X73092194Y-51681953D01*
X73000153Y-51720078D01*
X72882205Y-51743539D01*
X72764259Y-51767000D01*
X72523741Y-51767000D01*
X72287847Y-51720078D01*
X72195806Y-51681953D01*
X72065641Y-51628037D01*
X71865658Y-51494413D01*
X71695587Y-51324342D01*
X71561963Y-51124359D01*
X71469922Y-50902152D01*
X71423000Y-50666259D01*
X71423000Y-50425741D01*
X71469922Y-50189848D01*
X71561963Y-49967641D01*
X71695587Y-49767658D01*
X71865658Y-49597587D01*
X72065641Y-49463963D01*
X72195806Y-49410047D01*
X72287847Y-49371922D01*
X72405795Y-49348461D01*
X72523741Y-49325000D01*
X72764259Y-49325000D01*
X72882205Y-49348461D01*
X72882205Y-49348461D01*
G37*
G36*
X67882205Y-49348461D02*
G01*
X68000153Y-49371922D01*
X68092194Y-49410047D01*
X68222359Y-49463963D01*
X68422342Y-49597587D01*
X68592413Y-49767658D01*
X68726037Y-49967641D01*
X68818078Y-50189848D01*
X68865000Y-50425741D01*
X68865000Y-50666259D01*
X68818078Y-50902152D01*
X68726037Y-51124359D01*
X68592413Y-51324342D01*
X68422342Y-51494413D01*
X68222359Y-51628037D01*
X68092194Y-51681953D01*
X68000153Y-51720078D01*
X67882205Y-51743539D01*
X67764259Y-51767000D01*
X67523741Y-51767000D01*
X67287847Y-51720078D01*
X67195806Y-51681953D01*
X67065641Y-51628037D01*
X66865658Y-51494413D01*
X66695587Y-51324342D01*
X66561963Y-51124359D01*
X66469922Y-50902152D01*
X66423000Y-50666259D01*
X66423000Y-50425741D01*
X66469922Y-50189848D01*
X66561963Y-49967641D01*
X66695587Y-49767658D01*
X66865658Y-49597587D01*
X67065641Y-49463963D01*
X67195806Y-49410047D01*
X67287847Y-49371922D01*
X67405795Y-49348461D01*
X67523741Y-49325000D01*
X67764259Y-49325000D01*
X67882205Y-49348461D01*
X67882205Y-49348461D01*
G37*
G36*
X62882205Y-49348461D02*
G01*
X63000153Y-49371922D01*
X63092194Y-49410047D01*
X63222359Y-49463963D01*
X63422342Y-49597587D01*
X63592413Y-49767658D01*
X63726037Y-49967641D01*
X63818078Y-50189848D01*
X63865000Y-50425741D01*
X63865000Y-50666259D01*
X63818078Y-50902152D01*
X63726037Y-51124359D01*
X63592413Y-51324342D01*
X63422342Y-51494413D01*
X63222359Y-51628037D01*
X63092194Y-51681953D01*
X63000153Y-51720078D01*
X62882205Y-51743539D01*
X62764259Y-51767000D01*
X62523741Y-51767000D01*
X62287847Y-51720078D01*
X62195806Y-51681953D01*
X62065641Y-51628037D01*
X61865658Y-51494413D01*
X61695587Y-51324342D01*
X61561963Y-51124359D01*
X61469922Y-50902152D01*
X61423000Y-50666259D01*
X61423000Y-50425741D01*
X61469922Y-50189848D01*
X61561963Y-49967641D01*
X61695587Y-49767658D01*
X61865658Y-49597587D01*
X62065641Y-49463963D01*
X62195806Y-49410047D01*
X62287847Y-49371922D01*
X62405795Y-49348461D01*
X62523741Y-49325000D01*
X62764259Y-49325000D01*
X62882205Y-49348461D01*
X62882205Y-49348461D01*
G37*
G36*
X155098205Y-49348461D02*
G01*
X155216153Y-49371922D01*
X155308194Y-49410047D01*
X155438359Y-49463963D01*
X155638342Y-49597587D01*
X155808413Y-49767658D01*
X155942037Y-49967641D01*
X156034078Y-50189848D01*
X156081000Y-50425741D01*
X156081000Y-50666259D01*
X156034078Y-50902152D01*
X155942037Y-51124359D01*
X155808413Y-51324342D01*
X155638342Y-51494413D01*
X155438359Y-51628037D01*
X155308194Y-51681953D01*
X155216153Y-51720078D01*
X155098205Y-51743539D01*
X154980259Y-51767000D01*
X154739741Y-51767000D01*
X154503847Y-51720078D01*
X154411806Y-51681953D01*
X154281641Y-51628037D01*
X154081658Y-51494413D01*
X153911587Y-51324342D01*
X153777963Y-51124359D01*
X153685922Y-50902152D01*
X153639000Y-50666259D01*
X153639000Y-50425741D01*
X153685922Y-50189848D01*
X153777963Y-49967641D01*
X153911587Y-49767658D01*
X154081658Y-49597587D01*
X154281641Y-49463963D01*
X154411806Y-49410047D01*
X154503847Y-49371922D01*
X154621795Y-49348461D01*
X154739741Y-49325000D01*
X154980259Y-49325000D01*
X155098205Y-49348461D01*
X155098205Y-49348461D01*
G37*
G36*
X88376205Y-49348461D02*
G01*
X88494153Y-49371922D01*
X88586194Y-49410047D01*
X88716359Y-49463963D01*
X88916342Y-49597587D01*
X89086413Y-49767658D01*
X89220037Y-49967641D01*
X89312078Y-50189848D01*
X89359000Y-50425741D01*
X89359000Y-50666259D01*
X89312078Y-50902152D01*
X89220037Y-51124359D01*
X89086413Y-51324342D01*
X88916342Y-51494413D01*
X88716359Y-51628037D01*
X88586194Y-51681953D01*
X88494153Y-51720078D01*
X88376205Y-51743539D01*
X88258259Y-51767000D01*
X88017741Y-51767000D01*
X87781847Y-51720078D01*
X87689806Y-51681953D01*
X87559641Y-51628037D01*
X87359658Y-51494413D01*
X87189587Y-51324342D01*
X87055963Y-51124359D01*
X86963922Y-50902152D01*
X86917000Y-50666259D01*
X86917000Y-50425741D01*
X86963922Y-50189848D01*
X87055963Y-49967641D01*
X87189587Y-49767658D01*
X87359658Y-49597587D01*
X87559641Y-49463963D01*
X87689806Y-49410047D01*
X87781847Y-49371922D01*
X87899795Y-49348461D01*
X88017741Y-49325000D01*
X88258259Y-49325000D01*
X88376205Y-49348461D01*
X88376205Y-49348461D01*
G37*
M02*
