M48
; DRILL file {KiCad (5.1.0-0)} date Tuesday, April 02, 2019 at 01:27:14 PM
; FORMAT={-:-/ absolute / inch / decimal}
; #@! TF.CreationDate,2019-04-02T13:27:14-07:00
; #@! TF.GenerationSoftware,Kicad,Pcbnew,(5.1.0-0)
; #@! TF.FileFunction,Plated,1,2,PTH
FMAT,2
INCH
T1C0.0236
T2C0.0315
T3C0.0512
T4C0.0866
%
G90
G05
T1
X2.6Y-2.8909
X2.6Y-2.95
T2
X2.9Y-3.1
X2.9Y-3.2
X2.9Y-3.3
X2.9Y-3.4
X3.2Y-3.1
X3.2Y-3.2
X3.2Y-3.3
X4.4Y-3.1
X4.4Y-3.2
X4.4Y-3.3
X4.4Y-3.4
X4.7Y-3.1
X4.7Y-3.2
X4.7Y-3.3
X4.7Y-3.4
X2.6Y-2.45
X5.0Y-3.1
X5.0Y-3.4
X3.15Y-3.6
X3.15Y-3.9
X4.8Y-2.35
X4.8Y-2.65
X3.2Y-3.4
X3.25Y-2.65
X3.55Y-2.65
X3.2Y-2.0
X3.2Y-2.0984
X5.3016Y-2.25
X5.4Y-2.25
X2.9Y-2.45
X2.1Y-2.25
X2.4Y-2.25
X2.45Y-2.0016
X2.45Y-2.1
X4.3516Y-2.25
X4.45Y-2.25
X4.85Y-2.0984
X3.9Y-2.35
X3.9Y-2.65
X3.7Y-3.65
X3.7925Y-3.9
X3.8713Y-3.9
X3.95Y-3.9
X3.05Y-2.3
X3.35Y-2.3
X5.45Y-2.85
X4.85Y-2.0
X5.75Y-2.85
X6.35Y-3.35
X6.35Y-3.65
X2.3Y-2.0016
X2.3Y-2.1
X3.5016Y-2.25
X3.6Y-2.25
X4.05Y-2.3016
X4.05Y-2.4
X2.6Y-2.3
X2.9Y-2.3
X2.55Y-3.4
X5.2Y-2.35
X4.1Y-2.85
X4.4Y-2.85
X5.2Y-2.65
X4.75Y-3.9
X4.8287Y-3.9
X4.9075Y-3.9
X5.25Y-3.1
X5.25Y-3.4
X5.9Y-2.85
X6.2Y-2.85
X5.9Y-2.35
X5.9Y-2.65
X2.25Y-3.4
X2.6Y-3.5516
X2.6Y-3.65
X4.0Y-3.65
X2.1Y-2.9
X3.7Y-2.35
X3.7Y-2.65
X4.2Y-2.35
X4.2Y-2.65
X5.45Y-3.1
X5.45Y-3.4
X5.7Y-3.1
X5.7Y-3.2
X5.7Y-3.3
X5.7Y-3.4
X6.0Y-3.1
X6.0Y-3.2
X6.0Y-3.3
X6.0Y-3.4
X2.1Y-3.3925
X2.1Y-3.4713
X2.1Y-3.55
X2.1Y-2.45
X2.4Y-2.45
X2.85Y-2.85
X3.15Y-2.85
X4.4016Y-3.65
X4.5Y-3.65
X6.2Y-2.35
X6.2Y-2.65
X3.7Y-3.1
X3.7Y-3.2
X3.7Y-3.3
X3.7Y-3.4
X4.0Y-3.1
X4.0Y-3.2
X4.0Y-3.3
X4.0Y-3.4
X4.55Y-2.35
X4.55Y-2.65
X2.85Y-2.65
X3.15Y-2.65
X2.1Y-3.15
X2.4Y-3.15
X3.05Y-2.45
X3.35Y-2.45
X2.6Y-2.6
X2.6Y-2.6984
X5.65Y-2.0
X5.65Y-2.0984
X2.9Y-3.6
X2.9Y-3.9
X2.3Y-3.5516
X2.3Y-3.65
X4.2925Y-3.9
X4.3713Y-3.9
X4.45Y-3.9
X2.1Y-2.65
X2.4Y-2.65
X4.55Y-2.85
X4.85Y-2.85
X6.0016Y-2.25
X6.1Y-2.25
X5.3016Y-3.65
X5.4Y-3.65
X5.5Y-2.35
X5.5Y-2.65
X3.4Y-3.15
X3.4Y-3.45
X5.75Y-3.9
X6.05Y-3.9
X2.3Y-3.85
X2.6Y-3.85
X6.35Y-2.9
X6.35Y-3.2
X3.4Y-3.6
X3.7Y-2.85
X4.0Y-2.85
X3.4Y-3.9
X5.1925Y-3.9
X5.2713Y-3.9
X5.35Y-3.9
X2.7Y-3.1
X2.7Y-3.4
X3.25Y-2.85
X3.55Y-2.85
X5.75Y-3.7
X6.05Y-3.7
X2.4Y-2.9
X5.0Y-2.85
X5.3Y-2.85
X4.7Y-3.65
X5.0Y-3.65
T3
X2.6531Y-2.1
X2.7516Y-2.0016
X2.85Y-2.1
X5.15Y-2.1
X5.2484Y-2.0016
X5.3469Y-2.1
X4.3Y-2.1
X4.3984Y-2.0016
X4.4969Y-2.1
X5.9531Y-2.1
X6.0516Y-2.0016
X6.15Y-2.1
X3.4531Y-2.1
X3.5516Y-2.0016
X3.65Y-2.1
T4
X2.1Y-3.9
X2.1Y-2.0
X6.35Y-2.0
X6.35Y-3.9
T0
M30
