G04 #@! TF.GenerationSoftware,KiCad,Pcbnew,(5.0.1-3-g963ef8bb5)*
G04 #@! TF.CreationDate,2019-03-07T12:24:47-08:00*
G04 #@! TF.ProjectId,Pre-amp,5072652D616D702E6B696361645F7063,rev?*
G04 #@! TF.SameCoordinates,Original*
G04 #@! TF.FileFunction,Copper,L2,Bot,Signal*
G04 #@! TF.FilePolarity,Positive*
%FSLAX46Y46*%
G04 Gerber Fmt 4.6, Leading zero omitted, Abs format (unit mm)*
G04 Created by KiCad (PCBNEW (5.0.1-3-g963ef8bb5)) date Thursday, March 07, 2019 at 12:24:47 PM*
%MOMM*%
%LPD*%
G01*
G04 APERTURE LIST*
G04 #@! TA.AperFunction,ComponentPad*
%ADD10C,1.600000*%
G04 #@! TD*
G04 #@! TA.AperFunction,ComponentPad*
%ADD11O,1.600000X1.600000*%
G04 #@! TD*
G04 #@! TA.AperFunction,ComponentPad*
%ADD12O,2.000000X2.000000*%
G04 #@! TD*
G04 #@! TA.AperFunction,ComponentPad*
%ADD13R,2.000000X2.000000*%
G04 #@! TD*
G04 #@! TA.AperFunction,ComponentPad*
%ADD14O,1.350000X1.350000*%
G04 #@! TD*
G04 #@! TA.AperFunction,ComponentPad*
%ADD15R,1.350000X1.350000*%
G04 #@! TD*
G04 #@! TA.AperFunction,ComponentPad*
%ADD16O,1.400000X1.400000*%
G04 #@! TD*
G04 #@! TA.AperFunction,ComponentPad*
%ADD17C,1.400000*%
G04 #@! TD*
G04 #@! TA.AperFunction,ComponentPad*
%ADD18C,2.000000*%
G04 #@! TD*
G04 #@! TA.AperFunction,ComponentPad*
%ADD19R,1.676400X1.676400*%
G04 #@! TD*
G04 #@! TA.AperFunction,ComponentPad*
%ADD20C,1.676400*%
G04 #@! TD*
G04 #@! TA.AperFunction,Conductor*
%ADD21C,0.750000*%
G04 #@! TD*
G04 #@! TA.AperFunction,Conductor*
%ADD22C,0.254000*%
G04 #@! TD*
G04 APERTURE END LIST*
D10*
G04 #@! TO.P,C1,1*
G04 #@! TO.N,Net-(C1-Pad1)*
X97790000Y-58420000D03*
D11*
G04 #@! TO.P,C1,2*
G04 #@! TO.N,Net-(C1-Pad2)*
X90290000Y-58420000D03*
G04 #@! TD*
G04 #@! TO.P,C2,2*
G04 #@! TO.N,Net-(C2-Pad2)*
X93980000Y-71120000D03*
D10*
G04 #@! TO.P,C2,1*
G04 #@! TO.N,Net-(C2-Pad1)*
X93980000Y-63620000D03*
G04 #@! TD*
D11*
G04 #@! TO.P,C3,2*
G04 #@! TO.N,Net-(C3-Pad2)*
X111880000Y-58420000D03*
D10*
G04 #@! TO.P,C3,1*
G04 #@! TO.N,Net-(C3-Pad1)*
X119380000Y-58420000D03*
G04 #@! TD*
G04 #@! TO.P,C4,1*
G04 #@! TO.N,Net-(C4-Pad1)*
X115570000Y-63500000D03*
D11*
G04 #@! TO.P,C4,2*
G04 #@! TO.N,Net-(C4-Pad2)*
X115570000Y-71000000D03*
G04 #@! TD*
D10*
G04 #@! TO.P,C5,1*
G04 #@! TO.N,Net-(C5-Pad1)*
X138310000Y-58420000D03*
D11*
G04 #@! TO.P,C5,2*
G04 #@! TO.N,Net-(C5-Pad2)*
X130810000Y-58420000D03*
G04 #@! TD*
G04 #@! TO.P,C6,2*
G04 #@! TO.N,Net-(C6-Pad2)*
X134620000Y-71000000D03*
D10*
G04 #@! TO.P,C6,1*
G04 #@! TO.N,Net-(C6-Pad1)*
X134620000Y-63500000D03*
G04 #@! TD*
D11*
G04 #@! TO.P,C7,2*
G04 #@! TO.N,Net-(C7-Pad2)*
X149980000Y-58420000D03*
D10*
G04 #@! TO.P,C7,1*
G04 #@! TO.N,Net-(C7-Pad1)*
X157480000Y-58420000D03*
G04 #@! TD*
G04 #@! TO.P,C8,1*
G04 #@! TO.N,Net-(C8-Pad1)*
X153670000Y-63500000D03*
D11*
G04 #@! TO.P,C8,2*
G04 #@! TO.N,Net-(C8-Pad2)*
X153670000Y-71000000D03*
G04 #@! TD*
G04 #@! TO.P,C9,2*
G04 #@! TO.N,Net-(C9-Pad2)*
X143510000Y-80010000D03*
D10*
G04 #@! TO.P,C9,1*
G04 #@! TO.N,Net-(C9-Pad1)*
X136010000Y-80010000D03*
G04 #@! TD*
G04 #@! TO.P,C10,1*
G04 #@! TO.N,Net-(C10-Pad1)*
X122040000Y-92710000D03*
D11*
G04 #@! TO.P,C10,2*
G04 #@! TO.N,Net-(C10-Pad2)*
X129540000Y-92710000D03*
G04 #@! TD*
D12*
G04 #@! TO.P,D1,2*
G04 #@! TO.N,Net-(D1-Pad2)*
X148590000Y-81280000D03*
D13*
G04 #@! TO.P,D1,1*
G04 #@! TO.N,Net-(D1-Pad1)*
X153670000Y-81280000D03*
G04 #@! TD*
G04 #@! TO.P,D2,1*
G04 #@! TO.N,GND*
X162560000Y-81280000D03*
D12*
G04 #@! TO.P,D2,2*
G04 #@! TO.N,Net-(D1-Pad1)*
X157480000Y-81280000D03*
G04 #@! TD*
D14*
G04 #@! TO.P,J1,3*
G04 #@! TO.N,GND*
X86360000Y-86360000D03*
G04 #@! TO.P,J1,2*
G04 #@! TO.N,Net-(J1-Pad2)*
X86360000Y-84360000D03*
D15*
G04 #@! TO.P,J1,1*
G04 #@! TO.N,GND*
X86360000Y-82360000D03*
G04 #@! TD*
G04 #@! TO.P,J2,1*
G04 #@! TO.N,GND*
X109220000Y-99060000D03*
D14*
G04 #@! TO.P,J2,2*
G04 #@! TO.N,Net-(J2-Pad2)*
X111220000Y-99060000D03*
G04 #@! TO.P,J2,3*
G04 #@! TO.N,N/C*
X113220000Y-99060000D03*
G04 #@! TD*
G04 #@! TO.P,J3,3*
G04 #@! TO.N,Net-(J2-Pad2)*
X127190000Y-99060000D03*
G04 #@! TO.P,J3,2*
G04 #@! TO.N,Net-(C10-Pad1)*
X125190000Y-99060000D03*
D15*
G04 #@! TO.P,J3,1*
G04 #@! TO.N,GND*
X123190000Y-99060000D03*
G04 #@! TD*
G04 #@! TO.P,J4,1*
G04 #@! TO.N,GND*
X148050000Y-99060000D03*
D14*
G04 #@! TO.P,J4,2*
G04 #@! TO.N,Net-(J4-Pad2)*
X146050000Y-99060000D03*
G04 #@! TO.P,J4,3*
G04 #@! TO.N,N/C*
X144050000Y-99060000D03*
G04 #@! TD*
D16*
G04 #@! TO.P,R1,2*
G04 #@! TO.N,Net-(J1-Pad2)*
X88900000Y-68580000D03*
D17*
G04 #@! TO.P,R1,1*
G04 #@! TO.N,Net-(C1-Pad2)*
X88900000Y-63500000D03*
G04 #@! TD*
D16*
G04 #@! TO.P,R2,2*
G04 #@! TO.N,Net-(J1-Pad2)*
X86360000Y-74930000D03*
D17*
G04 #@! TO.P,R2,1*
G04 #@! TO.N,Net-(C2-Pad2)*
X91440000Y-74930000D03*
G04 #@! TD*
G04 #@! TO.P,R3,1*
G04 #@! TO.N,Net-(R3-Pad1)*
X101600000Y-74930000D03*
D16*
G04 #@! TO.P,R3,2*
G04 #@! TO.N,Net-(C2-Pad2)*
X96520000Y-74930000D03*
G04 #@! TD*
D17*
G04 #@! TO.P,R4,1*
G04 #@! TO.N,Net-(R3-Pad1)*
X99060000Y-68580000D03*
D16*
G04 #@! TO.P,R4,2*
G04 #@! TO.N,Net-(C1-Pad1)*
X99060000Y-63500000D03*
G04 #@! TD*
D17*
G04 #@! TO.P,R5,1*
G04 #@! TO.N,Net-(R3-Pad1)*
X106680000Y-68580000D03*
D16*
G04 #@! TO.P,R5,2*
G04 #@! TO.N,Net-(R5-Pad2)*
X106680000Y-63500000D03*
G04 #@! TD*
G04 #@! TO.P,R6,2*
G04 #@! TO.N,Net-(C3-Pad2)*
X106680000Y-53340000D03*
D17*
G04 #@! TO.P,R6,1*
G04 #@! TO.N,Net-(R5-Pad2)*
X106680000Y-58420000D03*
G04 #@! TD*
G04 #@! TO.P,R7,1*
G04 #@! TO.N,Net-(C4-Pad1)*
X111760000Y-68580000D03*
D16*
G04 #@! TO.P,R7,2*
G04 #@! TO.N,Net-(C3-Pad2)*
X111760000Y-63500000D03*
G04 #@! TD*
G04 #@! TO.P,R8,2*
G04 #@! TO.N,Net-(R3-Pad1)*
X107950000Y-74930000D03*
D17*
G04 #@! TO.P,R8,1*
G04 #@! TO.N,Net-(C4-Pad2)*
X113030000Y-74930000D03*
G04 #@! TD*
D16*
G04 #@! TO.P,R9,2*
G04 #@! TO.N,Net-(C3-Pad1)*
X120650000Y-63500000D03*
D17*
G04 #@! TO.P,R9,1*
G04 #@! TO.N,Net-(C4-Pad1)*
X120650000Y-68580000D03*
G04 #@! TD*
G04 #@! TO.P,R10,1*
G04 #@! TO.N,Net-(R10-Pad1)*
X123190000Y-74930000D03*
D16*
G04 #@! TO.P,R10,2*
G04 #@! TO.N,Net-(C4-Pad2)*
X118110000Y-74930000D03*
G04 #@! TD*
D17*
G04 #@! TO.P,R11,1*
G04 #@! TO.N,Net-(R10-Pad1)*
X123190000Y-58420000D03*
D16*
G04 #@! TO.P,R11,2*
G04 #@! TO.N,Net-(C3-Pad1)*
X123190000Y-53340000D03*
G04 #@! TD*
G04 #@! TO.P,R12,2*
G04 #@! TO.N,Net-(R10-Pad1)*
X128270000Y-68580000D03*
D17*
G04 #@! TO.P,R12,1*
G04 #@! TO.N,Net-(C5-Pad2)*
X128270000Y-63500000D03*
G04 #@! TD*
D16*
G04 #@! TO.P,R13,2*
G04 #@! TO.N,Net-(R10-Pad1)*
X127000000Y-74930000D03*
D17*
G04 #@! TO.P,R13,1*
G04 #@! TO.N,Net-(C6-Pad2)*
X132080000Y-74930000D03*
G04 #@! TD*
G04 #@! TO.P,R14,1*
G04 #@! TO.N,Net-(R14-Pad1)*
X142240000Y-74930000D03*
D16*
G04 #@! TO.P,R14,2*
G04 #@! TO.N,Net-(C6-Pad2)*
X137160000Y-74930000D03*
G04 #@! TD*
D17*
G04 #@! TO.P,R15,1*
G04 #@! TO.N,Net-(R14-Pad1)*
X140970000Y-68580000D03*
D16*
G04 #@! TO.P,R15,2*
G04 #@! TO.N,Net-(C5-Pad1)*
X140970000Y-63500000D03*
G04 #@! TD*
G04 #@! TO.P,R16,2*
G04 #@! TO.N,Net-(R14-Pad1)*
X147320000Y-68580000D03*
D17*
G04 #@! TO.P,R16,1*
G04 #@! TO.N,Net-(C7-Pad2)*
X147320000Y-63500000D03*
G04 #@! TD*
D16*
G04 #@! TO.P,R17,2*
G04 #@! TO.N,Net-(R14-Pad1)*
X146050000Y-74930000D03*
D17*
G04 #@! TO.P,R17,1*
G04 #@! TO.N,Net-(C8-Pad2)*
X151130000Y-74930000D03*
G04 #@! TD*
G04 #@! TO.P,R18,1*
G04 #@! TO.N,Net-(C9-Pad2)*
X160020000Y-68580000D03*
D16*
G04 #@! TO.P,R18,2*
G04 #@! TO.N,Net-(C7-Pad1)*
X160020000Y-63500000D03*
G04 #@! TD*
D17*
G04 #@! TO.P,R19,1*
G04 #@! TO.N,Net-(C9-Pad2)*
X160020000Y-74930000D03*
D16*
G04 #@! TO.P,R19,2*
G04 #@! TO.N,Net-(C8-Pad2)*
X154940000Y-74930000D03*
G04 #@! TD*
G04 #@! TO.P,R20,2*
G04 #@! TO.N,Net-(C9-Pad1)*
X135890000Y-85090000D03*
D17*
G04 #@! TO.P,R20,1*
G04 #@! TO.N,Net-(J2-Pad2)*
X135890000Y-90170000D03*
G04 #@! TD*
G04 #@! TO.P,R21,1*
G04 #@! TO.N,GND*
X107950000Y-90170000D03*
D16*
G04 #@! TO.P,R21,2*
G04 #@! TO.N,Net-(J2-Pad2)*
X113030000Y-90170000D03*
G04 #@! TD*
G04 #@! TO.P,R22,2*
G04 #@! TO.N,Net-(J4-Pad2)*
X146050000Y-90170000D03*
D17*
G04 #@! TO.P,R22,1*
G04 #@! TO.N,Net-(R22-Pad1)*
X146050000Y-85090000D03*
G04 #@! TD*
D16*
G04 #@! TO.P,R23,2*
G04 #@! TO.N,Net-(R23-Pad2)*
X149860000Y-90170000D03*
D17*
G04 #@! TO.P,R23,1*
G04 #@! TO.N,Net-(R22-Pad1)*
X149860000Y-85090000D03*
G04 #@! TD*
G04 #@! TO.P,R24,1*
G04 #@! TO.N,Net-(R23-Pad2)*
X148590000Y-95250000D03*
D16*
G04 #@! TO.P,R24,2*
G04 #@! TO.N,GND*
X143510000Y-95250000D03*
G04 #@! TD*
G04 #@! TO.P,R25,2*
G04 #@! TO.N,Net-(C10-Pad2)*
X140970000Y-90170000D03*
D17*
G04 #@! TO.P,R25,1*
G04 #@! TO.N,Net-(D1-Pad2)*
X140970000Y-85090000D03*
G04 #@! TD*
G04 #@! TO.P,R26,1*
G04 #@! TO.N,Net-(C10-Pad2)*
X138430000Y-99060000D03*
D16*
G04 #@! TO.P,R26,2*
G04 #@! TO.N,GND*
X133350000Y-99060000D03*
G04 #@! TD*
D18*
G04 #@! TO.P,RV1,2*
G04 #@! TO.N,Net-(C2-Pad1)*
X93980000Y-50800000D03*
G04 #@! TO.P,RV1,3*
G04 #@! TO.N,Net-(C1-Pad2)*
X91440000Y-50800000D03*
G04 #@! TO.P,RV1,1*
G04 #@! TO.N,Net-(C1-Pad1)*
X96520000Y-50800000D03*
G04 #@! TD*
G04 #@! TO.P,RV2,1*
G04 #@! TO.N,Net-(C3-Pad1)*
X118110000Y-50800000D03*
G04 #@! TO.P,RV2,3*
G04 #@! TO.N,Net-(C3-Pad2)*
X113030000Y-50800000D03*
G04 #@! TO.P,RV2,2*
G04 #@! TO.N,Net-(C4-Pad1)*
X115570000Y-50800000D03*
G04 #@! TD*
G04 #@! TO.P,RV3,2*
G04 #@! TO.N,Net-(C6-Pad1)*
X134620000Y-50800000D03*
G04 #@! TO.P,RV3,3*
G04 #@! TO.N,Net-(C5-Pad2)*
X132080000Y-50800000D03*
G04 #@! TO.P,RV3,1*
G04 #@! TO.N,Net-(C5-Pad1)*
X137160000Y-50800000D03*
G04 #@! TD*
G04 #@! TO.P,RV4,1*
G04 #@! TO.N,Net-(C7-Pad1)*
X156210000Y-50800000D03*
G04 #@! TO.P,RV4,3*
G04 #@! TO.N,Net-(C7-Pad2)*
X151130000Y-50800000D03*
G04 #@! TO.P,RV4,2*
G04 #@! TO.N,Net-(C8-Pad1)*
X153670000Y-50800000D03*
G04 #@! TD*
D19*
G04 #@! TO.P,U1,1*
G04 #@! TO.N,Net-(R3-Pad1)*
X96520000Y-80010000D03*
D20*
G04 #@! TO.P,U1,2*
G04 #@! TO.N,Net-(C2-Pad2)*
X96520000Y-82550000D03*
G04 #@! TO.P,U1,3*
G04 #@! TO.N,GND*
X96520000Y-85090000D03*
G04 #@! TO.P,U1,4*
G04 #@! TO.N,-15V*
X96520000Y-87630000D03*
G04 #@! TO.P,U1,5*
G04 #@! TO.N,GND*
X104140000Y-87630000D03*
G04 #@! TO.P,U1,6*
G04 #@! TO.N,Net-(C4-Pad2)*
X104140000Y-85090000D03*
G04 #@! TO.P,U1,7*
G04 #@! TO.N,Net-(R10-Pad1)*
X104140000Y-82550000D03*
G04 #@! TO.P,U1,8*
G04 #@! TO.N,+15V*
X104140000Y-80010000D03*
G04 #@! TD*
D19*
G04 #@! TO.P,U2,1*
G04 #@! TO.N,Net-(R14-Pad1)*
X128270000Y-80010000D03*
D20*
G04 #@! TO.P,U2,2*
G04 #@! TO.N,Net-(C6-Pad2)*
X125730000Y-80010000D03*
G04 #@! TO.P,U2,3*
G04 #@! TO.N,GND*
X123190000Y-80010000D03*
G04 #@! TO.P,U2,4*
G04 #@! TO.N,-15V*
X120650000Y-80010000D03*
G04 #@! TO.P,U2,5*
G04 #@! TO.N,GND*
X120650000Y-87630000D03*
G04 #@! TO.P,U2,6*
G04 #@! TO.N,Net-(C8-Pad2)*
X123190000Y-87630000D03*
G04 #@! TO.P,U2,7*
G04 #@! TO.N,Net-(C9-Pad2)*
X125730000Y-87630000D03*
G04 #@! TO.P,U2,8*
G04 #@! TO.N,+15V*
X128270000Y-87630000D03*
G04 #@! TD*
G04 #@! TO.P,U3,8*
G04 #@! TO.N,+15V*
X162560000Y-87630000D03*
G04 #@! TO.P,U3,7*
G04 #@! TO.N,N/C*
X162560000Y-90170000D03*
G04 #@! TO.P,U3,6*
X162560000Y-92710000D03*
G04 #@! TO.P,U3,5*
X162560000Y-95250000D03*
G04 #@! TO.P,U3,4*
G04 #@! TO.N,-15V*
X154940000Y-95250000D03*
G04 #@! TO.P,U3,3*
G04 #@! TO.N,Net-(D1-Pad2)*
X154940000Y-92710000D03*
G04 #@! TO.P,U3,2*
G04 #@! TO.N,Net-(R23-Pad2)*
X154940000Y-90170000D03*
D19*
G04 #@! TO.P,U3,1*
G04 #@! TO.N,Net-(R22-Pad1)*
X154940000Y-87630000D03*
G04 #@! TD*
D14*
G04 #@! TO.P,J5,3*
G04 #@! TO.N,GND*
X95060000Y-99060000D03*
G04 #@! TO.P,J5,2*
G04 #@! TO.N,-15V*
X97060000Y-99060000D03*
D15*
G04 #@! TO.P,J5,1*
G04 #@! TO.N,+15V*
X99060000Y-99060000D03*
G04 #@! TD*
D21*
G04 #@! TO.N,Net-(C4-Pad2)*
X113030000Y-76200000D02*
X113030000Y-74930000D01*
X104140000Y-85090000D02*
X113030000Y-76200000D01*
G04 #@! TO.N,Net-(C9-Pad1)*
X135890000Y-80130000D02*
X136010000Y-80010000D01*
X135890000Y-85090000D02*
X135890000Y-80130000D01*
G04 #@! TO.N,Net-(D1-Pad2)*
X154101801Y-91871801D02*
X154940000Y-92710000D01*
X151135001Y-88905001D02*
X154101801Y-91871801D01*
X151135001Y-83825001D02*
X151135001Y-88905001D01*
X148590000Y-81280000D02*
X151135001Y-83825001D01*
G04 #@! TO.N,Net-(J2-Pad2)*
X135890000Y-90360000D02*
X135890000Y-90170000D01*
X127190000Y-99060000D02*
X135890000Y-90360000D01*
X111220000Y-91980000D02*
X113030000Y-90170000D01*
X111220000Y-99060000D02*
X111220000Y-91980000D01*
G04 #@! TD*
D22*
G04 #@! TO.N,+15V*
G36*
X163120001Y-79632560D02*
X161560000Y-79632560D01*
X161312235Y-79681843D01*
X161102191Y-79822191D01*
X160961843Y-80032235D01*
X160912560Y-80280000D01*
X160912560Y-82280000D01*
X160961843Y-82527765D01*
X161102191Y-82737809D01*
X161312235Y-82878157D01*
X161560000Y-82927440D01*
X163120001Y-82927440D01*
X163120001Y-86265964D01*
X162785903Y-86145023D01*
X162200431Y-86171611D01*
X161783017Y-86344510D01*
X161704192Y-86594587D01*
X162560000Y-87450395D01*
X162574143Y-87436253D01*
X162753748Y-87615858D01*
X162739605Y-87630000D01*
X162753748Y-87644143D01*
X162574143Y-87823748D01*
X162560000Y-87809605D01*
X161704192Y-88665413D01*
X161777933Y-88899362D01*
X161725499Y-88921081D01*
X161311081Y-89335499D01*
X161086800Y-89876962D01*
X161086800Y-90463038D01*
X161311081Y-91004501D01*
X161725499Y-91418919D01*
X161776393Y-91440000D01*
X161725499Y-91461081D01*
X161311081Y-91875499D01*
X161086800Y-92416962D01*
X161086800Y-93003038D01*
X161311081Y-93544501D01*
X161725499Y-93958919D01*
X161776393Y-93980000D01*
X161725499Y-94001081D01*
X161311081Y-94415499D01*
X161086800Y-94956962D01*
X161086800Y-95543038D01*
X161311081Y-96084501D01*
X161725499Y-96498919D01*
X162266962Y-96723200D01*
X162853038Y-96723200D01*
X163120001Y-96612621D01*
X163120001Y-100890000D01*
X84530000Y-100890000D01*
X84530000Y-99060000D01*
X93724336Y-99060000D01*
X93826007Y-99571136D01*
X94115543Y-100004457D01*
X94548864Y-100293993D01*
X94930978Y-100370000D01*
X95189022Y-100370000D01*
X95571136Y-100293993D01*
X96004457Y-100004457D01*
X96060000Y-99921331D01*
X96115543Y-100004457D01*
X96548864Y-100293993D01*
X96930978Y-100370000D01*
X97189022Y-100370000D01*
X97571136Y-100293993D01*
X97855777Y-100103802D01*
X98025301Y-100273327D01*
X98258690Y-100370000D01*
X98774250Y-100370000D01*
X98933000Y-100211250D01*
X98933000Y-99187000D01*
X99187000Y-99187000D01*
X99187000Y-100211250D01*
X99345750Y-100370000D01*
X99861310Y-100370000D01*
X100094699Y-100273327D01*
X100273327Y-100094698D01*
X100370000Y-99861309D01*
X100370000Y-99345750D01*
X100211250Y-99187000D01*
X99187000Y-99187000D01*
X98933000Y-99187000D01*
X98913000Y-99187000D01*
X98913000Y-98933000D01*
X98933000Y-98933000D01*
X98933000Y-97908750D01*
X99187000Y-97908750D01*
X99187000Y-98933000D01*
X100211250Y-98933000D01*
X100370000Y-98774250D01*
X100370000Y-98385000D01*
X107897560Y-98385000D01*
X107897560Y-99735000D01*
X107946843Y-99982765D01*
X108087191Y-100192809D01*
X108297235Y-100333157D01*
X108545000Y-100382440D01*
X109895000Y-100382440D01*
X110142765Y-100333157D01*
X110352809Y-100192809D01*
X110415968Y-100098286D01*
X110708864Y-100293993D01*
X111090978Y-100370000D01*
X111349022Y-100370000D01*
X111731136Y-100293993D01*
X112164457Y-100004457D01*
X112220000Y-99921331D01*
X112275543Y-100004457D01*
X112708864Y-100293993D01*
X113090978Y-100370000D01*
X113349022Y-100370000D01*
X113731136Y-100293993D01*
X114164457Y-100004457D01*
X114453993Y-99571136D01*
X114555664Y-99060000D01*
X114453993Y-98548864D01*
X114344503Y-98385000D01*
X121867560Y-98385000D01*
X121867560Y-99735000D01*
X121916843Y-99982765D01*
X122057191Y-100192809D01*
X122267235Y-100333157D01*
X122515000Y-100382440D01*
X123865000Y-100382440D01*
X124112765Y-100333157D01*
X124322809Y-100192809D01*
X124385968Y-100098286D01*
X124678864Y-100293993D01*
X125060978Y-100370000D01*
X125319022Y-100370000D01*
X125701136Y-100293993D01*
X126134457Y-100004457D01*
X126190000Y-99921331D01*
X126245543Y-100004457D01*
X126678864Y-100293993D01*
X127060978Y-100370000D01*
X127319022Y-100370000D01*
X127701136Y-100293993D01*
X128134457Y-100004457D01*
X128423993Y-99571136D01*
X128502649Y-99175706D01*
X128618355Y-99060000D01*
X131988846Y-99060000D01*
X132092458Y-99580891D01*
X132387519Y-100022481D01*
X132829109Y-100317542D01*
X133218515Y-100395000D01*
X133481485Y-100395000D01*
X133870891Y-100317542D01*
X134312481Y-100022481D01*
X134607542Y-99580891D01*
X134711154Y-99060000D01*
X134658334Y-98794452D01*
X137095000Y-98794452D01*
X137095000Y-99325548D01*
X137298242Y-99816217D01*
X137673783Y-100191758D01*
X138164452Y-100395000D01*
X138695548Y-100395000D01*
X139186217Y-100191758D01*
X139561758Y-99816217D01*
X139765000Y-99325548D01*
X139765000Y-99060000D01*
X142714336Y-99060000D01*
X142816007Y-99571136D01*
X143105543Y-100004457D01*
X143538864Y-100293993D01*
X143920978Y-100370000D01*
X144179022Y-100370000D01*
X144561136Y-100293993D01*
X144994457Y-100004457D01*
X145050000Y-99921331D01*
X145105543Y-100004457D01*
X145538864Y-100293993D01*
X145920978Y-100370000D01*
X146179022Y-100370000D01*
X146561136Y-100293993D01*
X146854032Y-100098286D01*
X146917191Y-100192809D01*
X147127235Y-100333157D01*
X147375000Y-100382440D01*
X148725000Y-100382440D01*
X148972765Y-100333157D01*
X149182809Y-100192809D01*
X149323157Y-99982765D01*
X149372440Y-99735000D01*
X149372440Y-98385000D01*
X149323157Y-98137235D01*
X149182809Y-97927191D01*
X148972765Y-97786843D01*
X148725000Y-97737560D01*
X147375000Y-97737560D01*
X147127235Y-97786843D01*
X146917191Y-97927191D01*
X146854032Y-98021714D01*
X146561136Y-97826007D01*
X146179022Y-97750000D01*
X145920978Y-97750000D01*
X145538864Y-97826007D01*
X145105543Y-98115543D01*
X145050000Y-98198669D01*
X144994457Y-98115543D01*
X144561136Y-97826007D01*
X144179022Y-97750000D01*
X143920978Y-97750000D01*
X143538864Y-97826007D01*
X143105543Y-98115543D01*
X142816007Y-98548864D01*
X142714336Y-99060000D01*
X139765000Y-99060000D01*
X139765000Y-98794452D01*
X139561758Y-98303783D01*
X139186217Y-97928242D01*
X138695548Y-97725000D01*
X138164452Y-97725000D01*
X137673783Y-97928242D01*
X137298242Y-98303783D01*
X137095000Y-98794452D01*
X134658334Y-98794452D01*
X134607542Y-98539109D01*
X134312481Y-98097519D01*
X133870891Y-97802458D01*
X133481485Y-97725000D01*
X133218515Y-97725000D01*
X132829109Y-97802458D01*
X132387519Y-98097519D01*
X132092458Y-98539109D01*
X131988846Y-99060000D01*
X128618355Y-99060000D01*
X132428355Y-95250000D01*
X142148846Y-95250000D01*
X142252458Y-95770891D01*
X142547519Y-96212481D01*
X142989109Y-96507542D01*
X143378515Y-96585000D01*
X143641485Y-96585000D01*
X144030891Y-96507542D01*
X144472481Y-96212481D01*
X144767542Y-95770891D01*
X144871154Y-95250000D01*
X144818334Y-94984452D01*
X147255000Y-94984452D01*
X147255000Y-95515548D01*
X147458242Y-96006217D01*
X147833783Y-96381758D01*
X148324452Y-96585000D01*
X148855548Y-96585000D01*
X149346217Y-96381758D01*
X149721758Y-96006217D01*
X149925000Y-95515548D01*
X149925000Y-94984452D01*
X149721758Y-94493783D01*
X149346217Y-94118242D01*
X148855548Y-93915000D01*
X148324452Y-93915000D01*
X147833783Y-94118242D01*
X147458242Y-94493783D01*
X147255000Y-94984452D01*
X144818334Y-94984452D01*
X144767542Y-94729109D01*
X144472481Y-94287519D01*
X144030891Y-93992458D01*
X143641485Y-93915000D01*
X143378515Y-93915000D01*
X142989109Y-93992458D01*
X142547519Y-94287519D01*
X142252458Y-94729109D01*
X142148846Y-95250000D01*
X132428355Y-95250000D01*
X136185948Y-91492408D01*
X136646217Y-91301758D01*
X137021758Y-90926217D01*
X137225000Y-90435548D01*
X137225000Y-90170000D01*
X139608846Y-90170000D01*
X139712458Y-90690891D01*
X140007519Y-91132481D01*
X140449109Y-91427542D01*
X140838515Y-91505000D01*
X141101485Y-91505000D01*
X141490891Y-91427542D01*
X141932481Y-91132481D01*
X142227542Y-90690891D01*
X142331154Y-90170000D01*
X144688846Y-90170000D01*
X144792458Y-90690891D01*
X145087519Y-91132481D01*
X145529109Y-91427542D01*
X145918515Y-91505000D01*
X146181485Y-91505000D01*
X146570891Y-91427542D01*
X147012481Y-91132481D01*
X147307542Y-90690891D01*
X147411154Y-90170000D01*
X147307542Y-89649109D01*
X147012481Y-89207519D01*
X146570891Y-88912458D01*
X146181485Y-88835000D01*
X145918515Y-88835000D01*
X145529109Y-88912458D01*
X145087519Y-89207519D01*
X144792458Y-89649109D01*
X144688846Y-90170000D01*
X142331154Y-90170000D01*
X142227542Y-89649109D01*
X141932481Y-89207519D01*
X141490891Y-88912458D01*
X141101485Y-88835000D01*
X140838515Y-88835000D01*
X140449109Y-88912458D01*
X140007519Y-89207519D01*
X139712458Y-89649109D01*
X139608846Y-90170000D01*
X137225000Y-90170000D01*
X137225000Y-89904452D01*
X137021758Y-89413783D01*
X136646217Y-89038242D01*
X136155548Y-88835000D01*
X135624452Y-88835000D01*
X135133783Y-89038242D01*
X134758242Y-89413783D01*
X134555000Y-89904452D01*
X134555000Y-90266644D01*
X127071645Y-97750000D01*
X127060978Y-97750000D01*
X126678864Y-97826007D01*
X126245543Y-98115543D01*
X126190000Y-98198669D01*
X126134457Y-98115543D01*
X125701136Y-97826007D01*
X125319022Y-97750000D01*
X125060978Y-97750000D01*
X124678864Y-97826007D01*
X124385968Y-98021714D01*
X124322809Y-97927191D01*
X124112765Y-97786843D01*
X123865000Y-97737560D01*
X122515000Y-97737560D01*
X122267235Y-97786843D01*
X122057191Y-97927191D01*
X121916843Y-98137235D01*
X121867560Y-98385000D01*
X114344503Y-98385000D01*
X114164457Y-98115543D01*
X113731136Y-97826007D01*
X113349022Y-97750000D01*
X113090978Y-97750000D01*
X112708864Y-97826007D01*
X112275543Y-98115543D01*
X112230000Y-98183703D01*
X112230000Y-92424561D01*
X120605000Y-92424561D01*
X120605000Y-92995439D01*
X120823466Y-93522862D01*
X121227138Y-93926534D01*
X121754561Y-94145000D01*
X122325439Y-94145000D01*
X122852862Y-93926534D01*
X123256534Y-93522862D01*
X123475000Y-92995439D01*
X123475000Y-92710000D01*
X128076887Y-92710000D01*
X128188260Y-93269909D01*
X128505423Y-93744577D01*
X128980091Y-94061740D01*
X129398667Y-94145000D01*
X129681333Y-94145000D01*
X130099909Y-94061740D01*
X130574577Y-93744577D01*
X130891740Y-93269909D01*
X131003113Y-92710000D01*
X130891740Y-92150091D01*
X130574577Y-91675423D01*
X130099909Y-91358260D01*
X129681333Y-91275000D01*
X129398667Y-91275000D01*
X128980091Y-91358260D01*
X128505423Y-91675423D01*
X128188260Y-92150091D01*
X128076887Y-92710000D01*
X123475000Y-92710000D01*
X123475000Y-92424561D01*
X123256534Y-91897138D01*
X122852862Y-91493466D01*
X122325439Y-91275000D01*
X121754561Y-91275000D01*
X121227138Y-91493466D01*
X120823466Y-91897138D01*
X120605000Y-92424561D01*
X112230000Y-92424561D01*
X112230000Y-92398355D01*
X113123356Y-91505000D01*
X113161485Y-91505000D01*
X113550891Y-91427542D01*
X113992481Y-91132481D01*
X114287542Y-90690891D01*
X114391154Y-90170000D01*
X114287542Y-89649109D01*
X113992481Y-89207519D01*
X113550891Y-88912458D01*
X113161485Y-88835000D01*
X112898515Y-88835000D01*
X112509109Y-88912458D01*
X112067519Y-89207519D01*
X111772458Y-89649109D01*
X111685532Y-90086112D01*
X110576160Y-91195484D01*
X110491832Y-91251831D01*
X110435485Y-91336160D01*
X110435482Y-91336163D01*
X110268602Y-91585918D01*
X110190214Y-91980000D01*
X110210001Y-92079476D01*
X110210000Y-97831768D01*
X110142765Y-97786843D01*
X109895000Y-97737560D01*
X108545000Y-97737560D01*
X108297235Y-97786843D01*
X108087191Y-97927191D01*
X107946843Y-98137235D01*
X107897560Y-98385000D01*
X100370000Y-98385000D01*
X100370000Y-98258691D01*
X100273327Y-98025302D01*
X100094699Y-97846673D01*
X99861310Y-97750000D01*
X99345750Y-97750000D01*
X99187000Y-97908750D01*
X98933000Y-97908750D01*
X98774250Y-97750000D01*
X98258690Y-97750000D01*
X98025301Y-97846673D01*
X97855777Y-98016198D01*
X97571136Y-97826007D01*
X97189022Y-97750000D01*
X96930978Y-97750000D01*
X96548864Y-97826007D01*
X96115543Y-98115543D01*
X96060000Y-98198669D01*
X96004457Y-98115543D01*
X95571136Y-97826007D01*
X95189022Y-97750000D01*
X94930978Y-97750000D01*
X94548864Y-97826007D01*
X94115543Y-98115543D01*
X93826007Y-98548864D01*
X93724336Y-99060000D01*
X84530000Y-99060000D01*
X84530000Y-89904452D01*
X106615000Y-89904452D01*
X106615000Y-90435548D01*
X106818242Y-90926217D01*
X107193783Y-91301758D01*
X107684452Y-91505000D01*
X108215548Y-91505000D01*
X108706217Y-91301758D01*
X109081758Y-90926217D01*
X109285000Y-90435548D01*
X109285000Y-89904452D01*
X109081758Y-89413783D01*
X108706217Y-89038242D01*
X108215548Y-88835000D01*
X107684452Y-88835000D01*
X107193783Y-89038242D01*
X106818242Y-89413783D01*
X106615000Y-89904452D01*
X84530000Y-89904452D01*
X84530000Y-84360000D01*
X85024336Y-84360000D01*
X85126007Y-84871136D01*
X85415543Y-85304457D01*
X85498669Y-85360000D01*
X85415543Y-85415543D01*
X85126007Y-85848864D01*
X85024336Y-86360000D01*
X85126007Y-86871136D01*
X85415543Y-87304457D01*
X85848864Y-87593993D01*
X86230978Y-87670000D01*
X86489022Y-87670000D01*
X86871136Y-87593993D01*
X87304457Y-87304457D01*
X87593993Y-86871136D01*
X87695664Y-86360000D01*
X87593993Y-85848864D01*
X87304457Y-85415543D01*
X87221331Y-85360000D01*
X87304457Y-85304457D01*
X87593993Y-84871136D01*
X87695664Y-84360000D01*
X87593993Y-83848864D01*
X87398286Y-83555968D01*
X87492809Y-83492809D01*
X87633157Y-83282765D01*
X87682440Y-83035000D01*
X87682440Y-81685000D01*
X87633157Y-81437235D01*
X87492809Y-81227191D01*
X87282765Y-81086843D01*
X87035000Y-81037560D01*
X85685000Y-81037560D01*
X85437235Y-81086843D01*
X85227191Y-81227191D01*
X85086843Y-81437235D01*
X85037560Y-81685000D01*
X85037560Y-83035000D01*
X85086843Y-83282765D01*
X85227191Y-83492809D01*
X85321714Y-83555968D01*
X85126007Y-83848864D01*
X85024336Y-84360000D01*
X84530000Y-84360000D01*
X84530000Y-79171800D01*
X95034360Y-79171800D01*
X95034360Y-80848200D01*
X95083643Y-81095965D01*
X95223991Y-81306009D01*
X95434035Y-81446357D01*
X95522605Y-81463975D01*
X95271081Y-81715499D01*
X95046800Y-82256962D01*
X95046800Y-82843038D01*
X95271081Y-83384501D01*
X95685499Y-83798919D01*
X95736393Y-83820000D01*
X95685499Y-83841081D01*
X95271081Y-84255499D01*
X95046800Y-84796962D01*
X95046800Y-85383038D01*
X95271081Y-85924501D01*
X95685499Y-86338919D01*
X95736393Y-86360000D01*
X95685499Y-86381081D01*
X95271081Y-86795499D01*
X95046800Y-87336962D01*
X95046800Y-87923038D01*
X95271081Y-88464501D01*
X95685499Y-88878919D01*
X96226962Y-89103200D01*
X96813038Y-89103200D01*
X97354501Y-88878919D01*
X97768919Y-88464501D01*
X97993200Y-87923038D01*
X97993200Y-87336962D01*
X97768919Y-86795499D01*
X97354501Y-86381081D01*
X97303607Y-86360000D01*
X97354501Y-86338919D01*
X97768919Y-85924501D01*
X97993200Y-85383038D01*
X97993200Y-84796962D01*
X97768919Y-84255499D01*
X97354501Y-83841081D01*
X97303607Y-83820000D01*
X97354501Y-83798919D01*
X97768919Y-83384501D01*
X97993200Y-82843038D01*
X97993200Y-82256962D01*
X102666800Y-82256962D01*
X102666800Y-82843038D01*
X102891081Y-83384501D01*
X103305499Y-83798919D01*
X103356393Y-83820000D01*
X103305499Y-83841081D01*
X102891081Y-84255499D01*
X102666800Y-84796962D01*
X102666800Y-85383038D01*
X102891081Y-85924501D01*
X103305499Y-86338919D01*
X103356393Y-86360000D01*
X103305499Y-86381081D01*
X102891081Y-86795499D01*
X102666800Y-87336962D01*
X102666800Y-87923038D01*
X102891081Y-88464501D01*
X103305499Y-88878919D01*
X103846962Y-89103200D01*
X104433038Y-89103200D01*
X104974501Y-88878919D01*
X105388919Y-88464501D01*
X105613200Y-87923038D01*
X105613200Y-87336962D01*
X119176800Y-87336962D01*
X119176800Y-87923038D01*
X119401081Y-88464501D01*
X119815499Y-88878919D01*
X120356962Y-89103200D01*
X120943038Y-89103200D01*
X121484501Y-88878919D01*
X121898919Y-88464501D01*
X121920000Y-88413607D01*
X121941081Y-88464501D01*
X122355499Y-88878919D01*
X122896962Y-89103200D01*
X123483038Y-89103200D01*
X124024501Y-88878919D01*
X124438919Y-88464501D01*
X124460000Y-88413607D01*
X124481081Y-88464501D01*
X124895499Y-88878919D01*
X125436962Y-89103200D01*
X126023038Y-89103200D01*
X126564501Y-88878919D01*
X126778007Y-88665413D01*
X127414192Y-88665413D01*
X127493017Y-88915490D01*
X128044097Y-89114977D01*
X128629569Y-89088389D01*
X129046983Y-88915490D01*
X129125808Y-88665413D01*
X128270000Y-87809605D01*
X127414192Y-88665413D01*
X126778007Y-88665413D01*
X126978919Y-88464501D01*
X127000638Y-88412067D01*
X127234587Y-88485808D01*
X128090395Y-87630000D01*
X128449605Y-87630000D01*
X129305413Y-88485808D01*
X129555490Y-88406983D01*
X129754977Y-87855903D01*
X129728389Y-87270431D01*
X129555490Y-86853017D01*
X129305413Y-86774192D01*
X128449605Y-87630000D01*
X128090395Y-87630000D01*
X127234587Y-86774192D01*
X127000638Y-86847933D01*
X126978919Y-86795499D01*
X126778007Y-86594587D01*
X127414192Y-86594587D01*
X128270000Y-87450395D01*
X129125808Y-86594587D01*
X129046983Y-86344510D01*
X128495903Y-86145023D01*
X127910431Y-86171611D01*
X127493017Y-86344510D01*
X127414192Y-86594587D01*
X126778007Y-86594587D01*
X126564501Y-86381081D01*
X126023038Y-86156800D01*
X125436962Y-86156800D01*
X124895499Y-86381081D01*
X124481081Y-86795499D01*
X124460000Y-86846393D01*
X124438919Y-86795499D01*
X124024501Y-86381081D01*
X123483038Y-86156800D01*
X122896962Y-86156800D01*
X122355499Y-86381081D01*
X121941081Y-86795499D01*
X121920000Y-86846393D01*
X121898919Y-86795499D01*
X121484501Y-86381081D01*
X120943038Y-86156800D01*
X120356962Y-86156800D01*
X119815499Y-86381081D01*
X119401081Y-86795499D01*
X119176800Y-87336962D01*
X105613200Y-87336962D01*
X105388919Y-86795499D01*
X104974501Y-86381081D01*
X104923607Y-86360000D01*
X104974501Y-86338919D01*
X105388919Y-85924501D01*
X105613200Y-85383038D01*
X105613200Y-85090000D01*
X134528846Y-85090000D01*
X134632458Y-85610891D01*
X134927519Y-86052481D01*
X135369109Y-86347542D01*
X135758515Y-86425000D01*
X136021485Y-86425000D01*
X136410891Y-86347542D01*
X136852481Y-86052481D01*
X137147542Y-85610891D01*
X137251154Y-85090000D01*
X137198334Y-84824452D01*
X139635000Y-84824452D01*
X139635000Y-85355548D01*
X139838242Y-85846217D01*
X140213783Y-86221758D01*
X140704452Y-86425000D01*
X141235548Y-86425000D01*
X141726217Y-86221758D01*
X142101758Y-85846217D01*
X142305000Y-85355548D01*
X142305000Y-84824452D01*
X144715000Y-84824452D01*
X144715000Y-85355548D01*
X144918242Y-85846217D01*
X145293783Y-86221758D01*
X145784452Y-86425000D01*
X146315548Y-86425000D01*
X146806217Y-86221758D01*
X147181758Y-85846217D01*
X147385000Y-85355548D01*
X147385000Y-84824452D01*
X147181758Y-84333783D01*
X146806217Y-83958242D01*
X146315548Y-83755000D01*
X145784452Y-83755000D01*
X145293783Y-83958242D01*
X144918242Y-84333783D01*
X144715000Y-84824452D01*
X142305000Y-84824452D01*
X142101758Y-84333783D01*
X141726217Y-83958242D01*
X141235548Y-83755000D01*
X140704452Y-83755000D01*
X140213783Y-83958242D01*
X139838242Y-84333783D01*
X139635000Y-84824452D01*
X137198334Y-84824452D01*
X137147542Y-84569109D01*
X136900000Y-84198636D01*
X136900000Y-81149396D01*
X137226534Y-80822862D01*
X137445000Y-80295439D01*
X137445000Y-80010000D01*
X142046887Y-80010000D01*
X142158260Y-80569909D01*
X142475423Y-81044577D01*
X142950091Y-81361740D01*
X143368667Y-81445000D01*
X143651333Y-81445000D01*
X144069909Y-81361740D01*
X144192241Y-81280000D01*
X146922969Y-81280000D01*
X147049864Y-81917945D01*
X147411231Y-82458769D01*
X147952055Y-82820136D01*
X148428969Y-82915000D01*
X148751031Y-82915000D01*
X148789077Y-82907432D01*
X149636644Y-83755000D01*
X149594452Y-83755000D01*
X149103783Y-83958242D01*
X148728242Y-84333783D01*
X148525000Y-84824452D01*
X148525000Y-85355548D01*
X148728242Y-85846217D01*
X149103783Y-86221758D01*
X149594452Y-86425000D01*
X150125002Y-86425000D01*
X150125002Y-88805525D01*
X150114281Y-88859426D01*
X149991485Y-88835000D01*
X149728515Y-88835000D01*
X149339109Y-88912458D01*
X148897519Y-89207519D01*
X148602458Y-89649109D01*
X148498846Y-90170000D01*
X148602458Y-90690891D01*
X148897519Y-91132481D01*
X149339109Y-91427542D01*
X149728515Y-91505000D01*
X149991485Y-91505000D01*
X150380891Y-91427542D01*
X150822481Y-91132481D01*
X151117542Y-90690891D01*
X151179758Y-90378113D01*
X153457963Y-92656319D01*
X153457966Y-92656321D01*
X153466800Y-92665155D01*
X153466800Y-93003038D01*
X153691081Y-93544501D01*
X154105499Y-93958919D01*
X154156393Y-93980000D01*
X154105499Y-94001081D01*
X153691081Y-94415499D01*
X153466800Y-94956962D01*
X153466800Y-95543038D01*
X153691081Y-96084501D01*
X154105499Y-96498919D01*
X154646962Y-96723200D01*
X155233038Y-96723200D01*
X155774501Y-96498919D01*
X156188919Y-96084501D01*
X156413200Y-95543038D01*
X156413200Y-94956962D01*
X156188919Y-94415499D01*
X155774501Y-94001081D01*
X155723607Y-93980000D01*
X155774501Y-93958919D01*
X156188919Y-93544501D01*
X156413200Y-93003038D01*
X156413200Y-92416962D01*
X156188919Y-91875499D01*
X155774501Y-91461081D01*
X155723607Y-91440000D01*
X155774501Y-91418919D01*
X156188919Y-91004501D01*
X156413200Y-90463038D01*
X156413200Y-89876962D01*
X156188919Y-89335499D01*
X155937395Y-89083975D01*
X156025965Y-89066357D01*
X156236009Y-88926009D01*
X156376357Y-88715965D01*
X156425640Y-88468200D01*
X156425640Y-87404097D01*
X161075023Y-87404097D01*
X161101611Y-87989569D01*
X161274510Y-88406983D01*
X161524587Y-88485808D01*
X162380395Y-87630000D01*
X161524587Y-86774192D01*
X161274510Y-86853017D01*
X161075023Y-87404097D01*
X156425640Y-87404097D01*
X156425640Y-86791800D01*
X156376357Y-86544035D01*
X156236009Y-86333991D01*
X156025965Y-86193643D01*
X155778200Y-86144360D01*
X154101800Y-86144360D01*
X153854035Y-86193643D01*
X153643991Y-86333991D01*
X153503643Y-86544035D01*
X153454360Y-86791800D01*
X153454360Y-88468200D01*
X153503643Y-88715965D01*
X153643991Y-88926009D01*
X153854035Y-89066357D01*
X153942605Y-89083975D01*
X153691081Y-89335499D01*
X153486868Y-89828513D01*
X152145001Y-88486646D01*
X152145001Y-83924472D01*
X152164787Y-83825001D01*
X152145001Y-83725530D01*
X152145001Y-83725525D01*
X152086400Y-83430919D01*
X151987407Y-83282765D01*
X151919519Y-83181163D01*
X151919517Y-83181161D01*
X151863170Y-83096832D01*
X151778842Y-83040486D01*
X150217432Y-81479077D01*
X150257031Y-81280000D01*
X150130136Y-80642055D01*
X149888219Y-80280000D01*
X152022560Y-80280000D01*
X152022560Y-82280000D01*
X152071843Y-82527765D01*
X152212191Y-82737809D01*
X152422235Y-82878157D01*
X152670000Y-82927440D01*
X154670000Y-82927440D01*
X154917765Y-82878157D01*
X155127809Y-82737809D01*
X155268157Y-82527765D01*
X155317440Y-82280000D01*
X155317440Y-81280000D01*
X155812969Y-81280000D01*
X155939864Y-81917945D01*
X156301231Y-82458769D01*
X156842055Y-82820136D01*
X157318969Y-82915000D01*
X157641031Y-82915000D01*
X158117945Y-82820136D01*
X158658769Y-82458769D01*
X159020136Y-81917945D01*
X159147031Y-81280000D01*
X159020136Y-80642055D01*
X158658769Y-80101231D01*
X158117945Y-79739864D01*
X157641031Y-79645000D01*
X157318969Y-79645000D01*
X156842055Y-79739864D01*
X156301231Y-80101231D01*
X155939864Y-80642055D01*
X155812969Y-81280000D01*
X155317440Y-81280000D01*
X155317440Y-80280000D01*
X155268157Y-80032235D01*
X155127809Y-79822191D01*
X154917765Y-79681843D01*
X154670000Y-79632560D01*
X152670000Y-79632560D01*
X152422235Y-79681843D01*
X152212191Y-79822191D01*
X152071843Y-80032235D01*
X152022560Y-80280000D01*
X149888219Y-80280000D01*
X149768769Y-80101231D01*
X149227945Y-79739864D01*
X148751031Y-79645000D01*
X148428969Y-79645000D01*
X147952055Y-79739864D01*
X147411231Y-80101231D01*
X147049864Y-80642055D01*
X146922969Y-81280000D01*
X144192241Y-81280000D01*
X144544577Y-81044577D01*
X144861740Y-80569909D01*
X144973113Y-80010000D01*
X144861740Y-79450091D01*
X144544577Y-78975423D01*
X144069909Y-78658260D01*
X143651333Y-78575000D01*
X143368667Y-78575000D01*
X142950091Y-78658260D01*
X142475423Y-78975423D01*
X142158260Y-79450091D01*
X142046887Y-80010000D01*
X137445000Y-80010000D01*
X137445000Y-79724561D01*
X137226534Y-79197138D01*
X136822862Y-78793466D01*
X136295439Y-78575000D01*
X135724561Y-78575000D01*
X135197138Y-78793466D01*
X134793466Y-79197138D01*
X134575000Y-79724561D01*
X134575000Y-80295439D01*
X134793466Y-80822862D01*
X134880001Y-80909397D01*
X134880000Y-84198636D01*
X134632458Y-84569109D01*
X134528846Y-85090000D01*
X105613200Y-85090000D01*
X105613200Y-85045155D01*
X110941393Y-79716962D01*
X119176800Y-79716962D01*
X119176800Y-80303038D01*
X119401081Y-80844501D01*
X119815499Y-81258919D01*
X120356962Y-81483200D01*
X120943038Y-81483200D01*
X121484501Y-81258919D01*
X121898919Y-80844501D01*
X121920000Y-80793607D01*
X121941081Y-80844501D01*
X122355499Y-81258919D01*
X122896962Y-81483200D01*
X123483038Y-81483200D01*
X124024501Y-81258919D01*
X124438919Y-80844501D01*
X124460000Y-80793607D01*
X124481081Y-80844501D01*
X124895499Y-81258919D01*
X125436962Y-81483200D01*
X126023038Y-81483200D01*
X126564501Y-81258919D01*
X126816025Y-81007395D01*
X126833643Y-81095965D01*
X126973991Y-81306009D01*
X127184035Y-81446357D01*
X127431800Y-81495640D01*
X129108200Y-81495640D01*
X129355965Y-81446357D01*
X129566009Y-81306009D01*
X129706357Y-81095965D01*
X129755640Y-80848200D01*
X129755640Y-79171800D01*
X129706357Y-78924035D01*
X129566009Y-78713991D01*
X129355965Y-78573643D01*
X129108200Y-78524360D01*
X127431800Y-78524360D01*
X127184035Y-78573643D01*
X126973991Y-78713991D01*
X126833643Y-78924035D01*
X126816025Y-79012605D01*
X126564501Y-78761081D01*
X126023038Y-78536800D01*
X125436962Y-78536800D01*
X124895499Y-78761081D01*
X124481081Y-79175499D01*
X124460000Y-79226393D01*
X124438919Y-79175499D01*
X124024501Y-78761081D01*
X123483038Y-78536800D01*
X122896962Y-78536800D01*
X122355499Y-78761081D01*
X121941081Y-79175499D01*
X121920000Y-79226393D01*
X121898919Y-79175499D01*
X121484501Y-78761081D01*
X120943038Y-78536800D01*
X120356962Y-78536800D01*
X119815499Y-78761081D01*
X119401081Y-79175499D01*
X119176800Y-79716962D01*
X110941393Y-79716962D01*
X113673841Y-76984515D01*
X113758169Y-76928169D01*
X113814516Y-76843840D01*
X113814518Y-76843838D01*
X113981399Y-76594083D01*
X113993572Y-76532885D01*
X114040000Y-76299476D01*
X114040000Y-76299472D01*
X114059786Y-76200000D01*
X114040000Y-76100528D01*
X114040000Y-75807975D01*
X114161758Y-75686217D01*
X114365000Y-75195548D01*
X114365000Y-74930000D01*
X116748846Y-74930000D01*
X116852458Y-75450891D01*
X117147519Y-75892481D01*
X117589109Y-76187542D01*
X117978515Y-76265000D01*
X118241485Y-76265000D01*
X118630891Y-76187542D01*
X119072481Y-75892481D01*
X119367542Y-75450891D01*
X119471154Y-74930000D01*
X119418334Y-74664452D01*
X121855000Y-74664452D01*
X121855000Y-75195548D01*
X122058242Y-75686217D01*
X122433783Y-76061758D01*
X122924452Y-76265000D01*
X123455548Y-76265000D01*
X123946217Y-76061758D01*
X124321758Y-75686217D01*
X124525000Y-75195548D01*
X124525000Y-74930000D01*
X125638846Y-74930000D01*
X125742458Y-75450891D01*
X126037519Y-75892481D01*
X126479109Y-76187542D01*
X126868515Y-76265000D01*
X127131485Y-76265000D01*
X127520891Y-76187542D01*
X127962481Y-75892481D01*
X128257542Y-75450891D01*
X128361154Y-74930000D01*
X128308334Y-74664452D01*
X130745000Y-74664452D01*
X130745000Y-75195548D01*
X130948242Y-75686217D01*
X131323783Y-76061758D01*
X131814452Y-76265000D01*
X132345548Y-76265000D01*
X132836217Y-76061758D01*
X133211758Y-75686217D01*
X133415000Y-75195548D01*
X133415000Y-74930000D01*
X135798846Y-74930000D01*
X135902458Y-75450891D01*
X136197519Y-75892481D01*
X136639109Y-76187542D01*
X137028515Y-76265000D01*
X137291485Y-76265000D01*
X137680891Y-76187542D01*
X138122481Y-75892481D01*
X138417542Y-75450891D01*
X138521154Y-74930000D01*
X138468334Y-74664452D01*
X140905000Y-74664452D01*
X140905000Y-75195548D01*
X141108242Y-75686217D01*
X141483783Y-76061758D01*
X141974452Y-76265000D01*
X142505548Y-76265000D01*
X142996217Y-76061758D01*
X143371758Y-75686217D01*
X143575000Y-75195548D01*
X143575000Y-74930000D01*
X144688846Y-74930000D01*
X144792458Y-75450891D01*
X145087519Y-75892481D01*
X145529109Y-76187542D01*
X145918515Y-76265000D01*
X146181485Y-76265000D01*
X146570891Y-76187542D01*
X147012481Y-75892481D01*
X147307542Y-75450891D01*
X147411154Y-74930000D01*
X147358334Y-74664452D01*
X149795000Y-74664452D01*
X149795000Y-75195548D01*
X149998242Y-75686217D01*
X150373783Y-76061758D01*
X150864452Y-76265000D01*
X151395548Y-76265000D01*
X151886217Y-76061758D01*
X152261758Y-75686217D01*
X152465000Y-75195548D01*
X152465000Y-74930000D01*
X153578846Y-74930000D01*
X153682458Y-75450891D01*
X153977519Y-75892481D01*
X154419109Y-76187542D01*
X154808515Y-76265000D01*
X155071485Y-76265000D01*
X155460891Y-76187542D01*
X155902481Y-75892481D01*
X156197542Y-75450891D01*
X156301154Y-74930000D01*
X156248334Y-74664452D01*
X158685000Y-74664452D01*
X158685000Y-75195548D01*
X158888242Y-75686217D01*
X159263783Y-76061758D01*
X159754452Y-76265000D01*
X160285548Y-76265000D01*
X160776217Y-76061758D01*
X161151758Y-75686217D01*
X161355000Y-75195548D01*
X161355000Y-74664452D01*
X161151758Y-74173783D01*
X160776217Y-73798242D01*
X160285548Y-73595000D01*
X159754452Y-73595000D01*
X159263783Y-73798242D01*
X158888242Y-74173783D01*
X158685000Y-74664452D01*
X156248334Y-74664452D01*
X156197542Y-74409109D01*
X155902481Y-73967519D01*
X155460891Y-73672458D01*
X155071485Y-73595000D01*
X154808515Y-73595000D01*
X154419109Y-73672458D01*
X153977519Y-73967519D01*
X153682458Y-74409109D01*
X153578846Y-74930000D01*
X152465000Y-74930000D01*
X152465000Y-74664452D01*
X152261758Y-74173783D01*
X151886217Y-73798242D01*
X151395548Y-73595000D01*
X150864452Y-73595000D01*
X150373783Y-73798242D01*
X149998242Y-74173783D01*
X149795000Y-74664452D01*
X147358334Y-74664452D01*
X147307542Y-74409109D01*
X147012481Y-73967519D01*
X146570891Y-73672458D01*
X146181485Y-73595000D01*
X145918515Y-73595000D01*
X145529109Y-73672458D01*
X145087519Y-73967519D01*
X144792458Y-74409109D01*
X144688846Y-74930000D01*
X143575000Y-74930000D01*
X143575000Y-74664452D01*
X143371758Y-74173783D01*
X142996217Y-73798242D01*
X142505548Y-73595000D01*
X141974452Y-73595000D01*
X141483783Y-73798242D01*
X141108242Y-74173783D01*
X140905000Y-74664452D01*
X138468334Y-74664452D01*
X138417542Y-74409109D01*
X138122481Y-73967519D01*
X137680891Y-73672458D01*
X137291485Y-73595000D01*
X137028515Y-73595000D01*
X136639109Y-73672458D01*
X136197519Y-73967519D01*
X135902458Y-74409109D01*
X135798846Y-74930000D01*
X133415000Y-74930000D01*
X133415000Y-74664452D01*
X133211758Y-74173783D01*
X132836217Y-73798242D01*
X132345548Y-73595000D01*
X131814452Y-73595000D01*
X131323783Y-73798242D01*
X130948242Y-74173783D01*
X130745000Y-74664452D01*
X128308334Y-74664452D01*
X128257542Y-74409109D01*
X127962481Y-73967519D01*
X127520891Y-73672458D01*
X127131485Y-73595000D01*
X126868515Y-73595000D01*
X126479109Y-73672458D01*
X126037519Y-73967519D01*
X125742458Y-74409109D01*
X125638846Y-74930000D01*
X124525000Y-74930000D01*
X124525000Y-74664452D01*
X124321758Y-74173783D01*
X123946217Y-73798242D01*
X123455548Y-73595000D01*
X122924452Y-73595000D01*
X122433783Y-73798242D01*
X122058242Y-74173783D01*
X121855000Y-74664452D01*
X119418334Y-74664452D01*
X119367542Y-74409109D01*
X119072481Y-73967519D01*
X118630891Y-73672458D01*
X118241485Y-73595000D01*
X117978515Y-73595000D01*
X117589109Y-73672458D01*
X117147519Y-73967519D01*
X116852458Y-74409109D01*
X116748846Y-74930000D01*
X114365000Y-74930000D01*
X114365000Y-74664452D01*
X114161758Y-74173783D01*
X113786217Y-73798242D01*
X113295548Y-73595000D01*
X112764452Y-73595000D01*
X112273783Y-73798242D01*
X111898242Y-74173783D01*
X111695000Y-74664452D01*
X111695000Y-75195548D01*
X111898242Y-75686217D01*
X112006835Y-75794810D01*
X105593132Y-82208513D01*
X105388919Y-81715499D01*
X104974501Y-81301081D01*
X104922067Y-81279362D01*
X104995808Y-81045413D01*
X104140000Y-80189605D01*
X103284192Y-81045413D01*
X103357933Y-81279362D01*
X103305499Y-81301081D01*
X102891081Y-81715499D01*
X102666800Y-82256962D01*
X97993200Y-82256962D01*
X97768919Y-81715499D01*
X97517395Y-81463975D01*
X97605965Y-81446357D01*
X97816009Y-81306009D01*
X97956357Y-81095965D01*
X98005640Y-80848200D01*
X98005640Y-79784097D01*
X102655023Y-79784097D01*
X102681611Y-80369569D01*
X102854510Y-80786983D01*
X103104587Y-80865808D01*
X103960395Y-80010000D01*
X104319605Y-80010000D01*
X105175413Y-80865808D01*
X105425490Y-80786983D01*
X105624977Y-80235903D01*
X105598389Y-79650431D01*
X105425490Y-79233017D01*
X105175413Y-79154192D01*
X104319605Y-80010000D01*
X103960395Y-80010000D01*
X103104587Y-79154192D01*
X102854510Y-79233017D01*
X102655023Y-79784097D01*
X98005640Y-79784097D01*
X98005640Y-79171800D01*
X97966413Y-78974587D01*
X103284192Y-78974587D01*
X104140000Y-79830395D01*
X104995808Y-78974587D01*
X104916983Y-78724510D01*
X104365903Y-78525023D01*
X103780431Y-78551611D01*
X103363017Y-78724510D01*
X103284192Y-78974587D01*
X97966413Y-78974587D01*
X97956357Y-78924035D01*
X97816009Y-78713991D01*
X97605965Y-78573643D01*
X97358200Y-78524360D01*
X95681800Y-78524360D01*
X95434035Y-78573643D01*
X95223991Y-78713991D01*
X95083643Y-78924035D01*
X95034360Y-79171800D01*
X84530000Y-79171800D01*
X84530000Y-74930000D01*
X84998846Y-74930000D01*
X85102458Y-75450891D01*
X85397519Y-75892481D01*
X85839109Y-76187542D01*
X86228515Y-76265000D01*
X86491485Y-76265000D01*
X86880891Y-76187542D01*
X87322481Y-75892481D01*
X87617542Y-75450891D01*
X87721154Y-74930000D01*
X87668334Y-74664452D01*
X90105000Y-74664452D01*
X90105000Y-75195548D01*
X90308242Y-75686217D01*
X90683783Y-76061758D01*
X91174452Y-76265000D01*
X91705548Y-76265000D01*
X92196217Y-76061758D01*
X92571758Y-75686217D01*
X92775000Y-75195548D01*
X92775000Y-74930000D01*
X95158846Y-74930000D01*
X95262458Y-75450891D01*
X95557519Y-75892481D01*
X95999109Y-76187542D01*
X96388515Y-76265000D01*
X96651485Y-76265000D01*
X97040891Y-76187542D01*
X97482481Y-75892481D01*
X97777542Y-75450891D01*
X97881154Y-74930000D01*
X97828334Y-74664452D01*
X100265000Y-74664452D01*
X100265000Y-75195548D01*
X100468242Y-75686217D01*
X100843783Y-76061758D01*
X101334452Y-76265000D01*
X101865548Y-76265000D01*
X102356217Y-76061758D01*
X102731758Y-75686217D01*
X102935000Y-75195548D01*
X102935000Y-74930000D01*
X106588846Y-74930000D01*
X106692458Y-75450891D01*
X106987519Y-75892481D01*
X107429109Y-76187542D01*
X107818515Y-76265000D01*
X108081485Y-76265000D01*
X108470891Y-76187542D01*
X108912481Y-75892481D01*
X109207542Y-75450891D01*
X109311154Y-74930000D01*
X109207542Y-74409109D01*
X108912481Y-73967519D01*
X108470891Y-73672458D01*
X108081485Y-73595000D01*
X107818515Y-73595000D01*
X107429109Y-73672458D01*
X106987519Y-73967519D01*
X106692458Y-74409109D01*
X106588846Y-74930000D01*
X102935000Y-74930000D01*
X102935000Y-74664452D01*
X102731758Y-74173783D01*
X102356217Y-73798242D01*
X101865548Y-73595000D01*
X101334452Y-73595000D01*
X100843783Y-73798242D01*
X100468242Y-74173783D01*
X100265000Y-74664452D01*
X97828334Y-74664452D01*
X97777542Y-74409109D01*
X97482481Y-73967519D01*
X97040891Y-73672458D01*
X96651485Y-73595000D01*
X96388515Y-73595000D01*
X95999109Y-73672458D01*
X95557519Y-73967519D01*
X95262458Y-74409109D01*
X95158846Y-74930000D01*
X92775000Y-74930000D01*
X92775000Y-74664452D01*
X92571758Y-74173783D01*
X92196217Y-73798242D01*
X91705548Y-73595000D01*
X91174452Y-73595000D01*
X90683783Y-73798242D01*
X90308242Y-74173783D01*
X90105000Y-74664452D01*
X87668334Y-74664452D01*
X87617542Y-74409109D01*
X87322481Y-73967519D01*
X86880891Y-73672458D01*
X86491485Y-73595000D01*
X86228515Y-73595000D01*
X85839109Y-73672458D01*
X85397519Y-73967519D01*
X85102458Y-74409109D01*
X84998846Y-74930000D01*
X84530000Y-74930000D01*
X84530000Y-71120000D01*
X92516887Y-71120000D01*
X92628260Y-71679909D01*
X92945423Y-72154577D01*
X93420091Y-72471740D01*
X93838667Y-72555000D01*
X94121333Y-72555000D01*
X94539909Y-72471740D01*
X95014577Y-72154577D01*
X95331740Y-71679909D01*
X95443113Y-71120000D01*
X95419244Y-71000000D01*
X114106887Y-71000000D01*
X114218260Y-71559909D01*
X114535423Y-72034577D01*
X115010091Y-72351740D01*
X115428667Y-72435000D01*
X115711333Y-72435000D01*
X116129909Y-72351740D01*
X116604577Y-72034577D01*
X116921740Y-71559909D01*
X117033113Y-71000000D01*
X133156887Y-71000000D01*
X133268260Y-71559909D01*
X133585423Y-72034577D01*
X134060091Y-72351740D01*
X134478667Y-72435000D01*
X134761333Y-72435000D01*
X135179909Y-72351740D01*
X135654577Y-72034577D01*
X135971740Y-71559909D01*
X136083113Y-71000000D01*
X152206887Y-71000000D01*
X152318260Y-71559909D01*
X152635423Y-72034577D01*
X153110091Y-72351740D01*
X153528667Y-72435000D01*
X153811333Y-72435000D01*
X154229909Y-72351740D01*
X154704577Y-72034577D01*
X155021740Y-71559909D01*
X155133113Y-71000000D01*
X155021740Y-70440091D01*
X154704577Y-69965423D01*
X154229909Y-69648260D01*
X153811333Y-69565000D01*
X153528667Y-69565000D01*
X153110091Y-69648260D01*
X152635423Y-69965423D01*
X152318260Y-70440091D01*
X152206887Y-71000000D01*
X136083113Y-71000000D01*
X135971740Y-70440091D01*
X135654577Y-69965423D01*
X135179909Y-69648260D01*
X134761333Y-69565000D01*
X134478667Y-69565000D01*
X134060091Y-69648260D01*
X133585423Y-69965423D01*
X133268260Y-70440091D01*
X133156887Y-71000000D01*
X117033113Y-71000000D01*
X116921740Y-70440091D01*
X116604577Y-69965423D01*
X116129909Y-69648260D01*
X115711333Y-69565000D01*
X115428667Y-69565000D01*
X115010091Y-69648260D01*
X114535423Y-69965423D01*
X114218260Y-70440091D01*
X114106887Y-71000000D01*
X95419244Y-71000000D01*
X95331740Y-70560091D01*
X95014577Y-70085423D01*
X94539909Y-69768260D01*
X94121333Y-69685000D01*
X93838667Y-69685000D01*
X93420091Y-69768260D01*
X92945423Y-70085423D01*
X92628260Y-70560091D01*
X92516887Y-71120000D01*
X84530000Y-71120000D01*
X84530000Y-68580000D01*
X87538846Y-68580000D01*
X87642458Y-69100891D01*
X87937519Y-69542481D01*
X88379109Y-69837542D01*
X88768515Y-69915000D01*
X89031485Y-69915000D01*
X89420891Y-69837542D01*
X89862481Y-69542481D01*
X90157542Y-69100891D01*
X90261154Y-68580000D01*
X90208334Y-68314452D01*
X97725000Y-68314452D01*
X97725000Y-68845548D01*
X97928242Y-69336217D01*
X98303783Y-69711758D01*
X98794452Y-69915000D01*
X99325548Y-69915000D01*
X99816217Y-69711758D01*
X100191758Y-69336217D01*
X100395000Y-68845548D01*
X100395000Y-68314452D01*
X105345000Y-68314452D01*
X105345000Y-68845548D01*
X105548242Y-69336217D01*
X105923783Y-69711758D01*
X106414452Y-69915000D01*
X106945548Y-69915000D01*
X107436217Y-69711758D01*
X107811758Y-69336217D01*
X108015000Y-68845548D01*
X108015000Y-68314452D01*
X110425000Y-68314452D01*
X110425000Y-68845548D01*
X110628242Y-69336217D01*
X111003783Y-69711758D01*
X111494452Y-69915000D01*
X112025548Y-69915000D01*
X112516217Y-69711758D01*
X112891758Y-69336217D01*
X113095000Y-68845548D01*
X113095000Y-68314452D01*
X119315000Y-68314452D01*
X119315000Y-68845548D01*
X119518242Y-69336217D01*
X119893783Y-69711758D01*
X120384452Y-69915000D01*
X120915548Y-69915000D01*
X121406217Y-69711758D01*
X121781758Y-69336217D01*
X121985000Y-68845548D01*
X121985000Y-68580000D01*
X126908846Y-68580000D01*
X127012458Y-69100891D01*
X127307519Y-69542481D01*
X127749109Y-69837542D01*
X128138515Y-69915000D01*
X128401485Y-69915000D01*
X128790891Y-69837542D01*
X129232481Y-69542481D01*
X129527542Y-69100891D01*
X129631154Y-68580000D01*
X129578334Y-68314452D01*
X139635000Y-68314452D01*
X139635000Y-68845548D01*
X139838242Y-69336217D01*
X140213783Y-69711758D01*
X140704452Y-69915000D01*
X141235548Y-69915000D01*
X141726217Y-69711758D01*
X142101758Y-69336217D01*
X142305000Y-68845548D01*
X142305000Y-68580000D01*
X145958846Y-68580000D01*
X146062458Y-69100891D01*
X146357519Y-69542481D01*
X146799109Y-69837542D01*
X147188515Y-69915000D01*
X147451485Y-69915000D01*
X147840891Y-69837542D01*
X148282481Y-69542481D01*
X148577542Y-69100891D01*
X148681154Y-68580000D01*
X148628334Y-68314452D01*
X158685000Y-68314452D01*
X158685000Y-68845548D01*
X158888242Y-69336217D01*
X159263783Y-69711758D01*
X159754452Y-69915000D01*
X160285548Y-69915000D01*
X160776217Y-69711758D01*
X161151758Y-69336217D01*
X161355000Y-68845548D01*
X161355000Y-68314452D01*
X161151758Y-67823783D01*
X160776217Y-67448242D01*
X160285548Y-67245000D01*
X159754452Y-67245000D01*
X159263783Y-67448242D01*
X158888242Y-67823783D01*
X158685000Y-68314452D01*
X148628334Y-68314452D01*
X148577542Y-68059109D01*
X148282481Y-67617519D01*
X147840891Y-67322458D01*
X147451485Y-67245000D01*
X147188515Y-67245000D01*
X146799109Y-67322458D01*
X146357519Y-67617519D01*
X146062458Y-68059109D01*
X145958846Y-68580000D01*
X142305000Y-68580000D01*
X142305000Y-68314452D01*
X142101758Y-67823783D01*
X141726217Y-67448242D01*
X141235548Y-67245000D01*
X140704452Y-67245000D01*
X140213783Y-67448242D01*
X139838242Y-67823783D01*
X139635000Y-68314452D01*
X129578334Y-68314452D01*
X129527542Y-68059109D01*
X129232481Y-67617519D01*
X128790891Y-67322458D01*
X128401485Y-67245000D01*
X128138515Y-67245000D01*
X127749109Y-67322458D01*
X127307519Y-67617519D01*
X127012458Y-68059109D01*
X126908846Y-68580000D01*
X121985000Y-68580000D01*
X121985000Y-68314452D01*
X121781758Y-67823783D01*
X121406217Y-67448242D01*
X120915548Y-67245000D01*
X120384452Y-67245000D01*
X119893783Y-67448242D01*
X119518242Y-67823783D01*
X119315000Y-68314452D01*
X113095000Y-68314452D01*
X112891758Y-67823783D01*
X112516217Y-67448242D01*
X112025548Y-67245000D01*
X111494452Y-67245000D01*
X111003783Y-67448242D01*
X110628242Y-67823783D01*
X110425000Y-68314452D01*
X108015000Y-68314452D01*
X107811758Y-67823783D01*
X107436217Y-67448242D01*
X106945548Y-67245000D01*
X106414452Y-67245000D01*
X105923783Y-67448242D01*
X105548242Y-67823783D01*
X105345000Y-68314452D01*
X100395000Y-68314452D01*
X100191758Y-67823783D01*
X99816217Y-67448242D01*
X99325548Y-67245000D01*
X98794452Y-67245000D01*
X98303783Y-67448242D01*
X97928242Y-67823783D01*
X97725000Y-68314452D01*
X90208334Y-68314452D01*
X90157542Y-68059109D01*
X89862481Y-67617519D01*
X89420891Y-67322458D01*
X89031485Y-67245000D01*
X88768515Y-67245000D01*
X88379109Y-67322458D01*
X87937519Y-67617519D01*
X87642458Y-68059109D01*
X87538846Y-68580000D01*
X84530000Y-68580000D01*
X84530000Y-63234452D01*
X87565000Y-63234452D01*
X87565000Y-63765548D01*
X87768242Y-64256217D01*
X88143783Y-64631758D01*
X88634452Y-64835000D01*
X89165548Y-64835000D01*
X89656217Y-64631758D01*
X90031758Y-64256217D01*
X90235000Y-63765548D01*
X90235000Y-63334561D01*
X92545000Y-63334561D01*
X92545000Y-63905439D01*
X92763466Y-64432862D01*
X93167138Y-64836534D01*
X93694561Y-65055000D01*
X94265439Y-65055000D01*
X94792862Y-64836534D01*
X95196534Y-64432862D01*
X95415000Y-63905439D01*
X95415000Y-63500000D01*
X97698846Y-63500000D01*
X97802458Y-64020891D01*
X98097519Y-64462481D01*
X98539109Y-64757542D01*
X98928515Y-64835000D01*
X99191485Y-64835000D01*
X99580891Y-64757542D01*
X100022481Y-64462481D01*
X100317542Y-64020891D01*
X100421154Y-63500000D01*
X105318846Y-63500000D01*
X105422458Y-64020891D01*
X105717519Y-64462481D01*
X106159109Y-64757542D01*
X106548515Y-64835000D01*
X106811485Y-64835000D01*
X107200891Y-64757542D01*
X107642481Y-64462481D01*
X107937542Y-64020891D01*
X108041154Y-63500000D01*
X110398846Y-63500000D01*
X110502458Y-64020891D01*
X110797519Y-64462481D01*
X111239109Y-64757542D01*
X111628515Y-64835000D01*
X111891485Y-64835000D01*
X112280891Y-64757542D01*
X112722481Y-64462481D01*
X113017542Y-64020891D01*
X113121154Y-63500000D01*
X113064377Y-63214561D01*
X114135000Y-63214561D01*
X114135000Y-63785439D01*
X114353466Y-64312862D01*
X114757138Y-64716534D01*
X115284561Y-64935000D01*
X115855439Y-64935000D01*
X116382862Y-64716534D01*
X116786534Y-64312862D01*
X117005000Y-63785439D01*
X117005000Y-63500000D01*
X119288846Y-63500000D01*
X119392458Y-64020891D01*
X119687519Y-64462481D01*
X120129109Y-64757542D01*
X120518515Y-64835000D01*
X120781485Y-64835000D01*
X121170891Y-64757542D01*
X121612481Y-64462481D01*
X121907542Y-64020891D01*
X122011154Y-63500000D01*
X121958334Y-63234452D01*
X126935000Y-63234452D01*
X126935000Y-63765548D01*
X127138242Y-64256217D01*
X127513783Y-64631758D01*
X128004452Y-64835000D01*
X128535548Y-64835000D01*
X129026217Y-64631758D01*
X129401758Y-64256217D01*
X129605000Y-63765548D01*
X129605000Y-63234452D01*
X129596761Y-63214561D01*
X133185000Y-63214561D01*
X133185000Y-63785439D01*
X133403466Y-64312862D01*
X133807138Y-64716534D01*
X134334561Y-64935000D01*
X134905439Y-64935000D01*
X135432862Y-64716534D01*
X135836534Y-64312862D01*
X136055000Y-63785439D01*
X136055000Y-63500000D01*
X139608846Y-63500000D01*
X139712458Y-64020891D01*
X140007519Y-64462481D01*
X140449109Y-64757542D01*
X140838515Y-64835000D01*
X141101485Y-64835000D01*
X141490891Y-64757542D01*
X141932481Y-64462481D01*
X142227542Y-64020891D01*
X142331154Y-63500000D01*
X142278334Y-63234452D01*
X145985000Y-63234452D01*
X145985000Y-63765548D01*
X146188242Y-64256217D01*
X146563783Y-64631758D01*
X147054452Y-64835000D01*
X147585548Y-64835000D01*
X148076217Y-64631758D01*
X148451758Y-64256217D01*
X148655000Y-63765548D01*
X148655000Y-63234452D01*
X148646761Y-63214561D01*
X152235000Y-63214561D01*
X152235000Y-63785439D01*
X152453466Y-64312862D01*
X152857138Y-64716534D01*
X153384561Y-64935000D01*
X153955439Y-64935000D01*
X154482862Y-64716534D01*
X154886534Y-64312862D01*
X155105000Y-63785439D01*
X155105000Y-63500000D01*
X158658846Y-63500000D01*
X158762458Y-64020891D01*
X159057519Y-64462481D01*
X159499109Y-64757542D01*
X159888515Y-64835000D01*
X160151485Y-64835000D01*
X160540891Y-64757542D01*
X160982481Y-64462481D01*
X161277542Y-64020891D01*
X161381154Y-63500000D01*
X161277542Y-62979109D01*
X160982481Y-62537519D01*
X160540891Y-62242458D01*
X160151485Y-62165000D01*
X159888515Y-62165000D01*
X159499109Y-62242458D01*
X159057519Y-62537519D01*
X158762458Y-62979109D01*
X158658846Y-63500000D01*
X155105000Y-63500000D01*
X155105000Y-63214561D01*
X154886534Y-62687138D01*
X154482862Y-62283466D01*
X153955439Y-62065000D01*
X153384561Y-62065000D01*
X152857138Y-62283466D01*
X152453466Y-62687138D01*
X152235000Y-63214561D01*
X148646761Y-63214561D01*
X148451758Y-62743783D01*
X148076217Y-62368242D01*
X147585548Y-62165000D01*
X147054452Y-62165000D01*
X146563783Y-62368242D01*
X146188242Y-62743783D01*
X145985000Y-63234452D01*
X142278334Y-63234452D01*
X142227542Y-62979109D01*
X141932481Y-62537519D01*
X141490891Y-62242458D01*
X141101485Y-62165000D01*
X140838515Y-62165000D01*
X140449109Y-62242458D01*
X140007519Y-62537519D01*
X139712458Y-62979109D01*
X139608846Y-63500000D01*
X136055000Y-63500000D01*
X136055000Y-63214561D01*
X135836534Y-62687138D01*
X135432862Y-62283466D01*
X134905439Y-62065000D01*
X134334561Y-62065000D01*
X133807138Y-62283466D01*
X133403466Y-62687138D01*
X133185000Y-63214561D01*
X129596761Y-63214561D01*
X129401758Y-62743783D01*
X129026217Y-62368242D01*
X128535548Y-62165000D01*
X128004452Y-62165000D01*
X127513783Y-62368242D01*
X127138242Y-62743783D01*
X126935000Y-63234452D01*
X121958334Y-63234452D01*
X121907542Y-62979109D01*
X121612481Y-62537519D01*
X121170891Y-62242458D01*
X120781485Y-62165000D01*
X120518515Y-62165000D01*
X120129109Y-62242458D01*
X119687519Y-62537519D01*
X119392458Y-62979109D01*
X119288846Y-63500000D01*
X117005000Y-63500000D01*
X117005000Y-63214561D01*
X116786534Y-62687138D01*
X116382862Y-62283466D01*
X115855439Y-62065000D01*
X115284561Y-62065000D01*
X114757138Y-62283466D01*
X114353466Y-62687138D01*
X114135000Y-63214561D01*
X113064377Y-63214561D01*
X113017542Y-62979109D01*
X112722481Y-62537519D01*
X112280891Y-62242458D01*
X111891485Y-62165000D01*
X111628515Y-62165000D01*
X111239109Y-62242458D01*
X110797519Y-62537519D01*
X110502458Y-62979109D01*
X110398846Y-63500000D01*
X108041154Y-63500000D01*
X107937542Y-62979109D01*
X107642481Y-62537519D01*
X107200891Y-62242458D01*
X106811485Y-62165000D01*
X106548515Y-62165000D01*
X106159109Y-62242458D01*
X105717519Y-62537519D01*
X105422458Y-62979109D01*
X105318846Y-63500000D01*
X100421154Y-63500000D01*
X100317542Y-62979109D01*
X100022481Y-62537519D01*
X99580891Y-62242458D01*
X99191485Y-62165000D01*
X98928515Y-62165000D01*
X98539109Y-62242458D01*
X98097519Y-62537519D01*
X97802458Y-62979109D01*
X97698846Y-63500000D01*
X95415000Y-63500000D01*
X95415000Y-63334561D01*
X95196534Y-62807138D01*
X94792862Y-62403466D01*
X94265439Y-62185000D01*
X93694561Y-62185000D01*
X93167138Y-62403466D01*
X92763466Y-62807138D01*
X92545000Y-63334561D01*
X90235000Y-63334561D01*
X90235000Y-63234452D01*
X90031758Y-62743783D01*
X89656217Y-62368242D01*
X89165548Y-62165000D01*
X88634452Y-62165000D01*
X88143783Y-62368242D01*
X87768242Y-62743783D01*
X87565000Y-63234452D01*
X84530000Y-63234452D01*
X84530000Y-58420000D01*
X88826887Y-58420000D01*
X88938260Y-58979909D01*
X89255423Y-59454577D01*
X89730091Y-59771740D01*
X90148667Y-59855000D01*
X90431333Y-59855000D01*
X90849909Y-59771740D01*
X91324577Y-59454577D01*
X91641740Y-58979909D01*
X91753113Y-58420000D01*
X91696336Y-58134561D01*
X96355000Y-58134561D01*
X96355000Y-58705439D01*
X96573466Y-59232862D01*
X96977138Y-59636534D01*
X97504561Y-59855000D01*
X98075439Y-59855000D01*
X98602862Y-59636534D01*
X99006534Y-59232862D01*
X99225000Y-58705439D01*
X99225000Y-58154452D01*
X105345000Y-58154452D01*
X105345000Y-58685548D01*
X105548242Y-59176217D01*
X105923783Y-59551758D01*
X106414452Y-59755000D01*
X106945548Y-59755000D01*
X107436217Y-59551758D01*
X107811758Y-59176217D01*
X108015000Y-58685548D01*
X108015000Y-58420000D01*
X110416887Y-58420000D01*
X110528260Y-58979909D01*
X110845423Y-59454577D01*
X111320091Y-59771740D01*
X111738667Y-59855000D01*
X112021333Y-59855000D01*
X112439909Y-59771740D01*
X112914577Y-59454577D01*
X113231740Y-58979909D01*
X113343113Y-58420000D01*
X113286336Y-58134561D01*
X117945000Y-58134561D01*
X117945000Y-58705439D01*
X118163466Y-59232862D01*
X118567138Y-59636534D01*
X119094561Y-59855000D01*
X119665439Y-59855000D01*
X120192862Y-59636534D01*
X120596534Y-59232862D01*
X120815000Y-58705439D01*
X120815000Y-58154452D01*
X121855000Y-58154452D01*
X121855000Y-58685548D01*
X122058242Y-59176217D01*
X122433783Y-59551758D01*
X122924452Y-59755000D01*
X123455548Y-59755000D01*
X123946217Y-59551758D01*
X124321758Y-59176217D01*
X124525000Y-58685548D01*
X124525000Y-58420000D01*
X129346887Y-58420000D01*
X129458260Y-58979909D01*
X129775423Y-59454577D01*
X130250091Y-59771740D01*
X130668667Y-59855000D01*
X130951333Y-59855000D01*
X131369909Y-59771740D01*
X131844577Y-59454577D01*
X132161740Y-58979909D01*
X132273113Y-58420000D01*
X132216336Y-58134561D01*
X136875000Y-58134561D01*
X136875000Y-58705439D01*
X137093466Y-59232862D01*
X137497138Y-59636534D01*
X138024561Y-59855000D01*
X138595439Y-59855000D01*
X139122862Y-59636534D01*
X139526534Y-59232862D01*
X139745000Y-58705439D01*
X139745000Y-58420000D01*
X148516887Y-58420000D01*
X148628260Y-58979909D01*
X148945423Y-59454577D01*
X149420091Y-59771740D01*
X149838667Y-59855000D01*
X150121333Y-59855000D01*
X150539909Y-59771740D01*
X151014577Y-59454577D01*
X151331740Y-58979909D01*
X151443113Y-58420000D01*
X151386336Y-58134561D01*
X156045000Y-58134561D01*
X156045000Y-58705439D01*
X156263466Y-59232862D01*
X156667138Y-59636534D01*
X157194561Y-59855000D01*
X157765439Y-59855000D01*
X158292862Y-59636534D01*
X158696534Y-59232862D01*
X158915000Y-58705439D01*
X158915000Y-58134561D01*
X158696534Y-57607138D01*
X158292862Y-57203466D01*
X157765439Y-56985000D01*
X157194561Y-56985000D01*
X156667138Y-57203466D01*
X156263466Y-57607138D01*
X156045000Y-58134561D01*
X151386336Y-58134561D01*
X151331740Y-57860091D01*
X151014577Y-57385423D01*
X150539909Y-57068260D01*
X150121333Y-56985000D01*
X149838667Y-56985000D01*
X149420091Y-57068260D01*
X148945423Y-57385423D01*
X148628260Y-57860091D01*
X148516887Y-58420000D01*
X139745000Y-58420000D01*
X139745000Y-58134561D01*
X139526534Y-57607138D01*
X139122862Y-57203466D01*
X138595439Y-56985000D01*
X138024561Y-56985000D01*
X137497138Y-57203466D01*
X137093466Y-57607138D01*
X136875000Y-58134561D01*
X132216336Y-58134561D01*
X132161740Y-57860091D01*
X131844577Y-57385423D01*
X131369909Y-57068260D01*
X130951333Y-56985000D01*
X130668667Y-56985000D01*
X130250091Y-57068260D01*
X129775423Y-57385423D01*
X129458260Y-57860091D01*
X129346887Y-58420000D01*
X124525000Y-58420000D01*
X124525000Y-58154452D01*
X124321758Y-57663783D01*
X123946217Y-57288242D01*
X123455548Y-57085000D01*
X122924452Y-57085000D01*
X122433783Y-57288242D01*
X122058242Y-57663783D01*
X121855000Y-58154452D01*
X120815000Y-58154452D01*
X120815000Y-58134561D01*
X120596534Y-57607138D01*
X120192862Y-57203466D01*
X119665439Y-56985000D01*
X119094561Y-56985000D01*
X118567138Y-57203466D01*
X118163466Y-57607138D01*
X117945000Y-58134561D01*
X113286336Y-58134561D01*
X113231740Y-57860091D01*
X112914577Y-57385423D01*
X112439909Y-57068260D01*
X112021333Y-56985000D01*
X111738667Y-56985000D01*
X111320091Y-57068260D01*
X110845423Y-57385423D01*
X110528260Y-57860091D01*
X110416887Y-58420000D01*
X108015000Y-58420000D01*
X108015000Y-58154452D01*
X107811758Y-57663783D01*
X107436217Y-57288242D01*
X106945548Y-57085000D01*
X106414452Y-57085000D01*
X105923783Y-57288242D01*
X105548242Y-57663783D01*
X105345000Y-58154452D01*
X99225000Y-58154452D01*
X99225000Y-58134561D01*
X99006534Y-57607138D01*
X98602862Y-57203466D01*
X98075439Y-56985000D01*
X97504561Y-56985000D01*
X96977138Y-57203466D01*
X96573466Y-57607138D01*
X96355000Y-58134561D01*
X91696336Y-58134561D01*
X91641740Y-57860091D01*
X91324577Y-57385423D01*
X90849909Y-57068260D01*
X90431333Y-56985000D01*
X90148667Y-56985000D01*
X89730091Y-57068260D01*
X89255423Y-57385423D01*
X88938260Y-57860091D01*
X88826887Y-58420000D01*
X84530000Y-58420000D01*
X84530000Y-53340000D01*
X105318846Y-53340000D01*
X105422458Y-53860891D01*
X105717519Y-54302481D01*
X106159109Y-54597542D01*
X106548515Y-54675000D01*
X106811485Y-54675000D01*
X107200891Y-54597542D01*
X107642481Y-54302481D01*
X107937542Y-53860891D01*
X108041154Y-53340000D01*
X121828846Y-53340000D01*
X121932458Y-53860891D01*
X122227519Y-54302481D01*
X122669109Y-54597542D01*
X123058515Y-54675000D01*
X123321485Y-54675000D01*
X123710891Y-54597542D01*
X124152481Y-54302481D01*
X124447542Y-53860891D01*
X124551154Y-53340000D01*
X124447542Y-52819109D01*
X124152481Y-52377519D01*
X123710891Y-52082458D01*
X123321485Y-52005000D01*
X123058515Y-52005000D01*
X122669109Y-52082458D01*
X122227519Y-52377519D01*
X121932458Y-52819109D01*
X121828846Y-53340000D01*
X108041154Y-53340000D01*
X107937542Y-52819109D01*
X107642481Y-52377519D01*
X107200891Y-52082458D01*
X106811485Y-52005000D01*
X106548515Y-52005000D01*
X106159109Y-52082458D01*
X105717519Y-52377519D01*
X105422458Y-52819109D01*
X105318846Y-53340000D01*
X84530000Y-53340000D01*
X84530000Y-50454887D01*
X84625000Y-50454887D01*
X84625000Y-51145113D01*
X84889138Y-51782799D01*
X85377201Y-52270862D01*
X86014887Y-52535000D01*
X86705113Y-52535000D01*
X87342799Y-52270862D01*
X87830862Y-51782799D01*
X88095000Y-51145113D01*
X88095000Y-50474778D01*
X89805000Y-50474778D01*
X89805000Y-51125222D01*
X90053914Y-51726153D01*
X90513847Y-52186086D01*
X91114778Y-52435000D01*
X91765222Y-52435000D01*
X92366153Y-52186086D01*
X92710000Y-51842239D01*
X93053847Y-52186086D01*
X93654778Y-52435000D01*
X94305222Y-52435000D01*
X94906153Y-52186086D01*
X95250000Y-51842239D01*
X95593847Y-52186086D01*
X96194778Y-52435000D01*
X96845222Y-52435000D01*
X97446153Y-52186086D01*
X97906086Y-51726153D01*
X98155000Y-51125222D01*
X98155000Y-50474778D01*
X111395000Y-50474778D01*
X111395000Y-51125222D01*
X111643914Y-51726153D01*
X112103847Y-52186086D01*
X112704778Y-52435000D01*
X113355222Y-52435000D01*
X113956153Y-52186086D01*
X114300000Y-51842239D01*
X114643847Y-52186086D01*
X115244778Y-52435000D01*
X115895222Y-52435000D01*
X116496153Y-52186086D01*
X116840000Y-51842239D01*
X117183847Y-52186086D01*
X117784778Y-52435000D01*
X118435222Y-52435000D01*
X119036153Y-52186086D01*
X119496086Y-51726153D01*
X119745000Y-51125222D01*
X119745000Y-50474778D01*
X130445000Y-50474778D01*
X130445000Y-51125222D01*
X130693914Y-51726153D01*
X131153847Y-52186086D01*
X131754778Y-52435000D01*
X132405222Y-52435000D01*
X133006153Y-52186086D01*
X133350000Y-51842239D01*
X133693847Y-52186086D01*
X134294778Y-52435000D01*
X134945222Y-52435000D01*
X135546153Y-52186086D01*
X135890000Y-51842239D01*
X136233847Y-52186086D01*
X136834778Y-52435000D01*
X137485222Y-52435000D01*
X138086153Y-52186086D01*
X138546086Y-51726153D01*
X138795000Y-51125222D01*
X138795000Y-50474778D01*
X149495000Y-50474778D01*
X149495000Y-51125222D01*
X149743914Y-51726153D01*
X150203847Y-52186086D01*
X150804778Y-52435000D01*
X151455222Y-52435000D01*
X152056153Y-52186086D01*
X152400000Y-51842239D01*
X152743847Y-52186086D01*
X153344778Y-52435000D01*
X153995222Y-52435000D01*
X154596153Y-52186086D01*
X154940000Y-51842239D01*
X155283847Y-52186086D01*
X155884778Y-52435000D01*
X156535222Y-52435000D01*
X157136153Y-52186086D01*
X157596086Y-51726153D01*
X157845000Y-51125222D01*
X157845000Y-50474778D01*
X157836761Y-50454887D01*
X159555000Y-50454887D01*
X159555000Y-51145113D01*
X159819138Y-51782799D01*
X160307201Y-52270862D01*
X160944887Y-52535000D01*
X161635113Y-52535000D01*
X162272799Y-52270862D01*
X162760862Y-51782799D01*
X163025000Y-51145113D01*
X163025000Y-50454887D01*
X162760862Y-49817201D01*
X162272799Y-49329138D01*
X161635113Y-49065000D01*
X160944887Y-49065000D01*
X160307201Y-49329138D01*
X159819138Y-49817201D01*
X159555000Y-50454887D01*
X157836761Y-50454887D01*
X157596086Y-49873847D01*
X157136153Y-49413914D01*
X156535222Y-49165000D01*
X155884778Y-49165000D01*
X155283847Y-49413914D01*
X154940000Y-49757761D01*
X154596153Y-49413914D01*
X153995222Y-49165000D01*
X153344778Y-49165000D01*
X152743847Y-49413914D01*
X152400000Y-49757761D01*
X152056153Y-49413914D01*
X151455222Y-49165000D01*
X150804778Y-49165000D01*
X150203847Y-49413914D01*
X149743914Y-49873847D01*
X149495000Y-50474778D01*
X138795000Y-50474778D01*
X138546086Y-49873847D01*
X138086153Y-49413914D01*
X137485222Y-49165000D01*
X136834778Y-49165000D01*
X136233847Y-49413914D01*
X135890000Y-49757761D01*
X135546153Y-49413914D01*
X134945222Y-49165000D01*
X134294778Y-49165000D01*
X133693847Y-49413914D01*
X133350000Y-49757761D01*
X133006153Y-49413914D01*
X132405222Y-49165000D01*
X131754778Y-49165000D01*
X131153847Y-49413914D01*
X130693914Y-49873847D01*
X130445000Y-50474778D01*
X119745000Y-50474778D01*
X119496086Y-49873847D01*
X119036153Y-49413914D01*
X118435222Y-49165000D01*
X117784778Y-49165000D01*
X117183847Y-49413914D01*
X116840000Y-49757761D01*
X116496153Y-49413914D01*
X115895222Y-49165000D01*
X115244778Y-49165000D01*
X114643847Y-49413914D01*
X114300000Y-49757761D01*
X113956153Y-49413914D01*
X113355222Y-49165000D01*
X112704778Y-49165000D01*
X112103847Y-49413914D01*
X111643914Y-49873847D01*
X111395000Y-50474778D01*
X98155000Y-50474778D01*
X97906086Y-49873847D01*
X97446153Y-49413914D01*
X96845222Y-49165000D01*
X96194778Y-49165000D01*
X95593847Y-49413914D01*
X95250000Y-49757761D01*
X94906153Y-49413914D01*
X94305222Y-49165000D01*
X93654778Y-49165000D01*
X93053847Y-49413914D01*
X92710000Y-49757761D01*
X92366153Y-49413914D01*
X91765222Y-49165000D01*
X91114778Y-49165000D01*
X90513847Y-49413914D01*
X90053914Y-49873847D01*
X89805000Y-50474778D01*
X88095000Y-50474778D01*
X88095000Y-50454887D01*
X87830862Y-49817201D01*
X87342799Y-49329138D01*
X86705113Y-49065000D01*
X86014887Y-49065000D01*
X85377201Y-49329138D01*
X84889138Y-49817201D01*
X84625000Y-50454887D01*
X84530000Y-50454887D01*
X84530000Y-48970000D01*
X163120000Y-48970000D01*
X163120001Y-79632560D01*
X163120001Y-79632560D01*
G37*
X163120001Y-79632560D02*
X161560000Y-79632560D01*
X161312235Y-79681843D01*
X161102191Y-79822191D01*
X160961843Y-80032235D01*
X160912560Y-80280000D01*
X160912560Y-82280000D01*
X160961843Y-82527765D01*
X161102191Y-82737809D01*
X161312235Y-82878157D01*
X161560000Y-82927440D01*
X163120001Y-82927440D01*
X163120001Y-86265964D01*
X162785903Y-86145023D01*
X162200431Y-86171611D01*
X161783017Y-86344510D01*
X161704192Y-86594587D01*
X162560000Y-87450395D01*
X162574143Y-87436253D01*
X162753748Y-87615858D01*
X162739605Y-87630000D01*
X162753748Y-87644143D01*
X162574143Y-87823748D01*
X162560000Y-87809605D01*
X161704192Y-88665413D01*
X161777933Y-88899362D01*
X161725499Y-88921081D01*
X161311081Y-89335499D01*
X161086800Y-89876962D01*
X161086800Y-90463038D01*
X161311081Y-91004501D01*
X161725499Y-91418919D01*
X161776393Y-91440000D01*
X161725499Y-91461081D01*
X161311081Y-91875499D01*
X161086800Y-92416962D01*
X161086800Y-93003038D01*
X161311081Y-93544501D01*
X161725499Y-93958919D01*
X161776393Y-93980000D01*
X161725499Y-94001081D01*
X161311081Y-94415499D01*
X161086800Y-94956962D01*
X161086800Y-95543038D01*
X161311081Y-96084501D01*
X161725499Y-96498919D01*
X162266962Y-96723200D01*
X162853038Y-96723200D01*
X163120001Y-96612621D01*
X163120001Y-100890000D01*
X84530000Y-100890000D01*
X84530000Y-99060000D01*
X93724336Y-99060000D01*
X93826007Y-99571136D01*
X94115543Y-100004457D01*
X94548864Y-100293993D01*
X94930978Y-100370000D01*
X95189022Y-100370000D01*
X95571136Y-100293993D01*
X96004457Y-100004457D01*
X96060000Y-99921331D01*
X96115543Y-100004457D01*
X96548864Y-100293993D01*
X96930978Y-100370000D01*
X97189022Y-100370000D01*
X97571136Y-100293993D01*
X97855777Y-100103802D01*
X98025301Y-100273327D01*
X98258690Y-100370000D01*
X98774250Y-100370000D01*
X98933000Y-100211250D01*
X98933000Y-99187000D01*
X99187000Y-99187000D01*
X99187000Y-100211250D01*
X99345750Y-100370000D01*
X99861310Y-100370000D01*
X100094699Y-100273327D01*
X100273327Y-100094698D01*
X100370000Y-99861309D01*
X100370000Y-99345750D01*
X100211250Y-99187000D01*
X99187000Y-99187000D01*
X98933000Y-99187000D01*
X98913000Y-99187000D01*
X98913000Y-98933000D01*
X98933000Y-98933000D01*
X98933000Y-97908750D01*
X99187000Y-97908750D01*
X99187000Y-98933000D01*
X100211250Y-98933000D01*
X100370000Y-98774250D01*
X100370000Y-98385000D01*
X107897560Y-98385000D01*
X107897560Y-99735000D01*
X107946843Y-99982765D01*
X108087191Y-100192809D01*
X108297235Y-100333157D01*
X108545000Y-100382440D01*
X109895000Y-100382440D01*
X110142765Y-100333157D01*
X110352809Y-100192809D01*
X110415968Y-100098286D01*
X110708864Y-100293993D01*
X111090978Y-100370000D01*
X111349022Y-100370000D01*
X111731136Y-100293993D01*
X112164457Y-100004457D01*
X112220000Y-99921331D01*
X112275543Y-100004457D01*
X112708864Y-100293993D01*
X113090978Y-100370000D01*
X113349022Y-100370000D01*
X113731136Y-100293993D01*
X114164457Y-100004457D01*
X114453993Y-99571136D01*
X114555664Y-99060000D01*
X114453993Y-98548864D01*
X114344503Y-98385000D01*
X121867560Y-98385000D01*
X121867560Y-99735000D01*
X121916843Y-99982765D01*
X122057191Y-100192809D01*
X122267235Y-100333157D01*
X122515000Y-100382440D01*
X123865000Y-100382440D01*
X124112765Y-100333157D01*
X124322809Y-100192809D01*
X124385968Y-100098286D01*
X124678864Y-100293993D01*
X125060978Y-100370000D01*
X125319022Y-100370000D01*
X125701136Y-100293993D01*
X126134457Y-100004457D01*
X126190000Y-99921331D01*
X126245543Y-100004457D01*
X126678864Y-100293993D01*
X127060978Y-100370000D01*
X127319022Y-100370000D01*
X127701136Y-100293993D01*
X128134457Y-100004457D01*
X128423993Y-99571136D01*
X128502649Y-99175706D01*
X128618355Y-99060000D01*
X131988846Y-99060000D01*
X132092458Y-99580891D01*
X132387519Y-100022481D01*
X132829109Y-100317542D01*
X133218515Y-100395000D01*
X133481485Y-100395000D01*
X133870891Y-100317542D01*
X134312481Y-100022481D01*
X134607542Y-99580891D01*
X134711154Y-99060000D01*
X134658334Y-98794452D01*
X137095000Y-98794452D01*
X137095000Y-99325548D01*
X137298242Y-99816217D01*
X137673783Y-100191758D01*
X138164452Y-100395000D01*
X138695548Y-100395000D01*
X139186217Y-100191758D01*
X139561758Y-99816217D01*
X139765000Y-99325548D01*
X139765000Y-99060000D01*
X142714336Y-99060000D01*
X142816007Y-99571136D01*
X143105543Y-100004457D01*
X143538864Y-100293993D01*
X143920978Y-100370000D01*
X144179022Y-100370000D01*
X144561136Y-100293993D01*
X144994457Y-100004457D01*
X145050000Y-99921331D01*
X145105543Y-100004457D01*
X145538864Y-100293993D01*
X145920978Y-100370000D01*
X146179022Y-100370000D01*
X146561136Y-100293993D01*
X146854032Y-100098286D01*
X146917191Y-100192809D01*
X147127235Y-100333157D01*
X147375000Y-100382440D01*
X148725000Y-100382440D01*
X148972765Y-100333157D01*
X149182809Y-100192809D01*
X149323157Y-99982765D01*
X149372440Y-99735000D01*
X149372440Y-98385000D01*
X149323157Y-98137235D01*
X149182809Y-97927191D01*
X148972765Y-97786843D01*
X148725000Y-97737560D01*
X147375000Y-97737560D01*
X147127235Y-97786843D01*
X146917191Y-97927191D01*
X146854032Y-98021714D01*
X146561136Y-97826007D01*
X146179022Y-97750000D01*
X145920978Y-97750000D01*
X145538864Y-97826007D01*
X145105543Y-98115543D01*
X145050000Y-98198669D01*
X144994457Y-98115543D01*
X144561136Y-97826007D01*
X144179022Y-97750000D01*
X143920978Y-97750000D01*
X143538864Y-97826007D01*
X143105543Y-98115543D01*
X142816007Y-98548864D01*
X142714336Y-99060000D01*
X139765000Y-99060000D01*
X139765000Y-98794452D01*
X139561758Y-98303783D01*
X139186217Y-97928242D01*
X138695548Y-97725000D01*
X138164452Y-97725000D01*
X137673783Y-97928242D01*
X137298242Y-98303783D01*
X137095000Y-98794452D01*
X134658334Y-98794452D01*
X134607542Y-98539109D01*
X134312481Y-98097519D01*
X133870891Y-97802458D01*
X133481485Y-97725000D01*
X133218515Y-97725000D01*
X132829109Y-97802458D01*
X132387519Y-98097519D01*
X132092458Y-98539109D01*
X131988846Y-99060000D01*
X128618355Y-99060000D01*
X132428355Y-95250000D01*
X142148846Y-95250000D01*
X142252458Y-95770891D01*
X142547519Y-96212481D01*
X142989109Y-96507542D01*
X143378515Y-96585000D01*
X143641485Y-96585000D01*
X144030891Y-96507542D01*
X144472481Y-96212481D01*
X144767542Y-95770891D01*
X144871154Y-95250000D01*
X144818334Y-94984452D01*
X147255000Y-94984452D01*
X147255000Y-95515548D01*
X147458242Y-96006217D01*
X147833783Y-96381758D01*
X148324452Y-96585000D01*
X148855548Y-96585000D01*
X149346217Y-96381758D01*
X149721758Y-96006217D01*
X149925000Y-95515548D01*
X149925000Y-94984452D01*
X149721758Y-94493783D01*
X149346217Y-94118242D01*
X148855548Y-93915000D01*
X148324452Y-93915000D01*
X147833783Y-94118242D01*
X147458242Y-94493783D01*
X147255000Y-94984452D01*
X144818334Y-94984452D01*
X144767542Y-94729109D01*
X144472481Y-94287519D01*
X144030891Y-93992458D01*
X143641485Y-93915000D01*
X143378515Y-93915000D01*
X142989109Y-93992458D01*
X142547519Y-94287519D01*
X142252458Y-94729109D01*
X142148846Y-95250000D01*
X132428355Y-95250000D01*
X136185948Y-91492408D01*
X136646217Y-91301758D01*
X137021758Y-90926217D01*
X137225000Y-90435548D01*
X137225000Y-90170000D01*
X139608846Y-90170000D01*
X139712458Y-90690891D01*
X140007519Y-91132481D01*
X140449109Y-91427542D01*
X140838515Y-91505000D01*
X141101485Y-91505000D01*
X141490891Y-91427542D01*
X141932481Y-91132481D01*
X142227542Y-90690891D01*
X142331154Y-90170000D01*
X144688846Y-90170000D01*
X144792458Y-90690891D01*
X145087519Y-91132481D01*
X145529109Y-91427542D01*
X145918515Y-91505000D01*
X146181485Y-91505000D01*
X146570891Y-91427542D01*
X147012481Y-91132481D01*
X147307542Y-90690891D01*
X147411154Y-90170000D01*
X147307542Y-89649109D01*
X147012481Y-89207519D01*
X146570891Y-88912458D01*
X146181485Y-88835000D01*
X145918515Y-88835000D01*
X145529109Y-88912458D01*
X145087519Y-89207519D01*
X144792458Y-89649109D01*
X144688846Y-90170000D01*
X142331154Y-90170000D01*
X142227542Y-89649109D01*
X141932481Y-89207519D01*
X141490891Y-88912458D01*
X141101485Y-88835000D01*
X140838515Y-88835000D01*
X140449109Y-88912458D01*
X140007519Y-89207519D01*
X139712458Y-89649109D01*
X139608846Y-90170000D01*
X137225000Y-90170000D01*
X137225000Y-89904452D01*
X137021758Y-89413783D01*
X136646217Y-89038242D01*
X136155548Y-88835000D01*
X135624452Y-88835000D01*
X135133783Y-89038242D01*
X134758242Y-89413783D01*
X134555000Y-89904452D01*
X134555000Y-90266644D01*
X127071645Y-97750000D01*
X127060978Y-97750000D01*
X126678864Y-97826007D01*
X126245543Y-98115543D01*
X126190000Y-98198669D01*
X126134457Y-98115543D01*
X125701136Y-97826007D01*
X125319022Y-97750000D01*
X125060978Y-97750000D01*
X124678864Y-97826007D01*
X124385968Y-98021714D01*
X124322809Y-97927191D01*
X124112765Y-97786843D01*
X123865000Y-97737560D01*
X122515000Y-97737560D01*
X122267235Y-97786843D01*
X122057191Y-97927191D01*
X121916843Y-98137235D01*
X121867560Y-98385000D01*
X114344503Y-98385000D01*
X114164457Y-98115543D01*
X113731136Y-97826007D01*
X113349022Y-97750000D01*
X113090978Y-97750000D01*
X112708864Y-97826007D01*
X112275543Y-98115543D01*
X112230000Y-98183703D01*
X112230000Y-92424561D01*
X120605000Y-92424561D01*
X120605000Y-92995439D01*
X120823466Y-93522862D01*
X121227138Y-93926534D01*
X121754561Y-94145000D01*
X122325439Y-94145000D01*
X122852862Y-93926534D01*
X123256534Y-93522862D01*
X123475000Y-92995439D01*
X123475000Y-92710000D01*
X128076887Y-92710000D01*
X128188260Y-93269909D01*
X128505423Y-93744577D01*
X128980091Y-94061740D01*
X129398667Y-94145000D01*
X129681333Y-94145000D01*
X130099909Y-94061740D01*
X130574577Y-93744577D01*
X130891740Y-93269909D01*
X131003113Y-92710000D01*
X130891740Y-92150091D01*
X130574577Y-91675423D01*
X130099909Y-91358260D01*
X129681333Y-91275000D01*
X129398667Y-91275000D01*
X128980091Y-91358260D01*
X128505423Y-91675423D01*
X128188260Y-92150091D01*
X128076887Y-92710000D01*
X123475000Y-92710000D01*
X123475000Y-92424561D01*
X123256534Y-91897138D01*
X122852862Y-91493466D01*
X122325439Y-91275000D01*
X121754561Y-91275000D01*
X121227138Y-91493466D01*
X120823466Y-91897138D01*
X120605000Y-92424561D01*
X112230000Y-92424561D01*
X112230000Y-92398355D01*
X113123356Y-91505000D01*
X113161485Y-91505000D01*
X113550891Y-91427542D01*
X113992481Y-91132481D01*
X114287542Y-90690891D01*
X114391154Y-90170000D01*
X114287542Y-89649109D01*
X113992481Y-89207519D01*
X113550891Y-88912458D01*
X113161485Y-88835000D01*
X112898515Y-88835000D01*
X112509109Y-88912458D01*
X112067519Y-89207519D01*
X111772458Y-89649109D01*
X111685532Y-90086112D01*
X110576160Y-91195484D01*
X110491832Y-91251831D01*
X110435485Y-91336160D01*
X110435482Y-91336163D01*
X110268602Y-91585918D01*
X110190214Y-91980000D01*
X110210001Y-92079476D01*
X110210000Y-97831768D01*
X110142765Y-97786843D01*
X109895000Y-97737560D01*
X108545000Y-97737560D01*
X108297235Y-97786843D01*
X108087191Y-97927191D01*
X107946843Y-98137235D01*
X107897560Y-98385000D01*
X100370000Y-98385000D01*
X100370000Y-98258691D01*
X100273327Y-98025302D01*
X100094699Y-97846673D01*
X99861310Y-97750000D01*
X99345750Y-97750000D01*
X99187000Y-97908750D01*
X98933000Y-97908750D01*
X98774250Y-97750000D01*
X98258690Y-97750000D01*
X98025301Y-97846673D01*
X97855777Y-98016198D01*
X97571136Y-97826007D01*
X97189022Y-97750000D01*
X96930978Y-97750000D01*
X96548864Y-97826007D01*
X96115543Y-98115543D01*
X96060000Y-98198669D01*
X96004457Y-98115543D01*
X95571136Y-97826007D01*
X95189022Y-97750000D01*
X94930978Y-97750000D01*
X94548864Y-97826007D01*
X94115543Y-98115543D01*
X93826007Y-98548864D01*
X93724336Y-99060000D01*
X84530000Y-99060000D01*
X84530000Y-89904452D01*
X106615000Y-89904452D01*
X106615000Y-90435548D01*
X106818242Y-90926217D01*
X107193783Y-91301758D01*
X107684452Y-91505000D01*
X108215548Y-91505000D01*
X108706217Y-91301758D01*
X109081758Y-90926217D01*
X109285000Y-90435548D01*
X109285000Y-89904452D01*
X109081758Y-89413783D01*
X108706217Y-89038242D01*
X108215548Y-88835000D01*
X107684452Y-88835000D01*
X107193783Y-89038242D01*
X106818242Y-89413783D01*
X106615000Y-89904452D01*
X84530000Y-89904452D01*
X84530000Y-84360000D01*
X85024336Y-84360000D01*
X85126007Y-84871136D01*
X85415543Y-85304457D01*
X85498669Y-85360000D01*
X85415543Y-85415543D01*
X85126007Y-85848864D01*
X85024336Y-86360000D01*
X85126007Y-86871136D01*
X85415543Y-87304457D01*
X85848864Y-87593993D01*
X86230978Y-87670000D01*
X86489022Y-87670000D01*
X86871136Y-87593993D01*
X87304457Y-87304457D01*
X87593993Y-86871136D01*
X87695664Y-86360000D01*
X87593993Y-85848864D01*
X87304457Y-85415543D01*
X87221331Y-85360000D01*
X87304457Y-85304457D01*
X87593993Y-84871136D01*
X87695664Y-84360000D01*
X87593993Y-83848864D01*
X87398286Y-83555968D01*
X87492809Y-83492809D01*
X87633157Y-83282765D01*
X87682440Y-83035000D01*
X87682440Y-81685000D01*
X87633157Y-81437235D01*
X87492809Y-81227191D01*
X87282765Y-81086843D01*
X87035000Y-81037560D01*
X85685000Y-81037560D01*
X85437235Y-81086843D01*
X85227191Y-81227191D01*
X85086843Y-81437235D01*
X85037560Y-81685000D01*
X85037560Y-83035000D01*
X85086843Y-83282765D01*
X85227191Y-83492809D01*
X85321714Y-83555968D01*
X85126007Y-83848864D01*
X85024336Y-84360000D01*
X84530000Y-84360000D01*
X84530000Y-79171800D01*
X95034360Y-79171800D01*
X95034360Y-80848200D01*
X95083643Y-81095965D01*
X95223991Y-81306009D01*
X95434035Y-81446357D01*
X95522605Y-81463975D01*
X95271081Y-81715499D01*
X95046800Y-82256962D01*
X95046800Y-82843038D01*
X95271081Y-83384501D01*
X95685499Y-83798919D01*
X95736393Y-83820000D01*
X95685499Y-83841081D01*
X95271081Y-84255499D01*
X95046800Y-84796962D01*
X95046800Y-85383038D01*
X95271081Y-85924501D01*
X95685499Y-86338919D01*
X95736393Y-86360000D01*
X95685499Y-86381081D01*
X95271081Y-86795499D01*
X95046800Y-87336962D01*
X95046800Y-87923038D01*
X95271081Y-88464501D01*
X95685499Y-88878919D01*
X96226962Y-89103200D01*
X96813038Y-89103200D01*
X97354501Y-88878919D01*
X97768919Y-88464501D01*
X97993200Y-87923038D01*
X97993200Y-87336962D01*
X97768919Y-86795499D01*
X97354501Y-86381081D01*
X97303607Y-86360000D01*
X97354501Y-86338919D01*
X97768919Y-85924501D01*
X97993200Y-85383038D01*
X97993200Y-84796962D01*
X97768919Y-84255499D01*
X97354501Y-83841081D01*
X97303607Y-83820000D01*
X97354501Y-83798919D01*
X97768919Y-83384501D01*
X97993200Y-82843038D01*
X97993200Y-82256962D01*
X102666800Y-82256962D01*
X102666800Y-82843038D01*
X102891081Y-83384501D01*
X103305499Y-83798919D01*
X103356393Y-83820000D01*
X103305499Y-83841081D01*
X102891081Y-84255499D01*
X102666800Y-84796962D01*
X102666800Y-85383038D01*
X102891081Y-85924501D01*
X103305499Y-86338919D01*
X103356393Y-86360000D01*
X103305499Y-86381081D01*
X102891081Y-86795499D01*
X102666800Y-87336962D01*
X102666800Y-87923038D01*
X102891081Y-88464501D01*
X103305499Y-88878919D01*
X103846962Y-89103200D01*
X104433038Y-89103200D01*
X104974501Y-88878919D01*
X105388919Y-88464501D01*
X105613200Y-87923038D01*
X105613200Y-87336962D01*
X119176800Y-87336962D01*
X119176800Y-87923038D01*
X119401081Y-88464501D01*
X119815499Y-88878919D01*
X120356962Y-89103200D01*
X120943038Y-89103200D01*
X121484501Y-88878919D01*
X121898919Y-88464501D01*
X121920000Y-88413607D01*
X121941081Y-88464501D01*
X122355499Y-88878919D01*
X122896962Y-89103200D01*
X123483038Y-89103200D01*
X124024501Y-88878919D01*
X124438919Y-88464501D01*
X124460000Y-88413607D01*
X124481081Y-88464501D01*
X124895499Y-88878919D01*
X125436962Y-89103200D01*
X126023038Y-89103200D01*
X126564501Y-88878919D01*
X126778007Y-88665413D01*
X127414192Y-88665413D01*
X127493017Y-88915490D01*
X128044097Y-89114977D01*
X128629569Y-89088389D01*
X129046983Y-88915490D01*
X129125808Y-88665413D01*
X128270000Y-87809605D01*
X127414192Y-88665413D01*
X126778007Y-88665413D01*
X126978919Y-88464501D01*
X127000638Y-88412067D01*
X127234587Y-88485808D01*
X128090395Y-87630000D01*
X128449605Y-87630000D01*
X129305413Y-88485808D01*
X129555490Y-88406983D01*
X129754977Y-87855903D01*
X129728389Y-87270431D01*
X129555490Y-86853017D01*
X129305413Y-86774192D01*
X128449605Y-87630000D01*
X128090395Y-87630000D01*
X127234587Y-86774192D01*
X127000638Y-86847933D01*
X126978919Y-86795499D01*
X126778007Y-86594587D01*
X127414192Y-86594587D01*
X128270000Y-87450395D01*
X129125808Y-86594587D01*
X129046983Y-86344510D01*
X128495903Y-86145023D01*
X127910431Y-86171611D01*
X127493017Y-86344510D01*
X127414192Y-86594587D01*
X126778007Y-86594587D01*
X126564501Y-86381081D01*
X126023038Y-86156800D01*
X125436962Y-86156800D01*
X124895499Y-86381081D01*
X124481081Y-86795499D01*
X124460000Y-86846393D01*
X124438919Y-86795499D01*
X124024501Y-86381081D01*
X123483038Y-86156800D01*
X122896962Y-86156800D01*
X122355499Y-86381081D01*
X121941081Y-86795499D01*
X121920000Y-86846393D01*
X121898919Y-86795499D01*
X121484501Y-86381081D01*
X120943038Y-86156800D01*
X120356962Y-86156800D01*
X119815499Y-86381081D01*
X119401081Y-86795499D01*
X119176800Y-87336962D01*
X105613200Y-87336962D01*
X105388919Y-86795499D01*
X104974501Y-86381081D01*
X104923607Y-86360000D01*
X104974501Y-86338919D01*
X105388919Y-85924501D01*
X105613200Y-85383038D01*
X105613200Y-85090000D01*
X134528846Y-85090000D01*
X134632458Y-85610891D01*
X134927519Y-86052481D01*
X135369109Y-86347542D01*
X135758515Y-86425000D01*
X136021485Y-86425000D01*
X136410891Y-86347542D01*
X136852481Y-86052481D01*
X137147542Y-85610891D01*
X137251154Y-85090000D01*
X137198334Y-84824452D01*
X139635000Y-84824452D01*
X139635000Y-85355548D01*
X139838242Y-85846217D01*
X140213783Y-86221758D01*
X140704452Y-86425000D01*
X141235548Y-86425000D01*
X141726217Y-86221758D01*
X142101758Y-85846217D01*
X142305000Y-85355548D01*
X142305000Y-84824452D01*
X144715000Y-84824452D01*
X144715000Y-85355548D01*
X144918242Y-85846217D01*
X145293783Y-86221758D01*
X145784452Y-86425000D01*
X146315548Y-86425000D01*
X146806217Y-86221758D01*
X147181758Y-85846217D01*
X147385000Y-85355548D01*
X147385000Y-84824452D01*
X147181758Y-84333783D01*
X146806217Y-83958242D01*
X146315548Y-83755000D01*
X145784452Y-83755000D01*
X145293783Y-83958242D01*
X144918242Y-84333783D01*
X144715000Y-84824452D01*
X142305000Y-84824452D01*
X142101758Y-84333783D01*
X141726217Y-83958242D01*
X141235548Y-83755000D01*
X140704452Y-83755000D01*
X140213783Y-83958242D01*
X139838242Y-84333783D01*
X139635000Y-84824452D01*
X137198334Y-84824452D01*
X137147542Y-84569109D01*
X136900000Y-84198636D01*
X136900000Y-81149396D01*
X137226534Y-80822862D01*
X137445000Y-80295439D01*
X137445000Y-80010000D01*
X142046887Y-80010000D01*
X142158260Y-80569909D01*
X142475423Y-81044577D01*
X142950091Y-81361740D01*
X143368667Y-81445000D01*
X143651333Y-81445000D01*
X144069909Y-81361740D01*
X144192241Y-81280000D01*
X146922969Y-81280000D01*
X147049864Y-81917945D01*
X147411231Y-82458769D01*
X147952055Y-82820136D01*
X148428969Y-82915000D01*
X148751031Y-82915000D01*
X148789077Y-82907432D01*
X149636644Y-83755000D01*
X149594452Y-83755000D01*
X149103783Y-83958242D01*
X148728242Y-84333783D01*
X148525000Y-84824452D01*
X148525000Y-85355548D01*
X148728242Y-85846217D01*
X149103783Y-86221758D01*
X149594452Y-86425000D01*
X150125002Y-86425000D01*
X150125002Y-88805525D01*
X150114281Y-88859426D01*
X149991485Y-88835000D01*
X149728515Y-88835000D01*
X149339109Y-88912458D01*
X148897519Y-89207519D01*
X148602458Y-89649109D01*
X148498846Y-90170000D01*
X148602458Y-90690891D01*
X148897519Y-91132481D01*
X149339109Y-91427542D01*
X149728515Y-91505000D01*
X149991485Y-91505000D01*
X150380891Y-91427542D01*
X150822481Y-91132481D01*
X151117542Y-90690891D01*
X151179758Y-90378113D01*
X153457963Y-92656319D01*
X153457966Y-92656321D01*
X153466800Y-92665155D01*
X153466800Y-93003038D01*
X153691081Y-93544501D01*
X154105499Y-93958919D01*
X154156393Y-93980000D01*
X154105499Y-94001081D01*
X153691081Y-94415499D01*
X153466800Y-94956962D01*
X153466800Y-95543038D01*
X153691081Y-96084501D01*
X154105499Y-96498919D01*
X154646962Y-96723200D01*
X155233038Y-96723200D01*
X155774501Y-96498919D01*
X156188919Y-96084501D01*
X156413200Y-95543038D01*
X156413200Y-94956962D01*
X156188919Y-94415499D01*
X155774501Y-94001081D01*
X155723607Y-93980000D01*
X155774501Y-93958919D01*
X156188919Y-93544501D01*
X156413200Y-93003038D01*
X156413200Y-92416962D01*
X156188919Y-91875499D01*
X155774501Y-91461081D01*
X155723607Y-91440000D01*
X155774501Y-91418919D01*
X156188919Y-91004501D01*
X156413200Y-90463038D01*
X156413200Y-89876962D01*
X156188919Y-89335499D01*
X155937395Y-89083975D01*
X156025965Y-89066357D01*
X156236009Y-88926009D01*
X156376357Y-88715965D01*
X156425640Y-88468200D01*
X156425640Y-87404097D01*
X161075023Y-87404097D01*
X161101611Y-87989569D01*
X161274510Y-88406983D01*
X161524587Y-88485808D01*
X162380395Y-87630000D01*
X161524587Y-86774192D01*
X161274510Y-86853017D01*
X161075023Y-87404097D01*
X156425640Y-87404097D01*
X156425640Y-86791800D01*
X156376357Y-86544035D01*
X156236009Y-86333991D01*
X156025965Y-86193643D01*
X155778200Y-86144360D01*
X154101800Y-86144360D01*
X153854035Y-86193643D01*
X153643991Y-86333991D01*
X153503643Y-86544035D01*
X153454360Y-86791800D01*
X153454360Y-88468200D01*
X153503643Y-88715965D01*
X153643991Y-88926009D01*
X153854035Y-89066357D01*
X153942605Y-89083975D01*
X153691081Y-89335499D01*
X153486868Y-89828513D01*
X152145001Y-88486646D01*
X152145001Y-83924472D01*
X152164787Y-83825001D01*
X152145001Y-83725530D01*
X152145001Y-83725525D01*
X152086400Y-83430919D01*
X151987407Y-83282765D01*
X151919519Y-83181163D01*
X151919517Y-83181161D01*
X151863170Y-83096832D01*
X151778842Y-83040486D01*
X150217432Y-81479077D01*
X150257031Y-81280000D01*
X150130136Y-80642055D01*
X149888219Y-80280000D01*
X152022560Y-80280000D01*
X152022560Y-82280000D01*
X152071843Y-82527765D01*
X152212191Y-82737809D01*
X152422235Y-82878157D01*
X152670000Y-82927440D01*
X154670000Y-82927440D01*
X154917765Y-82878157D01*
X155127809Y-82737809D01*
X155268157Y-82527765D01*
X155317440Y-82280000D01*
X155317440Y-81280000D01*
X155812969Y-81280000D01*
X155939864Y-81917945D01*
X156301231Y-82458769D01*
X156842055Y-82820136D01*
X157318969Y-82915000D01*
X157641031Y-82915000D01*
X158117945Y-82820136D01*
X158658769Y-82458769D01*
X159020136Y-81917945D01*
X159147031Y-81280000D01*
X159020136Y-80642055D01*
X158658769Y-80101231D01*
X158117945Y-79739864D01*
X157641031Y-79645000D01*
X157318969Y-79645000D01*
X156842055Y-79739864D01*
X156301231Y-80101231D01*
X155939864Y-80642055D01*
X155812969Y-81280000D01*
X155317440Y-81280000D01*
X155317440Y-80280000D01*
X155268157Y-80032235D01*
X155127809Y-79822191D01*
X154917765Y-79681843D01*
X154670000Y-79632560D01*
X152670000Y-79632560D01*
X152422235Y-79681843D01*
X152212191Y-79822191D01*
X152071843Y-80032235D01*
X152022560Y-80280000D01*
X149888219Y-80280000D01*
X149768769Y-80101231D01*
X149227945Y-79739864D01*
X148751031Y-79645000D01*
X148428969Y-79645000D01*
X147952055Y-79739864D01*
X147411231Y-80101231D01*
X147049864Y-80642055D01*
X146922969Y-81280000D01*
X144192241Y-81280000D01*
X144544577Y-81044577D01*
X144861740Y-80569909D01*
X144973113Y-80010000D01*
X144861740Y-79450091D01*
X144544577Y-78975423D01*
X144069909Y-78658260D01*
X143651333Y-78575000D01*
X143368667Y-78575000D01*
X142950091Y-78658260D01*
X142475423Y-78975423D01*
X142158260Y-79450091D01*
X142046887Y-80010000D01*
X137445000Y-80010000D01*
X137445000Y-79724561D01*
X137226534Y-79197138D01*
X136822862Y-78793466D01*
X136295439Y-78575000D01*
X135724561Y-78575000D01*
X135197138Y-78793466D01*
X134793466Y-79197138D01*
X134575000Y-79724561D01*
X134575000Y-80295439D01*
X134793466Y-80822862D01*
X134880001Y-80909397D01*
X134880000Y-84198636D01*
X134632458Y-84569109D01*
X134528846Y-85090000D01*
X105613200Y-85090000D01*
X105613200Y-85045155D01*
X110941393Y-79716962D01*
X119176800Y-79716962D01*
X119176800Y-80303038D01*
X119401081Y-80844501D01*
X119815499Y-81258919D01*
X120356962Y-81483200D01*
X120943038Y-81483200D01*
X121484501Y-81258919D01*
X121898919Y-80844501D01*
X121920000Y-80793607D01*
X121941081Y-80844501D01*
X122355499Y-81258919D01*
X122896962Y-81483200D01*
X123483038Y-81483200D01*
X124024501Y-81258919D01*
X124438919Y-80844501D01*
X124460000Y-80793607D01*
X124481081Y-80844501D01*
X124895499Y-81258919D01*
X125436962Y-81483200D01*
X126023038Y-81483200D01*
X126564501Y-81258919D01*
X126816025Y-81007395D01*
X126833643Y-81095965D01*
X126973991Y-81306009D01*
X127184035Y-81446357D01*
X127431800Y-81495640D01*
X129108200Y-81495640D01*
X129355965Y-81446357D01*
X129566009Y-81306009D01*
X129706357Y-81095965D01*
X129755640Y-80848200D01*
X129755640Y-79171800D01*
X129706357Y-78924035D01*
X129566009Y-78713991D01*
X129355965Y-78573643D01*
X129108200Y-78524360D01*
X127431800Y-78524360D01*
X127184035Y-78573643D01*
X126973991Y-78713991D01*
X126833643Y-78924035D01*
X126816025Y-79012605D01*
X126564501Y-78761081D01*
X126023038Y-78536800D01*
X125436962Y-78536800D01*
X124895499Y-78761081D01*
X124481081Y-79175499D01*
X124460000Y-79226393D01*
X124438919Y-79175499D01*
X124024501Y-78761081D01*
X123483038Y-78536800D01*
X122896962Y-78536800D01*
X122355499Y-78761081D01*
X121941081Y-79175499D01*
X121920000Y-79226393D01*
X121898919Y-79175499D01*
X121484501Y-78761081D01*
X120943038Y-78536800D01*
X120356962Y-78536800D01*
X119815499Y-78761081D01*
X119401081Y-79175499D01*
X119176800Y-79716962D01*
X110941393Y-79716962D01*
X113673841Y-76984515D01*
X113758169Y-76928169D01*
X113814516Y-76843840D01*
X113814518Y-76843838D01*
X113981399Y-76594083D01*
X113993572Y-76532885D01*
X114040000Y-76299476D01*
X114040000Y-76299472D01*
X114059786Y-76200000D01*
X114040000Y-76100528D01*
X114040000Y-75807975D01*
X114161758Y-75686217D01*
X114365000Y-75195548D01*
X114365000Y-74930000D01*
X116748846Y-74930000D01*
X116852458Y-75450891D01*
X117147519Y-75892481D01*
X117589109Y-76187542D01*
X117978515Y-76265000D01*
X118241485Y-76265000D01*
X118630891Y-76187542D01*
X119072481Y-75892481D01*
X119367542Y-75450891D01*
X119471154Y-74930000D01*
X119418334Y-74664452D01*
X121855000Y-74664452D01*
X121855000Y-75195548D01*
X122058242Y-75686217D01*
X122433783Y-76061758D01*
X122924452Y-76265000D01*
X123455548Y-76265000D01*
X123946217Y-76061758D01*
X124321758Y-75686217D01*
X124525000Y-75195548D01*
X124525000Y-74930000D01*
X125638846Y-74930000D01*
X125742458Y-75450891D01*
X126037519Y-75892481D01*
X126479109Y-76187542D01*
X126868515Y-76265000D01*
X127131485Y-76265000D01*
X127520891Y-76187542D01*
X127962481Y-75892481D01*
X128257542Y-75450891D01*
X128361154Y-74930000D01*
X128308334Y-74664452D01*
X130745000Y-74664452D01*
X130745000Y-75195548D01*
X130948242Y-75686217D01*
X131323783Y-76061758D01*
X131814452Y-76265000D01*
X132345548Y-76265000D01*
X132836217Y-76061758D01*
X133211758Y-75686217D01*
X133415000Y-75195548D01*
X133415000Y-74930000D01*
X135798846Y-74930000D01*
X135902458Y-75450891D01*
X136197519Y-75892481D01*
X136639109Y-76187542D01*
X137028515Y-76265000D01*
X137291485Y-76265000D01*
X137680891Y-76187542D01*
X138122481Y-75892481D01*
X138417542Y-75450891D01*
X138521154Y-74930000D01*
X138468334Y-74664452D01*
X140905000Y-74664452D01*
X140905000Y-75195548D01*
X141108242Y-75686217D01*
X141483783Y-76061758D01*
X141974452Y-76265000D01*
X142505548Y-76265000D01*
X142996217Y-76061758D01*
X143371758Y-75686217D01*
X143575000Y-75195548D01*
X143575000Y-74930000D01*
X144688846Y-74930000D01*
X144792458Y-75450891D01*
X145087519Y-75892481D01*
X145529109Y-76187542D01*
X145918515Y-76265000D01*
X146181485Y-76265000D01*
X146570891Y-76187542D01*
X147012481Y-75892481D01*
X147307542Y-75450891D01*
X147411154Y-74930000D01*
X147358334Y-74664452D01*
X149795000Y-74664452D01*
X149795000Y-75195548D01*
X149998242Y-75686217D01*
X150373783Y-76061758D01*
X150864452Y-76265000D01*
X151395548Y-76265000D01*
X151886217Y-76061758D01*
X152261758Y-75686217D01*
X152465000Y-75195548D01*
X152465000Y-74930000D01*
X153578846Y-74930000D01*
X153682458Y-75450891D01*
X153977519Y-75892481D01*
X154419109Y-76187542D01*
X154808515Y-76265000D01*
X155071485Y-76265000D01*
X155460891Y-76187542D01*
X155902481Y-75892481D01*
X156197542Y-75450891D01*
X156301154Y-74930000D01*
X156248334Y-74664452D01*
X158685000Y-74664452D01*
X158685000Y-75195548D01*
X158888242Y-75686217D01*
X159263783Y-76061758D01*
X159754452Y-76265000D01*
X160285548Y-76265000D01*
X160776217Y-76061758D01*
X161151758Y-75686217D01*
X161355000Y-75195548D01*
X161355000Y-74664452D01*
X161151758Y-74173783D01*
X160776217Y-73798242D01*
X160285548Y-73595000D01*
X159754452Y-73595000D01*
X159263783Y-73798242D01*
X158888242Y-74173783D01*
X158685000Y-74664452D01*
X156248334Y-74664452D01*
X156197542Y-74409109D01*
X155902481Y-73967519D01*
X155460891Y-73672458D01*
X155071485Y-73595000D01*
X154808515Y-73595000D01*
X154419109Y-73672458D01*
X153977519Y-73967519D01*
X153682458Y-74409109D01*
X153578846Y-74930000D01*
X152465000Y-74930000D01*
X152465000Y-74664452D01*
X152261758Y-74173783D01*
X151886217Y-73798242D01*
X151395548Y-73595000D01*
X150864452Y-73595000D01*
X150373783Y-73798242D01*
X149998242Y-74173783D01*
X149795000Y-74664452D01*
X147358334Y-74664452D01*
X147307542Y-74409109D01*
X147012481Y-73967519D01*
X146570891Y-73672458D01*
X146181485Y-73595000D01*
X145918515Y-73595000D01*
X145529109Y-73672458D01*
X145087519Y-73967519D01*
X144792458Y-74409109D01*
X144688846Y-74930000D01*
X143575000Y-74930000D01*
X143575000Y-74664452D01*
X143371758Y-74173783D01*
X142996217Y-73798242D01*
X142505548Y-73595000D01*
X141974452Y-73595000D01*
X141483783Y-73798242D01*
X141108242Y-74173783D01*
X140905000Y-74664452D01*
X138468334Y-74664452D01*
X138417542Y-74409109D01*
X138122481Y-73967519D01*
X137680891Y-73672458D01*
X137291485Y-73595000D01*
X137028515Y-73595000D01*
X136639109Y-73672458D01*
X136197519Y-73967519D01*
X135902458Y-74409109D01*
X135798846Y-74930000D01*
X133415000Y-74930000D01*
X133415000Y-74664452D01*
X133211758Y-74173783D01*
X132836217Y-73798242D01*
X132345548Y-73595000D01*
X131814452Y-73595000D01*
X131323783Y-73798242D01*
X130948242Y-74173783D01*
X130745000Y-74664452D01*
X128308334Y-74664452D01*
X128257542Y-74409109D01*
X127962481Y-73967519D01*
X127520891Y-73672458D01*
X127131485Y-73595000D01*
X126868515Y-73595000D01*
X126479109Y-73672458D01*
X126037519Y-73967519D01*
X125742458Y-74409109D01*
X125638846Y-74930000D01*
X124525000Y-74930000D01*
X124525000Y-74664452D01*
X124321758Y-74173783D01*
X123946217Y-73798242D01*
X123455548Y-73595000D01*
X122924452Y-73595000D01*
X122433783Y-73798242D01*
X122058242Y-74173783D01*
X121855000Y-74664452D01*
X119418334Y-74664452D01*
X119367542Y-74409109D01*
X119072481Y-73967519D01*
X118630891Y-73672458D01*
X118241485Y-73595000D01*
X117978515Y-73595000D01*
X117589109Y-73672458D01*
X117147519Y-73967519D01*
X116852458Y-74409109D01*
X116748846Y-74930000D01*
X114365000Y-74930000D01*
X114365000Y-74664452D01*
X114161758Y-74173783D01*
X113786217Y-73798242D01*
X113295548Y-73595000D01*
X112764452Y-73595000D01*
X112273783Y-73798242D01*
X111898242Y-74173783D01*
X111695000Y-74664452D01*
X111695000Y-75195548D01*
X111898242Y-75686217D01*
X112006835Y-75794810D01*
X105593132Y-82208513D01*
X105388919Y-81715499D01*
X104974501Y-81301081D01*
X104922067Y-81279362D01*
X104995808Y-81045413D01*
X104140000Y-80189605D01*
X103284192Y-81045413D01*
X103357933Y-81279362D01*
X103305499Y-81301081D01*
X102891081Y-81715499D01*
X102666800Y-82256962D01*
X97993200Y-82256962D01*
X97768919Y-81715499D01*
X97517395Y-81463975D01*
X97605965Y-81446357D01*
X97816009Y-81306009D01*
X97956357Y-81095965D01*
X98005640Y-80848200D01*
X98005640Y-79784097D01*
X102655023Y-79784097D01*
X102681611Y-80369569D01*
X102854510Y-80786983D01*
X103104587Y-80865808D01*
X103960395Y-80010000D01*
X104319605Y-80010000D01*
X105175413Y-80865808D01*
X105425490Y-80786983D01*
X105624977Y-80235903D01*
X105598389Y-79650431D01*
X105425490Y-79233017D01*
X105175413Y-79154192D01*
X104319605Y-80010000D01*
X103960395Y-80010000D01*
X103104587Y-79154192D01*
X102854510Y-79233017D01*
X102655023Y-79784097D01*
X98005640Y-79784097D01*
X98005640Y-79171800D01*
X97966413Y-78974587D01*
X103284192Y-78974587D01*
X104140000Y-79830395D01*
X104995808Y-78974587D01*
X104916983Y-78724510D01*
X104365903Y-78525023D01*
X103780431Y-78551611D01*
X103363017Y-78724510D01*
X103284192Y-78974587D01*
X97966413Y-78974587D01*
X97956357Y-78924035D01*
X97816009Y-78713991D01*
X97605965Y-78573643D01*
X97358200Y-78524360D01*
X95681800Y-78524360D01*
X95434035Y-78573643D01*
X95223991Y-78713991D01*
X95083643Y-78924035D01*
X95034360Y-79171800D01*
X84530000Y-79171800D01*
X84530000Y-74930000D01*
X84998846Y-74930000D01*
X85102458Y-75450891D01*
X85397519Y-75892481D01*
X85839109Y-76187542D01*
X86228515Y-76265000D01*
X86491485Y-76265000D01*
X86880891Y-76187542D01*
X87322481Y-75892481D01*
X87617542Y-75450891D01*
X87721154Y-74930000D01*
X87668334Y-74664452D01*
X90105000Y-74664452D01*
X90105000Y-75195548D01*
X90308242Y-75686217D01*
X90683783Y-76061758D01*
X91174452Y-76265000D01*
X91705548Y-76265000D01*
X92196217Y-76061758D01*
X92571758Y-75686217D01*
X92775000Y-75195548D01*
X92775000Y-74930000D01*
X95158846Y-74930000D01*
X95262458Y-75450891D01*
X95557519Y-75892481D01*
X95999109Y-76187542D01*
X96388515Y-76265000D01*
X96651485Y-76265000D01*
X97040891Y-76187542D01*
X97482481Y-75892481D01*
X97777542Y-75450891D01*
X97881154Y-74930000D01*
X97828334Y-74664452D01*
X100265000Y-74664452D01*
X100265000Y-75195548D01*
X100468242Y-75686217D01*
X100843783Y-76061758D01*
X101334452Y-76265000D01*
X101865548Y-76265000D01*
X102356217Y-76061758D01*
X102731758Y-75686217D01*
X102935000Y-75195548D01*
X102935000Y-74930000D01*
X106588846Y-74930000D01*
X106692458Y-75450891D01*
X106987519Y-75892481D01*
X107429109Y-76187542D01*
X107818515Y-76265000D01*
X108081485Y-76265000D01*
X108470891Y-76187542D01*
X108912481Y-75892481D01*
X109207542Y-75450891D01*
X109311154Y-74930000D01*
X109207542Y-74409109D01*
X108912481Y-73967519D01*
X108470891Y-73672458D01*
X108081485Y-73595000D01*
X107818515Y-73595000D01*
X107429109Y-73672458D01*
X106987519Y-73967519D01*
X106692458Y-74409109D01*
X106588846Y-74930000D01*
X102935000Y-74930000D01*
X102935000Y-74664452D01*
X102731758Y-74173783D01*
X102356217Y-73798242D01*
X101865548Y-73595000D01*
X101334452Y-73595000D01*
X100843783Y-73798242D01*
X100468242Y-74173783D01*
X100265000Y-74664452D01*
X97828334Y-74664452D01*
X97777542Y-74409109D01*
X97482481Y-73967519D01*
X97040891Y-73672458D01*
X96651485Y-73595000D01*
X96388515Y-73595000D01*
X95999109Y-73672458D01*
X95557519Y-73967519D01*
X95262458Y-74409109D01*
X95158846Y-74930000D01*
X92775000Y-74930000D01*
X92775000Y-74664452D01*
X92571758Y-74173783D01*
X92196217Y-73798242D01*
X91705548Y-73595000D01*
X91174452Y-73595000D01*
X90683783Y-73798242D01*
X90308242Y-74173783D01*
X90105000Y-74664452D01*
X87668334Y-74664452D01*
X87617542Y-74409109D01*
X87322481Y-73967519D01*
X86880891Y-73672458D01*
X86491485Y-73595000D01*
X86228515Y-73595000D01*
X85839109Y-73672458D01*
X85397519Y-73967519D01*
X85102458Y-74409109D01*
X84998846Y-74930000D01*
X84530000Y-74930000D01*
X84530000Y-71120000D01*
X92516887Y-71120000D01*
X92628260Y-71679909D01*
X92945423Y-72154577D01*
X93420091Y-72471740D01*
X93838667Y-72555000D01*
X94121333Y-72555000D01*
X94539909Y-72471740D01*
X95014577Y-72154577D01*
X95331740Y-71679909D01*
X95443113Y-71120000D01*
X95419244Y-71000000D01*
X114106887Y-71000000D01*
X114218260Y-71559909D01*
X114535423Y-72034577D01*
X115010091Y-72351740D01*
X115428667Y-72435000D01*
X115711333Y-72435000D01*
X116129909Y-72351740D01*
X116604577Y-72034577D01*
X116921740Y-71559909D01*
X117033113Y-71000000D01*
X133156887Y-71000000D01*
X133268260Y-71559909D01*
X133585423Y-72034577D01*
X134060091Y-72351740D01*
X134478667Y-72435000D01*
X134761333Y-72435000D01*
X135179909Y-72351740D01*
X135654577Y-72034577D01*
X135971740Y-71559909D01*
X136083113Y-71000000D01*
X152206887Y-71000000D01*
X152318260Y-71559909D01*
X152635423Y-72034577D01*
X153110091Y-72351740D01*
X153528667Y-72435000D01*
X153811333Y-72435000D01*
X154229909Y-72351740D01*
X154704577Y-72034577D01*
X155021740Y-71559909D01*
X155133113Y-71000000D01*
X155021740Y-70440091D01*
X154704577Y-69965423D01*
X154229909Y-69648260D01*
X153811333Y-69565000D01*
X153528667Y-69565000D01*
X153110091Y-69648260D01*
X152635423Y-69965423D01*
X152318260Y-70440091D01*
X152206887Y-71000000D01*
X136083113Y-71000000D01*
X135971740Y-70440091D01*
X135654577Y-69965423D01*
X135179909Y-69648260D01*
X134761333Y-69565000D01*
X134478667Y-69565000D01*
X134060091Y-69648260D01*
X133585423Y-69965423D01*
X133268260Y-70440091D01*
X133156887Y-71000000D01*
X117033113Y-71000000D01*
X116921740Y-70440091D01*
X116604577Y-69965423D01*
X116129909Y-69648260D01*
X115711333Y-69565000D01*
X115428667Y-69565000D01*
X115010091Y-69648260D01*
X114535423Y-69965423D01*
X114218260Y-70440091D01*
X114106887Y-71000000D01*
X95419244Y-71000000D01*
X95331740Y-70560091D01*
X95014577Y-70085423D01*
X94539909Y-69768260D01*
X94121333Y-69685000D01*
X93838667Y-69685000D01*
X93420091Y-69768260D01*
X92945423Y-70085423D01*
X92628260Y-70560091D01*
X92516887Y-71120000D01*
X84530000Y-71120000D01*
X84530000Y-68580000D01*
X87538846Y-68580000D01*
X87642458Y-69100891D01*
X87937519Y-69542481D01*
X88379109Y-69837542D01*
X88768515Y-69915000D01*
X89031485Y-69915000D01*
X89420891Y-69837542D01*
X89862481Y-69542481D01*
X90157542Y-69100891D01*
X90261154Y-68580000D01*
X90208334Y-68314452D01*
X97725000Y-68314452D01*
X97725000Y-68845548D01*
X97928242Y-69336217D01*
X98303783Y-69711758D01*
X98794452Y-69915000D01*
X99325548Y-69915000D01*
X99816217Y-69711758D01*
X100191758Y-69336217D01*
X100395000Y-68845548D01*
X100395000Y-68314452D01*
X105345000Y-68314452D01*
X105345000Y-68845548D01*
X105548242Y-69336217D01*
X105923783Y-69711758D01*
X106414452Y-69915000D01*
X106945548Y-69915000D01*
X107436217Y-69711758D01*
X107811758Y-69336217D01*
X108015000Y-68845548D01*
X108015000Y-68314452D01*
X110425000Y-68314452D01*
X110425000Y-68845548D01*
X110628242Y-69336217D01*
X111003783Y-69711758D01*
X111494452Y-69915000D01*
X112025548Y-69915000D01*
X112516217Y-69711758D01*
X112891758Y-69336217D01*
X113095000Y-68845548D01*
X113095000Y-68314452D01*
X119315000Y-68314452D01*
X119315000Y-68845548D01*
X119518242Y-69336217D01*
X119893783Y-69711758D01*
X120384452Y-69915000D01*
X120915548Y-69915000D01*
X121406217Y-69711758D01*
X121781758Y-69336217D01*
X121985000Y-68845548D01*
X121985000Y-68580000D01*
X126908846Y-68580000D01*
X127012458Y-69100891D01*
X127307519Y-69542481D01*
X127749109Y-69837542D01*
X128138515Y-69915000D01*
X128401485Y-69915000D01*
X128790891Y-69837542D01*
X129232481Y-69542481D01*
X129527542Y-69100891D01*
X129631154Y-68580000D01*
X129578334Y-68314452D01*
X139635000Y-68314452D01*
X139635000Y-68845548D01*
X139838242Y-69336217D01*
X140213783Y-69711758D01*
X140704452Y-69915000D01*
X141235548Y-69915000D01*
X141726217Y-69711758D01*
X142101758Y-69336217D01*
X142305000Y-68845548D01*
X142305000Y-68580000D01*
X145958846Y-68580000D01*
X146062458Y-69100891D01*
X146357519Y-69542481D01*
X146799109Y-69837542D01*
X147188515Y-69915000D01*
X147451485Y-69915000D01*
X147840891Y-69837542D01*
X148282481Y-69542481D01*
X148577542Y-69100891D01*
X148681154Y-68580000D01*
X148628334Y-68314452D01*
X158685000Y-68314452D01*
X158685000Y-68845548D01*
X158888242Y-69336217D01*
X159263783Y-69711758D01*
X159754452Y-69915000D01*
X160285548Y-69915000D01*
X160776217Y-69711758D01*
X161151758Y-69336217D01*
X161355000Y-68845548D01*
X161355000Y-68314452D01*
X161151758Y-67823783D01*
X160776217Y-67448242D01*
X160285548Y-67245000D01*
X159754452Y-67245000D01*
X159263783Y-67448242D01*
X158888242Y-67823783D01*
X158685000Y-68314452D01*
X148628334Y-68314452D01*
X148577542Y-68059109D01*
X148282481Y-67617519D01*
X147840891Y-67322458D01*
X147451485Y-67245000D01*
X147188515Y-67245000D01*
X146799109Y-67322458D01*
X146357519Y-67617519D01*
X146062458Y-68059109D01*
X145958846Y-68580000D01*
X142305000Y-68580000D01*
X142305000Y-68314452D01*
X142101758Y-67823783D01*
X141726217Y-67448242D01*
X141235548Y-67245000D01*
X140704452Y-67245000D01*
X140213783Y-67448242D01*
X139838242Y-67823783D01*
X139635000Y-68314452D01*
X129578334Y-68314452D01*
X129527542Y-68059109D01*
X129232481Y-67617519D01*
X128790891Y-67322458D01*
X128401485Y-67245000D01*
X128138515Y-67245000D01*
X127749109Y-67322458D01*
X127307519Y-67617519D01*
X127012458Y-68059109D01*
X126908846Y-68580000D01*
X121985000Y-68580000D01*
X121985000Y-68314452D01*
X121781758Y-67823783D01*
X121406217Y-67448242D01*
X120915548Y-67245000D01*
X120384452Y-67245000D01*
X119893783Y-67448242D01*
X119518242Y-67823783D01*
X119315000Y-68314452D01*
X113095000Y-68314452D01*
X112891758Y-67823783D01*
X112516217Y-67448242D01*
X112025548Y-67245000D01*
X111494452Y-67245000D01*
X111003783Y-67448242D01*
X110628242Y-67823783D01*
X110425000Y-68314452D01*
X108015000Y-68314452D01*
X107811758Y-67823783D01*
X107436217Y-67448242D01*
X106945548Y-67245000D01*
X106414452Y-67245000D01*
X105923783Y-67448242D01*
X105548242Y-67823783D01*
X105345000Y-68314452D01*
X100395000Y-68314452D01*
X100191758Y-67823783D01*
X99816217Y-67448242D01*
X99325548Y-67245000D01*
X98794452Y-67245000D01*
X98303783Y-67448242D01*
X97928242Y-67823783D01*
X97725000Y-68314452D01*
X90208334Y-68314452D01*
X90157542Y-68059109D01*
X89862481Y-67617519D01*
X89420891Y-67322458D01*
X89031485Y-67245000D01*
X88768515Y-67245000D01*
X88379109Y-67322458D01*
X87937519Y-67617519D01*
X87642458Y-68059109D01*
X87538846Y-68580000D01*
X84530000Y-68580000D01*
X84530000Y-63234452D01*
X87565000Y-63234452D01*
X87565000Y-63765548D01*
X87768242Y-64256217D01*
X88143783Y-64631758D01*
X88634452Y-64835000D01*
X89165548Y-64835000D01*
X89656217Y-64631758D01*
X90031758Y-64256217D01*
X90235000Y-63765548D01*
X90235000Y-63334561D01*
X92545000Y-63334561D01*
X92545000Y-63905439D01*
X92763466Y-64432862D01*
X93167138Y-64836534D01*
X93694561Y-65055000D01*
X94265439Y-65055000D01*
X94792862Y-64836534D01*
X95196534Y-64432862D01*
X95415000Y-63905439D01*
X95415000Y-63500000D01*
X97698846Y-63500000D01*
X97802458Y-64020891D01*
X98097519Y-64462481D01*
X98539109Y-64757542D01*
X98928515Y-64835000D01*
X99191485Y-64835000D01*
X99580891Y-64757542D01*
X100022481Y-64462481D01*
X100317542Y-64020891D01*
X100421154Y-63500000D01*
X105318846Y-63500000D01*
X105422458Y-64020891D01*
X105717519Y-64462481D01*
X106159109Y-64757542D01*
X106548515Y-64835000D01*
X106811485Y-64835000D01*
X107200891Y-64757542D01*
X107642481Y-64462481D01*
X107937542Y-64020891D01*
X108041154Y-63500000D01*
X110398846Y-63500000D01*
X110502458Y-64020891D01*
X110797519Y-64462481D01*
X111239109Y-64757542D01*
X111628515Y-64835000D01*
X111891485Y-64835000D01*
X112280891Y-64757542D01*
X112722481Y-64462481D01*
X113017542Y-64020891D01*
X113121154Y-63500000D01*
X113064377Y-63214561D01*
X114135000Y-63214561D01*
X114135000Y-63785439D01*
X114353466Y-64312862D01*
X114757138Y-64716534D01*
X115284561Y-64935000D01*
X115855439Y-64935000D01*
X116382862Y-64716534D01*
X116786534Y-64312862D01*
X117005000Y-63785439D01*
X117005000Y-63500000D01*
X119288846Y-63500000D01*
X119392458Y-64020891D01*
X119687519Y-64462481D01*
X120129109Y-64757542D01*
X120518515Y-64835000D01*
X120781485Y-64835000D01*
X121170891Y-64757542D01*
X121612481Y-64462481D01*
X121907542Y-64020891D01*
X122011154Y-63500000D01*
X121958334Y-63234452D01*
X126935000Y-63234452D01*
X126935000Y-63765548D01*
X127138242Y-64256217D01*
X127513783Y-64631758D01*
X128004452Y-64835000D01*
X128535548Y-64835000D01*
X129026217Y-64631758D01*
X129401758Y-64256217D01*
X129605000Y-63765548D01*
X129605000Y-63234452D01*
X129596761Y-63214561D01*
X133185000Y-63214561D01*
X133185000Y-63785439D01*
X133403466Y-64312862D01*
X133807138Y-64716534D01*
X134334561Y-64935000D01*
X134905439Y-64935000D01*
X135432862Y-64716534D01*
X135836534Y-64312862D01*
X136055000Y-63785439D01*
X136055000Y-63500000D01*
X139608846Y-63500000D01*
X139712458Y-64020891D01*
X140007519Y-64462481D01*
X140449109Y-64757542D01*
X140838515Y-64835000D01*
X141101485Y-64835000D01*
X141490891Y-64757542D01*
X141932481Y-64462481D01*
X142227542Y-64020891D01*
X142331154Y-63500000D01*
X142278334Y-63234452D01*
X145985000Y-63234452D01*
X145985000Y-63765548D01*
X146188242Y-64256217D01*
X146563783Y-64631758D01*
X147054452Y-64835000D01*
X147585548Y-64835000D01*
X148076217Y-64631758D01*
X148451758Y-64256217D01*
X148655000Y-63765548D01*
X148655000Y-63234452D01*
X148646761Y-63214561D01*
X152235000Y-63214561D01*
X152235000Y-63785439D01*
X152453466Y-64312862D01*
X152857138Y-64716534D01*
X153384561Y-64935000D01*
X153955439Y-64935000D01*
X154482862Y-64716534D01*
X154886534Y-64312862D01*
X155105000Y-63785439D01*
X155105000Y-63500000D01*
X158658846Y-63500000D01*
X158762458Y-64020891D01*
X159057519Y-64462481D01*
X159499109Y-64757542D01*
X159888515Y-64835000D01*
X160151485Y-64835000D01*
X160540891Y-64757542D01*
X160982481Y-64462481D01*
X161277542Y-64020891D01*
X161381154Y-63500000D01*
X161277542Y-62979109D01*
X160982481Y-62537519D01*
X160540891Y-62242458D01*
X160151485Y-62165000D01*
X159888515Y-62165000D01*
X159499109Y-62242458D01*
X159057519Y-62537519D01*
X158762458Y-62979109D01*
X158658846Y-63500000D01*
X155105000Y-63500000D01*
X155105000Y-63214561D01*
X154886534Y-62687138D01*
X154482862Y-62283466D01*
X153955439Y-62065000D01*
X153384561Y-62065000D01*
X152857138Y-62283466D01*
X152453466Y-62687138D01*
X152235000Y-63214561D01*
X148646761Y-63214561D01*
X148451758Y-62743783D01*
X148076217Y-62368242D01*
X147585548Y-62165000D01*
X147054452Y-62165000D01*
X146563783Y-62368242D01*
X146188242Y-62743783D01*
X145985000Y-63234452D01*
X142278334Y-63234452D01*
X142227542Y-62979109D01*
X141932481Y-62537519D01*
X141490891Y-62242458D01*
X141101485Y-62165000D01*
X140838515Y-62165000D01*
X140449109Y-62242458D01*
X140007519Y-62537519D01*
X139712458Y-62979109D01*
X139608846Y-63500000D01*
X136055000Y-63500000D01*
X136055000Y-63214561D01*
X135836534Y-62687138D01*
X135432862Y-62283466D01*
X134905439Y-62065000D01*
X134334561Y-62065000D01*
X133807138Y-62283466D01*
X133403466Y-62687138D01*
X133185000Y-63214561D01*
X129596761Y-63214561D01*
X129401758Y-62743783D01*
X129026217Y-62368242D01*
X128535548Y-62165000D01*
X128004452Y-62165000D01*
X127513783Y-62368242D01*
X127138242Y-62743783D01*
X126935000Y-63234452D01*
X121958334Y-63234452D01*
X121907542Y-62979109D01*
X121612481Y-62537519D01*
X121170891Y-62242458D01*
X120781485Y-62165000D01*
X120518515Y-62165000D01*
X120129109Y-62242458D01*
X119687519Y-62537519D01*
X119392458Y-62979109D01*
X119288846Y-63500000D01*
X117005000Y-63500000D01*
X117005000Y-63214561D01*
X116786534Y-62687138D01*
X116382862Y-62283466D01*
X115855439Y-62065000D01*
X115284561Y-62065000D01*
X114757138Y-62283466D01*
X114353466Y-62687138D01*
X114135000Y-63214561D01*
X113064377Y-63214561D01*
X113017542Y-62979109D01*
X112722481Y-62537519D01*
X112280891Y-62242458D01*
X111891485Y-62165000D01*
X111628515Y-62165000D01*
X111239109Y-62242458D01*
X110797519Y-62537519D01*
X110502458Y-62979109D01*
X110398846Y-63500000D01*
X108041154Y-63500000D01*
X107937542Y-62979109D01*
X107642481Y-62537519D01*
X107200891Y-62242458D01*
X106811485Y-62165000D01*
X106548515Y-62165000D01*
X106159109Y-62242458D01*
X105717519Y-62537519D01*
X105422458Y-62979109D01*
X105318846Y-63500000D01*
X100421154Y-63500000D01*
X100317542Y-62979109D01*
X100022481Y-62537519D01*
X99580891Y-62242458D01*
X99191485Y-62165000D01*
X98928515Y-62165000D01*
X98539109Y-62242458D01*
X98097519Y-62537519D01*
X97802458Y-62979109D01*
X97698846Y-63500000D01*
X95415000Y-63500000D01*
X95415000Y-63334561D01*
X95196534Y-62807138D01*
X94792862Y-62403466D01*
X94265439Y-62185000D01*
X93694561Y-62185000D01*
X93167138Y-62403466D01*
X92763466Y-62807138D01*
X92545000Y-63334561D01*
X90235000Y-63334561D01*
X90235000Y-63234452D01*
X90031758Y-62743783D01*
X89656217Y-62368242D01*
X89165548Y-62165000D01*
X88634452Y-62165000D01*
X88143783Y-62368242D01*
X87768242Y-62743783D01*
X87565000Y-63234452D01*
X84530000Y-63234452D01*
X84530000Y-58420000D01*
X88826887Y-58420000D01*
X88938260Y-58979909D01*
X89255423Y-59454577D01*
X89730091Y-59771740D01*
X90148667Y-59855000D01*
X90431333Y-59855000D01*
X90849909Y-59771740D01*
X91324577Y-59454577D01*
X91641740Y-58979909D01*
X91753113Y-58420000D01*
X91696336Y-58134561D01*
X96355000Y-58134561D01*
X96355000Y-58705439D01*
X96573466Y-59232862D01*
X96977138Y-59636534D01*
X97504561Y-59855000D01*
X98075439Y-59855000D01*
X98602862Y-59636534D01*
X99006534Y-59232862D01*
X99225000Y-58705439D01*
X99225000Y-58154452D01*
X105345000Y-58154452D01*
X105345000Y-58685548D01*
X105548242Y-59176217D01*
X105923783Y-59551758D01*
X106414452Y-59755000D01*
X106945548Y-59755000D01*
X107436217Y-59551758D01*
X107811758Y-59176217D01*
X108015000Y-58685548D01*
X108015000Y-58420000D01*
X110416887Y-58420000D01*
X110528260Y-58979909D01*
X110845423Y-59454577D01*
X111320091Y-59771740D01*
X111738667Y-59855000D01*
X112021333Y-59855000D01*
X112439909Y-59771740D01*
X112914577Y-59454577D01*
X113231740Y-58979909D01*
X113343113Y-58420000D01*
X113286336Y-58134561D01*
X117945000Y-58134561D01*
X117945000Y-58705439D01*
X118163466Y-59232862D01*
X118567138Y-59636534D01*
X119094561Y-59855000D01*
X119665439Y-59855000D01*
X120192862Y-59636534D01*
X120596534Y-59232862D01*
X120815000Y-58705439D01*
X120815000Y-58154452D01*
X121855000Y-58154452D01*
X121855000Y-58685548D01*
X122058242Y-59176217D01*
X122433783Y-59551758D01*
X122924452Y-59755000D01*
X123455548Y-59755000D01*
X123946217Y-59551758D01*
X124321758Y-59176217D01*
X124525000Y-58685548D01*
X124525000Y-58420000D01*
X129346887Y-58420000D01*
X129458260Y-58979909D01*
X129775423Y-59454577D01*
X130250091Y-59771740D01*
X130668667Y-59855000D01*
X130951333Y-59855000D01*
X131369909Y-59771740D01*
X131844577Y-59454577D01*
X132161740Y-58979909D01*
X132273113Y-58420000D01*
X132216336Y-58134561D01*
X136875000Y-58134561D01*
X136875000Y-58705439D01*
X137093466Y-59232862D01*
X137497138Y-59636534D01*
X138024561Y-59855000D01*
X138595439Y-59855000D01*
X139122862Y-59636534D01*
X139526534Y-59232862D01*
X139745000Y-58705439D01*
X139745000Y-58420000D01*
X148516887Y-58420000D01*
X148628260Y-58979909D01*
X148945423Y-59454577D01*
X149420091Y-59771740D01*
X149838667Y-59855000D01*
X150121333Y-59855000D01*
X150539909Y-59771740D01*
X151014577Y-59454577D01*
X151331740Y-58979909D01*
X151443113Y-58420000D01*
X151386336Y-58134561D01*
X156045000Y-58134561D01*
X156045000Y-58705439D01*
X156263466Y-59232862D01*
X156667138Y-59636534D01*
X157194561Y-59855000D01*
X157765439Y-59855000D01*
X158292862Y-59636534D01*
X158696534Y-59232862D01*
X158915000Y-58705439D01*
X158915000Y-58134561D01*
X158696534Y-57607138D01*
X158292862Y-57203466D01*
X157765439Y-56985000D01*
X157194561Y-56985000D01*
X156667138Y-57203466D01*
X156263466Y-57607138D01*
X156045000Y-58134561D01*
X151386336Y-58134561D01*
X151331740Y-57860091D01*
X151014577Y-57385423D01*
X150539909Y-57068260D01*
X150121333Y-56985000D01*
X149838667Y-56985000D01*
X149420091Y-57068260D01*
X148945423Y-57385423D01*
X148628260Y-57860091D01*
X148516887Y-58420000D01*
X139745000Y-58420000D01*
X139745000Y-58134561D01*
X139526534Y-57607138D01*
X139122862Y-57203466D01*
X138595439Y-56985000D01*
X138024561Y-56985000D01*
X137497138Y-57203466D01*
X137093466Y-57607138D01*
X136875000Y-58134561D01*
X132216336Y-58134561D01*
X132161740Y-57860091D01*
X131844577Y-57385423D01*
X131369909Y-57068260D01*
X130951333Y-56985000D01*
X130668667Y-56985000D01*
X130250091Y-57068260D01*
X129775423Y-57385423D01*
X129458260Y-57860091D01*
X129346887Y-58420000D01*
X124525000Y-58420000D01*
X124525000Y-58154452D01*
X124321758Y-57663783D01*
X123946217Y-57288242D01*
X123455548Y-57085000D01*
X122924452Y-57085000D01*
X122433783Y-57288242D01*
X122058242Y-57663783D01*
X121855000Y-58154452D01*
X120815000Y-58154452D01*
X120815000Y-58134561D01*
X120596534Y-57607138D01*
X120192862Y-57203466D01*
X119665439Y-56985000D01*
X119094561Y-56985000D01*
X118567138Y-57203466D01*
X118163466Y-57607138D01*
X117945000Y-58134561D01*
X113286336Y-58134561D01*
X113231740Y-57860091D01*
X112914577Y-57385423D01*
X112439909Y-57068260D01*
X112021333Y-56985000D01*
X111738667Y-56985000D01*
X111320091Y-57068260D01*
X110845423Y-57385423D01*
X110528260Y-57860091D01*
X110416887Y-58420000D01*
X108015000Y-58420000D01*
X108015000Y-58154452D01*
X107811758Y-57663783D01*
X107436217Y-57288242D01*
X106945548Y-57085000D01*
X106414452Y-57085000D01*
X105923783Y-57288242D01*
X105548242Y-57663783D01*
X105345000Y-58154452D01*
X99225000Y-58154452D01*
X99225000Y-58134561D01*
X99006534Y-57607138D01*
X98602862Y-57203466D01*
X98075439Y-56985000D01*
X97504561Y-56985000D01*
X96977138Y-57203466D01*
X96573466Y-57607138D01*
X96355000Y-58134561D01*
X91696336Y-58134561D01*
X91641740Y-57860091D01*
X91324577Y-57385423D01*
X90849909Y-57068260D01*
X90431333Y-56985000D01*
X90148667Y-56985000D01*
X89730091Y-57068260D01*
X89255423Y-57385423D01*
X88938260Y-57860091D01*
X88826887Y-58420000D01*
X84530000Y-58420000D01*
X84530000Y-53340000D01*
X105318846Y-53340000D01*
X105422458Y-53860891D01*
X105717519Y-54302481D01*
X106159109Y-54597542D01*
X106548515Y-54675000D01*
X106811485Y-54675000D01*
X107200891Y-54597542D01*
X107642481Y-54302481D01*
X107937542Y-53860891D01*
X108041154Y-53340000D01*
X121828846Y-53340000D01*
X121932458Y-53860891D01*
X122227519Y-54302481D01*
X122669109Y-54597542D01*
X123058515Y-54675000D01*
X123321485Y-54675000D01*
X123710891Y-54597542D01*
X124152481Y-54302481D01*
X124447542Y-53860891D01*
X124551154Y-53340000D01*
X124447542Y-52819109D01*
X124152481Y-52377519D01*
X123710891Y-52082458D01*
X123321485Y-52005000D01*
X123058515Y-52005000D01*
X122669109Y-52082458D01*
X122227519Y-52377519D01*
X121932458Y-52819109D01*
X121828846Y-53340000D01*
X108041154Y-53340000D01*
X107937542Y-52819109D01*
X107642481Y-52377519D01*
X107200891Y-52082458D01*
X106811485Y-52005000D01*
X106548515Y-52005000D01*
X106159109Y-52082458D01*
X105717519Y-52377519D01*
X105422458Y-52819109D01*
X105318846Y-53340000D01*
X84530000Y-53340000D01*
X84530000Y-50454887D01*
X84625000Y-50454887D01*
X84625000Y-51145113D01*
X84889138Y-51782799D01*
X85377201Y-52270862D01*
X86014887Y-52535000D01*
X86705113Y-52535000D01*
X87342799Y-52270862D01*
X87830862Y-51782799D01*
X88095000Y-51145113D01*
X88095000Y-50474778D01*
X89805000Y-50474778D01*
X89805000Y-51125222D01*
X90053914Y-51726153D01*
X90513847Y-52186086D01*
X91114778Y-52435000D01*
X91765222Y-52435000D01*
X92366153Y-52186086D01*
X92710000Y-51842239D01*
X93053847Y-52186086D01*
X93654778Y-52435000D01*
X94305222Y-52435000D01*
X94906153Y-52186086D01*
X95250000Y-51842239D01*
X95593847Y-52186086D01*
X96194778Y-52435000D01*
X96845222Y-52435000D01*
X97446153Y-52186086D01*
X97906086Y-51726153D01*
X98155000Y-51125222D01*
X98155000Y-50474778D01*
X111395000Y-50474778D01*
X111395000Y-51125222D01*
X111643914Y-51726153D01*
X112103847Y-52186086D01*
X112704778Y-52435000D01*
X113355222Y-52435000D01*
X113956153Y-52186086D01*
X114300000Y-51842239D01*
X114643847Y-52186086D01*
X115244778Y-52435000D01*
X115895222Y-52435000D01*
X116496153Y-52186086D01*
X116840000Y-51842239D01*
X117183847Y-52186086D01*
X117784778Y-52435000D01*
X118435222Y-52435000D01*
X119036153Y-52186086D01*
X119496086Y-51726153D01*
X119745000Y-51125222D01*
X119745000Y-50474778D01*
X130445000Y-50474778D01*
X130445000Y-51125222D01*
X130693914Y-51726153D01*
X131153847Y-52186086D01*
X131754778Y-52435000D01*
X132405222Y-52435000D01*
X133006153Y-52186086D01*
X133350000Y-51842239D01*
X133693847Y-52186086D01*
X134294778Y-52435000D01*
X134945222Y-52435000D01*
X135546153Y-52186086D01*
X135890000Y-51842239D01*
X136233847Y-52186086D01*
X136834778Y-52435000D01*
X137485222Y-52435000D01*
X138086153Y-52186086D01*
X138546086Y-51726153D01*
X138795000Y-51125222D01*
X138795000Y-50474778D01*
X149495000Y-50474778D01*
X149495000Y-51125222D01*
X149743914Y-51726153D01*
X150203847Y-52186086D01*
X150804778Y-52435000D01*
X151455222Y-52435000D01*
X152056153Y-52186086D01*
X152400000Y-51842239D01*
X152743847Y-52186086D01*
X153344778Y-52435000D01*
X153995222Y-52435000D01*
X154596153Y-52186086D01*
X154940000Y-51842239D01*
X155283847Y-52186086D01*
X155884778Y-52435000D01*
X156535222Y-52435000D01*
X157136153Y-52186086D01*
X157596086Y-51726153D01*
X157845000Y-51125222D01*
X157845000Y-50474778D01*
X157836761Y-50454887D01*
X159555000Y-50454887D01*
X159555000Y-51145113D01*
X159819138Y-51782799D01*
X160307201Y-52270862D01*
X160944887Y-52535000D01*
X161635113Y-52535000D01*
X162272799Y-52270862D01*
X162760862Y-51782799D01*
X163025000Y-51145113D01*
X163025000Y-50454887D01*
X162760862Y-49817201D01*
X162272799Y-49329138D01*
X161635113Y-49065000D01*
X160944887Y-49065000D01*
X160307201Y-49329138D01*
X159819138Y-49817201D01*
X159555000Y-50454887D01*
X157836761Y-50454887D01*
X157596086Y-49873847D01*
X157136153Y-49413914D01*
X156535222Y-49165000D01*
X155884778Y-49165000D01*
X155283847Y-49413914D01*
X154940000Y-49757761D01*
X154596153Y-49413914D01*
X153995222Y-49165000D01*
X153344778Y-49165000D01*
X152743847Y-49413914D01*
X152400000Y-49757761D01*
X152056153Y-49413914D01*
X151455222Y-49165000D01*
X150804778Y-49165000D01*
X150203847Y-49413914D01*
X149743914Y-49873847D01*
X149495000Y-50474778D01*
X138795000Y-50474778D01*
X138546086Y-49873847D01*
X138086153Y-49413914D01*
X137485222Y-49165000D01*
X136834778Y-49165000D01*
X136233847Y-49413914D01*
X135890000Y-49757761D01*
X135546153Y-49413914D01*
X134945222Y-49165000D01*
X134294778Y-49165000D01*
X133693847Y-49413914D01*
X133350000Y-49757761D01*
X133006153Y-49413914D01*
X132405222Y-49165000D01*
X131754778Y-49165000D01*
X131153847Y-49413914D01*
X130693914Y-49873847D01*
X130445000Y-50474778D01*
X119745000Y-50474778D01*
X119496086Y-49873847D01*
X119036153Y-49413914D01*
X118435222Y-49165000D01*
X117784778Y-49165000D01*
X117183847Y-49413914D01*
X116840000Y-49757761D01*
X116496153Y-49413914D01*
X115895222Y-49165000D01*
X115244778Y-49165000D01*
X114643847Y-49413914D01*
X114300000Y-49757761D01*
X113956153Y-49413914D01*
X113355222Y-49165000D01*
X112704778Y-49165000D01*
X112103847Y-49413914D01*
X111643914Y-49873847D01*
X111395000Y-50474778D01*
X98155000Y-50474778D01*
X97906086Y-49873847D01*
X97446153Y-49413914D01*
X96845222Y-49165000D01*
X96194778Y-49165000D01*
X95593847Y-49413914D01*
X95250000Y-49757761D01*
X94906153Y-49413914D01*
X94305222Y-49165000D01*
X93654778Y-49165000D01*
X93053847Y-49413914D01*
X92710000Y-49757761D01*
X92366153Y-49413914D01*
X91765222Y-49165000D01*
X91114778Y-49165000D01*
X90513847Y-49413914D01*
X90053914Y-49873847D01*
X89805000Y-50474778D01*
X88095000Y-50474778D01*
X88095000Y-50454887D01*
X87830862Y-49817201D01*
X87342799Y-49329138D01*
X86705113Y-49065000D01*
X86014887Y-49065000D01*
X85377201Y-49329138D01*
X84889138Y-49817201D01*
X84625000Y-50454887D01*
X84530000Y-50454887D01*
X84530000Y-48970000D01*
X163120000Y-48970000D01*
X163120001Y-79632560D01*
G04 #@! TD*
M02*
