G04 #@! TF.GenerationSoftware,KiCad,Pcbnew,(5.1.0-0)*
G04 #@! TF.CreationDate,2019-04-02T13:27:10-07:00*
G04 #@! TF.ProjectId,Pre-amp,5072652d-616d-4702-9e6b-696361645f70,rev?*
G04 #@! TF.SameCoordinates,Original*
G04 #@! TF.FileFunction,Other,Fab,Top*
%FSLAX46Y46*%
G04 Gerber Fmt 4.6, Leading zero omitted, Abs format (unit mm)*
G04 Created by KiCad (PCBNEW (5.1.0-0)) date 2019-04-02 13:27:10*
%MOMM*%
%LPD*%
G04 APERTURE LIST*
%ADD10C,0.100000*%
%ADD11C,0.114000*%
%ADD12C,0.120000*%
%ADD13C,0.150000*%
G04 APERTURE END LIST*
D10*
X64740000Y-93360000D02*
X67340000Y-93360000D01*
X67340000Y-93360000D02*
X67340000Y-89560000D01*
X67340000Y-89560000D02*
X64740000Y-89560000D01*
X64740000Y-89560000D02*
X64740000Y-93360000D01*
X57120000Y-93360000D02*
X59720000Y-93360000D01*
X59720000Y-93360000D02*
X59720000Y-89560000D01*
X59720000Y-89560000D02*
X57120000Y-89560000D01*
X57120000Y-89560000D02*
X57120000Y-93360000D01*
X68040000Y-74180000D02*
G75*
G03X68040000Y-74180000I-2000000J0D01*
G01*
X66907500Y-72477446D02*
X66907500Y-72877446D01*
X67107500Y-72677446D02*
X66707500Y-72677446D01*
X57120000Y-53990000D02*
X59720000Y-53990000D01*
X59720000Y-53990000D02*
X59720000Y-50190000D01*
X59720000Y-50190000D02*
X57120000Y-50190000D01*
X57120000Y-50190000D02*
X57120000Y-53990000D01*
X64740000Y-65390000D02*
X64740000Y-69190000D01*
X67340000Y-65390000D02*
X64740000Y-65390000D01*
X67340000Y-69190000D02*
X67340000Y-65390000D01*
X64740000Y-69190000D02*
X67340000Y-69190000D01*
X60930000Y-50190000D02*
X60930000Y-53990000D01*
X63530000Y-50190000D02*
X60930000Y-50190000D01*
X63530000Y-53990000D02*
X63530000Y-50190000D01*
X60930000Y-53990000D02*
X63530000Y-53990000D01*
X92090000Y-58450000D02*
X92090000Y-55850000D01*
X92090000Y-55850000D02*
X88290000Y-55850000D01*
X88290000Y-55850000D02*
X88290000Y-58450000D01*
X88290000Y-58450000D02*
X92090000Y-58450000D01*
X82580000Y-53950000D02*
X82580000Y-50150000D01*
X79980000Y-53950000D02*
X82580000Y-53950000D01*
X79980000Y-50150000D02*
X79980000Y-53950000D01*
X82580000Y-50150000D02*
X79980000Y-50150000D01*
X109880000Y-58450000D02*
X113680000Y-58450000D01*
X109880000Y-55850000D02*
X109880000Y-58450000D01*
X113680000Y-55850000D02*
X109880000Y-55850000D01*
X113680000Y-58450000D02*
X113680000Y-55850000D01*
X104170000Y-57810000D02*
X101570000Y-57810000D01*
X101570000Y-57810000D02*
X101570000Y-61610000D01*
X101570000Y-61610000D02*
X104170000Y-61610000D01*
X104170000Y-61610000D02*
X104170000Y-57810000D01*
X134010000Y-58450000D02*
X137810000Y-58450000D01*
X134010000Y-55850000D02*
X134010000Y-58450000D01*
X137810000Y-55850000D02*
X134010000Y-55850000D01*
X137810000Y-58450000D02*
X137810000Y-55850000D01*
X124490000Y-50150000D02*
X121890000Y-50150000D01*
X121890000Y-50150000D02*
X121890000Y-53950000D01*
X121890000Y-53950000D02*
X124490000Y-53950000D01*
X124490000Y-53950000D02*
X124490000Y-50150000D01*
X155590000Y-58450000D02*
X155590000Y-55850000D01*
X155590000Y-55850000D02*
X151790000Y-55850000D01*
X151790000Y-55850000D02*
X151790000Y-58450000D01*
X151790000Y-58450000D02*
X155590000Y-58450000D01*
X144810000Y-53950000D02*
X144810000Y-50150000D01*
X142210000Y-53950000D02*
X144810000Y-53950000D01*
X142210000Y-50150000D02*
X142210000Y-53950000D01*
X144810000Y-50150000D02*
X142210000Y-50150000D01*
X114950000Y-94010000D02*
X114950000Y-91410000D01*
X114950000Y-91410000D02*
X111150000Y-91410000D01*
X111150000Y-91410000D02*
X111150000Y-94010000D01*
X111150000Y-94010000D02*
X114950000Y-94010000D01*
X137810000Y-91410000D02*
X134010000Y-91410000D01*
X137810000Y-94010000D02*
X137810000Y-91410000D01*
X134010000Y-94010000D02*
X137810000Y-94010000D01*
X134010000Y-91410000D02*
X134010000Y-94010000D01*
X72660000Y-96750000D02*
X74660000Y-96750000D01*
X72660000Y-96550000D02*
X74660000Y-96550000D01*
X72660000Y-96650000D02*
X74660000Y-96650000D01*
X73660000Y-91440000D02*
X73660000Y-93250000D01*
X73660000Y-99060000D02*
X73660000Y-97250000D01*
X72660000Y-93250000D02*
X72660000Y-97250000D01*
X74660000Y-93250000D02*
X72660000Y-93250000D01*
X74660000Y-97250000D02*
X74660000Y-93250000D01*
X72660000Y-97250000D02*
X74660000Y-97250000D01*
X60730000Y-96790000D02*
X60730000Y-98790000D01*
X60930000Y-96790000D02*
X60930000Y-98790000D01*
X60830000Y-96790000D02*
X60830000Y-98790000D01*
X66040000Y-97790000D02*
X64230000Y-97790000D01*
X58420000Y-97790000D02*
X60230000Y-97790000D01*
X64230000Y-96790000D02*
X60230000Y-96790000D01*
X64230000Y-98790000D02*
X64230000Y-96790000D01*
X60230000Y-98790000D02*
X64230000Y-98790000D01*
X60230000Y-96790000D02*
X60230000Y-98790000D01*
X162290000Y-86900000D02*
X160290000Y-86900000D01*
X160290000Y-86900000D02*
X160290000Y-90900000D01*
X160290000Y-90900000D02*
X162290000Y-90900000D01*
X162290000Y-90900000D02*
X162290000Y-86900000D01*
X161290000Y-85090000D02*
X161290000Y-86900000D01*
X161290000Y-92710000D02*
X161290000Y-90900000D01*
X162290000Y-87500000D02*
X160290000Y-87500000D01*
X162290000Y-87600000D02*
X160290000Y-87600000D01*
X162290000Y-87400000D02*
X160290000Y-87400000D01*
X162290000Y-75470000D02*
X160290000Y-75470000D01*
X160290000Y-75470000D02*
X160290000Y-79470000D01*
X160290000Y-79470000D02*
X162290000Y-79470000D01*
X162290000Y-79470000D02*
X162290000Y-75470000D01*
X161290000Y-73660000D02*
X161290000Y-75470000D01*
X161290000Y-81280000D02*
X161290000Y-79470000D01*
X162290000Y-76070000D02*
X160290000Y-76070000D01*
X162290000Y-76170000D02*
X160290000Y-76170000D01*
X162290000Y-75970000D02*
X160290000Y-75970000D01*
X52340000Y-85670000D02*
X52840000Y-85170000D01*
X52340000Y-91170000D02*
X52340000Y-85670000D01*
X54340000Y-91170000D02*
X52340000Y-91170000D01*
X54340000Y-85170000D02*
X54340000Y-91170000D01*
X52840000Y-85170000D02*
X54340000Y-85170000D01*
X101330000Y-98560000D02*
X101330000Y-100060000D01*
X101330000Y-100060000D02*
X95330000Y-100060000D01*
X95330000Y-100060000D02*
X95330000Y-98060000D01*
X95330000Y-98060000D02*
X100830000Y-98060000D01*
X100830000Y-98060000D02*
X101330000Y-98560000D01*
X114030000Y-98560000D02*
X114030000Y-100060000D01*
X114030000Y-100060000D02*
X108030000Y-100060000D01*
X108030000Y-100060000D02*
X108030000Y-98060000D01*
X108030000Y-98060000D02*
X113530000Y-98060000D01*
X113530000Y-98060000D02*
X114030000Y-98560000D01*
X125650000Y-98560000D02*
X125650000Y-100060000D01*
X125650000Y-100060000D02*
X119650000Y-100060000D01*
X119650000Y-100060000D02*
X119650000Y-98060000D01*
X119650000Y-98060000D02*
X125150000Y-98060000D01*
X125150000Y-98060000D02*
X125650000Y-98560000D01*
X136390000Y-98060000D02*
X136890000Y-98560000D01*
X130890000Y-98060000D02*
X136390000Y-98060000D01*
X130890000Y-100060000D02*
X130890000Y-98060000D01*
X136890000Y-100060000D02*
X130890000Y-100060000D01*
X136890000Y-98560000D02*
X136890000Y-100060000D01*
X57150000Y-86360000D02*
X57810000Y-86360000D01*
X64770000Y-86360000D02*
X64110000Y-86360000D01*
X57810000Y-87610000D02*
X64110000Y-87610000D01*
X57810000Y-85110000D02*
X57810000Y-87610000D01*
X64110000Y-85110000D02*
X57810000Y-85110000D01*
X64110000Y-87610000D02*
X64110000Y-85110000D01*
X60300000Y-81260000D02*
X60300000Y-78760000D01*
X60300000Y-78760000D02*
X54000000Y-78760000D01*
X54000000Y-78760000D02*
X54000000Y-81260000D01*
X54000000Y-81260000D02*
X60300000Y-81260000D01*
X60960000Y-80010000D02*
X60300000Y-80010000D01*
X53340000Y-80010000D02*
X54000000Y-80010000D01*
X85110000Y-98400000D02*
X87610000Y-98400000D01*
X87610000Y-98400000D02*
X87610000Y-92100000D01*
X87610000Y-92100000D02*
X85110000Y-92100000D01*
X85110000Y-92100000D02*
X85110000Y-98400000D01*
X86360000Y-99060000D02*
X86360000Y-98400000D01*
X86360000Y-91440000D02*
X86360000Y-92100000D01*
X78760000Y-98400000D02*
X81260000Y-98400000D01*
X81260000Y-98400000D02*
X81260000Y-92100000D01*
X81260000Y-92100000D02*
X78760000Y-92100000D01*
X78760000Y-92100000D02*
X78760000Y-98400000D01*
X80010000Y-99060000D02*
X80010000Y-98400000D01*
X80010000Y-91440000D02*
X80010000Y-92100000D01*
X68580000Y-78740000D02*
X68580000Y-79400000D01*
X68580000Y-86360000D02*
X68580000Y-85700000D01*
X67330000Y-79400000D02*
X67330000Y-85700000D01*
X69830000Y-79400000D02*
X67330000Y-79400000D01*
X69830000Y-85700000D02*
X69830000Y-79400000D01*
X67330000Y-85700000D02*
X69830000Y-85700000D01*
X60960000Y-67310000D02*
X60300000Y-67310000D01*
X53340000Y-67310000D02*
X54000000Y-67310000D01*
X60300000Y-66060000D02*
X54000000Y-66060000D01*
X60300000Y-68560000D02*
X60300000Y-66060000D01*
X54000000Y-68560000D02*
X60300000Y-68560000D01*
X54000000Y-66060000D02*
X54000000Y-68560000D01*
X60960000Y-73660000D02*
X60300000Y-73660000D01*
X53340000Y-73660000D02*
X54000000Y-73660000D01*
X60300000Y-72410000D02*
X54000000Y-72410000D01*
X60300000Y-74910000D02*
X60300000Y-72410000D01*
X54000000Y-74910000D02*
X60300000Y-74910000D01*
X54000000Y-72410000D02*
X54000000Y-74910000D01*
X60960000Y-57150000D02*
X60300000Y-57150000D01*
X53340000Y-57150000D02*
X54000000Y-57150000D01*
X60300000Y-55900000D02*
X54000000Y-55900000D01*
X60300000Y-58400000D02*
X60300000Y-55900000D01*
X54000000Y-58400000D02*
X60300000Y-58400000D01*
X54000000Y-55900000D02*
X54000000Y-58400000D01*
X66700000Y-60980000D02*
X66700000Y-63480000D01*
X66700000Y-63480000D02*
X73000000Y-63480000D01*
X73000000Y-63480000D02*
X73000000Y-60980000D01*
X73000000Y-60980000D02*
X66700000Y-60980000D01*
X66040000Y-62230000D02*
X66700000Y-62230000D01*
X73660000Y-62230000D02*
X73000000Y-62230000D01*
X73000000Y-59670000D02*
X73000000Y-57170000D01*
X73000000Y-57170000D02*
X66700000Y-57170000D01*
X66700000Y-57170000D02*
X66700000Y-59670000D01*
X66700000Y-59670000D02*
X73000000Y-59670000D01*
X73660000Y-58420000D02*
X73000000Y-58420000D01*
X66040000Y-58420000D02*
X66700000Y-58420000D01*
X73050000Y-66060000D02*
X73050000Y-68560000D01*
X73050000Y-68560000D02*
X79350000Y-68560000D01*
X79350000Y-68560000D02*
X79350000Y-66060000D01*
X79350000Y-66060000D02*
X73050000Y-66060000D01*
X72390000Y-67310000D02*
X73050000Y-67310000D01*
X80010000Y-67310000D02*
X79350000Y-67310000D01*
X86360000Y-87630000D02*
X86360000Y-86970000D01*
X86360000Y-80010000D02*
X86360000Y-80670000D01*
X87610000Y-86970000D02*
X87610000Y-80670000D01*
X85110000Y-86970000D02*
X87610000Y-86970000D01*
X85110000Y-80670000D02*
X85110000Y-86970000D01*
X87610000Y-80670000D02*
X85110000Y-80670000D01*
X78130000Y-60980000D02*
X78130000Y-63480000D01*
X78130000Y-63480000D02*
X84430000Y-63480000D01*
X84430000Y-63480000D02*
X84430000Y-60980000D01*
X84430000Y-60980000D02*
X78130000Y-60980000D01*
X77470000Y-62230000D02*
X78130000Y-62230000D01*
X85090000Y-62230000D02*
X84430000Y-62230000D01*
X84430000Y-59670000D02*
X84430000Y-57170000D01*
X84430000Y-57170000D02*
X78130000Y-57170000D01*
X78130000Y-57170000D02*
X78130000Y-59670000D01*
X78130000Y-59670000D02*
X84430000Y-59670000D01*
X85090000Y-58420000D02*
X84430000Y-58420000D01*
X77470000Y-58420000D02*
X78130000Y-58420000D01*
X79350000Y-73640000D02*
X79350000Y-71140000D01*
X79350000Y-71140000D02*
X73050000Y-71140000D01*
X73050000Y-71140000D02*
X73050000Y-73640000D01*
X73050000Y-73640000D02*
X79350000Y-73640000D01*
X80010000Y-72390000D02*
X79350000Y-72390000D01*
X72390000Y-72390000D02*
X73050000Y-72390000D01*
X82550000Y-72390000D02*
X83210000Y-72390000D01*
X90170000Y-72390000D02*
X89510000Y-72390000D01*
X83210000Y-73640000D02*
X89510000Y-73640000D01*
X83210000Y-71140000D02*
X83210000Y-73640000D01*
X89510000Y-71140000D02*
X83210000Y-71140000D01*
X89510000Y-73640000D02*
X89510000Y-71140000D01*
X90170000Y-67310000D02*
X89510000Y-67310000D01*
X82550000Y-67310000D02*
X83210000Y-67310000D01*
X89510000Y-66060000D02*
X83210000Y-66060000D01*
X89510000Y-68560000D02*
X89510000Y-66060000D01*
X83210000Y-68560000D02*
X89510000Y-68560000D01*
X83210000Y-66060000D02*
X83210000Y-68560000D01*
X93980000Y-59690000D02*
X93980000Y-60350000D01*
X93980000Y-67310000D02*
X93980000Y-66650000D01*
X92730000Y-60350000D02*
X92730000Y-66650000D01*
X95230000Y-60350000D02*
X92730000Y-60350000D01*
X95230000Y-66650000D02*
X95230000Y-60350000D01*
X92730000Y-66650000D02*
X95230000Y-66650000D01*
X99060000Y-59690000D02*
X99060000Y-60350000D01*
X99060000Y-67310000D02*
X99060000Y-66650000D01*
X97810000Y-60350000D02*
X97810000Y-66650000D01*
X100310000Y-60350000D02*
X97810000Y-60350000D01*
X100310000Y-66650000D02*
X100310000Y-60350000D01*
X97810000Y-66650000D02*
X100310000Y-66650000D01*
X105430000Y-66650000D02*
X107930000Y-66650000D01*
X107930000Y-66650000D02*
X107930000Y-60350000D01*
X107930000Y-60350000D02*
X105430000Y-60350000D01*
X105430000Y-60350000D02*
X105430000Y-66650000D01*
X106680000Y-67310000D02*
X106680000Y-66650000D01*
X106680000Y-59690000D02*
X106680000Y-60350000D01*
X100940000Y-73640000D02*
X100940000Y-71140000D01*
X100940000Y-71140000D02*
X94640000Y-71140000D01*
X94640000Y-71140000D02*
X94640000Y-73640000D01*
X94640000Y-73640000D02*
X100940000Y-73640000D01*
X101600000Y-72390000D02*
X100940000Y-72390000D01*
X93980000Y-72390000D02*
X94640000Y-72390000D01*
X115570000Y-59690000D02*
X115570000Y-60350000D01*
X115570000Y-67310000D02*
X115570000Y-66650000D01*
X114320000Y-60350000D02*
X114320000Y-66650000D01*
X116820000Y-60350000D02*
X114320000Y-60350000D01*
X116820000Y-66650000D02*
X116820000Y-60350000D01*
X114320000Y-66650000D02*
X116820000Y-66650000D01*
X104140000Y-72390000D02*
X104800000Y-72390000D01*
X111760000Y-72390000D02*
X111100000Y-72390000D01*
X104800000Y-73640000D02*
X111100000Y-73640000D01*
X104800000Y-71140000D02*
X104800000Y-73640000D01*
X111100000Y-71140000D02*
X104800000Y-71140000D01*
X111100000Y-73640000D02*
X111100000Y-71140000D01*
X120670000Y-66650000D02*
X123170000Y-66650000D01*
X123170000Y-66650000D02*
X123170000Y-60350000D01*
X123170000Y-60350000D02*
X120670000Y-60350000D01*
X120670000Y-60350000D02*
X120670000Y-66650000D01*
X121920000Y-67310000D02*
X121920000Y-66650000D01*
X121920000Y-59690000D02*
X121920000Y-60350000D01*
X133330000Y-60350000D02*
X130830000Y-60350000D01*
X130830000Y-60350000D02*
X130830000Y-66650000D01*
X130830000Y-66650000D02*
X133330000Y-66650000D01*
X133330000Y-66650000D02*
X133330000Y-60350000D01*
X132080000Y-59690000D02*
X132080000Y-60350000D01*
X132080000Y-67310000D02*
X132080000Y-66650000D01*
X122530000Y-73640000D02*
X122530000Y-71140000D01*
X122530000Y-71140000D02*
X116230000Y-71140000D01*
X116230000Y-71140000D02*
X116230000Y-73640000D01*
X116230000Y-73640000D02*
X122530000Y-73640000D01*
X123190000Y-72390000D02*
X122530000Y-72390000D01*
X115570000Y-72390000D02*
X116230000Y-72390000D01*
X127000000Y-72390000D02*
X127660000Y-72390000D01*
X134620000Y-72390000D02*
X133960000Y-72390000D01*
X127660000Y-73640000D02*
X133960000Y-73640000D01*
X127660000Y-71140000D02*
X127660000Y-73640000D01*
X133960000Y-71140000D02*
X127660000Y-71140000D01*
X133960000Y-73640000D02*
X133960000Y-71140000D01*
X139700000Y-59690000D02*
X139700000Y-60350000D01*
X139700000Y-67310000D02*
X139700000Y-66650000D01*
X138450000Y-60350000D02*
X138450000Y-66650000D01*
X140950000Y-60350000D02*
X138450000Y-60350000D01*
X140950000Y-66650000D02*
X140950000Y-60350000D01*
X138450000Y-66650000D02*
X140950000Y-66650000D01*
X127000000Y-86360000D02*
X127000000Y-85700000D01*
X127000000Y-78740000D02*
X127000000Y-79400000D01*
X128250000Y-85700000D02*
X128250000Y-79400000D01*
X125750000Y-85700000D02*
X128250000Y-85700000D01*
X125750000Y-79400000D02*
X125750000Y-85700000D01*
X128250000Y-79400000D02*
X125750000Y-79400000D01*
X151110000Y-60350000D02*
X148610000Y-60350000D01*
X148610000Y-60350000D02*
X148610000Y-66650000D01*
X148610000Y-66650000D02*
X151110000Y-66650000D01*
X151110000Y-66650000D02*
X151110000Y-60350000D01*
X149860000Y-59690000D02*
X149860000Y-60350000D01*
X149860000Y-67310000D02*
X149860000Y-66650000D01*
X133350000Y-86360000D02*
X133350000Y-85700000D01*
X133350000Y-78740000D02*
X133350000Y-79400000D01*
X134600000Y-85700000D02*
X134600000Y-79400000D01*
X132100000Y-85700000D02*
X134600000Y-85700000D01*
X132100000Y-79400000D02*
X132100000Y-85700000D01*
X134600000Y-79400000D02*
X132100000Y-79400000D01*
X145390000Y-73640000D02*
X145390000Y-71140000D01*
X145390000Y-71140000D02*
X139090000Y-71140000D01*
X139090000Y-71140000D02*
X139090000Y-73640000D01*
X139090000Y-73640000D02*
X145390000Y-73640000D01*
X146050000Y-72390000D02*
X145390000Y-72390000D01*
X138430000Y-72390000D02*
X139090000Y-72390000D01*
X137180000Y-85700000D02*
X139680000Y-85700000D01*
X139680000Y-85700000D02*
X139680000Y-79400000D01*
X139680000Y-79400000D02*
X137180000Y-79400000D01*
X137180000Y-79400000D02*
X137180000Y-85700000D01*
X138430000Y-86360000D02*
X138430000Y-85700000D01*
X138430000Y-78740000D02*
X138430000Y-79400000D01*
X157480000Y-59690000D02*
X157480000Y-60350000D01*
X157480000Y-67310000D02*
X157480000Y-66650000D01*
X156230000Y-60350000D02*
X156230000Y-66650000D01*
X158730000Y-60350000D02*
X156230000Y-60350000D01*
X158730000Y-66650000D02*
X158730000Y-60350000D01*
X156230000Y-66650000D02*
X158730000Y-66650000D01*
X149860000Y-72390000D02*
X150520000Y-72390000D01*
X157480000Y-72390000D02*
X156820000Y-72390000D01*
X150520000Y-73640000D02*
X156820000Y-73640000D01*
X150520000Y-71140000D02*
X150520000Y-73640000D01*
X156820000Y-71140000D02*
X150520000Y-71140000D01*
X156820000Y-73640000D02*
X156820000Y-71140000D01*
X153010000Y-95230000D02*
X153010000Y-92730000D01*
X153010000Y-92730000D02*
X146710000Y-92730000D01*
X146710000Y-92730000D02*
X146710000Y-95230000D01*
X146710000Y-95230000D02*
X153010000Y-95230000D01*
X153670000Y-93980000D02*
X153010000Y-93980000D01*
X146050000Y-93980000D02*
X146710000Y-93980000D01*
X153670000Y-99060000D02*
X153010000Y-99060000D01*
X146050000Y-99060000D02*
X146710000Y-99060000D01*
X153010000Y-97810000D02*
X146710000Y-97810000D01*
X153010000Y-100310000D02*
X153010000Y-97810000D01*
X146710000Y-100310000D02*
X153010000Y-100310000D01*
X146710000Y-97810000D02*
X146710000Y-100310000D01*
X126340000Y-93960000D02*
X126340000Y-91460000D01*
X126340000Y-91460000D02*
X120040000Y-91460000D01*
X120040000Y-91460000D02*
X120040000Y-93960000D01*
X120040000Y-93960000D02*
X126340000Y-93960000D01*
X127000000Y-92710000D02*
X126340000Y-92710000D01*
X119380000Y-92710000D02*
X120040000Y-92710000D01*
X101600000Y-92710000D02*
X100940000Y-92710000D01*
X93980000Y-92710000D02*
X94640000Y-92710000D01*
X100940000Y-91460000D02*
X94640000Y-91460000D01*
X100940000Y-93960000D02*
X100940000Y-91460000D01*
X94640000Y-93960000D02*
X100940000Y-93960000D01*
X94640000Y-91460000D02*
X94640000Y-93960000D01*
X74295000Y-78470000D02*
X75295000Y-77470000D01*
X74295000Y-87630000D02*
X74295000Y-78470000D01*
X80645000Y-87630000D02*
X74295000Y-87630000D01*
X80645000Y-77470000D02*
X80645000Y-87630000D01*
X75295000Y-77470000D02*
X80645000Y-77470000D01*
X95615000Y-77470000D02*
X100965000Y-77470000D01*
X100965000Y-77470000D02*
X100965000Y-87630000D01*
X100965000Y-87630000D02*
X94615000Y-87630000D01*
X94615000Y-87630000D02*
X94615000Y-78470000D01*
X94615000Y-78470000D02*
X95615000Y-77470000D01*
X112395000Y-78470000D02*
X113395000Y-77470000D01*
X112395000Y-87630000D02*
X112395000Y-78470000D01*
X118745000Y-87630000D02*
X112395000Y-87630000D01*
X118745000Y-77470000D02*
X118745000Y-87630000D01*
X113395000Y-77470000D02*
X118745000Y-77470000D01*
X146415000Y-77470000D02*
X151765000Y-77470000D01*
X151765000Y-77470000D02*
X151765000Y-87630000D01*
X151765000Y-87630000D02*
X145415000Y-87630000D01*
X145415000Y-87630000D02*
X145415000Y-78470000D01*
X145415000Y-78470000D02*
X146415000Y-77470000D01*
X60300000Y-63480000D02*
X60300000Y-60980000D01*
X60300000Y-60980000D02*
X54000000Y-60980000D01*
X54000000Y-60980000D02*
X54000000Y-63480000D01*
X54000000Y-63480000D02*
X60300000Y-63480000D01*
X60960000Y-62230000D02*
X60300000Y-62230000D01*
X53340000Y-62230000D02*
X54000000Y-62230000D01*
D11*
X66311428Y-91586666D02*
X66347619Y-91622857D01*
X66383809Y-91731428D01*
X66383809Y-91803809D01*
X66347619Y-91912380D01*
X66275238Y-91984761D01*
X66202857Y-92020952D01*
X66058095Y-92057142D01*
X65949523Y-92057142D01*
X65804761Y-92020952D01*
X65732380Y-91984761D01*
X65660000Y-91912380D01*
X65623809Y-91803809D01*
X65623809Y-91731428D01*
X65660000Y-91622857D01*
X65696190Y-91586666D01*
X66383809Y-90862857D02*
X66383809Y-91297142D01*
X66383809Y-91080000D02*
X65623809Y-91080000D01*
X65732380Y-91152380D01*
X65804761Y-91224761D01*
X65840952Y-91297142D01*
X58691428Y-91586666D02*
X58727619Y-91622857D01*
X58763809Y-91731428D01*
X58763809Y-91803809D01*
X58727619Y-91912380D01*
X58655238Y-91984761D01*
X58582857Y-92020952D01*
X58438095Y-92057142D01*
X58329523Y-92057142D01*
X58184761Y-92020952D01*
X58112380Y-91984761D01*
X58040000Y-91912380D01*
X58003809Y-91803809D01*
X58003809Y-91731428D01*
X58040000Y-91622857D01*
X58076190Y-91586666D01*
X58076190Y-91297142D02*
X58040000Y-91260952D01*
X58003809Y-91188571D01*
X58003809Y-91007619D01*
X58040000Y-90935238D01*
X58076190Y-90899047D01*
X58148571Y-90862857D01*
X58220952Y-90862857D01*
X58329523Y-90899047D01*
X58763809Y-91333333D01*
X58763809Y-90862857D01*
D12*
X66325714Y-74313333D02*
X66363809Y-74351428D01*
X66401904Y-74465714D01*
X66401904Y-74541904D01*
X66363809Y-74656190D01*
X66287619Y-74732380D01*
X66211428Y-74770476D01*
X66059047Y-74808571D01*
X65944761Y-74808571D01*
X65792380Y-74770476D01*
X65716190Y-74732380D01*
X65640000Y-74656190D01*
X65601904Y-74541904D01*
X65601904Y-74465714D01*
X65640000Y-74351428D01*
X65678095Y-74313333D01*
X65601904Y-74046666D02*
X65601904Y-73551428D01*
X65906666Y-73818095D01*
X65906666Y-73703809D01*
X65944761Y-73627619D01*
X65982857Y-73589523D01*
X66059047Y-73551428D01*
X66249523Y-73551428D01*
X66325714Y-73589523D01*
X66363809Y-73627619D01*
X66401904Y-73703809D01*
X66401904Y-73932380D01*
X66363809Y-74008571D01*
X66325714Y-74046666D01*
D11*
X58691428Y-52216666D02*
X58727619Y-52252857D01*
X58763809Y-52361428D01*
X58763809Y-52433809D01*
X58727619Y-52542380D01*
X58655238Y-52614761D01*
X58582857Y-52650952D01*
X58438095Y-52687142D01*
X58329523Y-52687142D01*
X58184761Y-52650952D01*
X58112380Y-52614761D01*
X58040000Y-52542380D01*
X58003809Y-52433809D01*
X58003809Y-52361428D01*
X58040000Y-52252857D01*
X58076190Y-52216666D01*
X58257142Y-51565238D02*
X58763809Y-51565238D01*
X57967619Y-51746190D02*
X58510476Y-51927142D01*
X58510476Y-51456666D01*
X66311428Y-67416666D02*
X66347619Y-67452857D01*
X66383809Y-67561428D01*
X66383809Y-67633809D01*
X66347619Y-67742380D01*
X66275238Y-67814761D01*
X66202857Y-67850952D01*
X66058095Y-67887142D01*
X65949523Y-67887142D01*
X65804761Y-67850952D01*
X65732380Y-67814761D01*
X65660000Y-67742380D01*
X65623809Y-67633809D01*
X65623809Y-67561428D01*
X65660000Y-67452857D01*
X65696190Y-67416666D01*
X65623809Y-66729047D02*
X65623809Y-67090952D01*
X65985714Y-67127142D01*
X65949523Y-67090952D01*
X65913333Y-67018571D01*
X65913333Y-66837619D01*
X65949523Y-66765238D01*
X65985714Y-66729047D01*
X66058095Y-66692857D01*
X66239047Y-66692857D01*
X66311428Y-66729047D01*
X66347619Y-66765238D01*
X66383809Y-66837619D01*
X66383809Y-67018571D01*
X66347619Y-67090952D01*
X66311428Y-67127142D01*
X62501428Y-52216666D02*
X62537619Y-52252857D01*
X62573809Y-52361428D01*
X62573809Y-52433809D01*
X62537619Y-52542380D01*
X62465238Y-52614761D01*
X62392857Y-52650952D01*
X62248095Y-52687142D01*
X62139523Y-52687142D01*
X61994761Y-52650952D01*
X61922380Y-52614761D01*
X61850000Y-52542380D01*
X61813809Y-52433809D01*
X61813809Y-52361428D01*
X61850000Y-52252857D01*
X61886190Y-52216666D01*
X61813809Y-51565238D02*
X61813809Y-51710000D01*
X61850000Y-51782380D01*
X61886190Y-51818571D01*
X61994761Y-51890952D01*
X62139523Y-51927142D01*
X62429047Y-51927142D01*
X62501428Y-51890952D01*
X62537619Y-51854761D01*
X62573809Y-51782380D01*
X62573809Y-51637619D01*
X62537619Y-51565238D01*
X62501428Y-51529047D01*
X62429047Y-51492857D01*
X62248095Y-51492857D01*
X62175714Y-51529047D01*
X62139523Y-51565238D01*
X62103333Y-51637619D01*
X62103333Y-51782380D01*
X62139523Y-51854761D01*
X62175714Y-51890952D01*
X62248095Y-51927142D01*
X90063333Y-57421428D02*
X90027142Y-57457619D01*
X89918571Y-57493809D01*
X89846190Y-57493809D01*
X89737619Y-57457619D01*
X89665238Y-57385238D01*
X89629047Y-57312857D01*
X89592857Y-57168095D01*
X89592857Y-57059523D01*
X89629047Y-56914761D01*
X89665238Y-56842380D01*
X89737619Y-56770000D01*
X89846190Y-56733809D01*
X89918571Y-56733809D01*
X90027142Y-56770000D01*
X90063333Y-56806190D01*
X90316666Y-56733809D02*
X90823333Y-56733809D01*
X90497619Y-57493809D01*
X81551428Y-52176666D02*
X81587619Y-52212857D01*
X81623809Y-52321428D01*
X81623809Y-52393809D01*
X81587619Y-52502380D01*
X81515238Y-52574761D01*
X81442857Y-52610952D01*
X81298095Y-52647142D01*
X81189523Y-52647142D01*
X81044761Y-52610952D01*
X80972380Y-52574761D01*
X80900000Y-52502380D01*
X80863809Y-52393809D01*
X80863809Y-52321428D01*
X80900000Y-52212857D01*
X80936190Y-52176666D01*
X81189523Y-51742380D02*
X81153333Y-51814761D01*
X81117142Y-51850952D01*
X81044761Y-51887142D01*
X81008571Y-51887142D01*
X80936190Y-51850952D01*
X80900000Y-51814761D01*
X80863809Y-51742380D01*
X80863809Y-51597619D01*
X80900000Y-51525238D01*
X80936190Y-51489047D01*
X81008571Y-51452857D01*
X81044761Y-51452857D01*
X81117142Y-51489047D01*
X81153333Y-51525238D01*
X81189523Y-51597619D01*
X81189523Y-51742380D01*
X81225714Y-51814761D01*
X81261904Y-51850952D01*
X81334285Y-51887142D01*
X81479047Y-51887142D01*
X81551428Y-51850952D01*
X81587619Y-51814761D01*
X81623809Y-51742380D01*
X81623809Y-51597619D01*
X81587619Y-51525238D01*
X81551428Y-51489047D01*
X81479047Y-51452857D01*
X81334285Y-51452857D01*
X81261904Y-51489047D01*
X81225714Y-51525238D01*
X81189523Y-51597619D01*
X111653333Y-57421428D02*
X111617142Y-57457619D01*
X111508571Y-57493809D01*
X111436190Y-57493809D01*
X111327619Y-57457619D01*
X111255238Y-57385238D01*
X111219047Y-57312857D01*
X111182857Y-57168095D01*
X111182857Y-57059523D01*
X111219047Y-56914761D01*
X111255238Y-56842380D01*
X111327619Y-56770000D01*
X111436190Y-56733809D01*
X111508571Y-56733809D01*
X111617142Y-56770000D01*
X111653333Y-56806190D01*
X112015238Y-57493809D02*
X112160000Y-57493809D01*
X112232380Y-57457619D01*
X112268571Y-57421428D01*
X112340952Y-57312857D01*
X112377142Y-57168095D01*
X112377142Y-56878571D01*
X112340952Y-56806190D01*
X112304761Y-56770000D01*
X112232380Y-56733809D01*
X112087619Y-56733809D01*
X112015238Y-56770000D01*
X111979047Y-56806190D01*
X111942857Y-56878571D01*
X111942857Y-57059523D01*
X111979047Y-57131904D01*
X112015238Y-57168095D01*
X112087619Y-57204285D01*
X112232380Y-57204285D01*
X112304761Y-57168095D01*
X112340952Y-57131904D01*
X112377142Y-57059523D01*
X103141428Y-60198571D02*
X103177619Y-60234761D01*
X103213809Y-60343333D01*
X103213809Y-60415714D01*
X103177619Y-60524285D01*
X103105238Y-60596666D01*
X103032857Y-60632857D01*
X102888095Y-60669047D01*
X102779523Y-60669047D01*
X102634761Y-60632857D01*
X102562380Y-60596666D01*
X102490000Y-60524285D01*
X102453809Y-60415714D01*
X102453809Y-60343333D01*
X102490000Y-60234761D01*
X102526190Y-60198571D01*
X103213809Y-59474761D02*
X103213809Y-59909047D01*
X103213809Y-59691904D02*
X102453809Y-59691904D01*
X102562380Y-59764285D01*
X102634761Y-59836666D01*
X102670952Y-59909047D01*
X102453809Y-59004285D02*
X102453809Y-58931904D01*
X102490000Y-58859523D01*
X102526190Y-58823333D01*
X102598571Y-58787142D01*
X102743333Y-58750952D01*
X102924285Y-58750952D01*
X103069047Y-58787142D01*
X103141428Y-58823333D01*
X103177619Y-58859523D01*
X103213809Y-58931904D01*
X103213809Y-59004285D01*
X103177619Y-59076666D01*
X103141428Y-59112857D01*
X103069047Y-59149047D01*
X102924285Y-59185238D01*
X102743333Y-59185238D01*
X102598571Y-59149047D01*
X102526190Y-59112857D01*
X102490000Y-59076666D01*
X102453809Y-59004285D01*
X135421428Y-57421428D02*
X135385238Y-57457619D01*
X135276666Y-57493809D01*
X135204285Y-57493809D01*
X135095714Y-57457619D01*
X135023333Y-57385238D01*
X134987142Y-57312857D01*
X134950952Y-57168095D01*
X134950952Y-57059523D01*
X134987142Y-56914761D01*
X135023333Y-56842380D01*
X135095714Y-56770000D01*
X135204285Y-56733809D01*
X135276666Y-56733809D01*
X135385238Y-56770000D01*
X135421428Y-56806190D01*
X136145238Y-57493809D02*
X135710952Y-57493809D01*
X135928095Y-57493809D02*
X135928095Y-56733809D01*
X135855714Y-56842380D01*
X135783333Y-56914761D01*
X135710952Y-56950952D01*
X136869047Y-57493809D02*
X136434761Y-57493809D01*
X136651904Y-57493809D02*
X136651904Y-56733809D01*
X136579523Y-56842380D01*
X136507142Y-56914761D01*
X136434761Y-56950952D01*
X123461428Y-52538571D02*
X123497619Y-52574761D01*
X123533809Y-52683333D01*
X123533809Y-52755714D01*
X123497619Y-52864285D01*
X123425238Y-52936666D01*
X123352857Y-52972857D01*
X123208095Y-53009047D01*
X123099523Y-53009047D01*
X122954761Y-52972857D01*
X122882380Y-52936666D01*
X122810000Y-52864285D01*
X122773809Y-52755714D01*
X122773809Y-52683333D01*
X122810000Y-52574761D01*
X122846190Y-52538571D01*
X123533809Y-51814761D02*
X123533809Y-52249047D01*
X123533809Y-52031904D02*
X122773809Y-52031904D01*
X122882380Y-52104285D01*
X122954761Y-52176666D01*
X122990952Y-52249047D01*
X122846190Y-51525238D02*
X122810000Y-51489047D01*
X122773809Y-51416666D01*
X122773809Y-51235714D01*
X122810000Y-51163333D01*
X122846190Y-51127142D01*
X122918571Y-51090952D01*
X122990952Y-51090952D01*
X123099523Y-51127142D01*
X123533809Y-51561428D01*
X123533809Y-51090952D01*
X153201428Y-57421428D02*
X153165238Y-57457619D01*
X153056666Y-57493809D01*
X152984285Y-57493809D01*
X152875714Y-57457619D01*
X152803333Y-57385238D01*
X152767142Y-57312857D01*
X152730952Y-57168095D01*
X152730952Y-57059523D01*
X152767142Y-56914761D01*
X152803333Y-56842380D01*
X152875714Y-56770000D01*
X152984285Y-56733809D01*
X153056666Y-56733809D01*
X153165238Y-56770000D01*
X153201428Y-56806190D01*
X153925238Y-57493809D02*
X153490952Y-57493809D01*
X153708095Y-57493809D02*
X153708095Y-56733809D01*
X153635714Y-56842380D01*
X153563333Y-56914761D01*
X153490952Y-56950952D01*
X154178571Y-56733809D02*
X154649047Y-56733809D01*
X154395714Y-57023333D01*
X154504285Y-57023333D01*
X154576666Y-57059523D01*
X154612857Y-57095714D01*
X154649047Y-57168095D01*
X154649047Y-57349047D01*
X154612857Y-57421428D01*
X154576666Y-57457619D01*
X154504285Y-57493809D01*
X154287142Y-57493809D01*
X154214761Y-57457619D01*
X154178571Y-57421428D01*
X143781428Y-52538571D02*
X143817619Y-52574761D01*
X143853809Y-52683333D01*
X143853809Y-52755714D01*
X143817619Y-52864285D01*
X143745238Y-52936666D01*
X143672857Y-52972857D01*
X143528095Y-53009047D01*
X143419523Y-53009047D01*
X143274761Y-52972857D01*
X143202380Y-52936666D01*
X143130000Y-52864285D01*
X143093809Y-52755714D01*
X143093809Y-52683333D01*
X143130000Y-52574761D01*
X143166190Y-52538571D01*
X143853809Y-51814761D02*
X143853809Y-52249047D01*
X143853809Y-52031904D02*
X143093809Y-52031904D01*
X143202380Y-52104285D01*
X143274761Y-52176666D01*
X143310952Y-52249047D01*
X143347142Y-51163333D02*
X143853809Y-51163333D01*
X143057619Y-51344285D02*
X143600476Y-51525238D01*
X143600476Y-51054761D01*
X112561428Y-92981428D02*
X112525238Y-93017619D01*
X112416666Y-93053809D01*
X112344285Y-93053809D01*
X112235714Y-93017619D01*
X112163333Y-92945238D01*
X112127142Y-92872857D01*
X112090952Y-92728095D01*
X112090952Y-92619523D01*
X112127142Y-92474761D01*
X112163333Y-92402380D01*
X112235714Y-92330000D01*
X112344285Y-92293809D01*
X112416666Y-92293809D01*
X112525238Y-92330000D01*
X112561428Y-92366190D01*
X113285238Y-93053809D02*
X112850952Y-93053809D01*
X113068095Y-93053809D02*
X113068095Y-92293809D01*
X112995714Y-92402380D01*
X112923333Y-92474761D01*
X112850952Y-92510952D01*
X113972857Y-92293809D02*
X113610952Y-92293809D01*
X113574761Y-92655714D01*
X113610952Y-92619523D01*
X113683333Y-92583333D01*
X113864285Y-92583333D01*
X113936666Y-92619523D01*
X113972857Y-92655714D01*
X114009047Y-92728095D01*
X114009047Y-92909047D01*
X113972857Y-92981428D01*
X113936666Y-93017619D01*
X113864285Y-93053809D01*
X113683333Y-93053809D01*
X113610952Y-93017619D01*
X113574761Y-92981428D01*
X135421428Y-92981428D02*
X135385238Y-93017619D01*
X135276666Y-93053809D01*
X135204285Y-93053809D01*
X135095714Y-93017619D01*
X135023333Y-92945238D01*
X134987142Y-92872857D01*
X134950952Y-92728095D01*
X134950952Y-92619523D01*
X134987142Y-92474761D01*
X135023333Y-92402380D01*
X135095714Y-92330000D01*
X135204285Y-92293809D01*
X135276666Y-92293809D01*
X135385238Y-92330000D01*
X135421428Y-92366190D01*
X136145238Y-93053809D02*
X135710952Y-93053809D01*
X135928095Y-93053809D02*
X135928095Y-92293809D01*
X135855714Y-92402380D01*
X135783333Y-92474761D01*
X135710952Y-92510952D01*
X136796666Y-92293809D02*
X136651904Y-92293809D01*
X136579523Y-92330000D01*
X136543333Y-92366190D01*
X136470952Y-92474761D01*
X136434761Y-92619523D01*
X136434761Y-92909047D01*
X136470952Y-92981428D01*
X136507142Y-93017619D01*
X136579523Y-93053809D01*
X136724285Y-93053809D01*
X136796666Y-93017619D01*
X136832857Y-92981428D01*
X136869047Y-92909047D01*
X136869047Y-92728095D01*
X136832857Y-92655714D01*
X136796666Y-92619523D01*
X136724285Y-92583333D01*
X136579523Y-92583333D01*
X136507142Y-92619523D01*
X136470952Y-92655714D01*
X136434761Y-92728095D01*
D13*
X76232380Y-96916666D02*
X76232380Y-97488095D01*
X76232380Y-97202380D02*
X75232380Y-97202380D01*
X75375238Y-97297619D01*
X75470476Y-97392857D01*
X75518095Y-97488095D01*
X76232380Y-96488095D02*
X75232380Y-96488095D01*
X76232380Y-95916666D01*
X75232380Y-95916666D01*
X75232380Y-95535714D02*
X75232380Y-94869047D01*
X76232380Y-95297619D01*
X75232380Y-94011904D02*
X75232380Y-94488095D01*
X75708571Y-94535714D01*
X75660952Y-94488095D01*
X75613333Y-94392857D01*
X75613333Y-94154761D01*
X75660952Y-94059523D01*
X75708571Y-94011904D01*
X75803809Y-93964285D01*
X76041904Y-93964285D01*
X76137142Y-94011904D01*
X76184761Y-94059523D01*
X76232380Y-94154761D01*
X76232380Y-94392857D01*
X76184761Y-94488095D01*
X76137142Y-94535714D01*
X76232380Y-93488095D02*
X76232380Y-93297619D01*
X76184761Y-93202380D01*
X76137142Y-93154761D01*
X75994285Y-93059523D01*
X75803809Y-93011904D01*
X75422857Y-93011904D01*
X75327619Y-93059523D01*
X75280000Y-93107142D01*
X75232380Y-93202380D01*
X75232380Y-93392857D01*
X75280000Y-93488095D01*
X75327619Y-93535714D01*
X75422857Y-93583333D01*
X75660952Y-93583333D01*
X75756190Y-93535714D01*
X75803809Y-93488095D01*
X75851428Y-93392857D01*
X75851428Y-93202380D01*
X75803809Y-93107142D01*
X75756190Y-93059523D01*
X75660952Y-93011904D01*
X72312380Y-99321904D02*
X71312380Y-99321904D01*
X72312380Y-98750476D02*
X71740952Y-99179047D01*
X71312380Y-98750476D02*
X71883809Y-99321904D01*
D12*
X74021904Y-95540476D02*
X73221904Y-95540476D01*
X73221904Y-95350000D01*
X73260000Y-95235714D01*
X73336190Y-95159523D01*
X73412380Y-95121428D01*
X73564761Y-95083333D01*
X73679047Y-95083333D01*
X73831428Y-95121428D01*
X73907619Y-95159523D01*
X73983809Y-95235714D01*
X74021904Y-95350000D01*
X74021904Y-95540476D01*
X74021904Y-94321428D02*
X74021904Y-94778571D01*
X74021904Y-94550000D02*
X73221904Y-94550000D01*
X73336190Y-94626190D01*
X73412380Y-94702380D01*
X73450476Y-94778571D01*
D13*
X60563333Y-100362380D02*
X59991904Y-100362380D01*
X60277619Y-100362380D02*
X60277619Y-99362380D01*
X60182380Y-99505238D01*
X60087142Y-99600476D01*
X59991904Y-99648095D01*
X60991904Y-100362380D02*
X60991904Y-99362380D01*
X61563333Y-100362380D01*
X61563333Y-99362380D01*
X61944285Y-99362380D02*
X62610952Y-99362380D01*
X62182380Y-100362380D01*
X63468095Y-99362380D02*
X62991904Y-99362380D01*
X62944285Y-99838571D01*
X62991904Y-99790952D01*
X63087142Y-99743333D01*
X63325238Y-99743333D01*
X63420476Y-99790952D01*
X63468095Y-99838571D01*
X63515714Y-99933809D01*
X63515714Y-100171904D01*
X63468095Y-100267142D01*
X63420476Y-100314761D01*
X63325238Y-100362380D01*
X63087142Y-100362380D01*
X62991904Y-100314761D01*
X62944285Y-100267142D01*
X63991904Y-100362380D02*
X64182380Y-100362380D01*
X64277619Y-100314761D01*
X64325238Y-100267142D01*
X64420476Y-100124285D01*
X64468095Y-99933809D01*
X64468095Y-99552857D01*
X64420476Y-99457619D01*
X64372857Y-99410000D01*
X64277619Y-99362380D01*
X64087142Y-99362380D01*
X63991904Y-99410000D01*
X63944285Y-99457619D01*
X63896666Y-99552857D01*
X63896666Y-99790952D01*
X63944285Y-99886190D01*
X63991904Y-99933809D01*
X64087142Y-99981428D01*
X64277619Y-99981428D01*
X64372857Y-99933809D01*
X64420476Y-99886190D01*
X64468095Y-99790952D01*
X58158095Y-96442380D02*
X58158095Y-95442380D01*
X58729523Y-96442380D02*
X58300952Y-95870952D01*
X58729523Y-95442380D02*
X58158095Y-96013809D01*
D12*
X61939523Y-98151904D02*
X61939523Y-97351904D01*
X62130000Y-97351904D01*
X62244285Y-97390000D01*
X62320476Y-97466190D01*
X62358571Y-97542380D01*
X62396666Y-97694761D01*
X62396666Y-97809047D01*
X62358571Y-97961428D01*
X62320476Y-98037619D01*
X62244285Y-98113809D01*
X62130000Y-98151904D01*
X61939523Y-98151904D01*
X62701428Y-97428095D02*
X62739523Y-97390000D01*
X62815714Y-97351904D01*
X63006190Y-97351904D01*
X63082380Y-97390000D01*
X63120476Y-97428095D01*
X63158571Y-97504285D01*
X63158571Y-97580476D01*
X63120476Y-97694761D01*
X62663333Y-98151904D01*
X63158571Y-98151904D01*
D13*
X159622380Y-90566666D02*
X159622380Y-91138095D01*
X159622380Y-90852380D02*
X158622380Y-90852380D01*
X158765238Y-90947619D01*
X158860476Y-91042857D01*
X158908095Y-91138095D01*
X159622380Y-90138095D02*
X158622380Y-90138095D01*
X159622380Y-89566666D01*
X158622380Y-89566666D01*
X158622380Y-89185714D02*
X158622380Y-88519047D01*
X159622380Y-88947619D01*
X158622380Y-87661904D02*
X158622380Y-88138095D01*
X159098571Y-88185714D01*
X159050952Y-88138095D01*
X159003333Y-88042857D01*
X159003333Y-87804761D01*
X159050952Y-87709523D01*
X159098571Y-87661904D01*
X159193809Y-87614285D01*
X159431904Y-87614285D01*
X159527142Y-87661904D01*
X159574761Y-87709523D01*
X159622380Y-87804761D01*
X159622380Y-88042857D01*
X159574761Y-88138095D01*
X159527142Y-88185714D01*
X159622380Y-87138095D02*
X159622380Y-86947619D01*
X159574761Y-86852380D01*
X159527142Y-86804761D01*
X159384285Y-86709523D01*
X159193809Y-86661904D01*
X158812857Y-86661904D01*
X158717619Y-86709523D01*
X158670000Y-86757142D01*
X158622380Y-86852380D01*
X158622380Y-87042857D01*
X158670000Y-87138095D01*
X158717619Y-87185714D01*
X158812857Y-87233333D01*
X159050952Y-87233333D01*
X159146190Y-87185714D01*
X159193809Y-87138095D01*
X159241428Y-87042857D01*
X159241428Y-86852380D01*
X159193809Y-86757142D01*
X159146190Y-86709523D01*
X159050952Y-86661904D01*
D12*
X161651904Y-89790476D02*
X160851904Y-89790476D01*
X160851904Y-89600000D01*
X160890000Y-89485714D01*
X160966190Y-89409523D01*
X161042380Y-89371428D01*
X161194761Y-89333333D01*
X161309047Y-89333333D01*
X161461428Y-89371428D01*
X161537619Y-89409523D01*
X161613809Y-89485714D01*
X161651904Y-89600000D01*
X161651904Y-89790476D01*
X160851904Y-89066666D02*
X160851904Y-88571428D01*
X161156666Y-88838095D01*
X161156666Y-88723809D01*
X161194761Y-88647619D01*
X161232857Y-88609523D01*
X161309047Y-88571428D01*
X161499523Y-88571428D01*
X161575714Y-88609523D01*
X161613809Y-88647619D01*
X161651904Y-88723809D01*
X161651904Y-88952380D01*
X161613809Y-89028571D01*
X161575714Y-89066666D01*
D13*
X159202380Y-85351904D02*
X158202380Y-85351904D01*
X159202380Y-84780476D02*
X158630952Y-85209047D01*
X158202380Y-84780476D02*
X158773809Y-85351904D01*
X159622380Y-79136666D02*
X159622380Y-79708095D01*
X159622380Y-79422380D02*
X158622380Y-79422380D01*
X158765238Y-79517619D01*
X158860476Y-79612857D01*
X158908095Y-79708095D01*
X159622380Y-78708095D02*
X158622380Y-78708095D01*
X159622380Y-78136666D01*
X158622380Y-78136666D01*
X158622380Y-77755714D02*
X158622380Y-77089047D01*
X159622380Y-77517619D01*
X158622380Y-76231904D02*
X158622380Y-76708095D01*
X159098571Y-76755714D01*
X159050952Y-76708095D01*
X159003333Y-76612857D01*
X159003333Y-76374761D01*
X159050952Y-76279523D01*
X159098571Y-76231904D01*
X159193809Y-76184285D01*
X159431904Y-76184285D01*
X159527142Y-76231904D01*
X159574761Y-76279523D01*
X159622380Y-76374761D01*
X159622380Y-76612857D01*
X159574761Y-76708095D01*
X159527142Y-76755714D01*
X159622380Y-75708095D02*
X159622380Y-75517619D01*
X159574761Y-75422380D01*
X159527142Y-75374761D01*
X159384285Y-75279523D01*
X159193809Y-75231904D01*
X158812857Y-75231904D01*
X158717619Y-75279523D01*
X158670000Y-75327142D01*
X158622380Y-75422380D01*
X158622380Y-75612857D01*
X158670000Y-75708095D01*
X158717619Y-75755714D01*
X158812857Y-75803333D01*
X159050952Y-75803333D01*
X159146190Y-75755714D01*
X159193809Y-75708095D01*
X159241428Y-75612857D01*
X159241428Y-75422380D01*
X159193809Y-75327142D01*
X159146190Y-75279523D01*
X159050952Y-75231904D01*
D12*
X161651904Y-78360476D02*
X160851904Y-78360476D01*
X160851904Y-78170000D01*
X160890000Y-78055714D01*
X160966190Y-77979523D01*
X161042380Y-77941428D01*
X161194761Y-77903333D01*
X161309047Y-77903333D01*
X161461428Y-77941428D01*
X161537619Y-77979523D01*
X161613809Y-78055714D01*
X161651904Y-78170000D01*
X161651904Y-78360476D01*
X161118571Y-77217619D02*
X161651904Y-77217619D01*
X160813809Y-77408095D02*
X161385238Y-77598571D01*
X161385238Y-77103333D01*
D13*
X163542380Y-73921904D02*
X162542380Y-73921904D01*
X163542380Y-73350476D02*
X162970952Y-73779047D01*
X162542380Y-73350476D02*
X163113809Y-73921904D01*
X52878095Y-99512380D02*
X52878095Y-98512380D01*
X52878095Y-98988571D02*
X53449523Y-98988571D01*
X53449523Y-99512380D02*
X53449523Y-98512380D01*
X54449523Y-99512380D02*
X53878095Y-99512380D01*
X54163809Y-99512380D02*
X54163809Y-98512380D01*
X54068571Y-98655238D01*
X53973333Y-98750476D01*
X53878095Y-98798095D01*
X52878095Y-51252380D02*
X52878095Y-50252380D01*
X52878095Y-50728571D02*
X53449523Y-50728571D01*
X53449523Y-51252380D02*
X53449523Y-50252380D01*
X53878095Y-50347619D02*
X53925714Y-50300000D01*
X54020952Y-50252380D01*
X54259047Y-50252380D01*
X54354285Y-50300000D01*
X54401904Y-50347619D01*
X54449523Y-50442857D01*
X54449523Y-50538095D01*
X54401904Y-50680952D01*
X53830476Y-51252380D01*
X54449523Y-51252380D01*
X160828095Y-51252380D02*
X160828095Y-50252380D01*
X160828095Y-50728571D02*
X161399523Y-50728571D01*
X161399523Y-51252380D02*
X161399523Y-50252380D01*
X161780476Y-50252380D02*
X162399523Y-50252380D01*
X162066190Y-50633333D01*
X162209047Y-50633333D01*
X162304285Y-50680952D01*
X162351904Y-50728571D01*
X162399523Y-50823809D01*
X162399523Y-51061904D01*
X162351904Y-51157142D01*
X162304285Y-51204761D01*
X162209047Y-51252380D01*
X161923333Y-51252380D01*
X161828095Y-51204761D01*
X161780476Y-51157142D01*
X160828095Y-99512380D02*
X160828095Y-98512380D01*
X160828095Y-98988571D02*
X161399523Y-98988571D01*
X161399523Y-99512380D02*
X161399523Y-98512380D01*
X162304285Y-98845714D02*
X162304285Y-99512380D01*
X162066190Y-98464761D02*
X161828095Y-99179047D01*
X162447142Y-99179047D01*
X52887619Y-92682380D02*
X52887619Y-91682380D01*
X53363809Y-92015714D02*
X53363809Y-92682380D01*
X53363809Y-92110952D02*
X53411428Y-92063333D01*
X53506666Y-92015714D01*
X53649523Y-92015714D01*
X53744761Y-92063333D01*
X53792380Y-92158571D01*
X53792380Y-92682380D01*
X52792380Y-88503333D02*
X53506666Y-88503333D01*
X53649523Y-88550952D01*
X53744761Y-88646190D01*
X53792380Y-88789047D01*
X53792380Y-88884285D01*
X53792380Y-87503333D02*
X53792380Y-88074761D01*
X53792380Y-87789047D02*
X52792380Y-87789047D01*
X52935238Y-87884285D01*
X53030476Y-87979523D01*
X53078095Y-88074761D01*
X96456666Y-96972380D02*
X96456666Y-95972380D01*
X96837619Y-95972380D01*
X96932857Y-96020000D01*
X96980476Y-96067619D01*
X97028095Y-96162857D01*
X97028095Y-96305714D01*
X96980476Y-96400952D01*
X96932857Y-96448571D01*
X96837619Y-96496190D01*
X96456666Y-96496190D01*
X97361428Y-95972380D02*
X97599523Y-96972380D01*
X97790000Y-96258095D01*
X97980476Y-96972380D01*
X98218571Y-95972380D01*
X99170952Y-96972380D02*
X98837619Y-96496190D01*
X98599523Y-96972380D02*
X98599523Y-95972380D01*
X98980476Y-95972380D01*
X99075714Y-96020000D01*
X99123333Y-96067619D01*
X99170952Y-96162857D01*
X99170952Y-96305714D01*
X99123333Y-96400952D01*
X99075714Y-96448571D01*
X98980476Y-96496190D01*
X98599523Y-96496190D01*
X97996666Y-98512380D02*
X97996666Y-99226666D01*
X97949047Y-99369523D01*
X97853809Y-99464761D01*
X97710952Y-99512380D01*
X97615714Y-99512380D01*
X98425238Y-98607619D02*
X98472857Y-98560000D01*
X98568095Y-98512380D01*
X98806190Y-98512380D01*
X98901428Y-98560000D01*
X98949047Y-98607619D01*
X98996666Y-98702857D01*
X98996666Y-98798095D01*
X98949047Y-98940952D01*
X98377619Y-99512380D01*
X98996666Y-99512380D01*
X110696666Y-98512380D02*
X110696666Y-99226666D01*
X110649047Y-99369523D01*
X110553809Y-99464761D01*
X110410952Y-99512380D01*
X110315714Y-99512380D01*
X111077619Y-98512380D02*
X111696666Y-98512380D01*
X111363333Y-98893333D01*
X111506190Y-98893333D01*
X111601428Y-98940952D01*
X111649047Y-98988571D01*
X111696666Y-99083809D01*
X111696666Y-99321904D01*
X111649047Y-99417142D01*
X111601428Y-99464761D01*
X111506190Y-99512380D01*
X111220476Y-99512380D01*
X111125238Y-99464761D01*
X111077619Y-99417142D01*
X122316666Y-98512380D02*
X122316666Y-99226666D01*
X122269047Y-99369523D01*
X122173809Y-99464761D01*
X122030952Y-99512380D01*
X121935714Y-99512380D01*
X123221428Y-98845714D02*
X123221428Y-99512380D01*
X122983333Y-98464761D02*
X122745238Y-99179047D01*
X123364285Y-99179047D01*
X129282380Y-99893333D02*
X129282380Y-99702857D01*
X129330000Y-99607619D01*
X129425238Y-99512380D01*
X129615714Y-99464761D01*
X129949047Y-99464761D01*
X130139523Y-99512380D01*
X130234761Y-99607619D01*
X130282380Y-99702857D01*
X130282380Y-99893333D01*
X130234761Y-99988571D01*
X130139523Y-100083809D01*
X129949047Y-100131428D01*
X129615714Y-100131428D01*
X129425238Y-100083809D01*
X129330000Y-99988571D01*
X129282380Y-99893333D01*
X129615714Y-98607619D02*
X130282380Y-98607619D01*
X129615714Y-99036190D02*
X130139523Y-99036190D01*
X130234761Y-98988571D01*
X130282380Y-98893333D01*
X130282380Y-98750476D01*
X130234761Y-98655238D01*
X130187142Y-98607619D01*
X129615714Y-98274285D02*
X129615714Y-97893333D01*
X129282380Y-98131428D02*
X130139523Y-98131428D01*
X130234761Y-98083809D01*
X130282380Y-97988571D01*
X130282380Y-97893333D01*
X133556666Y-98512380D02*
X133556666Y-99226666D01*
X133509047Y-99369523D01*
X133413809Y-99464761D01*
X133270952Y-99512380D01*
X133175714Y-99512380D01*
X134509047Y-98512380D02*
X134032857Y-98512380D01*
X133985238Y-98988571D01*
X134032857Y-98940952D01*
X134128095Y-98893333D01*
X134366190Y-98893333D01*
X134461428Y-98940952D01*
X134509047Y-98988571D01*
X134556666Y-99083809D01*
X134556666Y-99321904D01*
X134509047Y-99417142D01*
X134461428Y-99464761D01*
X134366190Y-99512380D01*
X134128095Y-99512380D01*
X134032857Y-99464761D01*
X133985238Y-99417142D01*
X60793333Y-86812380D02*
X60460000Y-86336190D01*
X60221904Y-86812380D02*
X60221904Y-85812380D01*
X60602857Y-85812380D01*
X60698095Y-85860000D01*
X60745714Y-85907619D01*
X60793333Y-86002857D01*
X60793333Y-86145714D01*
X60745714Y-86240952D01*
X60698095Y-86288571D01*
X60602857Y-86336190D01*
X60221904Y-86336190D01*
X61745714Y-86812380D02*
X61174285Y-86812380D01*
X61460000Y-86812380D02*
X61460000Y-85812380D01*
X61364761Y-85955238D01*
X61269523Y-86050476D01*
X61174285Y-86098095D01*
X56983333Y-80462380D02*
X56650000Y-79986190D01*
X56411904Y-80462380D02*
X56411904Y-79462380D01*
X56792857Y-79462380D01*
X56888095Y-79510000D01*
X56935714Y-79557619D01*
X56983333Y-79652857D01*
X56983333Y-79795714D01*
X56935714Y-79890952D01*
X56888095Y-79938571D01*
X56792857Y-79986190D01*
X56411904Y-79986190D01*
X57364285Y-79557619D02*
X57411904Y-79510000D01*
X57507142Y-79462380D01*
X57745238Y-79462380D01*
X57840476Y-79510000D01*
X57888095Y-79557619D01*
X57935714Y-79652857D01*
X57935714Y-79748095D01*
X57888095Y-79890952D01*
X57316666Y-80462380D01*
X57935714Y-80462380D01*
X86812380Y-95416666D02*
X86336190Y-95750000D01*
X86812380Y-95988095D02*
X85812380Y-95988095D01*
X85812380Y-95607142D01*
X85860000Y-95511904D01*
X85907619Y-95464285D01*
X86002857Y-95416666D01*
X86145714Y-95416666D01*
X86240952Y-95464285D01*
X86288571Y-95511904D01*
X86336190Y-95607142D01*
X86336190Y-95988095D01*
X85812380Y-95083333D02*
X85812380Y-94464285D01*
X86193333Y-94797619D01*
X86193333Y-94654761D01*
X86240952Y-94559523D01*
X86288571Y-94511904D01*
X86383809Y-94464285D01*
X86621904Y-94464285D01*
X86717142Y-94511904D01*
X86764761Y-94559523D01*
X86812380Y-94654761D01*
X86812380Y-94940476D01*
X86764761Y-95035714D01*
X86717142Y-95083333D01*
X80462380Y-95416666D02*
X79986190Y-95750000D01*
X80462380Y-95988095D02*
X79462380Y-95988095D01*
X79462380Y-95607142D01*
X79510000Y-95511904D01*
X79557619Y-95464285D01*
X79652857Y-95416666D01*
X79795714Y-95416666D01*
X79890952Y-95464285D01*
X79938571Y-95511904D01*
X79986190Y-95607142D01*
X79986190Y-95988095D01*
X79795714Y-94559523D02*
X80462380Y-94559523D01*
X79414761Y-94797619D02*
X80129047Y-95035714D01*
X80129047Y-94416666D01*
X69032380Y-82716666D02*
X68556190Y-83050000D01*
X69032380Y-83288095D02*
X68032380Y-83288095D01*
X68032380Y-82907142D01*
X68080000Y-82811904D01*
X68127619Y-82764285D01*
X68222857Y-82716666D01*
X68365714Y-82716666D01*
X68460952Y-82764285D01*
X68508571Y-82811904D01*
X68556190Y-82907142D01*
X68556190Y-83288095D01*
X68032380Y-81811904D02*
X68032380Y-82288095D01*
X68508571Y-82335714D01*
X68460952Y-82288095D01*
X68413333Y-82192857D01*
X68413333Y-81954761D01*
X68460952Y-81859523D01*
X68508571Y-81811904D01*
X68603809Y-81764285D01*
X68841904Y-81764285D01*
X68937142Y-81811904D01*
X68984761Y-81859523D01*
X69032380Y-81954761D01*
X69032380Y-82192857D01*
X68984761Y-82288095D01*
X68937142Y-82335714D01*
X56983333Y-67762380D02*
X56650000Y-67286190D01*
X56411904Y-67762380D02*
X56411904Y-66762380D01*
X56792857Y-66762380D01*
X56888095Y-66810000D01*
X56935714Y-66857619D01*
X56983333Y-66952857D01*
X56983333Y-67095714D01*
X56935714Y-67190952D01*
X56888095Y-67238571D01*
X56792857Y-67286190D01*
X56411904Y-67286190D01*
X57840476Y-66762380D02*
X57650000Y-66762380D01*
X57554761Y-66810000D01*
X57507142Y-66857619D01*
X57411904Y-67000476D01*
X57364285Y-67190952D01*
X57364285Y-67571904D01*
X57411904Y-67667142D01*
X57459523Y-67714761D01*
X57554761Y-67762380D01*
X57745238Y-67762380D01*
X57840476Y-67714761D01*
X57888095Y-67667142D01*
X57935714Y-67571904D01*
X57935714Y-67333809D01*
X57888095Y-67238571D01*
X57840476Y-67190952D01*
X57745238Y-67143333D01*
X57554761Y-67143333D01*
X57459523Y-67190952D01*
X57411904Y-67238571D01*
X57364285Y-67333809D01*
X56983333Y-74112380D02*
X56650000Y-73636190D01*
X56411904Y-74112380D02*
X56411904Y-73112380D01*
X56792857Y-73112380D01*
X56888095Y-73160000D01*
X56935714Y-73207619D01*
X56983333Y-73302857D01*
X56983333Y-73445714D01*
X56935714Y-73540952D01*
X56888095Y-73588571D01*
X56792857Y-73636190D01*
X56411904Y-73636190D01*
X57316666Y-73112380D02*
X57983333Y-73112380D01*
X57554761Y-74112380D01*
X56983333Y-57602380D02*
X56650000Y-57126190D01*
X56411904Y-57602380D02*
X56411904Y-56602380D01*
X56792857Y-56602380D01*
X56888095Y-56650000D01*
X56935714Y-56697619D01*
X56983333Y-56792857D01*
X56983333Y-56935714D01*
X56935714Y-57030952D01*
X56888095Y-57078571D01*
X56792857Y-57126190D01*
X56411904Y-57126190D01*
X57459523Y-57602380D02*
X57650000Y-57602380D01*
X57745238Y-57554761D01*
X57792857Y-57507142D01*
X57888095Y-57364285D01*
X57935714Y-57173809D01*
X57935714Y-56792857D01*
X57888095Y-56697619D01*
X57840476Y-56650000D01*
X57745238Y-56602380D01*
X57554761Y-56602380D01*
X57459523Y-56650000D01*
X57411904Y-56697619D01*
X57364285Y-56792857D01*
X57364285Y-57030952D01*
X57411904Y-57126190D01*
X57459523Y-57173809D01*
X57554761Y-57221428D01*
X57745238Y-57221428D01*
X57840476Y-57173809D01*
X57888095Y-57126190D01*
X57935714Y-57030952D01*
X69207142Y-62682380D02*
X68873809Y-62206190D01*
X68635714Y-62682380D02*
X68635714Y-61682380D01*
X69016666Y-61682380D01*
X69111904Y-61730000D01*
X69159523Y-61777619D01*
X69207142Y-61872857D01*
X69207142Y-62015714D01*
X69159523Y-62110952D01*
X69111904Y-62158571D01*
X69016666Y-62206190D01*
X68635714Y-62206190D01*
X70159523Y-62682380D02*
X69588095Y-62682380D01*
X69873809Y-62682380D02*
X69873809Y-61682380D01*
X69778571Y-61825238D01*
X69683333Y-61920476D01*
X69588095Y-61968095D01*
X70778571Y-61682380D02*
X70873809Y-61682380D01*
X70969047Y-61730000D01*
X71016666Y-61777619D01*
X71064285Y-61872857D01*
X71111904Y-62063333D01*
X71111904Y-62301428D01*
X71064285Y-62491904D01*
X71016666Y-62587142D01*
X70969047Y-62634761D01*
X70873809Y-62682380D01*
X70778571Y-62682380D01*
X70683333Y-62634761D01*
X70635714Y-62587142D01*
X70588095Y-62491904D01*
X70540476Y-62301428D01*
X70540476Y-62063333D01*
X70588095Y-61872857D01*
X70635714Y-61777619D01*
X70683333Y-61730000D01*
X70778571Y-61682380D01*
X69207142Y-58872380D02*
X68873809Y-58396190D01*
X68635714Y-58872380D02*
X68635714Y-57872380D01*
X69016666Y-57872380D01*
X69111904Y-57920000D01*
X69159523Y-57967619D01*
X69207142Y-58062857D01*
X69207142Y-58205714D01*
X69159523Y-58300952D01*
X69111904Y-58348571D01*
X69016666Y-58396190D01*
X68635714Y-58396190D01*
X70159523Y-58872380D02*
X69588095Y-58872380D01*
X69873809Y-58872380D02*
X69873809Y-57872380D01*
X69778571Y-58015238D01*
X69683333Y-58110476D01*
X69588095Y-58158095D01*
X71111904Y-58872380D02*
X70540476Y-58872380D01*
X70826190Y-58872380D02*
X70826190Y-57872380D01*
X70730952Y-58015238D01*
X70635714Y-58110476D01*
X70540476Y-58158095D01*
X75557142Y-67762380D02*
X75223809Y-67286190D01*
X74985714Y-67762380D02*
X74985714Y-66762380D01*
X75366666Y-66762380D01*
X75461904Y-66810000D01*
X75509523Y-66857619D01*
X75557142Y-66952857D01*
X75557142Y-67095714D01*
X75509523Y-67190952D01*
X75461904Y-67238571D01*
X75366666Y-67286190D01*
X74985714Y-67286190D01*
X76509523Y-67762380D02*
X75938095Y-67762380D01*
X76223809Y-67762380D02*
X76223809Y-66762380D01*
X76128571Y-66905238D01*
X76033333Y-67000476D01*
X75938095Y-67048095D01*
X76890476Y-66857619D02*
X76938095Y-66810000D01*
X77033333Y-66762380D01*
X77271428Y-66762380D01*
X77366666Y-66810000D01*
X77414285Y-66857619D01*
X77461904Y-66952857D01*
X77461904Y-67048095D01*
X77414285Y-67190952D01*
X76842857Y-67762380D01*
X77461904Y-67762380D01*
X86812380Y-84462857D02*
X86336190Y-84796190D01*
X86812380Y-85034285D02*
X85812380Y-85034285D01*
X85812380Y-84653333D01*
X85860000Y-84558095D01*
X85907619Y-84510476D01*
X86002857Y-84462857D01*
X86145714Y-84462857D01*
X86240952Y-84510476D01*
X86288571Y-84558095D01*
X86336190Y-84653333D01*
X86336190Y-85034285D01*
X86812380Y-83510476D02*
X86812380Y-84081904D01*
X86812380Y-83796190D02*
X85812380Y-83796190D01*
X85955238Y-83891428D01*
X86050476Y-83986666D01*
X86098095Y-84081904D01*
X85812380Y-83177142D02*
X85812380Y-82558095D01*
X86193333Y-82891428D01*
X86193333Y-82748571D01*
X86240952Y-82653333D01*
X86288571Y-82605714D01*
X86383809Y-82558095D01*
X86621904Y-82558095D01*
X86717142Y-82605714D01*
X86764761Y-82653333D01*
X86812380Y-82748571D01*
X86812380Y-83034285D01*
X86764761Y-83129523D01*
X86717142Y-83177142D01*
X80637142Y-62682380D02*
X80303809Y-62206190D01*
X80065714Y-62682380D02*
X80065714Y-61682380D01*
X80446666Y-61682380D01*
X80541904Y-61730000D01*
X80589523Y-61777619D01*
X80637142Y-61872857D01*
X80637142Y-62015714D01*
X80589523Y-62110952D01*
X80541904Y-62158571D01*
X80446666Y-62206190D01*
X80065714Y-62206190D01*
X81589523Y-62682380D02*
X81018095Y-62682380D01*
X81303809Y-62682380D02*
X81303809Y-61682380D01*
X81208571Y-61825238D01*
X81113333Y-61920476D01*
X81018095Y-61968095D01*
X82446666Y-62015714D02*
X82446666Y-62682380D01*
X82208571Y-61634761D02*
X81970476Y-62349047D01*
X82589523Y-62349047D01*
X80637142Y-58872380D02*
X80303809Y-58396190D01*
X80065714Y-58872380D02*
X80065714Y-57872380D01*
X80446666Y-57872380D01*
X80541904Y-57920000D01*
X80589523Y-57967619D01*
X80637142Y-58062857D01*
X80637142Y-58205714D01*
X80589523Y-58300952D01*
X80541904Y-58348571D01*
X80446666Y-58396190D01*
X80065714Y-58396190D01*
X81589523Y-58872380D02*
X81018095Y-58872380D01*
X81303809Y-58872380D02*
X81303809Y-57872380D01*
X81208571Y-58015238D01*
X81113333Y-58110476D01*
X81018095Y-58158095D01*
X82494285Y-57872380D02*
X82018095Y-57872380D01*
X81970476Y-58348571D01*
X82018095Y-58300952D01*
X82113333Y-58253333D01*
X82351428Y-58253333D01*
X82446666Y-58300952D01*
X82494285Y-58348571D01*
X82541904Y-58443809D01*
X82541904Y-58681904D01*
X82494285Y-58777142D01*
X82446666Y-58824761D01*
X82351428Y-58872380D01*
X82113333Y-58872380D01*
X82018095Y-58824761D01*
X81970476Y-58777142D01*
X75557142Y-72842380D02*
X75223809Y-72366190D01*
X74985714Y-72842380D02*
X74985714Y-71842380D01*
X75366666Y-71842380D01*
X75461904Y-71890000D01*
X75509523Y-71937619D01*
X75557142Y-72032857D01*
X75557142Y-72175714D01*
X75509523Y-72270952D01*
X75461904Y-72318571D01*
X75366666Y-72366190D01*
X74985714Y-72366190D01*
X76509523Y-72842380D02*
X75938095Y-72842380D01*
X76223809Y-72842380D02*
X76223809Y-71842380D01*
X76128571Y-71985238D01*
X76033333Y-72080476D01*
X75938095Y-72128095D01*
X77366666Y-71842380D02*
X77176190Y-71842380D01*
X77080952Y-71890000D01*
X77033333Y-71937619D01*
X76938095Y-72080476D01*
X76890476Y-72270952D01*
X76890476Y-72651904D01*
X76938095Y-72747142D01*
X76985714Y-72794761D01*
X77080952Y-72842380D01*
X77271428Y-72842380D01*
X77366666Y-72794761D01*
X77414285Y-72747142D01*
X77461904Y-72651904D01*
X77461904Y-72413809D01*
X77414285Y-72318571D01*
X77366666Y-72270952D01*
X77271428Y-72223333D01*
X77080952Y-72223333D01*
X76985714Y-72270952D01*
X76938095Y-72318571D01*
X76890476Y-72413809D01*
X85717142Y-72842380D02*
X85383809Y-72366190D01*
X85145714Y-72842380D02*
X85145714Y-71842380D01*
X85526666Y-71842380D01*
X85621904Y-71890000D01*
X85669523Y-71937619D01*
X85717142Y-72032857D01*
X85717142Y-72175714D01*
X85669523Y-72270952D01*
X85621904Y-72318571D01*
X85526666Y-72366190D01*
X85145714Y-72366190D01*
X86669523Y-72842380D02*
X86098095Y-72842380D01*
X86383809Y-72842380D02*
X86383809Y-71842380D01*
X86288571Y-71985238D01*
X86193333Y-72080476D01*
X86098095Y-72128095D01*
X87002857Y-71842380D02*
X87669523Y-71842380D01*
X87240952Y-72842380D01*
X85717142Y-67762380D02*
X85383809Y-67286190D01*
X85145714Y-67762380D02*
X85145714Y-66762380D01*
X85526666Y-66762380D01*
X85621904Y-66810000D01*
X85669523Y-66857619D01*
X85717142Y-66952857D01*
X85717142Y-67095714D01*
X85669523Y-67190952D01*
X85621904Y-67238571D01*
X85526666Y-67286190D01*
X85145714Y-67286190D01*
X86669523Y-67762380D02*
X86098095Y-67762380D01*
X86383809Y-67762380D02*
X86383809Y-66762380D01*
X86288571Y-66905238D01*
X86193333Y-67000476D01*
X86098095Y-67048095D01*
X87240952Y-67190952D02*
X87145714Y-67143333D01*
X87098095Y-67095714D01*
X87050476Y-67000476D01*
X87050476Y-66952857D01*
X87098095Y-66857619D01*
X87145714Y-66810000D01*
X87240952Y-66762380D01*
X87431428Y-66762380D01*
X87526666Y-66810000D01*
X87574285Y-66857619D01*
X87621904Y-66952857D01*
X87621904Y-67000476D01*
X87574285Y-67095714D01*
X87526666Y-67143333D01*
X87431428Y-67190952D01*
X87240952Y-67190952D01*
X87145714Y-67238571D01*
X87098095Y-67286190D01*
X87050476Y-67381428D01*
X87050476Y-67571904D01*
X87098095Y-67667142D01*
X87145714Y-67714761D01*
X87240952Y-67762380D01*
X87431428Y-67762380D01*
X87526666Y-67714761D01*
X87574285Y-67667142D01*
X87621904Y-67571904D01*
X87621904Y-67381428D01*
X87574285Y-67286190D01*
X87526666Y-67238571D01*
X87431428Y-67190952D01*
X94432380Y-64142857D02*
X93956190Y-64476190D01*
X94432380Y-64714285D02*
X93432380Y-64714285D01*
X93432380Y-64333333D01*
X93480000Y-64238095D01*
X93527619Y-64190476D01*
X93622857Y-64142857D01*
X93765714Y-64142857D01*
X93860952Y-64190476D01*
X93908571Y-64238095D01*
X93956190Y-64333333D01*
X93956190Y-64714285D01*
X94432380Y-63190476D02*
X94432380Y-63761904D01*
X94432380Y-63476190D02*
X93432380Y-63476190D01*
X93575238Y-63571428D01*
X93670476Y-63666666D01*
X93718095Y-63761904D01*
X94432380Y-62714285D02*
X94432380Y-62523809D01*
X94384761Y-62428571D01*
X94337142Y-62380952D01*
X94194285Y-62285714D01*
X94003809Y-62238095D01*
X93622857Y-62238095D01*
X93527619Y-62285714D01*
X93480000Y-62333333D01*
X93432380Y-62428571D01*
X93432380Y-62619047D01*
X93480000Y-62714285D01*
X93527619Y-62761904D01*
X93622857Y-62809523D01*
X93860952Y-62809523D01*
X93956190Y-62761904D01*
X94003809Y-62714285D01*
X94051428Y-62619047D01*
X94051428Y-62428571D01*
X94003809Y-62333333D01*
X93956190Y-62285714D01*
X93860952Y-62238095D01*
X99512380Y-64142857D02*
X99036190Y-64476190D01*
X99512380Y-64714285D02*
X98512380Y-64714285D01*
X98512380Y-64333333D01*
X98560000Y-64238095D01*
X98607619Y-64190476D01*
X98702857Y-64142857D01*
X98845714Y-64142857D01*
X98940952Y-64190476D01*
X98988571Y-64238095D01*
X99036190Y-64333333D01*
X99036190Y-64714285D01*
X98607619Y-63761904D02*
X98560000Y-63714285D01*
X98512380Y-63619047D01*
X98512380Y-63380952D01*
X98560000Y-63285714D01*
X98607619Y-63238095D01*
X98702857Y-63190476D01*
X98798095Y-63190476D01*
X98940952Y-63238095D01*
X99512380Y-63809523D01*
X99512380Y-63190476D01*
X98512380Y-62571428D02*
X98512380Y-62476190D01*
X98560000Y-62380952D01*
X98607619Y-62333333D01*
X98702857Y-62285714D01*
X98893333Y-62238095D01*
X99131428Y-62238095D01*
X99321904Y-62285714D01*
X99417142Y-62333333D01*
X99464761Y-62380952D01*
X99512380Y-62476190D01*
X99512380Y-62571428D01*
X99464761Y-62666666D01*
X99417142Y-62714285D01*
X99321904Y-62761904D01*
X99131428Y-62809523D01*
X98893333Y-62809523D01*
X98702857Y-62761904D01*
X98607619Y-62714285D01*
X98560000Y-62666666D01*
X98512380Y-62571428D01*
X107132380Y-64142857D02*
X106656190Y-64476190D01*
X107132380Y-64714285D02*
X106132380Y-64714285D01*
X106132380Y-64333333D01*
X106180000Y-64238095D01*
X106227619Y-64190476D01*
X106322857Y-64142857D01*
X106465714Y-64142857D01*
X106560952Y-64190476D01*
X106608571Y-64238095D01*
X106656190Y-64333333D01*
X106656190Y-64714285D01*
X106227619Y-63761904D02*
X106180000Y-63714285D01*
X106132380Y-63619047D01*
X106132380Y-63380952D01*
X106180000Y-63285714D01*
X106227619Y-63238095D01*
X106322857Y-63190476D01*
X106418095Y-63190476D01*
X106560952Y-63238095D01*
X107132380Y-63809523D01*
X107132380Y-63190476D01*
X107132380Y-62238095D02*
X107132380Y-62809523D01*
X107132380Y-62523809D02*
X106132380Y-62523809D01*
X106275238Y-62619047D01*
X106370476Y-62714285D01*
X106418095Y-62809523D01*
X97147142Y-72842380D02*
X96813809Y-72366190D01*
X96575714Y-72842380D02*
X96575714Y-71842380D01*
X96956666Y-71842380D01*
X97051904Y-71890000D01*
X97099523Y-71937619D01*
X97147142Y-72032857D01*
X97147142Y-72175714D01*
X97099523Y-72270952D01*
X97051904Y-72318571D01*
X96956666Y-72366190D01*
X96575714Y-72366190D01*
X97528095Y-71937619D02*
X97575714Y-71890000D01*
X97670952Y-71842380D01*
X97909047Y-71842380D01*
X98004285Y-71890000D01*
X98051904Y-71937619D01*
X98099523Y-72032857D01*
X98099523Y-72128095D01*
X98051904Y-72270952D01*
X97480476Y-72842380D01*
X98099523Y-72842380D01*
X98480476Y-71937619D02*
X98528095Y-71890000D01*
X98623333Y-71842380D01*
X98861428Y-71842380D01*
X98956666Y-71890000D01*
X99004285Y-71937619D01*
X99051904Y-72032857D01*
X99051904Y-72128095D01*
X99004285Y-72270952D01*
X98432857Y-72842380D01*
X99051904Y-72842380D01*
X116022380Y-64142857D02*
X115546190Y-64476190D01*
X116022380Y-64714285D02*
X115022380Y-64714285D01*
X115022380Y-64333333D01*
X115070000Y-64238095D01*
X115117619Y-64190476D01*
X115212857Y-64142857D01*
X115355714Y-64142857D01*
X115450952Y-64190476D01*
X115498571Y-64238095D01*
X115546190Y-64333333D01*
X115546190Y-64714285D01*
X115117619Y-63761904D02*
X115070000Y-63714285D01*
X115022380Y-63619047D01*
X115022380Y-63380952D01*
X115070000Y-63285714D01*
X115117619Y-63238095D01*
X115212857Y-63190476D01*
X115308095Y-63190476D01*
X115450952Y-63238095D01*
X116022380Y-63809523D01*
X116022380Y-63190476D01*
X115022380Y-62857142D02*
X115022380Y-62238095D01*
X115403333Y-62571428D01*
X115403333Y-62428571D01*
X115450952Y-62333333D01*
X115498571Y-62285714D01*
X115593809Y-62238095D01*
X115831904Y-62238095D01*
X115927142Y-62285714D01*
X115974761Y-62333333D01*
X116022380Y-62428571D01*
X116022380Y-62714285D01*
X115974761Y-62809523D01*
X115927142Y-62857142D01*
X107307142Y-72842380D02*
X106973809Y-72366190D01*
X106735714Y-72842380D02*
X106735714Y-71842380D01*
X107116666Y-71842380D01*
X107211904Y-71890000D01*
X107259523Y-71937619D01*
X107307142Y-72032857D01*
X107307142Y-72175714D01*
X107259523Y-72270952D01*
X107211904Y-72318571D01*
X107116666Y-72366190D01*
X106735714Y-72366190D01*
X107688095Y-71937619D02*
X107735714Y-71890000D01*
X107830952Y-71842380D01*
X108069047Y-71842380D01*
X108164285Y-71890000D01*
X108211904Y-71937619D01*
X108259523Y-72032857D01*
X108259523Y-72128095D01*
X108211904Y-72270952D01*
X107640476Y-72842380D01*
X108259523Y-72842380D01*
X109116666Y-72175714D02*
X109116666Y-72842380D01*
X108878571Y-71794761D02*
X108640476Y-72509047D01*
X109259523Y-72509047D01*
X122372380Y-64142857D02*
X121896190Y-64476190D01*
X122372380Y-64714285D02*
X121372380Y-64714285D01*
X121372380Y-64333333D01*
X121420000Y-64238095D01*
X121467619Y-64190476D01*
X121562857Y-64142857D01*
X121705714Y-64142857D01*
X121800952Y-64190476D01*
X121848571Y-64238095D01*
X121896190Y-64333333D01*
X121896190Y-64714285D01*
X121467619Y-63761904D02*
X121420000Y-63714285D01*
X121372380Y-63619047D01*
X121372380Y-63380952D01*
X121420000Y-63285714D01*
X121467619Y-63238095D01*
X121562857Y-63190476D01*
X121658095Y-63190476D01*
X121800952Y-63238095D01*
X122372380Y-63809523D01*
X122372380Y-63190476D01*
X121372380Y-62285714D02*
X121372380Y-62761904D01*
X121848571Y-62809523D01*
X121800952Y-62761904D01*
X121753333Y-62666666D01*
X121753333Y-62428571D01*
X121800952Y-62333333D01*
X121848571Y-62285714D01*
X121943809Y-62238095D01*
X122181904Y-62238095D01*
X122277142Y-62285714D01*
X122324761Y-62333333D01*
X122372380Y-62428571D01*
X122372380Y-62666666D01*
X122324761Y-62761904D01*
X122277142Y-62809523D01*
X132532380Y-64142857D02*
X132056190Y-64476190D01*
X132532380Y-64714285D02*
X131532380Y-64714285D01*
X131532380Y-64333333D01*
X131580000Y-64238095D01*
X131627619Y-64190476D01*
X131722857Y-64142857D01*
X131865714Y-64142857D01*
X131960952Y-64190476D01*
X132008571Y-64238095D01*
X132056190Y-64333333D01*
X132056190Y-64714285D01*
X131627619Y-63761904D02*
X131580000Y-63714285D01*
X131532380Y-63619047D01*
X131532380Y-63380952D01*
X131580000Y-63285714D01*
X131627619Y-63238095D01*
X131722857Y-63190476D01*
X131818095Y-63190476D01*
X131960952Y-63238095D01*
X132532380Y-63809523D01*
X132532380Y-63190476D01*
X131532380Y-62333333D02*
X131532380Y-62523809D01*
X131580000Y-62619047D01*
X131627619Y-62666666D01*
X131770476Y-62761904D01*
X131960952Y-62809523D01*
X132341904Y-62809523D01*
X132437142Y-62761904D01*
X132484761Y-62714285D01*
X132532380Y-62619047D01*
X132532380Y-62428571D01*
X132484761Y-62333333D01*
X132437142Y-62285714D01*
X132341904Y-62238095D01*
X132103809Y-62238095D01*
X132008571Y-62285714D01*
X131960952Y-62333333D01*
X131913333Y-62428571D01*
X131913333Y-62619047D01*
X131960952Y-62714285D01*
X132008571Y-62761904D01*
X132103809Y-62809523D01*
X118737142Y-72842380D02*
X118403809Y-72366190D01*
X118165714Y-72842380D02*
X118165714Y-71842380D01*
X118546666Y-71842380D01*
X118641904Y-71890000D01*
X118689523Y-71937619D01*
X118737142Y-72032857D01*
X118737142Y-72175714D01*
X118689523Y-72270952D01*
X118641904Y-72318571D01*
X118546666Y-72366190D01*
X118165714Y-72366190D01*
X119118095Y-71937619D02*
X119165714Y-71890000D01*
X119260952Y-71842380D01*
X119499047Y-71842380D01*
X119594285Y-71890000D01*
X119641904Y-71937619D01*
X119689523Y-72032857D01*
X119689523Y-72128095D01*
X119641904Y-72270952D01*
X119070476Y-72842380D01*
X119689523Y-72842380D01*
X120022857Y-71842380D02*
X120689523Y-71842380D01*
X120260952Y-72842380D01*
X130167142Y-72842380D02*
X129833809Y-72366190D01*
X129595714Y-72842380D02*
X129595714Y-71842380D01*
X129976666Y-71842380D01*
X130071904Y-71890000D01*
X130119523Y-71937619D01*
X130167142Y-72032857D01*
X130167142Y-72175714D01*
X130119523Y-72270952D01*
X130071904Y-72318571D01*
X129976666Y-72366190D01*
X129595714Y-72366190D01*
X130548095Y-71937619D02*
X130595714Y-71890000D01*
X130690952Y-71842380D01*
X130929047Y-71842380D01*
X131024285Y-71890000D01*
X131071904Y-71937619D01*
X131119523Y-72032857D01*
X131119523Y-72128095D01*
X131071904Y-72270952D01*
X130500476Y-72842380D01*
X131119523Y-72842380D01*
X131690952Y-72270952D02*
X131595714Y-72223333D01*
X131548095Y-72175714D01*
X131500476Y-72080476D01*
X131500476Y-72032857D01*
X131548095Y-71937619D01*
X131595714Y-71890000D01*
X131690952Y-71842380D01*
X131881428Y-71842380D01*
X131976666Y-71890000D01*
X132024285Y-71937619D01*
X132071904Y-72032857D01*
X132071904Y-72080476D01*
X132024285Y-72175714D01*
X131976666Y-72223333D01*
X131881428Y-72270952D01*
X131690952Y-72270952D01*
X131595714Y-72318571D01*
X131548095Y-72366190D01*
X131500476Y-72461428D01*
X131500476Y-72651904D01*
X131548095Y-72747142D01*
X131595714Y-72794761D01*
X131690952Y-72842380D01*
X131881428Y-72842380D01*
X131976666Y-72794761D01*
X132024285Y-72747142D01*
X132071904Y-72651904D01*
X132071904Y-72461428D01*
X132024285Y-72366190D01*
X131976666Y-72318571D01*
X131881428Y-72270952D01*
X140152380Y-64142857D02*
X139676190Y-64476190D01*
X140152380Y-64714285D02*
X139152380Y-64714285D01*
X139152380Y-64333333D01*
X139200000Y-64238095D01*
X139247619Y-64190476D01*
X139342857Y-64142857D01*
X139485714Y-64142857D01*
X139580952Y-64190476D01*
X139628571Y-64238095D01*
X139676190Y-64333333D01*
X139676190Y-64714285D01*
X139247619Y-63761904D02*
X139200000Y-63714285D01*
X139152380Y-63619047D01*
X139152380Y-63380952D01*
X139200000Y-63285714D01*
X139247619Y-63238095D01*
X139342857Y-63190476D01*
X139438095Y-63190476D01*
X139580952Y-63238095D01*
X140152380Y-63809523D01*
X140152380Y-63190476D01*
X140152380Y-62714285D02*
X140152380Y-62523809D01*
X140104761Y-62428571D01*
X140057142Y-62380952D01*
X139914285Y-62285714D01*
X139723809Y-62238095D01*
X139342857Y-62238095D01*
X139247619Y-62285714D01*
X139200000Y-62333333D01*
X139152380Y-62428571D01*
X139152380Y-62619047D01*
X139200000Y-62714285D01*
X139247619Y-62761904D01*
X139342857Y-62809523D01*
X139580952Y-62809523D01*
X139676190Y-62761904D01*
X139723809Y-62714285D01*
X139771428Y-62619047D01*
X139771428Y-62428571D01*
X139723809Y-62333333D01*
X139676190Y-62285714D01*
X139580952Y-62238095D01*
X127452380Y-83192857D02*
X126976190Y-83526190D01*
X127452380Y-83764285D02*
X126452380Y-83764285D01*
X126452380Y-83383333D01*
X126500000Y-83288095D01*
X126547619Y-83240476D01*
X126642857Y-83192857D01*
X126785714Y-83192857D01*
X126880952Y-83240476D01*
X126928571Y-83288095D01*
X126976190Y-83383333D01*
X126976190Y-83764285D01*
X126452380Y-82859523D02*
X126452380Y-82240476D01*
X126833333Y-82573809D01*
X126833333Y-82430952D01*
X126880952Y-82335714D01*
X126928571Y-82288095D01*
X127023809Y-82240476D01*
X127261904Y-82240476D01*
X127357142Y-82288095D01*
X127404761Y-82335714D01*
X127452380Y-82430952D01*
X127452380Y-82716666D01*
X127404761Y-82811904D01*
X127357142Y-82859523D01*
X126452380Y-81621428D02*
X126452380Y-81526190D01*
X126500000Y-81430952D01*
X126547619Y-81383333D01*
X126642857Y-81335714D01*
X126833333Y-81288095D01*
X127071428Y-81288095D01*
X127261904Y-81335714D01*
X127357142Y-81383333D01*
X127404761Y-81430952D01*
X127452380Y-81526190D01*
X127452380Y-81621428D01*
X127404761Y-81716666D01*
X127357142Y-81764285D01*
X127261904Y-81811904D01*
X127071428Y-81859523D01*
X126833333Y-81859523D01*
X126642857Y-81811904D01*
X126547619Y-81764285D01*
X126500000Y-81716666D01*
X126452380Y-81621428D01*
X150312380Y-64142857D02*
X149836190Y-64476190D01*
X150312380Y-64714285D02*
X149312380Y-64714285D01*
X149312380Y-64333333D01*
X149360000Y-64238095D01*
X149407619Y-64190476D01*
X149502857Y-64142857D01*
X149645714Y-64142857D01*
X149740952Y-64190476D01*
X149788571Y-64238095D01*
X149836190Y-64333333D01*
X149836190Y-64714285D01*
X149312380Y-63809523D02*
X149312380Y-63190476D01*
X149693333Y-63523809D01*
X149693333Y-63380952D01*
X149740952Y-63285714D01*
X149788571Y-63238095D01*
X149883809Y-63190476D01*
X150121904Y-63190476D01*
X150217142Y-63238095D01*
X150264761Y-63285714D01*
X150312380Y-63380952D01*
X150312380Y-63666666D01*
X150264761Y-63761904D01*
X150217142Y-63809523D01*
X150312380Y-62238095D02*
X150312380Y-62809523D01*
X150312380Y-62523809D02*
X149312380Y-62523809D01*
X149455238Y-62619047D01*
X149550476Y-62714285D01*
X149598095Y-62809523D01*
X133802380Y-83192857D02*
X133326190Y-83526190D01*
X133802380Y-83764285D02*
X132802380Y-83764285D01*
X132802380Y-83383333D01*
X132850000Y-83288095D01*
X132897619Y-83240476D01*
X132992857Y-83192857D01*
X133135714Y-83192857D01*
X133230952Y-83240476D01*
X133278571Y-83288095D01*
X133326190Y-83383333D01*
X133326190Y-83764285D01*
X132802380Y-82859523D02*
X132802380Y-82240476D01*
X133183333Y-82573809D01*
X133183333Y-82430952D01*
X133230952Y-82335714D01*
X133278571Y-82288095D01*
X133373809Y-82240476D01*
X133611904Y-82240476D01*
X133707142Y-82288095D01*
X133754761Y-82335714D01*
X133802380Y-82430952D01*
X133802380Y-82716666D01*
X133754761Y-82811904D01*
X133707142Y-82859523D01*
X132897619Y-81859523D02*
X132850000Y-81811904D01*
X132802380Y-81716666D01*
X132802380Y-81478571D01*
X132850000Y-81383333D01*
X132897619Y-81335714D01*
X132992857Y-81288095D01*
X133088095Y-81288095D01*
X133230952Y-81335714D01*
X133802380Y-81907142D01*
X133802380Y-81288095D01*
X141597142Y-72842380D02*
X141263809Y-72366190D01*
X141025714Y-72842380D02*
X141025714Y-71842380D01*
X141406666Y-71842380D01*
X141501904Y-71890000D01*
X141549523Y-71937619D01*
X141597142Y-72032857D01*
X141597142Y-72175714D01*
X141549523Y-72270952D01*
X141501904Y-72318571D01*
X141406666Y-72366190D01*
X141025714Y-72366190D01*
X141930476Y-71842380D02*
X142549523Y-71842380D01*
X142216190Y-72223333D01*
X142359047Y-72223333D01*
X142454285Y-72270952D01*
X142501904Y-72318571D01*
X142549523Y-72413809D01*
X142549523Y-72651904D01*
X142501904Y-72747142D01*
X142454285Y-72794761D01*
X142359047Y-72842380D01*
X142073333Y-72842380D01*
X141978095Y-72794761D01*
X141930476Y-72747142D01*
X142882857Y-71842380D02*
X143501904Y-71842380D01*
X143168571Y-72223333D01*
X143311428Y-72223333D01*
X143406666Y-72270952D01*
X143454285Y-72318571D01*
X143501904Y-72413809D01*
X143501904Y-72651904D01*
X143454285Y-72747142D01*
X143406666Y-72794761D01*
X143311428Y-72842380D01*
X143025714Y-72842380D01*
X142930476Y-72794761D01*
X142882857Y-72747142D01*
X138882380Y-83192857D02*
X138406190Y-83526190D01*
X138882380Y-83764285D02*
X137882380Y-83764285D01*
X137882380Y-83383333D01*
X137930000Y-83288095D01*
X137977619Y-83240476D01*
X138072857Y-83192857D01*
X138215714Y-83192857D01*
X138310952Y-83240476D01*
X138358571Y-83288095D01*
X138406190Y-83383333D01*
X138406190Y-83764285D01*
X137882380Y-82859523D02*
X137882380Y-82240476D01*
X138263333Y-82573809D01*
X138263333Y-82430952D01*
X138310952Y-82335714D01*
X138358571Y-82288095D01*
X138453809Y-82240476D01*
X138691904Y-82240476D01*
X138787142Y-82288095D01*
X138834761Y-82335714D01*
X138882380Y-82430952D01*
X138882380Y-82716666D01*
X138834761Y-82811904D01*
X138787142Y-82859523D01*
X138215714Y-81383333D02*
X138882380Y-81383333D01*
X137834761Y-81621428D02*
X138549047Y-81859523D01*
X138549047Y-81240476D01*
X157932380Y-64142857D02*
X157456190Y-64476190D01*
X157932380Y-64714285D02*
X156932380Y-64714285D01*
X156932380Y-64333333D01*
X156980000Y-64238095D01*
X157027619Y-64190476D01*
X157122857Y-64142857D01*
X157265714Y-64142857D01*
X157360952Y-64190476D01*
X157408571Y-64238095D01*
X157456190Y-64333333D01*
X157456190Y-64714285D01*
X156932380Y-63809523D02*
X156932380Y-63190476D01*
X157313333Y-63523809D01*
X157313333Y-63380952D01*
X157360952Y-63285714D01*
X157408571Y-63238095D01*
X157503809Y-63190476D01*
X157741904Y-63190476D01*
X157837142Y-63238095D01*
X157884761Y-63285714D01*
X157932380Y-63380952D01*
X157932380Y-63666666D01*
X157884761Y-63761904D01*
X157837142Y-63809523D01*
X156932380Y-62285714D02*
X156932380Y-62761904D01*
X157408571Y-62809523D01*
X157360952Y-62761904D01*
X157313333Y-62666666D01*
X157313333Y-62428571D01*
X157360952Y-62333333D01*
X157408571Y-62285714D01*
X157503809Y-62238095D01*
X157741904Y-62238095D01*
X157837142Y-62285714D01*
X157884761Y-62333333D01*
X157932380Y-62428571D01*
X157932380Y-62666666D01*
X157884761Y-62761904D01*
X157837142Y-62809523D01*
X153027142Y-72842380D02*
X152693809Y-72366190D01*
X152455714Y-72842380D02*
X152455714Y-71842380D01*
X152836666Y-71842380D01*
X152931904Y-71890000D01*
X152979523Y-71937619D01*
X153027142Y-72032857D01*
X153027142Y-72175714D01*
X152979523Y-72270952D01*
X152931904Y-72318571D01*
X152836666Y-72366190D01*
X152455714Y-72366190D01*
X153360476Y-71842380D02*
X153979523Y-71842380D01*
X153646190Y-72223333D01*
X153789047Y-72223333D01*
X153884285Y-72270952D01*
X153931904Y-72318571D01*
X153979523Y-72413809D01*
X153979523Y-72651904D01*
X153931904Y-72747142D01*
X153884285Y-72794761D01*
X153789047Y-72842380D01*
X153503333Y-72842380D01*
X153408095Y-72794761D01*
X153360476Y-72747142D01*
X154836666Y-71842380D02*
X154646190Y-71842380D01*
X154550952Y-71890000D01*
X154503333Y-71937619D01*
X154408095Y-72080476D01*
X154360476Y-72270952D01*
X154360476Y-72651904D01*
X154408095Y-72747142D01*
X154455714Y-72794761D01*
X154550952Y-72842380D01*
X154741428Y-72842380D01*
X154836666Y-72794761D01*
X154884285Y-72747142D01*
X154931904Y-72651904D01*
X154931904Y-72413809D01*
X154884285Y-72318571D01*
X154836666Y-72270952D01*
X154741428Y-72223333D01*
X154550952Y-72223333D01*
X154455714Y-72270952D01*
X154408095Y-72318571D01*
X154360476Y-72413809D01*
X149217142Y-94432380D02*
X148883809Y-93956190D01*
X148645714Y-94432380D02*
X148645714Y-93432380D01*
X149026666Y-93432380D01*
X149121904Y-93480000D01*
X149169523Y-93527619D01*
X149217142Y-93622857D01*
X149217142Y-93765714D01*
X149169523Y-93860952D01*
X149121904Y-93908571D01*
X149026666Y-93956190D01*
X148645714Y-93956190D01*
X149550476Y-93432380D02*
X150169523Y-93432380D01*
X149836190Y-93813333D01*
X149979047Y-93813333D01*
X150074285Y-93860952D01*
X150121904Y-93908571D01*
X150169523Y-94003809D01*
X150169523Y-94241904D01*
X150121904Y-94337142D01*
X150074285Y-94384761D01*
X149979047Y-94432380D01*
X149693333Y-94432380D01*
X149598095Y-94384761D01*
X149550476Y-94337142D01*
X150502857Y-93432380D02*
X151169523Y-93432380D01*
X150740952Y-94432380D01*
X149217142Y-99512380D02*
X148883809Y-99036190D01*
X148645714Y-99512380D02*
X148645714Y-98512380D01*
X149026666Y-98512380D01*
X149121904Y-98560000D01*
X149169523Y-98607619D01*
X149217142Y-98702857D01*
X149217142Y-98845714D01*
X149169523Y-98940952D01*
X149121904Y-98988571D01*
X149026666Y-99036190D01*
X148645714Y-99036190D01*
X149550476Y-98512380D02*
X150169523Y-98512380D01*
X149836190Y-98893333D01*
X149979047Y-98893333D01*
X150074285Y-98940952D01*
X150121904Y-98988571D01*
X150169523Y-99083809D01*
X150169523Y-99321904D01*
X150121904Y-99417142D01*
X150074285Y-99464761D01*
X149979047Y-99512380D01*
X149693333Y-99512380D01*
X149598095Y-99464761D01*
X149550476Y-99417142D01*
X150740952Y-98940952D02*
X150645714Y-98893333D01*
X150598095Y-98845714D01*
X150550476Y-98750476D01*
X150550476Y-98702857D01*
X150598095Y-98607619D01*
X150645714Y-98560000D01*
X150740952Y-98512380D01*
X150931428Y-98512380D01*
X151026666Y-98560000D01*
X151074285Y-98607619D01*
X151121904Y-98702857D01*
X151121904Y-98750476D01*
X151074285Y-98845714D01*
X151026666Y-98893333D01*
X150931428Y-98940952D01*
X150740952Y-98940952D01*
X150645714Y-98988571D01*
X150598095Y-99036190D01*
X150550476Y-99131428D01*
X150550476Y-99321904D01*
X150598095Y-99417142D01*
X150645714Y-99464761D01*
X150740952Y-99512380D01*
X150931428Y-99512380D01*
X151026666Y-99464761D01*
X151074285Y-99417142D01*
X151121904Y-99321904D01*
X151121904Y-99131428D01*
X151074285Y-99036190D01*
X151026666Y-98988571D01*
X150931428Y-98940952D01*
X122547142Y-93162380D02*
X122213809Y-92686190D01*
X121975714Y-93162380D02*
X121975714Y-92162380D01*
X122356666Y-92162380D01*
X122451904Y-92210000D01*
X122499523Y-92257619D01*
X122547142Y-92352857D01*
X122547142Y-92495714D01*
X122499523Y-92590952D01*
X122451904Y-92638571D01*
X122356666Y-92686190D01*
X121975714Y-92686190D01*
X122880476Y-92162380D02*
X123499523Y-92162380D01*
X123166190Y-92543333D01*
X123309047Y-92543333D01*
X123404285Y-92590952D01*
X123451904Y-92638571D01*
X123499523Y-92733809D01*
X123499523Y-92971904D01*
X123451904Y-93067142D01*
X123404285Y-93114761D01*
X123309047Y-93162380D01*
X123023333Y-93162380D01*
X122928095Y-93114761D01*
X122880476Y-93067142D01*
X123975714Y-93162380D02*
X124166190Y-93162380D01*
X124261428Y-93114761D01*
X124309047Y-93067142D01*
X124404285Y-92924285D01*
X124451904Y-92733809D01*
X124451904Y-92352857D01*
X124404285Y-92257619D01*
X124356666Y-92210000D01*
X124261428Y-92162380D01*
X124070952Y-92162380D01*
X123975714Y-92210000D01*
X123928095Y-92257619D01*
X123880476Y-92352857D01*
X123880476Y-92590952D01*
X123928095Y-92686190D01*
X123975714Y-92733809D01*
X124070952Y-92781428D01*
X124261428Y-92781428D01*
X124356666Y-92733809D01*
X124404285Y-92686190D01*
X124451904Y-92590952D01*
X97147142Y-93162380D02*
X96813809Y-92686190D01*
X96575714Y-93162380D02*
X96575714Y-92162380D01*
X96956666Y-92162380D01*
X97051904Y-92210000D01*
X97099523Y-92257619D01*
X97147142Y-92352857D01*
X97147142Y-92495714D01*
X97099523Y-92590952D01*
X97051904Y-92638571D01*
X96956666Y-92686190D01*
X96575714Y-92686190D01*
X98004285Y-92495714D02*
X98004285Y-93162380D01*
X97766190Y-92114761D02*
X97528095Y-92829047D01*
X98147142Y-92829047D01*
X98718571Y-92162380D02*
X98813809Y-92162380D01*
X98909047Y-92210000D01*
X98956666Y-92257619D01*
X99004285Y-92352857D01*
X99051904Y-92543333D01*
X99051904Y-92781428D01*
X99004285Y-92971904D01*
X98956666Y-93067142D01*
X98909047Y-93114761D01*
X98813809Y-93162380D01*
X98718571Y-93162380D01*
X98623333Y-93114761D01*
X98575714Y-93067142D01*
X98528095Y-92971904D01*
X98480476Y-92781428D01*
X98480476Y-92543333D01*
X98528095Y-92352857D01*
X98575714Y-92257619D01*
X98623333Y-92210000D01*
X98718571Y-92162380D01*
X75398571Y-89142380D02*
X74922380Y-89142380D01*
X74922380Y-88142380D01*
X76065238Y-88618571D02*
X75731904Y-88618571D01*
X75731904Y-89142380D02*
X75731904Y-88142380D01*
X76208095Y-88142380D01*
X76493809Y-88142380D02*
X77112857Y-88142380D01*
X76779523Y-88523333D01*
X76922380Y-88523333D01*
X77017619Y-88570952D01*
X77065238Y-88618571D01*
X77112857Y-88713809D01*
X77112857Y-88951904D01*
X77065238Y-89047142D01*
X77017619Y-89094761D01*
X76922380Y-89142380D01*
X76636666Y-89142380D01*
X76541428Y-89094761D01*
X76493809Y-89047142D01*
X78017619Y-88142380D02*
X77541428Y-88142380D01*
X77493809Y-88618571D01*
X77541428Y-88570952D01*
X77636666Y-88523333D01*
X77874761Y-88523333D01*
X77970000Y-88570952D01*
X78017619Y-88618571D01*
X78065238Y-88713809D01*
X78065238Y-88951904D01*
X78017619Y-89047142D01*
X77970000Y-89094761D01*
X77874761Y-89142380D01*
X77636666Y-89142380D01*
X77541428Y-89094761D01*
X77493809Y-89047142D01*
X78398571Y-88142380D02*
X79017619Y-88142380D01*
X78684285Y-88523333D01*
X78827142Y-88523333D01*
X78922380Y-88570952D01*
X78970000Y-88618571D01*
X79017619Y-88713809D01*
X79017619Y-88951904D01*
X78970000Y-89047142D01*
X78922380Y-89094761D01*
X78827142Y-89142380D01*
X78541428Y-89142380D01*
X78446190Y-89094761D01*
X78398571Y-89047142D01*
X79446190Y-89142380D02*
X79446190Y-88142380D01*
X80017619Y-89142380D01*
X80017619Y-88142380D01*
X76708095Y-82002380D02*
X76708095Y-82811904D01*
X76755714Y-82907142D01*
X76803333Y-82954761D01*
X76898571Y-83002380D01*
X77089047Y-83002380D01*
X77184285Y-82954761D01*
X77231904Y-82907142D01*
X77279523Y-82811904D01*
X77279523Y-82002380D01*
X78279523Y-83002380D02*
X77708095Y-83002380D01*
X77993809Y-83002380D02*
X77993809Y-82002380D01*
X77898571Y-82145238D01*
X77803333Y-82240476D01*
X77708095Y-82288095D01*
X95718571Y-89142380D02*
X95242380Y-89142380D01*
X95242380Y-88142380D01*
X96385238Y-88618571D02*
X96051904Y-88618571D01*
X96051904Y-89142380D02*
X96051904Y-88142380D01*
X96528095Y-88142380D01*
X96813809Y-88142380D02*
X97432857Y-88142380D01*
X97099523Y-88523333D01*
X97242380Y-88523333D01*
X97337619Y-88570952D01*
X97385238Y-88618571D01*
X97432857Y-88713809D01*
X97432857Y-88951904D01*
X97385238Y-89047142D01*
X97337619Y-89094761D01*
X97242380Y-89142380D01*
X96956666Y-89142380D01*
X96861428Y-89094761D01*
X96813809Y-89047142D01*
X98337619Y-88142380D02*
X97861428Y-88142380D01*
X97813809Y-88618571D01*
X97861428Y-88570952D01*
X97956666Y-88523333D01*
X98194761Y-88523333D01*
X98290000Y-88570952D01*
X98337619Y-88618571D01*
X98385238Y-88713809D01*
X98385238Y-88951904D01*
X98337619Y-89047142D01*
X98290000Y-89094761D01*
X98194761Y-89142380D01*
X97956666Y-89142380D01*
X97861428Y-89094761D01*
X97813809Y-89047142D01*
X98718571Y-88142380D02*
X99337619Y-88142380D01*
X99004285Y-88523333D01*
X99147142Y-88523333D01*
X99242380Y-88570952D01*
X99290000Y-88618571D01*
X99337619Y-88713809D01*
X99337619Y-88951904D01*
X99290000Y-89047142D01*
X99242380Y-89094761D01*
X99147142Y-89142380D01*
X98861428Y-89142380D01*
X98766190Y-89094761D01*
X98718571Y-89047142D01*
X99766190Y-89142380D02*
X99766190Y-88142380D01*
X100337619Y-89142380D01*
X100337619Y-88142380D01*
X97028095Y-82002380D02*
X97028095Y-82811904D01*
X97075714Y-82907142D01*
X97123333Y-82954761D01*
X97218571Y-83002380D01*
X97409047Y-83002380D01*
X97504285Y-82954761D01*
X97551904Y-82907142D01*
X97599523Y-82811904D01*
X97599523Y-82002380D01*
X98028095Y-82097619D02*
X98075714Y-82050000D01*
X98170952Y-82002380D01*
X98409047Y-82002380D01*
X98504285Y-82050000D01*
X98551904Y-82097619D01*
X98599523Y-82192857D01*
X98599523Y-82288095D01*
X98551904Y-82430952D01*
X97980476Y-83002380D01*
X98599523Y-83002380D01*
X113498571Y-89142380D02*
X113022380Y-89142380D01*
X113022380Y-88142380D01*
X114165238Y-88618571D02*
X113831904Y-88618571D01*
X113831904Y-89142380D02*
X113831904Y-88142380D01*
X114308095Y-88142380D01*
X114593809Y-88142380D02*
X115212857Y-88142380D01*
X114879523Y-88523333D01*
X115022380Y-88523333D01*
X115117619Y-88570952D01*
X115165238Y-88618571D01*
X115212857Y-88713809D01*
X115212857Y-88951904D01*
X115165238Y-89047142D01*
X115117619Y-89094761D01*
X115022380Y-89142380D01*
X114736666Y-89142380D01*
X114641428Y-89094761D01*
X114593809Y-89047142D01*
X116117619Y-88142380D02*
X115641428Y-88142380D01*
X115593809Y-88618571D01*
X115641428Y-88570952D01*
X115736666Y-88523333D01*
X115974761Y-88523333D01*
X116070000Y-88570952D01*
X116117619Y-88618571D01*
X116165238Y-88713809D01*
X116165238Y-88951904D01*
X116117619Y-89047142D01*
X116070000Y-89094761D01*
X115974761Y-89142380D01*
X115736666Y-89142380D01*
X115641428Y-89094761D01*
X115593809Y-89047142D01*
X116498571Y-88142380D02*
X117117619Y-88142380D01*
X116784285Y-88523333D01*
X116927142Y-88523333D01*
X117022380Y-88570952D01*
X117070000Y-88618571D01*
X117117619Y-88713809D01*
X117117619Y-88951904D01*
X117070000Y-89047142D01*
X117022380Y-89094761D01*
X116927142Y-89142380D01*
X116641428Y-89142380D01*
X116546190Y-89094761D01*
X116498571Y-89047142D01*
X117546190Y-89142380D02*
X117546190Y-88142380D01*
X118117619Y-89142380D01*
X118117619Y-88142380D01*
X114808095Y-82002380D02*
X114808095Y-82811904D01*
X114855714Y-82907142D01*
X114903333Y-82954761D01*
X114998571Y-83002380D01*
X115189047Y-83002380D01*
X115284285Y-82954761D01*
X115331904Y-82907142D01*
X115379523Y-82811904D01*
X115379523Y-82002380D01*
X115760476Y-82002380D02*
X116379523Y-82002380D01*
X116046190Y-82383333D01*
X116189047Y-82383333D01*
X116284285Y-82430952D01*
X116331904Y-82478571D01*
X116379523Y-82573809D01*
X116379523Y-82811904D01*
X116331904Y-82907142D01*
X116284285Y-82954761D01*
X116189047Y-83002380D01*
X115903333Y-83002380D01*
X115808095Y-82954761D01*
X115760476Y-82907142D01*
X146518571Y-89142380D02*
X146042380Y-89142380D01*
X146042380Y-88142380D01*
X147185238Y-88618571D02*
X146851904Y-88618571D01*
X146851904Y-89142380D02*
X146851904Y-88142380D01*
X147328095Y-88142380D01*
X147613809Y-88142380D02*
X148232857Y-88142380D01*
X147899523Y-88523333D01*
X148042380Y-88523333D01*
X148137619Y-88570952D01*
X148185238Y-88618571D01*
X148232857Y-88713809D01*
X148232857Y-88951904D01*
X148185238Y-89047142D01*
X148137619Y-89094761D01*
X148042380Y-89142380D01*
X147756666Y-89142380D01*
X147661428Y-89094761D01*
X147613809Y-89047142D01*
X149137619Y-88142380D02*
X148661428Y-88142380D01*
X148613809Y-88618571D01*
X148661428Y-88570952D01*
X148756666Y-88523333D01*
X148994761Y-88523333D01*
X149090000Y-88570952D01*
X149137619Y-88618571D01*
X149185238Y-88713809D01*
X149185238Y-88951904D01*
X149137619Y-89047142D01*
X149090000Y-89094761D01*
X148994761Y-89142380D01*
X148756666Y-89142380D01*
X148661428Y-89094761D01*
X148613809Y-89047142D01*
X149518571Y-88142380D02*
X150137619Y-88142380D01*
X149804285Y-88523333D01*
X149947142Y-88523333D01*
X150042380Y-88570952D01*
X150090000Y-88618571D01*
X150137619Y-88713809D01*
X150137619Y-88951904D01*
X150090000Y-89047142D01*
X150042380Y-89094761D01*
X149947142Y-89142380D01*
X149661428Y-89142380D01*
X149566190Y-89094761D01*
X149518571Y-89047142D01*
X150566190Y-89142380D02*
X150566190Y-88142380D01*
X151137619Y-89142380D01*
X151137619Y-88142380D01*
X147828095Y-82002380D02*
X147828095Y-82811904D01*
X147875714Y-82907142D01*
X147923333Y-82954761D01*
X148018571Y-83002380D01*
X148209047Y-83002380D01*
X148304285Y-82954761D01*
X148351904Y-82907142D01*
X148399523Y-82811904D01*
X148399523Y-82002380D01*
X149304285Y-82335714D02*
X149304285Y-83002380D01*
X149066190Y-81954761D02*
X148828095Y-82669047D01*
X149447142Y-82669047D01*
X56983333Y-62682380D02*
X56650000Y-62206190D01*
X56411904Y-62682380D02*
X56411904Y-61682380D01*
X56792857Y-61682380D01*
X56888095Y-61730000D01*
X56935714Y-61777619D01*
X56983333Y-61872857D01*
X56983333Y-62015714D01*
X56935714Y-62110952D01*
X56888095Y-62158571D01*
X56792857Y-62206190D01*
X56411904Y-62206190D01*
X57554761Y-62110952D02*
X57459523Y-62063333D01*
X57411904Y-62015714D01*
X57364285Y-61920476D01*
X57364285Y-61872857D01*
X57411904Y-61777619D01*
X57459523Y-61730000D01*
X57554761Y-61682380D01*
X57745238Y-61682380D01*
X57840476Y-61730000D01*
X57888095Y-61777619D01*
X57935714Y-61872857D01*
X57935714Y-61920476D01*
X57888095Y-62015714D01*
X57840476Y-62063333D01*
X57745238Y-62110952D01*
X57554761Y-62110952D01*
X57459523Y-62158571D01*
X57411904Y-62206190D01*
X57364285Y-62301428D01*
X57364285Y-62491904D01*
X57411904Y-62587142D01*
X57459523Y-62634761D01*
X57554761Y-62682380D01*
X57745238Y-62682380D01*
X57840476Y-62634761D01*
X57888095Y-62587142D01*
X57935714Y-62491904D01*
X57935714Y-62301428D01*
X57888095Y-62206190D01*
X57840476Y-62158571D01*
X57745238Y-62110952D01*
M02*
