G04 #@! TF.GenerationSoftware,KiCad,Pcbnew,(5.1.0-0)*
G04 #@! TF.CreationDate,2019-04-02T15:54:33-07:00*
G04 #@! TF.ProjectId,Pre-amp,5072652d-616d-4702-9e6b-696361645f70,rev?*
G04 #@! TF.SameCoordinates,Original*
G04 #@! TF.FileFunction,Legend,Top*
G04 #@! TF.FilePolarity,Positive*
%FSLAX46Y46*%
G04 Gerber Fmt 4.6, Leading zero omitted, Abs format (unit mm)*
G04 Created by KiCad (PCBNEW (5.1.0-0)) date 2019-04-02 15:54:33*
%MOMM*%
%LPD*%
G04 APERTURE LIST*
%ADD10C,0.150000*%
%ADD11C,0.200000*%
%ADD12C,0.100000*%
%ADD13C,0.120000*%
G04 APERTURE END LIST*
D10*
X74589095Y-22536380D02*
X74684333Y-22536380D01*
X74779571Y-22584000D01*
X74827190Y-22631619D01*
X74874809Y-22726857D01*
X74922428Y-22917333D01*
X74922428Y-23155428D01*
X74874809Y-23345904D01*
X74827190Y-23441142D01*
X74779571Y-23488761D01*
X74684333Y-23536380D01*
X74589095Y-23536380D01*
X74493857Y-23488761D01*
X74446238Y-23441142D01*
X74398619Y-23345904D01*
X74351000Y-23155428D01*
X74351000Y-22917333D01*
X74398619Y-22726857D01*
X74446238Y-22631619D01*
X74493857Y-22584000D01*
X74589095Y-22536380D01*
X75351000Y-23441142D02*
X75398619Y-23488761D01*
X75351000Y-23536380D01*
X75303380Y-23488761D01*
X75351000Y-23441142D01*
X75351000Y-23536380D01*
X75970047Y-22964952D02*
X75874809Y-22917333D01*
X75827190Y-22869714D01*
X75779571Y-22774476D01*
X75779571Y-22726857D01*
X75827190Y-22631619D01*
X75874809Y-22584000D01*
X75970047Y-22536380D01*
X76160523Y-22536380D01*
X76255761Y-22584000D01*
X76303380Y-22631619D01*
X76351000Y-22726857D01*
X76351000Y-22774476D01*
X76303380Y-22869714D01*
X76255761Y-22917333D01*
X76160523Y-22964952D01*
X75970047Y-22964952D01*
X75874809Y-23012571D01*
X75827190Y-23060190D01*
X75779571Y-23155428D01*
X75779571Y-23345904D01*
X75827190Y-23441142D01*
X75874809Y-23488761D01*
X75970047Y-23536380D01*
X76160523Y-23536380D01*
X76255761Y-23488761D01*
X76303380Y-23441142D01*
X76351000Y-23345904D01*
X76351000Y-23155428D01*
X76303380Y-23060190D01*
X76255761Y-23012571D01*
X76160523Y-22964952D01*
X77303380Y-23536380D02*
X76731952Y-23536380D01*
X77017666Y-23536380D02*
X77017666Y-22536380D01*
X76922428Y-22679238D01*
X76827190Y-22774476D01*
X76731952Y-22822095D01*
X77922428Y-22536380D02*
X78017666Y-22536380D01*
X78112904Y-22584000D01*
X78160523Y-22631619D01*
X78208142Y-22726857D01*
X78255761Y-22917333D01*
X78255761Y-23155428D01*
X78208142Y-23345904D01*
X78160523Y-23441142D01*
X78112904Y-23488761D01*
X78017666Y-23536380D01*
X77922428Y-23536380D01*
X77827190Y-23488761D01*
X77779571Y-23441142D01*
X77731952Y-23345904D01*
X77684333Y-23155428D01*
X77684333Y-22917333D01*
X77731952Y-22726857D01*
X77779571Y-22631619D01*
X77827190Y-22584000D01*
X77922428Y-22536380D01*
X78874809Y-22536380D02*
X78970047Y-22536380D01*
X79065285Y-22584000D01*
X79112904Y-22631619D01*
X79160523Y-22726857D01*
X79208142Y-22917333D01*
X79208142Y-23155428D01*
X79160523Y-23345904D01*
X79112904Y-23441142D01*
X79065285Y-23488761D01*
X78970047Y-23536380D01*
X78874809Y-23536380D01*
X78779571Y-23488761D01*
X78731952Y-23441142D01*
X78684333Y-23345904D01*
X78636714Y-23155428D01*
X78636714Y-22917333D01*
X78684333Y-22726857D01*
X78731952Y-22631619D01*
X78779571Y-22584000D01*
X78874809Y-22536380D01*
X80398619Y-23536380D02*
X80398619Y-22869714D01*
X80398619Y-22536380D02*
X80351000Y-22584000D01*
X80398619Y-22631619D01*
X80446238Y-22584000D01*
X80398619Y-22536380D01*
X80398619Y-22631619D01*
X80874809Y-22869714D02*
X80874809Y-23536380D01*
X80874809Y-22964952D02*
X80922428Y-22917333D01*
X81017666Y-22869714D01*
X81160523Y-22869714D01*
X81255761Y-22917333D01*
X81303380Y-23012571D01*
X81303380Y-23536380D01*
X88138000Y-24384000D02*
X67564000Y-24384000D01*
X88138000Y-50546000D02*
X88138000Y-23797579D01*
X67564000Y-50546000D02*
X67564000Y-23797579D01*
X67564000Y-24384000D02*
X68690504Y-23797579D01*
X67564000Y-24384000D02*
X68690504Y-24970421D01*
X88138000Y-24384000D02*
X87011496Y-23797579D01*
X88138000Y-24384000D02*
X87011496Y-24970421D01*
D11*
X59126761Y-55840380D02*
X59460095Y-56840380D01*
X59793428Y-55840380D01*
X60269619Y-56840380D02*
X60174380Y-56792761D01*
X60126761Y-56745142D01*
X60079142Y-56649904D01*
X60079142Y-56364190D01*
X60126761Y-56268952D01*
X60174380Y-56221333D01*
X60269619Y-56173714D01*
X60412476Y-56173714D01*
X60507714Y-56221333D01*
X60555333Y-56268952D01*
X60602952Y-56364190D01*
X60602952Y-56649904D01*
X60555333Y-56745142D01*
X60507714Y-56792761D01*
X60412476Y-56840380D01*
X60269619Y-56840380D01*
X61174380Y-56840380D02*
X61079142Y-56792761D01*
X61031523Y-56697523D01*
X61031523Y-55840380D01*
X61983904Y-56173714D02*
X61983904Y-56840380D01*
X61555333Y-56173714D02*
X61555333Y-56697523D01*
X61602952Y-56792761D01*
X61698190Y-56840380D01*
X61841047Y-56840380D01*
X61936285Y-56792761D01*
X61983904Y-56745142D01*
X62460095Y-56840380D02*
X62460095Y-56173714D01*
X62460095Y-56268952D02*
X62507714Y-56221333D01*
X62602952Y-56173714D01*
X62745809Y-56173714D01*
X62841047Y-56221333D01*
X62888666Y-56316571D01*
X62888666Y-56840380D01*
X62888666Y-56316571D02*
X62936285Y-56221333D01*
X63031523Y-56173714D01*
X63174380Y-56173714D01*
X63269619Y-56221333D01*
X63317238Y-56316571D01*
X63317238Y-56840380D01*
X64174380Y-56792761D02*
X64079142Y-56840380D01*
X63888666Y-56840380D01*
X63793428Y-56792761D01*
X63745809Y-56697523D01*
X63745809Y-56316571D01*
X63793428Y-56221333D01*
X63888666Y-56173714D01*
X64079142Y-56173714D01*
X64174380Y-56221333D01*
X64222000Y-56316571D01*
X64222000Y-56411809D01*
X63745809Y-56507047D01*
D12*
X54572428Y-90219571D02*
X54643857Y-90255285D01*
X54786714Y-90255285D01*
X54858142Y-90219571D01*
X54893857Y-90148142D01*
X54893857Y-90112428D01*
X54858142Y-90041000D01*
X54786714Y-90005285D01*
X54679571Y-90005285D01*
X54608142Y-89969571D01*
X54572428Y-89898142D01*
X54572428Y-89862428D01*
X54608142Y-89791000D01*
X54679571Y-89755285D01*
X54786714Y-89755285D01*
X54858142Y-89791000D01*
X55215285Y-90255285D02*
X55215285Y-89505285D01*
X55536714Y-90255285D02*
X55536714Y-89862428D01*
X55501000Y-89791000D01*
X55429571Y-89755285D01*
X55322428Y-89755285D01*
X55251000Y-89791000D01*
X55215285Y-89826714D01*
X55893857Y-89755285D02*
X55893857Y-90255285D01*
X55893857Y-89826714D02*
X55929571Y-89791000D01*
X56001000Y-89755285D01*
X56108142Y-89755285D01*
X56179571Y-89791000D01*
X56215285Y-89862428D01*
X56215285Y-90255285D01*
X56465285Y-89755285D02*
X56751000Y-89755285D01*
X56572428Y-89505285D02*
X56572428Y-90148142D01*
X56608142Y-90219571D01*
X56679571Y-90255285D01*
X56751000Y-90255285D01*
X54820428Y-88441571D02*
X54891857Y-88477285D01*
X55034714Y-88477285D01*
X55106142Y-88441571D01*
X55141857Y-88370142D01*
X55141857Y-88334428D01*
X55106142Y-88263000D01*
X55034714Y-88227285D01*
X54927571Y-88227285D01*
X54856142Y-88191571D01*
X54820428Y-88120142D01*
X54820428Y-88084428D01*
X54856142Y-88013000D01*
X54927571Y-87977285D01*
X55034714Y-87977285D01*
X55106142Y-88013000D01*
X55463285Y-88477285D02*
X55463285Y-87977285D01*
X55463285Y-87727285D02*
X55427571Y-87763000D01*
X55463285Y-87798714D01*
X55499000Y-87763000D01*
X55463285Y-87727285D01*
X55463285Y-87798714D01*
X56141857Y-87977285D02*
X56141857Y-88584428D01*
X56106142Y-88655857D01*
X56070428Y-88691571D01*
X55999000Y-88727285D01*
X55891857Y-88727285D01*
X55820428Y-88691571D01*
X56141857Y-88441571D02*
X56070428Y-88477285D01*
X55927571Y-88477285D01*
X55856142Y-88441571D01*
X55820428Y-88405857D01*
X55784714Y-88334428D01*
X55784714Y-88120142D01*
X55820428Y-88048714D01*
X55856142Y-88013000D01*
X55927571Y-87977285D01*
X56070428Y-87977285D01*
X56141857Y-88013000D01*
X54800571Y-85477000D02*
X54729142Y-85441285D01*
X54622000Y-85441285D01*
X54514857Y-85477000D01*
X54443428Y-85548428D01*
X54407714Y-85619857D01*
X54372000Y-85762714D01*
X54372000Y-85869857D01*
X54407714Y-86012714D01*
X54443428Y-86084142D01*
X54514857Y-86155571D01*
X54622000Y-86191285D01*
X54693428Y-86191285D01*
X54800571Y-86155571D01*
X54836285Y-86119857D01*
X54836285Y-85869857D01*
X54693428Y-85869857D01*
X55157714Y-86191285D02*
X55157714Y-85441285D01*
X55586285Y-86191285D01*
X55586285Y-85441285D01*
X55943428Y-86191285D02*
X55943428Y-85441285D01*
X56122000Y-85441285D01*
X56229142Y-85477000D01*
X56300571Y-85548428D01*
X56336285Y-85619857D01*
X56372000Y-85762714D01*
X56372000Y-85869857D01*
X56336285Y-86012714D01*
X56300571Y-86084142D01*
X56229142Y-86155571D01*
X56122000Y-86191285D01*
X55943428Y-86191285D01*
X53552285Y-94196142D02*
X52802285Y-94196142D01*
X53052285Y-93839000D02*
X53552285Y-93839000D01*
X53123714Y-93839000D02*
X53088000Y-93803285D01*
X53052285Y-93731857D01*
X53052285Y-93624714D01*
X53088000Y-93553285D01*
X53159428Y-93517571D01*
X53552285Y-93517571D01*
X53052285Y-93160428D02*
X53802285Y-93160428D01*
X53088000Y-93160428D02*
X53052285Y-93089000D01*
X53052285Y-92946142D01*
X53088000Y-92874714D01*
X53123714Y-92839000D01*
X53195142Y-92803285D01*
X53409428Y-92803285D01*
X53480857Y-92839000D01*
X53516571Y-92874714D01*
X53552285Y-92946142D01*
X53552285Y-93089000D01*
X53516571Y-93160428D01*
X53052285Y-92160428D02*
X53552285Y-92160428D01*
X53052285Y-92481857D02*
X53445142Y-92481857D01*
X53516571Y-92446142D01*
X53552285Y-92374714D01*
X53552285Y-92267571D01*
X53516571Y-92196142D01*
X53480857Y-92160428D01*
X53052285Y-91910428D02*
X53052285Y-91624714D01*
X52802285Y-91803285D02*
X53445142Y-91803285D01*
X53516571Y-91767571D01*
X53552285Y-91696142D01*
X53552285Y-91624714D01*
X121080571Y-97658857D02*
X121116285Y-97587428D01*
X121116285Y-97444571D01*
X121080571Y-97373142D01*
X121009142Y-97337428D01*
X120973428Y-97337428D01*
X120902000Y-97373142D01*
X120866285Y-97444571D01*
X120866285Y-97551714D01*
X120830571Y-97623142D01*
X120759142Y-97658857D01*
X120723428Y-97658857D01*
X120652000Y-97623142D01*
X120616285Y-97551714D01*
X120616285Y-97444571D01*
X120652000Y-97373142D01*
X121116285Y-97016000D02*
X120366285Y-97016000D01*
X121116285Y-96694571D02*
X120723428Y-96694571D01*
X120652000Y-96730285D01*
X120616285Y-96801714D01*
X120616285Y-96908857D01*
X120652000Y-96980285D01*
X120687714Y-97016000D01*
X120616285Y-96016000D02*
X121116285Y-96016000D01*
X120616285Y-96337428D02*
X121009142Y-96337428D01*
X121080571Y-96301714D01*
X121116285Y-96230285D01*
X121116285Y-96123142D01*
X121080571Y-96051714D01*
X121044857Y-96016000D01*
X120616285Y-95658857D02*
X121116285Y-95658857D01*
X120687714Y-95658857D02*
X120652000Y-95623142D01*
X120616285Y-95551714D01*
X120616285Y-95444571D01*
X120652000Y-95373142D01*
X120723428Y-95337428D01*
X121116285Y-95337428D01*
X120616285Y-95087428D02*
X120616285Y-94801714D01*
X120366285Y-94980285D02*
X121009142Y-94980285D01*
X121080571Y-94944571D01*
X121116285Y-94873142D01*
X121116285Y-94801714D01*
X122985571Y-97706571D02*
X123021285Y-97635142D01*
X123021285Y-97492285D01*
X122985571Y-97420857D01*
X122914142Y-97385142D01*
X122878428Y-97385142D01*
X122807000Y-97420857D01*
X122771285Y-97492285D01*
X122771285Y-97599428D01*
X122735571Y-97670857D01*
X122664142Y-97706571D01*
X122628428Y-97706571D01*
X122557000Y-97670857D01*
X122521285Y-97599428D01*
X122521285Y-97492285D01*
X122557000Y-97420857D01*
X123021285Y-97063714D02*
X122521285Y-97063714D01*
X122271285Y-97063714D02*
X122307000Y-97099428D01*
X122342714Y-97063714D01*
X122307000Y-97028000D01*
X122271285Y-97063714D01*
X122342714Y-97063714D01*
X122521285Y-96385142D02*
X123128428Y-96385142D01*
X123199857Y-96420857D01*
X123235571Y-96456571D01*
X123271285Y-96528000D01*
X123271285Y-96635142D01*
X123235571Y-96706571D01*
X122985571Y-96385142D02*
X123021285Y-96456571D01*
X123021285Y-96599428D01*
X122985571Y-96670857D01*
X122949857Y-96706571D01*
X122878428Y-96742285D01*
X122664142Y-96742285D01*
X122592714Y-96706571D01*
X122557000Y-96670857D01*
X122521285Y-96599428D01*
X122521285Y-96456571D01*
X122557000Y-96385142D01*
X111301571Y-97706571D02*
X111337285Y-97635142D01*
X111337285Y-97492285D01*
X111301571Y-97420857D01*
X111230142Y-97385142D01*
X111194428Y-97385142D01*
X111123000Y-97420857D01*
X111087285Y-97492285D01*
X111087285Y-97599428D01*
X111051571Y-97670857D01*
X110980142Y-97706571D01*
X110944428Y-97706571D01*
X110873000Y-97670857D01*
X110837285Y-97599428D01*
X110837285Y-97492285D01*
X110873000Y-97420857D01*
X111337285Y-97063714D02*
X110837285Y-97063714D01*
X110587285Y-97063714D02*
X110623000Y-97099428D01*
X110658714Y-97063714D01*
X110623000Y-97028000D01*
X110587285Y-97063714D01*
X110658714Y-97063714D01*
X110837285Y-96385142D02*
X111444428Y-96385142D01*
X111515857Y-96420857D01*
X111551571Y-96456571D01*
X111587285Y-96528000D01*
X111587285Y-96635142D01*
X111551571Y-96706571D01*
X111301571Y-96385142D02*
X111337285Y-96456571D01*
X111337285Y-96599428D01*
X111301571Y-96670857D01*
X111265857Y-96706571D01*
X111194428Y-96742285D01*
X110980142Y-96742285D01*
X110908714Y-96706571D01*
X110873000Y-96670857D01*
X110837285Y-96599428D01*
X110837285Y-96456571D01*
X110873000Y-96385142D01*
X109305285Y-97617285D02*
X108555285Y-97617285D01*
X109305285Y-97188714D01*
X108555285Y-97188714D01*
X109233857Y-96403000D02*
X109269571Y-96438714D01*
X109305285Y-96545857D01*
X109305285Y-96617285D01*
X109269571Y-96724428D01*
X109198142Y-96795857D01*
X109126714Y-96831571D01*
X108983857Y-96867285D01*
X108876714Y-96867285D01*
X108733857Y-96831571D01*
X108662428Y-96795857D01*
X108591000Y-96724428D01*
X108555285Y-96617285D01*
X108555285Y-96545857D01*
X108591000Y-96438714D01*
X108626714Y-96403000D01*
X112655000Y-97218428D02*
X112619285Y-97289857D01*
X112619285Y-97397000D01*
X112655000Y-97504142D01*
X112726428Y-97575571D01*
X112797857Y-97611285D01*
X112940714Y-97647000D01*
X113047857Y-97647000D01*
X113190714Y-97611285D01*
X113262142Y-97575571D01*
X113333571Y-97504142D01*
X113369285Y-97397000D01*
X113369285Y-97325571D01*
X113333571Y-97218428D01*
X113297857Y-97182714D01*
X113047857Y-97182714D01*
X113047857Y-97325571D01*
X113369285Y-96861285D02*
X112619285Y-96861285D01*
X113369285Y-96432714D01*
X112619285Y-96432714D01*
X113369285Y-96075571D02*
X112619285Y-96075571D01*
X112619285Y-95897000D01*
X112655000Y-95789857D01*
X112726428Y-95718428D01*
X112797857Y-95682714D01*
X112940714Y-95647000D01*
X113047857Y-95647000D01*
X113190714Y-95682714D01*
X113262142Y-95718428D01*
X113333571Y-95789857D01*
X113369285Y-95897000D01*
X113369285Y-96075571D01*
X124339000Y-97472428D02*
X124303285Y-97543857D01*
X124303285Y-97651000D01*
X124339000Y-97758142D01*
X124410428Y-97829571D01*
X124481857Y-97865285D01*
X124624714Y-97901000D01*
X124731857Y-97901000D01*
X124874714Y-97865285D01*
X124946142Y-97829571D01*
X125017571Y-97758142D01*
X125053285Y-97651000D01*
X125053285Y-97579571D01*
X125017571Y-97472428D01*
X124981857Y-97436714D01*
X124731857Y-97436714D01*
X124731857Y-97579571D01*
X125053285Y-97115285D02*
X124303285Y-97115285D01*
X125053285Y-96686714D01*
X124303285Y-96686714D01*
X125053285Y-96329571D02*
X124303285Y-96329571D01*
X124303285Y-96151000D01*
X124339000Y-96043857D01*
X124410428Y-95972428D01*
X124481857Y-95936714D01*
X124624714Y-95901000D01*
X124731857Y-95901000D01*
X124874714Y-95936714D01*
X124946142Y-95972428D01*
X125017571Y-96043857D01*
X125053285Y-96151000D01*
X125053285Y-96329571D01*
X129637285Y-99685000D02*
X129637285Y-99542142D01*
X129673000Y-99470714D01*
X129744428Y-99399285D01*
X129887285Y-99363571D01*
X130137285Y-99363571D01*
X130280142Y-99399285D01*
X130351571Y-99470714D01*
X130387285Y-99542142D01*
X130387285Y-99685000D01*
X130351571Y-99756428D01*
X130280142Y-99827857D01*
X130137285Y-99863571D01*
X129887285Y-99863571D01*
X129744428Y-99827857D01*
X129673000Y-99756428D01*
X129637285Y-99685000D01*
X129887285Y-98720714D02*
X130387285Y-98720714D01*
X129887285Y-99042142D02*
X130280142Y-99042142D01*
X130351571Y-99006428D01*
X130387285Y-98935000D01*
X130387285Y-98827857D01*
X130351571Y-98756428D01*
X130315857Y-98720714D01*
X129887285Y-98470714D02*
X129887285Y-98185000D01*
X129637285Y-98363571D02*
X130280142Y-98363571D01*
X130351571Y-98327857D01*
X130387285Y-98256428D01*
X130387285Y-98185000D01*
X100383571Y-97551714D02*
X100383571Y-96980285D01*
X100669285Y-97266000D02*
X100097857Y-97266000D01*
X100669285Y-96230285D02*
X100669285Y-96658857D01*
X100669285Y-96444571D02*
X99919285Y-96444571D01*
X100026428Y-96516000D01*
X100097857Y-96587428D01*
X100133571Y-96658857D01*
X99919285Y-95551714D02*
X99919285Y-95908857D01*
X100276428Y-95944571D01*
X100240714Y-95908857D01*
X100205000Y-95837428D01*
X100205000Y-95658857D01*
X100240714Y-95587428D01*
X100276428Y-95551714D01*
X100347857Y-95516000D01*
X100526428Y-95516000D01*
X100597857Y-95551714D01*
X100633571Y-95587428D01*
X100669285Y-95658857D01*
X100669285Y-95837428D01*
X100633571Y-95908857D01*
X100597857Y-95944571D01*
X100169285Y-95266000D02*
X100669285Y-95087428D01*
X100169285Y-94908857D01*
X98351571Y-97551714D02*
X98351571Y-96980285D01*
X98637285Y-96230285D02*
X98637285Y-96658857D01*
X98637285Y-96444571D02*
X97887285Y-96444571D01*
X97994428Y-96516000D01*
X98065857Y-96587428D01*
X98101571Y-96658857D01*
X97887285Y-95551714D02*
X97887285Y-95908857D01*
X98244428Y-95944571D01*
X98208714Y-95908857D01*
X98173000Y-95837428D01*
X98173000Y-95658857D01*
X98208714Y-95587428D01*
X98244428Y-95551714D01*
X98315857Y-95516000D01*
X98494428Y-95516000D01*
X98565857Y-95551714D01*
X98601571Y-95587428D01*
X98637285Y-95658857D01*
X98637285Y-95837428D01*
X98601571Y-95908857D01*
X98565857Y-95944571D01*
X98137285Y-95266000D02*
X98637285Y-95087428D01*
X98137285Y-94908857D01*
X96018000Y-97091428D02*
X95982285Y-97162857D01*
X95982285Y-97270000D01*
X96018000Y-97377142D01*
X96089428Y-97448571D01*
X96160857Y-97484285D01*
X96303714Y-97520000D01*
X96410857Y-97520000D01*
X96553714Y-97484285D01*
X96625142Y-97448571D01*
X96696571Y-97377142D01*
X96732285Y-97270000D01*
X96732285Y-97198571D01*
X96696571Y-97091428D01*
X96660857Y-97055714D01*
X96410857Y-97055714D01*
X96410857Y-97198571D01*
X96732285Y-96734285D02*
X95982285Y-96734285D01*
X96732285Y-96305714D01*
X95982285Y-96305714D01*
X96732285Y-95948571D02*
X95982285Y-95948571D01*
X95982285Y-95770000D01*
X96018000Y-95662857D01*
X96089428Y-95591428D01*
X96160857Y-95555714D01*
X96303714Y-95520000D01*
X96410857Y-95520000D01*
X96553714Y-95555714D01*
X96625142Y-95591428D01*
X96696571Y-95662857D01*
X96732285Y-95770000D01*
X96732285Y-95948571D01*
X132165285Y-97744285D02*
X131415285Y-97744285D01*
X132165285Y-97315714D01*
X131415285Y-97315714D01*
X132093857Y-96530000D02*
X132129571Y-96565714D01*
X132165285Y-96672857D01*
X132165285Y-96744285D01*
X132129571Y-96851428D01*
X132058142Y-96922857D01*
X131986714Y-96958571D01*
X131843857Y-96994285D01*
X131736714Y-96994285D01*
X131593857Y-96958571D01*
X131522428Y-96922857D01*
X131451000Y-96851428D01*
X131415285Y-96744285D01*
X131415285Y-96672857D01*
X131451000Y-96565714D01*
X131486714Y-96530000D01*
X135769000Y-97472428D02*
X135733285Y-97543857D01*
X135733285Y-97651000D01*
X135769000Y-97758142D01*
X135840428Y-97829571D01*
X135911857Y-97865285D01*
X136054714Y-97901000D01*
X136161857Y-97901000D01*
X136304714Y-97865285D01*
X136376142Y-97829571D01*
X136447571Y-97758142D01*
X136483285Y-97651000D01*
X136483285Y-97579571D01*
X136447571Y-97472428D01*
X136411857Y-97436714D01*
X136161857Y-97436714D01*
X136161857Y-97579571D01*
X136483285Y-97115285D02*
X135733285Y-97115285D01*
X136483285Y-96686714D01*
X135733285Y-96686714D01*
X136483285Y-96329571D02*
X135733285Y-96329571D01*
X135733285Y-96151000D01*
X135769000Y-96043857D01*
X135840428Y-95972428D01*
X135911857Y-95936714D01*
X136054714Y-95901000D01*
X136161857Y-95901000D01*
X136304714Y-95936714D01*
X136376142Y-95972428D01*
X136447571Y-96043857D01*
X136483285Y-96151000D01*
X136483285Y-96329571D01*
X134288571Y-97579571D02*
X134324285Y-97508142D01*
X134324285Y-97365285D01*
X134288571Y-97293857D01*
X134217142Y-97258142D01*
X134181428Y-97258142D01*
X134110000Y-97293857D01*
X134074285Y-97365285D01*
X134074285Y-97472428D01*
X134038571Y-97543857D01*
X133967142Y-97579571D01*
X133931428Y-97579571D01*
X133860000Y-97543857D01*
X133824285Y-97472428D01*
X133824285Y-97365285D01*
X133860000Y-97293857D01*
X134324285Y-96936714D02*
X133824285Y-96936714D01*
X133574285Y-96936714D02*
X133610000Y-96972428D01*
X133645714Y-96936714D01*
X133610000Y-96901000D01*
X133574285Y-96936714D01*
X133645714Y-96936714D01*
X133824285Y-96258142D02*
X134431428Y-96258142D01*
X134502857Y-96293857D01*
X134538571Y-96329571D01*
X134574285Y-96401000D01*
X134574285Y-96508142D01*
X134538571Y-96579571D01*
X134288571Y-96258142D02*
X134324285Y-96329571D01*
X134324285Y-96472428D01*
X134288571Y-96543857D01*
X134252857Y-96579571D01*
X134181428Y-96615285D01*
X133967142Y-96615285D01*
X133895714Y-96579571D01*
X133860000Y-96543857D01*
X133824285Y-96472428D01*
X133824285Y-96329571D01*
X133860000Y-96258142D01*
X155578285Y-86571857D02*
X154828285Y-86571857D01*
X155364000Y-86321857D01*
X154828285Y-86071857D01*
X155578285Y-86071857D01*
X154828285Y-85786142D02*
X155578285Y-85286142D01*
X154828285Y-85286142D02*
X155578285Y-85786142D01*
X155578285Y-85000428D02*
X154828285Y-85000428D01*
X155364000Y-84750428D01*
X154828285Y-84500428D01*
X155578285Y-84500428D01*
X155578285Y-83571857D02*
X154828285Y-83571857D01*
X154828285Y-83393285D01*
X154864000Y-83286142D01*
X154935428Y-83214714D01*
X155006857Y-83179000D01*
X155149714Y-83143285D01*
X155256857Y-83143285D01*
X155399714Y-83179000D01*
X155471142Y-83214714D01*
X155542571Y-83286142D01*
X155578285Y-83393285D01*
X155578285Y-83571857D01*
X155542571Y-82536142D02*
X155578285Y-82607571D01*
X155578285Y-82750428D01*
X155542571Y-82821857D01*
X155471142Y-82857571D01*
X155185428Y-82857571D01*
X155114000Y-82821857D01*
X155078285Y-82750428D01*
X155078285Y-82607571D01*
X155114000Y-82536142D01*
X155185428Y-82500428D01*
X155256857Y-82500428D01*
X155328285Y-82857571D01*
X155542571Y-82214714D02*
X155578285Y-82143285D01*
X155578285Y-82000428D01*
X155542571Y-81929000D01*
X155471142Y-81893285D01*
X155435428Y-81893285D01*
X155364000Y-81929000D01*
X155328285Y-82000428D01*
X155328285Y-82107571D01*
X155292571Y-82179000D01*
X155221142Y-82214714D01*
X155185428Y-82214714D01*
X155114000Y-82179000D01*
X155078285Y-82107571D01*
X155078285Y-82000428D01*
X155114000Y-81929000D01*
X155578285Y-81571857D02*
X155078285Y-81571857D01*
X154828285Y-81571857D02*
X154864000Y-81607571D01*
X154899714Y-81571857D01*
X154864000Y-81536142D01*
X154828285Y-81571857D01*
X154899714Y-81571857D01*
X155078285Y-80893285D02*
X155685428Y-80893285D01*
X155756857Y-80929000D01*
X155792571Y-80964714D01*
X155828285Y-81036142D01*
X155828285Y-81143285D01*
X155792571Y-81214714D01*
X155542571Y-80893285D02*
X155578285Y-80964714D01*
X155578285Y-81107571D01*
X155542571Y-81179000D01*
X155506857Y-81214714D01*
X155435428Y-81250428D01*
X155221142Y-81250428D01*
X155149714Y-81214714D01*
X155114000Y-81179000D01*
X155078285Y-81107571D01*
X155078285Y-80964714D01*
X155114000Y-80893285D01*
X155078285Y-80536142D02*
X155578285Y-80536142D01*
X155149714Y-80536142D02*
X155114000Y-80500428D01*
X155078285Y-80429000D01*
X155078285Y-80321857D01*
X155114000Y-80250428D01*
X155185428Y-80214714D01*
X155578285Y-80214714D01*
X155542571Y-79893285D02*
X155578285Y-79821857D01*
X155578285Y-79679000D01*
X155542571Y-79607571D01*
X155471142Y-79571857D01*
X155435428Y-79571857D01*
X155364000Y-79607571D01*
X155328285Y-79679000D01*
X155328285Y-79786142D01*
X155292571Y-79857571D01*
X155221142Y-79893285D01*
X155185428Y-79893285D01*
X155114000Y-79857571D01*
X155078285Y-79786142D01*
X155078285Y-79679000D01*
X155114000Y-79607571D01*
X156803285Y-85179000D02*
X156053285Y-85179000D01*
X156053285Y-84893285D01*
X156089000Y-84821857D01*
X156124714Y-84786142D01*
X156196142Y-84750428D01*
X156303285Y-84750428D01*
X156374714Y-84786142D01*
X156410428Y-84821857D01*
X156446142Y-84893285D01*
X156446142Y-85179000D01*
X156803285Y-84429000D02*
X156303285Y-84429000D01*
X156446142Y-84429000D02*
X156374714Y-84393285D01*
X156339000Y-84357571D01*
X156303285Y-84286142D01*
X156303285Y-84214714D01*
X156767571Y-83679000D02*
X156803285Y-83750428D01*
X156803285Y-83893285D01*
X156767571Y-83964714D01*
X156696142Y-84000428D01*
X156410428Y-84000428D01*
X156339000Y-83964714D01*
X156303285Y-83893285D01*
X156303285Y-83750428D01*
X156339000Y-83679000D01*
X156410428Y-83643285D01*
X156481857Y-83643285D01*
X156553285Y-84000428D01*
X156517571Y-83321857D02*
X156517571Y-82750428D01*
X156589000Y-82429000D02*
X156589000Y-82071857D01*
X156803285Y-82500428D02*
X156053285Y-82250428D01*
X156803285Y-82000428D01*
X156803285Y-81750428D02*
X156303285Y-81750428D01*
X156374714Y-81750428D02*
X156339000Y-81714714D01*
X156303285Y-81643285D01*
X156303285Y-81536142D01*
X156339000Y-81464714D01*
X156410428Y-81429000D01*
X156803285Y-81429000D01*
X156410428Y-81429000D02*
X156339000Y-81393285D01*
X156303285Y-81321857D01*
X156303285Y-81214714D01*
X156339000Y-81143285D01*
X156410428Y-81107571D01*
X156803285Y-81107571D01*
X156303285Y-80750428D02*
X157053285Y-80750428D01*
X156339000Y-80750428D02*
X156303285Y-80679000D01*
X156303285Y-80536142D01*
X156339000Y-80464714D01*
X156374714Y-80429000D01*
X156446142Y-80393285D01*
X156660428Y-80393285D01*
X156731857Y-80429000D01*
X156767571Y-80464714D01*
X156803285Y-80536142D01*
X156803285Y-80679000D01*
X156767571Y-80750428D01*
X157528285Y-88232571D02*
X158028285Y-88054000D01*
X157528285Y-87875428D01*
X158028285Y-87196857D02*
X158028285Y-87625428D01*
X158028285Y-87411142D02*
X157278285Y-87411142D01*
X157385428Y-87482571D01*
X157456857Y-87554000D01*
X157492571Y-87625428D01*
X157956857Y-86875428D02*
X157992571Y-86839714D01*
X158028285Y-86875428D01*
X157992571Y-86911142D01*
X157956857Y-86875428D01*
X158028285Y-86875428D01*
X158028285Y-86125428D02*
X158028285Y-86554000D01*
X158028285Y-86339714D02*
X157278285Y-86339714D01*
X157385428Y-86411142D01*
X157456857Y-86482571D01*
X157492571Y-86554000D01*
X157956857Y-85804000D02*
X157992571Y-85768285D01*
X158028285Y-85804000D01*
X157992571Y-85839714D01*
X157956857Y-85804000D01*
X158028285Y-85804000D01*
X157278285Y-85518285D02*
X157278285Y-85054000D01*
X157564000Y-85304000D01*
X157564000Y-85196857D01*
X157599714Y-85125428D01*
X157635428Y-85089714D01*
X157706857Y-85054000D01*
X157885428Y-85054000D01*
X157956857Y-85089714D01*
X157992571Y-85125428D01*
X158028285Y-85196857D01*
X158028285Y-85411142D01*
X157992571Y-85482571D01*
X157956857Y-85518285D01*
X157278285Y-84018285D02*
X157278285Y-83946857D01*
X157314000Y-83875428D01*
X157349714Y-83839714D01*
X157421142Y-83804000D01*
X157564000Y-83768285D01*
X157742571Y-83768285D01*
X157885428Y-83804000D01*
X157956857Y-83839714D01*
X157992571Y-83875428D01*
X158028285Y-83946857D01*
X158028285Y-84018285D01*
X157992571Y-84089714D01*
X157956857Y-84125428D01*
X157885428Y-84161142D01*
X157742571Y-84196857D01*
X157564000Y-84196857D01*
X157421142Y-84161142D01*
X157349714Y-84125428D01*
X157314000Y-84089714D01*
X157278285Y-84018285D01*
X157528285Y-83125428D02*
X158028285Y-83125428D01*
X157242571Y-83304000D02*
X157778285Y-83482571D01*
X157778285Y-83018285D01*
X157778285Y-82554000D02*
X157778285Y-82839714D01*
X157278285Y-82161142D02*
X157278285Y-82089714D01*
X157314000Y-82018285D01*
X157349714Y-81982571D01*
X157421142Y-81946857D01*
X157564000Y-81911142D01*
X157742571Y-81911142D01*
X157885428Y-81946857D01*
X157956857Y-81982571D01*
X157992571Y-82018285D01*
X158028285Y-82089714D01*
X158028285Y-82161142D01*
X157992571Y-82232571D01*
X157956857Y-82268285D01*
X157885428Y-82304000D01*
X157742571Y-82339714D01*
X157564000Y-82339714D01*
X157421142Y-82304000D01*
X157349714Y-82268285D01*
X157314000Y-82232571D01*
X157278285Y-82161142D01*
X157349714Y-81625428D02*
X157314000Y-81589714D01*
X157278285Y-81518285D01*
X157278285Y-81339714D01*
X157314000Y-81268285D01*
X157349714Y-81232571D01*
X157421142Y-81196857D01*
X157492571Y-81196857D01*
X157599714Y-81232571D01*
X158028285Y-81661142D01*
X158028285Y-81196857D01*
X157742571Y-80875428D02*
X157742571Y-80304000D01*
X157349714Y-79982571D02*
X157314000Y-79946857D01*
X157278285Y-79875428D01*
X157278285Y-79696857D01*
X157314000Y-79625428D01*
X157349714Y-79589714D01*
X157421142Y-79554000D01*
X157492571Y-79554000D01*
X157599714Y-79589714D01*
X158028285Y-80018285D01*
X158028285Y-79554000D01*
X157278285Y-79089714D02*
X157278285Y-79018285D01*
X157314000Y-78946857D01*
X157349714Y-78911142D01*
X157421142Y-78875428D01*
X157564000Y-78839714D01*
X157742571Y-78839714D01*
X157885428Y-78875428D01*
X157956857Y-78911142D01*
X157992571Y-78946857D01*
X158028285Y-79018285D01*
X158028285Y-79089714D01*
X157992571Y-79161142D01*
X157956857Y-79196857D01*
X157885428Y-79232571D01*
X157742571Y-79268285D01*
X157564000Y-79268285D01*
X157421142Y-79232571D01*
X157349714Y-79196857D01*
X157314000Y-79161142D01*
X157278285Y-79089714D01*
X158028285Y-78125428D02*
X158028285Y-78554000D01*
X158028285Y-78339714D02*
X157278285Y-78339714D01*
X157385428Y-78411142D01*
X157456857Y-78482571D01*
X157492571Y-78554000D01*
X158028285Y-77768285D02*
X158028285Y-77625428D01*
X157992571Y-77554000D01*
X157956857Y-77518285D01*
X157849714Y-77446857D01*
X157706857Y-77411142D01*
X157421142Y-77411142D01*
X157349714Y-77446857D01*
X157314000Y-77482571D01*
X157278285Y-77554000D01*
X157278285Y-77696857D01*
X157314000Y-77768285D01*
X157349714Y-77804000D01*
X157421142Y-77839714D01*
X157599714Y-77839714D01*
X157671142Y-77804000D01*
X157706857Y-77768285D01*
X157742571Y-77696857D01*
X157742571Y-77554000D01*
X157706857Y-77482571D01*
X157671142Y-77446857D01*
X157599714Y-77411142D01*
X101870000Y-99526285D02*
X101870000Y-98776285D01*
X102155714Y-98776285D01*
X102227142Y-98812000D01*
X102262857Y-98847714D01*
X102298571Y-98919142D01*
X102298571Y-99026285D01*
X102262857Y-99097714D01*
X102227142Y-99133428D01*
X102155714Y-99169142D01*
X101870000Y-99169142D01*
X102548571Y-98776285D02*
X102727142Y-99526285D01*
X102870000Y-98990571D01*
X103012857Y-99526285D01*
X103191428Y-98776285D01*
X103905714Y-99526285D02*
X103655714Y-99169142D01*
X103477142Y-99526285D02*
X103477142Y-98776285D01*
X103762857Y-98776285D01*
X103834285Y-98812000D01*
X103870000Y-98847714D01*
X103905714Y-98919142D01*
X103905714Y-99026285D01*
X103870000Y-99097714D01*
X103834285Y-99133428D01*
X103762857Y-99169142D01*
X103477142Y-99169142D01*
D13*
X127404000Y-60230000D02*
X127404000Y-64270000D01*
X124564000Y-60230000D02*
X124564000Y-64270000D01*
X127404000Y-60230000D02*
X126779000Y-60230000D01*
X125189000Y-60230000D02*
X124564000Y-60230000D01*
X127404000Y-64270000D02*
X126779000Y-64270000D01*
X125189000Y-64270000D02*
X124564000Y-64270000D01*
X140850000Y-57306000D02*
X140850000Y-46686000D01*
X158871000Y-57306000D02*
X158871000Y-46686000D01*
X140850000Y-57306000D02*
X158871000Y-57306000D01*
X140850000Y-46686000D02*
X158871000Y-46686000D01*
X146300000Y-46686000D02*
X146300000Y-41686000D01*
X153420000Y-46686000D02*
X153420000Y-41686000D01*
X146300000Y-46686000D02*
X153420000Y-46686000D01*
X146300000Y-41686000D02*
X153420000Y-41686000D01*
X146800000Y-41686000D02*
X146800000Y-31686000D01*
X152920000Y-41686000D02*
X152920000Y-31686000D01*
X146800000Y-41686000D02*
X152920000Y-41686000D01*
X146800000Y-31686000D02*
X152920000Y-31686000D01*
X120356000Y-57306000D02*
X120356000Y-46686000D01*
X138377000Y-57306000D02*
X138377000Y-46686000D01*
X120356000Y-57306000D02*
X138377000Y-57306000D01*
X120356000Y-46686000D02*
X138377000Y-46686000D01*
X125806000Y-46686000D02*
X125806000Y-41686000D01*
X132926000Y-46686000D02*
X132926000Y-41686000D01*
X125806000Y-46686000D02*
X132926000Y-46686000D01*
X125806000Y-41686000D02*
X132926000Y-41686000D01*
X126306000Y-41686000D02*
X126306000Y-31686000D01*
X132426000Y-41686000D02*
X132426000Y-31686000D01*
X126306000Y-41686000D02*
X132426000Y-41686000D01*
X126306000Y-31686000D02*
X132426000Y-31686000D01*
X99622000Y-57306000D02*
X99622000Y-46686000D01*
X117643000Y-57306000D02*
X117643000Y-46686000D01*
X99622000Y-57306000D02*
X117643000Y-57306000D01*
X99622000Y-46686000D02*
X117643000Y-46686000D01*
X105072000Y-46686000D02*
X105072000Y-41686000D01*
X112192000Y-46686000D02*
X112192000Y-41686000D01*
X105072000Y-46686000D02*
X112192000Y-46686000D01*
X105072000Y-41686000D02*
X112192000Y-41686000D01*
X105572000Y-41686000D02*
X105572000Y-31686000D01*
X111692000Y-41686000D02*
X111692000Y-31686000D01*
X105572000Y-41686000D02*
X111692000Y-41686000D01*
X105572000Y-31686000D02*
X111692000Y-31686000D01*
X79128000Y-57306000D02*
X79128000Y-46686000D01*
X97149000Y-57306000D02*
X97149000Y-46686000D01*
X79128000Y-57306000D02*
X97149000Y-57306000D01*
X79128000Y-46686000D02*
X97149000Y-46686000D01*
X84578000Y-46686000D02*
X84578000Y-41686000D01*
X91698000Y-46686000D02*
X91698000Y-41686000D01*
X84578000Y-46686000D02*
X91698000Y-46686000D01*
X84578000Y-41686000D02*
X91698000Y-41686000D01*
X85078000Y-41686000D02*
X85078000Y-31686000D01*
X91198000Y-41686000D02*
X91198000Y-31686000D01*
X85078000Y-41686000D02*
X91198000Y-41686000D01*
X85078000Y-31686000D02*
X91198000Y-31686000D01*
X58634000Y-57306000D02*
X58634000Y-46686000D01*
X76655000Y-57306000D02*
X76655000Y-46686000D01*
X58634000Y-57306000D02*
X76655000Y-57306000D01*
X58634000Y-46686000D02*
X76655000Y-46686000D01*
X64084000Y-46686000D02*
X64084000Y-41686000D01*
X71204000Y-46686000D02*
X71204000Y-41686000D01*
X64084000Y-46686000D02*
X71204000Y-46686000D01*
X64084000Y-41686000D02*
X71204000Y-41686000D01*
X64584000Y-41686000D02*
X64584000Y-31686000D01*
X70704000Y-41686000D02*
X70704000Y-31686000D01*
X64584000Y-41686000D02*
X70704000Y-41686000D01*
X64584000Y-31686000D02*
X70704000Y-31686000D01*
X64620000Y-93480000D02*
X64620000Y-89440000D01*
X67460000Y-93480000D02*
X67460000Y-89440000D01*
X64620000Y-93480000D02*
X65245000Y-93480000D01*
X66835000Y-93480000D02*
X67460000Y-93480000D01*
X64620000Y-89440000D02*
X65245000Y-89440000D01*
X66835000Y-89440000D02*
X67460000Y-89440000D01*
X57000000Y-93480000D02*
X57000000Y-89440000D01*
X59840000Y-93480000D02*
X59840000Y-89440000D01*
X57000000Y-93480000D02*
X57625000Y-93480000D01*
X59215000Y-93480000D02*
X59840000Y-93480000D01*
X57000000Y-89440000D02*
X57625000Y-89440000D01*
X59215000Y-89440000D02*
X59840000Y-89440000D01*
X68160000Y-74180000D02*
G75*
G03X68160000Y-74180000I-2120000J0D01*
G01*
X65200000Y-74180000D02*
X63960000Y-74180000D01*
X68120000Y-74180000D02*
X66880000Y-74180000D01*
X65200000Y-74220000D02*
X63960000Y-74220000D01*
X68120000Y-74220000D02*
X66880000Y-74220000D01*
X65200000Y-74260000D02*
X63961000Y-74260000D01*
X68119000Y-74260000D02*
X66880000Y-74260000D01*
X68117000Y-74300000D02*
X66880000Y-74300000D01*
X65200000Y-74300000D02*
X63963000Y-74300000D01*
X68114000Y-74340000D02*
X66880000Y-74340000D01*
X65200000Y-74340000D02*
X63966000Y-74340000D01*
X68111000Y-74380000D02*
X66880000Y-74380000D01*
X65200000Y-74380000D02*
X63969000Y-74380000D01*
X68107000Y-74420000D02*
X66880000Y-74420000D01*
X65200000Y-74420000D02*
X63973000Y-74420000D01*
X68102000Y-74460000D02*
X66880000Y-74460000D01*
X65200000Y-74460000D02*
X63978000Y-74460000D01*
X68096000Y-74500000D02*
X66880000Y-74500000D01*
X65200000Y-74500000D02*
X63984000Y-74500000D01*
X68090000Y-74540000D02*
X66880000Y-74540000D01*
X65200000Y-74540000D02*
X63990000Y-74540000D01*
X68082000Y-74580000D02*
X66880000Y-74580000D01*
X65200000Y-74580000D02*
X63998000Y-74580000D01*
X68074000Y-74620000D02*
X66880000Y-74620000D01*
X65200000Y-74620000D02*
X64006000Y-74620000D01*
X68065000Y-74660000D02*
X66880000Y-74660000D01*
X65200000Y-74660000D02*
X64015000Y-74660000D01*
X68056000Y-74700000D02*
X66880000Y-74700000D01*
X65200000Y-74700000D02*
X64024000Y-74700000D01*
X68045000Y-74740000D02*
X66880000Y-74740000D01*
X65200000Y-74740000D02*
X64035000Y-74740000D01*
X68034000Y-74780000D02*
X66880000Y-74780000D01*
X65200000Y-74780000D02*
X64046000Y-74780000D01*
X68022000Y-74820000D02*
X66880000Y-74820000D01*
X65200000Y-74820000D02*
X64058000Y-74820000D01*
X68008000Y-74860000D02*
X66880000Y-74860000D01*
X65200000Y-74860000D02*
X64072000Y-74860000D01*
X67994000Y-74901000D02*
X66880000Y-74901000D01*
X65200000Y-74901000D02*
X64086000Y-74901000D01*
X67980000Y-74941000D02*
X66880000Y-74941000D01*
X65200000Y-74941000D02*
X64100000Y-74941000D01*
X67964000Y-74981000D02*
X66880000Y-74981000D01*
X65200000Y-74981000D02*
X64116000Y-74981000D01*
X67947000Y-75021000D02*
X66880000Y-75021000D01*
X65200000Y-75021000D02*
X64133000Y-75021000D01*
X67929000Y-75061000D02*
X66880000Y-75061000D01*
X65200000Y-75061000D02*
X64151000Y-75061000D01*
X67910000Y-75101000D02*
X66880000Y-75101000D01*
X65200000Y-75101000D02*
X64170000Y-75101000D01*
X67891000Y-75141000D02*
X66880000Y-75141000D01*
X65200000Y-75141000D02*
X64189000Y-75141000D01*
X67870000Y-75181000D02*
X66880000Y-75181000D01*
X65200000Y-75181000D02*
X64210000Y-75181000D01*
X67848000Y-75221000D02*
X66880000Y-75221000D01*
X65200000Y-75221000D02*
X64232000Y-75221000D01*
X67825000Y-75261000D02*
X66880000Y-75261000D01*
X65200000Y-75261000D02*
X64255000Y-75261000D01*
X67800000Y-75301000D02*
X66880000Y-75301000D01*
X65200000Y-75301000D02*
X64280000Y-75301000D01*
X67775000Y-75341000D02*
X66880000Y-75341000D01*
X65200000Y-75341000D02*
X64305000Y-75341000D01*
X67748000Y-75381000D02*
X66880000Y-75381000D01*
X65200000Y-75381000D02*
X64332000Y-75381000D01*
X67720000Y-75421000D02*
X66880000Y-75421000D01*
X65200000Y-75421000D02*
X64360000Y-75421000D01*
X67690000Y-75461000D02*
X66880000Y-75461000D01*
X65200000Y-75461000D02*
X64390000Y-75461000D01*
X67659000Y-75501000D02*
X66880000Y-75501000D01*
X65200000Y-75501000D02*
X64421000Y-75501000D01*
X67627000Y-75541000D02*
X66880000Y-75541000D01*
X65200000Y-75541000D02*
X64453000Y-75541000D01*
X67592000Y-75581000D02*
X66880000Y-75581000D01*
X65200000Y-75581000D02*
X64488000Y-75581000D01*
X67556000Y-75621000D02*
X66880000Y-75621000D01*
X65200000Y-75621000D02*
X64524000Y-75621000D01*
X67518000Y-75661000D02*
X66880000Y-75661000D01*
X65200000Y-75661000D02*
X64562000Y-75661000D01*
X67478000Y-75701000D02*
X66880000Y-75701000D01*
X65200000Y-75701000D02*
X64602000Y-75701000D01*
X67436000Y-75741000D02*
X66880000Y-75741000D01*
X65200000Y-75741000D02*
X64644000Y-75741000D01*
X67391000Y-75781000D02*
X64689000Y-75781000D01*
X67344000Y-75821000D02*
X64736000Y-75821000D01*
X67294000Y-75861000D02*
X64786000Y-75861000D01*
X67240000Y-75901000D02*
X64840000Y-75901000D01*
X67182000Y-75941000D02*
X64898000Y-75941000D01*
X67120000Y-75981000D02*
X64960000Y-75981000D01*
X67053000Y-76021000D02*
X65027000Y-76021000D01*
X66980000Y-76061000D02*
X65100000Y-76061000D01*
X66899000Y-76101000D02*
X65181000Y-76101000D01*
X66808000Y-76141000D02*
X65272000Y-76141000D01*
X66704000Y-76181000D02*
X65376000Y-76181000D01*
X66577000Y-76221000D02*
X65503000Y-76221000D01*
X66410000Y-76261000D02*
X65670000Y-76261000D01*
X67235000Y-71910199D02*
X67235000Y-72310199D01*
X67435000Y-72110199D02*
X67035000Y-72110199D01*
X52570000Y-53952000D02*
X56610000Y-53952000D01*
X52570000Y-56792000D02*
X56610000Y-56792000D01*
X52570000Y-53952000D02*
X52570000Y-54577000D01*
X52570000Y-56167000D02*
X52570000Y-56792000D01*
X56610000Y-53952000D02*
X56610000Y-54577000D01*
X56610000Y-56167000D02*
X56610000Y-56792000D01*
X66835000Y-66580000D02*
X67460000Y-66580000D01*
X64620000Y-66580000D02*
X65245000Y-66580000D01*
X66835000Y-70620000D02*
X67460000Y-70620000D01*
X64620000Y-70620000D02*
X65245000Y-70620000D01*
X67460000Y-70620000D02*
X67460000Y-66580000D01*
X64620000Y-70620000D02*
X64620000Y-66580000D01*
X75725000Y-58452000D02*
X76350000Y-58452000D01*
X73510000Y-58452000D02*
X74135000Y-58452000D01*
X75725000Y-62492000D02*
X76350000Y-62492000D01*
X73510000Y-62492000D02*
X74135000Y-62492000D01*
X76350000Y-62492000D02*
X76350000Y-58452000D01*
X73510000Y-62492000D02*
X73510000Y-58452000D01*
X91194000Y-64920000D02*
X87154000Y-64920000D01*
X91194000Y-62080000D02*
X87154000Y-62080000D01*
X91194000Y-64920000D02*
X91194000Y-64295000D01*
X91194000Y-62705000D02*
X91194000Y-62080000D01*
X87154000Y-64920000D02*
X87154000Y-64295000D01*
X87154000Y-62705000D02*
X87154000Y-62080000D01*
X87114000Y-58387000D02*
X87114000Y-57762000D01*
X87114000Y-60602000D02*
X87114000Y-59977000D01*
X91154000Y-58387000D02*
X91154000Y-57762000D01*
X91154000Y-60602000D02*
X91154000Y-59977000D01*
X91154000Y-57762000D02*
X87114000Y-57762000D01*
X91154000Y-60602000D02*
X87114000Y-60602000D01*
X112301000Y-60738000D02*
X112926000Y-60738000D01*
X110086000Y-60738000D02*
X110711000Y-60738000D01*
X112301000Y-64778000D02*
X112926000Y-64778000D01*
X110086000Y-64778000D02*
X110711000Y-64778000D01*
X112926000Y-64778000D02*
X112926000Y-60738000D01*
X110086000Y-64778000D02*
X110086000Y-60738000D01*
X104544000Y-63024000D02*
X104544000Y-67064000D01*
X101704000Y-63024000D02*
X101704000Y-67064000D01*
X104544000Y-63024000D02*
X103919000Y-63024000D01*
X102329000Y-63024000D02*
X101704000Y-63024000D01*
X104544000Y-67064000D02*
X103919000Y-67064000D01*
X102329000Y-67064000D02*
X101704000Y-67064000D01*
X134841000Y-64270000D02*
X134216000Y-64270000D01*
X137056000Y-64270000D02*
X136431000Y-64270000D01*
X134841000Y-60230000D02*
X134216000Y-60230000D01*
X137056000Y-60230000D02*
X136431000Y-60230000D01*
X134216000Y-60230000D02*
X134216000Y-64270000D01*
X137056000Y-60230000D02*
X137056000Y-64270000D01*
X156614000Y-60230000D02*
X156614000Y-64270000D01*
X153774000Y-60230000D02*
X153774000Y-64270000D01*
X156614000Y-60230000D02*
X155989000Y-60230000D01*
X154399000Y-60230000D02*
X153774000Y-60230000D01*
X156614000Y-64270000D02*
X155989000Y-64270000D01*
X154399000Y-64270000D02*
X153774000Y-64270000D01*
X144493000Y-64270000D02*
X143868000Y-64270000D01*
X146708000Y-64270000D02*
X146083000Y-64270000D01*
X144493000Y-60230000D02*
X143868000Y-60230000D01*
X146708000Y-60230000D02*
X146083000Y-60230000D01*
X143868000Y-60230000D02*
X143868000Y-64270000D01*
X146708000Y-60230000D02*
X146708000Y-64270000D01*
X115070000Y-94130000D02*
X111030000Y-94130000D01*
X115070000Y-91290000D02*
X111030000Y-91290000D01*
X115070000Y-94130000D02*
X115070000Y-93505000D01*
X115070000Y-91915000D02*
X115070000Y-91290000D01*
X111030000Y-94130000D02*
X111030000Y-93505000D01*
X111030000Y-91915000D02*
X111030000Y-91290000D01*
X137930000Y-93505000D02*
X137930000Y-94130000D01*
X137930000Y-91290000D02*
X137930000Y-91915000D01*
X133890000Y-93505000D02*
X133890000Y-94130000D01*
X133890000Y-91290000D02*
X133890000Y-91915000D01*
X133890000Y-94130000D02*
X137930000Y-94130000D01*
X133890000Y-91290000D02*
X137930000Y-91290000D01*
X72540000Y-96770000D02*
X74780000Y-96770000D01*
X72540000Y-96530000D02*
X74780000Y-96530000D01*
X72540000Y-96650000D02*
X74780000Y-96650000D01*
X73660000Y-92480000D02*
X73660000Y-93130000D01*
X73660000Y-98020000D02*
X73660000Y-97370000D01*
X72540000Y-93130000D02*
X72540000Y-97370000D01*
X74780000Y-93130000D02*
X72540000Y-93130000D01*
X74780000Y-97370000D02*
X74780000Y-93130000D01*
X72540000Y-97370000D02*
X74780000Y-97370000D01*
X60710000Y-96670000D02*
X60710000Y-98910000D01*
X60950000Y-96670000D02*
X60950000Y-98910000D01*
X60830000Y-96670000D02*
X60830000Y-98910000D01*
X65000000Y-97790000D02*
X64350000Y-97790000D01*
X59460000Y-97790000D02*
X60110000Y-97790000D01*
X64350000Y-96670000D02*
X60110000Y-96670000D01*
X64350000Y-98910000D02*
X64350000Y-96670000D01*
X60110000Y-98910000D02*
X64350000Y-98910000D01*
X60110000Y-96670000D02*
X60110000Y-98910000D01*
X162410000Y-86780000D02*
X160170000Y-86780000D01*
X160170000Y-86780000D02*
X160170000Y-91020000D01*
X160170000Y-91020000D02*
X162410000Y-91020000D01*
X162410000Y-91020000D02*
X162410000Y-86780000D01*
X161290000Y-86130000D02*
X161290000Y-86780000D01*
X161290000Y-91670000D02*
X161290000Y-91020000D01*
X162410000Y-87500000D02*
X160170000Y-87500000D01*
X162410000Y-87620000D02*
X160170000Y-87620000D01*
X162410000Y-87380000D02*
X160170000Y-87380000D01*
X162410000Y-75350000D02*
X160170000Y-75350000D01*
X160170000Y-75350000D02*
X160170000Y-79590000D01*
X160170000Y-79590000D02*
X162410000Y-79590000D01*
X162410000Y-79590000D02*
X162410000Y-75350000D01*
X161290000Y-74700000D02*
X161290000Y-75350000D01*
X161290000Y-80240000D02*
X161290000Y-79590000D01*
X162410000Y-76070000D02*
X160170000Y-76070000D01*
X162410000Y-76190000D02*
X160170000Y-76190000D01*
X162410000Y-75950000D02*
X160170000Y-75950000D01*
X52280000Y-85110000D02*
X53340000Y-85110000D01*
X52280000Y-86170000D02*
X52280000Y-85110000D01*
X52280000Y-87170000D02*
X54400000Y-87170000D01*
X54400000Y-87170000D02*
X54400000Y-91230000D01*
X52280000Y-87170000D02*
X52280000Y-91230000D01*
X52280000Y-91230000D02*
X54400000Y-91230000D01*
X95270000Y-98000000D02*
X95270000Y-100120000D01*
X99330000Y-98000000D02*
X95270000Y-98000000D01*
X99330000Y-100120000D02*
X95270000Y-100120000D01*
X99330000Y-98000000D02*
X99330000Y-100120000D01*
X100330000Y-98000000D02*
X101390000Y-98000000D01*
X101390000Y-98000000D02*
X101390000Y-99060000D01*
X107970000Y-98000000D02*
X107970000Y-100120000D01*
X112030000Y-98000000D02*
X107970000Y-98000000D01*
X112030000Y-100120000D02*
X107970000Y-100120000D01*
X112030000Y-98000000D02*
X112030000Y-100120000D01*
X113030000Y-98000000D02*
X114090000Y-98000000D01*
X114090000Y-98000000D02*
X114090000Y-99060000D01*
X119590000Y-98000000D02*
X119590000Y-100120000D01*
X123650000Y-98000000D02*
X119590000Y-98000000D01*
X123650000Y-100120000D02*
X119590000Y-100120000D01*
X123650000Y-98000000D02*
X123650000Y-100120000D01*
X124650000Y-98000000D02*
X125710000Y-98000000D01*
X125710000Y-98000000D02*
X125710000Y-99060000D01*
X136950000Y-98000000D02*
X136950000Y-99060000D01*
X135890000Y-98000000D02*
X136950000Y-98000000D01*
X134890000Y-98000000D02*
X134890000Y-100120000D01*
X134890000Y-100120000D02*
X130830000Y-100120000D01*
X134890000Y-98000000D02*
X130830000Y-98000000D01*
X130830000Y-98000000D02*
X130830000Y-100120000D01*
X57690000Y-84990000D02*
X57690000Y-85320000D01*
X64230000Y-84990000D02*
X57690000Y-84990000D01*
X64230000Y-85320000D02*
X64230000Y-84990000D01*
X57690000Y-87730000D02*
X57690000Y-87400000D01*
X64230000Y-87730000D02*
X57690000Y-87730000D01*
X64230000Y-87400000D02*
X64230000Y-87730000D01*
X60420000Y-81050000D02*
X60420000Y-81380000D01*
X60420000Y-81380000D02*
X53880000Y-81380000D01*
X53880000Y-81380000D02*
X53880000Y-81050000D01*
X60420000Y-78970000D02*
X60420000Y-78640000D01*
X60420000Y-78640000D02*
X53880000Y-78640000D01*
X53880000Y-78640000D02*
X53880000Y-78970000D01*
X85320000Y-98520000D02*
X84990000Y-98520000D01*
X84990000Y-98520000D02*
X84990000Y-91980000D01*
X84990000Y-91980000D02*
X85320000Y-91980000D01*
X87400000Y-98520000D02*
X87730000Y-98520000D01*
X87730000Y-98520000D02*
X87730000Y-91980000D01*
X87730000Y-91980000D02*
X87400000Y-91980000D01*
X78970000Y-98520000D02*
X78640000Y-98520000D01*
X78640000Y-98520000D02*
X78640000Y-91980000D01*
X78640000Y-91980000D02*
X78970000Y-91980000D01*
X81050000Y-98520000D02*
X81380000Y-98520000D01*
X81380000Y-98520000D02*
X81380000Y-91980000D01*
X81380000Y-91980000D02*
X81050000Y-91980000D01*
X69950000Y-79280000D02*
X69620000Y-79280000D01*
X69950000Y-85820000D02*
X69950000Y-79280000D01*
X69620000Y-85820000D02*
X69950000Y-85820000D01*
X67210000Y-79280000D02*
X67540000Y-79280000D01*
X67210000Y-85820000D02*
X67210000Y-79280000D01*
X67540000Y-85820000D02*
X67210000Y-85820000D01*
X60420000Y-70458000D02*
X60420000Y-70128000D01*
X53880000Y-70458000D02*
X60420000Y-70458000D01*
X53880000Y-70128000D02*
X53880000Y-70458000D01*
X60420000Y-67718000D02*
X60420000Y-68048000D01*
X53880000Y-67718000D02*
X60420000Y-67718000D01*
X53880000Y-68048000D02*
X53880000Y-67718000D01*
X60420000Y-75030000D02*
X60420000Y-74700000D01*
X53880000Y-75030000D02*
X60420000Y-75030000D01*
X53880000Y-74700000D02*
X53880000Y-75030000D01*
X60420000Y-72290000D02*
X60420000Y-72620000D01*
X53880000Y-72290000D02*
X60420000Y-72290000D01*
X53880000Y-72620000D02*
X53880000Y-72290000D01*
X60420000Y-61060000D02*
X60420000Y-60730000D01*
X53880000Y-61060000D02*
X60420000Y-61060000D01*
X53880000Y-60730000D02*
X53880000Y-61060000D01*
X60420000Y-58320000D02*
X60420000Y-58650000D01*
X53880000Y-58320000D02*
X60420000Y-58320000D01*
X53880000Y-58650000D02*
X53880000Y-58320000D01*
X64802000Y-63222000D02*
X64802000Y-62892000D01*
X64802000Y-62892000D02*
X71342000Y-62892000D01*
X71342000Y-62892000D02*
X71342000Y-63222000D01*
X64802000Y-65302000D02*
X64802000Y-65632000D01*
X64802000Y-65632000D02*
X71342000Y-65632000D01*
X71342000Y-65632000D02*
X71342000Y-65302000D01*
X71342000Y-60984000D02*
X71342000Y-61314000D01*
X71342000Y-61314000D02*
X64802000Y-61314000D01*
X64802000Y-61314000D02*
X64802000Y-60984000D01*
X71342000Y-58904000D02*
X71342000Y-58574000D01*
X71342000Y-58574000D02*
X64802000Y-58574000D01*
X64802000Y-58574000D02*
X64802000Y-58904000D01*
X72930000Y-66270000D02*
X72930000Y-65940000D01*
X72930000Y-65940000D02*
X79470000Y-65940000D01*
X79470000Y-65940000D02*
X79470000Y-66270000D01*
X72930000Y-68350000D02*
X72930000Y-68680000D01*
X72930000Y-68680000D02*
X79470000Y-68680000D01*
X79470000Y-68680000D02*
X79470000Y-68350000D01*
X84990000Y-87090000D02*
X85320000Y-87090000D01*
X84990000Y-80550000D02*
X84990000Y-87090000D01*
X85320000Y-80550000D02*
X84990000Y-80550000D01*
X87730000Y-87090000D02*
X87400000Y-87090000D01*
X87730000Y-80550000D02*
X87730000Y-87090000D01*
X87400000Y-80550000D02*
X87730000Y-80550000D01*
X78518000Y-61952000D02*
X78518000Y-61622000D01*
X78518000Y-61622000D02*
X85058000Y-61622000D01*
X85058000Y-61622000D02*
X85058000Y-61952000D01*
X78518000Y-64032000D02*
X78518000Y-64362000D01*
X78518000Y-64362000D02*
X85058000Y-64362000D01*
X85058000Y-64362000D02*
X85058000Y-64032000D01*
X85058000Y-60730000D02*
X85058000Y-61060000D01*
X85058000Y-61060000D02*
X78518000Y-61060000D01*
X78518000Y-61060000D02*
X78518000Y-60730000D01*
X85058000Y-58650000D02*
X85058000Y-58320000D01*
X85058000Y-58320000D02*
X78518000Y-58320000D01*
X78518000Y-58320000D02*
X78518000Y-58650000D01*
X79470000Y-73430000D02*
X79470000Y-73760000D01*
X79470000Y-73760000D02*
X72930000Y-73760000D01*
X72930000Y-73760000D02*
X72930000Y-73430000D01*
X79470000Y-71350000D02*
X79470000Y-71020000D01*
X79470000Y-71020000D02*
X72930000Y-71020000D01*
X72930000Y-71020000D02*
X72930000Y-71350000D01*
X83090000Y-71020000D02*
X83090000Y-71350000D01*
X89630000Y-71020000D02*
X83090000Y-71020000D01*
X89630000Y-71350000D02*
X89630000Y-71020000D01*
X83090000Y-73760000D02*
X83090000Y-73430000D01*
X89630000Y-73760000D02*
X83090000Y-73760000D01*
X89630000Y-73430000D02*
X89630000Y-73760000D01*
X89630000Y-68680000D02*
X89630000Y-68350000D01*
X83090000Y-68680000D02*
X89630000Y-68680000D01*
X83090000Y-68350000D02*
X83090000Y-68680000D01*
X89630000Y-65940000D02*
X89630000Y-66270000D01*
X83090000Y-65940000D02*
X89630000Y-65940000D01*
X83090000Y-66270000D02*
X83090000Y-65940000D01*
X95350000Y-60230000D02*
X95020000Y-60230000D01*
X95350000Y-66770000D02*
X95350000Y-60230000D01*
X95020000Y-66770000D02*
X95350000Y-66770000D01*
X92610000Y-60230000D02*
X92940000Y-60230000D01*
X92610000Y-66770000D02*
X92610000Y-60230000D01*
X92940000Y-66770000D02*
X92610000Y-66770000D01*
X100430000Y-60230000D02*
X100100000Y-60230000D01*
X100430000Y-66770000D02*
X100430000Y-60230000D01*
X100100000Y-66770000D02*
X100430000Y-66770000D01*
X97690000Y-60230000D02*
X98020000Y-60230000D01*
X97690000Y-66770000D02*
X97690000Y-60230000D01*
X98020000Y-66770000D02*
X97690000Y-66770000D01*
X105640000Y-66770000D02*
X105310000Y-66770000D01*
X105310000Y-66770000D02*
X105310000Y-60230000D01*
X105310000Y-60230000D02*
X105640000Y-60230000D01*
X107720000Y-66770000D02*
X108050000Y-66770000D01*
X108050000Y-66770000D02*
X108050000Y-60230000D01*
X108050000Y-60230000D02*
X107720000Y-60230000D01*
X101060000Y-73430000D02*
X101060000Y-73760000D01*
X101060000Y-73760000D02*
X94520000Y-73760000D01*
X94520000Y-73760000D02*
X94520000Y-73430000D01*
X101060000Y-71350000D02*
X101060000Y-71020000D01*
X101060000Y-71020000D02*
X94520000Y-71020000D01*
X94520000Y-71020000D02*
X94520000Y-71350000D01*
X116940000Y-60230000D02*
X116610000Y-60230000D01*
X116940000Y-66770000D02*
X116940000Y-60230000D01*
X116610000Y-66770000D02*
X116940000Y-66770000D01*
X114200000Y-60230000D02*
X114530000Y-60230000D01*
X114200000Y-66770000D02*
X114200000Y-60230000D01*
X114530000Y-66770000D02*
X114200000Y-66770000D01*
X104680000Y-71020000D02*
X104680000Y-71350000D01*
X111220000Y-71020000D02*
X104680000Y-71020000D01*
X111220000Y-71350000D02*
X111220000Y-71020000D01*
X104680000Y-73760000D02*
X104680000Y-73430000D01*
X111220000Y-73760000D02*
X104680000Y-73760000D01*
X111220000Y-73430000D02*
X111220000Y-73760000D01*
X120118000Y-66770000D02*
X119788000Y-66770000D01*
X119788000Y-66770000D02*
X119788000Y-60230000D01*
X119788000Y-60230000D02*
X120118000Y-60230000D01*
X122198000Y-66770000D02*
X122528000Y-66770000D01*
X122528000Y-66770000D02*
X122528000Y-60230000D01*
X122528000Y-60230000D02*
X122198000Y-60230000D01*
X131850000Y-60230000D02*
X132180000Y-60230000D01*
X132180000Y-60230000D02*
X132180000Y-66770000D01*
X132180000Y-66770000D02*
X131850000Y-66770000D01*
X129770000Y-60230000D02*
X129440000Y-60230000D01*
X129440000Y-60230000D02*
X129440000Y-66770000D01*
X129440000Y-66770000D02*
X129770000Y-66770000D01*
X122650000Y-73430000D02*
X122650000Y-73760000D01*
X122650000Y-73760000D02*
X116110000Y-73760000D01*
X116110000Y-73760000D02*
X116110000Y-73430000D01*
X122650000Y-71350000D02*
X122650000Y-71020000D01*
X122650000Y-71020000D02*
X116110000Y-71020000D01*
X116110000Y-71020000D02*
X116110000Y-71350000D01*
X127540000Y-71020000D02*
X127540000Y-71350000D01*
X134080000Y-71020000D02*
X127540000Y-71020000D01*
X134080000Y-71350000D02*
X134080000Y-71020000D01*
X127540000Y-73760000D02*
X127540000Y-73430000D01*
X134080000Y-73760000D02*
X127540000Y-73760000D01*
X134080000Y-73430000D02*
X134080000Y-73760000D01*
X141070000Y-60230000D02*
X140740000Y-60230000D01*
X141070000Y-66770000D02*
X141070000Y-60230000D01*
X140740000Y-66770000D02*
X141070000Y-66770000D01*
X138330000Y-60230000D02*
X138660000Y-60230000D01*
X138330000Y-66770000D02*
X138330000Y-60230000D01*
X138660000Y-66770000D02*
X138330000Y-66770000D01*
X125630000Y-85820000D02*
X125960000Y-85820000D01*
X125630000Y-79280000D02*
X125630000Y-85820000D01*
X125960000Y-79280000D02*
X125630000Y-79280000D01*
X128370000Y-85820000D02*
X128040000Y-85820000D01*
X128370000Y-79280000D02*
X128370000Y-85820000D01*
X128040000Y-79280000D02*
X128370000Y-79280000D01*
X150900000Y-60230000D02*
X151230000Y-60230000D01*
X151230000Y-60230000D02*
X151230000Y-66770000D01*
X151230000Y-66770000D02*
X150900000Y-66770000D01*
X148820000Y-60230000D02*
X148490000Y-60230000D01*
X148490000Y-60230000D02*
X148490000Y-66770000D01*
X148490000Y-66770000D02*
X148820000Y-66770000D01*
X131980000Y-85820000D02*
X132310000Y-85820000D01*
X131980000Y-79280000D02*
X131980000Y-85820000D01*
X132310000Y-79280000D02*
X131980000Y-79280000D01*
X134720000Y-85820000D02*
X134390000Y-85820000D01*
X134720000Y-79280000D02*
X134720000Y-85820000D01*
X134390000Y-79280000D02*
X134720000Y-79280000D01*
X145510000Y-73430000D02*
X145510000Y-73760000D01*
X145510000Y-73760000D02*
X138970000Y-73760000D01*
X138970000Y-73760000D02*
X138970000Y-73430000D01*
X145510000Y-71350000D02*
X145510000Y-71020000D01*
X145510000Y-71020000D02*
X138970000Y-71020000D01*
X138970000Y-71020000D02*
X138970000Y-71350000D01*
X137390000Y-85820000D02*
X137060000Y-85820000D01*
X137060000Y-85820000D02*
X137060000Y-79280000D01*
X137060000Y-79280000D02*
X137390000Y-79280000D01*
X139470000Y-85820000D02*
X139800000Y-85820000D01*
X139800000Y-85820000D02*
X139800000Y-79280000D01*
X139800000Y-79280000D02*
X139470000Y-79280000D01*
X161644000Y-60230000D02*
X161314000Y-60230000D01*
X161644000Y-66770000D02*
X161644000Y-60230000D01*
X161314000Y-66770000D02*
X161644000Y-66770000D01*
X158904000Y-60230000D02*
X159234000Y-60230000D01*
X158904000Y-66770000D02*
X158904000Y-60230000D01*
X159234000Y-66770000D02*
X158904000Y-66770000D01*
X150400000Y-71020000D02*
X150400000Y-71350000D01*
X156940000Y-71020000D02*
X150400000Y-71020000D01*
X156940000Y-71350000D02*
X156940000Y-71020000D01*
X150400000Y-73760000D02*
X150400000Y-73430000D01*
X156940000Y-73760000D02*
X150400000Y-73760000D01*
X156940000Y-73430000D02*
X156940000Y-73760000D01*
X153130000Y-95020000D02*
X153130000Y-95350000D01*
X153130000Y-95350000D02*
X146590000Y-95350000D01*
X146590000Y-95350000D02*
X146590000Y-95020000D01*
X153130000Y-92940000D02*
X153130000Y-92610000D01*
X153130000Y-92610000D02*
X146590000Y-92610000D01*
X146590000Y-92610000D02*
X146590000Y-92940000D01*
X153130000Y-100430000D02*
X153130000Y-100100000D01*
X146590000Y-100430000D02*
X153130000Y-100430000D01*
X146590000Y-100100000D02*
X146590000Y-100430000D01*
X153130000Y-97690000D02*
X153130000Y-98020000D01*
X146590000Y-97690000D02*
X153130000Y-97690000D01*
X146590000Y-98020000D02*
X146590000Y-97690000D01*
X126460000Y-93750000D02*
X126460000Y-94080000D01*
X126460000Y-94080000D02*
X119920000Y-94080000D01*
X119920000Y-94080000D02*
X119920000Y-93750000D01*
X126460000Y-91670000D02*
X126460000Y-91340000D01*
X126460000Y-91340000D02*
X119920000Y-91340000D01*
X119920000Y-91340000D02*
X119920000Y-91670000D01*
X101060000Y-94080000D02*
X101060000Y-93750000D01*
X94520000Y-94080000D02*
X101060000Y-94080000D01*
X94520000Y-93750000D02*
X94520000Y-94080000D01*
X101060000Y-91340000D02*
X101060000Y-91670000D01*
X94520000Y-91340000D02*
X101060000Y-91340000D01*
X94520000Y-91670000D02*
X94520000Y-91340000D01*
X79720000Y-77410000D02*
X78470000Y-77410000D01*
X79720000Y-87690000D02*
X79720000Y-77410000D01*
X75220000Y-87690000D02*
X79720000Y-87690000D01*
X75220000Y-77410000D02*
X75220000Y-87690000D01*
X76470000Y-77410000D02*
X75220000Y-77410000D01*
X78470000Y-77410000D02*
G75*
G02X76470000Y-77410000I-1000000J0D01*
G01*
X98790000Y-77410000D02*
G75*
G02X96790000Y-77410000I-1000000J0D01*
G01*
X96790000Y-77410000D02*
X95540000Y-77410000D01*
X95540000Y-77410000D02*
X95540000Y-87690000D01*
X95540000Y-87690000D02*
X100040000Y-87690000D01*
X100040000Y-87690000D02*
X100040000Y-77410000D01*
X100040000Y-77410000D02*
X98790000Y-77410000D01*
X117820000Y-77410000D02*
X116570000Y-77410000D01*
X117820000Y-87690000D02*
X117820000Y-77410000D01*
X113320000Y-87690000D02*
X117820000Y-87690000D01*
X113320000Y-77410000D02*
X113320000Y-87690000D01*
X114570000Y-77410000D02*
X113320000Y-77410000D01*
X116570000Y-77410000D02*
G75*
G02X114570000Y-77410000I-1000000J0D01*
G01*
X149590000Y-77410000D02*
G75*
G02X147590000Y-77410000I-1000000J0D01*
G01*
X147590000Y-77410000D02*
X146340000Y-77410000D01*
X146340000Y-77410000D02*
X146340000Y-87690000D01*
X146340000Y-87690000D02*
X150840000Y-87690000D01*
X150840000Y-87690000D02*
X150840000Y-77410000D01*
X150840000Y-77410000D02*
X149590000Y-77410000D01*
X60420000Y-65302000D02*
X60420000Y-65632000D01*
X60420000Y-65632000D02*
X53880000Y-65632000D01*
X53880000Y-65632000D02*
X53880000Y-65302000D01*
X60420000Y-63222000D02*
X60420000Y-62892000D01*
X60420000Y-62892000D02*
X53880000Y-62892000D01*
X53880000Y-62892000D02*
X53880000Y-63222000D01*
D10*
X125341142Y-65889142D02*
X125293523Y-65936761D01*
X125150666Y-65984380D01*
X125055428Y-65984380D01*
X124912571Y-65936761D01*
X124817333Y-65841523D01*
X124769714Y-65746285D01*
X124722095Y-65555809D01*
X124722095Y-65412952D01*
X124769714Y-65222476D01*
X124817333Y-65127238D01*
X124912571Y-65032000D01*
X125055428Y-64984380D01*
X125150666Y-64984380D01*
X125293523Y-65032000D01*
X125341142Y-65079619D01*
X126293523Y-65984380D02*
X125722095Y-65984380D01*
X126007809Y-65984380D02*
X126007809Y-64984380D01*
X125912571Y-65127238D01*
X125817333Y-65222476D01*
X125722095Y-65270095D01*
X126674476Y-65079619D02*
X126722095Y-65032000D01*
X126817333Y-64984380D01*
X127055428Y-64984380D01*
X127150666Y-65032000D01*
X127198285Y-65079619D01*
X127245904Y-65174857D01*
X127245904Y-65270095D01*
X127198285Y-65412952D01*
X126626857Y-65984380D01*
X127245904Y-65984380D01*
X125031619Y-59539142D02*
X125079238Y-59586761D01*
X125031619Y-59634380D01*
X124984000Y-59586761D01*
X125031619Y-59539142D01*
X125031619Y-59634380D01*
X125698285Y-58634380D02*
X125793523Y-58634380D01*
X125888761Y-58682000D01*
X125936380Y-58729619D01*
X125984000Y-58824857D01*
X126031619Y-59015333D01*
X126031619Y-59253428D01*
X125984000Y-59443904D01*
X125936380Y-59539142D01*
X125888761Y-59586761D01*
X125793523Y-59634380D01*
X125698285Y-59634380D01*
X125603047Y-59586761D01*
X125555428Y-59539142D01*
X125507809Y-59443904D01*
X125460190Y-59253428D01*
X125460190Y-59015333D01*
X125507809Y-58824857D01*
X125555428Y-58729619D01*
X125603047Y-58682000D01*
X125698285Y-58634380D01*
X126984000Y-59634380D02*
X126412571Y-59634380D01*
X126698285Y-59634380D02*
X126698285Y-58634380D01*
X126603047Y-58777238D01*
X126507809Y-58872476D01*
X126412571Y-58920095D01*
X149264761Y-54300380D02*
X148931428Y-53824190D01*
X148693333Y-54300380D02*
X148693333Y-53300380D01*
X149074285Y-53300380D01*
X149169523Y-53348000D01*
X149217142Y-53395619D01*
X149264761Y-53490857D01*
X149264761Y-53633714D01*
X149217142Y-53728952D01*
X149169523Y-53776571D01*
X149074285Y-53824190D01*
X148693333Y-53824190D01*
X149550476Y-53300380D02*
X149883809Y-54300380D01*
X150217142Y-53300380D01*
X151026666Y-53300380D02*
X150550476Y-53300380D01*
X150502857Y-53776571D01*
X150550476Y-53728952D01*
X150645714Y-53681333D01*
X150883809Y-53681333D01*
X150979047Y-53728952D01*
X151026666Y-53776571D01*
X151074285Y-53871809D01*
X151074285Y-54109904D01*
X151026666Y-54205142D01*
X150979047Y-54252761D01*
X150883809Y-54300380D01*
X150645714Y-54300380D01*
X150550476Y-54252761D01*
X150502857Y-54205142D01*
X147669523Y-55173619D02*
X147717142Y-55126000D01*
X147812380Y-55078380D01*
X148050476Y-55078380D01*
X148145714Y-55126000D01*
X148193333Y-55173619D01*
X148240952Y-55268857D01*
X148240952Y-55364095D01*
X148193333Y-55506952D01*
X147621904Y-56078380D01*
X148240952Y-56078380D01*
X149145714Y-55078380D02*
X148669523Y-55078380D01*
X148621904Y-55554571D01*
X148669523Y-55506952D01*
X148764761Y-55459333D01*
X149002857Y-55459333D01*
X149098095Y-55506952D01*
X149145714Y-55554571D01*
X149193333Y-55649809D01*
X149193333Y-55887904D01*
X149145714Y-55983142D01*
X149098095Y-56030761D01*
X149002857Y-56078380D01*
X148764761Y-56078380D01*
X148669523Y-56030761D01*
X148621904Y-55983142D01*
X149621904Y-56078380D02*
X149621904Y-55078380D01*
X149717142Y-55697428D02*
X150002857Y-56078380D01*
X150002857Y-55411714D02*
X149621904Y-55792666D01*
X150431428Y-55697428D02*
X151193333Y-55697428D01*
X152145714Y-56078380D02*
X151669523Y-56078380D01*
X151669523Y-55078380D01*
X128770761Y-54300380D02*
X128437428Y-53824190D01*
X128199333Y-54300380D02*
X128199333Y-53300380D01*
X128580285Y-53300380D01*
X128675523Y-53348000D01*
X128723142Y-53395619D01*
X128770761Y-53490857D01*
X128770761Y-53633714D01*
X128723142Y-53728952D01*
X128675523Y-53776571D01*
X128580285Y-53824190D01*
X128199333Y-53824190D01*
X129056476Y-53300380D02*
X129389809Y-54300380D01*
X129723142Y-53300380D01*
X130485047Y-53633714D02*
X130485047Y-54300380D01*
X130246952Y-53252761D02*
X130008857Y-53967047D01*
X130627904Y-53967047D01*
X127175523Y-55173619D02*
X127223142Y-55126000D01*
X127318380Y-55078380D01*
X127556476Y-55078380D01*
X127651714Y-55126000D01*
X127699333Y-55173619D01*
X127746952Y-55268857D01*
X127746952Y-55364095D01*
X127699333Y-55506952D01*
X127127904Y-56078380D01*
X127746952Y-56078380D01*
X128651714Y-55078380D02*
X128175523Y-55078380D01*
X128127904Y-55554571D01*
X128175523Y-55506952D01*
X128270761Y-55459333D01*
X128508857Y-55459333D01*
X128604095Y-55506952D01*
X128651714Y-55554571D01*
X128699333Y-55649809D01*
X128699333Y-55887904D01*
X128651714Y-55983142D01*
X128604095Y-56030761D01*
X128508857Y-56078380D01*
X128270761Y-56078380D01*
X128175523Y-56030761D01*
X128127904Y-55983142D01*
X129127904Y-56078380D02*
X129127904Y-55078380D01*
X129223142Y-55697428D02*
X129508857Y-56078380D01*
X129508857Y-55411714D02*
X129127904Y-55792666D01*
X129937428Y-55697428D02*
X130699333Y-55697428D01*
X131651714Y-56078380D02*
X131175523Y-56078380D01*
X131175523Y-55078380D01*
X107956761Y-54300380D02*
X107623428Y-53824190D01*
X107385333Y-54300380D02*
X107385333Y-53300380D01*
X107766285Y-53300380D01*
X107861523Y-53348000D01*
X107909142Y-53395619D01*
X107956761Y-53490857D01*
X107956761Y-53633714D01*
X107909142Y-53728952D01*
X107861523Y-53776571D01*
X107766285Y-53824190D01*
X107385333Y-53824190D01*
X108242476Y-53300380D02*
X108575809Y-54300380D01*
X108909142Y-53300380D01*
X109147238Y-53300380D02*
X109766285Y-53300380D01*
X109432952Y-53681333D01*
X109575809Y-53681333D01*
X109671047Y-53728952D01*
X109718666Y-53776571D01*
X109766285Y-53871809D01*
X109766285Y-54109904D01*
X109718666Y-54205142D01*
X109671047Y-54252761D01*
X109575809Y-54300380D01*
X109290095Y-54300380D01*
X109194857Y-54252761D01*
X109147238Y-54205142D01*
X106337714Y-55427619D02*
X106385333Y-55380000D01*
X106480571Y-55332380D01*
X106718666Y-55332380D01*
X106813904Y-55380000D01*
X106861523Y-55427619D01*
X106909142Y-55522857D01*
X106909142Y-55618095D01*
X106861523Y-55760952D01*
X106290095Y-56332380D01*
X106909142Y-56332380D01*
X107813904Y-55332380D02*
X107337714Y-55332380D01*
X107290095Y-55808571D01*
X107337714Y-55760952D01*
X107432952Y-55713333D01*
X107671047Y-55713333D01*
X107766285Y-55760952D01*
X107813904Y-55808571D01*
X107861523Y-55903809D01*
X107861523Y-56141904D01*
X107813904Y-56237142D01*
X107766285Y-56284761D01*
X107671047Y-56332380D01*
X107432952Y-56332380D01*
X107337714Y-56284761D01*
X107290095Y-56237142D01*
X108290095Y-56332380D02*
X108290095Y-55332380D01*
X108385333Y-55951428D02*
X108671047Y-56332380D01*
X108671047Y-55665714D02*
X108290095Y-56046666D01*
X109099619Y-55951428D02*
X109861523Y-55951428D01*
X110290095Y-56046666D02*
X110766285Y-56046666D01*
X110194857Y-56332380D02*
X110528190Y-55332380D01*
X110861523Y-56332380D01*
X87542761Y-54300380D02*
X87209428Y-53824190D01*
X86971333Y-54300380D02*
X86971333Y-53300380D01*
X87352285Y-53300380D01*
X87447523Y-53348000D01*
X87495142Y-53395619D01*
X87542761Y-53490857D01*
X87542761Y-53633714D01*
X87495142Y-53728952D01*
X87447523Y-53776571D01*
X87352285Y-53824190D01*
X86971333Y-53824190D01*
X87828476Y-53300380D02*
X88161809Y-54300380D01*
X88495142Y-53300380D01*
X88780857Y-53395619D02*
X88828476Y-53348000D01*
X88923714Y-53300380D01*
X89161809Y-53300380D01*
X89257047Y-53348000D01*
X89304666Y-53395619D01*
X89352285Y-53490857D01*
X89352285Y-53586095D01*
X89304666Y-53728952D01*
X88733238Y-54300380D01*
X89352285Y-54300380D01*
X85947523Y-55427619D02*
X85995142Y-55380000D01*
X86090380Y-55332380D01*
X86328476Y-55332380D01*
X86423714Y-55380000D01*
X86471333Y-55427619D01*
X86518952Y-55522857D01*
X86518952Y-55618095D01*
X86471333Y-55760952D01*
X85899904Y-56332380D01*
X86518952Y-56332380D01*
X87423714Y-55332380D02*
X86947523Y-55332380D01*
X86899904Y-55808571D01*
X86947523Y-55760952D01*
X87042761Y-55713333D01*
X87280857Y-55713333D01*
X87376095Y-55760952D01*
X87423714Y-55808571D01*
X87471333Y-55903809D01*
X87471333Y-56141904D01*
X87423714Y-56237142D01*
X87376095Y-56284761D01*
X87280857Y-56332380D01*
X87042761Y-56332380D01*
X86947523Y-56284761D01*
X86899904Y-56237142D01*
X87899904Y-56332380D02*
X87899904Y-55332380D01*
X87995142Y-55951428D02*
X88280857Y-56332380D01*
X88280857Y-55665714D02*
X87899904Y-56046666D01*
X88709428Y-55951428D02*
X89471333Y-55951428D01*
X90423714Y-56332380D02*
X89947523Y-56332380D01*
X89947523Y-55332380D01*
X61126761Y-55062380D02*
X60793428Y-54586190D01*
X60555333Y-55062380D02*
X60555333Y-54062380D01*
X60936285Y-54062380D01*
X61031523Y-54110000D01*
X61079142Y-54157619D01*
X61126761Y-54252857D01*
X61126761Y-54395714D01*
X61079142Y-54490952D01*
X61031523Y-54538571D01*
X60936285Y-54586190D01*
X60555333Y-54586190D01*
X61412476Y-54062380D02*
X61745809Y-55062380D01*
X62079142Y-54062380D01*
X62936285Y-55062380D02*
X62364857Y-55062380D01*
X62650571Y-55062380D02*
X62650571Y-54062380D01*
X62555333Y-54205238D01*
X62460095Y-54300476D01*
X62364857Y-54348095D01*
X65453523Y-54665619D02*
X65501142Y-54618000D01*
X65596380Y-54570380D01*
X65834476Y-54570380D01*
X65929714Y-54618000D01*
X65977333Y-54665619D01*
X66024952Y-54760857D01*
X66024952Y-54856095D01*
X65977333Y-54998952D01*
X65405904Y-55570380D01*
X66024952Y-55570380D01*
X66929714Y-54570380D02*
X66453523Y-54570380D01*
X66405904Y-55046571D01*
X66453523Y-54998952D01*
X66548761Y-54951333D01*
X66786857Y-54951333D01*
X66882095Y-54998952D01*
X66929714Y-55046571D01*
X66977333Y-55141809D01*
X66977333Y-55379904D01*
X66929714Y-55475142D01*
X66882095Y-55522761D01*
X66786857Y-55570380D01*
X66548761Y-55570380D01*
X66453523Y-55522761D01*
X66405904Y-55475142D01*
X67405904Y-55570380D02*
X67405904Y-54570380D01*
X67501142Y-55189428D02*
X67786857Y-55570380D01*
X67786857Y-54903714D02*
X67405904Y-55284666D01*
X68215428Y-55189428D02*
X68977333Y-55189428D01*
X69929714Y-55570380D02*
X69453523Y-55570380D01*
X69453523Y-54570380D01*
X65873333Y-95099142D02*
X65825714Y-95146761D01*
X65682857Y-95194380D01*
X65587619Y-95194380D01*
X65444761Y-95146761D01*
X65349523Y-95051523D01*
X65301904Y-94956285D01*
X65254285Y-94765809D01*
X65254285Y-94622952D01*
X65301904Y-94432476D01*
X65349523Y-94337238D01*
X65444761Y-94242000D01*
X65587619Y-94194380D01*
X65682857Y-94194380D01*
X65825714Y-94242000D01*
X65873333Y-94289619D01*
X66825714Y-95194380D02*
X66254285Y-95194380D01*
X66540000Y-95194380D02*
X66540000Y-94194380D01*
X66444761Y-94337238D01*
X66349523Y-94432476D01*
X66254285Y-94480095D01*
X68683142Y-91916190D02*
X68730761Y-91868571D01*
X68778380Y-91916190D01*
X68730761Y-91963809D01*
X68683142Y-91916190D01*
X68778380Y-91916190D01*
X68778380Y-90916190D02*
X68778380Y-91487619D01*
X68778380Y-91201904D02*
X67778380Y-91201904D01*
X67921238Y-91297142D01*
X68016476Y-91392380D01*
X68064095Y-91487619D01*
X58253333Y-94972142D02*
X58205714Y-95019761D01*
X58062857Y-95067380D01*
X57967619Y-95067380D01*
X57824761Y-95019761D01*
X57729523Y-94924523D01*
X57681904Y-94829285D01*
X57634285Y-94638809D01*
X57634285Y-94495952D01*
X57681904Y-94305476D01*
X57729523Y-94210238D01*
X57824761Y-94115000D01*
X57967619Y-94067380D01*
X58062857Y-94067380D01*
X58205714Y-94115000D01*
X58253333Y-94162619D01*
X58634285Y-94162619D02*
X58681904Y-94115000D01*
X58777142Y-94067380D01*
X59015238Y-94067380D01*
X59110476Y-94115000D01*
X59158095Y-94162619D01*
X59205714Y-94257857D01*
X59205714Y-94353095D01*
X59158095Y-94495952D01*
X58586666Y-95067380D01*
X59205714Y-95067380D01*
X60791285Y-92493571D02*
X60791285Y-92922142D01*
X60791285Y-92707857D02*
X60041285Y-92707857D01*
X60148428Y-92779285D01*
X60219857Y-92850714D01*
X60255571Y-92922142D01*
X60041285Y-92029285D02*
X60041285Y-91957857D01*
X60077000Y-91886428D01*
X60112714Y-91850714D01*
X60184142Y-91815000D01*
X60327000Y-91779285D01*
X60505571Y-91779285D01*
X60648428Y-91815000D01*
X60719857Y-91850714D01*
X60755571Y-91886428D01*
X60791285Y-91957857D01*
X60791285Y-92029285D01*
X60755571Y-92100714D01*
X60719857Y-92136428D01*
X60648428Y-92172142D01*
X60505571Y-92207857D01*
X60327000Y-92207857D01*
X60184142Y-92172142D01*
X60112714Y-92136428D01*
X60077000Y-92100714D01*
X60041285Y-92029285D01*
X60041285Y-91315000D02*
X60041285Y-91243571D01*
X60077000Y-91172142D01*
X60112714Y-91136428D01*
X60184142Y-91100714D01*
X60327000Y-91065000D01*
X60505571Y-91065000D01*
X60648428Y-91100714D01*
X60719857Y-91136428D01*
X60755571Y-91172142D01*
X60791285Y-91243571D01*
X60791285Y-91315000D01*
X60755571Y-91386428D01*
X60719857Y-91422142D01*
X60648428Y-91457857D01*
X60505571Y-91493571D01*
X60327000Y-91493571D01*
X60184142Y-91457857D01*
X60112714Y-91422142D01*
X60077000Y-91386428D01*
X60041285Y-91315000D01*
X60291285Y-90743571D02*
X61041285Y-90743571D01*
X60327000Y-90743571D02*
X60291285Y-90672142D01*
X60291285Y-90529285D01*
X60327000Y-90457857D01*
X60362714Y-90422142D01*
X60434142Y-90386428D01*
X60648428Y-90386428D01*
X60719857Y-90422142D01*
X60755571Y-90457857D01*
X60791285Y-90529285D01*
X60791285Y-90672142D01*
X60755571Y-90743571D01*
X60291285Y-90172142D02*
X60291285Y-89886428D01*
X60791285Y-90065000D02*
X60148428Y-90065000D01*
X60077000Y-90029285D01*
X60041285Y-89957857D01*
X60041285Y-89886428D01*
X68921333Y-75541142D02*
X68873714Y-75588761D01*
X68730857Y-75636380D01*
X68635619Y-75636380D01*
X68492761Y-75588761D01*
X68397523Y-75493523D01*
X68349904Y-75398285D01*
X68302285Y-75207809D01*
X68302285Y-75064952D01*
X68349904Y-74874476D01*
X68397523Y-74779238D01*
X68492761Y-74684000D01*
X68635619Y-74636380D01*
X68730857Y-74636380D01*
X68873714Y-74684000D01*
X68921333Y-74731619D01*
X69254666Y-74636380D02*
X69873714Y-74636380D01*
X69540380Y-75017333D01*
X69683238Y-75017333D01*
X69778476Y-75064952D01*
X69826095Y-75112571D01*
X69873714Y-75207809D01*
X69873714Y-75445904D01*
X69826095Y-75541142D01*
X69778476Y-75588761D01*
X69683238Y-75636380D01*
X69397523Y-75636380D01*
X69302285Y-75588761D01*
X69254666Y-75541142D01*
X63698380Y-75984000D02*
X63698380Y-76384000D01*
X63698380Y-76184000D02*
X62698380Y-76184000D01*
X62841238Y-76250666D01*
X62936476Y-76317333D01*
X62984095Y-76384000D01*
X62698380Y-75550666D02*
X62698380Y-75484000D01*
X62746000Y-75417333D01*
X62793619Y-75384000D01*
X62888857Y-75350666D01*
X63079333Y-75317333D01*
X63317428Y-75317333D01*
X63507904Y-75350666D01*
X63603142Y-75384000D01*
X63650761Y-75417333D01*
X63698380Y-75484000D01*
X63698380Y-75550666D01*
X63650761Y-75617333D01*
X63603142Y-75650666D01*
X63507904Y-75684000D01*
X63317428Y-75717333D01*
X63079333Y-75717333D01*
X62888857Y-75684000D01*
X62793619Y-75650666D01*
X62746000Y-75617333D01*
X62698380Y-75550666D01*
X63031714Y-75017333D02*
X64031714Y-75017333D01*
X63555523Y-74684000D02*
X63650761Y-74650666D01*
X63698380Y-74584000D01*
X63555523Y-75017333D02*
X63650761Y-74984000D01*
X63698380Y-74917333D01*
X63698380Y-74784000D01*
X63650761Y-74717333D01*
X63555523Y-74684000D01*
X63031714Y-74684000D01*
X63174571Y-74050666D02*
X63174571Y-74284000D01*
X63698380Y-74284000D02*
X62698380Y-74284000D01*
X62698380Y-73950666D01*
X54436666Y-53625714D02*
X54398571Y-53663809D01*
X54284285Y-53701904D01*
X54208095Y-53701904D01*
X54093809Y-53663809D01*
X54017619Y-53587619D01*
X53979523Y-53511428D01*
X53941428Y-53359047D01*
X53941428Y-53244761D01*
X53979523Y-53092380D01*
X54017619Y-53016190D01*
X54093809Y-52940000D01*
X54208095Y-52901904D01*
X54284285Y-52901904D01*
X54398571Y-52940000D01*
X54436666Y-52978095D01*
X55122380Y-53168571D02*
X55122380Y-53701904D01*
X54931904Y-52863809D02*
X54741428Y-53435238D01*
X55236666Y-53435238D01*
X51812000Y-56038666D02*
X51845333Y-56005333D01*
X51878666Y-56038666D01*
X51845333Y-56072000D01*
X51812000Y-56038666D01*
X51878666Y-56038666D01*
X51245333Y-55738666D02*
X51212000Y-55705333D01*
X51178666Y-55638666D01*
X51178666Y-55472000D01*
X51212000Y-55405333D01*
X51245333Y-55372000D01*
X51312000Y-55338666D01*
X51378666Y-55338666D01*
X51478666Y-55372000D01*
X51878666Y-55772000D01*
X51878666Y-55338666D01*
X51245333Y-55072000D02*
X51212000Y-55038666D01*
X51178666Y-54972000D01*
X51178666Y-54805333D01*
X51212000Y-54738666D01*
X51245333Y-54705333D01*
X51312000Y-54672000D01*
X51378666Y-54672000D01*
X51478666Y-54705333D01*
X51878666Y-55105333D01*
X51878666Y-54672000D01*
X64365142Y-68766666D02*
X64412761Y-68814285D01*
X64460380Y-68957142D01*
X64460380Y-69052380D01*
X64412761Y-69195238D01*
X64317523Y-69290476D01*
X64222285Y-69338095D01*
X64031809Y-69385714D01*
X63888952Y-69385714D01*
X63698476Y-69338095D01*
X63603238Y-69290476D01*
X63508000Y-69195238D01*
X63460380Y-69052380D01*
X63460380Y-68957142D01*
X63508000Y-68814285D01*
X63555619Y-68766666D01*
X63460380Y-67861904D02*
X63460380Y-68338095D01*
X63936571Y-68385714D01*
X63888952Y-68338095D01*
X63841333Y-68242857D01*
X63841333Y-68004761D01*
X63888952Y-67909523D01*
X63936571Y-67861904D01*
X64031809Y-67814285D01*
X64269904Y-67814285D01*
X64365142Y-67861904D01*
X64412761Y-67909523D01*
X64460380Y-68004761D01*
X64460380Y-68242857D01*
X64412761Y-68338095D01*
X64365142Y-68385714D01*
X68322000Y-69953333D02*
X68355333Y-69920000D01*
X68388666Y-69953333D01*
X68355333Y-69986666D01*
X68322000Y-69953333D01*
X68388666Y-69953333D01*
X67688666Y-69486666D02*
X67688666Y-69420000D01*
X67722000Y-69353333D01*
X67755333Y-69320000D01*
X67822000Y-69286666D01*
X67955333Y-69253333D01*
X68122000Y-69253333D01*
X68255333Y-69286666D01*
X68322000Y-69320000D01*
X68355333Y-69353333D01*
X68388666Y-69420000D01*
X68388666Y-69486666D01*
X68355333Y-69553333D01*
X68322000Y-69586666D01*
X68255333Y-69620000D01*
X68122000Y-69653333D01*
X67955333Y-69653333D01*
X67822000Y-69620000D01*
X67755333Y-69586666D01*
X67722000Y-69553333D01*
X67688666Y-69486666D01*
X67688666Y-68820000D02*
X67688666Y-68753333D01*
X67722000Y-68686666D01*
X67755333Y-68653333D01*
X67822000Y-68620000D01*
X67955333Y-68586666D01*
X68122000Y-68586666D01*
X68255333Y-68620000D01*
X68322000Y-68653333D01*
X68355333Y-68686666D01*
X68388666Y-68753333D01*
X68388666Y-68820000D01*
X68355333Y-68886666D01*
X68322000Y-68920000D01*
X68255333Y-68953333D01*
X68122000Y-68986666D01*
X67955333Y-68986666D01*
X67822000Y-68953333D01*
X67755333Y-68920000D01*
X67722000Y-68886666D01*
X67688666Y-68820000D01*
X67688666Y-68353333D02*
X67688666Y-67920000D01*
X67955333Y-68153333D01*
X67955333Y-68053333D01*
X67988666Y-67986666D01*
X68022000Y-67953333D01*
X68088666Y-67920000D01*
X68255333Y-67920000D01*
X68322000Y-67953333D01*
X68355333Y-67986666D01*
X68388666Y-68053333D01*
X68388666Y-68253333D01*
X68355333Y-68320000D01*
X68322000Y-68353333D01*
X67688666Y-67686666D02*
X67688666Y-67253333D01*
X67955333Y-67486666D01*
X67955333Y-67386666D01*
X67988666Y-67320000D01*
X68022000Y-67286666D01*
X68088666Y-67253333D01*
X68255333Y-67253333D01*
X68322000Y-67286666D01*
X68355333Y-67320000D01*
X68388666Y-67386666D01*
X68388666Y-67586666D01*
X68355333Y-67653333D01*
X68322000Y-67686666D01*
X77573142Y-60618666D02*
X77620761Y-60666285D01*
X77668380Y-60809142D01*
X77668380Y-60904380D01*
X77620761Y-61047238D01*
X77525523Y-61142476D01*
X77430285Y-61190095D01*
X77239809Y-61237714D01*
X77096952Y-61237714D01*
X76906476Y-61190095D01*
X76811238Y-61142476D01*
X76716000Y-61047238D01*
X76668380Y-60904380D01*
X76668380Y-60809142D01*
X76716000Y-60666285D01*
X76763619Y-60618666D01*
X76668380Y-59761523D02*
X76668380Y-59952000D01*
X76716000Y-60047238D01*
X76763619Y-60094857D01*
X76906476Y-60190095D01*
X77096952Y-60237714D01*
X77477904Y-60237714D01*
X77573142Y-60190095D01*
X77620761Y-60142476D01*
X77668380Y-60047238D01*
X77668380Y-59856761D01*
X77620761Y-59761523D01*
X77573142Y-59713904D01*
X77477904Y-59666285D01*
X77239809Y-59666285D01*
X77144571Y-59713904D01*
X77096952Y-59761523D01*
X77049333Y-59856761D01*
X77049333Y-60047238D01*
X77096952Y-60142476D01*
X77144571Y-60190095D01*
X77239809Y-60237714D01*
X75382380Y-60642476D02*
X75382380Y-61213904D01*
X75382380Y-60928190D02*
X74382380Y-60928190D01*
X74525238Y-61023428D01*
X74620476Y-61118666D01*
X74668095Y-61213904D01*
X74382380Y-60023428D02*
X74382380Y-59928190D01*
X74430000Y-59832952D01*
X74477619Y-59785333D01*
X74572857Y-59737714D01*
X74763333Y-59690095D01*
X75001428Y-59690095D01*
X75191904Y-59737714D01*
X75287142Y-59785333D01*
X75334761Y-59832952D01*
X75382380Y-59928190D01*
X75382380Y-60023428D01*
X75334761Y-60118666D01*
X75287142Y-60166285D01*
X75191904Y-60213904D01*
X75001428Y-60261523D01*
X74763333Y-60261523D01*
X74572857Y-60213904D01*
X74477619Y-60166285D01*
X74430000Y-60118666D01*
X74382380Y-60023428D01*
X89007333Y-65889142D02*
X88959714Y-65936761D01*
X88816857Y-65984380D01*
X88721619Y-65984380D01*
X88578761Y-65936761D01*
X88483523Y-65841523D01*
X88435904Y-65746285D01*
X88388285Y-65555809D01*
X88388285Y-65412952D01*
X88435904Y-65222476D01*
X88483523Y-65127238D01*
X88578761Y-65032000D01*
X88721619Y-64984380D01*
X88816857Y-64984380D01*
X88959714Y-65032000D01*
X89007333Y-65079619D01*
X89340666Y-64984380D02*
X90007333Y-64984380D01*
X89578761Y-65984380D01*
X88157333Y-63116666D02*
X87824000Y-63116666D01*
X87790666Y-63450000D01*
X87824000Y-63416666D01*
X87890666Y-63383333D01*
X88057333Y-63383333D01*
X88124000Y-63416666D01*
X88157333Y-63450000D01*
X88190666Y-63516666D01*
X88190666Y-63683333D01*
X88157333Y-63750000D01*
X88124000Y-63783333D01*
X88057333Y-63816666D01*
X87890666Y-63816666D01*
X87824000Y-63783333D01*
X87790666Y-63750000D01*
X88790666Y-63116666D02*
X88657333Y-63116666D01*
X88590666Y-63150000D01*
X88557333Y-63183333D01*
X88490666Y-63283333D01*
X88457333Y-63416666D01*
X88457333Y-63683333D01*
X88490666Y-63750000D01*
X88524000Y-63783333D01*
X88590666Y-63816666D01*
X88724000Y-63816666D01*
X88790666Y-63783333D01*
X88824000Y-63750000D01*
X88857333Y-63683333D01*
X88857333Y-63516666D01*
X88824000Y-63450000D01*
X88790666Y-63416666D01*
X88724000Y-63383333D01*
X88590666Y-63383333D01*
X88524000Y-63416666D01*
X88490666Y-63450000D01*
X88457333Y-63516666D01*
X89290666Y-63116666D02*
X89357333Y-63116666D01*
X89424000Y-63150000D01*
X89457333Y-63183333D01*
X89490666Y-63250000D01*
X89524000Y-63383333D01*
X89524000Y-63550000D01*
X89490666Y-63683333D01*
X89457333Y-63750000D01*
X89424000Y-63783333D01*
X89357333Y-63816666D01*
X89290666Y-63816666D01*
X89224000Y-63783333D01*
X89190666Y-63750000D01*
X89157333Y-63683333D01*
X89124000Y-63550000D01*
X89124000Y-63383333D01*
X89157333Y-63250000D01*
X89190666Y-63183333D01*
X89224000Y-63150000D01*
X89290666Y-63116666D01*
X89824000Y-63350000D02*
X89824000Y-64050000D01*
X89824000Y-63383333D02*
X89890666Y-63350000D01*
X90024000Y-63350000D01*
X90090666Y-63383333D01*
X90124000Y-63416666D01*
X90157333Y-63483333D01*
X90157333Y-63683333D01*
X90124000Y-63750000D01*
X90090666Y-63783333D01*
X90024000Y-63816666D01*
X89890666Y-63816666D01*
X89824000Y-63783333D01*
X90357333Y-63350000D02*
X90624000Y-63350000D01*
X90457333Y-63816666D02*
X90457333Y-63216666D01*
X90490666Y-63150000D01*
X90557333Y-63116666D01*
X90624000Y-63116666D01*
X88776857Y-61565333D02*
X88729238Y-61517714D01*
X88681619Y-61374857D01*
X88681619Y-61279619D01*
X88729238Y-61136761D01*
X88824476Y-61041523D01*
X88919714Y-60993904D01*
X89110190Y-60946285D01*
X89253047Y-60946285D01*
X89443523Y-60993904D01*
X89538761Y-61041523D01*
X89634000Y-61136761D01*
X89681619Y-61279619D01*
X89681619Y-61374857D01*
X89634000Y-61517714D01*
X89586380Y-61565333D01*
X89253047Y-62136761D02*
X89300666Y-62041523D01*
X89348285Y-61993904D01*
X89443523Y-61946285D01*
X89491142Y-61946285D01*
X89586380Y-61993904D01*
X89634000Y-62041523D01*
X89681619Y-62136761D01*
X89681619Y-62327238D01*
X89634000Y-62422476D01*
X89586380Y-62470095D01*
X89491142Y-62517714D01*
X89443523Y-62517714D01*
X89348285Y-62470095D01*
X89300666Y-62422476D01*
X89253047Y-62327238D01*
X89253047Y-62136761D01*
X89205428Y-62041523D01*
X89157809Y-61993904D01*
X89062571Y-61946285D01*
X88872095Y-61946285D01*
X88776857Y-61993904D01*
X88729238Y-62041523D01*
X88681619Y-62136761D01*
X88681619Y-62327238D01*
X88729238Y-62422476D01*
X88776857Y-62470095D01*
X88872095Y-62517714D01*
X89062571Y-62517714D01*
X89157809Y-62470095D01*
X89205428Y-62422476D01*
X89253047Y-62327238D01*
X88017333Y-58798666D02*
X87684000Y-58798666D01*
X87650666Y-59132000D01*
X87684000Y-59098666D01*
X87750666Y-59065333D01*
X87917333Y-59065333D01*
X87984000Y-59098666D01*
X88017333Y-59132000D01*
X88050666Y-59198666D01*
X88050666Y-59365333D01*
X88017333Y-59432000D01*
X87984000Y-59465333D01*
X87917333Y-59498666D01*
X87750666Y-59498666D01*
X87684000Y-59465333D01*
X87650666Y-59432000D01*
X88650666Y-58798666D02*
X88517333Y-58798666D01*
X88450666Y-58832000D01*
X88417333Y-58865333D01*
X88350666Y-58965333D01*
X88317333Y-59098666D01*
X88317333Y-59365333D01*
X88350666Y-59432000D01*
X88384000Y-59465333D01*
X88450666Y-59498666D01*
X88584000Y-59498666D01*
X88650666Y-59465333D01*
X88684000Y-59432000D01*
X88717333Y-59365333D01*
X88717333Y-59198666D01*
X88684000Y-59132000D01*
X88650666Y-59098666D01*
X88584000Y-59065333D01*
X88450666Y-59065333D01*
X88384000Y-59098666D01*
X88350666Y-59132000D01*
X88317333Y-59198666D01*
X89150666Y-58798666D02*
X89217333Y-58798666D01*
X89284000Y-58832000D01*
X89317333Y-58865333D01*
X89350666Y-58932000D01*
X89384000Y-59065333D01*
X89384000Y-59232000D01*
X89350666Y-59365333D01*
X89317333Y-59432000D01*
X89284000Y-59465333D01*
X89217333Y-59498666D01*
X89150666Y-59498666D01*
X89084000Y-59465333D01*
X89050666Y-59432000D01*
X89017333Y-59365333D01*
X88984000Y-59232000D01*
X88984000Y-59065333D01*
X89017333Y-58932000D01*
X89050666Y-58865333D01*
X89084000Y-58832000D01*
X89150666Y-58798666D01*
X89684000Y-59032000D02*
X89684000Y-59732000D01*
X89684000Y-59065333D02*
X89750666Y-59032000D01*
X89884000Y-59032000D01*
X89950666Y-59065333D01*
X89984000Y-59098666D01*
X90017333Y-59165333D01*
X90017333Y-59365333D01*
X89984000Y-59432000D01*
X89950666Y-59465333D01*
X89884000Y-59498666D01*
X89750666Y-59498666D01*
X89684000Y-59465333D01*
X90550666Y-59132000D02*
X90317333Y-59132000D01*
X90317333Y-59498666D02*
X90317333Y-58798666D01*
X90650666Y-58798666D01*
X111339333Y-66143142D02*
X111291714Y-66190761D01*
X111148857Y-66238380D01*
X111053619Y-66238380D01*
X110910761Y-66190761D01*
X110815523Y-66095523D01*
X110767904Y-66000285D01*
X110720285Y-65809809D01*
X110720285Y-65666952D01*
X110767904Y-65476476D01*
X110815523Y-65381238D01*
X110910761Y-65286000D01*
X111053619Y-65238380D01*
X111148857Y-65238380D01*
X111291714Y-65286000D01*
X111339333Y-65333619D01*
X111815523Y-66238380D02*
X112006000Y-66238380D01*
X112101238Y-66190761D01*
X112148857Y-66143142D01*
X112244095Y-66000285D01*
X112291714Y-65809809D01*
X112291714Y-65428857D01*
X112244095Y-65333619D01*
X112196476Y-65286000D01*
X112101238Y-65238380D01*
X111910761Y-65238380D01*
X111815523Y-65286000D01*
X111767904Y-65333619D01*
X111720285Y-65428857D01*
X111720285Y-65666952D01*
X111767904Y-65762190D01*
X111815523Y-65809809D01*
X111910761Y-65857428D01*
X112101238Y-65857428D01*
X112196476Y-65809809D01*
X112244095Y-65762190D01*
X112291714Y-65666952D01*
X110172666Y-59940000D02*
X110206000Y-59973333D01*
X110172666Y-60006666D01*
X110139333Y-59973333D01*
X110172666Y-59940000D01*
X110172666Y-60006666D01*
X110639333Y-59306666D02*
X110706000Y-59306666D01*
X110772666Y-59340000D01*
X110806000Y-59373333D01*
X110839333Y-59440000D01*
X110872666Y-59573333D01*
X110872666Y-59740000D01*
X110839333Y-59873333D01*
X110806000Y-59940000D01*
X110772666Y-59973333D01*
X110706000Y-60006666D01*
X110639333Y-60006666D01*
X110572666Y-59973333D01*
X110539333Y-59940000D01*
X110506000Y-59873333D01*
X110472666Y-59740000D01*
X110472666Y-59573333D01*
X110506000Y-59440000D01*
X110539333Y-59373333D01*
X110572666Y-59340000D01*
X110639333Y-59306666D01*
X111306000Y-59306666D02*
X111372666Y-59306666D01*
X111439333Y-59340000D01*
X111472666Y-59373333D01*
X111506000Y-59440000D01*
X111539333Y-59573333D01*
X111539333Y-59740000D01*
X111506000Y-59873333D01*
X111472666Y-59940000D01*
X111439333Y-59973333D01*
X111372666Y-60006666D01*
X111306000Y-60006666D01*
X111239333Y-59973333D01*
X111206000Y-59940000D01*
X111172666Y-59873333D01*
X111139333Y-59740000D01*
X111139333Y-59573333D01*
X111172666Y-59440000D01*
X111206000Y-59373333D01*
X111239333Y-59340000D01*
X111306000Y-59306666D01*
X111806000Y-59373333D02*
X111839333Y-59340000D01*
X111906000Y-59306666D01*
X112072666Y-59306666D01*
X112139333Y-59340000D01*
X112172666Y-59373333D01*
X112206000Y-59440000D01*
X112206000Y-59506666D01*
X112172666Y-59606666D01*
X111772666Y-60006666D01*
X112206000Y-60006666D01*
X112472666Y-59373333D02*
X112506000Y-59340000D01*
X112572666Y-59306666D01*
X112739333Y-59306666D01*
X112806000Y-59340000D01*
X112839333Y-59373333D01*
X112872666Y-59440000D01*
X112872666Y-59506666D01*
X112839333Y-59606666D01*
X112439333Y-60006666D01*
X112872666Y-60006666D01*
X102481142Y-68683142D02*
X102433523Y-68730761D01*
X102290666Y-68778380D01*
X102195428Y-68778380D01*
X102052571Y-68730761D01*
X101957333Y-68635523D01*
X101909714Y-68540285D01*
X101862095Y-68349809D01*
X101862095Y-68206952D01*
X101909714Y-68016476D01*
X101957333Y-67921238D01*
X102052571Y-67826000D01*
X102195428Y-67778380D01*
X102290666Y-67778380D01*
X102433523Y-67826000D01*
X102481142Y-67873619D01*
X103433523Y-68778380D02*
X102862095Y-68778380D01*
X103147809Y-68778380D02*
X103147809Y-67778380D01*
X103052571Y-67921238D01*
X102957333Y-68016476D01*
X102862095Y-68064095D01*
X104052571Y-67778380D02*
X104147809Y-67778380D01*
X104243047Y-67826000D01*
X104290666Y-67873619D01*
X104338285Y-67968857D01*
X104385904Y-68159333D01*
X104385904Y-68397428D01*
X104338285Y-68587904D01*
X104290666Y-68683142D01*
X104243047Y-68730761D01*
X104147809Y-68778380D01*
X104052571Y-68778380D01*
X103957333Y-68730761D01*
X103909714Y-68683142D01*
X103862095Y-68587904D01*
X103814476Y-68397428D01*
X103814476Y-68159333D01*
X103862095Y-67968857D01*
X103909714Y-67873619D01*
X103957333Y-67826000D01*
X104052571Y-67778380D01*
X101695428Y-61735857D02*
X101731142Y-61771571D01*
X101695428Y-61807285D01*
X101659714Y-61771571D01*
X101695428Y-61735857D01*
X101695428Y-61807285D01*
X102195428Y-61057285D02*
X102266857Y-61057285D01*
X102338285Y-61093000D01*
X102374000Y-61128714D01*
X102409714Y-61200142D01*
X102445428Y-61343000D01*
X102445428Y-61521571D01*
X102409714Y-61664428D01*
X102374000Y-61735857D01*
X102338285Y-61771571D01*
X102266857Y-61807285D01*
X102195428Y-61807285D01*
X102124000Y-61771571D01*
X102088285Y-61735857D01*
X102052571Y-61664428D01*
X102016857Y-61521571D01*
X102016857Y-61343000D01*
X102052571Y-61200142D01*
X102088285Y-61128714D01*
X102124000Y-61093000D01*
X102195428Y-61057285D01*
X102909714Y-61057285D02*
X102981142Y-61057285D01*
X103052571Y-61093000D01*
X103088285Y-61128714D01*
X103124000Y-61200142D01*
X103159714Y-61343000D01*
X103159714Y-61521571D01*
X103124000Y-61664428D01*
X103088285Y-61735857D01*
X103052571Y-61771571D01*
X102981142Y-61807285D01*
X102909714Y-61807285D01*
X102838285Y-61771571D01*
X102802571Y-61735857D01*
X102766857Y-61664428D01*
X102731142Y-61521571D01*
X102731142Y-61343000D01*
X102766857Y-61200142D01*
X102802571Y-61128714D01*
X102838285Y-61093000D01*
X102909714Y-61057285D01*
X103445428Y-61128714D02*
X103481142Y-61093000D01*
X103552571Y-61057285D01*
X103731142Y-61057285D01*
X103802571Y-61093000D01*
X103838285Y-61128714D01*
X103874000Y-61200142D01*
X103874000Y-61271571D01*
X103838285Y-61378714D01*
X103409714Y-61807285D01*
X103874000Y-61807285D01*
X104159714Y-61128714D02*
X104195428Y-61093000D01*
X104266857Y-61057285D01*
X104445428Y-61057285D01*
X104516857Y-61093000D01*
X104552571Y-61128714D01*
X104588285Y-61200142D01*
X104588285Y-61271571D01*
X104552571Y-61378714D01*
X104124000Y-61807285D01*
X104588285Y-61807285D01*
X134993142Y-65889142D02*
X134945523Y-65936761D01*
X134802666Y-65984380D01*
X134707428Y-65984380D01*
X134564571Y-65936761D01*
X134469333Y-65841523D01*
X134421714Y-65746285D01*
X134374095Y-65555809D01*
X134374095Y-65412952D01*
X134421714Y-65222476D01*
X134469333Y-65127238D01*
X134564571Y-65032000D01*
X134707428Y-64984380D01*
X134802666Y-64984380D01*
X134945523Y-65032000D01*
X134993142Y-65079619D01*
X135945523Y-65984380D02*
X135374095Y-65984380D01*
X135659809Y-65984380D02*
X135659809Y-64984380D01*
X135564571Y-65127238D01*
X135469333Y-65222476D01*
X135374095Y-65270095D01*
X136897904Y-65984380D02*
X136326476Y-65984380D01*
X136612190Y-65984380D02*
X136612190Y-64984380D01*
X136516952Y-65127238D01*
X136421714Y-65222476D01*
X136326476Y-65270095D01*
X134683619Y-59539142D02*
X134731238Y-59586761D01*
X134683619Y-59634380D01*
X134636000Y-59586761D01*
X134683619Y-59539142D01*
X134683619Y-59634380D01*
X135350285Y-58634380D02*
X135445523Y-58634380D01*
X135540761Y-58682000D01*
X135588380Y-58729619D01*
X135636000Y-58824857D01*
X135683619Y-59015333D01*
X135683619Y-59253428D01*
X135636000Y-59443904D01*
X135588380Y-59539142D01*
X135540761Y-59586761D01*
X135445523Y-59634380D01*
X135350285Y-59634380D01*
X135255047Y-59586761D01*
X135207428Y-59539142D01*
X135159809Y-59443904D01*
X135112190Y-59253428D01*
X135112190Y-59015333D01*
X135159809Y-58824857D01*
X135207428Y-58729619D01*
X135255047Y-58682000D01*
X135350285Y-58634380D01*
X136636000Y-59634380D02*
X136064571Y-59634380D01*
X136350285Y-59634380D02*
X136350285Y-58634380D01*
X136255047Y-58777238D01*
X136159809Y-58872476D01*
X136064571Y-58920095D01*
X154551142Y-65889142D02*
X154503523Y-65936761D01*
X154360666Y-65984380D01*
X154265428Y-65984380D01*
X154122571Y-65936761D01*
X154027333Y-65841523D01*
X153979714Y-65746285D01*
X153932095Y-65555809D01*
X153932095Y-65412952D01*
X153979714Y-65222476D01*
X154027333Y-65127238D01*
X154122571Y-65032000D01*
X154265428Y-64984380D01*
X154360666Y-64984380D01*
X154503523Y-65032000D01*
X154551142Y-65079619D01*
X155503523Y-65984380D02*
X154932095Y-65984380D01*
X155217809Y-65984380D02*
X155217809Y-64984380D01*
X155122571Y-65127238D01*
X155027333Y-65222476D01*
X154932095Y-65270095D01*
X155836857Y-64984380D02*
X156455904Y-64984380D01*
X156122571Y-65365333D01*
X156265428Y-65365333D01*
X156360666Y-65412952D01*
X156408285Y-65460571D01*
X156455904Y-65555809D01*
X156455904Y-65793904D01*
X156408285Y-65889142D01*
X156360666Y-65936761D01*
X156265428Y-65984380D01*
X155979714Y-65984380D01*
X155884476Y-65936761D01*
X155836857Y-65889142D01*
X153765428Y-59539142D02*
X153813047Y-59586761D01*
X153765428Y-59634380D01*
X153717809Y-59586761D01*
X153765428Y-59539142D01*
X153765428Y-59634380D01*
X154432095Y-58634380D02*
X154527333Y-58634380D01*
X154622571Y-58682000D01*
X154670190Y-58729619D01*
X154717809Y-58824857D01*
X154765428Y-59015333D01*
X154765428Y-59253428D01*
X154717809Y-59443904D01*
X154670190Y-59539142D01*
X154622571Y-59586761D01*
X154527333Y-59634380D01*
X154432095Y-59634380D01*
X154336857Y-59586761D01*
X154289238Y-59539142D01*
X154241619Y-59443904D01*
X154194000Y-59253428D01*
X154194000Y-59015333D01*
X154241619Y-58824857D01*
X154289238Y-58729619D01*
X154336857Y-58682000D01*
X154432095Y-58634380D01*
X155622571Y-58967714D02*
X155622571Y-59634380D01*
X155384476Y-58586761D02*
X155146380Y-59301047D01*
X155765428Y-59301047D01*
X156051142Y-58634380D02*
X156717809Y-58634380D01*
X156289238Y-59634380D01*
X145645142Y-66936857D02*
X145692761Y-66984476D01*
X145740380Y-67127333D01*
X145740380Y-67222571D01*
X145692761Y-67365428D01*
X145597523Y-67460666D01*
X145502285Y-67508285D01*
X145311809Y-67555904D01*
X145168952Y-67555904D01*
X144978476Y-67508285D01*
X144883238Y-67460666D01*
X144788000Y-67365428D01*
X144740380Y-67222571D01*
X144740380Y-67127333D01*
X144788000Y-66984476D01*
X144835619Y-66936857D01*
X145740380Y-65984476D02*
X145740380Y-66555904D01*
X145740380Y-66270190D02*
X144740380Y-66270190D01*
X144883238Y-66365428D01*
X144978476Y-66460666D01*
X145026095Y-66555904D01*
X145073714Y-65127333D02*
X145740380Y-65127333D01*
X144692761Y-65365428D02*
X145407047Y-65603523D01*
X145407047Y-64984476D01*
X144335619Y-59539142D02*
X144383238Y-59586761D01*
X144335619Y-59634380D01*
X144288000Y-59586761D01*
X144335619Y-59539142D01*
X144335619Y-59634380D01*
X145240380Y-58967714D02*
X145240380Y-59634380D01*
X145002285Y-58586761D02*
X144764190Y-59301047D01*
X145383238Y-59301047D01*
X145668952Y-58634380D02*
X146335619Y-58634380D01*
X145907047Y-59634380D01*
X112407142Y-90527142D02*
X112359523Y-90574761D01*
X112216666Y-90622380D01*
X112121428Y-90622380D01*
X111978571Y-90574761D01*
X111883333Y-90479523D01*
X111835714Y-90384285D01*
X111788095Y-90193809D01*
X111788095Y-90050952D01*
X111835714Y-89860476D01*
X111883333Y-89765238D01*
X111978571Y-89670000D01*
X112121428Y-89622380D01*
X112216666Y-89622380D01*
X112359523Y-89670000D01*
X112407142Y-89717619D01*
X113359523Y-90622380D02*
X112788095Y-90622380D01*
X113073809Y-90622380D02*
X113073809Y-89622380D01*
X112978571Y-89765238D01*
X112883333Y-89860476D01*
X112788095Y-89908095D01*
X114264285Y-89622380D02*
X113788095Y-89622380D01*
X113740476Y-90098571D01*
X113788095Y-90050952D01*
X113883333Y-90003333D01*
X114121428Y-90003333D01*
X114216666Y-90050952D01*
X114264285Y-90098571D01*
X114311904Y-90193809D01*
X114311904Y-90431904D01*
X114264285Y-90527142D01*
X114216666Y-90574761D01*
X114121428Y-90622380D01*
X113883333Y-90622380D01*
X113788095Y-90574761D01*
X113740476Y-90527142D01*
X112573809Y-93067142D02*
X112621428Y-93114761D01*
X112573809Y-93162380D01*
X112526190Y-93114761D01*
X112573809Y-93067142D01*
X112573809Y-93162380D01*
X113573809Y-93162380D02*
X113002380Y-93162380D01*
X113288095Y-93162380D02*
X113288095Y-92162380D01*
X113192857Y-92305238D01*
X113097619Y-92400476D01*
X113002380Y-92448095D01*
X135267142Y-91035142D02*
X135219523Y-91082761D01*
X135076666Y-91130380D01*
X134981428Y-91130380D01*
X134838571Y-91082761D01*
X134743333Y-90987523D01*
X134695714Y-90892285D01*
X134648095Y-90701809D01*
X134648095Y-90558952D01*
X134695714Y-90368476D01*
X134743333Y-90273238D01*
X134838571Y-90178000D01*
X134981428Y-90130380D01*
X135076666Y-90130380D01*
X135219523Y-90178000D01*
X135267142Y-90225619D01*
X136219523Y-91130380D02*
X135648095Y-91130380D01*
X135933809Y-91130380D02*
X135933809Y-90130380D01*
X135838571Y-90273238D01*
X135743333Y-90368476D01*
X135648095Y-90416095D01*
X137076666Y-90130380D02*
X136886190Y-90130380D01*
X136790952Y-90178000D01*
X136743333Y-90225619D01*
X136648095Y-90368476D01*
X136600476Y-90558952D01*
X136600476Y-90939904D01*
X136648095Y-91035142D01*
X136695714Y-91082761D01*
X136790952Y-91130380D01*
X136981428Y-91130380D01*
X137076666Y-91082761D01*
X137124285Y-91035142D01*
X137171904Y-90939904D01*
X137171904Y-90701809D01*
X137124285Y-90606571D01*
X137076666Y-90558952D01*
X136981428Y-90511333D01*
X136790952Y-90511333D01*
X136695714Y-90558952D01*
X136648095Y-90606571D01*
X136600476Y-90701809D01*
X135413809Y-95353142D02*
X135461428Y-95400761D01*
X135413809Y-95448380D01*
X135366190Y-95400761D01*
X135413809Y-95353142D01*
X135413809Y-95448380D01*
X136413809Y-95448380D02*
X135842380Y-95448380D01*
X136128095Y-95448380D02*
X136128095Y-94448380D01*
X136032857Y-94591238D01*
X135937619Y-94686476D01*
X135842380Y-94734095D01*
X72334380Y-95734095D02*
X71334380Y-95734095D01*
X71334380Y-95496000D01*
X71382000Y-95353142D01*
X71477238Y-95257904D01*
X71572476Y-95210285D01*
X71762952Y-95162666D01*
X71905809Y-95162666D01*
X72096285Y-95210285D01*
X72191523Y-95257904D01*
X72286761Y-95353142D01*
X72334380Y-95496000D01*
X72334380Y-95734095D01*
X72334380Y-94210285D02*
X72334380Y-94781714D01*
X72334380Y-94496000D02*
X71334380Y-94496000D01*
X71477238Y-94591238D01*
X71572476Y-94686476D01*
X71620095Y-94781714D01*
X76232380Y-96916666D02*
X76232380Y-97488095D01*
X76232380Y-97202380D02*
X75232380Y-97202380D01*
X75375238Y-97297619D01*
X75470476Y-97392857D01*
X75518095Y-97488095D01*
X76232380Y-96488095D02*
X75232380Y-96488095D01*
X76232380Y-95916666D01*
X75232380Y-95916666D01*
X75232380Y-95535714D02*
X75232380Y-94869047D01*
X76232380Y-95297619D01*
X75232380Y-94011904D02*
X75232380Y-94488095D01*
X75708571Y-94535714D01*
X75660952Y-94488095D01*
X75613333Y-94392857D01*
X75613333Y-94154761D01*
X75660952Y-94059523D01*
X75708571Y-94011904D01*
X75803809Y-93964285D01*
X76041904Y-93964285D01*
X76137142Y-94011904D01*
X76184761Y-94059523D01*
X76232380Y-94154761D01*
X76232380Y-94392857D01*
X76184761Y-94488095D01*
X76137142Y-94535714D01*
X76232380Y-93488095D02*
X76232380Y-93297619D01*
X76184761Y-93202380D01*
X76137142Y-93154761D01*
X75994285Y-93059523D01*
X75803809Y-93011904D01*
X75422857Y-93011904D01*
X75327619Y-93059523D01*
X75280000Y-93107142D01*
X75232380Y-93202380D01*
X75232380Y-93392857D01*
X75280000Y-93488095D01*
X75327619Y-93535714D01*
X75422857Y-93583333D01*
X75660952Y-93583333D01*
X75756190Y-93535714D01*
X75803809Y-93488095D01*
X75851428Y-93392857D01*
X75851428Y-93202380D01*
X75803809Y-93107142D01*
X75756190Y-93059523D01*
X75660952Y-93011904D01*
X73271095Y-95575380D02*
X73271095Y-94575380D01*
X73842523Y-95575380D02*
X73413952Y-95003952D01*
X73842523Y-94575380D02*
X73271095Y-95146809D01*
X61491904Y-96122380D02*
X61491904Y-95122380D01*
X61730000Y-95122380D01*
X61872857Y-95170000D01*
X61968095Y-95265238D01*
X62015714Y-95360476D01*
X62063333Y-95550952D01*
X62063333Y-95693809D01*
X62015714Y-95884285D01*
X61968095Y-95979523D01*
X61872857Y-96074761D01*
X61730000Y-96122380D01*
X61491904Y-96122380D01*
X62444285Y-95217619D02*
X62491904Y-95170000D01*
X62587142Y-95122380D01*
X62825238Y-95122380D01*
X62920476Y-95170000D01*
X62968095Y-95217619D01*
X63015714Y-95312857D01*
X63015714Y-95408095D01*
X62968095Y-95550952D01*
X62396666Y-96122380D01*
X63015714Y-96122380D01*
X61968095Y-98242380D02*
X61968095Y-97242380D01*
X62539523Y-98242380D02*
X62110952Y-97670952D01*
X62539523Y-97242380D02*
X61968095Y-97813809D01*
X159964380Y-89638095D02*
X158964380Y-89638095D01*
X158964380Y-89400000D01*
X159012000Y-89257142D01*
X159107238Y-89161904D01*
X159202476Y-89114285D01*
X159392952Y-89066666D01*
X159535809Y-89066666D01*
X159726285Y-89114285D01*
X159821523Y-89161904D01*
X159916761Y-89257142D01*
X159964380Y-89400000D01*
X159964380Y-89638095D01*
X158964380Y-88733333D02*
X158964380Y-88114285D01*
X159345333Y-88447619D01*
X159345333Y-88304761D01*
X159392952Y-88209523D01*
X159440571Y-88161904D01*
X159535809Y-88114285D01*
X159773904Y-88114285D01*
X159869142Y-88161904D01*
X159916761Y-88209523D01*
X159964380Y-88304761D01*
X159964380Y-88590476D01*
X159916761Y-88685714D01*
X159869142Y-88733333D01*
X161742380Y-89161904D02*
X160742380Y-89161904D01*
X161742380Y-88590476D02*
X161170952Y-89019047D01*
X160742380Y-88590476D02*
X161313809Y-89161904D01*
X159964380Y-78208095D02*
X158964380Y-78208095D01*
X158964380Y-77970000D01*
X159012000Y-77827142D01*
X159107238Y-77731904D01*
X159202476Y-77684285D01*
X159392952Y-77636666D01*
X159535809Y-77636666D01*
X159726285Y-77684285D01*
X159821523Y-77731904D01*
X159916761Y-77827142D01*
X159964380Y-77970000D01*
X159964380Y-78208095D01*
X159297714Y-76779523D02*
X159964380Y-76779523D01*
X158916761Y-77017619D02*
X159631047Y-77255714D01*
X159631047Y-76636666D01*
X161742380Y-77731904D02*
X160742380Y-77731904D01*
X161742380Y-77160476D02*
X161170952Y-77589047D01*
X160742380Y-77160476D02*
X161313809Y-77731904D01*
X53006666Y-83562380D02*
X53006666Y-84276666D01*
X52959047Y-84419523D01*
X52863809Y-84514761D01*
X52720952Y-84562380D01*
X52625714Y-84562380D01*
X54006666Y-84562380D02*
X53435238Y-84562380D01*
X53720952Y-84562380D02*
X53720952Y-83562380D01*
X53625714Y-83705238D01*
X53530476Y-83800476D01*
X53435238Y-83848095D01*
X93646666Y-98512380D02*
X93646666Y-99226666D01*
X93599047Y-99369523D01*
X93503809Y-99464761D01*
X93360952Y-99512380D01*
X93265714Y-99512380D01*
X94075238Y-98607619D02*
X94122857Y-98560000D01*
X94218095Y-98512380D01*
X94456190Y-98512380D01*
X94551428Y-98560000D01*
X94599047Y-98607619D01*
X94646666Y-98702857D01*
X94646666Y-98798095D01*
X94599047Y-98940952D01*
X94027619Y-99512380D01*
X94646666Y-99512380D01*
X114756666Y-98512380D02*
X114756666Y-99226666D01*
X114709047Y-99369523D01*
X114613809Y-99464761D01*
X114470952Y-99512380D01*
X114375714Y-99512380D01*
X115137619Y-98512380D02*
X115756666Y-98512380D01*
X115423333Y-98893333D01*
X115566190Y-98893333D01*
X115661428Y-98940952D01*
X115709047Y-98988571D01*
X115756666Y-99083809D01*
X115756666Y-99321904D01*
X115709047Y-99417142D01*
X115661428Y-99464761D01*
X115566190Y-99512380D01*
X115280476Y-99512380D01*
X115185238Y-99464761D01*
X115137619Y-99417142D01*
X107465761Y-100044047D02*
X107513380Y-99901190D01*
X107513380Y-99663095D01*
X107465761Y-99567857D01*
X107418142Y-99520238D01*
X107322904Y-99472619D01*
X107227666Y-99472619D01*
X107132428Y-99520238D01*
X107084809Y-99567857D01*
X107037190Y-99663095D01*
X106989571Y-99853571D01*
X106941952Y-99948809D01*
X106894333Y-99996428D01*
X106799095Y-100044047D01*
X106703857Y-100044047D01*
X106608619Y-99996428D01*
X106561000Y-99948809D01*
X106513380Y-99853571D01*
X106513380Y-99615476D01*
X106561000Y-99472619D01*
X107465761Y-98663095D02*
X107513380Y-98758333D01*
X107513380Y-98948809D01*
X107465761Y-99044047D01*
X107370523Y-99091666D01*
X106989571Y-99091666D01*
X106894333Y-99044047D01*
X106846714Y-98948809D01*
X106846714Y-98758333D01*
X106894333Y-98663095D01*
X106989571Y-98615476D01*
X107084809Y-98615476D01*
X107180047Y-99091666D01*
X106846714Y-98186904D02*
X107513380Y-98186904D01*
X106941952Y-98186904D02*
X106894333Y-98139285D01*
X106846714Y-98044047D01*
X106846714Y-97901190D01*
X106894333Y-97805952D01*
X106989571Y-97758333D01*
X107513380Y-97758333D01*
X107513380Y-96853571D02*
X106513380Y-96853571D01*
X107465761Y-96853571D02*
X107513380Y-96948809D01*
X107513380Y-97139285D01*
X107465761Y-97234523D01*
X107418142Y-97282142D01*
X107322904Y-97329761D01*
X107037190Y-97329761D01*
X106941952Y-97282142D01*
X106894333Y-97234523D01*
X106846714Y-97139285D01*
X106846714Y-96948809D01*
X106894333Y-96853571D01*
X126376666Y-98512380D02*
X126376666Y-99226666D01*
X126329047Y-99369523D01*
X126233809Y-99464761D01*
X126090952Y-99512380D01*
X125995714Y-99512380D01*
X127281428Y-98845714D02*
X127281428Y-99512380D01*
X127043333Y-98464761D02*
X126805238Y-99179047D01*
X127424285Y-99179047D01*
X119197380Y-99409047D02*
X118721190Y-99742380D01*
X119197380Y-99980476D02*
X118197380Y-99980476D01*
X118197380Y-99599523D01*
X118245000Y-99504285D01*
X118292619Y-99456666D01*
X118387857Y-99409047D01*
X118530714Y-99409047D01*
X118625952Y-99456666D01*
X118673571Y-99504285D01*
X118721190Y-99599523D01*
X118721190Y-99980476D01*
X119149761Y-98599523D02*
X119197380Y-98694761D01*
X119197380Y-98885238D01*
X119149761Y-98980476D01*
X119054523Y-99028095D01*
X118673571Y-99028095D01*
X118578333Y-98980476D01*
X118530714Y-98885238D01*
X118530714Y-98694761D01*
X118578333Y-98599523D01*
X118673571Y-98551904D01*
X118768809Y-98551904D01*
X118864047Y-99028095D01*
X118530714Y-98266190D02*
X118530714Y-97885238D01*
X118197380Y-98123333D02*
X119054523Y-98123333D01*
X119149761Y-98075714D01*
X119197380Y-97980476D01*
X119197380Y-97885238D01*
X118530714Y-97123333D02*
X119197380Y-97123333D01*
X118530714Y-97551904D02*
X119054523Y-97551904D01*
X119149761Y-97504285D01*
X119197380Y-97409047D01*
X119197380Y-97266190D01*
X119149761Y-97170952D01*
X119102142Y-97123333D01*
X119197380Y-96647142D02*
X118530714Y-96647142D01*
X118721190Y-96647142D02*
X118625952Y-96599523D01*
X118578333Y-96551904D01*
X118530714Y-96456666D01*
X118530714Y-96361428D01*
X118530714Y-96028095D02*
X119197380Y-96028095D01*
X118625952Y-96028095D02*
X118578333Y-95980476D01*
X118530714Y-95885238D01*
X118530714Y-95742380D01*
X118578333Y-95647142D01*
X118673571Y-95599523D01*
X119197380Y-95599523D01*
X137616666Y-98512380D02*
X137616666Y-99226666D01*
X137569047Y-99369523D01*
X137473809Y-99464761D01*
X137330952Y-99512380D01*
X137235714Y-99512380D01*
X138569047Y-98512380D02*
X138092857Y-98512380D01*
X138045238Y-98988571D01*
X138092857Y-98940952D01*
X138188095Y-98893333D01*
X138426190Y-98893333D01*
X138521428Y-98940952D01*
X138569047Y-98988571D01*
X138616666Y-99083809D01*
X138616666Y-99321904D01*
X138569047Y-99417142D01*
X138521428Y-99464761D01*
X138426190Y-99512380D01*
X138188095Y-99512380D01*
X138092857Y-99464761D01*
X138045238Y-99417142D01*
X60793333Y-84780380D02*
X60460000Y-84304190D01*
X60221904Y-84780380D02*
X60221904Y-83780380D01*
X60602857Y-83780380D01*
X60698095Y-83828000D01*
X60745714Y-83875619D01*
X60793333Y-83970857D01*
X60793333Y-84113714D01*
X60745714Y-84208952D01*
X60698095Y-84256571D01*
X60602857Y-84304190D01*
X60221904Y-84304190D01*
X61745714Y-84780380D02*
X61174285Y-84780380D01*
X61460000Y-84780380D02*
X61460000Y-83780380D01*
X61364761Y-83923238D01*
X61269523Y-84018476D01*
X61174285Y-84066095D01*
X59745714Y-85812380D02*
X60364761Y-85812380D01*
X60031428Y-86193333D01*
X60174285Y-86193333D01*
X60269523Y-86240952D01*
X60317142Y-86288571D01*
X60364761Y-86383809D01*
X60364761Y-86621904D01*
X60317142Y-86717142D01*
X60269523Y-86764761D01*
X60174285Y-86812380D01*
X59888571Y-86812380D01*
X59793333Y-86764761D01*
X59745714Y-86717142D01*
X60698095Y-85812380D02*
X61317142Y-85812380D01*
X60983809Y-86193333D01*
X61126666Y-86193333D01*
X61221904Y-86240952D01*
X61269523Y-86288571D01*
X61317142Y-86383809D01*
X61317142Y-86621904D01*
X61269523Y-86717142D01*
X61221904Y-86764761D01*
X61126666Y-86812380D01*
X60840952Y-86812380D01*
X60745714Y-86764761D01*
X60698095Y-86717142D01*
X61745714Y-86812380D02*
X61745714Y-85812380D01*
X61840952Y-86431428D02*
X62126666Y-86812380D01*
X62126666Y-86145714D02*
X61745714Y-86526666D01*
X56983333Y-78430380D02*
X56650000Y-77954190D01*
X56411904Y-78430380D02*
X56411904Y-77430380D01*
X56792857Y-77430380D01*
X56888095Y-77478000D01*
X56935714Y-77525619D01*
X56983333Y-77620857D01*
X56983333Y-77763714D01*
X56935714Y-77858952D01*
X56888095Y-77906571D01*
X56792857Y-77954190D01*
X56411904Y-77954190D01*
X57364285Y-77525619D02*
X57411904Y-77478000D01*
X57507142Y-77430380D01*
X57745238Y-77430380D01*
X57840476Y-77478000D01*
X57888095Y-77525619D01*
X57935714Y-77620857D01*
X57935714Y-77716095D01*
X57888095Y-77858952D01*
X57316666Y-78430380D01*
X57935714Y-78430380D01*
X55983333Y-79557619D02*
X56030952Y-79510000D01*
X56126190Y-79462380D01*
X56364285Y-79462380D01*
X56459523Y-79510000D01*
X56507142Y-79557619D01*
X56554761Y-79652857D01*
X56554761Y-79748095D01*
X56507142Y-79890952D01*
X55935714Y-80462380D01*
X56554761Y-80462380D01*
X56888095Y-79462380D02*
X57507142Y-79462380D01*
X57173809Y-79843333D01*
X57316666Y-79843333D01*
X57411904Y-79890952D01*
X57459523Y-79938571D01*
X57507142Y-80033809D01*
X57507142Y-80271904D01*
X57459523Y-80367142D01*
X57411904Y-80414761D01*
X57316666Y-80462380D01*
X57030952Y-80462380D01*
X56935714Y-80414761D01*
X56888095Y-80367142D01*
X57935714Y-80462380D02*
X57935714Y-79462380D01*
X58030952Y-80081428D02*
X58316666Y-80462380D01*
X58316666Y-79795714D02*
X57935714Y-80176666D01*
X84780380Y-95416666D02*
X84304190Y-95750000D01*
X84780380Y-95988095D02*
X83780380Y-95988095D01*
X83780380Y-95607142D01*
X83828000Y-95511904D01*
X83875619Y-95464285D01*
X83970857Y-95416666D01*
X84113714Y-95416666D01*
X84208952Y-95464285D01*
X84256571Y-95511904D01*
X84304190Y-95607142D01*
X84304190Y-95988095D01*
X83780380Y-95083333D02*
X83780380Y-94464285D01*
X84161333Y-94797619D01*
X84161333Y-94654761D01*
X84208952Y-94559523D01*
X84256571Y-94511904D01*
X84351809Y-94464285D01*
X84589904Y-94464285D01*
X84685142Y-94511904D01*
X84732761Y-94559523D01*
X84780380Y-94654761D01*
X84780380Y-94940476D01*
X84732761Y-95035714D01*
X84685142Y-95083333D01*
X85907619Y-96892857D02*
X85860000Y-96845238D01*
X85812380Y-96750000D01*
X85812380Y-96511904D01*
X85860000Y-96416666D01*
X85907619Y-96369047D01*
X86002857Y-96321428D01*
X86098095Y-96321428D01*
X86240952Y-96369047D01*
X86812380Y-96940476D01*
X86812380Y-96321428D01*
X85907619Y-95940476D02*
X85860000Y-95892857D01*
X85812380Y-95797619D01*
X85812380Y-95559523D01*
X85860000Y-95464285D01*
X85907619Y-95416666D01*
X86002857Y-95369047D01*
X86098095Y-95369047D01*
X86240952Y-95416666D01*
X86812380Y-95988095D01*
X86812380Y-95369047D01*
X85812380Y-94750000D02*
X85812380Y-94654761D01*
X85860000Y-94559523D01*
X85907619Y-94511904D01*
X86002857Y-94464285D01*
X86193333Y-94416666D01*
X86431428Y-94416666D01*
X86621904Y-94464285D01*
X86717142Y-94511904D01*
X86764761Y-94559523D01*
X86812380Y-94654761D01*
X86812380Y-94750000D01*
X86764761Y-94845238D01*
X86717142Y-94892857D01*
X86621904Y-94940476D01*
X86431428Y-94988095D01*
X86193333Y-94988095D01*
X86002857Y-94940476D01*
X85907619Y-94892857D01*
X85860000Y-94845238D01*
X85812380Y-94750000D01*
X86812380Y-93988095D02*
X85812380Y-93988095D01*
X86431428Y-93892857D02*
X86812380Y-93607142D01*
X86145714Y-93607142D02*
X86526666Y-93988095D01*
X78430380Y-95416666D02*
X77954190Y-95750000D01*
X78430380Y-95988095D02*
X77430380Y-95988095D01*
X77430380Y-95607142D01*
X77478000Y-95511904D01*
X77525619Y-95464285D01*
X77620857Y-95416666D01*
X77763714Y-95416666D01*
X77858952Y-95464285D01*
X77906571Y-95511904D01*
X77954190Y-95607142D01*
X77954190Y-95988095D01*
X77763714Y-94559523D02*
X78430380Y-94559523D01*
X77382761Y-94797619D02*
X78097047Y-95035714D01*
X78097047Y-94416666D01*
X79462380Y-96702380D02*
X79462380Y-96083333D01*
X79843333Y-96416666D01*
X79843333Y-96273809D01*
X79890952Y-96178571D01*
X79938571Y-96130952D01*
X80033809Y-96083333D01*
X80271904Y-96083333D01*
X80367142Y-96130952D01*
X80414761Y-96178571D01*
X80462380Y-96273809D01*
X80462380Y-96559523D01*
X80414761Y-96654761D01*
X80367142Y-96702380D01*
X80367142Y-95654761D02*
X80414761Y-95607142D01*
X80462380Y-95654761D01*
X80414761Y-95702380D01*
X80367142Y-95654761D01*
X80462380Y-95654761D01*
X79462380Y-95273809D02*
X79462380Y-94654761D01*
X79843333Y-94988095D01*
X79843333Y-94845238D01*
X79890952Y-94750000D01*
X79938571Y-94702380D01*
X80033809Y-94654761D01*
X80271904Y-94654761D01*
X80367142Y-94702380D01*
X80414761Y-94750000D01*
X80462380Y-94845238D01*
X80462380Y-95130952D01*
X80414761Y-95226190D01*
X80367142Y-95273809D01*
X80462380Y-94226190D02*
X79462380Y-94226190D01*
X80081428Y-94130952D02*
X80462380Y-93845238D01*
X79795714Y-93845238D02*
X80176666Y-94226190D01*
X67000380Y-82716666D02*
X66524190Y-83050000D01*
X67000380Y-83288095D02*
X66000380Y-83288095D01*
X66000380Y-82907142D01*
X66048000Y-82811904D01*
X66095619Y-82764285D01*
X66190857Y-82716666D01*
X66333714Y-82716666D01*
X66428952Y-82764285D01*
X66476571Y-82811904D01*
X66524190Y-82907142D01*
X66524190Y-83288095D01*
X66000380Y-81811904D02*
X66000380Y-82288095D01*
X66476571Y-82335714D01*
X66428952Y-82288095D01*
X66381333Y-82192857D01*
X66381333Y-81954761D01*
X66428952Y-81859523D01*
X66476571Y-81811904D01*
X66571809Y-81764285D01*
X66809904Y-81764285D01*
X66905142Y-81811904D01*
X66952761Y-81859523D01*
X67000380Y-81954761D01*
X67000380Y-82192857D01*
X66952761Y-82288095D01*
X66905142Y-82335714D01*
X68032380Y-83764285D02*
X68032380Y-83145238D01*
X68413333Y-83478571D01*
X68413333Y-83335714D01*
X68460952Y-83240476D01*
X68508571Y-83192857D01*
X68603809Y-83145238D01*
X68841904Y-83145238D01*
X68937142Y-83192857D01*
X68984761Y-83240476D01*
X69032380Y-83335714D01*
X69032380Y-83621428D01*
X68984761Y-83716666D01*
X68937142Y-83764285D01*
X68032380Y-82811904D02*
X68032380Y-82192857D01*
X68413333Y-82526190D01*
X68413333Y-82383333D01*
X68460952Y-82288095D01*
X68508571Y-82240476D01*
X68603809Y-82192857D01*
X68841904Y-82192857D01*
X68937142Y-82240476D01*
X68984761Y-82288095D01*
X69032380Y-82383333D01*
X69032380Y-82669047D01*
X68984761Y-82764285D01*
X68937142Y-82811904D01*
X69032380Y-81764285D02*
X68032380Y-81764285D01*
X68651428Y-81669047D02*
X69032380Y-81383333D01*
X68365714Y-81383333D02*
X68746666Y-81764285D01*
X56983333Y-67508380D02*
X56650000Y-67032190D01*
X56411904Y-67508380D02*
X56411904Y-66508380D01*
X56792857Y-66508380D01*
X56888095Y-66556000D01*
X56935714Y-66603619D01*
X56983333Y-66698857D01*
X56983333Y-66841714D01*
X56935714Y-66936952D01*
X56888095Y-66984571D01*
X56792857Y-67032190D01*
X56411904Y-67032190D01*
X57840476Y-66508380D02*
X57650000Y-66508380D01*
X57554761Y-66556000D01*
X57507142Y-66603619D01*
X57411904Y-66746476D01*
X57364285Y-66936952D01*
X57364285Y-67317904D01*
X57411904Y-67413142D01*
X57459523Y-67460761D01*
X57554761Y-67508380D01*
X57745238Y-67508380D01*
X57840476Y-67460761D01*
X57888095Y-67413142D01*
X57935714Y-67317904D01*
X57935714Y-67079809D01*
X57888095Y-66984571D01*
X57840476Y-66936952D01*
X57745238Y-66889333D01*
X57554761Y-66889333D01*
X57459523Y-66936952D01*
X57411904Y-66984571D01*
X57364285Y-67079809D01*
X55697619Y-68667380D02*
X56316666Y-68667380D01*
X55983333Y-69048333D01*
X56126190Y-69048333D01*
X56221428Y-69095952D01*
X56269047Y-69143571D01*
X56316666Y-69238809D01*
X56316666Y-69476904D01*
X56269047Y-69572142D01*
X56221428Y-69619761D01*
X56126190Y-69667380D01*
X55840476Y-69667380D01*
X55745238Y-69619761D01*
X55697619Y-69572142D01*
X56745238Y-69572142D02*
X56792857Y-69619761D01*
X56745238Y-69667380D01*
X56697619Y-69619761D01*
X56745238Y-69572142D01*
X56745238Y-69667380D01*
X57126190Y-68667380D02*
X57745238Y-68667380D01*
X57411904Y-69048333D01*
X57554761Y-69048333D01*
X57650000Y-69095952D01*
X57697619Y-69143571D01*
X57745238Y-69238809D01*
X57745238Y-69476904D01*
X57697619Y-69572142D01*
X57650000Y-69619761D01*
X57554761Y-69667380D01*
X57269047Y-69667380D01*
X57173809Y-69619761D01*
X57126190Y-69572142D01*
X58173809Y-69667380D02*
X58173809Y-68667380D01*
X58269047Y-69286428D02*
X58554761Y-69667380D01*
X58554761Y-69000714D02*
X58173809Y-69381666D01*
X56983333Y-72080380D02*
X56650000Y-71604190D01*
X56411904Y-72080380D02*
X56411904Y-71080380D01*
X56792857Y-71080380D01*
X56888095Y-71128000D01*
X56935714Y-71175619D01*
X56983333Y-71270857D01*
X56983333Y-71413714D01*
X56935714Y-71508952D01*
X56888095Y-71556571D01*
X56792857Y-71604190D01*
X56411904Y-71604190D01*
X57316666Y-71080380D02*
X57983333Y-71080380D01*
X57554761Y-72080380D01*
X55983333Y-73207619D02*
X56030952Y-73160000D01*
X56126190Y-73112380D01*
X56364285Y-73112380D01*
X56459523Y-73160000D01*
X56507142Y-73207619D01*
X56554761Y-73302857D01*
X56554761Y-73398095D01*
X56507142Y-73540952D01*
X55935714Y-74112380D01*
X56554761Y-74112380D01*
X56935714Y-73207619D02*
X56983333Y-73160000D01*
X57078571Y-73112380D01*
X57316666Y-73112380D01*
X57411904Y-73160000D01*
X57459523Y-73207619D01*
X57507142Y-73302857D01*
X57507142Y-73398095D01*
X57459523Y-73540952D01*
X56888095Y-74112380D01*
X57507142Y-74112380D01*
X57935714Y-74112380D02*
X57935714Y-73112380D01*
X58030952Y-73731428D02*
X58316666Y-74112380D01*
X58316666Y-73445714D02*
X57935714Y-73826666D01*
X56983333Y-57983380D02*
X56650000Y-57507190D01*
X56411904Y-57983380D02*
X56411904Y-56983380D01*
X56792857Y-56983380D01*
X56888095Y-57031000D01*
X56935714Y-57078619D01*
X56983333Y-57173857D01*
X56983333Y-57316714D01*
X56935714Y-57411952D01*
X56888095Y-57459571D01*
X56792857Y-57507190D01*
X56411904Y-57507190D01*
X57459523Y-57983380D02*
X57650000Y-57983380D01*
X57745238Y-57935761D01*
X57792857Y-57888142D01*
X57888095Y-57745285D01*
X57935714Y-57554809D01*
X57935714Y-57173857D01*
X57888095Y-57078619D01*
X57840476Y-57031000D01*
X57745238Y-56983380D01*
X57554761Y-56983380D01*
X57459523Y-57031000D01*
X57411904Y-57078619D01*
X57364285Y-57173857D01*
X57364285Y-57411952D01*
X57411904Y-57507190D01*
X57459523Y-57554809D01*
X57554761Y-57602428D01*
X57745238Y-57602428D01*
X57840476Y-57554809D01*
X57888095Y-57507190D01*
X57935714Y-57411952D01*
X57030952Y-60015380D02*
X56459523Y-60015380D01*
X56745238Y-60015380D02*
X56745238Y-59015380D01*
X56650000Y-59158238D01*
X56554761Y-59253476D01*
X56459523Y-59301095D01*
X57459523Y-60015380D02*
X57459523Y-59015380D01*
X57554761Y-59634428D02*
X57840476Y-60015380D01*
X57840476Y-59348714D02*
X57459523Y-59729666D01*
X67747428Y-62637142D02*
X67447428Y-62208571D01*
X67233142Y-62637142D02*
X67233142Y-61737142D01*
X67576000Y-61737142D01*
X67661714Y-61780000D01*
X67704571Y-61822857D01*
X67747428Y-61908571D01*
X67747428Y-62037142D01*
X67704571Y-62122857D01*
X67661714Y-62165714D01*
X67576000Y-62208571D01*
X67233142Y-62208571D01*
X68604571Y-62637142D02*
X68090285Y-62637142D01*
X68347428Y-62637142D02*
X68347428Y-61737142D01*
X68261714Y-61865714D01*
X68176000Y-61951428D01*
X68090285Y-61994285D01*
X69161714Y-61737142D02*
X69247428Y-61737142D01*
X69333142Y-61780000D01*
X69376000Y-61822857D01*
X69418857Y-61908571D01*
X69461714Y-62080000D01*
X69461714Y-62294285D01*
X69418857Y-62465714D01*
X69376000Y-62551428D01*
X69333142Y-62594285D01*
X69247428Y-62637142D01*
X69161714Y-62637142D01*
X69076000Y-62594285D01*
X69033142Y-62551428D01*
X68990285Y-62465714D01*
X68947428Y-62294285D01*
X68947428Y-62080000D01*
X68990285Y-61908571D01*
X69033142Y-61822857D01*
X69076000Y-61780000D01*
X69161714Y-61737142D01*
X66905333Y-63809619D02*
X66952952Y-63762000D01*
X67048190Y-63714380D01*
X67286285Y-63714380D01*
X67381523Y-63762000D01*
X67429142Y-63809619D01*
X67476761Y-63904857D01*
X67476761Y-64000095D01*
X67429142Y-64142952D01*
X66857714Y-64714380D01*
X67476761Y-64714380D01*
X67857714Y-63809619D02*
X67905333Y-63762000D01*
X68000571Y-63714380D01*
X68238666Y-63714380D01*
X68333904Y-63762000D01*
X68381523Y-63809619D01*
X68429142Y-63904857D01*
X68429142Y-64000095D01*
X68381523Y-64142952D01*
X67810095Y-64714380D01*
X68429142Y-64714380D01*
X68857714Y-64714380D02*
X68857714Y-63714380D01*
X68952952Y-64333428D02*
X69238666Y-64714380D01*
X69238666Y-64047714D02*
X68857714Y-64428666D01*
X67493428Y-58319142D02*
X67193428Y-57890571D01*
X66979142Y-58319142D02*
X66979142Y-57419142D01*
X67322000Y-57419142D01*
X67407714Y-57462000D01*
X67450571Y-57504857D01*
X67493428Y-57590571D01*
X67493428Y-57719142D01*
X67450571Y-57804857D01*
X67407714Y-57847714D01*
X67322000Y-57890571D01*
X66979142Y-57890571D01*
X68350571Y-58319142D02*
X67836285Y-58319142D01*
X68093428Y-58319142D02*
X68093428Y-57419142D01*
X68007714Y-57547714D01*
X67922000Y-57633428D01*
X67836285Y-57676285D01*
X69207714Y-58319142D02*
X68693428Y-58319142D01*
X68950571Y-58319142D02*
X68950571Y-57419142D01*
X68864857Y-57547714D01*
X68779142Y-57633428D01*
X68693428Y-57676285D01*
X66905333Y-59491619D02*
X66952952Y-59444000D01*
X67048190Y-59396380D01*
X67286285Y-59396380D01*
X67381523Y-59444000D01*
X67429142Y-59491619D01*
X67476761Y-59586857D01*
X67476761Y-59682095D01*
X67429142Y-59824952D01*
X66857714Y-60396380D01*
X67476761Y-60396380D01*
X67857714Y-59491619D02*
X67905333Y-59444000D01*
X68000571Y-59396380D01*
X68238666Y-59396380D01*
X68333904Y-59444000D01*
X68381523Y-59491619D01*
X68429142Y-59586857D01*
X68429142Y-59682095D01*
X68381523Y-59824952D01*
X67810095Y-60396380D01*
X68429142Y-60396380D01*
X68857714Y-60396380D02*
X68857714Y-59396380D01*
X68952952Y-60015428D02*
X69238666Y-60396380D01*
X69238666Y-59729714D02*
X68857714Y-60110666D01*
X75430142Y-69921380D02*
X75096809Y-69445190D01*
X74858714Y-69921380D02*
X74858714Y-68921380D01*
X75239666Y-68921380D01*
X75334904Y-68969000D01*
X75382523Y-69016619D01*
X75430142Y-69111857D01*
X75430142Y-69254714D01*
X75382523Y-69349952D01*
X75334904Y-69397571D01*
X75239666Y-69445190D01*
X74858714Y-69445190D01*
X76382523Y-69921380D02*
X75811095Y-69921380D01*
X76096809Y-69921380D02*
X76096809Y-68921380D01*
X76001571Y-69064238D01*
X75906333Y-69159476D01*
X75811095Y-69207095D01*
X76763476Y-69016619D02*
X76811095Y-68969000D01*
X76906333Y-68921380D01*
X77144428Y-68921380D01*
X77239666Y-68969000D01*
X77287285Y-69016619D01*
X77334904Y-69111857D01*
X77334904Y-69207095D01*
X77287285Y-69349952D01*
X76715857Y-69921380D01*
X77334904Y-69921380D01*
X76334952Y-67762380D02*
X75763523Y-67762380D01*
X76049238Y-67762380D02*
X76049238Y-66762380D01*
X75954000Y-66905238D01*
X75858761Y-67000476D01*
X75763523Y-67048095D01*
X76763523Y-67762380D02*
X76763523Y-66762380D01*
X76858761Y-67381428D02*
X77144476Y-67762380D01*
X77144476Y-67095714D02*
X76763523Y-67476666D01*
X89182380Y-84462857D02*
X88706190Y-84796190D01*
X89182380Y-85034285D02*
X88182380Y-85034285D01*
X88182380Y-84653333D01*
X88230000Y-84558095D01*
X88277619Y-84510476D01*
X88372857Y-84462857D01*
X88515714Y-84462857D01*
X88610952Y-84510476D01*
X88658571Y-84558095D01*
X88706190Y-84653333D01*
X88706190Y-85034285D01*
X89182380Y-83510476D02*
X89182380Y-84081904D01*
X89182380Y-83796190D02*
X88182380Y-83796190D01*
X88325238Y-83891428D01*
X88420476Y-83986666D01*
X88468095Y-84081904D01*
X88182380Y-83177142D02*
X88182380Y-82558095D01*
X88563333Y-82891428D01*
X88563333Y-82748571D01*
X88610952Y-82653333D01*
X88658571Y-82605714D01*
X88753809Y-82558095D01*
X88991904Y-82558095D01*
X89087142Y-82605714D01*
X89134761Y-82653333D01*
X89182380Y-82748571D01*
X89182380Y-83034285D01*
X89134761Y-83129523D01*
X89087142Y-83177142D01*
X86240952Y-84796190D02*
X86193333Y-84891428D01*
X86145714Y-84939047D01*
X86050476Y-84986666D01*
X86002857Y-84986666D01*
X85907619Y-84939047D01*
X85860000Y-84891428D01*
X85812380Y-84796190D01*
X85812380Y-84605714D01*
X85860000Y-84510476D01*
X85907619Y-84462857D01*
X86002857Y-84415238D01*
X86050476Y-84415238D01*
X86145714Y-84462857D01*
X86193333Y-84510476D01*
X86240952Y-84605714D01*
X86240952Y-84796190D01*
X86288571Y-84891428D01*
X86336190Y-84939047D01*
X86431428Y-84986666D01*
X86621904Y-84986666D01*
X86717142Y-84939047D01*
X86764761Y-84891428D01*
X86812380Y-84796190D01*
X86812380Y-84605714D01*
X86764761Y-84510476D01*
X86717142Y-84462857D01*
X86621904Y-84415238D01*
X86431428Y-84415238D01*
X86336190Y-84462857D01*
X86288571Y-84510476D01*
X86240952Y-84605714D01*
X85907619Y-84034285D02*
X85860000Y-83986666D01*
X85812380Y-83891428D01*
X85812380Y-83653333D01*
X85860000Y-83558095D01*
X85907619Y-83510476D01*
X86002857Y-83462857D01*
X86098095Y-83462857D01*
X86240952Y-83510476D01*
X86812380Y-84081904D01*
X86812380Y-83462857D01*
X86812380Y-83034285D02*
X85812380Y-83034285D01*
X86431428Y-82939047D02*
X86812380Y-82653333D01*
X86145714Y-82653333D02*
X86526666Y-83034285D01*
X81145142Y-65603380D02*
X80811809Y-65127190D01*
X80573714Y-65603380D02*
X80573714Y-64603380D01*
X80954666Y-64603380D01*
X81049904Y-64651000D01*
X81097523Y-64698619D01*
X81145142Y-64793857D01*
X81145142Y-64936714D01*
X81097523Y-65031952D01*
X81049904Y-65079571D01*
X80954666Y-65127190D01*
X80573714Y-65127190D01*
X82097523Y-65603380D02*
X81526095Y-65603380D01*
X81811809Y-65603380D02*
X81811809Y-64603380D01*
X81716571Y-64746238D01*
X81621333Y-64841476D01*
X81526095Y-64889095D01*
X82954666Y-64936714D02*
X82954666Y-65603380D01*
X82716571Y-64555761D02*
X82478476Y-65270047D01*
X83097523Y-65270047D01*
X80589619Y-62444380D02*
X81208666Y-62444380D01*
X80875333Y-62825333D01*
X81018190Y-62825333D01*
X81113428Y-62872952D01*
X81161047Y-62920571D01*
X81208666Y-63015809D01*
X81208666Y-63253904D01*
X81161047Y-63349142D01*
X81113428Y-63396761D01*
X81018190Y-63444380D01*
X80732476Y-63444380D01*
X80637238Y-63396761D01*
X80589619Y-63349142D01*
X81637238Y-63349142D02*
X81684857Y-63396761D01*
X81637238Y-63444380D01*
X81589619Y-63396761D01*
X81637238Y-63349142D01*
X81637238Y-63444380D01*
X82018190Y-62444380D02*
X82637238Y-62444380D01*
X82303904Y-62825333D01*
X82446761Y-62825333D01*
X82542000Y-62872952D01*
X82589619Y-62920571D01*
X82637238Y-63015809D01*
X82637238Y-63253904D01*
X82589619Y-63349142D01*
X82542000Y-63396761D01*
X82446761Y-63444380D01*
X82161047Y-63444380D01*
X82065809Y-63396761D01*
X82018190Y-63349142D01*
X83065809Y-63444380D02*
X83065809Y-62444380D01*
X83161047Y-63063428D02*
X83446761Y-63444380D01*
X83446761Y-62777714D02*
X83065809Y-63158666D01*
X81145142Y-57983380D02*
X80811809Y-57507190D01*
X80573714Y-57983380D02*
X80573714Y-56983380D01*
X80954666Y-56983380D01*
X81049904Y-57031000D01*
X81097523Y-57078619D01*
X81145142Y-57173857D01*
X81145142Y-57316714D01*
X81097523Y-57411952D01*
X81049904Y-57459571D01*
X80954666Y-57507190D01*
X80573714Y-57507190D01*
X82097523Y-57983380D02*
X81526095Y-57983380D01*
X81811809Y-57983380D02*
X81811809Y-56983380D01*
X81716571Y-57126238D01*
X81621333Y-57221476D01*
X81526095Y-57269095D01*
X83002285Y-56983380D02*
X82526095Y-56983380D01*
X82478476Y-57459571D01*
X82526095Y-57411952D01*
X82621333Y-57364333D01*
X82859428Y-57364333D01*
X82954666Y-57411952D01*
X83002285Y-57459571D01*
X83049904Y-57554809D01*
X83049904Y-57792904D01*
X83002285Y-57888142D01*
X82954666Y-57935761D01*
X82859428Y-57983380D01*
X82621333Y-57983380D01*
X82526095Y-57935761D01*
X82478476Y-57888142D01*
X80589619Y-59142380D02*
X81208666Y-59142380D01*
X80875333Y-59523333D01*
X81018190Y-59523333D01*
X81113428Y-59570952D01*
X81161047Y-59618571D01*
X81208666Y-59713809D01*
X81208666Y-59951904D01*
X81161047Y-60047142D01*
X81113428Y-60094761D01*
X81018190Y-60142380D01*
X80732476Y-60142380D01*
X80637238Y-60094761D01*
X80589619Y-60047142D01*
X81637238Y-60047142D02*
X81684857Y-60094761D01*
X81637238Y-60142380D01*
X81589619Y-60094761D01*
X81637238Y-60047142D01*
X81637238Y-60142380D01*
X82018190Y-59142380D02*
X82637238Y-59142380D01*
X82303904Y-59523333D01*
X82446761Y-59523333D01*
X82542000Y-59570952D01*
X82589619Y-59618571D01*
X82637238Y-59713809D01*
X82637238Y-59951904D01*
X82589619Y-60047142D01*
X82542000Y-60094761D01*
X82446761Y-60142380D01*
X82161047Y-60142380D01*
X82065809Y-60094761D01*
X82018190Y-60047142D01*
X83065809Y-60142380D02*
X83065809Y-59142380D01*
X83161047Y-59761428D02*
X83446761Y-60142380D01*
X83446761Y-59475714D02*
X83065809Y-59856666D01*
X75557142Y-75212380D02*
X75223809Y-74736190D01*
X74985714Y-75212380D02*
X74985714Y-74212380D01*
X75366666Y-74212380D01*
X75461904Y-74260000D01*
X75509523Y-74307619D01*
X75557142Y-74402857D01*
X75557142Y-74545714D01*
X75509523Y-74640952D01*
X75461904Y-74688571D01*
X75366666Y-74736190D01*
X74985714Y-74736190D01*
X76509523Y-75212380D02*
X75938095Y-75212380D01*
X76223809Y-75212380D02*
X76223809Y-74212380D01*
X76128571Y-74355238D01*
X76033333Y-74450476D01*
X75938095Y-74498095D01*
X77366666Y-74212380D02*
X77176190Y-74212380D01*
X77080952Y-74260000D01*
X77033333Y-74307619D01*
X76938095Y-74450476D01*
X76890476Y-74640952D01*
X76890476Y-75021904D01*
X76938095Y-75117142D01*
X76985714Y-75164761D01*
X77080952Y-75212380D01*
X77271428Y-75212380D01*
X77366666Y-75164761D01*
X77414285Y-75117142D01*
X77461904Y-75021904D01*
X77461904Y-74783809D01*
X77414285Y-74688571D01*
X77366666Y-74640952D01*
X77271428Y-74593333D01*
X77080952Y-74593333D01*
X76985714Y-74640952D01*
X76938095Y-74688571D01*
X76890476Y-74783809D01*
X74715904Y-71937619D02*
X74763523Y-71890000D01*
X74858761Y-71842380D01*
X75096857Y-71842380D01*
X75192095Y-71890000D01*
X75239714Y-71937619D01*
X75287333Y-72032857D01*
X75287333Y-72128095D01*
X75239714Y-72270952D01*
X74668285Y-72842380D01*
X75287333Y-72842380D01*
X75668285Y-71937619D02*
X75715904Y-71890000D01*
X75811142Y-71842380D01*
X76049238Y-71842380D01*
X76144476Y-71890000D01*
X76192095Y-71937619D01*
X76239714Y-72032857D01*
X76239714Y-72128095D01*
X76192095Y-72270952D01*
X75620666Y-72842380D01*
X76239714Y-72842380D01*
X76858761Y-71842380D02*
X76954000Y-71842380D01*
X77049238Y-71890000D01*
X77096857Y-71937619D01*
X77144476Y-72032857D01*
X77192095Y-72223333D01*
X77192095Y-72461428D01*
X77144476Y-72651904D01*
X77096857Y-72747142D01*
X77049238Y-72794761D01*
X76954000Y-72842380D01*
X76858761Y-72842380D01*
X76763523Y-72794761D01*
X76715904Y-72747142D01*
X76668285Y-72651904D01*
X76620666Y-72461428D01*
X76620666Y-72223333D01*
X76668285Y-72032857D01*
X76715904Y-71937619D01*
X76763523Y-71890000D01*
X76858761Y-71842380D01*
X77620666Y-72842380D02*
X77620666Y-71842380D01*
X78192095Y-72842380D02*
X77763523Y-72270952D01*
X78192095Y-71842380D02*
X77620666Y-72413809D01*
X85717142Y-75212380D02*
X85383809Y-74736190D01*
X85145714Y-75212380D02*
X85145714Y-74212380D01*
X85526666Y-74212380D01*
X85621904Y-74260000D01*
X85669523Y-74307619D01*
X85717142Y-74402857D01*
X85717142Y-74545714D01*
X85669523Y-74640952D01*
X85621904Y-74688571D01*
X85526666Y-74736190D01*
X85145714Y-74736190D01*
X86669523Y-75212380D02*
X86098095Y-75212380D01*
X86383809Y-75212380D02*
X86383809Y-74212380D01*
X86288571Y-74355238D01*
X86193333Y-74450476D01*
X86098095Y-74498095D01*
X87002857Y-74212380D02*
X87669523Y-74212380D01*
X87240952Y-75212380D01*
X84621904Y-71937619D02*
X84669523Y-71890000D01*
X84764761Y-71842380D01*
X85002857Y-71842380D01*
X85098095Y-71890000D01*
X85145714Y-71937619D01*
X85193333Y-72032857D01*
X85193333Y-72128095D01*
X85145714Y-72270952D01*
X84574285Y-72842380D01*
X85193333Y-72842380D01*
X85574285Y-71937619D02*
X85621904Y-71890000D01*
X85717142Y-71842380D01*
X85955238Y-71842380D01*
X86050476Y-71890000D01*
X86098095Y-71937619D01*
X86145714Y-72032857D01*
X86145714Y-72128095D01*
X86098095Y-72270952D01*
X85526666Y-72842380D01*
X86145714Y-72842380D01*
X86764761Y-71842380D02*
X86860000Y-71842380D01*
X86955238Y-71890000D01*
X87002857Y-71937619D01*
X87050476Y-72032857D01*
X87098095Y-72223333D01*
X87098095Y-72461428D01*
X87050476Y-72651904D01*
X87002857Y-72747142D01*
X86955238Y-72794761D01*
X86860000Y-72842380D01*
X86764761Y-72842380D01*
X86669523Y-72794761D01*
X86621904Y-72747142D01*
X86574285Y-72651904D01*
X86526666Y-72461428D01*
X86526666Y-72223333D01*
X86574285Y-72032857D01*
X86621904Y-71937619D01*
X86669523Y-71890000D01*
X86764761Y-71842380D01*
X87526666Y-72842380D02*
X87526666Y-71842380D01*
X88098095Y-72842380D02*
X87669523Y-72270952D01*
X88098095Y-71842380D02*
X87526666Y-72413809D01*
X85717142Y-70048380D02*
X85383809Y-69572190D01*
X85145714Y-70048380D02*
X85145714Y-69048380D01*
X85526666Y-69048380D01*
X85621904Y-69096000D01*
X85669523Y-69143619D01*
X85717142Y-69238857D01*
X85717142Y-69381714D01*
X85669523Y-69476952D01*
X85621904Y-69524571D01*
X85526666Y-69572190D01*
X85145714Y-69572190D01*
X86669523Y-70048380D02*
X86098095Y-70048380D01*
X86383809Y-70048380D02*
X86383809Y-69048380D01*
X86288571Y-69191238D01*
X86193333Y-69286476D01*
X86098095Y-69334095D01*
X87240952Y-69476952D02*
X87145714Y-69429333D01*
X87098095Y-69381714D01*
X87050476Y-69286476D01*
X87050476Y-69238857D01*
X87098095Y-69143619D01*
X87145714Y-69096000D01*
X87240952Y-69048380D01*
X87431428Y-69048380D01*
X87526666Y-69096000D01*
X87574285Y-69143619D01*
X87621904Y-69238857D01*
X87621904Y-69286476D01*
X87574285Y-69381714D01*
X87526666Y-69429333D01*
X87431428Y-69476952D01*
X87240952Y-69476952D01*
X87145714Y-69524571D01*
X87098095Y-69572190D01*
X87050476Y-69667428D01*
X87050476Y-69857904D01*
X87098095Y-69953142D01*
X87145714Y-70000761D01*
X87240952Y-70048380D01*
X87431428Y-70048380D01*
X87526666Y-70000761D01*
X87574285Y-69953142D01*
X87621904Y-69857904D01*
X87621904Y-69667428D01*
X87574285Y-69572190D01*
X87526666Y-69524571D01*
X87431428Y-69476952D01*
X84907619Y-66762380D02*
X85526666Y-66762380D01*
X85193333Y-67143333D01*
X85336190Y-67143333D01*
X85431428Y-67190952D01*
X85479047Y-67238571D01*
X85526666Y-67333809D01*
X85526666Y-67571904D01*
X85479047Y-67667142D01*
X85431428Y-67714761D01*
X85336190Y-67762380D01*
X85050476Y-67762380D01*
X84955238Y-67714761D01*
X84907619Y-67667142D01*
X85955238Y-67667142D02*
X86002857Y-67714761D01*
X85955238Y-67762380D01*
X85907619Y-67714761D01*
X85955238Y-67667142D01*
X85955238Y-67762380D01*
X86336190Y-66762380D02*
X86955238Y-66762380D01*
X86621904Y-67143333D01*
X86764761Y-67143333D01*
X86860000Y-67190952D01*
X86907619Y-67238571D01*
X86955238Y-67333809D01*
X86955238Y-67571904D01*
X86907619Y-67667142D01*
X86860000Y-67714761D01*
X86764761Y-67762380D01*
X86479047Y-67762380D01*
X86383809Y-67714761D01*
X86336190Y-67667142D01*
X87383809Y-67762380D02*
X87383809Y-66762380D01*
X87479047Y-67381428D02*
X87764761Y-67762380D01*
X87764761Y-67095714D02*
X87383809Y-67476666D01*
X96591380Y-64142857D02*
X96115190Y-64476190D01*
X96591380Y-64714285D02*
X95591380Y-64714285D01*
X95591380Y-64333333D01*
X95639000Y-64238095D01*
X95686619Y-64190476D01*
X95781857Y-64142857D01*
X95924714Y-64142857D01*
X96019952Y-64190476D01*
X96067571Y-64238095D01*
X96115190Y-64333333D01*
X96115190Y-64714285D01*
X96591380Y-63190476D02*
X96591380Y-63761904D01*
X96591380Y-63476190D02*
X95591380Y-63476190D01*
X95734238Y-63571428D01*
X95829476Y-63666666D01*
X95877095Y-63761904D01*
X96591380Y-62714285D02*
X96591380Y-62523809D01*
X96543761Y-62428571D01*
X96496142Y-62380952D01*
X96353285Y-62285714D01*
X96162809Y-62238095D01*
X95781857Y-62238095D01*
X95686619Y-62285714D01*
X95639000Y-62333333D01*
X95591380Y-62428571D01*
X95591380Y-62619047D01*
X95639000Y-62714285D01*
X95686619Y-62761904D01*
X95781857Y-62809523D01*
X96019952Y-62809523D01*
X96115190Y-62761904D01*
X96162809Y-62714285D01*
X96210428Y-62619047D01*
X96210428Y-62428571D01*
X96162809Y-62333333D01*
X96115190Y-62285714D01*
X96019952Y-62238095D01*
X93432380Y-64380952D02*
X93432380Y-64857142D01*
X93908571Y-64904761D01*
X93860952Y-64857142D01*
X93813333Y-64761904D01*
X93813333Y-64523809D01*
X93860952Y-64428571D01*
X93908571Y-64380952D01*
X94003809Y-64333333D01*
X94241904Y-64333333D01*
X94337142Y-64380952D01*
X94384761Y-64428571D01*
X94432380Y-64523809D01*
X94432380Y-64761904D01*
X94384761Y-64857142D01*
X94337142Y-64904761D01*
X94337142Y-63904761D02*
X94384761Y-63857142D01*
X94432380Y-63904761D01*
X94384761Y-63952380D01*
X94337142Y-63904761D01*
X94432380Y-63904761D01*
X93432380Y-63000000D02*
X93432380Y-63190476D01*
X93480000Y-63285714D01*
X93527619Y-63333333D01*
X93670476Y-63428571D01*
X93860952Y-63476190D01*
X94241904Y-63476190D01*
X94337142Y-63428571D01*
X94384761Y-63380952D01*
X94432380Y-63285714D01*
X94432380Y-63095238D01*
X94384761Y-63000000D01*
X94337142Y-62952380D01*
X94241904Y-62904761D01*
X94003809Y-62904761D01*
X93908571Y-62952380D01*
X93860952Y-63000000D01*
X93813333Y-63095238D01*
X93813333Y-63285714D01*
X93860952Y-63380952D01*
X93908571Y-63428571D01*
X94003809Y-63476190D01*
X94432380Y-62476190D02*
X93432380Y-62476190D01*
X94051428Y-62380952D02*
X94432380Y-62095238D01*
X93765714Y-62095238D02*
X94146666Y-62476190D01*
X101499142Y-64078571D02*
X101070571Y-64378571D01*
X101499142Y-64592857D02*
X100599142Y-64592857D01*
X100599142Y-64250000D01*
X100642000Y-64164285D01*
X100684857Y-64121428D01*
X100770571Y-64078571D01*
X100899142Y-64078571D01*
X100984857Y-64121428D01*
X101027714Y-64164285D01*
X101070571Y-64250000D01*
X101070571Y-64592857D01*
X100684857Y-63735714D02*
X100642000Y-63692857D01*
X100599142Y-63607142D01*
X100599142Y-63392857D01*
X100642000Y-63307142D01*
X100684857Y-63264285D01*
X100770571Y-63221428D01*
X100856285Y-63221428D01*
X100984857Y-63264285D01*
X101499142Y-63778571D01*
X101499142Y-63221428D01*
X100599142Y-62664285D02*
X100599142Y-62578571D01*
X100642000Y-62492857D01*
X100684857Y-62450000D01*
X100770571Y-62407142D01*
X100942000Y-62364285D01*
X101156285Y-62364285D01*
X101327714Y-62407142D01*
X101413428Y-62450000D01*
X101456285Y-62492857D01*
X101499142Y-62578571D01*
X101499142Y-62664285D01*
X101456285Y-62750000D01*
X101413428Y-62792857D01*
X101327714Y-62835714D01*
X101156285Y-62878571D01*
X100942000Y-62878571D01*
X100770571Y-62835714D01*
X100684857Y-62792857D01*
X100642000Y-62750000D01*
X100599142Y-62664285D01*
X99512380Y-64095238D02*
X99512380Y-64666666D01*
X99512380Y-64380952D02*
X98512380Y-64380952D01*
X98655238Y-64476190D01*
X98750476Y-64571428D01*
X98798095Y-64666666D01*
X98607619Y-63714285D02*
X98560000Y-63666666D01*
X98512380Y-63571428D01*
X98512380Y-63333333D01*
X98560000Y-63238095D01*
X98607619Y-63190476D01*
X98702857Y-63142857D01*
X98798095Y-63142857D01*
X98940952Y-63190476D01*
X99512380Y-63761904D01*
X99512380Y-63142857D01*
X99512380Y-62714285D02*
X98512380Y-62714285D01*
X99131428Y-62619047D02*
X99512380Y-62333333D01*
X98845714Y-62333333D02*
X99226666Y-62714285D01*
X109291380Y-64142857D02*
X108815190Y-64476190D01*
X109291380Y-64714285D02*
X108291380Y-64714285D01*
X108291380Y-64333333D01*
X108339000Y-64238095D01*
X108386619Y-64190476D01*
X108481857Y-64142857D01*
X108624714Y-64142857D01*
X108719952Y-64190476D01*
X108767571Y-64238095D01*
X108815190Y-64333333D01*
X108815190Y-64714285D01*
X108386619Y-63761904D02*
X108339000Y-63714285D01*
X108291380Y-63619047D01*
X108291380Y-63380952D01*
X108339000Y-63285714D01*
X108386619Y-63238095D01*
X108481857Y-63190476D01*
X108577095Y-63190476D01*
X108719952Y-63238095D01*
X109291380Y-63809523D01*
X109291380Y-63190476D01*
X109291380Y-62238095D02*
X109291380Y-62809523D01*
X109291380Y-62523809D02*
X108291380Y-62523809D01*
X108434238Y-62619047D01*
X108529476Y-62714285D01*
X108577095Y-62809523D01*
X107132380Y-63841238D02*
X107132380Y-64412666D01*
X107132380Y-64126952D02*
X106132380Y-64126952D01*
X106275238Y-64222190D01*
X106370476Y-64317428D01*
X106418095Y-64412666D01*
X106227619Y-63460285D02*
X106180000Y-63412666D01*
X106132380Y-63317428D01*
X106132380Y-63079333D01*
X106180000Y-62984095D01*
X106227619Y-62936476D01*
X106322857Y-62888857D01*
X106418095Y-62888857D01*
X106560952Y-62936476D01*
X107132380Y-63507904D01*
X107132380Y-62888857D01*
X107132380Y-62460285D02*
X106132380Y-62460285D01*
X106751428Y-62365047D02*
X107132380Y-62079333D01*
X106465714Y-62079333D02*
X106846666Y-62460285D01*
X97147142Y-70810380D02*
X96813809Y-70334190D01*
X96575714Y-70810380D02*
X96575714Y-69810380D01*
X96956666Y-69810380D01*
X97051904Y-69858000D01*
X97099523Y-69905619D01*
X97147142Y-70000857D01*
X97147142Y-70143714D01*
X97099523Y-70238952D01*
X97051904Y-70286571D01*
X96956666Y-70334190D01*
X96575714Y-70334190D01*
X97528095Y-69905619D02*
X97575714Y-69858000D01*
X97670952Y-69810380D01*
X97909047Y-69810380D01*
X98004285Y-69858000D01*
X98051904Y-69905619D01*
X98099523Y-70000857D01*
X98099523Y-70096095D01*
X98051904Y-70238952D01*
X97480476Y-70810380D01*
X98099523Y-70810380D01*
X98480476Y-69905619D02*
X98528095Y-69858000D01*
X98623333Y-69810380D01*
X98861428Y-69810380D01*
X98956666Y-69858000D01*
X99004285Y-69905619D01*
X99051904Y-70000857D01*
X99051904Y-70096095D01*
X99004285Y-70238952D01*
X98432857Y-70810380D01*
X99051904Y-70810380D01*
X96051904Y-71937619D02*
X96099523Y-71890000D01*
X96194761Y-71842380D01*
X96432857Y-71842380D01*
X96528095Y-71890000D01*
X96575714Y-71937619D01*
X96623333Y-72032857D01*
X96623333Y-72128095D01*
X96575714Y-72270952D01*
X96004285Y-72842380D01*
X96623333Y-72842380D01*
X97004285Y-71937619D02*
X97051904Y-71890000D01*
X97147142Y-71842380D01*
X97385238Y-71842380D01*
X97480476Y-71890000D01*
X97528095Y-71937619D01*
X97575714Y-72032857D01*
X97575714Y-72128095D01*
X97528095Y-72270952D01*
X96956666Y-72842380D01*
X97575714Y-72842380D01*
X98194761Y-71842380D02*
X98290000Y-71842380D01*
X98385238Y-71890000D01*
X98432857Y-71937619D01*
X98480476Y-72032857D01*
X98528095Y-72223333D01*
X98528095Y-72461428D01*
X98480476Y-72651904D01*
X98432857Y-72747142D01*
X98385238Y-72794761D01*
X98290000Y-72842380D01*
X98194761Y-72842380D01*
X98099523Y-72794761D01*
X98051904Y-72747142D01*
X98004285Y-72651904D01*
X97956666Y-72461428D01*
X97956666Y-72223333D01*
X98004285Y-72032857D01*
X98051904Y-71937619D01*
X98099523Y-71890000D01*
X98194761Y-71842380D01*
X98956666Y-72842380D02*
X98956666Y-71842380D01*
X99528095Y-72842380D02*
X99099523Y-72270952D01*
X99528095Y-71842380D02*
X98956666Y-72413809D01*
X118181380Y-64142857D02*
X117705190Y-64476190D01*
X118181380Y-64714285D02*
X117181380Y-64714285D01*
X117181380Y-64333333D01*
X117229000Y-64238095D01*
X117276619Y-64190476D01*
X117371857Y-64142857D01*
X117514714Y-64142857D01*
X117609952Y-64190476D01*
X117657571Y-64238095D01*
X117705190Y-64333333D01*
X117705190Y-64714285D01*
X117276619Y-63761904D02*
X117229000Y-63714285D01*
X117181380Y-63619047D01*
X117181380Y-63380952D01*
X117229000Y-63285714D01*
X117276619Y-63238095D01*
X117371857Y-63190476D01*
X117467095Y-63190476D01*
X117609952Y-63238095D01*
X118181380Y-63809523D01*
X118181380Y-63190476D01*
X117181380Y-62857142D02*
X117181380Y-62238095D01*
X117562333Y-62571428D01*
X117562333Y-62428571D01*
X117609952Y-62333333D01*
X117657571Y-62285714D01*
X117752809Y-62238095D01*
X117990904Y-62238095D01*
X118086142Y-62285714D01*
X118133761Y-62333333D01*
X118181380Y-62428571D01*
X118181380Y-62714285D01*
X118133761Y-62809523D01*
X118086142Y-62857142D01*
X116022380Y-64095238D02*
X116022380Y-64666666D01*
X116022380Y-64380952D02*
X115022380Y-64380952D01*
X115165238Y-64476190D01*
X115260476Y-64571428D01*
X115308095Y-64666666D01*
X115117619Y-63714285D02*
X115070000Y-63666666D01*
X115022380Y-63571428D01*
X115022380Y-63333333D01*
X115070000Y-63238095D01*
X115117619Y-63190476D01*
X115212857Y-63142857D01*
X115308095Y-63142857D01*
X115450952Y-63190476D01*
X116022380Y-63761904D01*
X116022380Y-63142857D01*
X116022380Y-62714285D02*
X115022380Y-62714285D01*
X115641428Y-62619047D02*
X116022380Y-62333333D01*
X115355714Y-62333333D02*
X115736666Y-62714285D01*
X107307142Y-70810380D02*
X106973809Y-70334190D01*
X106735714Y-70810380D02*
X106735714Y-69810380D01*
X107116666Y-69810380D01*
X107211904Y-69858000D01*
X107259523Y-69905619D01*
X107307142Y-70000857D01*
X107307142Y-70143714D01*
X107259523Y-70238952D01*
X107211904Y-70286571D01*
X107116666Y-70334190D01*
X106735714Y-70334190D01*
X107688095Y-69905619D02*
X107735714Y-69858000D01*
X107830952Y-69810380D01*
X108069047Y-69810380D01*
X108164285Y-69858000D01*
X108211904Y-69905619D01*
X108259523Y-70000857D01*
X108259523Y-70096095D01*
X108211904Y-70238952D01*
X107640476Y-70810380D01*
X108259523Y-70810380D01*
X109116666Y-70143714D02*
X109116666Y-70810380D01*
X108878571Y-69762761D02*
X108640476Y-70477047D01*
X109259523Y-70477047D01*
X106211904Y-71937619D02*
X106259523Y-71890000D01*
X106354761Y-71842380D01*
X106592857Y-71842380D01*
X106688095Y-71890000D01*
X106735714Y-71937619D01*
X106783333Y-72032857D01*
X106783333Y-72128095D01*
X106735714Y-72270952D01*
X106164285Y-72842380D01*
X106783333Y-72842380D01*
X107164285Y-71937619D02*
X107211904Y-71890000D01*
X107307142Y-71842380D01*
X107545238Y-71842380D01*
X107640476Y-71890000D01*
X107688095Y-71937619D01*
X107735714Y-72032857D01*
X107735714Y-72128095D01*
X107688095Y-72270952D01*
X107116666Y-72842380D01*
X107735714Y-72842380D01*
X108354761Y-71842380D02*
X108450000Y-71842380D01*
X108545238Y-71890000D01*
X108592857Y-71937619D01*
X108640476Y-72032857D01*
X108688095Y-72223333D01*
X108688095Y-72461428D01*
X108640476Y-72651904D01*
X108592857Y-72747142D01*
X108545238Y-72794761D01*
X108450000Y-72842380D01*
X108354761Y-72842380D01*
X108259523Y-72794761D01*
X108211904Y-72747142D01*
X108164285Y-72651904D01*
X108116666Y-72461428D01*
X108116666Y-72223333D01*
X108164285Y-72032857D01*
X108211904Y-71937619D01*
X108259523Y-71890000D01*
X108354761Y-71842380D01*
X109116666Y-72842380D02*
X109116666Y-71842380D01*
X109688095Y-72842380D02*
X109259523Y-72270952D01*
X109688095Y-71842380D02*
X109116666Y-72413809D01*
X123896380Y-64142857D02*
X123420190Y-64476190D01*
X123896380Y-64714285D02*
X122896380Y-64714285D01*
X122896380Y-64333333D01*
X122944000Y-64238095D01*
X122991619Y-64190476D01*
X123086857Y-64142857D01*
X123229714Y-64142857D01*
X123324952Y-64190476D01*
X123372571Y-64238095D01*
X123420190Y-64333333D01*
X123420190Y-64714285D01*
X122991619Y-63761904D02*
X122944000Y-63714285D01*
X122896380Y-63619047D01*
X122896380Y-63380952D01*
X122944000Y-63285714D01*
X122991619Y-63238095D01*
X123086857Y-63190476D01*
X123182095Y-63190476D01*
X123324952Y-63238095D01*
X123896380Y-63809523D01*
X123896380Y-63190476D01*
X122896380Y-62285714D02*
X122896380Y-62761904D01*
X123372571Y-62809523D01*
X123324952Y-62761904D01*
X123277333Y-62666666D01*
X123277333Y-62428571D01*
X123324952Y-62333333D01*
X123372571Y-62285714D01*
X123467809Y-62238095D01*
X123705904Y-62238095D01*
X123801142Y-62285714D01*
X123848761Y-62333333D01*
X123896380Y-62428571D01*
X123896380Y-62666666D01*
X123848761Y-62761904D01*
X123801142Y-62809523D01*
X120610380Y-64380952D02*
X120610380Y-64857142D01*
X121086571Y-64904761D01*
X121038952Y-64857142D01*
X120991333Y-64761904D01*
X120991333Y-64523809D01*
X121038952Y-64428571D01*
X121086571Y-64380952D01*
X121181809Y-64333333D01*
X121419904Y-64333333D01*
X121515142Y-64380952D01*
X121562761Y-64428571D01*
X121610380Y-64523809D01*
X121610380Y-64761904D01*
X121562761Y-64857142D01*
X121515142Y-64904761D01*
X121515142Y-63904761D02*
X121562761Y-63857142D01*
X121610380Y-63904761D01*
X121562761Y-63952380D01*
X121515142Y-63904761D01*
X121610380Y-63904761D01*
X120610380Y-63000000D02*
X120610380Y-63190476D01*
X120658000Y-63285714D01*
X120705619Y-63333333D01*
X120848476Y-63428571D01*
X121038952Y-63476190D01*
X121419904Y-63476190D01*
X121515142Y-63428571D01*
X121562761Y-63380952D01*
X121610380Y-63285714D01*
X121610380Y-63095238D01*
X121562761Y-63000000D01*
X121515142Y-62952380D01*
X121419904Y-62904761D01*
X121181809Y-62904761D01*
X121086571Y-62952380D01*
X121038952Y-63000000D01*
X120991333Y-63095238D01*
X120991333Y-63285714D01*
X121038952Y-63380952D01*
X121086571Y-63428571D01*
X121181809Y-63476190D01*
X121610380Y-62476190D02*
X120610380Y-62476190D01*
X121229428Y-62380952D02*
X121610380Y-62095238D01*
X120943714Y-62095238D02*
X121324666Y-62476190D01*
X133632380Y-64142857D02*
X133156190Y-64476190D01*
X133632380Y-64714285D02*
X132632380Y-64714285D01*
X132632380Y-64333333D01*
X132680000Y-64238095D01*
X132727619Y-64190476D01*
X132822857Y-64142857D01*
X132965714Y-64142857D01*
X133060952Y-64190476D01*
X133108571Y-64238095D01*
X133156190Y-64333333D01*
X133156190Y-64714285D01*
X132727619Y-63761904D02*
X132680000Y-63714285D01*
X132632380Y-63619047D01*
X132632380Y-63380952D01*
X132680000Y-63285714D01*
X132727619Y-63238095D01*
X132822857Y-63190476D01*
X132918095Y-63190476D01*
X133060952Y-63238095D01*
X133632380Y-63809523D01*
X133632380Y-63190476D01*
X132632380Y-62333333D02*
X132632380Y-62523809D01*
X132680000Y-62619047D01*
X132727619Y-62666666D01*
X132870476Y-62761904D01*
X133060952Y-62809523D01*
X133441904Y-62809523D01*
X133537142Y-62761904D01*
X133584761Y-62714285D01*
X133632380Y-62619047D01*
X133632380Y-62428571D01*
X133584761Y-62333333D01*
X133537142Y-62285714D01*
X133441904Y-62238095D01*
X133203809Y-62238095D01*
X133108571Y-62285714D01*
X133060952Y-62333333D01*
X133013333Y-62428571D01*
X133013333Y-62619047D01*
X133060952Y-62714285D01*
X133108571Y-62761904D01*
X133203809Y-62809523D01*
X130262380Y-64380952D02*
X130262380Y-64857142D01*
X130738571Y-64904761D01*
X130690952Y-64857142D01*
X130643333Y-64761904D01*
X130643333Y-64523809D01*
X130690952Y-64428571D01*
X130738571Y-64380952D01*
X130833809Y-64333333D01*
X131071904Y-64333333D01*
X131167142Y-64380952D01*
X131214761Y-64428571D01*
X131262380Y-64523809D01*
X131262380Y-64761904D01*
X131214761Y-64857142D01*
X131167142Y-64904761D01*
X131167142Y-63904761D02*
X131214761Y-63857142D01*
X131262380Y-63904761D01*
X131214761Y-63952380D01*
X131167142Y-63904761D01*
X131262380Y-63904761D01*
X130262380Y-63000000D02*
X130262380Y-63190476D01*
X130310000Y-63285714D01*
X130357619Y-63333333D01*
X130500476Y-63428571D01*
X130690952Y-63476190D01*
X131071904Y-63476190D01*
X131167142Y-63428571D01*
X131214761Y-63380952D01*
X131262380Y-63285714D01*
X131262380Y-63095238D01*
X131214761Y-63000000D01*
X131167142Y-62952380D01*
X131071904Y-62904761D01*
X130833809Y-62904761D01*
X130738571Y-62952380D01*
X130690952Y-63000000D01*
X130643333Y-63095238D01*
X130643333Y-63285714D01*
X130690952Y-63380952D01*
X130738571Y-63428571D01*
X130833809Y-63476190D01*
X131262380Y-62476190D02*
X130262380Y-62476190D01*
X130881428Y-62380952D02*
X131262380Y-62095238D01*
X130595714Y-62095238D02*
X130976666Y-62476190D01*
X118991142Y-70810380D02*
X118657809Y-70334190D01*
X118419714Y-70810380D02*
X118419714Y-69810380D01*
X118800666Y-69810380D01*
X118895904Y-69858000D01*
X118943523Y-69905619D01*
X118991142Y-70000857D01*
X118991142Y-70143714D01*
X118943523Y-70238952D01*
X118895904Y-70286571D01*
X118800666Y-70334190D01*
X118419714Y-70334190D01*
X119372095Y-69905619D02*
X119419714Y-69858000D01*
X119514952Y-69810380D01*
X119753047Y-69810380D01*
X119848285Y-69858000D01*
X119895904Y-69905619D01*
X119943523Y-70000857D01*
X119943523Y-70096095D01*
X119895904Y-70238952D01*
X119324476Y-70810380D01*
X119943523Y-70810380D01*
X120276857Y-69810380D02*
X120943523Y-69810380D01*
X120514952Y-70810380D01*
X117641904Y-71937619D02*
X117689523Y-71890000D01*
X117784761Y-71842380D01*
X118022857Y-71842380D01*
X118118095Y-71890000D01*
X118165714Y-71937619D01*
X118213333Y-72032857D01*
X118213333Y-72128095D01*
X118165714Y-72270952D01*
X117594285Y-72842380D01*
X118213333Y-72842380D01*
X118594285Y-71937619D02*
X118641904Y-71890000D01*
X118737142Y-71842380D01*
X118975238Y-71842380D01*
X119070476Y-71890000D01*
X119118095Y-71937619D01*
X119165714Y-72032857D01*
X119165714Y-72128095D01*
X119118095Y-72270952D01*
X118546666Y-72842380D01*
X119165714Y-72842380D01*
X119784761Y-71842380D02*
X119880000Y-71842380D01*
X119975238Y-71890000D01*
X120022857Y-71937619D01*
X120070476Y-72032857D01*
X120118095Y-72223333D01*
X120118095Y-72461428D01*
X120070476Y-72651904D01*
X120022857Y-72747142D01*
X119975238Y-72794761D01*
X119880000Y-72842380D01*
X119784761Y-72842380D01*
X119689523Y-72794761D01*
X119641904Y-72747142D01*
X119594285Y-72651904D01*
X119546666Y-72461428D01*
X119546666Y-72223333D01*
X119594285Y-72032857D01*
X119641904Y-71937619D01*
X119689523Y-71890000D01*
X119784761Y-71842380D01*
X120546666Y-72842380D02*
X120546666Y-71842380D01*
X121118095Y-72842380D02*
X120689523Y-72270952D01*
X121118095Y-71842380D02*
X120546666Y-72413809D01*
X130167142Y-70810380D02*
X129833809Y-70334190D01*
X129595714Y-70810380D02*
X129595714Y-69810380D01*
X129976666Y-69810380D01*
X130071904Y-69858000D01*
X130119523Y-69905619D01*
X130167142Y-70000857D01*
X130167142Y-70143714D01*
X130119523Y-70238952D01*
X130071904Y-70286571D01*
X129976666Y-70334190D01*
X129595714Y-70334190D01*
X130548095Y-69905619D02*
X130595714Y-69858000D01*
X130690952Y-69810380D01*
X130929047Y-69810380D01*
X131024285Y-69858000D01*
X131071904Y-69905619D01*
X131119523Y-70000857D01*
X131119523Y-70096095D01*
X131071904Y-70238952D01*
X130500476Y-70810380D01*
X131119523Y-70810380D01*
X131690952Y-70238952D02*
X131595714Y-70191333D01*
X131548095Y-70143714D01*
X131500476Y-70048476D01*
X131500476Y-70000857D01*
X131548095Y-69905619D01*
X131595714Y-69858000D01*
X131690952Y-69810380D01*
X131881428Y-69810380D01*
X131976666Y-69858000D01*
X132024285Y-69905619D01*
X132071904Y-70000857D01*
X132071904Y-70048476D01*
X132024285Y-70143714D01*
X131976666Y-70191333D01*
X131881428Y-70238952D01*
X131690952Y-70238952D01*
X131595714Y-70286571D01*
X131548095Y-70334190D01*
X131500476Y-70429428D01*
X131500476Y-70619904D01*
X131548095Y-70715142D01*
X131595714Y-70762761D01*
X131690952Y-70810380D01*
X131881428Y-70810380D01*
X131976666Y-70762761D01*
X132024285Y-70715142D01*
X132071904Y-70619904D01*
X132071904Y-70429428D01*
X132024285Y-70334190D01*
X131976666Y-70286571D01*
X131881428Y-70238952D01*
X129071904Y-71937619D02*
X129119523Y-71890000D01*
X129214761Y-71842380D01*
X129452857Y-71842380D01*
X129548095Y-71890000D01*
X129595714Y-71937619D01*
X129643333Y-72032857D01*
X129643333Y-72128095D01*
X129595714Y-72270952D01*
X129024285Y-72842380D01*
X129643333Y-72842380D01*
X130024285Y-71937619D02*
X130071904Y-71890000D01*
X130167142Y-71842380D01*
X130405238Y-71842380D01*
X130500476Y-71890000D01*
X130548095Y-71937619D01*
X130595714Y-72032857D01*
X130595714Y-72128095D01*
X130548095Y-72270952D01*
X129976666Y-72842380D01*
X130595714Y-72842380D01*
X131214761Y-71842380D02*
X131310000Y-71842380D01*
X131405238Y-71890000D01*
X131452857Y-71937619D01*
X131500476Y-72032857D01*
X131548095Y-72223333D01*
X131548095Y-72461428D01*
X131500476Y-72651904D01*
X131452857Y-72747142D01*
X131405238Y-72794761D01*
X131310000Y-72842380D01*
X131214761Y-72842380D01*
X131119523Y-72794761D01*
X131071904Y-72747142D01*
X131024285Y-72651904D01*
X130976666Y-72461428D01*
X130976666Y-72223333D01*
X131024285Y-72032857D01*
X131071904Y-71937619D01*
X131119523Y-71890000D01*
X131214761Y-71842380D01*
X131976666Y-72842380D02*
X131976666Y-71842380D01*
X132548095Y-72842380D02*
X132119523Y-72270952D01*
X132548095Y-71842380D02*
X131976666Y-72413809D01*
X142438380Y-64142857D02*
X141962190Y-64476190D01*
X142438380Y-64714285D02*
X141438380Y-64714285D01*
X141438380Y-64333333D01*
X141486000Y-64238095D01*
X141533619Y-64190476D01*
X141628857Y-64142857D01*
X141771714Y-64142857D01*
X141866952Y-64190476D01*
X141914571Y-64238095D01*
X141962190Y-64333333D01*
X141962190Y-64714285D01*
X141533619Y-63761904D02*
X141486000Y-63714285D01*
X141438380Y-63619047D01*
X141438380Y-63380952D01*
X141486000Y-63285714D01*
X141533619Y-63238095D01*
X141628857Y-63190476D01*
X141724095Y-63190476D01*
X141866952Y-63238095D01*
X142438380Y-63809523D01*
X142438380Y-63190476D01*
X142438380Y-62714285D02*
X142438380Y-62523809D01*
X142390761Y-62428571D01*
X142343142Y-62380952D01*
X142200285Y-62285714D01*
X142009809Y-62238095D01*
X141628857Y-62238095D01*
X141533619Y-62285714D01*
X141486000Y-62333333D01*
X141438380Y-62428571D01*
X141438380Y-62619047D01*
X141486000Y-62714285D01*
X141533619Y-62761904D01*
X141628857Y-62809523D01*
X141866952Y-62809523D01*
X141962190Y-62761904D01*
X142009809Y-62714285D01*
X142057428Y-62619047D01*
X142057428Y-62428571D01*
X142009809Y-62333333D01*
X141962190Y-62285714D01*
X141866952Y-62238095D01*
X139152380Y-64380952D02*
X139152380Y-64857142D01*
X139628571Y-64904761D01*
X139580952Y-64857142D01*
X139533333Y-64761904D01*
X139533333Y-64523809D01*
X139580952Y-64428571D01*
X139628571Y-64380952D01*
X139723809Y-64333333D01*
X139961904Y-64333333D01*
X140057142Y-64380952D01*
X140104761Y-64428571D01*
X140152380Y-64523809D01*
X140152380Y-64761904D01*
X140104761Y-64857142D01*
X140057142Y-64904761D01*
X140057142Y-63904761D02*
X140104761Y-63857142D01*
X140152380Y-63904761D01*
X140104761Y-63952380D01*
X140057142Y-63904761D01*
X140152380Y-63904761D01*
X139152380Y-63000000D02*
X139152380Y-63190476D01*
X139200000Y-63285714D01*
X139247619Y-63333333D01*
X139390476Y-63428571D01*
X139580952Y-63476190D01*
X139961904Y-63476190D01*
X140057142Y-63428571D01*
X140104761Y-63380952D01*
X140152380Y-63285714D01*
X140152380Y-63095238D01*
X140104761Y-63000000D01*
X140057142Y-62952380D01*
X139961904Y-62904761D01*
X139723809Y-62904761D01*
X139628571Y-62952380D01*
X139580952Y-63000000D01*
X139533333Y-63095238D01*
X139533333Y-63285714D01*
X139580952Y-63380952D01*
X139628571Y-63428571D01*
X139723809Y-63476190D01*
X140152380Y-62476190D02*
X139152380Y-62476190D01*
X139771428Y-62380952D02*
X140152380Y-62095238D01*
X139485714Y-62095238D02*
X139866666Y-62476190D01*
X129611380Y-83192857D02*
X129135190Y-83526190D01*
X129611380Y-83764285D02*
X128611380Y-83764285D01*
X128611380Y-83383333D01*
X128659000Y-83288095D01*
X128706619Y-83240476D01*
X128801857Y-83192857D01*
X128944714Y-83192857D01*
X129039952Y-83240476D01*
X129087571Y-83288095D01*
X129135190Y-83383333D01*
X129135190Y-83764285D01*
X128611380Y-82859523D02*
X128611380Y-82240476D01*
X128992333Y-82573809D01*
X128992333Y-82430952D01*
X129039952Y-82335714D01*
X129087571Y-82288095D01*
X129182809Y-82240476D01*
X129420904Y-82240476D01*
X129516142Y-82288095D01*
X129563761Y-82335714D01*
X129611380Y-82430952D01*
X129611380Y-82716666D01*
X129563761Y-82811904D01*
X129516142Y-82859523D01*
X128611380Y-81621428D02*
X128611380Y-81526190D01*
X128659000Y-81430952D01*
X128706619Y-81383333D01*
X128801857Y-81335714D01*
X128992333Y-81288095D01*
X129230428Y-81288095D01*
X129420904Y-81335714D01*
X129516142Y-81383333D01*
X129563761Y-81430952D01*
X129611380Y-81526190D01*
X129611380Y-81621428D01*
X129563761Y-81716666D01*
X129516142Y-81764285D01*
X129420904Y-81811904D01*
X129230428Y-81859523D01*
X128992333Y-81859523D01*
X128801857Y-81811904D01*
X128706619Y-81764285D01*
X128659000Y-81716666D01*
X128611380Y-81621428D01*
X126452380Y-83764285D02*
X126452380Y-83145238D01*
X126833333Y-83478571D01*
X126833333Y-83335714D01*
X126880952Y-83240476D01*
X126928571Y-83192857D01*
X127023809Y-83145238D01*
X127261904Y-83145238D01*
X127357142Y-83192857D01*
X127404761Y-83240476D01*
X127452380Y-83335714D01*
X127452380Y-83621428D01*
X127404761Y-83716666D01*
X127357142Y-83764285D01*
X126452380Y-82811904D02*
X126452380Y-82192857D01*
X126833333Y-82526190D01*
X126833333Y-82383333D01*
X126880952Y-82288095D01*
X126928571Y-82240476D01*
X127023809Y-82192857D01*
X127261904Y-82192857D01*
X127357142Y-82240476D01*
X127404761Y-82288095D01*
X127452380Y-82383333D01*
X127452380Y-82669047D01*
X127404761Y-82764285D01*
X127357142Y-82811904D01*
X127452380Y-81764285D02*
X126452380Y-81764285D01*
X127071428Y-81669047D02*
X127452380Y-81383333D01*
X126785714Y-81383333D02*
X127166666Y-81764285D01*
X152682380Y-64142857D02*
X152206190Y-64476190D01*
X152682380Y-64714285D02*
X151682380Y-64714285D01*
X151682380Y-64333333D01*
X151730000Y-64238095D01*
X151777619Y-64190476D01*
X151872857Y-64142857D01*
X152015714Y-64142857D01*
X152110952Y-64190476D01*
X152158571Y-64238095D01*
X152206190Y-64333333D01*
X152206190Y-64714285D01*
X151682380Y-63809523D02*
X151682380Y-63190476D01*
X152063333Y-63523809D01*
X152063333Y-63380952D01*
X152110952Y-63285714D01*
X152158571Y-63238095D01*
X152253809Y-63190476D01*
X152491904Y-63190476D01*
X152587142Y-63238095D01*
X152634761Y-63285714D01*
X152682380Y-63380952D01*
X152682380Y-63666666D01*
X152634761Y-63761904D01*
X152587142Y-63809523D01*
X152682380Y-62238095D02*
X152682380Y-62809523D01*
X152682380Y-62523809D02*
X151682380Y-62523809D01*
X151825238Y-62619047D01*
X151920476Y-62714285D01*
X151968095Y-62809523D01*
X149312380Y-64952380D02*
X149312380Y-64333333D01*
X149693333Y-64666666D01*
X149693333Y-64523809D01*
X149740952Y-64428571D01*
X149788571Y-64380952D01*
X149883809Y-64333333D01*
X150121904Y-64333333D01*
X150217142Y-64380952D01*
X150264761Y-64428571D01*
X150312380Y-64523809D01*
X150312380Y-64809523D01*
X150264761Y-64904761D01*
X150217142Y-64952380D01*
X150217142Y-63904761D02*
X150264761Y-63857142D01*
X150312380Y-63904761D01*
X150264761Y-63952380D01*
X150217142Y-63904761D01*
X150312380Y-63904761D01*
X149312380Y-63523809D02*
X149312380Y-62904761D01*
X149693333Y-63238095D01*
X149693333Y-63095238D01*
X149740952Y-63000000D01*
X149788571Y-62952380D01*
X149883809Y-62904761D01*
X150121904Y-62904761D01*
X150217142Y-62952380D01*
X150264761Y-63000000D01*
X150312380Y-63095238D01*
X150312380Y-63380952D01*
X150264761Y-63476190D01*
X150217142Y-63523809D01*
X150312380Y-62476190D02*
X149312380Y-62476190D01*
X149931428Y-62380952D02*
X150312380Y-62095238D01*
X149645714Y-62095238D02*
X150026666Y-62476190D01*
X135961380Y-83192857D02*
X135485190Y-83526190D01*
X135961380Y-83764285D02*
X134961380Y-83764285D01*
X134961380Y-83383333D01*
X135009000Y-83288095D01*
X135056619Y-83240476D01*
X135151857Y-83192857D01*
X135294714Y-83192857D01*
X135389952Y-83240476D01*
X135437571Y-83288095D01*
X135485190Y-83383333D01*
X135485190Y-83764285D01*
X134961380Y-82859523D02*
X134961380Y-82240476D01*
X135342333Y-82573809D01*
X135342333Y-82430952D01*
X135389952Y-82335714D01*
X135437571Y-82288095D01*
X135532809Y-82240476D01*
X135770904Y-82240476D01*
X135866142Y-82288095D01*
X135913761Y-82335714D01*
X135961380Y-82430952D01*
X135961380Y-82716666D01*
X135913761Y-82811904D01*
X135866142Y-82859523D01*
X135056619Y-81859523D02*
X135009000Y-81811904D01*
X134961380Y-81716666D01*
X134961380Y-81478571D01*
X135009000Y-81383333D01*
X135056619Y-81335714D01*
X135151857Y-81288095D01*
X135247095Y-81288095D01*
X135389952Y-81335714D01*
X135961380Y-81907142D01*
X135961380Y-81288095D01*
X132897619Y-83716666D02*
X132850000Y-83669047D01*
X132802380Y-83573809D01*
X132802380Y-83335714D01*
X132850000Y-83240476D01*
X132897619Y-83192857D01*
X132992857Y-83145238D01*
X133088095Y-83145238D01*
X133230952Y-83192857D01*
X133802380Y-83764285D01*
X133802380Y-83145238D01*
X132897619Y-82764285D02*
X132850000Y-82716666D01*
X132802380Y-82621428D01*
X132802380Y-82383333D01*
X132850000Y-82288095D01*
X132897619Y-82240476D01*
X132992857Y-82192857D01*
X133088095Y-82192857D01*
X133230952Y-82240476D01*
X133802380Y-82811904D01*
X133802380Y-82192857D01*
X133802380Y-81764285D02*
X132802380Y-81764285D01*
X133421428Y-81669047D02*
X133802380Y-81383333D01*
X133135714Y-81383333D02*
X133516666Y-81764285D01*
X141597142Y-70810380D02*
X141263809Y-70334190D01*
X141025714Y-70810380D02*
X141025714Y-69810380D01*
X141406666Y-69810380D01*
X141501904Y-69858000D01*
X141549523Y-69905619D01*
X141597142Y-70000857D01*
X141597142Y-70143714D01*
X141549523Y-70238952D01*
X141501904Y-70286571D01*
X141406666Y-70334190D01*
X141025714Y-70334190D01*
X141930476Y-69810380D02*
X142549523Y-69810380D01*
X142216190Y-70191333D01*
X142359047Y-70191333D01*
X142454285Y-70238952D01*
X142501904Y-70286571D01*
X142549523Y-70381809D01*
X142549523Y-70619904D01*
X142501904Y-70715142D01*
X142454285Y-70762761D01*
X142359047Y-70810380D01*
X142073333Y-70810380D01*
X141978095Y-70762761D01*
X141930476Y-70715142D01*
X142882857Y-69810380D02*
X143501904Y-69810380D01*
X143168571Y-70191333D01*
X143311428Y-70191333D01*
X143406666Y-70238952D01*
X143454285Y-70286571D01*
X143501904Y-70381809D01*
X143501904Y-70619904D01*
X143454285Y-70715142D01*
X143406666Y-70762761D01*
X143311428Y-70810380D01*
X143025714Y-70810380D01*
X142930476Y-70762761D01*
X142882857Y-70715142D01*
X140501904Y-71937619D02*
X140549523Y-71890000D01*
X140644761Y-71842380D01*
X140882857Y-71842380D01*
X140978095Y-71890000D01*
X141025714Y-71937619D01*
X141073333Y-72032857D01*
X141073333Y-72128095D01*
X141025714Y-72270952D01*
X140454285Y-72842380D01*
X141073333Y-72842380D01*
X141454285Y-71937619D02*
X141501904Y-71890000D01*
X141597142Y-71842380D01*
X141835238Y-71842380D01*
X141930476Y-71890000D01*
X141978095Y-71937619D01*
X142025714Y-72032857D01*
X142025714Y-72128095D01*
X141978095Y-72270952D01*
X141406666Y-72842380D01*
X142025714Y-72842380D01*
X142644761Y-71842380D02*
X142740000Y-71842380D01*
X142835238Y-71890000D01*
X142882857Y-71937619D01*
X142930476Y-72032857D01*
X142978095Y-72223333D01*
X142978095Y-72461428D01*
X142930476Y-72651904D01*
X142882857Y-72747142D01*
X142835238Y-72794761D01*
X142740000Y-72842380D01*
X142644761Y-72842380D01*
X142549523Y-72794761D01*
X142501904Y-72747142D01*
X142454285Y-72651904D01*
X142406666Y-72461428D01*
X142406666Y-72223333D01*
X142454285Y-72032857D01*
X142501904Y-71937619D01*
X142549523Y-71890000D01*
X142644761Y-71842380D01*
X143406666Y-72842380D02*
X143406666Y-71842380D01*
X143978095Y-72842380D02*
X143549523Y-72270952D01*
X143978095Y-71842380D02*
X143406666Y-72413809D01*
X141041380Y-83192857D02*
X140565190Y-83526190D01*
X141041380Y-83764285D02*
X140041380Y-83764285D01*
X140041380Y-83383333D01*
X140089000Y-83288095D01*
X140136619Y-83240476D01*
X140231857Y-83192857D01*
X140374714Y-83192857D01*
X140469952Y-83240476D01*
X140517571Y-83288095D01*
X140565190Y-83383333D01*
X140565190Y-83764285D01*
X140041380Y-82859523D02*
X140041380Y-82240476D01*
X140422333Y-82573809D01*
X140422333Y-82430952D01*
X140469952Y-82335714D01*
X140517571Y-82288095D01*
X140612809Y-82240476D01*
X140850904Y-82240476D01*
X140946142Y-82288095D01*
X140993761Y-82335714D01*
X141041380Y-82430952D01*
X141041380Y-82716666D01*
X140993761Y-82811904D01*
X140946142Y-82859523D01*
X140374714Y-81383333D02*
X141041380Y-81383333D01*
X139993761Y-81621428D02*
X140708047Y-81859523D01*
X140708047Y-81240476D01*
X137882380Y-83176952D02*
X137882380Y-83653142D01*
X138358571Y-83700761D01*
X138310952Y-83653142D01*
X138263333Y-83557904D01*
X138263333Y-83319809D01*
X138310952Y-83224571D01*
X138358571Y-83176952D01*
X138453809Y-83129333D01*
X138691904Y-83129333D01*
X138787142Y-83176952D01*
X138834761Y-83224571D01*
X138882380Y-83319809D01*
X138882380Y-83557904D01*
X138834761Y-83653142D01*
X138787142Y-83700761D01*
X138787142Y-82700761D02*
X138834761Y-82653142D01*
X138882380Y-82700761D01*
X138834761Y-82748380D01*
X138787142Y-82700761D01*
X138882380Y-82700761D01*
X137882380Y-81796000D02*
X137882380Y-81986476D01*
X137930000Y-82081714D01*
X137977619Y-82129333D01*
X138120476Y-82224571D01*
X138310952Y-82272190D01*
X138691904Y-82272190D01*
X138787142Y-82224571D01*
X138834761Y-82176952D01*
X138882380Y-82081714D01*
X138882380Y-81891238D01*
X138834761Y-81796000D01*
X138787142Y-81748380D01*
X138691904Y-81700761D01*
X138453809Y-81700761D01*
X138358571Y-81748380D01*
X138310952Y-81796000D01*
X138263333Y-81891238D01*
X138263333Y-82081714D01*
X138310952Y-82176952D01*
X138358571Y-82224571D01*
X138453809Y-82272190D01*
X138882380Y-81272190D02*
X137882380Y-81272190D01*
X138501428Y-81176952D02*
X138882380Y-80891238D01*
X138215714Y-80891238D02*
X138596666Y-81272190D01*
X163012380Y-64142857D02*
X162536190Y-64476190D01*
X163012380Y-64714285D02*
X162012380Y-64714285D01*
X162012380Y-64333333D01*
X162060000Y-64238095D01*
X162107619Y-64190476D01*
X162202857Y-64142857D01*
X162345714Y-64142857D01*
X162440952Y-64190476D01*
X162488571Y-64238095D01*
X162536190Y-64333333D01*
X162536190Y-64714285D01*
X162012380Y-63809523D02*
X162012380Y-63190476D01*
X162393333Y-63523809D01*
X162393333Y-63380952D01*
X162440952Y-63285714D01*
X162488571Y-63238095D01*
X162583809Y-63190476D01*
X162821904Y-63190476D01*
X162917142Y-63238095D01*
X162964761Y-63285714D01*
X163012380Y-63380952D01*
X163012380Y-63666666D01*
X162964761Y-63761904D01*
X162917142Y-63809523D01*
X162012380Y-62285714D02*
X162012380Y-62761904D01*
X162488571Y-62809523D01*
X162440952Y-62761904D01*
X162393333Y-62666666D01*
X162393333Y-62428571D01*
X162440952Y-62333333D01*
X162488571Y-62285714D01*
X162583809Y-62238095D01*
X162821904Y-62238095D01*
X162917142Y-62285714D01*
X162964761Y-62333333D01*
X163012380Y-62428571D01*
X163012380Y-62666666D01*
X162964761Y-62761904D01*
X162917142Y-62809523D01*
X159726380Y-64952380D02*
X159726380Y-64333333D01*
X160107333Y-64666666D01*
X160107333Y-64523809D01*
X160154952Y-64428571D01*
X160202571Y-64380952D01*
X160297809Y-64333333D01*
X160535904Y-64333333D01*
X160631142Y-64380952D01*
X160678761Y-64428571D01*
X160726380Y-64523809D01*
X160726380Y-64809523D01*
X160678761Y-64904761D01*
X160631142Y-64952380D01*
X160631142Y-63904761D02*
X160678761Y-63857142D01*
X160726380Y-63904761D01*
X160678761Y-63952380D01*
X160631142Y-63904761D01*
X160726380Y-63904761D01*
X159726380Y-63523809D02*
X159726380Y-62904761D01*
X160107333Y-63238095D01*
X160107333Y-63095238D01*
X160154952Y-63000000D01*
X160202571Y-62952380D01*
X160297809Y-62904761D01*
X160535904Y-62904761D01*
X160631142Y-62952380D01*
X160678761Y-63000000D01*
X160726380Y-63095238D01*
X160726380Y-63380952D01*
X160678761Y-63476190D01*
X160631142Y-63523809D01*
X160726380Y-62476190D02*
X159726380Y-62476190D01*
X160345428Y-62380952D02*
X160726380Y-62095238D01*
X160059714Y-62095238D02*
X160440666Y-62476190D01*
X153027142Y-70810380D02*
X152693809Y-70334190D01*
X152455714Y-70810380D02*
X152455714Y-69810380D01*
X152836666Y-69810380D01*
X152931904Y-69858000D01*
X152979523Y-69905619D01*
X153027142Y-70000857D01*
X153027142Y-70143714D01*
X152979523Y-70238952D01*
X152931904Y-70286571D01*
X152836666Y-70334190D01*
X152455714Y-70334190D01*
X153360476Y-69810380D02*
X153979523Y-69810380D01*
X153646190Y-70191333D01*
X153789047Y-70191333D01*
X153884285Y-70238952D01*
X153931904Y-70286571D01*
X153979523Y-70381809D01*
X153979523Y-70619904D01*
X153931904Y-70715142D01*
X153884285Y-70762761D01*
X153789047Y-70810380D01*
X153503333Y-70810380D01*
X153408095Y-70762761D01*
X153360476Y-70715142D01*
X154836666Y-69810380D02*
X154646190Y-69810380D01*
X154550952Y-69858000D01*
X154503333Y-69905619D01*
X154408095Y-70048476D01*
X154360476Y-70238952D01*
X154360476Y-70619904D01*
X154408095Y-70715142D01*
X154455714Y-70762761D01*
X154550952Y-70810380D01*
X154741428Y-70810380D01*
X154836666Y-70762761D01*
X154884285Y-70715142D01*
X154931904Y-70619904D01*
X154931904Y-70381809D01*
X154884285Y-70286571D01*
X154836666Y-70238952D01*
X154741428Y-70191333D01*
X154550952Y-70191333D01*
X154455714Y-70238952D01*
X154408095Y-70286571D01*
X154360476Y-70381809D01*
X151931904Y-71937619D02*
X151979523Y-71890000D01*
X152074761Y-71842380D01*
X152312857Y-71842380D01*
X152408095Y-71890000D01*
X152455714Y-71937619D01*
X152503333Y-72032857D01*
X152503333Y-72128095D01*
X152455714Y-72270952D01*
X151884285Y-72842380D01*
X152503333Y-72842380D01*
X152884285Y-71937619D02*
X152931904Y-71890000D01*
X153027142Y-71842380D01*
X153265238Y-71842380D01*
X153360476Y-71890000D01*
X153408095Y-71937619D01*
X153455714Y-72032857D01*
X153455714Y-72128095D01*
X153408095Y-72270952D01*
X152836666Y-72842380D01*
X153455714Y-72842380D01*
X154074761Y-71842380D02*
X154170000Y-71842380D01*
X154265238Y-71890000D01*
X154312857Y-71937619D01*
X154360476Y-72032857D01*
X154408095Y-72223333D01*
X154408095Y-72461428D01*
X154360476Y-72651904D01*
X154312857Y-72747142D01*
X154265238Y-72794761D01*
X154170000Y-72842380D01*
X154074761Y-72842380D01*
X153979523Y-72794761D01*
X153931904Y-72747142D01*
X153884285Y-72651904D01*
X153836666Y-72461428D01*
X153836666Y-72223333D01*
X153884285Y-72032857D01*
X153931904Y-71937619D01*
X153979523Y-71890000D01*
X154074761Y-71842380D01*
X154836666Y-72842380D02*
X154836666Y-71842380D01*
X155408095Y-72842380D02*
X154979523Y-72270952D01*
X155408095Y-71842380D02*
X154836666Y-72413809D01*
X149217142Y-92273380D02*
X148883809Y-91797190D01*
X148645714Y-92273380D02*
X148645714Y-91273380D01*
X149026666Y-91273380D01*
X149121904Y-91321000D01*
X149169523Y-91368619D01*
X149217142Y-91463857D01*
X149217142Y-91606714D01*
X149169523Y-91701952D01*
X149121904Y-91749571D01*
X149026666Y-91797190D01*
X148645714Y-91797190D01*
X149550476Y-91273380D02*
X150169523Y-91273380D01*
X149836190Y-91654333D01*
X149979047Y-91654333D01*
X150074285Y-91701952D01*
X150121904Y-91749571D01*
X150169523Y-91844809D01*
X150169523Y-92082904D01*
X150121904Y-92178142D01*
X150074285Y-92225761D01*
X149979047Y-92273380D01*
X149693333Y-92273380D01*
X149598095Y-92225761D01*
X149550476Y-92178142D01*
X150502857Y-91273380D02*
X151169523Y-91273380D01*
X150740952Y-92273380D01*
X149264761Y-94432380D02*
X148693333Y-94432380D01*
X148979047Y-94432380D02*
X148979047Y-93432380D01*
X148883809Y-93575238D01*
X148788571Y-93670476D01*
X148693333Y-93718095D01*
X149645714Y-93527619D02*
X149693333Y-93480000D01*
X149788571Y-93432380D01*
X150026666Y-93432380D01*
X150121904Y-93480000D01*
X150169523Y-93527619D01*
X150217142Y-93622857D01*
X150217142Y-93718095D01*
X150169523Y-93860952D01*
X149598095Y-94432380D01*
X150217142Y-94432380D01*
X150645714Y-94432380D02*
X150645714Y-93432380D01*
X150740952Y-94051428D02*
X151026666Y-94432380D01*
X151026666Y-93765714D02*
X150645714Y-94146666D01*
X149217142Y-97353380D02*
X148883809Y-96877190D01*
X148645714Y-97353380D02*
X148645714Y-96353380D01*
X149026666Y-96353380D01*
X149121904Y-96401000D01*
X149169523Y-96448619D01*
X149217142Y-96543857D01*
X149217142Y-96686714D01*
X149169523Y-96781952D01*
X149121904Y-96829571D01*
X149026666Y-96877190D01*
X148645714Y-96877190D01*
X149550476Y-96353380D02*
X150169523Y-96353380D01*
X149836190Y-96734333D01*
X149979047Y-96734333D01*
X150074285Y-96781952D01*
X150121904Y-96829571D01*
X150169523Y-96924809D01*
X150169523Y-97162904D01*
X150121904Y-97258142D01*
X150074285Y-97305761D01*
X149979047Y-97353380D01*
X149693333Y-97353380D01*
X149598095Y-97305761D01*
X149550476Y-97258142D01*
X150740952Y-96781952D02*
X150645714Y-96734333D01*
X150598095Y-96686714D01*
X150550476Y-96591476D01*
X150550476Y-96543857D01*
X150598095Y-96448619D01*
X150645714Y-96401000D01*
X150740952Y-96353380D01*
X150931428Y-96353380D01*
X151026666Y-96401000D01*
X151074285Y-96448619D01*
X151121904Y-96543857D01*
X151121904Y-96591476D01*
X151074285Y-96686714D01*
X151026666Y-96734333D01*
X150931428Y-96781952D01*
X150740952Y-96781952D01*
X150645714Y-96829571D01*
X150598095Y-96877190D01*
X150550476Y-96972428D01*
X150550476Y-97162904D01*
X150598095Y-97258142D01*
X150645714Y-97305761D01*
X150740952Y-97353380D01*
X150931428Y-97353380D01*
X151026666Y-97305761D01*
X151074285Y-97258142D01*
X151121904Y-97162904D01*
X151121904Y-96972428D01*
X151074285Y-96877190D01*
X151026666Y-96829571D01*
X150931428Y-96781952D01*
X148217142Y-98607619D02*
X148264761Y-98560000D01*
X148360000Y-98512380D01*
X148598095Y-98512380D01*
X148693333Y-98560000D01*
X148740952Y-98607619D01*
X148788571Y-98702857D01*
X148788571Y-98798095D01*
X148740952Y-98940952D01*
X148169523Y-99512380D01*
X148788571Y-99512380D01*
X149169523Y-98607619D02*
X149217142Y-98560000D01*
X149312380Y-98512380D01*
X149550476Y-98512380D01*
X149645714Y-98560000D01*
X149693333Y-98607619D01*
X149740952Y-98702857D01*
X149740952Y-98798095D01*
X149693333Y-98940952D01*
X149121904Y-99512380D01*
X149740952Y-99512380D01*
X150360000Y-98512380D02*
X150455238Y-98512380D01*
X150550476Y-98560000D01*
X150598095Y-98607619D01*
X150645714Y-98702857D01*
X150693333Y-98893333D01*
X150693333Y-99131428D01*
X150645714Y-99321904D01*
X150598095Y-99417142D01*
X150550476Y-99464761D01*
X150455238Y-99512380D01*
X150360000Y-99512380D01*
X150264761Y-99464761D01*
X150217142Y-99417142D01*
X150169523Y-99321904D01*
X150121904Y-99131428D01*
X150121904Y-98893333D01*
X150169523Y-98702857D01*
X150217142Y-98607619D01*
X150264761Y-98560000D01*
X150360000Y-98512380D01*
X151121904Y-99512380D02*
X151121904Y-98512380D01*
X151217142Y-99131428D02*
X151502857Y-99512380D01*
X151502857Y-98845714D02*
X151121904Y-99226666D01*
X122547142Y-91130380D02*
X122213809Y-90654190D01*
X121975714Y-91130380D02*
X121975714Y-90130380D01*
X122356666Y-90130380D01*
X122451904Y-90178000D01*
X122499523Y-90225619D01*
X122547142Y-90320857D01*
X122547142Y-90463714D01*
X122499523Y-90558952D01*
X122451904Y-90606571D01*
X122356666Y-90654190D01*
X121975714Y-90654190D01*
X122880476Y-90130380D02*
X123499523Y-90130380D01*
X123166190Y-90511333D01*
X123309047Y-90511333D01*
X123404285Y-90558952D01*
X123451904Y-90606571D01*
X123499523Y-90701809D01*
X123499523Y-90939904D01*
X123451904Y-91035142D01*
X123404285Y-91082761D01*
X123309047Y-91130380D01*
X123023333Y-91130380D01*
X122928095Y-91082761D01*
X122880476Y-91035142D01*
X123975714Y-91130380D02*
X124166190Y-91130380D01*
X124261428Y-91082761D01*
X124309047Y-91035142D01*
X124404285Y-90892285D01*
X124451904Y-90701809D01*
X124451904Y-90320857D01*
X124404285Y-90225619D01*
X124356666Y-90178000D01*
X124261428Y-90130380D01*
X124070952Y-90130380D01*
X123975714Y-90178000D01*
X123928095Y-90225619D01*
X123880476Y-90320857D01*
X123880476Y-90558952D01*
X123928095Y-90654190D01*
X123975714Y-90701809D01*
X124070952Y-90749428D01*
X124261428Y-90749428D01*
X124356666Y-90701809D01*
X124404285Y-90654190D01*
X124451904Y-90558952D01*
X121975714Y-92162380D02*
X122594761Y-92162380D01*
X122261428Y-92543333D01*
X122404285Y-92543333D01*
X122499523Y-92590952D01*
X122547142Y-92638571D01*
X122594761Y-92733809D01*
X122594761Y-92971904D01*
X122547142Y-93067142D01*
X122499523Y-93114761D01*
X122404285Y-93162380D01*
X122118571Y-93162380D01*
X122023333Y-93114761D01*
X121975714Y-93067142D01*
X122928095Y-92162380D02*
X123547142Y-92162380D01*
X123213809Y-92543333D01*
X123356666Y-92543333D01*
X123451904Y-92590952D01*
X123499523Y-92638571D01*
X123547142Y-92733809D01*
X123547142Y-92971904D01*
X123499523Y-93067142D01*
X123451904Y-93114761D01*
X123356666Y-93162380D01*
X123070952Y-93162380D01*
X122975714Y-93114761D01*
X122928095Y-93067142D01*
X123975714Y-93162380D02*
X123975714Y-92162380D01*
X124070952Y-92781428D02*
X124356666Y-93162380D01*
X124356666Y-92495714D02*
X123975714Y-92876666D01*
X97147142Y-90792380D02*
X96813809Y-90316190D01*
X96575714Y-90792380D02*
X96575714Y-89792380D01*
X96956666Y-89792380D01*
X97051904Y-89840000D01*
X97099523Y-89887619D01*
X97147142Y-89982857D01*
X97147142Y-90125714D01*
X97099523Y-90220952D01*
X97051904Y-90268571D01*
X96956666Y-90316190D01*
X96575714Y-90316190D01*
X98004285Y-90125714D02*
X98004285Y-90792380D01*
X97766190Y-89744761D02*
X97528095Y-90459047D01*
X98147142Y-90459047D01*
X98718571Y-89792380D02*
X98813809Y-89792380D01*
X98909047Y-89840000D01*
X98956666Y-89887619D01*
X99004285Y-89982857D01*
X99051904Y-90173333D01*
X99051904Y-90411428D01*
X99004285Y-90601904D01*
X98956666Y-90697142D01*
X98909047Y-90744761D01*
X98813809Y-90792380D01*
X98718571Y-90792380D01*
X98623333Y-90744761D01*
X98575714Y-90697142D01*
X98528095Y-90601904D01*
X98480476Y-90411428D01*
X98480476Y-90173333D01*
X98528095Y-89982857D01*
X98575714Y-89887619D01*
X98623333Y-89840000D01*
X98718571Y-89792380D01*
X96909047Y-92162380D02*
X96432857Y-92162380D01*
X96385238Y-92638571D01*
X96432857Y-92590952D01*
X96528095Y-92543333D01*
X96766190Y-92543333D01*
X96861428Y-92590952D01*
X96909047Y-92638571D01*
X96956666Y-92733809D01*
X96956666Y-92971904D01*
X96909047Y-93067142D01*
X96861428Y-93114761D01*
X96766190Y-93162380D01*
X96528095Y-93162380D01*
X96432857Y-93114761D01*
X96385238Y-93067142D01*
X97385238Y-93067142D02*
X97432857Y-93114761D01*
X97385238Y-93162380D01*
X97337619Y-93114761D01*
X97385238Y-93067142D01*
X97385238Y-93162380D01*
X98290000Y-92162380D02*
X98099523Y-92162380D01*
X98004285Y-92210000D01*
X97956666Y-92257619D01*
X97861428Y-92400476D01*
X97813809Y-92590952D01*
X97813809Y-92971904D01*
X97861428Y-93067142D01*
X97909047Y-93114761D01*
X98004285Y-93162380D01*
X98194761Y-93162380D01*
X98290000Y-93114761D01*
X98337619Y-93067142D01*
X98385238Y-92971904D01*
X98385238Y-92733809D01*
X98337619Y-92638571D01*
X98290000Y-92590952D01*
X98194761Y-92543333D01*
X98004285Y-92543333D01*
X97909047Y-92590952D01*
X97861428Y-92638571D01*
X97813809Y-92733809D01*
X98813809Y-93162380D02*
X98813809Y-92162380D01*
X98909047Y-92781428D02*
X99194761Y-93162380D01*
X99194761Y-92495714D02*
X98813809Y-92876666D01*
X76708095Y-76287380D02*
X76708095Y-77096904D01*
X76755714Y-77192142D01*
X76803333Y-77239761D01*
X76898571Y-77287380D01*
X77089047Y-77287380D01*
X77184285Y-77239761D01*
X77231904Y-77192142D01*
X77279523Y-77096904D01*
X77279523Y-76287380D01*
X78279523Y-77287380D02*
X77708095Y-77287380D01*
X77993809Y-77287380D02*
X77993809Y-76287380D01*
X77898571Y-76430238D01*
X77803333Y-76525476D01*
X77708095Y-76573095D01*
X97028095Y-76287380D02*
X97028095Y-77096904D01*
X97075714Y-77192142D01*
X97123333Y-77239761D01*
X97218571Y-77287380D01*
X97409047Y-77287380D01*
X97504285Y-77239761D01*
X97551904Y-77192142D01*
X97599523Y-77096904D01*
X97599523Y-76287380D01*
X98028095Y-76382619D02*
X98075714Y-76335000D01*
X98170952Y-76287380D01*
X98409047Y-76287380D01*
X98504285Y-76335000D01*
X98551904Y-76382619D01*
X98599523Y-76477857D01*
X98599523Y-76573095D01*
X98551904Y-76715952D01*
X97980476Y-77287380D01*
X98599523Y-77287380D01*
X114808095Y-75862380D02*
X114808095Y-76671904D01*
X114855714Y-76767142D01*
X114903333Y-76814761D01*
X114998571Y-76862380D01*
X115189047Y-76862380D01*
X115284285Y-76814761D01*
X115331904Y-76767142D01*
X115379523Y-76671904D01*
X115379523Y-75862380D01*
X115760476Y-75862380D02*
X116379523Y-75862380D01*
X116046190Y-76243333D01*
X116189047Y-76243333D01*
X116284285Y-76290952D01*
X116331904Y-76338571D01*
X116379523Y-76433809D01*
X116379523Y-76671904D01*
X116331904Y-76767142D01*
X116284285Y-76814761D01*
X116189047Y-76862380D01*
X115903333Y-76862380D01*
X115808095Y-76814761D01*
X115760476Y-76767142D01*
X147828095Y-75862380D02*
X147828095Y-76671904D01*
X147875714Y-76767142D01*
X147923333Y-76814761D01*
X148018571Y-76862380D01*
X148209047Y-76862380D01*
X148304285Y-76814761D01*
X148351904Y-76767142D01*
X148399523Y-76671904D01*
X148399523Y-75862380D01*
X149304285Y-76195714D02*
X149304285Y-76862380D01*
X149066190Y-75814761D02*
X148828095Y-76529047D01*
X149447142Y-76529047D01*
X56856333Y-62555380D02*
X56523000Y-62079190D01*
X56284904Y-62555380D02*
X56284904Y-61555380D01*
X56665857Y-61555380D01*
X56761095Y-61603000D01*
X56808714Y-61650619D01*
X56856333Y-61745857D01*
X56856333Y-61888714D01*
X56808714Y-61983952D01*
X56761095Y-62031571D01*
X56665857Y-62079190D01*
X56284904Y-62079190D01*
X57427761Y-61983952D02*
X57332523Y-61936333D01*
X57284904Y-61888714D01*
X57237285Y-61793476D01*
X57237285Y-61745857D01*
X57284904Y-61650619D01*
X57332523Y-61603000D01*
X57427761Y-61555380D01*
X57618238Y-61555380D01*
X57713476Y-61603000D01*
X57761095Y-61650619D01*
X57808714Y-61745857D01*
X57808714Y-61793476D01*
X57761095Y-61888714D01*
X57713476Y-61936333D01*
X57618238Y-61983952D01*
X57427761Y-61983952D01*
X57332523Y-62031571D01*
X57284904Y-62079190D01*
X57237285Y-62174428D01*
X57237285Y-62364904D01*
X57284904Y-62460142D01*
X57332523Y-62507761D01*
X57427761Y-62555380D01*
X57618238Y-62555380D01*
X57713476Y-62507761D01*
X57761095Y-62460142D01*
X57808714Y-62364904D01*
X57808714Y-62174428D01*
X57761095Y-62079190D01*
X57713476Y-62031571D01*
X57618238Y-61983952D01*
X56554761Y-64714380D02*
X55983333Y-64714380D01*
X56269047Y-64714380D02*
X56269047Y-63714380D01*
X56173809Y-63857238D01*
X56078571Y-63952476D01*
X55983333Y-64000095D01*
X56935714Y-63809619D02*
X56983333Y-63762000D01*
X57078571Y-63714380D01*
X57316666Y-63714380D01*
X57411904Y-63762000D01*
X57459523Y-63809619D01*
X57507142Y-63904857D01*
X57507142Y-64000095D01*
X57459523Y-64142952D01*
X56888095Y-64714380D01*
X57507142Y-64714380D01*
X57935714Y-64714380D02*
X57935714Y-63714380D01*
X58030952Y-64333428D02*
X58316666Y-64714380D01*
X58316666Y-64047714D02*
X57935714Y-64428666D01*
M02*
