M48
; DRILL file {KiCad (5.1.0-0)} date Tuesday, April 02, 2019 at 03:54:40 PM
; FORMAT={-:-/ absolute / inch / decimal}
; #@! TF.CreationDate,2019-04-02T15:54:40-07:00
; #@! TF.GenerationSoftware,Kicad,Pcbnew,(5.1.0-0)
; #@! TF.FileFunction,Plated,1,2,PTH
FMAT,2
INCH
T1C0.0236
T2C0.0315
T3C0.0512
T4C0.0866
%
G90
G05
T1
X2.6Y-2.8909
X2.6Y-2.95
T2
X5.15Y-2.35
X5.15Y-2.65
X3.46Y-2.33
X3.5584Y-2.33
X2.9Y-3.6
X3.7Y-3.65
X4.0Y-3.65
X4.4Y-3.1
X4.4Y-3.2
X4.4Y-3.3
X4.4Y-3.4
X4.7Y-3.1
X4.7Y-3.2
X4.7Y-3.3
X4.7Y-3.4
X2.53Y-2.53
X2.83Y-2.53
X2.9Y-3.9
X2.1Y-3.15
X2.4Y-3.15
X5.1925Y-3.9
X5.2713Y-3.9
X5.35Y-3.9
X3.7Y-3.1
X3.7Y-3.2
X3.7Y-3.3
X3.7Y-3.4
X4.0Y-3.1
X4.0Y-3.2
X4.0Y-3.3
X4.0Y-3.4
X5.0Y-3.1
X5.0Y-3.4
X4.2925Y-3.9
X4.3713Y-3.9
X4.45Y-3.9
X6.11Y-2.4016
X6.11Y-2.5
X2.85Y-2.65
X3.15Y-2.65
X3.15Y-3.6
X4.2Y-2.35
X4.2Y-2.65
X3.4616Y-2.5
X3.56Y-2.5
X5.45Y-3.1
X5.45Y-3.4
X3.15Y-3.9
X4.77Y-2.35
X4.77Y-2.65
X5.9Y-2.85
X6.2Y-2.85
X5.5Y-2.35
X5.5Y-2.65
X2.53Y-2.36
X2.83Y-2.36
X3.4Y-3.6
X2.9Y-3.1
X2.9Y-3.2
X2.9Y-3.3
X2.9Y-3.4
X3.2Y-3.1
X3.2Y-3.2
X3.2Y-3.3
X3.2Y-3.4
X3.07Y-2.35
X3.37Y-2.35
X3.4Y-3.15
X3.4Y-3.45
X3.4Y-3.9
X3.7925Y-3.9
X3.8713Y-3.9
X3.95Y-3.9
X5.9Y-2.35
X5.9Y-2.65
X6.35Y-2.9
X6.35Y-3.2
X2.3Y-3.5516
X2.3Y-3.65
X4.06Y-2.5116
X4.06Y-2.61
X5.75Y-3.9
X6.05Y-3.9
X3.7Y-2.85
X4.0Y-2.85
X4.7Y-3.65
X5.0Y-3.65
X6.31Y-2.35
X6.31Y-2.65
X2.1Y-2.18
X2.1984Y-2.18
X2.7Y-3.1
X2.7Y-3.4
X4.4016Y-3.65
X4.5Y-3.65
X4.55Y-2.85
X4.85Y-2.85
X3.37Y-2.48
X4.96Y-2.4016
X4.96Y-2.5
X2.25Y-3.4
X2.55Y-3.4
X3.9Y-2.35
X3.9Y-2.65
X2.3Y-3.85
X2.6Y-3.5516
X2.6Y-3.65
X2.6Y-2.6516
X2.6Y-2.75
X2.6Y-3.85
X5.25Y-3.1
X5.25Y-3.4
X6.35Y-3.35
X6.35Y-3.65
X5.7Y-3.1
X3.25Y-2.65
X3.55Y-2.65
X3.25Y-2.85
X3.55Y-2.85
X4.55Y-2.35
X4.55Y-2.65
X2.95Y-2.3316
X2.95Y-2.43
X5.75Y-3.7
X6.05Y-3.7
X5.72Y-2.4016
X2.1Y-2.72
X2.4Y-2.72
X5.7Y-3.2
X5.7Y-3.3
X5.7Y-3.4
X6.0Y-3.1
X6.0Y-3.2
X6.0Y-3.3
X6.0Y-3.4
X2.1Y-3.3925
X2.1Y-3.4713
X2.1Y-3.55
X5.45Y-2.85
X5.75Y-2.85
X3.7Y-2.35
X3.7Y-2.65
X4.1Y-2.85
X4.4Y-2.85
X2.1Y-2.9
X2.4Y-2.9
X5.3016Y-3.65
X5.4Y-3.65
X5.34Y-2.4016
X5.34Y-2.5
X4.39Y-2.4216
X4.39Y-2.52
X3.07Y-2.48
X5.72Y-2.5
X4.75Y-3.9
X4.8287Y-3.9
X4.9075Y-3.9
X5.0Y-2.85
X5.3Y-2.85
X2.85Y-2.85
X3.15Y-2.85
X2.1Y-2.53
X2.4Y-2.53
X2.1Y-2.35
X2.4Y-2.35
T3
X4.08Y-1.99
X4.2769Y-1.99
X4.4737Y-1.99
X4.8963Y-1.99
X5.0931Y-1.99
X5.29Y-1.99
X3.2731Y-1.99
X3.47Y-1.99
X5.7031Y-1.99
X5.9Y-1.99
X6.0969Y-1.99
X2.4663Y-1.99
X2.6631Y-1.99
X2.86Y-1.99
X3.6669Y-1.99
T4
X2.1Y-3.9
X6.35Y-2.0
X2.1Y-2.0
X6.35Y-3.9
T0
M30
