G04 #@! TF.GenerationSoftware,KiCad,Pcbnew,(5.0.1-3-g963ef8bb5)*
G04 #@! TF.CreationDate,2019-03-07T12:24:47-08:00*
G04 #@! TF.ProjectId,Pre-amp,5072652D616D702E6B696361645F7063,rev?*
G04 #@! TF.SameCoordinates,Original*
G04 #@! TF.FileFunction,Copper,L1,Top,Signal*
G04 #@! TF.FilePolarity,Positive*
%FSLAX46Y46*%
G04 Gerber Fmt 4.6, Leading zero omitted, Abs format (unit mm)*
G04 Created by KiCad (PCBNEW (5.0.1-3-g963ef8bb5)) date Thursday, March 07, 2019 at 12:24:47 PM*
%MOMM*%
%LPD*%
G01*
G04 APERTURE LIST*
G04 #@! TA.AperFunction,ComponentPad*
%ADD10C,1.600000*%
G04 #@! TD*
G04 #@! TA.AperFunction,ComponentPad*
%ADD11O,1.600000X1.600000*%
G04 #@! TD*
G04 #@! TA.AperFunction,ComponentPad*
%ADD12O,2.000000X2.000000*%
G04 #@! TD*
G04 #@! TA.AperFunction,ComponentPad*
%ADD13R,2.000000X2.000000*%
G04 #@! TD*
G04 #@! TA.AperFunction,ComponentPad*
%ADD14O,1.350000X1.350000*%
G04 #@! TD*
G04 #@! TA.AperFunction,ComponentPad*
%ADD15R,1.350000X1.350000*%
G04 #@! TD*
G04 #@! TA.AperFunction,ComponentPad*
%ADD16O,1.400000X1.400000*%
G04 #@! TD*
G04 #@! TA.AperFunction,ComponentPad*
%ADD17C,1.400000*%
G04 #@! TD*
G04 #@! TA.AperFunction,ComponentPad*
%ADD18C,2.000000*%
G04 #@! TD*
G04 #@! TA.AperFunction,ComponentPad*
%ADD19R,1.676400X1.676400*%
G04 #@! TD*
G04 #@! TA.AperFunction,ComponentPad*
%ADD20C,1.676400*%
G04 #@! TD*
G04 #@! TA.AperFunction,Conductor*
%ADD21C,0.750000*%
G04 #@! TD*
G04 #@! TA.AperFunction,Conductor*
%ADD22C,0.254000*%
G04 #@! TD*
G04 APERTURE END LIST*
D10*
G04 #@! TO.P,C1,1*
G04 #@! TO.N,Net-(C1-Pad1)*
X97790000Y-58420000D03*
D11*
G04 #@! TO.P,C1,2*
G04 #@! TO.N,Net-(C1-Pad2)*
X90290000Y-58420000D03*
G04 #@! TD*
G04 #@! TO.P,C2,2*
G04 #@! TO.N,Net-(C2-Pad2)*
X93980000Y-71120000D03*
D10*
G04 #@! TO.P,C2,1*
G04 #@! TO.N,Net-(C2-Pad1)*
X93980000Y-63620000D03*
G04 #@! TD*
D11*
G04 #@! TO.P,C3,2*
G04 #@! TO.N,Net-(C3-Pad2)*
X111880000Y-58420000D03*
D10*
G04 #@! TO.P,C3,1*
G04 #@! TO.N,Net-(C3-Pad1)*
X119380000Y-58420000D03*
G04 #@! TD*
G04 #@! TO.P,C4,1*
G04 #@! TO.N,Net-(C4-Pad1)*
X115570000Y-63500000D03*
D11*
G04 #@! TO.P,C4,2*
G04 #@! TO.N,Net-(C4-Pad2)*
X115570000Y-71000000D03*
G04 #@! TD*
D10*
G04 #@! TO.P,C5,1*
G04 #@! TO.N,Net-(C5-Pad1)*
X138310000Y-58420000D03*
D11*
G04 #@! TO.P,C5,2*
G04 #@! TO.N,Net-(C5-Pad2)*
X130810000Y-58420000D03*
G04 #@! TD*
G04 #@! TO.P,C6,2*
G04 #@! TO.N,Net-(C6-Pad2)*
X134620000Y-71000000D03*
D10*
G04 #@! TO.P,C6,1*
G04 #@! TO.N,Net-(C6-Pad1)*
X134620000Y-63500000D03*
G04 #@! TD*
D11*
G04 #@! TO.P,C7,2*
G04 #@! TO.N,Net-(C7-Pad2)*
X149980000Y-58420000D03*
D10*
G04 #@! TO.P,C7,1*
G04 #@! TO.N,Net-(C7-Pad1)*
X157480000Y-58420000D03*
G04 #@! TD*
G04 #@! TO.P,C8,1*
G04 #@! TO.N,Net-(C8-Pad1)*
X153670000Y-63500000D03*
D11*
G04 #@! TO.P,C8,2*
G04 #@! TO.N,Net-(C8-Pad2)*
X153670000Y-71000000D03*
G04 #@! TD*
G04 #@! TO.P,C9,2*
G04 #@! TO.N,Net-(C9-Pad2)*
X143510000Y-80010000D03*
D10*
G04 #@! TO.P,C9,1*
G04 #@! TO.N,Net-(C9-Pad1)*
X136010000Y-80010000D03*
G04 #@! TD*
G04 #@! TO.P,C10,1*
G04 #@! TO.N,Net-(C10-Pad1)*
X122040000Y-92710000D03*
D11*
G04 #@! TO.P,C10,2*
G04 #@! TO.N,Net-(C10-Pad2)*
X129540000Y-92710000D03*
G04 #@! TD*
D12*
G04 #@! TO.P,D1,2*
G04 #@! TO.N,Net-(D1-Pad2)*
X148590000Y-81280000D03*
D13*
G04 #@! TO.P,D1,1*
G04 #@! TO.N,Net-(D1-Pad1)*
X153670000Y-81280000D03*
G04 #@! TD*
G04 #@! TO.P,D2,1*
G04 #@! TO.N,GND*
X162560000Y-81280000D03*
D12*
G04 #@! TO.P,D2,2*
G04 #@! TO.N,Net-(D1-Pad1)*
X157480000Y-81280000D03*
G04 #@! TD*
D14*
G04 #@! TO.P,J1,3*
G04 #@! TO.N,GND*
X86360000Y-86360000D03*
G04 #@! TO.P,J1,2*
G04 #@! TO.N,Net-(J1-Pad2)*
X86360000Y-84360000D03*
D15*
G04 #@! TO.P,J1,1*
G04 #@! TO.N,GND*
X86360000Y-82360000D03*
G04 #@! TD*
G04 #@! TO.P,J2,1*
G04 #@! TO.N,GND*
X109220000Y-99060000D03*
D14*
G04 #@! TO.P,J2,2*
G04 #@! TO.N,Net-(J2-Pad2)*
X111220000Y-99060000D03*
G04 #@! TO.P,J2,3*
G04 #@! TO.N,N/C*
X113220000Y-99060000D03*
G04 #@! TD*
G04 #@! TO.P,J3,3*
G04 #@! TO.N,Net-(J2-Pad2)*
X127190000Y-99060000D03*
G04 #@! TO.P,J3,2*
G04 #@! TO.N,Net-(C10-Pad1)*
X125190000Y-99060000D03*
D15*
G04 #@! TO.P,J3,1*
G04 #@! TO.N,GND*
X123190000Y-99060000D03*
G04 #@! TD*
G04 #@! TO.P,J4,1*
G04 #@! TO.N,GND*
X148050000Y-99060000D03*
D14*
G04 #@! TO.P,J4,2*
G04 #@! TO.N,Net-(J4-Pad2)*
X146050000Y-99060000D03*
G04 #@! TO.P,J4,3*
G04 #@! TO.N,N/C*
X144050000Y-99060000D03*
G04 #@! TD*
D16*
G04 #@! TO.P,R1,2*
G04 #@! TO.N,Net-(J1-Pad2)*
X88900000Y-68580000D03*
D17*
G04 #@! TO.P,R1,1*
G04 #@! TO.N,Net-(C1-Pad2)*
X88900000Y-63500000D03*
G04 #@! TD*
D16*
G04 #@! TO.P,R2,2*
G04 #@! TO.N,Net-(J1-Pad2)*
X86360000Y-74930000D03*
D17*
G04 #@! TO.P,R2,1*
G04 #@! TO.N,Net-(C2-Pad2)*
X91440000Y-74930000D03*
G04 #@! TD*
G04 #@! TO.P,R3,1*
G04 #@! TO.N,Net-(R3-Pad1)*
X101600000Y-74930000D03*
D16*
G04 #@! TO.P,R3,2*
G04 #@! TO.N,Net-(C2-Pad2)*
X96520000Y-74930000D03*
G04 #@! TD*
D17*
G04 #@! TO.P,R4,1*
G04 #@! TO.N,Net-(R3-Pad1)*
X99060000Y-68580000D03*
D16*
G04 #@! TO.P,R4,2*
G04 #@! TO.N,Net-(C1-Pad1)*
X99060000Y-63500000D03*
G04 #@! TD*
D17*
G04 #@! TO.P,R5,1*
G04 #@! TO.N,Net-(R3-Pad1)*
X106680000Y-68580000D03*
D16*
G04 #@! TO.P,R5,2*
G04 #@! TO.N,Net-(R5-Pad2)*
X106680000Y-63500000D03*
G04 #@! TD*
G04 #@! TO.P,R6,2*
G04 #@! TO.N,Net-(C3-Pad2)*
X106680000Y-53340000D03*
D17*
G04 #@! TO.P,R6,1*
G04 #@! TO.N,Net-(R5-Pad2)*
X106680000Y-58420000D03*
G04 #@! TD*
G04 #@! TO.P,R7,1*
G04 #@! TO.N,Net-(C4-Pad1)*
X111760000Y-68580000D03*
D16*
G04 #@! TO.P,R7,2*
G04 #@! TO.N,Net-(C3-Pad2)*
X111760000Y-63500000D03*
G04 #@! TD*
G04 #@! TO.P,R8,2*
G04 #@! TO.N,Net-(R3-Pad1)*
X107950000Y-74930000D03*
D17*
G04 #@! TO.P,R8,1*
G04 #@! TO.N,Net-(C4-Pad2)*
X113030000Y-74930000D03*
G04 #@! TD*
D16*
G04 #@! TO.P,R9,2*
G04 #@! TO.N,Net-(C3-Pad1)*
X120650000Y-63500000D03*
D17*
G04 #@! TO.P,R9,1*
G04 #@! TO.N,Net-(C4-Pad1)*
X120650000Y-68580000D03*
G04 #@! TD*
G04 #@! TO.P,R10,1*
G04 #@! TO.N,Net-(R10-Pad1)*
X123190000Y-74930000D03*
D16*
G04 #@! TO.P,R10,2*
G04 #@! TO.N,Net-(C4-Pad2)*
X118110000Y-74930000D03*
G04 #@! TD*
D17*
G04 #@! TO.P,R11,1*
G04 #@! TO.N,Net-(R10-Pad1)*
X123190000Y-58420000D03*
D16*
G04 #@! TO.P,R11,2*
G04 #@! TO.N,Net-(C3-Pad1)*
X123190000Y-53340000D03*
G04 #@! TD*
G04 #@! TO.P,R12,2*
G04 #@! TO.N,Net-(R10-Pad1)*
X128270000Y-68580000D03*
D17*
G04 #@! TO.P,R12,1*
G04 #@! TO.N,Net-(C5-Pad2)*
X128270000Y-63500000D03*
G04 #@! TD*
D16*
G04 #@! TO.P,R13,2*
G04 #@! TO.N,Net-(R10-Pad1)*
X127000000Y-74930000D03*
D17*
G04 #@! TO.P,R13,1*
G04 #@! TO.N,Net-(C6-Pad2)*
X132080000Y-74930000D03*
G04 #@! TD*
G04 #@! TO.P,R14,1*
G04 #@! TO.N,Net-(R14-Pad1)*
X142240000Y-74930000D03*
D16*
G04 #@! TO.P,R14,2*
G04 #@! TO.N,Net-(C6-Pad2)*
X137160000Y-74930000D03*
G04 #@! TD*
D17*
G04 #@! TO.P,R15,1*
G04 #@! TO.N,Net-(R14-Pad1)*
X140970000Y-68580000D03*
D16*
G04 #@! TO.P,R15,2*
G04 #@! TO.N,Net-(C5-Pad1)*
X140970000Y-63500000D03*
G04 #@! TD*
G04 #@! TO.P,R16,2*
G04 #@! TO.N,Net-(R14-Pad1)*
X147320000Y-68580000D03*
D17*
G04 #@! TO.P,R16,1*
G04 #@! TO.N,Net-(C7-Pad2)*
X147320000Y-63500000D03*
G04 #@! TD*
D16*
G04 #@! TO.P,R17,2*
G04 #@! TO.N,Net-(R14-Pad1)*
X146050000Y-74930000D03*
D17*
G04 #@! TO.P,R17,1*
G04 #@! TO.N,Net-(C8-Pad2)*
X151130000Y-74930000D03*
G04 #@! TD*
G04 #@! TO.P,R18,1*
G04 #@! TO.N,Net-(C9-Pad2)*
X160020000Y-68580000D03*
D16*
G04 #@! TO.P,R18,2*
G04 #@! TO.N,Net-(C7-Pad1)*
X160020000Y-63500000D03*
G04 #@! TD*
D17*
G04 #@! TO.P,R19,1*
G04 #@! TO.N,Net-(C9-Pad2)*
X160020000Y-74930000D03*
D16*
G04 #@! TO.P,R19,2*
G04 #@! TO.N,Net-(C8-Pad2)*
X154940000Y-74930000D03*
G04 #@! TD*
G04 #@! TO.P,R20,2*
G04 #@! TO.N,Net-(C9-Pad1)*
X135890000Y-85090000D03*
D17*
G04 #@! TO.P,R20,1*
G04 #@! TO.N,Net-(J2-Pad2)*
X135890000Y-90170000D03*
G04 #@! TD*
G04 #@! TO.P,R21,1*
G04 #@! TO.N,GND*
X107950000Y-90170000D03*
D16*
G04 #@! TO.P,R21,2*
G04 #@! TO.N,Net-(J2-Pad2)*
X113030000Y-90170000D03*
G04 #@! TD*
G04 #@! TO.P,R22,2*
G04 #@! TO.N,Net-(J4-Pad2)*
X146050000Y-90170000D03*
D17*
G04 #@! TO.P,R22,1*
G04 #@! TO.N,Net-(R22-Pad1)*
X146050000Y-85090000D03*
G04 #@! TD*
D16*
G04 #@! TO.P,R23,2*
G04 #@! TO.N,Net-(R23-Pad2)*
X149860000Y-90170000D03*
D17*
G04 #@! TO.P,R23,1*
G04 #@! TO.N,Net-(R22-Pad1)*
X149860000Y-85090000D03*
G04 #@! TD*
G04 #@! TO.P,R24,1*
G04 #@! TO.N,Net-(R23-Pad2)*
X148590000Y-95250000D03*
D16*
G04 #@! TO.P,R24,2*
G04 #@! TO.N,GND*
X143510000Y-95250000D03*
G04 #@! TD*
G04 #@! TO.P,R25,2*
G04 #@! TO.N,Net-(C10-Pad2)*
X140970000Y-90170000D03*
D17*
G04 #@! TO.P,R25,1*
G04 #@! TO.N,Net-(D1-Pad2)*
X140970000Y-85090000D03*
G04 #@! TD*
G04 #@! TO.P,R26,1*
G04 #@! TO.N,Net-(C10-Pad2)*
X138430000Y-99060000D03*
D16*
G04 #@! TO.P,R26,2*
G04 #@! TO.N,GND*
X133350000Y-99060000D03*
G04 #@! TD*
D18*
G04 #@! TO.P,RV1,2*
G04 #@! TO.N,Net-(C2-Pad1)*
X93980000Y-50800000D03*
G04 #@! TO.P,RV1,3*
G04 #@! TO.N,Net-(C1-Pad2)*
X91440000Y-50800000D03*
G04 #@! TO.P,RV1,1*
G04 #@! TO.N,Net-(C1-Pad1)*
X96520000Y-50800000D03*
G04 #@! TD*
G04 #@! TO.P,RV2,1*
G04 #@! TO.N,Net-(C3-Pad1)*
X118110000Y-50800000D03*
G04 #@! TO.P,RV2,3*
G04 #@! TO.N,Net-(C3-Pad2)*
X113030000Y-50800000D03*
G04 #@! TO.P,RV2,2*
G04 #@! TO.N,Net-(C4-Pad1)*
X115570000Y-50800000D03*
G04 #@! TD*
G04 #@! TO.P,RV3,2*
G04 #@! TO.N,Net-(C6-Pad1)*
X134620000Y-50800000D03*
G04 #@! TO.P,RV3,3*
G04 #@! TO.N,Net-(C5-Pad2)*
X132080000Y-50800000D03*
G04 #@! TO.P,RV3,1*
G04 #@! TO.N,Net-(C5-Pad1)*
X137160000Y-50800000D03*
G04 #@! TD*
G04 #@! TO.P,RV4,1*
G04 #@! TO.N,Net-(C7-Pad1)*
X156210000Y-50800000D03*
G04 #@! TO.P,RV4,3*
G04 #@! TO.N,Net-(C7-Pad2)*
X151130000Y-50800000D03*
G04 #@! TO.P,RV4,2*
G04 #@! TO.N,Net-(C8-Pad1)*
X153670000Y-50800000D03*
G04 #@! TD*
D19*
G04 #@! TO.P,U1,1*
G04 #@! TO.N,Net-(R3-Pad1)*
X96520000Y-80010000D03*
D20*
G04 #@! TO.P,U1,2*
G04 #@! TO.N,Net-(C2-Pad2)*
X96520000Y-82550000D03*
G04 #@! TO.P,U1,3*
G04 #@! TO.N,GND*
X96520000Y-85090000D03*
G04 #@! TO.P,U1,4*
G04 #@! TO.N,-15V*
X96520000Y-87630000D03*
G04 #@! TO.P,U1,5*
G04 #@! TO.N,GND*
X104140000Y-87630000D03*
G04 #@! TO.P,U1,6*
G04 #@! TO.N,Net-(C4-Pad2)*
X104140000Y-85090000D03*
G04 #@! TO.P,U1,7*
G04 #@! TO.N,Net-(R10-Pad1)*
X104140000Y-82550000D03*
G04 #@! TO.P,U1,8*
G04 #@! TO.N,+15V*
X104140000Y-80010000D03*
G04 #@! TD*
D19*
G04 #@! TO.P,U2,1*
G04 #@! TO.N,Net-(R14-Pad1)*
X128270000Y-80010000D03*
D20*
G04 #@! TO.P,U2,2*
G04 #@! TO.N,Net-(C6-Pad2)*
X125730000Y-80010000D03*
G04 #@! TO.P,U2,3*
G04 #@! TO.N,GND*
X123190000Y-80010000D03*
G04 #@! TO.P,U2,4*
G04 #@! TO.N,-15V*
X120650000Y-80010000D03*
G04 #@! TO.P,U2,5*
G04 #@! TO.N,GND*
X120650000Y-87630000D03*
G04 #@! TO.P,U2,6*
G04 #@! TO.N,Net-(C8-Pad2)*
X123190000Y-87630000D03*
G04 #@! TO.P,U2,7*
G04 #@! TO.N,Net-(C9-Pad2)*
X125730000Y-87630000D03*
G04 #@! TO.P,U2,8*
G04 #@! TO.N,+15V*
X128270000Y-87630000D03*
G04 #@! TD*
G04 #@! TO.P,U3,8*
G04 #@! TO.N,+15V*
X162560000Y-87630000D03*
G04 #@! TO.P,U3,7*
G04 #@! TO.N,N/C*
X162560000Y-90170000D03*
G04 #@! TO.P,U3,6*
X162560000Y-92710000D03*
G04 #@! TO.P,U3,5*
X162560000Y-95250000D03*
G04 #@! TO.P,U3,4*
G04 #@! TO.N,-15V*
X154940000Y-95250000D03*
G04 #@! TO.P,U3,3*
G04 #@! TO.N,Net-(D1-Pad2)*
X154940000Y-92710000D03*
G04 #@! TO.P,U3,2*
G04 #@! TO.N,Net-(R23-Pad2)*
X154940000Y-90170000D03*
D19*
G04 #@! TO.P,U3,1*
G04 #@! TO.N,Net-(R22-Pad1)*
X154940000Y-87630000D03*
G04 #@! TD*
D14*
G04 #@! TO.P,J5,3*
G04 #@! TO.N,GND*
X95060000Y-99060000D03*
G04 #@! TO.P,J5,2*
G04 #@! TO.N,-15V*
X97060000Y-99060000D03*
D15*
G04 #@! TO.P,J5,1*
G04 #@! TO.N,+15V*
X99060000Y-99060000D03*
G04 #@! TD*
D21*
G04 #@! TO.N,Net-(C1-Pad2)*
X90290000Y-51950000D02*
X91440000Y-50800000D01*
X90290000Y-58420000D02*
X90290000Y-51950000D01*
X88900000Y-59810000D02*
X90290000Y-58420000D01*
X88900000Y-63500000D02*
X88900000Y-59810000D01*
G04 #@! TO.N,Net-(C1-Pad1)*
X97790000Y-52070000D02*
X96520000Y-50800000D01*
X97790000Y-58420000D02*
X97790000Y-52070000D01*
X99060000Y-59690000D02*
X97790000Y-58420000D01*
X99060000Y-63500000D02*
X99060000Y-59690000D01*
G04 #@! TO.N,Net-(C2-Pad1)*
X93980000Y-63620000D02*
X93980000Y-50800000D01*
G04 #@! TO.N,Net-(C2-Pad2)*
X91440000Y-73660000D02*
X93980000Y-71120000D01*
X91440000Y-74930000D02*
X91440000Y-73660000D01*
X96520000Y-73660000D02*
X93980000Y-71120000D01*
X96520000Y-74930000D02*
X96520000Y-73660000D01*
X96520000Y-82550000D02*
X95250000Y-82550000D01*
X95250000Y-82550000D02*
X93980000Y-81280000D01*
X93980000Y-77470000D02*
X96520000Y-74930000D01*
X93980000Y-81280000D02*
X93980000Y-77470000D01*
G04 #@! TO.N,Net-(C3-Pad1)*
X119380000Y-62230000D02*
X120650000Y-63500000D01*
X119380000Y-58420000D02*
X119380000Y-62230000D01*
X120650000Y-53340000D02*
X118110000Y-50800000D01*
X123190000Y-53340000D02*
X120650000Y-53340000D01*
X123190000Y-54610000D02*
X119380000Y-58420000D01*
X123190000Y-53340000D02*
X123190000Y-54610000D01*
G04 #@! TO.N,Net-(C3-Pad2)*
X106800000Y-53340000D02*
X111880000Y-58420000D01*
X106680000Y-53340000D02*
X106800000Y-53340000D01*
X110490000Y-53340000D02*
X113030000Y-50800000D01*
X106680000Y-53340000D02*
X110490000Y-53340000D01*
X111760000Y-58540000D02*
X111880000Y-58420000D01*
X111760000Y-63500000D02*
X111760000Y-58540000D01*
G04 #@! TO.N,Net-(C4-Pad2)*
X113030000Y-73540000D02*
X115570000Y-71000000D01*
X113030000Y-74930000D02*
X113030000Y-73540000D01*
X118110000Y-73540000D02*
X115570000Y-71000000D01*
X118110000Y-74930000D02*
X118110000Y-73540000D01*
G04 #@! TO.N,Net-(C4-Pad1)*
X111760000Y-67310000D02*
X115570000Y-63500000D01*
X111760000Y-68580000D02*
X111760000Y-67310000D01*
X115570000Y-63500000D02*
X120650000Y-68580000D01*
X115570000Y-50800000D02*
X115570000Y-63500000D01*
G04 #@! TO.N,Net-(C5-Pad2)*
X128270000Y-60960000D02*
X130810000Y-58420000D01*
X128270000Y-63500000D02*
X128270000Y-60960000D01*
X132080000Y-57150000D02*
X130810000Y-58420000D01*
X132080000Y-50800000D02*
X132080000Y-57150000D01*
G04 #@! TO.N,Net-(C5-Pad1)*
X137160000Y-57270000D02*
X138310000Y-58420000D01*
X137160000Y-50800000D02*
X137160000Y-57270000D01*
X138310000Y-60840000D02*
X140970000Y-63500000D01*
X138310000Y-58420000D02*
X138310000Y-60840000D01*
G04 #@! TO.N,Net-(C6-Pad1)*
X134620000Y-50800000D02*
X134620000Y-63500000D01*
G04 #@! TO.N,Net-(C6-Pad2)*
X137160000Y-73540000D02*
X134620000Y-71000000D01*
X137160000Y-74930000D02*
X137160000Y-73540000D01*
X132080000Y-73540000D02*
X134620000Y-71000000D01*
X132080000Y-74930000D02*
X132080000Y-73540000D01*
X130810000Y-74930000D02*
X132080000Y-74930000D01*
X125730000Y-80010000D02*
X130810000Y-74930000D01*
G04 #@! TO.N,Net-(C7-Pad1)*
X157480000Y-60960000D02*
X160020000Y-63500000D01*
X157480000Y-58420000D02*
X157480000Y-60960000D01*
X156210000Y-57150000D02*
X157480000Y-58420000D01*
X156210000Y-50800000D02*
X156210000Y-57150000D01*
G04 #@! TO.N,Net-(C7-Pad2)*
X149980000Y-60840000D02*
X147320000Y-63500000D01*
X149980000Y-58420000D02*
X149980000Y-60840000D01*
X151130000Y-57270000D02*
X149980000Y-58420000D01*
X151130000Y-50800000D02*
X151130000Y-57270000D01*
G04 #@! TO.N,Net-(C8-Pad1)*
X153670000Y-50800000D02*
X153670000Y-63500000D01*
G04 #@! TO.N,Net-(C8-Pad2)*
X151130000Y-73540000D02*
X153670000Y-71000000D01*
X151130000Y-74930000D02*
X151130000Y-73540000D01*
X154940000Y-72270000D02*
X153670000Y-71000000D01*
X154940000Y-74930000D02*
X154940000Y-72270000D01*
X150430001Y-75629999D02*
X151130000Y-74930000D01*
X127000000Y-83820000D02*
X123190000Y-87630000D01*
X130736484Y-83820000D02*
X127000000Y-83820000D01*
X133171483Y-81385001D02*
X130736484Y-83820000D01*
X138324999Y-81385001D02*
X133171483Y-81385001D01*
X142240000Y-77470000D02*
X138324999Y-81385001D01*
X148590000Y-77470000D02*
X142240000Y-77470000D01*
X151130000Y-74930000D02*
X148590000Y-77470000D01*
G04 #@! TO.N,Net-(C9-Pad2)*
X160020000Y-74930000D02*
X160020000Y-68580000D01*
X125730000Y-87630000D02*
X128270000Y-85090000D01*
X128270000Y-85090000D02*
X130810000Y-85090000D01*
X142710001Y-80809999D02*
X143510000Y-80010000D01*
X141184989Y-82335011D02*
X142710001Y-80809999D01*
X133564989Y-82335011D02*
X141184989Y-82335011D01*
X130810000Y-85090000D02*
X133564989Y-82335011D01*
X159320001Y-75629999D02*
X160020000Y-74930000D01*
X145099990Y-78420010D02*
X156529990Y-78420010D01*
X156529990Y-78420010D02*
X159320001Y-75629999D01*
X143510000Y-80010000D02*
X145099990Y-78420010D01*
G04 #@! TO.N,Net-(C10-Pad2)*
X140970000Y-96520000D02*
X138430000Y-99060000D01*
X140970000Y-90170000D02*
X140970000Y-96520000D01*
X132080000Y-92710000D02*
X138430000Y-99060000D01*
X129540000Y-92710000D02*
X132080000Y-92710000D01*
G04 #@! TO.N,Net-(D1-Pad2)*
X144780000Y-81280000D02*
X148590000Y-81280000D01*
X140970000Y-85090000D02*
X144780000Y-81280000D01*
G04 #@! TO.N,Net-(D1-Pad1)*
X153670000Y-81280000D02*
X157480000Y-81280000D01*
G04 #@! TO.N,Net-(R3-Pad1)*
X99060000Y-72390000D02*
X101600000Y-74930000D01*
X99060000Y-68580000D02*
X99060000Y-72390000D01*
X101600000Y-74930000D02*
X107950000Y-74930000D01*
X107950000Y-69850000D02*
X106680000Y-68580000D01*
X107950000Y-74930000D02*
X107950000Y-69850000D01*
X101600000Y-76518200D02*
X101600000Y-75919949D01*
X101600000Y-75919949D02*
X101600000Y-74930000D01*
X98108200Y-80010000D02*
X101600000Y-76518200D01*
X96520000Y-80010000D02*
X98108200Y-80010000D01*
G04 #@! TO.N,Net-(R5-Pad2)*
X106680000Y-63500000D02*
X106680000Y-58420000D01*
G04 #@! TO.N,Net-(R10-Pad1)*
X123190000Y-63500000D02*
X128270000Y-68580000D01*
X123190000Y-58420000D02*
X123190000Y-63500000D01*
X120650000Y-77470000D02*
X123190000Y-74930000D01*
X110490000Y-77470000D02*
X120650000Y-77470000D01*
X105410000Y-82550000D02*
X110490000Y-77470000D01*
X104140000Y-82550000D02*
X105410000Y-82550000D01*
X123190000Y-74930000D02*
X127000000Y-74930000D01*
X127000000Y-69850000D02*
X128270000Y-68580000D01*
X127000000Y-74930000D02*
X127000000Y-69850000D01*
G04 #@! TO.N,Net-(R14-Pad1)*
X146050000Y-74930000D02*
X142240000Y-74930000D01*
X140970000Y-68580000D02*
X147320000Y-68580000D01*
X147320000Y-73660000D02*
X146050000Y-74930000D01*
X147320000Y-68580000D02*
X147320000Y-73660000D01*
X132398200Y-77470000D02*
X139700000Y-77470000D01*
X139700000Y-77470000D02*
X142240000Y-74930000D01*
X129858200Y-80010000D02*
X132398200Y-77470000D01*
X128270000Y-80010000D02*
X129858200Y-80010000D01*
G04 #@! TO.N,Net-(R22-Pad1)*
X152400000Y-87630000D02*
X149860000Y-85090000D01*
X154940000Y-87630000D02*
X152400000Y-87630000D01*
X149860000Y-85090000D02*
X146050000Y-85090000D01*
G04 #@! TO.N,Net-(R23-Pad2)*
X149860000Y-90170000D02*
X154940000Y-90170000D01*
X148590000Y-91440000D02*
X149860000Y-90170000D01*
X148590000Y-95250000D02*
X148590000Y-91440000D01*
G04 #@! TO.N,-15V*
X97060000Y-88170000D02*
X96520000Y-87630000D01*
X97060000Y-99060000D02*
X97060000Y-88170000D01*
X119464607Y-80010000D02*
X120650000Y-80010000D01*
X115155406Y-80010000D02*
X119464607Y-80010000D01*
X97060000Y-98105406D02*
X115155406Y-80010000D01*
X97060000Y-99060000D02*
X97060000Y-98105406D01*
X154101801Y-96088199D02*
X154940000Y-95250000D01*
X97060000Y-100014594D02*
X97380407Y-100335001D01*
X149854999Y-100335001D02*
X154101801Y-96088199D01*
X97380407Y-100335001D02*
X149854999Y-100335001D01*
X97060000Y-99060000D02*
X97060000Y-100014594D01*
G04 #@! TO.N,Net-(J1-Pad2)*
X86360000Y-71120000D02*
X88900000Y-68580000D01*
X86360000Y-74930000D02*
X86360000Y-71120000D01*
X86360000Y-84360000D02*
X88360000Y-84360000D01*
X88360000Y-84360000D02*
X88900000Y-83820000D01*
X88900000Y-77470000D02*
X86360000Y-74930000D01*
X88900000Y-83820000D02*
X88900000Y-77470000D01*
G04 #@! TO.N,Net-(J2-Pad2)*
X127190000Y-98105406D02*
X127190000Y-99060000D01*
X127190000Y-95824998D02*
X127190000Y-98105406D01*
X121535002Y-90170000D02*
X127190000Y-95824998D01*
X113030000Y-90170000D02*
X121535002Y-90170000D01*
G04 #@! TO.N,Net-(C10-Pad1)*
X125190000Y-95860000D02*
X125190000Y-99060000D01*
X122040000Y-92710000D02*
X125190000Y-95860000D01*
G04 #@! TO.N,Net-(J4-Pad2)*
X146050000Y-90170000D02*
X146050000Y-99060000D01*
G04 #@! TD*
D22*
G04 #@! TO.N,GND*
G36*
X163120001Y-79645000D02*
X162845750Y-79645000D01*
X162687000Y-79803750D01*
X162687000Y-81153000D01*
X162707000Y-81153000D01*
X162707000Y-81407000D01*
X162687000Y-81407000D01*
X162687000Y-82756250D01*
X162845750Y-82915000D01*
X163120001Y-82915000D01*
X163120001Y-86267379D01*
X162853038Y-86156800D01*
X162266962Y-86156800D01*
X161725499Y-86381081D01*
X161311081Y-86795499D01*
X161086800Y-87336962D01*
X161086800Y-87923038D01*
X161311081Y-88464501D01*
X161725499Y-88878919D01*
X161776393Y-88900000D01*
X161725499Y-88921081D01*
X161311081Y-89335499D01*
X161086800Y-89876962D01*
X161086800Y-90463038D01*
X161311081Y-91004501D01*
X161725499Y-91418919D01*
X161776393Y-91440000D01*
X161725499Y-91461081D01*
X161311081Y-91875499D01*
X161086800Y-92416962D01*
X161086800Y-93003038D01*
X161311081Y-93544501D01*
X161725499Y-93958919D01*
X161776393Y-93980000D01*
X161725499Y-94001081D01*
X161311081Y-94415499D01*
X161086800Y-94956962D01*
X161086800Y-95543038D01*
X161311081Y-96084501D01*
X161725499Y-96498919D01*
X162266962Y-96723200D01*
X162853038Y-96723200D01*
X163120001Y-96612621D01*
X163120001Y-100890000D01*
X150728355Y-100890000D01*
X154886319Y-96732037D01*
X154886321Y-96732034D01*
X154895155Y-96723200D01*
X155233038Y-96723200D01*
X155774501Y-96498919D01*
X156188919Y-96084501D01*
X156413200Y-95543038D01*
X156413200Y-94956962D01*
X156188919Y-94415499D01*
X155774501Y-94001081D01*
X155723607Y-93980000D01*
X155774501Y-93958919D01*
X156188919Y-93544501D01*
X156413200Y-93003038D01*
X156413200Y-92416962D01*
X156188919Y-91875499D01*
X155774501Y-91461081D01*
X155723607Y-91440000D01*
X155774501Y-91418919D01*
X156188919Y-91004501D01*
X156413200Y-90463038D01*
X156413200Y-89876962D01*
X156188919Y-89335499D01*
X155937395Y-89083975D01*
X156025965Y-89066357D01*
X156236009Y-88926009D01*
X156376357Y-88715965D01*
X156425640Y-88468200D01*
X156425640Y-86791800D01*
X156376357Y-86544035D01*
X156236009Y-86333991D01*
X156025965Y-86193643D01*
X155778200Y-86144360D01*
X154101800Y-86144360D01*
X153854035Y-86193643D01*
X153643991Y-86333991D01*
X153503643Y-86544035D01*
X153488533Y-86620000D01*
X152818356Y-86620000D01*
X151195000Y-84996645D01*
X151195000Y-84824452D01*
X150991758Y-84333783D01*
X150616217Y-83958242D01*
X150125548Y-83755000D01*
X149594452Y-83755000D01*
X149103783Y-83958242D01*
X148982025Y-84080000D01*
X146927975Y-84080000D01*
X146806217Y-83958242D01*
X146315548Y-83755000D01*
X145784452Y-83755000D01*
X145293783Y-83958242D01*
X144918242Y-84333783D01*
X144715000Y-84824452D01*
X144715000Y-85355548D01*
X144918242Y-85846217D01*
X145293783Y-86221758D01*
X145784452Y-86425000D01*
X146315548Y-86425000D01*
X146806217Y-86221758D01*
X146927975Y-86100000D01*
X148982025Y-86100000D01*
X149103783Y-86221758D01*
X149594452Y-86425000D01*
X149766645Y-86425000D01*
X151615484Y-88273840D01*
X151671831Y-88358169D01*
X151756160Y-88414516D01*
X151756161Y-88414517D01*
X151830968Y-88464501D01*
X152005918Y-88581399D01*
X152300524Y-88640000D01*
X152300528Y-88640000D01*
X152399999Y-88659786D01*
X152499470Y-88640000D01*
X153488533Y-88640000D01*
X153503643Y-88715965D01*
X153643991Y-88926009D01*
X153854035Y-89066357D01*
X153942605Y-89083975D01*
X153866580Y-89160000D01*
X150751364Y-89160000D01*
X150380891Y-88912458D01*
X149991485Y-88835000D01*
X149728515Y-88835000D01*
X149339109Y-88912458D01*
X148897519Y-89207519D01*
X148602458Y-89649109D01*
X148515532Y-90086113D01*
X147946161Y-90655484D01*
X147861832Y-90711831D01*
X147805485Y-90796160D01*
X147805482Y-90796163D01*
X147666276Y-91004501D01*
X147638602Y-91045918D01*
X147621384Y-91132481D01*
X147560214Y-91440000D01*
X147580001Y-91539475D01*
X147580000Y-94372025D01*
X147458242Y-94493783D01*
X147255000Y-94984452D01*
X147255000Y-95515548D01*
X147458242Y-96006217D01*
X147833783Y-96381758D01*
X148324452Y-96585000D01*
X148855548Y-96585000D01*
X149346217Y-96381758D01*
X149721758Y-96006217D01*
X149925000Y-95515548D01*
X149925000Y-94984452D01*
X149721758Y-94493783D01*
X149600000Y-94372025D01*
X149600000Y-91858355D01*
X149953355Y-91505000D01*
X149991485Y-91505000D01*
X150380891Y-91427542D01*
X150751364Y-91180000D01*
X153866580Y-91180000D01*
X154105499Y-91418919D01*
X154156393Y-91440000D01*
X154105499Y-91461081D01*
X153691081Y-91875499D01*
X153466800Y-92416962D01*
X153466800Y-93003038D01*
X153691081Y-93544501D01*
X154105499Y-93958919D01*
X154156393Y-93980000D01*
X154105499Y-94001081D01*
X153691081Y-94415499D01*
X153466800Y-94956962D01*
X153466800Y-95294845D01*
X153457966Y-95303679D01*
X153457963Y-95303681D01*
X149436644Y-99325001D01*
X149339251Y-99325001D01*
X149201250Y-99187000D01*
X148177000Y-99187000D01*
X148177000Y-99207000D01*
X147923000Y-99207000D01*
X147923000Y-99187000D01*
X147903000Y-99187000D01*
X147903000Y-98933000D01*
X147923000Y-98933000D01*
X147923000Y-97908750D01*
X148177000Y-97908750D01*
X148177000Y-98933000D01*
X149201250Y-98933000D01*
X149360000Y-98774250D01*
X149360000Y-98258691D01*
X149263327Y-98025302D01*
X149084699Y-97846673D01*
X148851310Y-97750000D01*
X148335750Y-97750000D01*
X148177000Y-97908750D01*
X147923000Y-97908750D01*
X147764250Y-97750000D01*
X147248690Y-97750000D01*
X147060000Y-97828158D01*
X147060000Y-91061364D01*
X147307542Y-90690891D01*
X147411154Y-90170000D01*
X147307542Y-89649109D01*
X147012481Y-89207519D01*
X146570891Y-88912458D01*
X146181485Y-88835000D01*
X145918515Y-88835000D01*
X145529109Y-88912458D01*
X145087519Y-89207519D01*
X144792458Y-89649109D01*
X144688846Y-90170000D01*
X144792458Y-90690891D01*
X145040000Y-91061364D01*
X145040001Y-98183704D01*
X144994457Y-98115543D01*
X144561136Y-97826007D01*
X144179022Y-97750000D01*
X143920978Y-97750000D01*
X143538864Y-97826007D01*
X143105543Y-98115543D01*
X142816007Y-98548864D01*
X142714336Y-99060000D01*
X142767048Y-99325001D01*
X139765000Y-99325001D01*
X139765000Y-99153355D01*
X141613840Y-97304516D01*
X141698169Y-97248169D01*
X141761087Y-97154007D01*
X141921398Y-96914083D01*
X141921399Y-96914082D01*
X141980000Y-96619476D01*
X141980000Y-96619472D01*
X141999786Y-96520001D01*
X141980000Y-96420530D01*
X141980000Y-95583329D01*
X142217284Y-95583329D01*
X142360203Y-95928396D01*
X142707337Y-96316764D01*
X143176669Y-96542727D01*
X143383000Y-96420206D01*
X143383000Y-95377000D01*
X143637000Y-95377000D01*
X143637000Y-96420206D01*
X143843331Y-96542727D01*
X144312663Y-96316764D01*
X144659797Y-95928396D01*
X144802716Y-95583329D01*
X144679374Y-95377000D01*
X143637000Y-95377000D01*
X143383000Y-95377000D01*
X142340626Y-95377000D01*
X142217284Y-95583329D01*
X141980000Y-95583329D01*
X141980000Y-94916671D01*
X142217284Y-94916671D01*
X142340626Y-95123000D01*
X143383000Y-95123000D01*
X143383000Y-94079794D01*
X143637000Y-94079794D01*
X143637000Y-95123000D01*
X144679374Y-95123000D01*
X144802716Y-94916671D01*
X144659797Y-94571604D01*
X144312663Y-94183236D01*
X143843331Y-93957273D01*
X143637000Y-94079794D01*
X143383000Y-94079794D01*
X143176669Y-93957273D01*
X142707337Y-94183236D01*
X142360203Y-94571604D01*
X142217284Y-94916671D01*
X141980000Y-94916671D01*
X141980000Y-91061364D01*
X142227542Y-90690891D01*
X142331154Y-90170000D01*
X142227542Y-89649109D01*
X141932481Y-89207519D01*
X141490891Y-88912458D01*
X141101485Y-88835000D01*
X140838515Y-88835000D01*
X140449109Y-88912458D01*
X140007519Y-89207519D01*
X139712458Y-89649109D01*
X139608846Y-90170000D01*
X139712458Y-90690891D01*
X139960000Y-91061364D01*
X139960001Y-96101643D01*
X138430000Y-97631645D01*
X132864518Y-92066163D01*
X132808169Y-91981831D01*
X132474082Y-91758601D01*
X132179476Y-91700000D01*
X132179471Y-91700000D01*
X132080000Y-91680214D01*
X131980529Y-91700000D01*
X130590999Y-91700000D01*
X130574577Y-91675423D01*
X130099909Y-91358260D01*
X129681333Y-91275000D01*
X129398667Y-91275000D01*
X128980091Y-91358260D01*
X128505423Y-91675423D01*
X128188260Y-92150091D01*
X128076887Y-92710000D01*
X128188260Y-93269909D01*
X128505423Y-93744577D01*
X128980091Y-94061740D01*
X129398667Y-94145000D01*
X129681333Y-94145000D01*
X130099909Y-94061740D01*
X130574577Y-93744577D01*
X130590999Y-93720000D01*
X131661645Y-93720000D01*
X137095000Y-99153355D01*
X137095000Y-99325001D01*
X134601870Y-99325001D01*
X134519374Y-99187000D01*
X133477000Y-99187000D01*
X133477000Y-99207000D01*
X133223000Y-99207000D01*
X133223000Y-99187000D01*
X132180626Y-99187000D01*
X132098130Y-99325001D01*
X128472952Y-99325001D01*
X128525664Y-99060000D01*
X128459361Y-98726671D01*
X132057284Y-98726671D01*
X132180626Y-98933000D01*
X133223000Y-98933000D01*
X133223000Y-97889794D01*
X133477000Y-97889794D01*
X133477000Y-98933000D01*
X134519374Y-98933000D01*
X134642716Y-98726671D01*
X134499797Y-98381604D01*
X134152663Y-97993236D01*
X133683331Y-97767273D01*
X133477000Y-97889794D01*
X133223000Y-97889794D01*
X133016669Y-97767273D01*
X132547337Y-97993236D01*
X132200203Y-98381604D01*
X132057284Y-98726671D01*
X128459361Y-98726671D01*
X128423993Y-98548864D01*
X128200000Y-98213635D01*
X128200000Y-95924469D01*
X128219786Y-95824998D01*
X128200000Y-95725527D01*
X128200000Y-95725522D01*
X128141399Y-95430916D01*
X128091411Y-95356103D01*
X127974518Y-95181160D01*
X127974516Y-95181158D01*
X127918169Y-95096829D01*
X127833841Y-95040483D01*
X122697810Y-89904452D01*
X134555000Y-89904452D01*
X134555000Y-90435548D01*
X134758242Y-90926217D01*
X135133783Y-91301758D01*
X135624452Y-91505000D01*
X136155548Y-91505000D01*
X136646217Y-91301758D01*
X137021758Y-90926217D01*
X137225000Y-90435548D01*
X137225000Y-89904452D01*
X137021758Y-89413783D01*
X136646217Y-89038242D01*
X136155548Y-88835000D01*
X135624452Y-88835000D01*
X135133783Y-89038242D01*
X134758242Y-89413783D01*
X134555000Y-89904452D01*
X122697810Y-89904452D01*
X122319520Y-89526163D01*
X122263171Y-89441831D01*
X121929084Y-89218601D01*
X121634478Y-89160000D01*
X121634473Y-89160000D01*
X121535002Y-89140214D01*
X121435531Y-89160000D01*
X113921364Y-89160000D01*
X113550891Y-88912458D01*
X113161485Y-88835000D01*
X112898515Y-88835000D01*
X112509109Y-88912458D01*
X112067519Y-89207519D01*
X111772458Y-89649109D01*
X111668846Y-90170000D01*
X111772458Y-90690891D01*
X112067519Y-91132481D01*
X112509109Y-91427542D01*
X112898515Y-91505000D01*
X113161485Y-91505000D01*
X113550891Y-91427542D01*
X113921364Y-91180000D01*
X121116647Y-91180000D01*
X121370663Y-91434016D01*
X121227138Y-91493466D01*
X120823466Y-91897138D01*
X120605000Y-92424561D01*
X120605000Y-92995439D01*
X120823466Y-93522862D01*
X121227138Y-93926534D01*
X121754561Y-94145000D01*
X122046645Y-94145000D01*
X124180000Y-96278356D01*
X124180001Y-97828158D01*
X123991310Y-97750000D01*
X123475750Y-97750000D01*
X123317000Y-97908750D01*
X123317000Y-98933000D01*
X123337000Y-98933000D01*
X123337000Y-99187000D01*
X123317000Y-99187000D01*
X123317000Y-99207000D01*
X123063000Y-99207000D01*
X123063000Y-99187000D01*
X122038750Y-99187000D01*
X121900749Y-99325001D01*
X114502952Y-99325001D01*
X114555664Y-99060000D01*
X114453993Y-98548864D01*
X114260106Y-98258691D01*
X121880000Y-98258691D01*
X121880000Y-98774250D01*
X122038750Y-98933000D01*
X123063000Y-98933000D01*
X123063000Y-97908750D01*
X122904250Y-97750000D01*
X122388690Y-97750000D01*
X122155301Y-97846673D01*
X121976673Y-98025302D01*
X121880000Y-98258691D01*
X114260106Y-98258691D01*
X114164457Y-98115543D01*
X113731136Y-97826007D01*
X113349022Y-97750000D01*
X113090978Y-97750000D01*
X112708864Y-97826007D01*
X112275543Y-98115543D01*
X112220000Y-98198669D01*
X112164457Y-98115543D01*
X111731136Y-97826007D01*
X111349022Y-97750000D01*
X111090978Y-97750000D01*
X110708864Y-97826007D01*
X110424223Y-98016198D01*
X110254699Y-97846673D01*
X110021310Y-97750000D01*
X109505750Y-97750000D01*
X109347000Y-97908750D01*
X109347000Y-98933000D01*
X109367000Y-98933000D01*
X109367000Y-99187000D01*
X109347000Y-99187000D01*
X109347000Y-99207000D01*
X109093000Y-99207000D01*
X109093000Y-99187000D01*
X108068750Y-99187000D01*
X107930749Y-99325001D01*
X100382440Y-99325001D01*
X100382440Y-98385000D01*
X100357316Y-98258691D01*
X107910000Y-98258691D01*
X107910000Y-98774250D01*
X108068750Y-98933000D01*
X109093000Y-98933000D01*
X109093000Y-97908750D01*
X108934250Y-97750000D01*
X108418690Y-97750000D01*
X108185301Y-97846673D01*
X108006673Y-98025302D01*
X107910000Y-98258691D01*
X100357316Y-98258691D01*
X100333157Y-98137235D01*
X100192809Y-97927191D01*
X99982765Y-97786843D01*
X99735000Y-97737560D01*
X98856201Y-97737560D01*
X105488486Y-91105275D01*
X107194331Y-91105275D01*
X107256169Y-91341042D01*
X107757122Y-91517419D01*
X108287440Y-91488664D01*
X108643831Y-91341042D01*
X108705669Y-91105275D01*
X107950000Y-90349605D01*
X107194331Y-91105275D01*
X105488486Y-91105275D01*
X106603304Y-89990457D01*
X106631336Y-90507440D01*
X106778958Y-90863831D01*
X107014725Y-90925669D01*
X107770395Y-90170000D01*
X108129605Y-90170000D01*
X108885275Y-90925669D01*
X109121042Y-90863831D01*
X109297419Y-90362878D01*
X109268664Y-89832560D01*
X109121042Y-89476169D01*
X108885275Y-89414331D01*
X108129605Y-90170000D01*
X107770395Y-90170000D01*
X107756252Y-90155858D01*
X107935858Y-89976252D01*
X107950000Y-89990395D01*
X108705669Y-89234725D01*
X108643831Y-88998958D01*
X108142878Y-88822581D01*
X107749871Y-88843891D01*
X107928349Y-88665413D01*
X119794192Y-88665413D01*
X119873017Y-88915490D01*
X120424097Y-89114977D01*
X121009569Y-89088389D01*
X121426983Y-88915490D01*
X121505808Y-88665413D01*
X120650000Y-87809605D01*
X119794192Y-88665413D01*
X107928349Y-88665413D01*
X109189665Y-87404097D01*
X119165023Y-87404097D01*
X119191611Y-87989569D01*
X119364510Y-88406983D01*
X119614587Y-88485808D01*
X120470395Y-87630000D01*
X120829605Y-87630000D01*
X121685413Y-88485808D01*
X121919362Y-88412067D01*
X121941081Y-88464501D01*
X122355499Y-88878919D01*
X122896962Y-89103200D01*
X123483038Y-89103200D01*
X124024501Y-88878919D01*
X124438919Y-88464501D01*
X124460000Y-88413607D01*
X124481081Y-88464501D01*
X124895499Y-88878919D01*
X125436962Y-89103200D01*
X126023038Y-89103200D01*
X126564501Y-88878919D01*
X126978919Y-88464501D01*
X127000000Y-88413607D01*
X127021081Y-88464501D01*
X127435499Y-88878919D01*
X127976962Y-89103200D01*
X128563038Y-89103200D01*
X129104501Y-88878919D01*
X129518919Y-88464501D01*
X129743200Y-87923038D01*
X129743200Y-87336962D01*
X129518919Y-86795499D01*
X129104501Y-86381081D01*
X128611487Y-86176868D01*
X128688356Y-86100000D01*
X130710529Y-86100000D01*
X130810000Y-86119786D01*
X130909471Y-86100000D01*
X130909476Y-86100000D01*
X131204082Y-86041399D01*
X131538169Y-85818169D01*
X131594518Y-85733837D01*
X132238355Y-85090000D01*
X134528846Y-85090000D01*
X134632458Y-85610891D01*
X134927519Y-86052481D01*
X135369109Y-86347542D01*
X135758515Y-86425000D01*
X136021485Y-86425000D01*
X136410891Y-86347542D01*
X136852481Y-86052481D01*
X137147542Y-85610891D01*
X137251154Y-85090000D01*
X137147542Y-84569109D01*
X136852481Y-84127519D01*
X136410891Y-83832458D01*
X136021485Y-83755000D01*
X135758515Y-83755000D01*
X135369109Y-83832458D01*
X134927519Y-84127519D01*
X134632458Y-84569109D01*
X134528846Y-85090000D01*
X132238355Y-85090000D01*
X133983345Y-83345011D01*
X141085518Y-83345011D01*
X141184989Y-83364797D01*
X141284460Y-83345011D01*
X141284465Y-83345011D01*
X141287172Y-83344472D01*
X140876645Y-83755000D01*
X140704452Y-83755000D01*
X140213783Y-83958242D01*
X139838242Y-84333783D01*
X139635000Y-84824452D01*
X139635000Y-85355548D01*
X139838242Y-85846217D01*
X140213783Y-86221758D01*
X140704452Y-86425000D01*
X141235548Y-86425000D01*
X141726217Y-86221758D01*
X142101758Y-85846217D01*
X142305000Y-85355548D01*
X142305000Y-85183355D01*
X145198356Y-82290000D01*
X147298463Y-82290000D01*
X147411231Y-82458769D01*
X147952055Y-82820136D01*
X148428969Y-82915000D01*
X148751031Y-82915000D01*
X149227945Y-82820136D01*
X149768769Y-82458769D01*
X150130136Y-81917945D01*
X150257031Y-81280000D01*
X150130136Y-80642055D01*
X149888219Y-80280000D01*
X152022560Y-80280000D01*
X152022560Y-82280000D01*
X152071843Y-82527765D01*
X152212191Y-82737809D01*
X152422235Y-82878157D01*
X152670000Y-82927440D01*
X154670000Y-82927440D01*
X154917765Y-82878157D01*
X155127809Y-82737809D01*
X155268157Y-82527765D01*
X155315451Y-82290000D01*
X156188463Y-82290000D01*
X156301231Y-82458769D01*
X156842055Y-82820136D01*
X157318969Y-82915000D01*
X157641031Y-82915000D01*
X158117945Y-82820136D01*
X158658769Y-82458769D01*
X159020136Y-81917945D01*
X159090191Y-81565750D01*
X160925000Y-81565750D01*
X160925000Y-82406310D01*
X161021673Y-82639699D01*
X161200302Y-82818327D01*
X161433691Y-82915000D01*
X162274250Y-82915000D01*
X162433000Y-82756250D01*
X162433000Y-81407000D01*
X161083750Y-81407000D01*
X160925000Y-81565750D01*
X159090191Y-81565750D01*
X159147031Y-81280000D01*
X159020136Y-80642055D01*
X158693821Y-80153690D01*
X160925000Y-80153690D01*
X160925000Y-80994250D01*
X161083750Y-81153000D01*
X162433000Y-81153000D01*
X162433000Y-79803750D01*
X162274250Y-79645000D01*
X161433691Y-79645000D01*
X161200302Y-79741673D01*
X161021673Y-79920301D01*
X160925000Y-80153690D01*
X158693821Y-80153690D01*
X158658769Y-80101231D01*
X158117945Y-79739864D01*
X157641031Y-79645000D01*
X157318969Y-79645000D01*
X156842055Y-79739864D01*
X156301231Y-80101231D01*
X156188463Y-80270000D01*
X155315451Y-80270000D01*
X155268157Y-80032235D01*
X155127809Y-79822191D01*
X154917765Y-79681843D01*
X154670000Y-79632560D01*
X152670000Y-79632560D01*
X152422235Y-79681843D01*
X152212191Y-79822191D01*
X152071843Y-80032235D01*
X152022560Y-80280000D01*
X149888219Y-80280000D01*
X149768769Y-80101231D01*
X149227945Y-79739864D01*
X148751031Y-79645000D01*
X148428969Y-79645000D01*
X147952055Y-79739864D01*
X147411231Y-80101231D01*
X147298463Y-80270000D01*
X144921396Y-80270000D01*
X144973113Y-80010000D01*
X144967346Y-79981009D01*
X145518345Y-79430010D01*
X156430519Y-79430010D01*
X156529990Y-79449796D01*
X156629461Y-79430010D01*
X156629466Y-79430010D01*
X156924072Y-79371409D01*
X157258159Y-79148179D01*
X157314508Y-79063847D01*
X160113355Y-76265000D01*
X160285548Y-76265000D01*
X160776217Y-76061758D01*
X161151758Y-75686217D01*
X161355000Y-75195548D01*
X161355000Y-74664452D01*
X161151758Y-74173783D01*
X161030000Y-74052025D01*
X161030000Y-69457975D01*
X161151758Y-69336217D01*
X161355000Y-68845548D01*
X161355000Y-68314452D01*
X161151758Y-67823783D01*
X160776217Y-67448242D01*
X160285548Y-67245000D01*
X159754452Y-67245000D01*
X159263783Y-67448242D01*
X158888242Y-67823783D01*
X158685000Y-68314452D01*
X158685000Y-68845548D01*
X158888242Y-69336217D01*
X159010001Y-69457976D01*
X159010000Y-74052025D01*
X158888242Y-74173783D01*
X158685000Y-74664452D01*
X158685000Y-74836645D01*
X156111635Y-77410010D01*
X150078345Y-77410010D01*
X151223356Y-76265000D01*
X151395548Y-76265000D01*
X151886217Y-76061758D01*
X152261758Y-75686217D01*
X152465000Y-75195548D01*
X152465000Y-74664452D01*
X152261758Y-74173783D01*
X152140000Y-74052025D01*
X152140000Y-73958355D01*
X153663356Y-72435000D01*
X153676645Y-72435000D01*
X153930001Y-72688356D01*
X153930000Y-74038636D01*
X153682458Y-74409109D01*
X153578846Y-74930000D01*
X153682458Y-75450891D01*
X153977519Y-75892481D01*
X154419109Y-76187542D01*
X154808515Y-76265000D01*
X155071485Y-76265000D01*
X155460891Y-76187542D01*
X155902481Y-75892481D01*
X156197542Y-75450891D01*
X156301154Y-74930000D01*
X156197542Y-74409109D01*
X155950000Y-74038636D01*
X155950000Y-72369470D01*
X155969786Y-72269999D01*
X155950000Y-72170528D01*
X155950000Y-72170524D01*
X155891399Y-71875918D01*
X155668169Y-71541831D01*
X155583837Y-71485482D01*
X155127346Y-71028991D01*
X155133113Y-71000000D01*
X155021740Y-70440091D01*
X154704577Y-69965423D01*
X154229909Y-69648260D01*
X153811333Y-69565000D01*
X153528667Y-69565000D01*
X153110091Y-69648260D01*
X152635423Y-69965423D01*
X152318260Y-70440091D01*
X152206887Y-71000000D01*
X152212654Y-71028991D01*
X150486161Y-72755484D01*
X150401832Y-72811831D01*
X150345485Y-72896160D01*
X150345482Y-72896163D01*
X150178602Y-73145918D01*
X150100214Y-73540000D01*
X150120001Y-73639475D01*
X150120001Y-74052024D01*
X149998242Y-74173783D01*
X149795000Y-74664452D01*
X149795000Y-74836644D01*
X148171645Y-76460000D01*
X142339472Y-76460000D01*
X142240000Y-76440214D01*
X142140528Y-76460000D01*
X142140524Y-76460000D01*
X142137817Y-76460538D01*
X142333356Y-76265000D01*
X142505548Y-76265000D01*
X142996217Y-76061758D01*
X143117975Y-75940000D01*
X145158636Y-75940000D01*
X145529109Y-76187542D01*
X145918515Y-76265000D01*
X146181485Y-76265000D01*
X146570891Y-76187542D01*
X147012481Y-75892481D01*
X147307542Y-75450891D01*
X147394468Y-75013887D01*
X147963838Y-74444517D01*
X148048169Y-74388169D01*
X148271399Y-74054082D01*
X148330000Y-73759476D01*
X148330000Y-73759472D01*
X148349786Y-73660001D01*
X148330000Y-73560530D01*
X148330000Y-69471364D01*
X148577542Y-69100891D01*
X148681154Y-68580000D01*
X148577542Y-68059109D01*
X148282481Y-67617519D01*
X147840891Y-67322458D01*
X147451485Y-67245000D01*
X147188515Y-67245000D01*
X146799109Y-67322458D01*
X146428636Y-67570000D01*
X141847975Y-67570000D01*
X141726217Y-67448242D01*
X141235548Y-67245000D01*
X140704452Y-67245000D01*
X140213783Y-67448242D01*
X139838242Y-67823783D01*
X139635000Y-68314452D01*
X139635000Y-68845548D01*
X139838242Y-69336217D01*
X140213783Y-69711758D01*
X140704452Y-69915000D01*
X141235548Y-69915000D01*
X141726217Y-69711758D01*
X141847975Y-69590000D01*
X146310000Y-69590000D01*
X146310001Y-73241644D01*
X145956645Y-73595000D01*
X145918515Y-73595000D01*
X145529109Y-73672458D01*
X145158636Y-73920000D01*
X143117975Y-73920000D01*
X142996217Y-73798242D01*
X142505548Y-73595000D01*
X141974452Y-73595000D01*
X141483783Y-73798242D01*
X141108242Y-74173783D01*
X140905000Y-74664452D01*
X140905000Y-74836644D01*
X139281645Y-76460000D01*
X132497670Y-76460000D01*
X132398199Y-76440214D01*
X132298728Y-76460000D01*
X132298724Y-76460000D01*
X132004118Y-76518601D01*
X132004116Y-76518602D01*
X132004117Y-76518602D01*
X131754361Y-76685483D01*
X131754360Y-76685484D01*
X131670031Y-76741831D01*
X131613684Y-76826160D01*
X129630034Y-78809811D01*
X129566009Y-78713991D01*
X129355965Y-78573643D01*
X129108200Y-78524360D01*
X128643995Y-78524360D01*
X131215190Y-75953165D01*
X131323783Y-76061758D01*
X131814452Y-76265000D01*
X132345548Y-76265000D01*
X132836217Y-76061758D01*
X133211758Y-75686217D01*
X133415000Y-75195548D01*
X133415000Y-74664452D01*
X133211758Y-74173783D01*
X133090000Y-74052025D01*
X133090000Y-73958355D01*
X134613356Y-72435000D01*
X134626645Y-72435000D01*
X136150001Y-73958357D01*
X136150001Y-74038635D01*
X135902458Y-74409109D01*
X135798846Y-74930000D01*
X135902458Y-75450891D01*
X136197519Y-75892481D01*
X136639109Y-76187542D01*
X137028515Y-76265000D01*
X137291485Y-76265000D01*
X137680891Y-76187542D01*
X138122481Y-75892481D01*
X138417542Y-75450891D01*
X138521154Y-74930000D01*
X138417542Y-74409109D01*
X138170000Y-74038636D01*
X138170000Y-73639470D01*
X138189786Y-73539999D01*
X138170000Y-73440528D01*
X138170000Y-73440524D01*
X138111399Y-73145918D01*
X137888169Y-72811831D01*
X137803840Y-72755484D01*
X136077346Y-71028991D01*
X136083113Y-71000000D01*
X135971740Y-70440091D01*
X135654577Y-69965423D01*
X135179909Y-69648260D01*
X134761333Y-69565000D01*
X134478667Y-69565000D01*
X134060091Y-69648260D01*
X133585423Y-69965423D01*
X133268260Y-70440091D01*
X133156887Y-71000000D01*
X133162654Y-71028991D01*
X131436161Y-72755484D01*
X131351832Y-72811831D01*
X131295485Y-72896160D01*
X131295482Y-72896163D01*
X131128602Y-73145918D01*
X131050214Y-73540000D01*
X131070001Y-73639475D01*
X131070001Y-73920000D01*
X130909471Y-73920000D01*
X130810000Y-73900214D01*
X130710529Y-73920000D01*
X130710524Y-73920000D01*
X130415918Y-73978601D01*
X130415916Y-73978602D01*
X130415917Y-73978602D01*
X130166162Y-74145482D01*
X130166160Y-74145484D01*
X130081831Y-74201831D01*
X130025484Y-74286160D01*
X125774845Y-78536800D01*
X125436962Y-78536800D01*
X124895499Y-78761081D01*
X124481081Y-79175499D01*
X124459362Y-79227933D01*
X124225413Y-79154192D01*
X123369605Y-80010000D01*
X124225413Y-80865808D01*
X124459362Y-80792067D01*
X124481081Y-80844501D01*
X124895499Y-81258919D01*
X125436962Y-81483200D01*
X126023038Y-81483200D01*
X126564501Y-81258919D01*
X126816025Y-81007395D01*
X126833643Y-81095965D01*
X126973991Y-81306009D01*
X127184035Y-81446357D01*
X127431800Y-81495640D01*
X129108200Y-81495640D01*
X129355965Y-81446357D01*
X129566009Y-81306009D01*
X129706357Y-81095965D01*
X129721467Y-81020000D01*
X129758729Y-81020000D01*
X129858200Y-81039786D01*
X129957671Y-81020000D01*
X129957676Y-81020000D01*
X130252282Y-80961399D01*
X130586369Y-80738169D01*
X130642718Y-80653837D01*
X132816556Y-78480000D01*
X139600529Y-78480000D01*
X139700000Y-78499786D01*
X139799471Y-78480000D01*
X139799476Y-78480000D01*
X139802183Y-78479462D01*
X137906644Y-80375001D01*
X137412044Y-80375001D01*
X137445000Y-80295439D01*
X137445000Y-79724561D01*
X137226534Y-79197138D01*
X136822862Y-78793466D01*
X136295439Y-78575000D01*
X135724561Y-78575000D01*
X135197138Y-78793466D01*
X134793466Y-79197138D01*
X134575000Y-79724561D01*
X134575000Y-80295439D01*
X134607956Y-80375001D01*
X133270955Y-80375001D01*
X133171483Y-80355215D01*
X133072011Y-80375001D01*
X133072007Y-80375001D01*
X132838598Y-80421429D01*
X132777400Y-80433602D01*
X132527645Y-80600483D01*
X132527643Y-80600485D01*
X132443314Y-80656832D01*
X132386967Y-80741161D01*
X130318129Y-82810000D01*
X127099471Y-82810000D01*
X127000000Y-82790214D01*
X126900529Y-82810000D01*
X126900524Y-82810000D01*
X126605918Y-82868601D01*
X126536477Y-82915000D01*
X126356162Y-83035482D01*
X126356160Y-83035484D01*
X126271831Y-83091831D01*
X126215484Y-83176160D01*
X123234845Y-86156800D01*
X122896962Y-86156800D01*
X122355499Y-86381081D01*
X121941081Y-86795499D01*
X121919362Y-86847933D01*
X121685413Y-86774192D01*
X120829605Y-87630000D01*
X120470395Y-87630000D01*
X119614587Y-86774192D01*
X119364510Y-86853017D01*
X119165023Y-87404097D01*
X109189665Y-87404097D01*
X109999175Y-86594587D01*
X119794192Y-86594587D01*
X120650000Y-87450395D01*
X121505808Y-86594587D01*
X121426983Y-86344510D01*
X120875903Y-86145023D01*
X120290431Y-86171611D01*
X119873017Y-86344510D01*
X119794192Y-86594587D01*
X109999175Y-86594587D01*
X115573762Y-81020000D01*
X119576580Y-81020000D01*
X119815499Y-81258919D01*
X120356962Y-81483200D01*
X120943038Y-81483200D01*
X121484501Y-81258919D01*
X121698007Y-81045413D01*
X122334192Y-81045413D01*
X122413017Y-81295490D01*
X122964097Y-81494977D01*
X123549569Y-81468389D01*
X123966983Y-81295490D01*
X124045808Y-81045413D01*
X123190000Y-80189605D01*
X122334192Y-81045413D01*
X121698007Y-81045413D01*
X121898919Y-80844501D01*
X121920638Y-80792067D01*
X122154587Y-80865808D01*
X123010395Y-80010000D01*
X122154587Y-79154192D01*
X121920638Y-79227933D01*
X121898919Y-79175499D01*
X121698007Y-78974587D01*
X122334192Y-78974587D01*
X123190000Y-79830395D01*
X124045808Y-78974587D01*
X123966983Y-78724510D01*
X123415903Y-78525023D01*
X122830431Y-78551611D01*
X122413017Y-78724510D01*
X122334192Y-78974587D01*
X121698007Y-78974587D01*
X121484501Y-78761081D01*
X120943038Y-78536800D01*
X120356962Y-78536800D01*
X119815499Y-78761081D01*
X119576580Y-79000000D01*
X115254878Y-79000000D01*
X115155406Y-78980214D01*
X115055934Y-79000000D01*
X115055930Y-79000000D01*
X114822521Y-79046428D01*
X114761323Y-79058601D01*
X114511568Y-79225482D01*
X114511566Y-79225484D01*
X114427237Y-79281831D01*
X114370890Y-79366160D01*
X105479631Y-88257420D01*
X105624977Y-87855903D01*
X105598389Y-87270431D01*
X105425490Y-86853017D01*
X105175413Y-86774192D01*
X104319605Y-87630000D01*
X104333748Y-87644143D01*
X104154143Y-87823748D01*
X104140000Y-87809605D01*
X103284192Y-88665413D01*
X103363017Y-88915490D01*
X103914097Y-89114977D01*
X104499569Y-89088389D01*
X104754086Y-88982964D01*
X98070000Y-95667051D01*
X98070000Y-88269470D01*
X98089786Y-88169999D01*
X98070000Y-88070528D01*
X98070000Y-88070524D01*
X98011399Y-87775918D01*
X97993200Y-87748681D01*
X97993200Y-87404097D01*
X102655023Y-87404097D01*
X102681611Y-87989569D01*
X102854510Y-88406983D01*
X103104587Y-88485808D01*
X103960395Y-87630000D01*
X103104587Y-86774192D01*
X102854510Y-86853017D01*
X102655023Y-87404097D01*
X97993200Y-87404097D01*
X97993200Y-87336962D01*
X97768919Y-86795499D01*
X97354501Y-86381081D01*
X97302067Y-86359362D01*
X97375808Y-86125413D01*
X96520000Y-85269605D01*
X95664192Y-86125413D01*
X95737933Y-86359362D01*
X95685499Y-86381081D01*
X95271081Y-86795499D01*
X95046800Y-87336962D01*
X95046800Y-87923038D01*
X95271081Y-88464501D01*
X95685499Y-88878919D01*
X96050001Y-89029900D01*
X96050000Y-98005935D01*
X96030214Y-98105406D01*
X96050000Y-98204877D01*
X96050000Y-98213635D01*
X96046844Y-98218358D01*
X95723633Y-97930522D01*
X95389400Y-97792090D01*
X95187000Y-97915776D01*
X95187000Y-98933000D01*
X95207000Y-98933000D01*
X95207000Y-99187000D01*
X95187000Y-99187000D01*
X95187000Y-100204224D01*
X95389400Y-100327910D01*
X95723633Y-100189478D01*
X96046844Y-99901642D01*
X96050001Y-99906366D01*
X96050001Y-99915119D01*
X96030214Y-100014594D01*
X96108602Y-100408676D01*
X96275482Y-100658431D01*
X96275485Y-100658434D01*
X96331832Y-100742763D01*
X96416161Y-100799110D01*
X96507051Y-100890000D01*
X84530000Y-100890000D01*
X84530000Y-99389402D01*
X93792080Y-99389402D01*
X94014651Y-99849540D01*
X94396367Y-100189478D01*
X94730600Y-100327910D01*
X94933000Y-100204224D01*
X94933000Y-99187000D01*
X93914910Y-99187000D01*
X93792080Y-99389402D01*
X84530000Y-99389402D01*
X84530000Y-98730598D01*
X93792080Y-98730598D01*
X93914910Y-98933000D01*
X94933000Y-98933000D01*
X94933000Y-97915776D01*
X94730600Y-97792090D01*
X94396367Y-97930522D01*
X94014651Y-98270460D01*
X93792080Y-98730598D01*
X84530000Y-98730598D01*
X84530000Y-86689400D01*
X85092090Y-86689400D01*
X85230522Y-87023633D01*
X85570460Y-87405349D01*
X86030598Y-87627920D01*
X86233000Y-87505090D01*
X86233000Y-86487000D01*
X86487000Y-86487000D01*
X86487000Y-87505090D01*
X86689402Y-87627920D01*
X87149540Y-87405349D01*
X87489478Y-87023633D01*
X87627910Y-86689400D01*
X87504224Y-86487000D01*
X86487000Y-86487000D01*
X86233000Y-86487000D01*
X85215776Y-86487000D01*
X85092090Y-86689400D01*
X84530000Y-86689400D01*
X84530000Y-81558690D01*
X85050000Y-81558690D01*
X85050000Y-82074250D01*
X85208750Y-82233000D01*
X86233000Y-82233000D01*
X86233000Y-81208750D01*
X86487000Y-81208750D01*
X86487000Y-82233000D01*
X87511250Y-82233000D01*
X87670000Y-82074250D01*
X87670000Y-81558690D01*
X87573327Y-81325301D01*
X87394698Y-81146673D01*
X87161309Y-81050000D01*
X86645750Y-81050000D01*
X86487000Y-81208750D01*
X86233000Y-81208750D01*
X86074250Y-81050000D01*
X85558691Y-81050000D01*
X85325302Y-81146673D01*
X85146673Y-81325301D01*
X85050000Y-81558690D01*
X84530000Y-81558690D01*
X84530000Y-74930000D01*
X84998846Y-74930000D01*
X85102458Y-75450891D01*
X85397519Y-75892481D01*
X85839109Y-76187542D01*
X86228515Y-76265000D01*
X86266645Y-76265000D01*
X87890001Y-77888357D01*
X87890000Y-83350000D01*
X87591842Y-83350000D01*
X87670000Y-83161310D01*
X87670000Y-82645750D01*
X87511250Y-82487000D01*
X86487000Y-82487000D01*
X86487000Y-82507000D01*
X86233000Y-82507000D01*
X86233000Y-82487000D01*
X85208750Y-82487000D01*
X85050000Y-82645750D01*
X85050000Y-83161310D01*
X85146673Y-83394699D01*
X85316198Y-83564223D01*
X85126007Y-83848864D01*
X85024336Y-84360000D01*
X85126007Y-84871136D01*
X85415543Y-85304457D01*
X85518358Y-85373156D01*
X85230522Y-85696367D01*
X85092090Y-86030600D01*
X85215776Y-86233000D01*
X86233000Y-86233000D01*
X86233000Y-86213000D01*
X86487000Y-86213000D01*
X86487000Y-86233000D01*
X87504224Y-86233000D01*
X87627910Y-86030600D01*
X87489478Y-85696367D01*
X87201642Y-85373156D01*
X87206365Y-85370000D01*
X88260529Y-85370000D01*
X88360000Y-85389786D01*
X88459471Y-85370000D01*
X88459476Y-85370000D01*
X88754082Y-85311399D01*
X89088169Y-85088169D01*
X89144518Y-85003837D01*
X89284257Y-84864097D01*
X95035023Y-84864097D01*
X95061611Y-85449569D01*
X95234510Y-85866983D01*
X95484587Y-85945808D01*
X96340395Y-85090000D01*
X96699605Y-85090000D01*
X97555413Y-85945808D01*
X97805490Y-85866983D01*
X98004977Y-85315903D01*
X97978389Y-84730431D01*
X97805490Y-84313017D01*
X97555413Y-84234192D01*
X96699605Y-85090000D01*
X96340395Y-85090000D01*
X95484587Y-84234192D01*
X95234510Y-84313017D01*
X95035023Y-84864097D01*
X89284257Y-84864097D01*
X89543835Y-84604519D01*
X89628169Y-84548169D01*
X89851399Y-84214082D01*
X89910000Y-83919476D01*
X89910000Y-83919472D01*
X89929786Y-83820001D01*
X89910000Y-83720530D01*
X89910000Y-77569470D01*
X89929786Y-77469999D01*
X89910000Y-77370528D01*
X89910000Y-77370524D01*
X89851399Y-77075918D01*
X89767087Y-76949736D01*
X89684517Y-76826161D01*
X89684516Y-76826160D01*
X89628169Y-76741831D01*
X89543840Y-76685484D01*
X87704468Y-74846112D01*
X87668334Y-74664452D01*
X90105000Y-74664452D01*
X90105000Y-75195548D01*
X90308242Y-75686217D01*
X90683783Y-76061758D01*
X91174452Y-76265000D01*
X91705548Y-76265000D01*
X92196217Y-76061758D01*
X92571758Y-75686217D01*
X92775000Y-75195548D01*
X92775000Y-74664452D01*
X92571758Y-74173783D01*
X92463165Y-74065190D01*
X93973356Y-72555000D01*
X93986645Y-72555000D01*
X95494091Y-74062446D01*
X95262458Y-74409109D01*
X95175532Y-74846112D01*
X93336161Y-76685484D01*
X93251832Y-76741831D01*
X93195485Y-76826160D01*
X93195482Y-76826163D01*
X93028602Y-77075918D01*
X92950214Y-77470000D01*
X92970001Y-77569475D01*
X92970000Y-81180529D01*
X92950214Y-81280000D01*
X92970000Y-81379471D01*
X92970000Y-81379475D01*
X93028601Y-81674081D01*
X93251831Y-82008169D01*
X93336163Y-82064518D01*
X94465482Y-83193837D01*
X94521831Y-83278169D01*
X94855918Y-83501399D01*
X95150524Y-83560000D01*
X95150528Y-83560000D01*
X95249999Y-83579786D01*
X95349470Y-83560000D01*
X95446580Y-83560000D01*
X95685499Y-83798919D01*
X95737933Y-83820638D01*
X95664192Y-84054587D01*
X96520000Y-84910395D01*
X97375808Y-84054587D01*
X97302067Y-83820638D01*
X97354501Y-83798919D01*
X97768919Y-83384501D01*
X97993200Y-82843038D01*
X97993200Y-82256962D01*
X97768919Y-81715499D01*
X97517395Y-81463975D01*
X97605965Y-81446357D01*
X97816009Y-81306009D01*
X97956357Y-81095965D01*
X97971467Y-81020000D01*
X98008729Y-81020000D01*
X98108200Y-81039786D01*
X98207671Y-81020000D01*
X98207676Y-81020000D01*
X98502282Y-80961399D01*
X98836369Y-80738169D01*
X98892718Y-80653837D01*
X99829593Y-79716962D01*
X102666800Y-79716962D01*
X102666800Y-80303038D01*
X102891081Y-80844501D01*
X103305499Y-81258919D01*
X103356393Y-81280000D01*
X103305499Y-81301081D01*
X102891081Y-81715499D01*
X102666800Y-82256962D01*
X102666800Y-82843038D01*
X102891081Y-83384501D01*
X103305499Y-83798919D01*
X103356393Y-83820000D01*
X103305499Y-83841081D01*
X102891081Y-84255499D01*
X102666800Y-84796962D01*
X102666800Y-85383038D01*
X102891081Y-85924501D01*
X103305499Y-86338919D01*
X103357933Y-86360638D01*
X103284192Y-86594587D01*
X104140000Y-87450395D01*
X104995808Y-86594587D01*
X104922067Y-86360638D01*
X104974501Y-86338919D01*
X105388919Y-85924501D01*
X105613200Y-85383038D01*
X105613200Y-84796962D01*
X105388919Y-84255499D01*
X104974501Y-83841081D01*
X104923607Y-83820000D01*
X104974501Y-83798919D01*
X105213420Y-83560000D01*
X105310529Y-83560000D01*
X105410000Y-83579786D01*
X105509471Y-83560000D01*
X105509476Y-83560000D01*
X105804082Y-83501399D01*
X106138169Y-83278169D01*
X106194518Y-83193837D01*
X110908356Y-78480000D01*
X120550529Y-78480000D01*
X120650000Y-78499786D01*
X120749471Y-78480000D01*
X120749476Y-78480000D01*
X121044082Y-78421399D01*
X121378169Y-78198169D01*
X121434518Y-78113837D01*
X123283356Y-76265000D01*
X123455548Y-76265000D01*
X123946217Y-76061758D01*
X124067975Y-75940000D01*
X126108636Y-75940000D01*
X126479109Y-76187542D01*
X126868515Y-76265000D01*
X127131485Y-76265000D01*
X127520891Y-76187542D01*
X127962481Y-75892481D01*
X128257542Y-75450891D01*
X128361154Y-74930000D01*
X128257542Y-74409109D01*
X128010000Y-74038636D01*
X128010000Y-70268355D01*
X128363355Y-69915000D01*
X128401485Y-69915000D01*
X128790891Y-69837542D01*
X129232481Y-69542481D01*
X129527542Y-69100891D01*
X129631154Y-68580000D01*
X129527542Y-68059109D01*
X129232481Y-67617519D01*
X128790891Y-67322458D01*
X128401485Y-67245000D01*
X128363356Y-67245000D01*
X124352808Y-63234452D01*
X126935000Y-63234452D01*
X126935000Y-63765548D01*
X127138242Y-64256217D01*
X127513783Y-64631758D01*
X128004452Y-64835000D01*
X128535548Y-64835000D01*
X129026217Y-64631758D01*
X129401758Y-64256217D01*
X129605000Y-63765548D01*
X129605000Y-63234452D01*
X129401758Y-62743783D01*
X129280000Y-62622025D01*
X129280000Y-61378355D01*
X130803356Y-59855000D01*
X130951333Y-59855000D01*
X131369909Y-59771740D01*
X131844577Y-59454577D01*
X132161740Y-58979909D01*
X132273113Y-58420000D01*
X132267346Y-58391009D01*
X132723837Y-57934518D01*
X132808169Y-57878169D01*
X133031399Y-57544082D01*
X133090000Y-57249476D01*
X133090000Y-57249472D01*
X133109786Y-57150001D01*
X133090000Y-57050530D01*
X133090000Y-52102239D01*
X133350000Y-51842239D01*
X133610000Y-52102239D01*
X133610001Y-62480603D01*
X133403466Y-62687138D01*
X133185000Y-63214561D01*
X133185000Y-63785439D01*
X133403466Y-64312862D01*
X133807138Y-64716534D01*
X134334561Y-64935000D01*
X134905439Y-64935000D01*
X135432862Y-64716534D01*
X135836534Y-64312862D01*
X136055000Y-63785439D01*
X136055000Y-63214561D01*
X135836534Y-62687138D01*
X135630000Y-62480604D01*
X135630000Y-52102239D01*
X135890000Y-51842239D01*
X136150000Y-52102239D01*
X136150001Y-57170524D01*
X136130214Y-57270000D01*
X136150001Y-57369476D01*
X136177995Y-57510213D01*
X136208602Y-57664082D01*
X136375482Y-57913837D01*
X136375485Y-57913840D01*
X136431832Y-57998169D01*
X136516160Y-58054515D01*
X136875000Y-58413355D01*
X136875000Y-58705439D01*
X137093466Y-59232862D01*
X137300000Y-59439396D01*
X137300001Y-60740525D01*
X137280214Y-60840000D01*
X137300001Y-60939476D01*
X137323871Y-61059476D01*
X137358602Y-61234082D01*
X137525482Y-61483837D01*
X137525485Y-61483840D01*
X137581832Y-61568169D01*
X137666161Y-61624516D01*
X139625532Y-63583887D01*
X139712458Y-64020891D01*
X140007519Y-64462481D01*
X140449109Y-64757542D01*
X140838515Y-64835000D01*
X141101485Y-64835000D01*
X141490891Y-64757542D01*
X141932481Y-64462481D01*
X142227542Y-64020891D01*
X142331154Y-63500000D01*
X142278334Y-63234452D01*
X145985000Y-63234452D01*
X145985000Y-63765548D01*
X146188242Y-64256217D01*
X146563783Y-64631758D01*
X147054452Y-64835000D01*
X147585548Y-64835000D01*
X148076217Y-64631758D01*
X148451758Y-64256217D01*
X148655000Y-63765548D01*
X148655000Y-63593355D01*
X150623837Y-61624518D01*
X150708169Y-61568169D01*
X150931399Y-61234082D01*
X150990000Y-60939476D01*
X150990000Y-60939472D01*
X151009786Y-60840001D01*
X150990000Y-60740530D01*
X150990000Y-59470999D01*
X151014577Y-59454577D01*
X151331740Y-58979909D01*
X151443113Y-58420000D01*
X151437346Y-58391009D01*
X151773840Y-58054516D01*
X151858169Y-57998169D01*
X151914516Y-57913840D01*
X151914518Y-57913838D01*
X152081399Y-57664083D01*
X152105268Y-57544083D01*
X152140000Y-57369476D01*
X152140000Y-57369472D01*
X152159786Y-57270000D01*
X152140000Y-57170528D01*
X152140000Y-52102239D01*
X152400000Y-51842239D01*
X152660000Y-52102239D01*
X152660001Y-62480603D01*
X152453466Y-62687138D01*
X152235000Y-63214561D01*
X152235000Y-63785439D01*
X152453466Y-64312862D01*
X152857138Y-64716534D01*
X153384561Y-64935000D01*
X153955439Y-64935000D01*
X154482862Y-64716534D01*
X154886534Y-64312862D01*
X155105000Y-63785439D01*
X155105000Y-63214561D01*
X154886534Y-62687138D01*
X154680000Y-62480604D01*
X154680000Y-52102239D01*
X154940000Y-51842239D01*
X155200000Y-52102239D01*
X155200001Y-57050524D01*
X155180214Y-57150000D01*
X155200001Y-57249476D01*
X155207712Y-57288242D01*
X155258602Y-57544082D01*
X155425482Y-57793837D01*
X155425485Y-57793840D01*
X155481832Y-57878169D01*
X155566161Y-57934516D01*
X156045000Y-58413355D01*
X156045000Y-58705439D01*
X156263466Y-59232862D01*
X156470000Y-59439396D01*
X156470001Y-60860524D01*
X156450214Y-60960000D01*
X156528602Y-61354082D01*
X156695482Y-61603837D01*
X156695485Y-61603840D01*
X156751832Y-61688169D01*
X156836161Y-61744516D01*
X158675532Y-63583888D01*
X158762458Y-64020891D01*
X159057519Y-64462481D01*
X159499109Y-64757542D01*
X159888515Y-64835000D01*
X160151485Y-64835000D01*
X160540891Y-64757542D01*
X160982481Y-64462481D01*
X161277542Y-64020891D01*
X161381154Y-63500000D01*
X161277542Y-62979109D01*
X160982481Y-62537519D01*
X160540891Y-62242458D01*
X160151485Y-62165000D01*
X160113356Y-62165000D01*
X158490000Y-60541645D01*
X158490000Y-59439396D01*
X158696534Y-59232862D01*
X158915000Y-58705439D01*
X158915000Y-58134561D01*
X158696534Y-57607138D01*
X158292862Y-57203466D01*
X157765439Y-56985000D01*
X157473355Y-56985000D01*
X157220000Y-56731645D01*
X157220000Y-52102239D01*
X157596086Y-51726153D01*
X157845000Y-51125222D01*
X157845000Y-50474778D01*
X157836761Y-50454887D01*
X159555000Y-50454887D01*
X159555000Y-51145113D01*
X159819138Y-51782799D01*
X160307201Y-52270862D01*
X160944887Y-52535000D01*
X161635113Y-52535000D01*
X162272799Y-52270862D01*
X162760862Y-51782799D01*
X163025000Y-51145113D01*
X163025000Y-50454887D01*
X162760862Y-49817201D01*
X162272799Y-49329138D01*
X161635113Y-49065000D01*
X160944887Y-49065000D01*
X160307201Y-49329138D01*
X159819138Y-49817201D01*
X159555000Y-50454887D01*
X157836761Y-50454887D01*
X157596086Y-49873847D01*
X157136153Y-49413914D01*
X156535222Y-49165000D01*
X155884778Y-49165000D01*
X155283847Y-49413914D01*
X154940000Y-49757761D01*
X154596153Y-49413914D01*
X153995222Y-49165000D01*
X153344778Y-49165000D01*
X152743847Y-49413914D01*
X152400000Y-49757761D01*
X152056153Y-49413914D01*
X151455222Y-49165000D01*
X150804778Y-49165000D01*
X150203847Y-49413914D01*
X149743914Y-49873847D01*
X149495000Y-50474778D01*
X149495000Y-51125222D01*
X149743914Y-51726153D01*
X150120000Y-52102239D01*
X150120001Y-56851643D01*
X149986644Y-56985000D01*
X149838667Y-56985000D01*
X149420091Y-57068260D01*
X148945423Y-57385423D01*
X148628260Y-57860091D01*
X148516887Y-58420000D01*
X148628260Y-58979909D01*
X148945423Y-59454577D01*
X148970000Y-59470999D01*
X148970001Y-60421644D01*
X147226645Y-62165000D01*
X147054452Y-62165000D01*
X146563783Y-62368242D01*
X146188242Y-62743783D01*
X145985000Y-63234452D01*
X142278334Y-63234452D01*
X142227542Y-62979109D01*
X141932481Y-62537519D01*
X141490891Y-62242458D01*
X141101485Y-62165000D01*
X141063355Y-62165000D01*
X139320000Y-60421645D01*
X139320000Y-59439396D01*
X139526534Y-59232862D01*
X139745000Y-58705439D01*
X139745000Y-58134561D01*
X139526534Y-57607138D01*
X139122862Y-57203466D01*
X138595439Y-56985000D01*
X138303355Y-56985000D01*
X138170000Y-56851645D01*
X138170000Y-52102239D01*
X138546086Y-51726153D01*
X138795000Y-51125222D01*
X138795000Y-50474778D01*
X138546086Y-49873847D01*
X138086153Y-49413914D01*
X137485222Y-49165000D01*
X136834778Y-49165000D01*
X136233847Y-49413914D01*
X135890000Y-49757761D01*
X135546153Y-49413914D01*
X134945222Y-49165000D01*
X134294778Y-49165000D01*
X133693847Y-49413914D01*
X133350000Y-49757761D01*
X133006153Y-49413914D01*
X132405222Y-49165000D01*
X131754778Y-49165000D01*
X131153847Y-49413914D01*
X130693914Y-49873847D01*
X130445000Y-50474778D01*
X130445000Y-51125222D01*
X130693914Y-51726153D01*
X131070000Y-52102239D01*
X131070001Y-56731644D01*
X130816645Y-56985000D01*
X130668667Y-56985000D01*
X130250091Y-57068260D01*
X129775423Y-57385423D01*
X129458260Y-57860091D01*
X129346887Y-58420000D01*
X129352654Y-58448991D01*
X127626161Y-60175484D01*
X127541832Y-60231831D01*
X127485485Y-60316160D01*
X127485482Y-60316163D01*
X127379674Y-60474517D01*
X127318602Y-60565918D01*
X127264084Y-60840000D01*
X127240214Y-60960000D01*
X127260001Y-61059475D01*
X127260000Y-62622025D01*
X127138242Y-62743783D01*
X126935000Y-63234452D01*
X124352808Y-63234452D01*
X124200000Y-63081645D01*
X124200000Y-59297975D01*
X124321758Y-59176217D01*
X124525000Y-58685548D01*
X124525000Y-58154452D01*
X124321758Y-57663783D01*
X123946217Y-57288242D01*
X123455548Y-57085000D01*
X122924452Y-57085000D01*
X122433783Y-57288242D01*
X122058242Y-57663783D01*
X121855000Y-58154452D01*
X121855000Y-58685548D01*
X122058242Y-59176217D01*
X122180000Y-59297975D01*
X122180001Y-63400524D01*
X122160214Y-63500000D01*
X122180001Y-63599475D01*
X122180001Y-63599476D01*
X122238602Y-63894081D01*
X122238602Y-63894082D01*
X122405482Y-64143837D01*
X122405485Y-64143840D01*
X122461832Y-64228169D01*
X122546161Y-64284516D01*
X126841645Y-68580000D01*
X126356161Y-69065484D01*
X126271832Y-69121831D01*
X126215485Y-69206160D01*
X126215482Y-69206163D01*
X126048603Y-69455917D01*
X126048602Y-69455918D01*
X126031384Y-69542481D01*
X125970214Y-69850000D01*
X125990001Y-69949476D01*
X125990000Y-73920000D01*
X124067975Y-73920000D01*
X123946217Y-73798242D01*
X123455548Y-73595000D01*
X122924452Y-73595000D01*
X122433783Y-73798242D01*
X122058242Y-74173783D01*
X121855000Y-74664452D01*
X121855000Y-74836644D01*
X120231645Y-76460000D01*
X110589471Y-76460000D01*
X110490000Y-76440214D01*
X110390529Y-76460000D01*
X110390524Y-76460000D01*
X110095918Y-76518601D01*
X110095916Y-76518602D01*
X110095917Y-76518602D01*
X109846162Y-76685482D01*
X109846160Y-76685484D01*
X109761831Y-76741831D01*
X109705484Y-76826160D01*
X105102532Y-81429112D01*
X104974501Y-81301081D01*
X104923607Y-81280000D01*
X104974501Y-81258919D01*
X105388919Y-80844501D01*
X105613200Y-80303038D01*
X105613200Y-79716962D01*
X105388919Y-79175499D01*
X104974501Y-78761081D01*
X104433038Y-78536800D01*
X103846962Y-78536800D01*
X103305499Y-78761081D01*
X102891081Y-79175499D01*
X102666800Y-79716962D01*
X99829593Y-79716962D01*
X102243841Y-77302715D01*
X102328169Y-77246369D01*
X102384516Y-77162040D01*
X102384518Y-77162038D01*
X102551398Y-76912283D01*
X102551399Y-76912282D01*
X102610000Y-76617676D01*
X102610000Y-76617671D01*
X102629786Y-76518200D01*
X102610000Y-76418729D01*
X102610000Y-75940000D01*
X107058636Y-75940000D01*
X107429109Y-76187542D01*
X107818515Y-76265000D01*
X108081485Y-76265000D01*
X108470891Y-76187542D01*
X108912481Y-75892481D01*
X109207542Y-75450891D01*
X109311154Y-74930000D01*
X109258334Y-74664452D01*
X111695000Y-74664452D01*
X111695000Y-75195548D01*
X111898242Y-75686217D01*
X112273783Y-76061758D01*
X112764452Y-76265000D01*
X113295548Y-76265000D01*
X113786217Y-76061758D01*
X114161758Y-75686217D01*
X114365000Y-75195548D01*
X114365000Y-74664452D01*
X114161758Y-74173783D01*
X114040000Y-74052025D01*
X114040000Y-73958355D01*
X115563356Y-72435000D01*
X115576645Y-72435000D01*
X117100001Y-73958357D01*
X117100001Y-74038635D01*
X116852458Y-74409109D01*
X116748846Y-74930000D01*
X116852458Y-75450891D01*
X117147519Y-75892481D01*
X117589109Y-76187542D01*
X117978515Y-76265000D01*
X118241485Y-76265000D01*
X118630891Y-76187542D01*
X119072481Y-75892481D01*
X119367542Y-75450891D01*
X119471154Y-74930000D01*
X119367542Y-74409109D01*
X119120000Y-74038636D01*
X119120000Y-73639470D01*
X119139786Y-73539999D01*
X119120000Y-73440528D01*
X119120000Y-73440524D01*
X119061399Y-73145918D01*
X118838169Y-72811831D01*
X118753840Y-72755484D01*
X117027346Y-71028991D01*
X117033113Y-71000000D01*
X116921740Y-70440091D01*
X116604577Y-69965423D01*
X116129909Y-69648260D01*
X115711333Y-69565000D01*
X115428667Y-69565000D01*
X115010091Y-69648260D01*
X114535423Y-69965423D01*
X114218260Y-70440091D01*
X114106887Y-71000000D01*
X114112654Y-71028991D01*
X112386161Y-72755484D01*
X112301832Y-72811831D01*
X112245485Y-72896160D01*
X112245482Y-72896163D01*
X112078602Y-73145918D01*
X112000214Y-73540000D01*
X112020001Y-73639475D01*
X112020001Y-74052024D01*
X111898242Y-74173783D01*
X111695000Y-74664452D01*
X109258334Y-74664452D01*
X109207542Y-74409109D01*
X108960000Y-74038636D01*
X108960000Y-69949470D01*
X108979786Y-69849999D01*
X108960000Y-69750528D01*
X108960000Y-69750524D01*
X108901399Y-69455918D01*
X108678169Y-69121831D01*
X108593837Y-69065482D01*
X108015000Y-68486645D01*
X108015000Y-68314452D01*
X107811758Y-67823783D01*
X107436217Y-67448242D01*
X106945548Y-67245000D01*
X106414452Y-67245000D01*
X105923783Y-67448242D01*
X105548242Y-67823783D01*
X105345000Y-68314452D01*
X105345000Y-68845548D01*
X105548242Y-69336217D01*
X105923783Y-69711758D01*
X106414452Y-69915000D01*
X106586645Y-69915000D01*
X106940001Y-70268356D01*
X106940000Y-73920000D01*
X102477975Y-73920000D01*
X102356217Y-73798242D01*
X101865548Y-73595000D01*
X101693356Y-73595000D01*
X100070000Y-71971645D01*
X100070000Y-69457975D01*
X100191758Y-69336217D01*
X100395000Y-68845548D01*
X100395000Y-68314452D01*
X100191758Y-67823783D01*
X99816217Y-67448242D01*
X99325548Y-67245000D01*
X98794452Y-67245000D01*
X98303783Y-67448242D01*
X97928242Y-67823783D01*
X97725000Y-68314452D01*
X97725000Y-68845548D01*
X97928242Y-69336217D01*
X98050000Y-69457975D01*
X98050001Y-72290525D01*
X98030214Y-72390000D01*
X98108602Y-72784082D01*
X98275482Y-73033837D01*
X98275485Y-73033840D01*
X98331832Y-73118169D01*
X98416161Y-73174516D01*
X100265000Y-75023356D01*
X100265000Y-75195548D01*
X100468242Y-75686217D01*
X100590000Y-75807975D01*
X100590000Y-76099844D01*
X97880034Y-78809811D01*
X97816009Y-78713991D01*
X97605965Y-78573643D01*
X97358200Y-78524360D01*
X95681800Y-78524360D01*
X95434035Y-78573643D01*
X95223991Y-78713991D01*
X95083643Y-78924035D01*
X95034360Y-79171800D01*
X95034360Y-80848200D01*
X95048713Y-80920358D01*
X94990000Y-80861645D01*
X94990000Y-77888355D01*
X96613356Y-76265000D01*
X96651485Y-76265000D01*
X97040891Y-76187542D01*
X97482481Y-75892481D01*
X97777542Y-75450891D01*
X97881154Y-74930000D01*
X97777542Y-74409109D01*
X97530000Y-74038636D01*
X97530000Y-73759470D01*
X97549786Y-73659999D01*
X97530000Y-73560528D01*
X97530000Y-73560524D01*
X97471399Y-73265918D01*
X97400034Y-73159113D01*
X97304517Y-73016161D01*
X97304516Y-73016160D01*
X97248169Y-72931831D01*
X97163840Y-72875484D01*
X95437346Y-71148991D01*
X95443113Y-71120000D01*
X95331740Y-70560091D01*
X95014577Y-70085423D01*
X94539909Y-69768260D01*
X94121333Y-69685000D01*
X93838667Y-69685000D01*
X93420091Y-69768260D01*
X92945423Y-70085423D01*
X92628260Y-70560091D01*
X92516887Y-71120000D01*
X92522654Y-71148991D01*
X90796161Y-72875484D01*
X90711832Y-72931831D01*
X90655485Y-73016160D01*
X90655482Y-73016163D01*
X90518349Y-73221398D01*
X90488602Y-73265918D01*
X90434084Y-73540000D01*
X90410214Y-73660000D01*
X90430001Y-73759475D01*
X90430001Y-74052024D01*
X90308242Y-74173783D01*
X90105000Y-74664452D01*
X87668334Y-74664452D01*
X87617542Y-74409109D01*
X87370000Y-74038636D01*
X87370000Y-71538355D01*
X88993356Y-69915000D01*
X89031485Y-69915000D01*
X89420891Y-69837542D01*
X89862481Y-69542481D01*
X90157542Y-69100891D01*
X90261154Y-68580000D01*
X90157542Y-68059109D01*
X89862481Y-67617519D01*
X89420891Y-67322458D01*
X89031485Y-67245000D01*
X88768515Y-67245000D01*
X88379109Y-67322458D01*
X87937519Y-67617519D01*
X87642458Y-68059109D01*
X87555532Y-68496112D01*
X85716161Y-70335484D01*
X85631832Y-70391831D01*
X85575485Y-70476160D01*
X85575482Y-70476163D01*
X85408602Y-70725918D01*
X85354084Y-71000000D01*
X85330214Y-71120000D01*
X85350001Y-71219475D01*
X85350000Y-74038636D01*
X85102458Y-74409109D01*
X84998846Y-74930000D01*
X84530000Y-74930000D01*
X84530000Y-63234452D01*
X87565000Y-63234452D01*
X87565000Y-63765548D01*
X87768242Y-64256217D01*
X88143783Y-64631758D01*
X88634452Y-64835000D01*
X89165548Y-64835000D01*
X89656217Y-64631758D01*
X90031758Y-64256217D01*
X90235000Y-63765548D01*
X90235000Y-63234452D01*
X90031758Y-62743783D01*
X89910000Y-62622025D01*
X89910000Y-60228355D01*
X90283355Y-59855000D01*
X90431333Y-59855000D01*
X90849909Y-59771740D01*
X91324577Y-59454577D01*
X91641740Y-58979909D01*
X91753113Y-58420000D01*
X91641740Y-57860091D01*
X91324577Y-57385423D01*
X91300000Y-57369001D01*
X91300000Y-52435000D01*
X91765222Y-52435000D01*
X92366153Y-52186086D01*
X92710000Y-51842239D01*
X92970001Y-52102240D01*
X92970000Y-62600604D01*
X92763466Y-62807138D01*
X92545000Y-63334561D01*
X92545000Y-63905439D01*
X92763466Y-64432862D01*
X93167138Y-64836534D01*
X93694561Y-65055000D01*
X94265439Y-65055000D01*
X94792862Y-64836534D01*
X95196534Y-64432862D01*
X95415000Y-63905439D01*
X95415000Y-63334561D01*
X95196534Y-62807138D01*
X94990000Y-62600604D01*
X94990000Y-52102239D01*
X95250000Y-51842239D01*
X95593847Y-52186086D01*
X96194778Y-52435000D01*
X96726645Y-52435000D01*
X96780001Y-52488356D01*
X96780000Y-57400604D01*
X96573466Y-57607138D01*
X96355000Y-58134561D01*
X96355000Y-58705439D01*
X96573466Y-59232862D01*
X96977138Y-59636534D01*
X97504561Y-59855000D01*
X97796645Y-59855000D01*
X98050001Y-60108356D01*
X98050000Y-62608636D01*
X97802458Y-62979109D01*
X97698846Y-63500000D01*
X97802458Y-64020891D01*
X98097519Y-64462481D01*
X98539109Y-64757542D01*
X98928515Y-64835000D01*
X99191485Y-64835000D01*
X99580891Y-64757542D01*
X100022481Y-64462481D01*
X100317542Y-64020891D01*
X100421154Y-63500000D01*
X105318846Y-63500000D01*
X105422458Y-64020891D01*
X105717519Y-64462481D01*
X106159109Y-64757542D01*
X106548515Y-64835000D01*
X106811485Y-64835000D01*
X107200891Y-64757542D01*
X107642481Y-64462481D01*
X107937542Y-64020891D01*
X108041154Y-63500000D01*
X107937542Y-62979109D01*
X107690000Y-62608636D01*
X107690000Y-59297975D01*
X107811758Y-59176217D01*
X108015000Y-58685548D01*
X108015000Y-58154452D01*
X107811758Y-57663783D01*
X107436217Y-57288242D01*
X106945548Y-57085000D01*
X106414452Y-57085000D01*
X105923783Y-57288242D01*
X105548242Y-57663783D01*
X105345000Y-58154452D01*
X105345000Y-58685548D01*
X105548242Y-59176217D01*
X105670001Y-59297976D01*
X105670000Y-62608636D01*
X105422458Y-62979109D01*
X105318846Y-63500000D01*
X100421154Y-63500000D01*
X100317542Y-62979109D01*
X100070000Y-62608636D01*
X100070000Y-59789470D01*
X100089786Y-59689999D01*
X100070000Y-59590528D01*
X100070000Y-59590524D01*
X100011399Y-59295918D01*
X99788169Y-58961831D01*
X99703837Y-58905482D01*
X99225000Y-58426645D01*
X99225000Y-58134561D01*
X99006534Y-57607138D01*
X98800000Y-57400604D01*
X98800000Y-53340000D01*
X105318846Y-53340000D01*
X105422458Y-53860891D01*
X105717519Y-54302481D01*
X106159109Y-54597542D01*
X106548515Y-54675000D01*
X106706645Y-54675000D01*
X110422654Y-58391009D01*
X110416887Y-58420000D01*
X110528260Y-58979909D01*
X110750001Y-59311768D01*
X110750000Y-62608636D01*
X110502458Y-62979109D01*
X110398846Y-63500000D01*
X110502458Y-64020891D01*
X110797519Y-64462481D01*
X111239109Y-64757542D01*
X111628515Y-64835000D01*
X111891485Y-64835000D01*
X112280891Y-64757542D01*
X112722481Y-64462481D01*
X113017542Y-64020891D01*
X113121154Y-63500000D01*
X113017542Y-62979109D01*
X112770000Y-62608636D01*
X112770000Y-59551180D01*
X112914577Y-59454577D01*
X113231740Y-58979909D01*
X113343113Y-58420000D01*
X113231740Y-57860091D01*
X112914577Y-57385423D01*
X112439909Y-57068260D01*
X112021333Y-56985000D01*
X111873356Y-56985000D01*
X109238355Y-54350000D01*
X110390529Y-54350000D01*
X110490000Y-54369786D01*
X110589471Y-54350000D01*
X110589476Y-54350000D01*
X110884082Y-54291399D01*
X111218169Y-54068169D01*
X111274518Y-53983837D01*
X112823356Y-52435000D01*
X113355222Y-52435000D01*
X113956153Y-52186086D01*
X114300000Y-51842239D01*
X114560000Y-52102239D01*
X114560001Y-62480603D01*
X114353466Y-62687138D01*
X114135000Y-63214561D01*
X114135000Y-63506644D01*
X111116161Y-66525484D01*
X111031832Y-66581831D01*
X110975485Y-66666160D01*
X110975482Y-66666163D01*
X110808602Y-66915918D01*
X110730214Y-67310000D01*
X110750001Y-67409475D01*
X110750001Y-67702024D01*
X110628242Y-67823783D01*
X110425000Y-68314452D01*
X110425000Y-68845548D01*
X110628242Y-69336217D01*
X111003783Y-69711758D01*
X111494452Y-69915000D01*
X112025548Y-69915000D01*
X112516217Y-69711758D01*
X112891758Y-69336217D01*
X113095000Y-68845548D01*
X113095000Y-68314452D01*
X112891758Y-67823783D01*
X112783165Y-67715190D01*
X115563356Y-64935000D01*
X115576645Y-64935000D01*
X119315000Y-68673356D01*
X119315000Y-68845548D01*
X119518242Y-69336217D01*
X119893783Y-69711758D01*
X120384452Y-69915000D01*
X120915548Y-69915000D01*
X121406217Y-69711758D01*
X121781758Y-69336217D01*
X121985000Y-68845548D01*
X121985000Y-68314452D01*
X121781758Y-67823783D01*
X121406217Y-67448242D01*
X120915548Y-67245000D01*
X120743356Y-67245000D01*
X117005000Y-63506645D01*
X117005000Y-63214561D01*
X116786534Y-62687138D01*
X116580000Y-62480604D01*
X116580000Y-52102239D01*
X116840000Y-51842239D01*
X117183847Y-52186086D01*
X117784778Y-52435000D01*
X118316645Y-52435000D01*
X119865484Y-53983840D01*
X119921831Y-54068169D01*
X120006160Y-54124516D01*
X120006161Y-54124517D01*
X120142953Y-54215918D01*
X120255918Y-54291399D01*
X120550524Y-54350000D01*
X120550528Y-54350000D01*
X120649999Y-54369786D01*
X120749470Y-54350000D01*
X122021644Y-54350000D01*
X119386645Y-56985000D01*
X119094561Y-56985000D01*
X118567138Y-57203466D01*
X118163466Y-57607138D01*
X117945000Y-58134561D01*
X117945000Y-58705439D01*
X118163466Y-59232862D01*
X118370000Y-59439396D01*
X118370001Y-62130525D01*
X118350214Y-62230000D01*
X118370001Y-62329476D01*
X118413588Y-62548602D01*
X118428602Y-62624082D01*
X118595482Y-62873837D01*
X118595485Y-62873840D01*
X118651832Y-62958169D01*
X118736161Y-63014516D01*
X119305532Y-63583887D01*
X119392458Y-64020891D01*
X119687519Y-64462481D01*
X120129109Y-64757542D01*
X120518515Y-64835000D01*
X120781485Y-64835000D01*
X121170891Y-64757542D01*
X121612481Y-64462481D01*
X121907542Y-64020891D01*
X122011154Y-63500000D01*
X121907542Y-62979109D01*
X121612481Y-62537519D01*
X121170891Y-62242458D01*
X120781485Y-62165000D01*
X120743355Y-62165000D01*
X120390000Y-61811645D01*
X120390000Y-59439396D01*
X120596534Y-59232862D01*
X120815000Y-58705439D01*
X120815000Y-58413355D01*
X123833840Y-55394516D01*
X123918169Y-55338169D01*
X123974516Y-55253840D01*
X123974518Y-55253838D01*
X124141398Y-55004083D01*
X124141399Y-55004082D01*
X124200000Y-54709476D01*
X124200000Y-54709471D01*
X124219786Y-54610000D01*
X124200000Y-54510529D01*
X124200000Y-54231364D01*
X124447542Y-53860891D01*
X124551154Y-53340000D01*
X124447542Y-52819109D01*
X124152481Y-52377519D01*
X123710891Y-52082458D01*
X123321485Y-52005000D01*
X123058515Y-52005000D01*
X122669109Y-52082458D01*
X122298636Y-52330000D01*
X121068356Y-52330000D01*
X119745000Y-51006645D01*
X119745000Y-50474778D01*
X119496086Y-49873847D01*
X119036153Y-49413914D01*
X118435222Y-49165000D01*
X117784778Y-49165000D01*
X117183847Y-49413914D01*
X116840000Y-49757761D01*
X116496153Y-49413914D01*
X115895222Y-49165000D01*
X115244778Y-49165000D01*
X114643847Y-49413914D01*
X114300000Y-49757761D01*
X113956153Y-49413914D01*
X113355222Y-49165000D01*
X112704778Y-49165000D01*
X112103847Y-49413914D01*
X111643914Y-49873847D01*
X111395000Y-50474778D01*
X111395000Y-51006644D01*
X110071645Y-52330000D01*
X107571364Y-52330000D01*
X107200891Y-52082458D01*
X106811485Y-52005000D01*
X106548515Y-52005000D01*
X106159109Y-52082458D01*
X105717519Y-52377519D01*
X105422458Y-52819109D01*
X105318846Y-53340000D01*
X98800000Y-53340000D01*
X98800000Y-52169470D01*
X98819786Y-52069999D01*
X98800000Y-51970528D01*
X98800000Y-51970524D01*
X98741399Y-51675918D01*
X98518169Y-51341831D01*
X98433837Y-51285482D01*
X98155000Y-51006645D01*
X98155000Y-50474778D01*
X97906086Y-49873847D01*
X97446153Y-49413914D01*
X96845222Y-49165000D01*
X96194778Y-49165000D01*
X95593847Y-49413914D01*
X95250000Y-49757761D01*
X94906153Y-49413914D01*
X94305222Y-49165000D01*
X93654778Y-49165000D01*
X93053847Y-49413914D01*
X92710000Y-49757761D01*
X92366153Y-49413914D01*
X91765222Y-49165000D01*
X91114778Y-49165000D01*
X90513847Y-49413914D01*
X90053914Y-49873847D01*
X89805000Y-50474778D01*
X89805000Y-51006645D01*
X89646160Y-51165485D01*
X89561832Y-51221831D01*
X89505485Y-51306160D01*
X89505482Y-51306163D01*
X89338602Y-51555918D01*
X89260214Y-51950000D01*
X89280001Y-52049476D01*
X89280000Y-57369001D01*
X89255423Y-57385423D01*
X88938260Y-57860091D01*
X88826887Y-58420000D01*
X88832654Y-58448991D01*
X88256160Y-59025485D01*
X88171832Y-59081831D01*
X88115485Y-59166160D01*
X88115482Y-59166163D01*
X87948602Y-59415918D01*
X87870214Y-59810000D01*
X87890001Y-59909475D01*
X87890000Y-62622025D01*
X87768242Y-62743783D01*
X87565000Y-63234452D01*
X84530000Y-63234452D01*
X84530000Y-50454887D01*
X84625000Y-50454887D01*
X84625000Y-51145113D01*
X84889138Y-51782799D01*
X85377201Y-52270862D01*
X86014887Y-52535000D01*
X86705113Y-52535000D01*
X87342799Y-52270862D01*
X87830862Y-51782799D01*
X88095000Y-51145113D01*
X88095000Y-50454887D01*
X87830862Y-49817201D01*
X87342799Y-49329138D01*
X86705113Y-49065000D01*
X86014887Y-49065000D01*
X85377201Y-49329138D01*
X84889138Y-49817201D01*
X84625000Y-50454887D01*
X84530000Y-50454887D01*
X84530000Y-48970000D01*
X163120000Y-48970000D01*
X163120001Y-79645000D01*
X163120001Y-79645000D01*
G37*
X163120001Y-79645000D02*
X162845750Y-79645000D01*
X162687000Y-79803750D01*
X162687000Y-81153000D01*
X162707000Y-81153000D01*
X162707000Y-81407000D01*
X162687000Y-81407000D01*
X162687000Y-82756250D01*
X162845750Y-82915000D01*
X163120001Y-82915000D01*
X163120001Y-86267379D01*
X162853038Y-86156800D01*
X162266962Y-86156800D01*
X161725499Y-86381081D01*
X161311081Y-86795499D01*
X161086800Y-87336962D01*
X161086800Y-87923038D01*
X161311081Y-88464501D01*
X161725499Y-88878919D01*
X161776393Y-88900000D01*
X161725499Y-88921081D01*
X161311081Y-89335499D01*
X161086800Y-89876962D01*
X161086800Y-90463038D01*
X161311081Y-91004501D01*
X161725499Y-91418919D01*
X161776393Y-91440000D01*
X161725499Y-91461081D01*
X161311081Y-91875499D01*
X161086800Y-92416962D01*
X161086800Y-93003038D01*
X161311081Y-93544501D01*
X161725499Y-93958919D01*
X161776393Y-93980000D01*
X161725499Y-94001081D01*
X161311081Y-94415499D01*
X161086800Y-94956962D01*
X161086800Y-95543038D01*
X161311081Y-96084501D01*
X161725499Y-96498919D01*
X162266962Y-96723200D01*
X162853038Y-96723200D01*
X163120001Y-96612621D01*
X163120001Y-100890000D01*
X150728355Y-100890000D01*
X154886319Y-96732037D01*
X154886321Y-96732034D01*
X154895155Y-96723200D01*
X155233038Y-96723200D01*
X155774501Y-96498919D01*
X156188919Y-96084501D01*
X156413200Y-95543038D01*
X156413200Y-94956962D01*
X156188919Y-94415499D01*
X155774501Y-94001081D01*
X155723607Y-93980000D01*
X155774501Y-93958919D01*
X156188919Y-93544501D01*
X156413200Y-93003038D01*
X156413200Y-92416962D01*
X156188919Y-91875499D01*
X155774501Y-91461081D01*
X155723607Y-91440000D01*
X155774501Y-91418919D01*
X156188919Y-91004501D01*
X156413200Y-90463038D01*
X156413200Y-89876962D01*
X156188919Y-89335499D01*
X155937395Y-89083975D01*
X156025965Y-89066357D01*
X156236009Y-88926009D01*
X156376357Y-88715965D01*
X156425640Y-88468200D01*
X156425640Y-86791800D01*
X156376357Y-86544035D01*
X156236009Y-86333991D01*
X156025965Y-86193643D01*
X155778200Y-86144360D01*
X154101800Y-86144360D01*
X153854035Y-86193643D01*
X153643991Y-86333991D01*
X153503643Y-86544035D01*
X153488533Y-86620000D01*
X152818356Y-86620000D01*
X151195000Y-84996645D01*
X151195000Y-84824452D01*
X150991758Y-84333783D01*
X150616217Y-83958242D01*
X150125548Y-83755000D01*
X149594452Y-83755000D01*
X149103783Y-83958242D01*
X148982025Y-84080000D01*
X146927975Y-84080000D01*
X146806217Y-83958242D01*
X146315548Y-83755000D01*
X145784452Y-83755000D01*
X145293783Y-83958242D01*
X144918242Y-84333783D01*
X144715000Y-84824452D01*
X144715000Y-85355548D01*
X144918242Y-85846217D01*
X145293783Y-86221758D01*
X145784452Y-86425000D01*
X146315548Y-86425000D01*
X146806217Y-86221758D01*
X146927975Y-86100000D01*
X148982025Y-86100000D01*
X149103783Y-86221758D01*
X149594452Y-86425000D01*
X149766645Y-86425000D01*
X151615484Y-88273840D01*
X151671831Y-88358169D01*
X151756160Y-88414516D01*
X151756161Y-88414517D01*
X151830968Y-88464501D01*
X152005918Y-88581399D01*
X152300524Y-88640000D01*
X152300528Y-88640000D01*
X152399999Y-88659786D01*
X152499470Y-88640000D01*
X153488533Y-88640000D01*
X153503643Y-88715965D01*
X153643991Y-88926009D01*
X153854035Y-89066357D01*
X153942605Y-89083975D01*
X153866580Y-89160000D01*
X150751364Y-89160000D01*
X150380891Y-88912458D01*
X149991485Y-88835000D01*
X149728515Y-88835000D01*
X149339109Y-88912458D01*
X148897519Y-89207519D01*
X148602458Y-89649109D01*
X148515532Y-90086113D01*
X147946161Y-90655484D01*
X147861832Y-90711831D01*
X147805485Y-90796160D01*
X147805482Y-90796163D01*
X147666276Y-91004501D01*
X147638602Y-91045918D01*
X147621384Y-91132481D01*
X147560214Y-91440000D01*
X147580001Y-91539475D01*
X147580000Y-94372025D01*
X147458242Y-94493783D01*
X147255000Y-94984452D01*
X147255000Y-95515548D01*
X147458242Y-96006217D01*
X147833783Y-96381758D01*
X148324452Y-96585000D01*
X148855548Y-96585000D01*
X149346217Y-96381758D01*
X149721758Y-96006217D01*
X149925000Y-95515548D01*
X149925000Y-94984452D01*
X149721758Y-94493783D01*
X149600000Y-94372025D01*
X149600000Y-91858355D01*
X149953355Y-91505000D01*
X149991485Y-91505000D01*
X150380891Y-91427542D01*
X150751364Y-91180000D01*
X153866580Y-91180000D01*
X154105499Y-91418919D01*
X154156393Y-91440000D01*
X154105499Y-91461081D01*
X153691081Y-91875499D01*
X153466800Y-92416962D01*
X153466800Y-93003038D01*
X153691081Y-93544501D01*
X154105499Y-93958919D01*
X154156393Y-93980000D01*
X154105499Y-94001081D01*
X153691081Y-94415499D01*
X153466800Y-94956962D01*
X153466800Y-95294845D01*
X153457966Y-95303679D01*
X153457963Y-95303681D01*
X149436644Y-99325001D01*
X149339251Y-99325001D01*
X149201250Y-99187000D01*
X148177000Y-99187000D01*
X148177000Y-99207000D01*
X147923000Y-99207000D01*
X147923000Y-99187000D01*
X147903000Y-99187000D01*
X147903000Y-98933000D01*
X147923000Y-98933000D01*
X147923000Y-97908750D01*
X148177000Y-97908750D01*
X148177000Y-98933000D01*
X149201250Y-98933000D01*
X149360000Y-98774250D01*
X149360000Y-98258691D01*
X149263327Y-98025302D01*
X149084699Y-97846673D01*
X148851310Y-97750000D01*
X148335750Y-97750000D01*
X148177000Y-97908750D01*
X147923000Y-97908750D01*
X147764250Y-97750000D01*
X147248690Y-97750000D01*
X147060000Y-97828158D01*
X147060000Y-91061364D01*
X147307542Y-90690891D01*
X147411154Y-90170000D01*
X147307542Y-89649109D01*
X147012481Y-89207519D01*
X146570891Y-88912458D01*
X146181485Y-88835000D01*
X145918515Y-88835000D01*
X145529109Y-88912458D01*
X145087519Y-89207519D01*
X144792458Y-89649109D01*
X144688846Y-90170000D01*
X144792458Y-90690891D01*
X145040000Y-91061364D01*
X145040001Y-98183704D01*
X144994457Y-98115543D01*
X144561136Y-97826007D01*
X144179022Y-97750000D01*
X143920978Y-97750000D01*
X143538864Y-97826007D01*
X143105543Y-98115543D01*
X142816007Y-98548864D01*
X142714336Y-99060000D01*
X142767048Y-99325001D01*
X139765000Y-99325001D01*
X139765000Y-99153355D01*
X141613840Y-97304516D01*
X141698169Y-97248169D01*
X141761087Y-97154007D01*
X141921398Y-96914083D01*
X141921399Y-96914082D01*
X141980000Y-96619476D01*
X141980000Y-96619472D01*
X141999786Y-96520001D01*
X141980000Y-96420530D01*
X141980000Y-95583329D01*
X142217284Y-95583329D01*
X142360203Y-95928396D01*
X142707337Y-96316764D01*
X143176669Y-96542727D01*
X143383000Y-96420206D01*
X143383000Y-95377000D01*
X143637000Y-95377000D01*
X143637000Y-96420206D01*
X143843331Y-96542727D01*
X144312663Y-96316764D01*
X144659797Y-95928396D01*
X144802716Y-95583329D01*
X144679374Y-95377000D01*
X143637000Y-95377000D01*
X143383000Y-95377000D01*
X142340626Y-95377000D01*
X142217284Y-95583329D01*
X141980000Y-95583329D01*
X141980000Y-94916671D01*
X142217284Y-94916671D01*
X142340626Y-95123000D01*
X143383000Y-95123000D01*
X143383000Y-94079794D01*
X143637000Y-94079794D01*
X143637000Y-95123000D01*
X144679374Y-95123000D01*
X144802716Y-94916671D01*
X144659797Y-94571604D01*
X144312663Y-94183236D01*
X143843331Y-93957273D01*
X143637000Y-94079794D01*
X143383000Y-94079794D01*
X143176669Y-93957273D01*
X142707337Y-94183236D01*
X142360203Y-94571604D01*
X142217284Y-94916671D01*
X141980000Y-94916671D01*
X141980000Y-91061364D01*
X142227542Y-90690891D01*
X142331154Y-90170000D01*
X142227542Y-89649109D01*
X141932481Y-89207519D01*
X141490891Y-88912458D01*
X141101485Y-88835000D01*
X140838515Y-88835000D01*
X140449109Y-88912458D01*
X140007519Y-89207519D01*
X139712458Y-89649109D01*
X139608846Y-90170000D01*
X139712458Y-90690891D01*
X139960000Y-91061364D01*
X139960001Y-96101643D01*
X138430000Y-97631645D01*
X132864518Y-92066163D01*
X132808169Y-91981831D01*
X132474082Y-91758601D01*
X132179476Y-91700000D01*
X132179471Y-91700000D01*
X132080000Y-91680214D01*
X131980529Y-91700000D01*
X130590999Y-91700000D01*
X130574577Y-91675423D01*
X130099909Y-91358260D01*
X129681333Y-91275000D01*
X129398667Y-91275000D01*
X128980091Y-91358260D01*
X128505423Y-91675423D01*
X128188260Y-92150091D01*
X128076887Y-92710000D01*
X128188260Y-93269909D01*
X128505423Y-93744577D01*
X128980091Y-94061740D01*
X129398667Y-94145000D01*
X129681333Y-94145000D01*
X130099909Y-94061740D01*
X130574577Y-93744577D01*
X130590999Y-93720000D01*
X131661645Y-93720000D01*
X137095000Y-99153355D01*
X137095000Y-99325001D01*
X134601870Y-99325001D01*
X134519374Y-99187000D01*
X133477000Y-99187000D01*
X133477000Y-99207000D01*
X133223000Y-99207000D01*
X133223000Y-99187000D01*
X132180626Y-99187000D01*
X132098130Y-99325001D01*
X128472952Y-99325001D01*
X128525664Y-99060000D01*
X128459361Y-98726671D01*
X132057284Y-98726671D01*
X132180626Y-98933000D01*
X133223000Y-98933000D01*
X133223000Y-97889794D01*
X133477000Y-97889794D01*
X133477000Y-98933000D01*
X134519374Y-98933000D01*
X134642716Y-98726671D01*
X134499797Y-98381604D01*
X134152663Y-97993236D01*
X133683331Y-97767273D01*
X133477000Y-97889794D01*
X133223000Y-97889794D01*
X133016669Y-97767273D01*
X132547337Y-97993236D01*
X132200203Y-98381604D01*
X132057284Y-98726671D01*
X128459361Y-98726671D01*
X128423993Y-98548864D01*
X128200000Y-98213635D01*
X128200000Y-95924469D01*
X128219786Y-95824998D01*
X128200000Y-95725527D01*
X128200000Y-95725522D01*
X128141399Y-95430916D01*
X128091411Y-95356103D01*
X127974518Y-95181160D01*
X127974516Y-95181158D01*
X127918169Y-95096829D01*
X127833841Y-95040483D01*
X122697810Y-89904452D01*
X134555000Y-89904452D01*
X134555000Y-90435548D01*
X134758242Y-90926217D01*
X135133783Y-91301758D01*
X135624452Y-91505000D01*
X136155548Y-91505000D01*
X136646217Y-91301758D01*
X137021758Y-90926217D01*
X137225000Y-90435548D01*
X137225000Y-89904452D01*
X137021758Y-89413783D01*
X136646217Y-89038242D01*
X136155548Y-88835000D01*
X135624452Y-88835000D01*
X135133783Y-89038242D01*
X134758242Y-89413783D01*
X134555000Y-89904452D01*
X122697810Y-89904452D01*
X122319520Y-89526163D01*
X122263171Y-89441831D01*
X121929084Y-89218601D01*
X121634478Y-89160000D01*
X121634473Y-89160000D01*
X121535002Y-89140214D01*
X121435531Y-89160000D01*
X113921364Y-89160000D01*
X113550891Y-88912458D01*
X113161485Y-88835000D01*
X112898515Y-88835000D01*
X112509109Y-88912458D01*
X112067519Y-89207519D01*
X111772458Y-89649109D01*
X111668846Y-90170000D01*
X111772458Y-90690891D01*
X112067519Y-91132481D01*
X112509109Y-91427542D01*
X112898515Y-91505000D01*
X113161485Y-91505000D01*
X113550891Y-91427542D01*
X113921364Y-91180000D01*
X121116647Y-91180000D01*
X121370663Y-91434016D01*
X121227138Y-91493466D01*
X120823466Y-91897138D01*
X120605000Y-92424561D01*
X120605000Y-92995439D01*
X120823466Y-93522862D01*
X121227138Y-93926534D01*
X121754561Y-94145000D01*
X122046645Y-94145000D01*
X124180000Y-96278356D01*
X124180001Y-97828158D01*
X123991310Y-97750000D01*
X123475750Y-97750000D01*
X123317000Y-97908750D01*
X123317000Y-98933000D01*
X123337000Y-98933000D01*
X123337000Y-99187000D01*
X123317000Y-99187000D01*
X123317000Y-99207000D01*
X123063000Y-99207000D01*
X123063000Y-99187000D01*
X122038750Y-99187000D01*
X121900749Y-99325001D01*
X114502952Y-99325001D01*
X114555664Y-99060000D01*
X114453993Y-98548864D01*
X114260106Y-98258691D01*
X121880000Y-98258691D01*
X121880000Y-98774250D01*
X122038750Y-98933000D01*
X123063000Y-98933000D01*
X123063000Y-97908750D01*
X122904250Y-97750000D01*
X122388690Y-97750000D01*
X122155301Y-97846673D01*
X121976673Y-98025302D01*
X121880000Y-98258691D01*
X114260106Y-98258691D01*
X114164457Y-98115543D01*
X113731136Y-97826007D01*
X113349022Y-97750000D01*
X113090978Y-97750000D01*
X112708864Y-97826007D01*
X112275543Y-98115543D01*
X112220000Y-98198669D01*
X112164457Y-98115543D01*
X111731136Y-97826007D01*
X111349022Y-97750000D01*
X111090978Y-97750000D01*
X110708864Y-97826007D01*
X110424223Y-98016198D01*
X110254699Y-97846673D01*
X110021310Y-97750000D01*
X109505750Y-97750000D01*
X109347000Y-97908750D01*
X109347000Y-98933000D01*
X109367000Y-98933000D01*
X109367000Y-99187000D01*
X109347000Y-99187000D01*
X109347000Y-99207000D01*
X109093000Y-99207000D01*
X109093000Y-99187000D01*
X108068750Y-99187000D01*
X107930749Y-99325001D01*
X100382440Y-99325001D01*
X100382440Y-98385000D01*
X100357316Y-98258691D01*
X107910000Y-98258691D01*
X107910000Y-98774250D01*
X108068750Y-98933000D01*
X109093000Y-98933000D01*
X109093000Y-97908750D01*
X108934250Y-97750000D01*
X108418690Y-97750000D01*
X108185301Y-97846673D01*
X108006673Y-98025302D01*
X107910000Y-98258691D01*
X100357316Y-98258691D01*
X100333157Y-98137235D01*
X100192809Y-97927191D01*
X99982765Y-97786843D01*
X99735000Y-97737560D01*
X98856201Y-97737560D01*
X105488486Y-91105275D01*
X107194331Y-91105275D01*
X107256169Y-91341042D01*
X107757122Y-91517419D01*
X108287440Y-91488664D01*
X108643831Y-91341042D01*
X108705669Y-91105275D01*
X107950000Y-90349605D01*
X107194331Y-91105275D01*
X105488486Y-91105275D01*
X106603304Y-89990457D01*
X106631336Y-90507440D01*
X106778958Y-90863831D01*
X107014725Y-90925669D01*
X107770395Y-90170000D01*
X108129605Y-90170000D01*
X108885275Y-90925669D01*
X109121042Y-90863831D01*
X109297419Y-90362878D01*
X109268664Y-89832560D01*
X109121042Y-89476169D01*
X108885275Y-89414331D01*
X108129605Y-90170000D01*
X107770395Y-90170000D01*
X107756252Y-90155858D01*
X107935858Y-89976252D01*
X107950000Y-89990395D01*
X108705669Y-89234725D01*
X108643831Y-88998958D01*
X108142878Y-88822581D01*
X107749871Y-88843891D01*
X107928349Y-88665413D01*
X119794192Y-88665413D01*
X119873017Y-88915490D01*
X120424097Y-89114977D01*
X121009569Y-89088389D01*
X121426983Y-88915490D01*
X121505808Y-88665413D01*
X120650000Y-87809605D01*
X119794192Y-88665413D01*
X107928349Y-88665413D01*
X109189665Y-87404097D01*
X119165023Y-87404097D01*
X119191611Y-87989569D01*
X119364510Y-88406983D01*
X119614587Y-88485808D01*
X120470395Y-87630000D01*
X120829605Y-87630000D01*
X121685413Y-88485808D01*
X121919362Y-88412067D01*
X121941081Y-88464501D01*
X122355499Y-88878919D01*
X122896962Y-89103200D01*
X123483038Y-89103200D01*
X124024501Y-88878919D01*
X124438919Y-88464501D01*
X124460000Y-88413607D01*
X124481081Y-88464501D01*
X124895499Y-88878919D01*
X125436962Y-89103200D01*
X126023038Y-89103200D01*
X126564501Y-88878919D01*
X126978919Y-88464501D01*
X127000000Y-88413607D01*
X127021081Y-88464501D01*
X127435499Y-88878919D01*
X127976962Y-89103200D01*
X128563038Y-89103200D01*
X129104501Y-88878919D01*
X129518919Y-88464501D01*
X129743200Y-87923038D01*
X129743200Y-87336962D01*
X129518919Y-86795499D01*
X129104501Y-86381081D01*
X128611487Y-86176868D01*
X128688356Y-86100000D01*
X130710529Y-86100000D01*
X130810000Y-86119786D01*
X130909471Y-86100000D01*
X130909476Y-86100000D01*
X131204082Y-86041399D01*
X131538169Y-85818169D01*
X131594518Y-85733837D01*
X132238355Y-85090000D01*
X134528846Y-85090000D01*
X134632458Y-85610891D01*
X134927519Y-86052481D01*
X135369109Y-86347542D01*
X135758515Y-86425000D01*
X136021485Y-86425000D01*
X136410891Y-86347542D01*
X136852481Y-86052481D01*
X137147542Y-85610891D01*
X137251154Y-85090000D01*
X137147542Y-84569109D01*
X136852481Y-84127519D01*
X136410891Y-83832458D01*
X136021485Y-83755000D01*
X135758515Y-83755000D01*
X135369109Y-83832458D01*
X134927519Y-84127519D01*
X134632458Y-84569109D01*
X134528846Y-85090000D01*
X132238355Y-85090000D01*
X133983345Y-83345011D01*
X141085518Y-83345011D01*
X141184989Y-83364797D01*
X141284460Y-83345011D01*
X141284465Y-83345011D01*
X141287172Y-83344472D01*
X140876645Y-83755000D01*
X140704452Y-83755000D01*
X140213783Y-83958242D01*
X139838242Y-84333783D01*
X139635000Y-84824452D01*
X139635000Y-85355548D01*
X139838242Y-85846217D01*
X140213783Y-86221758D01*
X140704452Y-86425000D01*
X141235548Y-86425000D01*
X141726217Y-86221758D01*
X142101758Y-85846217D01*
X142305000Y-85355548D01*
X142305000Y-85183355D01*
X145198356Y-82290000D01*
X147298463Y-82290000D01*
X147411231Y-82458769D01*
X147952055Y-82820136D01*
X148428969Y-82915000D01*
X148751031Y-82915000D01*
X149227945Y-82820136D01*
X149768769Y-82458769D01*
X150130136Y-81917945D01*
X150257031Y-81280000D01*
X150130136Y-80642055D01*
X149888219Y-80280000D01*
X152022560Y-80280000D01*
X152022560Y-82280000D01*
X152071843Y-82527765D01*
X152212191Y-82737809D01*
X152422235Y-82878157D01*
X152670000Y-82927440D01*
X154670000Y-82927440D01*
X154917765Y-82878157D01*
X155127809Y-82737809D01*
X155268157Y-82527765D01*
X155315451Y-82290000D01*
X156188463Y-82290000D01*
X156301231Y-82458769D01*
X156842055Y-82820136D01*
X157318969Y-82915000D01*
X157641031Y-82915000D01*
X158117945Y-82820136D01*
X158658769Y-82458769D01*
X159020136Y-81917945D01*
X159090191Y-81565750D01*
X160925000Y-81565750D01*
X160925000Y-82406310D01*
X161021673Y-82639699D01*
X161200302Y-82818327D01*
X161433691Y-82915000D01*
X162274250Y-82915000D01*
X162433000Y-82756250D01*
X162433000Y-81407000D01*
X161083750Y-81407000D01*
X160925000Y-81565750D01*
X159090191Y-81565750D01*
X159147031Y-81280000D01*
X159020136Y-80642055D01*
X158693821Y-80153690D01*
X160925000Y-80153690D01*
X160925000Y-80994250D01*
X161083750Y-81153000D01*
X162433000Y-81153000D01*
X162433000Y-79803750D01*
X162274250Y-79645000D01*
X161433691Y-79645000D01*
X161200302Y-79741673D01*
X161021673Y-79920301D01*
X160925000Y-80153690D01*
X158693821Y-80153690D01*
X158658769Y-80101231D01*
X158117945Y-79739864D01*
X157641031Y-79645000D01*
X157318969Y-79645000D01*
X156842055Y-79739864D01*
X156301231Y-80101231D01*
X156188463Y-80270000D01*
X155315451Y-80270000D01*
X155268157Y-80032235D01*
X155127809Y-79822191D01*
X154917765Y-79681843D01*
X154670000Y-79632560D01*
X152670000Y-79632560D01*
X152422235Y-79681843D01*
X152212191Y-79822191D01*
X152071843Y-80032235D01*
X152022560Y-80280000D01*
X149888219Y-80280000D01*
X149768769Y-80101231D01*
X149227945Y-79739864D01*
X148751031Y-79645000D01*
X148428969Y-79645000D01*
X147952055Y-79739864D01*
X147411231Y-80101231D01*
X147298463Y-80270000D01*
X144921396Y-80270000D01*
X144973113Y-80010000D01*
X144967346Y-79981009D01*
X145518345Y-79430010D01*
X156430519Y-79430010D01*
X156529990Y-79449796D01*
X156629461Y-79430010D01*
X156629466Y-79430010D01*
X156924072Y-79371409D01*
X157258159Y-79148179D01*
X157314508Y-79063847D01*
X160113355Y-76265000D01*
X160285548Y-76265000D01*
X160776217Y-76061758D01*
X161151758Y-75686217D01*
X161355000Y-75195548D01*
X161355000Y-74664452D01*
X161151758Y-74173783D01*
X161030000Y-74052025D01*
X161030000Y-69457975D01*
X161151758Y-69336217D01*
X161355000Y-68845548D01*
X161355000Y-68314452D01*
X161151758Y-67823783D01*
X160776217Y-67448242D01*
X160285548Y-67245000D01*
X159754452Y-67245000D01*
X159263783Y-67448242D01*
X158888242Y-67823783D01*
X158685000Y-68314452D01*
X158685000Y-68845548D01*
X158888242Y-69336217D01*
X159010001Y-69457976D01*
X159010000Y-74052025D01*
X158888242Y-74173783D01*
X158685000Y-74664452D01*
X158685000Y-74836645D01*
X156111635Y-77410010D01*
X150078345Y-77410010D01*
X151223356Y-76265000D01*
X151395548Y-76265000D01*
X151886217Y-76061758D01*
X152261758Y-75686217D01*
X152465000Y-75195548D01*
X152465000Y-74664452D01*
X152261758Y-74173783D01*
X152140000Y-74052025D01*
X152140000Y-73958355D01*
X153663356Y-72435000D01*
X153676645Y-72435000D01*
X153930001Y-72688356D01*
X153930000Y-74038636D01*
X153682458Y-74409109D01*
X153578846Y-74930000D01*
X153682458Y-75450891D01*
X153977519Y-75892481D01*
X154419109Y-76187542D01*
X154808515Y-76265000D01*
X155071485Y-76265000D01*
X155460891Y-76187542D01*
X155902481Y-75892481D01*
X156197542Y-75450891D01*
X156301154Y-74930000D01*
X156197542Y-74409109D01*
X155950000Y-74038636D01*
X155950000Y-72369470D01*
X155969786Y-72269999D01*
X155950000Y-72170528D01*
X155950000Y-72170524D01*
X155891399Y-71875918D01*
X155668169Y-71541831D01*
X155583837Y-71485482D01*
X155127346Y-71028991D01*
X155133113Y-71000000D01*
X155021740Y-70440091D01*
X154704577Y-69965423D01*
X154229909Y-69648260D01*
X153811333Y-69565000D01*
X153528667Y-69565000D01*
X153110091Y-69648260D01*
X152635423Y-69965423D01*
X152318260Y-70440091D01*
X152206887Y-71000000D01*
X152212654Y-71028991D01*
X150486161Y-72755484D01*
X150401832Y-72811831D01*
X150345485Y-72896160D01*
X150345482Y-72896163D01*
X150178602Y-73145918D01*
X150100214Y-73540000D01*
X150120001Y-73639475D01*
X150120001Y-74052024D01*
X149998242Y-74173783D01*
X149795000Y-74664452D01*
X149795000Y-74836644D01*
X148171645Y-76460000D01*
X142339472Y-76460000D01*
X142240000Y-76440214D01*
X142140528Y-76460000D01*
X142140524Y-76460000D01*
X142137817Y-76460538D01*
X142333356Y-76265000D01*
X142505548Y-76265000D01*
X142996217Y-76061758D01*
X143117975Y-75940000D01*
X145158636Y-75940000D01*
X145529109Y-76187542D01*
X145918515Y-76265000D01*
X146181485Y-76265000D01*
X146570891Y-76187542D01*
X147012481Y-75892481D01*
X147307542Y-75450891D01*
X147394468Y-75013887D01*
X147963838Y-74444517D01*
X148048169Y-74388169D01*
X148271399Y-74054082D01*
X148330000Y-73759476D01*
X148330000Y-73759472D01*
X148349786Y-73660001D01*
X148330000Y-73560530D01*
X148330000Y-69471364D01*
X148577542Y-69100891D01*
X148681154Y-68580000D01*
X148577542Y-68059109D01*
X148282481Y-67617519D01*
X147840891Y-67322458D01*
X147451485Y-67245000D01*
X147188515Y-67245000D01*
X146799109Y-67322458D01*
X146428636Y-67570000D01*
X141847975Y-67570000D01*
X141726217Y-67448242D01*
X141235548Y-67245000D01*
X140704452Y-67245000D01*
X140213783Y-67448242D01*
X139838242Y-67823783D01*
X139635000Y-68314452D01*
X139635000Y-68845548D01*
X139838242Y-69336217D01*
X140213783Y-69711758D01*
X140704452Y-69915000D01*
X141235548Y-69915000D01*
X141726217Y-69711758D01*
X141847975Y-69590000D01*
X146310000Y-69590000D01*
X146310001Y-73241644D01*
X145956645Y-73595000D01*
X145918515Y-73595000D01*
X145529109Y-73672458D01*
X145158636Y-73920000D01*
X143117975Y-73920000D01*
X142996217Y-73798242D01*
X142505548Y-73595000D01*
X141974452Y-73595000D01*
X141483783Y-73798242D01*
X141108242Y-74173783D01*
X140905000Y-74664452D01*
X140905000Y-74836644D01*
X139281645Y-76460000D01*
X132497670Y-76460000D01*
X132398199Y-76440214D01*
X132298728Y-76460000D01*
X132298724Y-76460000D01*
X132004118Y-76518601D01*
X132004116Y-76518602D01*
X132004117Y-76518602D01*
X131754361Y-76685483D01*
X131754360Y-76685484D01*
X131670031Y-76741831D01*
X131613684Y-76826160D01*
X129630034Y-78809811D01*
X129566009Y-78713991D01*
X129355965Y-78573643D01*
X129108200Y-78524360D01*
X128643995Y-78524360D01*
X131215190Y-75953165D01*
X131323783Y-76061758D01*
X131814452Y-76265000D01*
X132345548Y-76265000D01*
X132836217Y-76061758D01*
X133211758Y-75686217D01*
X133415000Y-75195548D01*
X133415000Y-74664452D01*
X133211758Y-74173783D01*
X133090000Y-74052025D01*
X133090000Y-73958355D01*
X134613356Y-72435000D01*
X134626645Y-72435000D01*
X136150001Y-73958357D01*
X136150001Y-74038635D01*
X135902458Y-74409109D01*
X135798846Y-74930000D01*
X135902458Y-75450891D01*
X136197519Y-75892481D01*
X136639109Y-76187542D01*
X137028515Y-76265000D01*
X137291485Y-76265000D01*
X137680891Y-76187542D01*
X138122481Y-75892481D01*
X138417542Y-75450891D01*
X138521154Y-74930000D01*
X138417542Y-74409109D01*
X138170000Y-74038636D01*
X138170000Y-73639470D01*
X138189786Y-73539999D01*
X138170000Y-73440528D01*
X138170000Y-73440524D01*
X138111399Y-73145918D01*
X137888169Y-72811831D01*
X137803840Y-72755484D01*
X136077346Y-71028991D01*
X136083113Y-71000000D01*
X135971740Y-70440091D01*
X135654577Y-69965423D01*
X135179909Y-69648260D01*
X134761333Y-69565000D01*
X134478667Y-69565000D01*
X134060091Y-69648260D01*
X133585423Y-69965423D01*
X133268260Y-70440091D01*
X133156887Y-71000000D01*
X133162654Y-71028991D01*
X131436161Y-72755484D01*
X131351832Y-72811831D01*
X131295485Y-72896160D01*
X131295482Y-72896163D01*
X131128602Y-73145918D01*
X131050214Y-73540000D01*
X131070001Y-73639475D01*
X131070001Y-73920000D01*
X130909471Y-73920000D01*
X130810000Y-73900214D01*
X130710529Y-73920000D01*
X130710524Y-73920000D01*
X130415918Y-73978601D01*
X130415916Y-73978602D01*
X130415917Y-73978602D01*
X130166162Y-74145482D01*
X130166160Y-74145484D01*
X130081831Y-74201831D01*
X130025484Y-74286160D01*
X125774845Y-78536800D01*
X125436962Y-78536800D01*
X124895499Y-78761081D01*
X124481081Y-79175499D01*
X124459362Y-79227933D01*
X124225413Y-79154192D01*
X123369605Y-80010000D01*
X124225413Y-80865808D01*
X124459362Y-80792067D01*
X124481081Y-80844501D01*
X124895499Y-81258919D01*
X125436962Y-81483200D01*
X126023038Y-81483200D01*
X126564501Y-81258919D01*
X126816025Y-81007395D01*
X126833643Y-81095965D01*
X126973991Y-81306009D01*
X127184035Y-81446357D01*
X127431800Y-81495640D01*
X129108200Y-81495640D01*
X129355965Y-81446357D01*
X129566009Y-81306009D01*
X129706357Y-81095965D01*
X129721467Y-81020000D01*
X129758729Y-81020000D01*
X129858200Y-81039786D01*
X129957671Y-81020000D01*
X129957676Y-81020000D01*
X130252282Y-80961399D01*
X130586369Y-80738169D01*
X130642718Y-80653837D01*
X132816556Y-78480000D01*
X139600529Y-78480000D01*
X139700000Y-78499786D01*
X139799471Y-78480000D01*
X139799476Y-78480000D01*
X139802183Y-78479462D01*
X137906644Y-80375001D01*
X137412044Y-80375001D01*
X137445000Y-80295439D01*
X137445000Y-79724561D01*
X137226534Y-79197138D01*
X136822862Y-78793466D01*
X136295439Y-78575000D01*
X135724561Y-78575000D01*
X135197138Y-78793466D01*
X134793466Y-79197138D01*
X134575000Y-79724561D01*
X134575000Y-80295439D01*
X134607956Y-80375001D01*
X133270955Y-80375001D01*
X133171483Y-80355215D01*
X133072011Y-80375001D01*
X133072007Y-80375001D01*
X132838598Y-80421429D01*
X132777400Y-80433602D01*
X132527645Y-80600483D01*
X132527643Y-80600485D01*
X132443314Y-80656832D01*
X132386967Y-80741161D01*
X130318129Y-82810000D01*
X127099471Y-82810000D01*
X127000000Y-82790214D01*
X126900529Y-82810000D01*
X126900524Y-82810000D01*
X126605918Y-82868601D01*
X126536477Y-82915000D01*
X126356162Y-83035482D01*
X126356160Y-83035484D01*
X126271831Y-83091831D01*
X126215484Y-83176160D01*
X123234845Y-86156800D01*
X122896962Y-86156800D01*
X122355499Y-86381081D01*
X121941081Y-86795499D01*
X121919362Y-86847933D01*
X121685413Y-86774192D01*
X120829605Y-87630000D01*
X120470395Y-87630000D01*
X119614587Y-86774192D01*
X119364510Y-86853017D01*
X119165023Y-87404097D01*
X109189665Y-87404097D01*
X109999175Y-86594587D01*
X119794192Y-86594587D01*
X120650000Y-87450395D01*
X121505808Y-86594587D01*
X121426983Y-86344510D01*
X120875903Y-86145023D01*
X120290431Y-86171611D01*
X119873017Y-86344510D01*
X119794192Y-86594587D01*
X109999175Y-86594587D01*
X115573762Y-81020000D01*
X119576580Y-81020000D01*
X119815499Y-81258919D01*
X120356962Y-81483200D01*
X120943038Y-81483200D01*
X121484501Y-81258919D01*
X121698007Y-81045413D01*
X122334192Y-81045413D01*
X122413017Y-81295490D01*
X122964097Y-81494977D01*
X123549569Y-81468389D01*
X123966983Y-81295490D01*
X124045808Y-81045413D01*
X123190000Y-80189605D01*
X122334192Y-81045413D01*
X121698007Y-81045413D01*
X121898919Y-80844501D01*
X121920638Y-80792067D01*
X122154587Y-80865808D01*
X123010395Y-80010000D01*
X122154587Y-79154192D01*
X121920638Y-79227933D01*
X121898919Y-79175499D01*
X121698007Y-78974587D01*
X122334192Y-78974587D01*
X123190000Y-79830395D01*
X124045808Y-78974587D01*
X123966983Y-78724510D01*
X123415903Y-78525023D01*
X122830431Y-78551611D01*
X122413017Y-78724510D01*
X122334192Y-78974587D01*
X121698007Y-78974587D01*
X121484501Y-78761081D01*
X120943038Y-78536800D01*
X120356962Y-78536800D01*
X119815499Y-78761081D01*
X119576580Y-79000000D01*
X115254878Y-79000000D01*
X115155406Y-78980214D01*
X115055934Y-79000000D01*
X115055930Y-79000000D01*
X114822521Y-79046428D01*
X114761323Y-79058601D01*
X114511568Y-79225482D01*
X114511566Y-79225484D01*
X114427237Y-79281831D01*
X114370890Y-79366160D01*
X105479631Y-88257420D01*
X105624977Y-87855903D01*
X105598389Y-87270431D01*
X105425490Y-86853017D01*
X105175413Y-86774192D01*
X104319605Y-87630000D01*
X104333748Y-87644143D01*
X104154143Y-87823748D01*
X104140000Y-87809605D01*
X103284192Y-88665413D01*
X103363017Y-88915490D01*
X103914097Y-89114977D01*
X104499569Y-89088389D01*
X104754086Y-88982964D01*
X98070000Y-95667051D01*
X98070000Y-88269470D01*
X98089786Y-88169999D01*
X98070000Y-88070528D01*
X98070000Y-88070524D01*
X98011399Y-87775918D01*
X97993200Y-87748681D01*
X97993200Y-87404097D01*
X102655023Y-87404097D01*
X102681611Y-87989569D01*
X102854510Y-88406983D01*
X103104587Y-88485808D01*
X103960395Y-87630000D01*
X103104587Y-86774192D01*
X102854510Y-86853017D01*
X102655023Y-87404097D01*
X97993200Y-87404097D01*
X97993200Y-87336962D01*
X97768919Y-86795499D01*
X97354501Y-86381081D01*
X97302067Y-86359362D01*
X97375808Y-86125413D01*
X96520000Y-85269605D01*
X95664192Y-86125413D01*
X95737933Y-86359362D01*
X95685499Y-86381081D01*
X95271081Y-86795499D01*
X95046800Y-87336962D01*
X95046800Y-87923038D01*
X95271081Y-88464501D01*
X95685499Y-88878919D01*
X96050001Y-89029900D01*
X96050000Y-98005935D01*
X96030214Y-98105406D01*
X96050000Y-98204877D01*
X96050000Y-98213635D01*
X96046844Y-98218358D01*
X95723633Y-97930522D01*
X95389400Y-97792090D01*
X95187000Y-97915776D01*
X95187000Y-98933000D01*
X95207000Y-98933000D01*
X95207000Y-99187000D01*
X95187000Y-99187000D01*
X95187000Y-100204224D01*
X95389400Y-100327910D01*
X95723633Y-100189478D01*
X96046844Y-99901642D01*
X96050001Y-99906366D01*
X96050001Y-99915119D01*
X96030214Y-100014594D01*
X96108602Y-100408676D01*
X96275482Y-100658431D01*
X96275485Y-100658434D01*
X96331832Y-100742763D01*
X96416161Y-100799110D01*
X96507051Y-100890000D01*
X84530000Y-100890000D01*
X84530000Y-99389402D01*
X93792080Y-99389402D01*
X94014651Y-99849540D01*
X94396367Y-100189478D01*
X94730600Y-100327910D01*
X94933000Y-100204224D01*
X94933000Y-99187000D01*
X93914910Y-99187000D01*
X93792080Y-99389402D01*
X84530000Y-99389402D01*
X84530000Y-98730598D01*
X93792080Y-98730598D01*
X93914910Y-98933000D01*
X94933000Y-98933000D01*
X94933000Y-97915776D01*
X94730600Y-97792090D01*
X94396367Y-97930522D01*
X94014651Y-98270460D01*
X93792080Y-98730598D01*
X84530000Y-98730598D01*
X84530000Y-86689400D01*
X85092090Y-86689400D01*
X85230522Y-87023633D01*
X85570460Y-87405349D01*
X86030598Y-87627920D01*
X86233000Y-87505090D01*
X86233000Y-86487000D01*
X86487000Y-86487000D01*
X86487000Y-87505090D01*
X86689402Y-87627920D01*
X87149540Y-87405349D01*
X87489478Y-87023633D01*
X87627910Y-86689400D01*
X87504224Y-86487000D01*
X86487000Y-86487000D01*
X86233000Y-86487000D01*
X85215776Y-86487000D01*
X85092090Y-86689400D01*
X84530000Y-86689400D01*
X84530000Y-81558690D01*
X85050000Y-81558690D01*
X85050000Y-82074250D01*
X85208750Y-82233000D01*
X86233000Y-82233000D01*
X86233000Y-81208750D01*
X86487000Y-81208750D01*
X86487000Y-82233000D01*
X87511250Y-82233000D01*
X87670000Y-82074250D01*
X87670000Y-81558690D01*
X87573327Y-81325301D01*
X87394698Y-81146673D01*
X87161309Y-81050000D01*
X86645750Y-81050000D01*
X86487000Y-81208750D01*
X86233000Y-81208750D01*
X86074250Y-81050000D01*
X85558691Y-81050000D01*
X85325302Y-81146673D01*
X85146673Y-81325301D01*
X85050000Y-81558690D01*
X84530000Y-81558690D01*
X84530000Y-74930000D01*
X84998846Y-74930000D01*
X85102458Y-75450891D01*
X85397519Y-75892481D01*
X85839109Y-76187542D01*
X86228515Y-76265000D01*
X86266645Y-76265000D01*
X87890001Y-77888357D01*
X87890000Y-83350000D01*
X87591842Y-83350000D01*
X87670000Y-83161310D01*
X87670000Y-82645750D01*
X87511250Y-82487000D01*
X86487000Y-82487000D01*
X86487000Y-82507000D01*
X86233000Y-82507000D01*
X86233000Y-82487000D01*
X85208750Y-82487000D01*
X85050000Y-82645750D01*
X85050000Y-83161310D01*
X85146673Y-83394699D01*
X85316198Y-83564223D01*
X85126007Y-83848864D01*
X85024336Y-84360000D01*
X85126007Y-84871136D01*
X85415543Y-85304457D01*
X85518358Y-85373156D01*
X85230522Y-85696367D01*
X85092090Y-86030600D01*
X85215776Y-86233000D01*
X86233000Y-86233000D01*
X86233000Y-86213000D01*
X86487000Y-86213000D01*
X86487000Y-86233000D01*
X87504224Y-86233000D01*
X87627910Y-86030600D01*
X87489478Y-85696367D01*
X87201642Y-85373156D01*
X87206365Y-85370000D01*
X88260529Y-85370000D01*
X88360000Y-85389786D01*
X88459471Y-85370000D01*
X88459476Y-85370000D01*
X88754082Y-85311399D01*
X89088169Y-85088169D01*
X89144518Y-85003837D01*
X89284257Y-84864097D01*
X95035023Y-84864097D01*
X95061611Y-85449569D01*
X95234510Y-85866983D01*
X95484587Y-85945808D01*
X96340395Y-85090000D01*
X96699605Y-85090000D01*
X97555413Y-85945808D01*
X97805490Y-85866983D01*
X98004977Y-85315903D01*
X97978389Y-84730431D01*
X97805490Y-84313017D01*
X97555413Y-84234192D01*
X96699605Y-85090000D01*
X96340395Y-85090000D01*
X95484587Y-84234192D01*
X95234510Y-84313017D01*
X95035023Y-84864097D01*
X89284257Y-84864097D01*
X89543835Y-84604519D01*
X89628169Y-84548169D01*
X89851399Y-84214082D01*
X89910000Y-83919476D01*
X89910000Y-83919472D01*
X89929786Y-83820001D01*
X89910000Y-83720530D01*
X89910000Y-77569470D01*
X89929786Y-77469999D01*
X89910000Y-77370528D01*
X89910000Y-77370524D01*
X89851399Y-77075918D01*
X89767087Y-76949736D01*
X89684517Y-76826161D01*
X89684516Y-76826160D01*
X89628169Y-76741831D01*
X89543840Y-76685484D01*
X87704468Y-74846112D01*
X87668334Y-74664452D01*
X90105000Y-74664452D01*
X90105000Y-75195548D01*
X90308242Y-75686217D01*
X90683783Y-76061758D01*
X91174452Y-76265000D01*
X91705548Y-76265000D01*
X92196217Y-76061758D01*
X92571758Y-75686217D01*
X92775000Y-75195548D01*
X92775000Y-74664452D01*
X92571758Y-74173783D01*
X92463165Y-74065190D01*
X93973356Y-72555000D01*
X93986645Y-72555000D01*
X95494091Y-74062446D01*
X95262458Y-74409109D01*
X95175532Y-74846112D01*
X93336161Y-76685484D01*
X93251832Y-76741831D01*
X93195485Y-76826160D01*
X93195482Y-76826163D01*
X93028602Y-77075918D01*
X92950214Y-77470000D01*
X92970001Y-77569475D01*
X92970000Y-81180529D01*
X92950214Y-81280000D01*
X92970000Y-81379471D01*
X92970000Y-81379475D01*
X93028601Y-81674081D01*
X93251831Y-82008169D01*
X93336163Y-82064518D01*
X94465482Y-83193837D01*
X94521831Y-83278169D01*
X94855918Y-83501399D01*
X95150524Y-83560000D01*
X95150528Y-83560000D01*
X95249999Y-83579786D01*
X95349470Y-83560000D01*
X95446580Y-83560000D01*
X95685499Y-83798919D01*
X95737933Y-83820638D01*
X95664192Y-84054587D01*
X96520000Y-84910395D01*
X97375808Y-84054587D01*
X97302067Y-83820638D01*
X97354501Y-83798919D01*
X97768919Y-83384501D01*
X97993200Y-82843038D01*
X97993200Y-82256962D01*
X97768919Y-81715499D01*
X97517395Y-81463975D01*
X97605965Y-81446357D01*
X97816009Y-81306009D01*
X97956357Y-81095965D01*
X97971467Y-81020000D01*
X98008729Y-81020000D01*
X98108200Y-81039786D01*
X98207671Y-81020000D01*
X98207676Y-81020000D01*
X98502282Y-80961399D01*
X98836369Y-80738169D01*
X98892718Y-80653837D01*
X99829593Y-79716962D01*
X102666800Y-79716962D01*
X102666800Y-80303038D01*
X102891081Y-80844501D01*
X103305499Y-81258919D01*
X103356393Y-81280000D01*
X103305499Y-81301081D01*
X102891081Y-81715499D01*
X102666800Y-82256962D01*
X102666800Y-82843038D01*
X102891081Y-83384501D01*
X103305499Y-83798919D01*
X103356393Y-83820000D01*
X103305499Y-83841081D01*
X102891081Y-84255499D01*
X102666800Y-84796962D01*
X102666800Y-85383038D01*
X102891081Y-85924501D01*
X103305499Y-86338919D01*
X103357933Y-86360638D01*
X103284192Y-86594587D01*
X104140000Y-87450395D01*
X104995808Y-86594587D01*
X104922067Y-86360638D01*
X104974501Y-86338919D01*
X105388919Y-85924501D01*
X105613200Y-85383038D01*
X105613200Y-84796962D01*
X105388919Y-84255499D01*
X104974501Y-83841081D01*
X104923607Y-83820000D01*
X104974501Y-83798919D01*
X105213420Y-83560000D01*
X105310529Y-83560000D01*
X105410000Y-83579786D01*
X105509471Y-83560000D01*
X105509476Y-83560000D01*
X105804082Y-83501399D01*
X106138169Y-83278169D01*
X106194518Y-83193837D01*
X110908356Y-78480000D01*
X120550529Y-78480000D01*
X120650000Y-78499786D01*
X120749471Y-78480000D01*
X120749476Y-78480000D01*
X121044082Y-78421399D01*
X121378169Y-78198169D01*
X121434518Y-78113837D01*
X123283356Y-76265000D01*
X123455548Y-76265000D01*
X123946217Y-76061758D01*
X124067975Y-75940000D01*
X126108636Y-75940000D01*
X126479109Y-76187542D01*
X126868515Y-76265000D01*
X127131485Y-76265000D01*
X127520891Y-76187542D01*
X127962481Y-75892481D01*
X128257542Y-75450891D01*
X128361154Y-74930000D01*
X128257542Y-74409109D01*
X128010000Y-74038636D01*
X128010000Y-70268355D01*
X128363355Y-69915000D01*
X128401485Y-69915000D01*
X128790891Y-69837542D01*
X129232481Y-69542481D01*
X129527542Y-69100891D01*
X129631154Y-68580000D01*
X129527542Y-68059109D01*
X129232481Y-67617519D01*
X128790891Y-67322458D01*
X128401485Y-67245000D01*
X128363356Y-67245000D01*
X124352808Y-63234452D01*
X126935000Y-63234452D01*
X126935000Y-63765548D01*
X127138242Y-64256217D01*
X127513783Y-64631758D01*
X128004452Y-64835000D01*
X128535548Y-64835000D01*
X129026217Y-64631758D01*
X129401758Y-64256217D01*
X129605000Y-63765548D01*
X129605000Y-63234452D01*
X129401758Y-62743783D01*
X129280000Y-62622025D01*
X129280000Y-61378355D01*
X130803356Y-59855000D01*
X130951333Y-59855000D01*
X131369909Y-59771740D01*
X131844577Y-59454577D01*
X132161740Y-58979909D01*
X132273113Y-58420000D01*
X132267346Y-58391009D01*
X132723837Y-57934518D01*
X132808169Y-57878169D01*
X133031399Y-57544082D01*
X133090000Y-57249476D01*
X133090000Y-57249472D01*
X133109786Y-57150001D01*
X133090000Y-57050530D01*
X133090000Y-52102239D01*
X133350000Y-51842239D01*
X133610000Y-52102239D01*
X133610001Y-62480603D01*
X133403466Y-62687138D01*
X133185000Y-63214561D01*
X133185000Y-63785439D01*
X133403466Y-64312862D01*
X133807138Y-64716534D01*
X134334561Y-64935000D01*
X134905439Y-64935000D01*
X135432862Y-64716534D01*
X135836534Y-64312862D01*
X136055000Y-63785439D01*
X136055000Y-63214561D01*
X135836534Y-62687138D01*
X135630000Y-62480604D01*
X135630000Y-52102239D01*
X135890000Y-51842239D01*
X136150000Y-52102239D01*
X136150001Y-57170524D01*
X136130214Y-57270000D01*
X136150001Y-57369476D01*
X136177995Y-57510213D01*
X136208602Y-57664082D01*
X136375482Y-57913837D01*
X136375485Y-57913840D01*
X136431832Y-57998169D01*
X136516160Y-58054515D01*
X136875000Y-58413355D01*
X136875000Y-58705439D01*
X137093466Y-59232862D01*
X137300000Y-59439396D01*
X137300001Y-60740525D01*
X137280214Y-60840000D01*
X137300001Y-60939476D01*
X137323871Y-61059476D01*
X137358602Y-61234082D01*
X137525482Y-61483837D01*
X137525485Y-61483840D01*
X137581832Y-61568169D01*
X137666161Y-61624516D01*
X139625532Y-63583887D01*
X139712458Y-64020891D01*
X140007519Y-64462481D01*
X140449109Y-64757542D01*
X140838515Y-64835000D01*
X141101485Y-64835000D01*
X141490891Y-64757542D01*
X141932481Y-64462481D01*
X142227542Y-64020891D01*
X142331154Y-63500000D01*
X142278334Y-63234452D01*
X145985000Y-63234452D01*
X145985000Y-63765548D01*
X146188242Y-64256217D01*
X146563783Y-64631758D01*
X147054452Y-64835000D01*
X147585548Y-64835000D01*
X148076217Y-64631758D01*
X148451758Y-64256217D01*
X148655000Y-63765548D01*
X148655000Y-63593355D01*
X150623837Y-61624518D01*
X150708169Y-61568169D01*
X150931399Y-61234082D01*
X150990000Y-60939476D01*
X150990000Y-60939472D01*
X151009786Y-60840001D01*
X150990000Y-60740530D01*
X150990000Y-59470999D01*
X151014577Y-59454577D01*
X151331740Y-58979909D01*
X151443113Y-58420000D01*
X151437346Y-58391009D01*
X151773840Y-58054516D01*
X151858169Y-57998169D01*
X151914516Y-57913840D01*
X151914518Y-57913838D01*
X152081399Y-57664083D01*
X152105268Y-57544083D01*
X152140000Y-57369476D01*
X152140000Y-57369472D01*
X152159786Y-57270000D01*
X152140000Y-57170528D01*
X152140000Y-52102239D01*
X152400000Y-51842239D01*
X152660000Y-52102239D01*
X152660001Y-62480603D01*
X152453466Y-62687138D01*
X152235000Y-63214561D01*
X152235000Y-63785439D01*
X152453466Y-64312862D01*
X152857138Y-64716534D01*
X153384561Y-64935000D01*
X153955439Y-64935000D01*
X154482862Y-64716534D01*
X154886534Y-64312862D01*
X155105000Y-63785439D01*
X155105000Y-63214561D01*
X154886534Y-62687138D01*
X154680000Y-62480604D01*
X154680000Y-52102239D01*
X154940000Y-51842239D01*
X155200000Y-52102239D01*
X155200001Y-57050524D01*
X155180214Y-57150000D01*
X155200001Y-57249476D01*
X155207712Y-57288242D01*
X155258602Y-57544082D01*
X155425482Y-57793837D01*
X155425485Y-57793840D01*
X155481832Y-57878169D01*
X155566161Y-57934516D01*
X156045000Y-58413355D01*
X156045000Y-58705439D01*
X156263466Y-59232862D01*
X156470000Y-59439396D01*
X156470001Y-60860524D01*
X156450214Y-60960000D01*
X156528602Y-61354082D01*
X156695482Y-61603837D01*
X156695485Y-61603840D01*
X156751832Y-61688169D01*
X156836161Y-61744516D01*
X158675532Y-63583888D01*
X158762458Y-64020891D01*
X159057519Y-64462481D01*
X159499109Y-64757542D01*
X159888515Y-64835000D01*
X160151485Y-64835000D01*
X160540891Y-64757542D01*
X160982481Y-64462481D01*
X161277542Y-64020891D01*
X161381154Y-63500000D01*
X161277542Y-62979109D01*
X160982481Y-62537519D01*
X160540891Y-62242458D01*
X160151485Y-62165000D01*
X160113356Y-62165000D01*
X158490000Y-60541645D01*
X158490000Y-59439396D01*
X158696534Y-59232862D01*
X158915000Y-58705439D01*
X158915000Y-58134561D01*
X158696534Y-57607138D01*
X158292862Y-57203466D01*
X157765439Y-56985000D01*
X157473355Y-56985000D01*
X157220000Y-56731645D01*
X157220000Y-52102239D01*
X157596086Y-51726153D01*
X157845000Y-51125222D01*
X157845000Y-50474778D01*
X157836761Y-50454887D01*
X159555000Y-50454887D01*
X159555000Y-51145113D01*
X159819138Y-51782799D01*
X160307201Y-52270862D01*
X160944887Y-52535000D01*
X161635113Y-52535000D01*
X162272799Y-52270862D01*
X162760862Y-51782799D01*
X163025000Y-51145113D01*
X163025000Y-50454887D01*
X162760862Y-49817201D01*
X162272799Y-49329138D01*
X161635113Y-49065000D01*
X160944887Y-49065000D01*
X160307201Y-49329138D01*
X159819138Y-49817201D01*
X159555000Y-50454887D01*
X157836761Y-50454887D01*
X157596086Y-49873847D01*
X157136153Y-49413914D01*
X156535222Y-49165000D01*
X155884778Y-49165000D01*
X155283847Y-49413914D01*
X154940000Y-49757761D01*
X154596153Y-49413914D01*
X153995222Y-49165000D01*
X153344778Y-49165000D01*
X152743847Y-49413914D01*
X152400000Y-49757761D01*
X152056153Y-49413914D01*
X151455222Y-49165000D01*
X150804778Y-49165000D01*
X150203847Y-49413914D01*
X149743914Y-49873847D01*
X149495000Y-50474778D01*
X149495000Y-51125222D01*
X149743914Y-51726153D01*
X150120000Y-52102239D01*
X150120001Y-56851643D01*
X149986644Y-56985000D01*
X149838667Y-56985000D01*
X149420091Y-57068260D01*
X148945423Y-57385423D01*
X148628260Y-57860091D01*
X148516887Y-58420000D01*
X148628260Y-58979909D01*
X148945423Y-59454577D01*
X148970000Y-59470999D01*
X148970001Y-60421644D01*
X147226645Y-62165000D01*
X147054452Y-62165000D01*
X146563783Y-62368242D01*
X146188242Y-62743783D01*
X145985000Y-63234452D01*
X142278334Y-63234452D01*
X142227542Y-62979109D01*
X141932481Y-62537519D01*
X141490891Y-62242458D01*
X141101485Y-62165000D01*
X141063355Y-62165000D01*
X139320000Y-60421645D01*
X139320000Y-59439396D01*
X139526534Y-59232862D01*
X139745000Y-58705439D01*
X139745000Y-58134561D01*
X139526534Y-57607138D01*
X139122862Y-57203466D01*
X138595439Y-56985000D01*
X138303355Y-56985000D01*
X138170000Y-56851645D01*
X138170000Y-52102239D01*
X138546086Y-51726153D01*
X138795000Y-51125222D01*
X138795000Y-50474778D01*
X138546086Y-49873847D01*
X138086153Y-49413914D01*
X137485222Y-49165000D01*
X136834778Y-49165000D01*
X136233847Y-49413914D01*
X135890000Y-49757761D01*
X135546153Y-49413914D01*
X134945222Y-49165000D01*
X134294778Y-49165000D01*
X133693847Y-49413914D01*
X133350000Y-49757761D01*
X133006153Y-49413914D01*
X132405222Y-49165000D01*
X131754778Y-49165000D01*
X131153847Y-49413914D01*
X130693914Y-49873847D01*
X130445000Y-50474778D01*
X130445000Y-51125222D01*
X130693914Y-51726153D01*
X131070000Y-52102239D01*
X131070001Y-56731644D01*
X130816645Y-56985000D01*
X130668667Y-56985000D01*
X130250091Y-57068260D01*
X129775423Y-57385423D01*
X129458260Y-57860091D01*
X129346887Y-58420000D01*
X129352654Y-58448991D01*
X127626161Y-60175484D01*
X127541832Y-60231831D01*
X127485485Y-60316160D01*
X127485482Y-60316163D01*
X127379674Y-60474517D01*
X127318602Y-60565918D01*
X127264084Y-60840000D01*
X127240214Y-60960000D01*
X127260001Y-61059475D01*
X127260000Y-62622025D01*
X127138242Y-62743783D01*
X126935000Y-63234452D01*
X124352808Y-63234452D01*
X124200000Y-63081645D01*
X124200000Y-59297975D01*
X124321758Y-59176217D01*
X124525000Y-58685548D01*
X124525000Y-58154452D01*
X124321758Y-57663783D01*
X123946217Y-57288242D01*
X123455548Y-57085000D01*
X122924452Y-57085000D01*
X122433783Y-57288242D01*
X122058242Y-57663783D01*
X121855000Y-58154452D01*
X121855000Y-58685548D01*
X122058242Y-59176217D01*
X122180000Y-59297975D01*
X122180001Y-63400524D01*
X122160214Y-63500000D01*
X122180001Y-63599475D01*
X122180001Y-63599476D01*
X122238602Y-63894081D01*
X122238602Y-63894082D01*
X122405482Y-64143837D01*
X122405485Y-64143840D01*
X122461832Y-64228169D01*
X122546161Y-64284516D01*
X126841645Y-68580000D01*
X126356161Y-69065484D01*
X126271832Y-69121831D01*
X126215485Y-69206160D01*
X126215482Y-69206163D01*
X126048603Y-69455917D01*
X126048602Y-69455918D01*
X126031384Y-69542481D01*
X125970214Y-69850000D01*
X125990001Y-69949476D01*
X125990000Y-73920000D01*
X124067975Y-73920000D01*
X123946217Y-73798242D01*
X123455548Y-73595000D01*
X122924452Y-73595000D01*
X122433783Y-73798242D01*
X122058242Y-74173783D01*
X121855000Y-74664452D01*
X121855000Y-74836644D01*
X120231645Y-76460000D01*
X110589471Y-76460000D01*
X110490000Y-76440214D01*
X110390529Y-76460000D01*
X110390524Y-76460000D01*
X110095918Y-76518601D01*
X110095916Y-76518602D01*
X110095917Y-76518602D01*
X109846162Y-76685482D01*
X109846160Y-76685484D01*
X109761831Y-76741831D01*
X109705484Y-76826160D01*
X105102532Y-81429112D01*
X104974501Y-81301081D01*
X104923607Y-81280000D01*
X104974501Y-81258919D01*
X105388919Y-80844501D01*
X105613200Y-80303038D01*
X105613200Y-79716962D01*
X105388919Y-79175499D01*
X104974501Y-78761081D01*
X104433038Y-78536800D01*
X103846962Y-78536800D01*
X103305499Y-78761081D01*
X102891081Y-79175499D01*
X102666800Y-79716962D01*
X99829593Y-79716962D01*
X102243841Y-77302715D01*
X102328169Y-77246369D01*
X102384516Y-77162040D01*
X102384518Y-77162038D01*
X102551398Y-76912283D01*
X102551399Y-76912282D01*
X102610000Y-76617676D01*
X102610000Y-76617671D01*
X102629786Y-76518200D01*
X102610000Y-76418729D01*
X102610000Y-75940000D01*
X107058636Y-75940000D01*
X107429109Y-76187542D01*
X107818515Y-76265000D01*
X108081485Y-76265000D01*
X108470891Y-76187542D01*
X108912481Y-75892481D01*
X109207542Y-75450891D01*
X109311154Y-74930000D01*
X109258334Y-74664452D01*
X111695000Y-74664452D01*
X111695000Y-75195548D01*
X111898242Y-75686217D01*
X112273783Y-76061758D01*
X112764452Y-76265000D01*
X113295548Y-76265000D01*
X113786217Y-76061758D01*
X114161758Y-75686217D01*
X114365000Y-75195548D01*
X114365000Y-74664452D01*
X114161758Y-74173783D01*
X114040000Y-74052025D01*
X114040000Y-73958355D01*
X115563356Y-72435000D01*
X115576645Y-72435000D01*
X117100001Y-73958357D01*
X117100001Y-74038635D01*
X116852458Y-74409109D01*
X116748846Y-74930000D01*
X116852458Y-75450891D01*
X117147519Y-75892481D01*
X117589109Y-76187542D01*
X117978515Y-76265000D01*
X118241485Y-76265000D01*
X118630891Y-76187542D01*
X119072481Y-75892481D01*
X119367542Y-75450891D01*
X119471154Y-74930000D01*
X119367542Y-74409109D01*
X119120000Y-74038636D01*
X119120000Y-73639470D01*
X119139786Y-73539999D01*
X119120000Y-73440528D01*
X119120000Y-73440524D01*
X119061399Y-73145918D01*
X118838169Y-72811831D01*
X118753840Y-72755484D01*
X117027346Y-71028991D01*
X117033113Y-71000000D01*
X116921740Y-70440091D01*
X116604577Y-69965423D01*
X116129909Y-69648260D01*
X115711333Y-69565000D01*
X115428667Y-69565000D01*
X115010091Y-69648260D01*
X114535423Y-69965423D01*
X114218260Y-70440091D01*
X114106887Y-71000000D01*
X114112654Y-71028991D01*
X112386161Y-72755484D01*
X112301832Y-72811831D01*
X112245485Y-72896160D01*
X112245482Y-72896163D01*
X112078602Y-73145918D01*
X112000214Y-73540000D01*
X112020001Y-73639475D01*
X112020001Y-74052024D01*
X111898242Y-74173783D01*
X111695000Y-74664452D01*
X109258334Y-74664452D01*
X109207542Y-74409109D01*
X108960000Y-74038636D01*
X108960000Y-69949470D01*
X108979786Y-69849999D01*
X108960000Y-69750528D01*
X108960000Y-69750524D01*
X108901399Y-69455918D01*
X108678169Y-69121831D01*
X108593837Y-69065482D01*
X108015000Y-68486645D01*
X108015000Y-68314452D01*
X107811758Y-67823783D01*
X107436217Y-67448242D01*
X106945548Y-67245000D01*
X106414452Y-67245000D01*
X105923783Y-67448242D01*
X105548242Y-67823783D01*
X105345000Y-68314452D01*
X105345000Y-68845548D01*
X105548242Y-69336217D01*
X105923783Y-69711758D01*
X106414452Y-69915000D01*
X106586645Y-69915000D01*
X106940001Y-70268356D01*
X106940000Y-73920000D01*
X102477975Y-73920000D01*
X102356217Y-73798242D01*
X101865548Y-73595000D01*
X101693356Y-73595000D01*
X100070000Y-71971645D01*
X100070000Y-69457975D01*
X100191758Y-69336217D01*
X100395000Y-68845548D01*
X100395000Y-68314452D01*
X100191758Y-67823783D01*
X99816217Y-67448242D01*
X99325548Y-67245000D01*
X98794452Y-67245000D01*
X98303783Y-67448242D01*
X97928242Y-67823783D01*
X97725000Y-68314452D01*
X97725000Y-68845548D01*
X97928242Y-69336217D01*
X98050000Y-69457975D01*
X98050001Y-72290525D01*
X98030214Y-72390000D01*
X98108602Y-72784082D01*
X98275482Y-73033837D01*
X98275485Y-73033840D01*
X98331832Y-73118169D01*
X98416161Y-73174516D01*
X100265000Y-75023356D01*
X100265000Y-75195548D01*
X100468242Y-75686217D01*
X100590000Y-75807975D01*
X100590000Y-76099844D01*
X97880034Y-78809811D01*
X97816009Y-78713991D01*
X97605965Y-78573643D01*
X97358200Y-78524360D01*
X95681800Y-78524360D01*
X95434035Y-78573643D01*
X95223991Y-78713991D01*
X95083643Y-78924035D01*
X95034360Y-79171800D01*
X95034360Y-80848200D01*
X95048713Y-80920358D01*
X94990000Y-80861645D01*
X94990000Y-77888355D01*
X96613356Y-76265000D01*
X96651485Y-76265000D01*
X97040891Y-76187542D01*
X97482481Y-75892481D01*
X97777542Y-75450891D01*
X97881154Y-74930000D01*
X97777542Y-74409109D01*
X97530000Y-74038636D01*
X97530000Y-73759470D01*
X97549786Y-73659999D01*
X97530000Y-73560528D01*
X97530000Y-73560524D01*
X97471399Y-73265918D01*
X97400034Y-73159113D01*
X97304517Y-73016161D01*
X97304516Y-73016160D01*
X97248169Y-72931831D01*
X97163840Y-72875484D01*
X95437346Y-71148991D01*
X95443113Y-71120000D01*
X95331740Y-70560091D01*
X95014577Y-70085423D01*
X94539909Y-69768260D01*
X94121333Y-69685000D01*
X93838667Y-69685000D01*
X93420091Y-69768260D01*
X92945423Y-70085423D01*
X92628260Y-70560091D01*
X92516887Y-71120000D01*
X92522654Y-71148991D01*
X90796161Y-72875484D01*
X90711832Y-72931831D01*
X90655485Y-73016160D01*
X90655482Y-73016163D01*
X90518349Y-73221398D01*
X90488602Y-73265918D01*
X90434084Y-73540000D01*
X90410214Y-73660000D01*
X90430001Y-73759475D01*
X90430001Y-74052024D01*
X90308242Y-74173783D01*
X90105000Y-74664452D01*
X87668334Y-74664452D01*
X87617542Y-74409109D01*
X87370000Y-74038636D01*
X87370000Y-71538355D01*
X88993356Y-69915000D01*
X89031485Y-69915000D01*
X89420891Y-69837542D01*
X89862481Y-69542481D01*
X90157542Y-69100891D01*
X90261154Y-68580000D01*
X90157542Y-68059109D01*
X89862481Y-67617519D01*
X89420891Y-67322458D01*
X89031485Y-67245000D01*
X88768515Y-67245000D01*
X88379109Y-67322458D01*
X87937519Y-67617519D01*
X87642458Y-68059109D01*
X87555532Y-68496112D01*
X85716161Y-70335484D01*
X85631832Y-70391831D01*
X85575485Y-70476160D01*
X85575482Y-70476163D01*
X85408602Y-70725918D01*
X85354084Y-71000000D01*
X85330214Y-71120000D01*
X85350001Y-71219475D01*
X85350000Y-74038636D01*
X85102458Y-74409109D01*
X84998846Y-74930000D01*
X84530000Y-74930000D01*
X84530000Y-63234452D01*
X87565000Y-63234452D01*
X87565000Y-63765548D01*
X87768242Y-64256217D01*
X88143783Y-64631758D01*
X88634452Y-64835000D01*
X89165548Y-64835000D01*
X89656217Y-64631758D01*
X90031758Y-64256217D01*
X90235000Y-63765548D01*
X90235000Y-63234452D01*
X90031758Y-62743783D01*
X89910000Y-62622025D01*
X89910000Y-60228355D01*
X90283355Y-59855000D01*
X90431333Y-59855000D01*
X90849909Y-59771740D01*
X91324577Y-59454577D01*
X91641740Y-58979909D01*
X91753113Y-58420000D01*
X91641740Y-57860091D01*
X91324577Y-57385423D01*
X91300000Y-57369001D01*
X91300000Y-52435000D01*
X91765222Y-52435000D01*
X92366153Y-52186086D01*
X92710000Y-51842239D01*
X92970001Y-52102240D01*
X92970000Y-62600604D01*
X92763466Y-62807138D01*
X92545000Y-63334561D01*
X92545000Y-63905439D01*
X92763466Y-64432862D01*
X93167138Y-64836534D01*
X93694561Y-65055000D01*
X94265439Y-65055000D01*
X94792862Y-64836534D01*
X95196534Y-64432862D01*
X95415000Y-63905439D01*
X95415000Y-63334561D01*
X95196534Y-62807138D01*
X94990000Y-62600604D01*
X94990000Y-52102239D01*
X95250000Y-51842239D01*
X95593847Y-52186086D01*
X96194778Y-52435000D01*
X96726645Y-52435000D01*
X96780001Y-52488356D01*
X96780000Y-57400604D01*
X96573466Y-57607138D01*
X96355000Y-58134561D01*
X96355000Y-58705439D01*
X96573466Y-59232862D01*
X96977138Y-59636534D01*
X97504561Y-59855000D01*
X97796645Y-59855000D01*
X98050001Y-60108356D01*
X98050000Y-62608636D01*
X97802458Y-62979109D01*
X97698846Y-63500000D01*
X97802458Y-64020891D01*
X98097519Y-64462481D01*
X98539109Y-64757542D01*
X98928515Y-64835000D01*
X99191485Y-64835000D01*
X99580891Y-64757542D01*
X100022481Y-64462481D01*
X100317542Y-64020891D01*
X100421154Y-63500000D01*
X105318846Y-63500000D01*
X105422458Y-64020891D01*
X105717519Y-64462481D01*
X106159109Y-64757542D01*
X106548515Y-64835000D01*
X106811485Y-64835000D01*
X107200891Y-64757542D01*
X107642481Y-64462481D01*
X107937542Y-64020891D01*
X108041154Y-63500000D01*
X107937542Y-62979109D01*
X107690000Y-62608636D01*
X107690000Y-59297975D01*
X107811758Y-59176217D01*
X108015000Y-58685548D01*
X108015000Y-58154452D01*
X107811758Y-57663783D01*
X107436217Y-57288242D01*
X106945548Y-57085000D01*
X106414452Y-57085000D01*
X105923783Y-57288242D01*
X105548242Y-57663783D01*
X105345000Y-58154452D01*
X105345000Y-58685548D01*
X105548242Y-59176217D01*
X105670001Y-59297976D01*
X105670000Y-62608636D01*
X105422458Y-62979109D01*
X105318846Y-63500000D01*
X100421154Y-63500000D01*
X100317542Y-62979109D01*
X100070000Y-62608636D01*
X100070000Y-59789470D01*
X100089786Y-59689999D01*
X100070000Y-59590528D01*
X100070000Y-59590524D01*
X100011399Y-59295918D01*
X99788169Y-58961831D01*
X99703837Y-58905482D01*
X99225000Y-58426645D01*
X99225000Y-58134561D01*
X99006534Y-57607138D01*
X98800000Y-57400604D01*
X98800000Y-53340000D01*
X105318846Y-53340000D01*
X105422458Y-53860891D01*
X105717519Y-54302481D01*
X106159109Y-54597542D01*
X106548515Y-54675000D01*
X106706645Y-54675000D01*
X110422654Y-58391009D01*
X110416887Y-58420000D01*
X110528260Y-58979909D01*
X110750001Y-59311768D01*
X110750000Y-62608636D01*
X110502458Y-62979109D01*
X110398846Y-63500000D01*
X110502458Y-64020891D01*
X110797519Y-64462481D01*
X111239109Y-64757542D01*
X111628515Y-64835000D01*
X111891485Y-64835000D01*
X112280891Y-64757542D01*
X112722481Y-64462481D01*
X113017542Y-64020891D01*
X113121154Y-63500000D01*
X113017542Y-62979109D01*
X112770000Y-62608636D01*
X112770000Y-59551180D01*
X112914577Y-59454577D01*
X113231740Y-58979909D01*
X113343113Y-58420000D01*
X113231740Y-57860091D01*
X112914577Y-57385423D01*
X112439909Y-57068260D01*
X112021333Y-56985000D01*
X111873356Y-56985000D01*
X109238355Y-54350000D01*
X110390529Y-54350000D01*
X110490000Y-54369786D01*
X110589471Y-54350000D01*
X110589476Y-54350000D01*
X110884082Y-54291399D01*
X111218169Y-54068169D01*
X111274518Y-53983837D01*
X112823356Y-52435000D01*
X113355222Y-52435000D01*
X113956153Y-52186086D01*
X114300000Y-51842239D01*
X114560000Y-52102239D01*
X114560001Y-62480603D01*
X114353466Y-62687138D01*
X114135000Y-63214561D01*
X114135000Y-63506644D01*
X111116161Y-66525484D01*
X111031832Y-66581831D01*
X110975485Y-66666160D01*
X110975482Y-66666163D01*
X110808602Y-66915918D01*
X110730214Y-67310000D01*
X110750001Y-67409475D01*
X110750001Y-67702024D01*
X110628242Y-67823783D01*
X110425000Y-68314452D01*
X110425000Y-68845548D01*
X110628242Y-69336217D01*
X111003783Y-69711758D01*
X111494452Y-69915000D01*
X112025548Y-69915000D01*
X112516217Y-69711758D01*
X112891758Y-69336217D01*
X113095000Y-68845548D01*
X113095000Y-68314452D01*
X112891758Y-67823783D01*
X112783165Y-67715190D01*
X115563356Y-64935000D01*
X115576645Y-64935000D01*
X119315000Y-68673356D01*
X119315000Y-68845548D01*
X119518242Y-69336217D01*
X119893783Y-69711758D01*
X120384452Y-69915000D01*
X120915548Y-69915000D01*
X121406217Y-69711758D01*
X121781758Y-69336217D01*
X121985000Y-68845548D01*
X121985000Y-68314452D01*
X121781758Y-67823783D01*
X121406217Y-67448242D01*
X120915548Y-67245000D01*
X120743356Y-67245000D01*
X117005000Y-63506645D01*
X117005000Y-63214561D01*
X116786534Y-62687138D01*
X116580000Y-62480604D01*
X116580000Y-52102239D01*
X116840000Y-51842239D01*
X117183847Y-52186086D01*
X117784778Y-52435000D01*
X118316645Y-52435000D01*
X119865484Y-53983840D01*
X119921831Y-54068169D01*
X120006160Y-54124516D01*
X120006161Y-54124517D01*
X120142953Y-54215918D01*
X120255918Y-54291399D01*
X120550524Y-54350000D01*
X120550528Y-54350000D01*
X120649999Y-54369786D01*
X120749470Y-54350000D01*
X122021644Y-54350000D01*
X119386645Y-56985000D01*
X119094561Y-56985000D01*
X118567138Y-57203466D01*
X118163466Y-57607138D01*
X117945000Y-58134561D01*
X117945000Y-58705439D01*
X118163466Y-59232862D01*
X118370000Y-59439396D01*
X118370001Y-62130525D01*
X118350214Y-62230000D01*
X118370001Y-62329476D01*
X118413588Y-62548602D01*
X118428602Y-62624082D01*
X118595482Y-62873837D01*
X118595485Y-62873840D01*
X118651832Y-62958169D01*
X118736161Y-63014516D01*
X119305532Y-63583887D01*
X119392458Y-64020891D01*
X119687519Y-64462481D01*
X120129109Y-64757542D01*
X120518515Y-64835000D01*
X120781485Y-64835000D01*
X121170891Y-64757542D01*
X121612481Y-64462481D01*
X121907542Y-64020891D01*
X122011154Y-63500000D01*
X121907542Y-62979109D01*
X121612481Y-62537519D01*
X121170891Y-62242458D01*
X120781485Y-62165000D01*
X120743355Y-62165000D01*
X120390000Y-61811645D01*
X120390000Y-59439396D01*
X120596534Y-59232862D01*
X120815000Y-58705439D01*
X120815000Y-58413355D01*
X123833840Y-55394516D01*
X123918169Y-55338169D01*
X123974516Y-55253840D01*
X123974518Y-55253838D01*
X124141398Y-55004083D01*
X124141399Y-55004082D01*
X124200000Y-54709476D01*
X124200000Y-54709471D01*
X124219786Y-54610000D01*
X124200000Y-54510529D01*
X124200000Y-54231364D01*
X124447542Y-53860891D01*
X124551154Y-53340000D01*
X124447542Y-52819109D01*
X124152481Y-52377519D01*
X123710891Y-52082458D01*
X123321485Y-52005000D01*
X123058515Y-52005000D01*
X122669109Y-52082458D01*
X122298636Y-52330000D01*
X121068356Y-52330000D01*
X119745000Y-51006645D01*
X119745000Y-50474778D01*
X119496086Y-49873847D01*
X119036153Y-49413914D01*
X118435222Y-49165000D01*
X117784778Y-49165000D01*
X117183847Y-49413914D01*
X116840000Y-49757761D01*
X116496153Y-49413914D01*
X115895222Y-49165000D01*
X115244778Y-49165000D01*
X114643847Y-49413914D01*
X114300000Y-49757761D01*
X113956153Y-49413914D01*
X113355222Y-49165000D01*
X112704778Y-49165000D01*
X112103847Y-49413914D01*
X111643914Y-49873847D01*
X111395000Y-50474778D01*
X111395000Y-51006644D01*
X110071645Y-52330000D01*
X107571364Y-52330000D01*
X107200891Y-52082458D01*
X106811485Y-52005000D01*
X106548515Y-52005000D01*
X106159109Y-52082458D01*
X105717519Y-52377519D01*
X105422458Y-52819109D01*
X105318846Y-53340000D01*
X98800000Y-53340000D01*
X98800000Y-52169470D01*
X98819786Y-52069999D01*
X98800000Y-51970528D01*
X98800000Y-51970524D01*
X98741399Y-51675918D01*
X98518169Y-51341831D01*
X98433837Y-51285482D01*
X98155000Y-51006645D01*
X98155000Y-50474778D01*
X97906086Y-49873847D01*
X97446153Y-49413914D01*
X96845222Y-49165000D01*
X96194778Y-49165000D01*
X95593847Y-49413914D01*
X95250000Y-49757761D01*
X94906153Y-49413914D01*
X94305222Y-49165000D01*
X93654778Y-49165000D01*
X93053847Y-49413914D01*
X92710000Y-49757761D01*
X92366153Y-49413914D01*
X91765222Y-49165000D01*
X91114778Y-49165000D01*
X90513847Y-49413914D01*
X90053914Y-49873847D01*
X89805000Y-50474778D01*
X89805000Y-51006645D01*
X89646160Y-51165485D01*
X89561832Y-51221831D01*
X89505485Y-51306160D01*
X89505482Y-51306163D01*
X89338602Y-51555918D01*
X89260214Y-51950000D01*
X89280001Y-52049476D01*
X89280000Y-57369001D01*
X89255423Y-57385423D01*
X88938260Y-57860091D01*
X88826887Y-58420000D01*
X88832654Y-58448991D01*
X88256160Y-59025485D01*
X88171832Y-59081831D01*
X88115485Y-59166160D01*
X88115482Y-59166163D01*
X87948602Y-59415918D01*
X87870214Y-59810000D01*
X87890001Y-59909475D01*
X87890000Y-62622025D01*
X87768242Y-62743783D01*
X87565000Y-63234452D01*
X84530000Y-63234452D01*
X84530000Y-50454887D01*
X84625000Y-50454887D01*
X84625000Y-51145113D01*
X84889138Y-51782799D01*
X85377201Y-52270862D01*
X86014887Y-52535000D01*
X86705113Y-52535000D01*
X87342799Y-52270862D01*
X87830862Y-51782799D01*
X88095000Y-51145113D01*
X88095000Y-50454887D01*
X87830862Y-49817201D01*
X87342799Y-49329138D01*
X86705113Y-49065000D01*
X86014887Y-49065000D01*
X85377201Y-49329138D01*
X84889138Y-49817201D01*
X84625000Y-50454887D01*
X84530000Y-50454887D01*
X84530000Y-48970000D01*
X163120000Y-48970000D01*
X163120001Y-79645000D01*
G04 #@! TD*
M02*
