G04 #@! TF.GenerationSoftware,KiCad,Pcbnew,(5.0.1-3-g963ef8bb5)*
G04 #@! TF.CreationDate,2019-03-07T12:24:47-08:00*
G04 #@! TF.ProjectId,Pre-amp,5072652D616D702E6B696361645F7063,rev?*
G04 #@! TF.SameCoordinates,Original*
G04 #@! TF.FileFunction,Soldermask,Top*
G04 #@! TF.FilePolarity,Negative*
%FSLAX46Y46*%
G04 Gerber Fmt 4.6, Leading zero omitted, Abs format (unit mm)*
G04 Created by KiCad (PCBNEW (5.0.1-3-g963ef8bb5)) date Thursday, March 07, 2019 at 12:24:47 PM*
%MOMM*%
%LPD*%
G01*
G04 APERTURE LIST*
%ADD10C,0.100000*%
G04 APERTURE END LIST*
D10*
G36*
X138558600Y-98319867D02*
X138649059Y-98337860D01*
X138785732Y-98394472D01*
X138842715Y-98432547D01*
X138908738Y-98476662D01*
X139013338Y-98581262D01*
X139013340Y-98581265D01*
X139095528Y-98704268D01*
X139152140Y-98840941D01*
X139181000Y-98986033D01*
X139181000Y-99133967D01*
X139152140Y-99279059D01*
X139095528Y-99415732D01*
X139014446Y-99537079D01*
X139013338Y-99538738D01*
X138908738Y-99643338D01*
X138908735Y-99643340D01*
X138785732Y-99725528D01*
X138649059Y-99782140D01*
X138562004Y-99799456D01*
X138503969Y-99811000D01*
X138356031Y-99811000D01*
X138297996Y-99799456D01*
X138210941Y-99782140D01*
X138074268Y-99725528D01*
X137951265Y-99643340D01*
X137951262Y-99643338D01*
X137846662Y-99538738D01*
X137845554Y-99537079D01*
X137764472Y-99415732D01*
X137707860Y-99279059D01*
X137679000Y-99133967D01*
X137679000Y-98986033D01*
X137707860Y-98840941D01*
X137764472Y-98704268D01*
X137846660Y-98581265D01*
X137846662Y-98581262D01*
X137951262Y-98476662D01*
X138017285Y-98432547D01*
X138074268Y-98394472D01*
X138210941Y-98337860D01*
X138301400Y-98319867D01*
X138356031Y-98309000D01*
X138503969Y-98309000D01*
X138558600Y-98319867D01*
X138558600Y-98319867D01*
G37*
G36*
X133423665Y-98312622D02*
X133497222Y-98319867D01*
X133638786Y-98362810D01*
X133769252Y-98432546D01*
X133883606Y-98526394D01*
X133977454Y-98640748D01*
X134047190Y-98771214D01*
X134090133Y-98912778D01*
X134104633Y-99060000D01*
X134090133Y-99207222D01*
X134047190Y-99348786D01*
X133977454Y-99479252D01*
X133883606Y-99593606D01*
X133769252Y-99687454D01*
X133638786Y-99757190D01*
X133497222Y-99800133D01*
X133423665Y-99807378D01*
X133386888Y-99811000D01*
X133313112Y-99811000D01*
X133276335Y-99807378D01*
X133202778Y-99800133D01*
X133061214Y-99757190D01*
X132930748Y-99687454D01*
X132816394Y-99593606D01*
X132722546Y-99479252D01*
X132652810Y-99348786D01*
X132609867Y-99207222D01*
X132595367Y-99060000D01*
X132609867Y-98912778D01*
X132652810Y-98771214D01*
X132722546Y-98640748D01*
X132816394Y-98526394D01*
X132930748Y-98432546D01*
X133061214Y-98362810D01*
X133202778Y-98319867D01*
X133276335Y-98312622D01*
X133313112Y-98309000D01*
X133386888Y-98309000D01*
X133423665Y-98312622D01*
X133423665Y-98312622D01*
G37*
G36*
X144106991Y-98336101D02*
X144192321Y-98344505D01*
X144329172Y-98386019D01*
X144329174Y-98386020D01*
X144329177Y-98386021D01*
X144455296Y-98453432D01*
X144565843Y-98544157D01*
X144656568Y-98654704D01*
X144723979Y-98780823D01*
X144723980Y-98780826D01*
X144723981Y-98780828D01*
X144765495Y-98917679D01*
X144779512Y-99060000D01*
X144765495Y-99202321D01*
X144742216Y-99279059D01*
X144723979Y-99339177D01*
X144656568Y-99465296D01*
X144565843Y-99575843D01*
X144455296Y-99666568D01*
X144329177Y-99733979D01*
X144329174Y-99733980D01*
X144329172Y-99733981D01*
X144192321Y-99775495D01*
X144106991Y-99783899D01*
X144085660Y-99786000D01*
X144014340Y-99786000D01*
X143993009Y-99783899D01*
X143907679Y-99775495D01*
X143770828Y-99733981D01*
X143770826Y-99733980D01*
X143770823Y-99733979D01*
X143644704Y-99666568D01*
X143534157Y-99575843D01*
X143443432Y-99465296D01*
X143376021Y-99339177D01*
X143357784Y-99279059D01*
X143334505Y-99202321D01*
X143320488Y-99060000D01*
X143334505Y-98917679D01*
X143376019Y-98780828D01*
X143376020Y-98780826D01*
X143376021Y-98780823D01*
X143443432Y-98654704D01*
X143534157Y-98544157D01*
X143644704Y-98453432D01*
X143770823Y-98386021D01*
X143770826Y-98386020D01*
X143770828Y-98386019D01*
X143907679Y-98344505D01*
X143993009Y-98336101D01*
X144014340Y-98334000D01*
X144085660Y-98334000D01*
X144106991Y-98336101D01*
X144106991Y-98336101D01*
G37*
G36*
X127246991Y-98336101D02*
X127332321Y-98344505D01*
X127469172Y-98386019D01*
X127469174Y-98386020D01*
X127469177Y-98386021D01*
X127595296Y-98453432D01*
X127705843Y-98544157D01*
X127796568Y-98654704D01*
X127863979Y-98780823D01*
X127863980Y-98780826D01*
X127863981Y-98780828D01*
X127905495Y-98917679D01*
X127919512Y-99060000D01*
X127905495Y-99202321D01*
X127882216Y-99279059D01*
X127863979Y-99339177D01*
X127796568Y-99465296D01*
X127705843Y-99575843D01*
X127595296Y-99666568D01*
X127469177Y-99733979D01*
X127469174Y-99733980D01*
X127469172Y-99733981D01*
X127332321Y-99775495D01*
X127246991Y-99783899D01*
X127225660Y-99786000D01*
X127154340Y-99786000D01*
X127133009Y-99783899D01*
X127047679Y-99775495D01*
X126910828Y-99733981D01*
X126910826Y-99733980D01*
X126910823Y-99733979D01*
X126784704Y-99666568D01*
X126674157Y-99575843D01*
X126583432Y-99465296D01*
X126516021Y-99339177D01*
X126497784Y-99279059D01*
X126474505Y-99202321D01*
X126460488Y-99060000D01*
X126474505Y-98917679D01*
X126516019Y-98780828D01*
X126516020Y-98780826D01*
X126516021Y-98780823D01*
X126583432Y-98654704D01*
X126674157Y-98544157D01*
X126784704Y-98453432D01*
X126910823Y-98386021D01*
X126910826Y-98386020D01*
X126910828Y-98386019D01*
X127047679Y-98344505D01*
X127133009Y-98336101D01*
X127154340Y-98334000D01*
X127225660Y-98334000D01*
X127246991Y-98336101D01*
X127246991Y-98336101D01*
G37*
G36*
X125246991Y-98336101D02*
X125332321Y-98344505D01*
X125469172Y-98386019D01*
X125469174Y-98386020D01*
X125469177Y-98386021D01*
X125595296Y-98453432D01*
X125705843Y-98544157D01*
X125796568Y-98654704D01*
X125863979Y-98780823D01*
X125863980Y-98780826D01*
X125863981Y-98780828D01*
X125905495Y-98917679D01*
X125919512Y-99060000D01*
X125905495Y-99202321D01*
X125882216Y-99279059D01*
X125863979Y-99339177D01*
X125796568Y-99465296D01*
X125705843Y-99575843D01*
X125595296Y-99666568D01*
X125469177Y-99733979D01*
X125469174Y-99733980D01*
X125469172Y-99733981D01*
X125332321Y-99775495D01*
X125246991Y-99783899D01*
X125225660Y-99786000D01*
X125154340Y-99786000D01*
X125133009Y-99783899D01*
X125047679Y-99775495D01*
X124910828Y-99733981D01*
X124910826Y-99733980D01*
X124910823Y-99733979D01*
X124784704Y-99666568D01*
X124674157Y-99575843D01*
X124583432Y-99465296D01*
X124516021Y-99339177D01*
X124497784Y-99279059D01*
X124474505Y-99202321D01*
X124460488Y-99060000D01*
X124474505Y-98917679D01*
X124516019Y-98780828D01*
X124516020Y-98780826D01*
X124516021Y-98780823D01*
X124583432Y-98654704D01*
X124674157Y-98544157D01*
X124784704Y-98453432D01*
X124910823Y-98386021D01*
X124910826Y-98386020D01*
X124910828Y-98386019D01*
X125047679Y-98344505D01*
X125133009Y-98336101D01*
X125154340Y-98334000D01*
X125225660Y-98334000D01*
X125246991Y-98336101D01*
X125246991Y-98336101D01*
G37*
G36*
X123916000Y-99786000D02*
X122464000Y-99786000D01*
X122464000Y-98334000D01*
X123916000Y-98334000D01*
X123916000Y-99786000D01*
X123916000Y-99786000D01*
G37*
G36*
X113276991Y-98336101D02*
X113362321Y-98344505D01*
X113499172Y-98386019D01*
X113499174Y-98386020D01*
X113499177Y-98386021D01*
X113625296Y-98453432D01*
X113735843Y-98544157D01*
X113826568Y-98654704D01*
X113893979Y-98780823D01*
X113893980Y-98780826D01*
X113893981Y-98780828D01*
X113935495Y-98917679D01*
X113949512Y-99060000D01*
X113935495Y-99202321D01*
X113912216Y-99279059D01*
X113893979Y-99339177D01*
X113826568Y-99465296D01*
X113735843Y-99575843D01*
X113625296Y-99666568D01*
X113499177Y-99733979D01*
X113499174Y-99733980D01*
X113499172Y-99733981D01*
X113362321Y-99775495D01*
X113276991Y-99783899D01*
X113255660Y-99786000D01*
X113184340Y-99786000D01*
X113163009Y-99783899D01*
X113077679Y-99775495D01*
X112940828Y-99733981D01*
X112940826Y-99733980D01*
X112940823Y-99733979D01*
X112814704Y-99666568D01*
X112704157Y-99575843D01*
X112613432Y-99465296D01*
X112546021Y-99339177D01*
X112527784Y-99279059D01*
X112504505Y-99202321D01*
X112490488Y-99060000D01*
X112504505Y-98917679D01*
X112546019Y-98780828D01*
X112546020Y-98780826D01*
X112546021Y-98780823D01*
X112613432Y-98654704D01*
X112704157Y-98544157D01*
X112814704Y-98453432D01*
X112940823Y-98386021D01*
X112940826Y-98386020D01*
X112940828Y-98386019D01*
X113077679Y-98344505D01*
X113163009Y-98336101D01*
X113184340Y-98334000D01*
X113255660Y-98334000D01*
X113276991Y-98336101D01*
X113276991Y-98336101D01*
G37*
G36*
X111276991Y-98336101D02*
X111362321Y-98344505D01*
X111499172Y-98386019D01*
X111499174Y-98386020D01*
X111499177Y-98386021D01*
X111625296Y-98453432D01*
X111735843Y-98544157D01*
X111826568Y-98654704D01*
X111893979Y-98780823D01*
X111893980Y-98780826D01*
X111893981Y-98780828D01*
X111935495Y-98917679D01*
X111949512Y-99060000D01*
X111935495Y-99202321D01*
X111912216Y-99279059D01*
X111893979Y-99339177D01*
X111826568Y-99465296D01*
X111735843Y-99575843D01*
X111625296Y-99666568D01*
X111499177Y-99733979D01*
X111499174Y-99733980D01*
X111499172Y-99733981D01*
X111362321Y-99775495D01*
X111276991Y-99783899D01*
X111255660Y-99786000D01*
X111184340Y-99786000D01*
X111163009Y-99783899D01*
X111077679Y-99775495D01*
X110940828Y-99733981D01*
X110940826Y-99733980D01*
X110940823Y-99733979D01*
X110814704Y-99666568D01*
X110704157Y-99575843D01*
X110613432Y-99465296D01*
X110546021Y-99339177D01*
X110527784Y-99279059D01*
X110504505Y-99202321D01*
X110490488Y-99060000D01*
X110504505Y-98917679D01*
X110546019Y-98780828D01*
X110546020Y-98780826D01*
X110546021Y-98780823D01*
X110613432Y-98654704D01*
X110704157Y-98544157D01*
X110814704Y-98453432D01*
X110940823Y-98386021D01*
X110940826Y-98386020D01*
X110940828Y-98386019D01*
X111077679Y-98344505D01*
X111163009Y-98336101D01*
X111184340Y-98334000D01*
X111255660Y-98334000D01*
X111276991Y-98336101D01*
X111276991Y-98336101D01*
G37*
G36*
X109946000Y-99786000D02*
X108494000Y-99786000D01*
X108494000Y-98334000D01*
X109946000Y-98334000D01*
X109946000Y-99786000D01*
X109946000Y-99786000D01*
G37*
G36*
X99786000Y-99786000D02*
X98334000Y-99786000D01*
X98334000Y-98334000D01*
X99786000Y-98334000D01*
X99786000Y-99786000D01*
X99786000Y-99786000D01*
G37*
G36*
X97116991Y-98336101D02*
X97202321Y-98344505D01*
X97339172Y-98386019D01*
X97339174Y-98386020D01*
X97339177Y-98386021D01*
X97465296Y-98453432D01*
X97575843Y-98544157D01*
X97666568Y-98654704D01*
X97733979Y-98780823D01*
X97733980Y-98780826D01*
X97733981Y-98780828D01*
X97775495Y-98917679D01*
X97789512Y-99060000D01*
X97775495Y-99202321D01*
X97752216Y-99279059D01*
X97733979Y-99339177D01*
X97666568Y-99465296D01*
X97575843Y-99575843D01*
X97465296Y-99666568D01*
X97339177Y-99733979D01*
X97339174Y-99733980D01*
X97339172Y-99733981D01*
X97202321Y-99775495D01*
X97116991Y-99783899D01*
X97095660Y-99786000D01*
X97024340Y-99786000D01*
X97003009Y-99783899D01*
X96917679Y-99775495D01*
X96780828Y-99733981D01*
X96780826Y-99733980D01*
X96780823Y-99733979D01*
X96654704Y-99666568D01*
X96544157Y-99575843D01*
X96453432Y-99465296D01*
X96386021Y-99339177D01*
X96367784Y-99279059D01*
X96344505Y-99202321D01*
X96330488Y-99060000D01*
X96344505Y-98917679D01*
X96386019Y-98780828D01*
X96386020Y-98780826D01*
X96386021Y-98780823D01*
X96453432Y-98654704D01*
X96544157Y-98544157D01*
X96654704Y-98453432D01*
X96780823Y-98386021D01*
X96780826Y-98386020D01*
X96780828Y-98386019D01*
X96917679Y-98344505D01*
X97003009Y-98336101D01*
X97024340Y-98334000D01*
X97095660Y-98334000D01*
X97116991Y-98336101D01*
X97116991Y-98336101D01*
G37*
G36*
X95116991Y-98336101D02*
X95202321Y-98344505D01*
X95339172Y-98386019D01*
X95339174Y-98386020D01*
X95339177Y-98386021D01*
X95465296Y-98453432D01*
X95575843Y-98544157D01*
X95666568Y-98654704D01*
X95733979Y-98780823D01*
X95733980Y-98780826D01*
X95733981Y-98780828D01*
X95775495Y-98917679D01*
X95789512Y-99060000D01*
X95775495Y-99202321D01*
X95752216Y-99279059D01*
X95733979Y-99339177D01*
X95666568Y-99465296D01*
X95575843Y-99575843D01*
X95465296Y-99666568D01*
X95339177Y-99733979D01*
X95339174Y-99733980D01*
X95339172Y-99733981D01*
X95202321Y-99775495D01*
X95116991Y-99783899D01*
X95095660Y-99786000D01*
X95024340Y-99786000D01*
X95003009Y-99783899D01*
X94917679Y-99775495D01*
X94780828Y-99733981D01*
X94780826Y-99733980D01*
X94780823Y-99733979D01*
X94654704Y-99666568D01*
X94544157Y-99575843D01*
X94453432Y-99465296D01*
X94386021Y-99339177D01*
X94367784Y-99279059D01*
X94344505Y-99202321D01*
X94330488Y-99060000D01*
X94344505Y-98917679D01*
X94386019Y-98780828D01*
X94386020Y-98780826D01*
X94386021Y-98780823D01*
X94453432Y-98654704D01*
X94544157Y-98544157D01*
X94654704Y-98453432D01*
X94780823Y-98386021D01*
X94780826Y-98386020D01*
X94780828Y-98386019D01*
X94917679Y-98344505D01*
X95003009Y-98336101D01*
X95024340Y-98334000D01*
X95095660Y-98334000D01*
X95116991Y-98336101D01*
X95116991Y-98336101D01*
G37*
G36*
X146106991Y-98336101D02*
X146192321Y-98344505D01*
X146329172Y-98386019D01*
X146329174Y-98386020D01*
X146329177Y-98386021D01*
X146455296Y-98453432D01*
X146565843Y-98544157D01*
X146656568Y-98654704D01*
X146723979Y-98780823D01*
X146723980Y-98780826D01*
X146723981Y-98780828D01*
X146765495Y-98917679D01*
X146779512Y-99060000D01*
X146765495Y-99202321D01*
X146742216Y-99279059D01*
X146723979Y-99339177D01*
X146656568Y-99465296D01*
X146565843Y-99575843D01*
X146455296Y-99666568D01*
X146329177Y-99733979D01*
X146329174Y-99733980D01*
X146329172Y-99733981D01*
X146192321Y-99775495D01*
X146106991Y-99783899D01*
X146085660Y-99786000D01*
X146014340Y-99786000D01*
X145993009Y-99783899D01*
X145907679Y-99775495D01*
X145770828Y-99733981D01*
X145770826Y-99733980D01*
X145770823Y-99733979D01*
X145644704Y-99666568D01*
X145534157Y-99575843D01*
X145443432Y-99465296D01*
X145376021Y-99339177D01*
X145357784Y-99279059D01*
X145334505Y-99202321D01*
X145320488Y-99060000D01*
X145334505Y-98917679D01*
X145376019Y-98780828D01*
X145376020Y-98780826D01*
X145376021Y-98780823D01*
X145443432Y-98654704D01*
X145534157Y-98544157D01*
X145644704Y-98453432D01*
X145770823Y-98386021D01*
X145770826Y-98386020D01*
X145770828Y-98386019D01*
X145907679Y-98344505D01*
X145993009Y-98336101D01*
X146014340Y-98334000D01*
X146085660Y-98334000D01*
X146106991Y-98336101D01*
X146106991Y-98336101D01*
G37*
G36*
X148776000Y-99786000D02*
X147324000Y-99786000D01*
X147324000Y-98334000D01*
X148776000Y-98334000D01*
X148776000Y-99786000D01*
X148776000Y-99786000D01*
G37*
G36*
X162819367Y-94394971D02*
X162819369Y-94394972D01*
X162819370Y-94394972D01*
X162879147Y-94419732D01*
X162981195Y-94462002D01*
X163126835Y-94559316D01*
X163250684Y-94683165D01*
X163347998Y-94828805D01*
X163415029Y-94990633D01*
X163449200Y-95162420D01*
X163449200Y-95337580D01*
X163415029Y-95509367D01*
X163347998Y-95671195D01*
X163250684Y-95816835D01*
X163126835Y-95940684D01*
X162981195Y-96037998D01*
X162879147Y-96080268D01*
X162819370Y-96105028D01*
X162819369Y-96105028D01*
X162819367Y-96105029D01*
X162647580Y-96139200D01*
X162472420Y-96139200D01*
X162300633Y-96105029D01*
X162300631Y-96105028D01*
X162300630Y-96105028D01*
X162240853Y-96080268D01*
X162138805Y-96037998D01*
X161993165Y-95940684D01*
X161869316Y-95816835D01*
X161772002Y-95671195D01*
X161704971Y-95509367D01*
X161670800Y-95337580D01*
X161670800Y-95162420D01*
X161704971Y-94990633D01*
X161772002Y-94828805D01*
X161869316Y-94683165D01*
X161993165Y-94559316D01*
X162138805Y-94462002D01*
X162240853Y-94419732D01*
X162300630Y-94394972D01*
X162300631Y-94394972D01*
X162300633Y-94394971D01*
X162472420Y-94360800D01*
X162647580Y-94360800D01*
X162819367Y-94394971D01*
X162819367Y-94394971D01*
G37*
G36*
X155199367Y-94394971D02*
X155199369Y-94394972D01*
X155199370Y-94394972D01*
X155259147Y-94419732D01*
X155361195Y-94462002D01*
X155506835Y-94559316D01*
X155630684Y-94683165D01*
X155727998Y-94828805D01*
X155795029Y-94990633D01*
X155829200Y-95162420D01*
X155829200Y-95337580D01*
X155795029Y-95509367D01*
X155727998Y-95671195D01*
X155630684Y-95816835D01*
X155506835Y-95940684D01*
X155361195Y-96037998D01*
X155259147Y-96080268D01*
X155199370Y-96105028D01*
X155199369Y-96105028D01*
X155199367Y-96105029D01*
X155027580Y-96139200D01*
X154852420Y-96139200D01*
X154680633Y-96105029D01*
X154680631Y-96105028D01*
X154680630Y-96105028D01*
X154620853Y-96080268D01*
X154518805Y-96037998D01*
X154373165Y-95940684D01*
X154249316Y-95816835D01*
X154152002Y-95671195D01*
X154084971Y-95509367D01*
X154050800Y-95337580D01*
X154050800Y-95162420D01*
X154084971Y-94990633D01*
X154152002Y-94828805D01*
X154249316Y-94683165D01*
X154373165Y-94559316D01*
X154518805Y-94462002D01*
X154620853Y-94419732D01*
X154680630Y-94394972D01*
X154680631Y-94394972D01*
X154680633Y-94394971D01*
X154852420Y-94360800D01*
X155027580Y-94360800D01*
X155199367Y-94394971D01*
X155199367Y-94394971D01*
G37*
G36*
X148718600Y-94509867D02*
X148809059Y-94527860D01*
X148945732Y-94584472D01*
X149002715Y-94622547D01*
X149068738Y-94666662D01*
X149173338Y-94771262D01*
X149173340Y-94771265D01*
X149255528Y-94894268D01*
X149312140Y-95030941D01*
X149326429Y-95102778D01*
X149341000Y-95176031D01*
X149341000Y-95323969D01*
X149329456Y-95382004D01*
X149312140Y-95469059D01*
X149255528Y-95605732D01*
X149211788Y-95671194D01*
X149173338Y-95728738D01*
X149068738Y-95833338D01*
X149068735Y-95833340D01*
X148945732Y-95915528D01*
X148809059Y-95972140D01*
X148722004Y-95989456D01*
X148663969Y-96001000D01*
X148516031Y-96001000D01*
X148457996Y-95989456D01*
X148370941Y-95972140D01*
X148234268Y-95915528D01*
X148111265Y-95833340D01*
X148111262Y-95833338D01*
X148006662Y-95728738D01*
X147968212Y-95671194D01*
X147924472Y-95605732D01*
X147867860Y-95469059D01*
X147850544Y-95382004D01*
X147839000Y-95323969D01*
X147839000Y-95176031D01*
X147853571Y-95102778D01*
X147867860Y-95030941D01*
X147924472Y-94894268D01*
X148006660Y-94771265D01*
X148006662Y-94771262D01*
X148111262Y-94666662D01*
X148177285Y-94622547D01*
X148234268Y-94584472D01*
X148370941Y-94527860D01*
X148461400Y-94509867D01*
X148516031Y-94499000D01*
X148663969Y-94499000D01*
X148718600Y-94509867D01*
X148718600Y-94509867D01*
G37*
G36*
X143583665Y-94502622D02*
X143657222Y-94509867D01*
X143798786Y-94552810D01*
X143929252Y-94622546D01*
X144043606Y-94716394D01*
X144137454Y-94830748D01*
X144207190Y-94961214D01*
X144250133Y-95102778D01*
X144264633Y-95250000D01*
X144250133Y-95397222D01*
X144207190Y-95538786D01*
X144137454Y-95669252D01*
X144043606Y-95783606D01*
X143929252Y-95877454D01*
X143798786Y-95947190D01*
X143657222Y-95990133D01*
X143583665Y-95997378D01*
X143546888Y-96001000D01*
X143473112Y-96001000D01*
X143436335Y-95997378D01*
X143362778Y-95990133D01*
X143221214Y-95947190D01*
X143090748Y-95877454D01*
X142976394Y-95783606D01*
X142882546Y-95669252D01*
X142812810Y-95538786D01*
X142769867Y-95397222D01*
X142755367Y-95250000D01*
X142769867Y-95102778D01*
X142812810Y-94961214D01*
X142882546Y-94830748D01*
X142976394Y-94716394D01*
X143090748Y-94622546D01*
X143221214Y-94552810D01*
X143362778Y-94509867D01*
X143436335Y-94502622D01*
X143473112Y-94499000D01*
X143546888Y-94499000D01*
X143583665Y-94502622D01*
X143583665Y-94502622D01*
G37*
G36*
X162819367Y-91854971D02*
X162819369Y-91854972D01*
X162819370Y-91854972D01*
X162829094Y-91859000D01*
X162981195Y-91922002D01*
X163126835Y-92019316D01*
X163250684Y-92143165D01*
X163347998Y-92288805D01*
X163415029Y-92450633D01*
X163449200Y-92622420D01*
X163449200Y-92797580D01*
X163415029Y-92969367D01*
X163347998Y-93131195D01*
X163250684Y-93276835D01*
X163126835Y-93400684D01*
X162981195Y-93497998D01*
X162908046Y-93528297D01*
X162819370Y-93565028D01*
X162819369Y-93565028D01*
X162819367Y-93565029D01*
X162647580Y-93599200D01*
X162472420Y-93599200D01*
X162300633Y-93565029D01*
X162300631Y-93565028D01*
X162300630Y-93565028D01*
X162211954Y-93528297D01*
X162138805Y-93497998D01*
X161993165Y-93400684D01*
X161869316Y-93276835D01*
X161772002Y-93131195D01*
X161704971Y-92969367D01*
X161670800Y-92797580D01*
X161670800Y-92622420D01*
X161704971Y-92450633D01*
X161772002Y-92288805D01*
X161869316Y-92143165D01*
X161993165Y-92019316D01*
X162138805Y-91922002D01*
X162290906Y-91859000D01*
X162300630Y-91854972D01*
X162300631Y-91854972D01*
X162300633Y-91854971D01*
X162472420Y-91820800D01*
X162647580Y-91820800D01*
X162819367Y-91854971D01*
X162819367Y-91854971D01*
G37*
G36*
X155199367Y-91854971D02*
X155199369Y-91854972D01*
X155199370Y-91854972D01*
X155209094Y-91859000D01*
X155361195Y-91922002D01*
X155506835Y-92019316D01*
X155630684Y-92143165D01*
X155727998Y-92288805D01*
X155795029Y-92450633D01*
X155829200Y-92622420D01*
X155829200Y-92797580D01*
X155795029Y-92969367D01*
X155727998Y-93131195D01*
X155630684Y-93276835D01*
X155506835Y-93400684D01*
X155361195Y-93497998D01*
X155288046Y-93528297D01*
X155199370Y-93565028D01*
X155199369Y-93565028D01*
X155199367Y-93565029D01*
X155027580Y-93599200D01*
X154852420Y-93599200D01*
X154680633Y-93565029D01*
X154680631Y-93565028D01*
X154680630Y-93565028D01*
X154591954Y-93528297D01*
X154518805Y-93497998D01*
X154373165Y-93400684D01*
X154249316Y-93276835D01*
X154152002Y-93131195D01*
X154084971Y-92969367D01*
X154050800Y-92797580D01*
X154050800Y-92622420D01*
X154084971Y-92450633D01*
X154152002Y-92288805D01*
X154249316Y-92143165D01*
X154373165Y-92019316D01*
X154518805Y-91922002D01*
X154670906Y-91859000D01*
X154680630Y-91854972D01*
X154680631Y-91854972D01*
X154680633Y-91854971D01*
X154852420Y-91820800D01*
X155027580Y-91820800D01*
X155199367Y-91854971D01*
X155199367Y-91854971D01*
G37*
G36*
X129706821Y-91871313D02*
X129706824Y-91871314D01*
X129706825Y-91871314D01*
X129867239Y-91919975D01*
X129867241Y-91919976D01*
X129867244Y-91919977D01*
X130015078Y-91998995D01*
X130144659Y-92105341D01*
X130251005Y-92234922D01*
X130330023Y-92382756D01*
X130330024Y-92382759D01*
X130330025Y-92382761D01*
X130378686Y-92543175D01*
X130378687Y-92543179D01*
X130395117Y-92710000D01*
X130378687Y-92876821D01*
X130378686Y-92876824D01*
X130378686Y-92876825D01*
X130350613Y-92969370D01*
X130330023Y-93037244D01*
X130251005Y-93185078D01*
X130144659Y-93314659D01*
X130015078Y-93421005D01*
X129867244Y-93500023D01*
X129867241Y-93500024D01*
X129867239Y-93500025D01*
X129706825Y-93548686D01*
X129706824Y-93548686D01*
X129706821Y-93548687D01*
X129581804Y-93561000D01*
X129498196Y-93561000D01*
X129373179Y-93548687D01*
X129373176Y-93548686D01*
X129373175Y-93548686D01*
X129212761Y-93500025D01*
X129212759Y-93500024D01*
X129212756Y-93500023D01*
X129064922Y-93421005D01*
X128935341Y-93314659D01*
X128828995Y-93185078D01*
X128749977Y-93037244D01*
X128729388Y-92969370D01*
X128701314Y-92876825D01*
X128701314Y-92876824D01*
X128701313Y-92876821D01*
X128684883Y-92710000D01*
X128701313Y-92543179D01*
X128701314Y-92543175D01*
X128749975Y-92382761D01*
X128749976Y-92382759D01*
X128749977Y-92382756D01*
X128828995Y-92234922D01*
X128935341Y-92105341D01*
X129064922Y-91998995D01*
X129212756Y-91919977D01*
X129212759Y-91919976D01*
X129212761Y-91919975D01*
X129373175Y-91871314D01*
X129373176Y-91871314D01*
X129373179Y-91871313D01*
X129498196Y-91859000D01*
X129581804Y-91859000D01*
X129706821Y-91871313D01*
X129706821Y-91871313D01*
G37*
G36*
X122288228Y-91891703D02*
X122443100Y-91955853D01*
X122582481Y-92048985D01*
X122701015Y-92167519D01*
X122794147Y-92306900D01*
X122858297Y-92461772D01*
X122891000Y-92626184D01*
X122891000Y-92793816D01*
X122858297Y-92958228D01*
X122794147Y-93113100D01*
X122701015Y-93252481D01*
X122582481Y-93371015D01*
X122443100Y-93464147D01*
X122288228Y-93528297D01*
X122123816Y-93561000D01*
X121956184Y-93561000D01*
X121791772Y-93528297D01*
X121636900Y-93464147D01*
X121497519Y-93371015D01*
X121378985Y-93252481D01*
X121285853Y-93113100D01*
X121221703Y-92958228D01*
X121189000Y-92793816D01*
X121189000Y-92626184D01*
X121221703Y-92461772D01*
X121285853Y-92306900D01*
X121378985Y-92167519D01*
X121497519Y-92048985D01*
X121636900Y-91955853D01*
X121791772Y-91891703D01*
X121956184Y-91859000D01*
X122123816Y-91859000D01*
X122288228Y-91891703D01*
X122288228Y-91891703D01*
G37*
G36*
X162819367Y-89314971D02*
X162819369Y-89314972D01*
X162819370Y-89314972D01*
X162879147Y-89339732D01*
X162981195Y-89382002D01*
X163126835Y-89479316D01*
X163250684Y-89603165D01*
X163347998Y-89748805D01*
X163415029Y-89910633D01*
X163449200Y-90082420D01*
X163449200Y-90257580D01*
X163415029Y-90429367D01*
X163347998Y-90591195D01*
X163250684Y-90736835D01*
X163126835Y-90860684D01*
X162981195Y-90957998D01*
X162879147Y-91000268D01*
X162819370Y-91025028D01*
X162819369Y-91025028D01*
X162819367Y-91025029D01*
X162647580Y-91059200D01*
X162472420Y-91059200D01*
X162300633Y-91025029D01*
X162300631Y-91025028D01*
X162300630Y-91025028D01*
X162240853Y-91000268D01*
X162138805Y-90957998D01*
X161993165Y-90860684D01*
X161869316Y-90736835D01*
X161772002Y-90591195D01*
X161704971Y-90429367D01*
X161670800Y-90257580D01*
X161670800Y-90082420D01*
X161704971Y-89910633D01*
X161772002Y-89748805D01*
X161869316Y-89603165D01*
X161993165Y-89479316D01*
X162138805Y-89382002D01*
X162240853Y-89339732D01*
X162300630Y-89314972D01*
X162300631Y-89314972D01*
X162300633Y-89314971D01*
X162472420Y-89280800D01*
X162647580Y-89280800D01*
X162819367Y-89314971D01*
X162819367Y-89314971D01*
G37*
G36*
X155199367Y-89314971D02*
X155199369Y-89314972D01*
X155199370Y-89314972D01*
X155259147Y-89339732D01*
X155361195Y-89382002D01*
X155506835Y-89479316D01*
X155630684Y-89603165D01*
X155727998Y-89748805D01*
X155795029Y-89910633D01*
X155829200Y-90082420D01*
X155829200Y-90257580D01*
X155795029Y-90429367D01*
X155727998Y-90591195D01*
X155630684Y-90736835D01*
X155506835Y-90860684D01*
X155361195Y-90957998D01*
X155259147Y-91000268D01*
X155199370Y-91025028D01*
X155199369Y-91025028D01*
X155199367Y-91025029D01*
X155027580Y-91059200D01*
X154852420Y-91059200D01*
X154680633Y-91025029D01*
X154680631Y-91025028D01*
X154680630Y-91025028D01*
X154620853Y-91000268D01*
X154518805Y-90957998D01*
X154373165Y-90860684D01*
X154249316Y-90736835D01*
X154152002Y-90591195D01*
X154084971Y-90429367D01*
X154050800Y-90257580D01*
X154050800Y-90082420D01*
X154084971Y-89910633D01*
X154152002Y-89748805D01*
X154249316Y-89603165D01*
X154373165Y-89479316D01*
X154518805Y-89382002D01*
X154620853Y-89339732D01*
X154680630Y-89314972D01*
X154680631Y-89314972D01*
X154680633Y-89314971D01*
X154852420Y-89280800D01*
X155027580Y-89280800D01*
X155199367Y-89314971D01*
X155199367Y-89314971D01*
G37*
G36*
X108078600Y-89429867D02*
X108169059Y-89447860D01*
X108305732Y-89504472D01*
X108362715Y-89542547D01*
X108428738Y-89586662D01*
X108533338Y-89691262D01*
X108533340Y-89691265D01*
X108615528Y-89814268D01*
X108672140Y-89950941D01*
X108686429Y-90022778D01*
X108701000Y-90096031D01*
X108701000Y-90243969D01*
X108689456Y-90302004D01*
X108672140Y-90389059D01*
X108615528Y-90525732D01*
X108571788Y-90591194D01*
X108533338Y-90648738D01*
X108428738Y-90753338D01*
X108428735Y-90753340D01*
X108305732Y-90835528D01*
X108169059Y-90892140D01*
X108082004Y-90909456D01*
X108023969Y-90921000D01*
X107876031Y-90921000D01*
X107817996Y-90909456D01*
X107730941Y-90892140D01*
X107594268Y-90835528D01*
X107471265Y-90753340D01*
X107471262Y-90753338D01*
X107366662Y-90648738D01*
X107328212Y-90591194D01*
X107284472Y-90525732D01*
X107227860Y-90389059D01*
X107210544Y-90302004D01*
X107199000Y-90243969D01*
X107199000Y-90096031D01*
X107213571Y-90022778D01*
X107227860Y-89950941D01*
X107284472Y-89814268D01*
X107366660Y-89691265D01*
X107366662Y-89691262D01*
X107471262Y-89586662D01*
X107537285Y-89542547D01*
X107594268Y-89504472D01*
X107730941Y-89447860D01*
X107821400Y-89429867D01*
X107876031Y-89419000D01*
X108023969Y-89419000D01*
X108078600Y-89429867D01*
X108078600Y-89429867D01*
G37*
G36*
X136018600Y-89429867D02*
X136109059Y-89447860D01*
X136245732Y-89504472D01*
X136302715Y-89542547D01*
X136368738Y-89586662D01*
X136473338Y-89691262D01*
X136473340Y-89691265D01*
X136555528Y-89814268D01*
X136612140Y-89950941D01*
X136626429Y-90022778D01*
X136641000Y-90096031D01*
X136641000Y-90243969D01*
X136629456Y-90302004D01*
X136612140Y-90389059D01*
X136555528Y-90525732D01*
X136511788Y-90591194D01*
X136473338Y-90648738D01*
X136368738Y-90753338D01*
X136368735Y-90753340D01*
X136245732Y-90835528D01*
X136109059Y-90892140D01*
X136022004Y-90909456D01*
X135963969Y-90921000D01*
X135816031Y-90921000D01*
X135757996Y-90909456D01*
X135670941Y-90892140D01*
X135534268Y-90835528D01*
X135411265Y-90753340D01*
X135411262Y-90753338D01*
X135306662Y-90648738D01*
X135268212Y-90591194D01*
X135224472Y-90525732D01*
X135167860Y-90389059D01*
X135150544Y-90302004D01*
X135139000Y-90243969D01*
X135139000Y-90096031D01*
X135153571Y-90022778D01*
X135167860Y-89950941D01*
X135224472Y-89814268D01*
X135306660Y-89691265D01*
X135306662Y-89691262D01*
X135411262Y-89586662D01*
X135477285Y-89542547D01*
X135534268Y-89504472D01*
X135670941Y-89447860D01*
X135761400Y-89429867D01*
X135816031Y-89419000D01*
X135963969Y-89419000D01*
X136018600Y-89429867D01*
X136018600Y-89429867D01*
G37*
G36*
X113103665Y-89422622D02*
X113177222Y-89429867D01*
X113318786Y-89472810D01*
X113449252Y-89542546D01*
X113563606Y-89636394D01*
X113657454Y-89750748D01*
X113727190Y-89881214D01*
X113770133Y-90022778D01*
X113784633Y-90170000D01*
X113770133Y-90317222D01*
X113727190Y-90458786D01*
X113657454Y-90589252D01*
X113563606Y-90703606D01*
X113449252Y-90797454D01*
X113318786Y-90867190D01*
X113177222Y-90910133D01*
X113103665Y-90917378D01*
X113066888Y-90921000D01*
X112993112Y-90921000D01*
X112956335Y-90917378D01*
X112882778Y-90910133D01*
X112741214Y-90867190D01*
X112610748Y-90797454D01*
X112496394Y-90703606D01*
X112402546Y-90589252D01*
X112332810Y-90458786D01*
X112289867Y-90317222D01*
X112275367Y-90170000D01*
X112289867Y-90022778D01*
X112332810Y-89881214D01*
X112402546Y-89750748D01*
X112496394Y-89636394D01*
X112610748Y-89542546D01*
X112741214Y-89472810D01*
X112882778Y-89429867D01*
X112956335Y-89422622D01*
X112993112Y-89419000D01*
X113066888Y-89419000D01*
X113103665Y-89422622D01*
X113103665Y-89422622D01*
G37*
G36*
X146123665Y-89422622D02*
X146197222Y-89429867D01*
X146338786Y-89472810D01*
X146469252Y-89542546D01*
X146583606Y-89636394D01*
X146677454Y-89750748D01*
X146747190Y-89881214D01*
X146790133Y-90022778D01*
X146804633Y-90170000D01*
X146790133Y-90317222D01*
X146747190Y-90458786D01*
X146677454Y-90589252D01*
X146583606Y-90703606D01*
X146469252Y-90797454D01*
X146338786Y-90867190D01*
X146197222Y-90910133D01*
X146123665Y-90917378D01*
X146086888Y-90921000D01*
X146013112Y-90921000D01*
X145976335Y-90917378D01*
X145902778Y-90910133D01*
X145761214Y-90867190D01*
X145630748Y-90797454D01*
X145516394Y-90703606D01*
X145422546Y-90589252D01*
X145352810Y-90458786D01*
X145309867Y-90317222D01*
X145295367Y-90170000D01*
X145309867Y-90022778D01*
X145352810Y-89881214D01*
X145422546Y-89750748D01*
X145516394Y-89636394D01*
X145630748Y-89542546D01*
X145761214Y-89472810D01*
X145902778Y-89429867D01*
X145976335Y-89422622D01*
X146013112Y-89419000D01*
X146086888Y-89419000D01*
X146123665Y-89422622D01*
X146123665Y-89422622D01*
G37*
G36*
X149933665Y-89422622D02*
X150007222Y-89429867D01*
X150148786Y-89472810D01*
X150279252Y-89542546D01*
X150393606Y-89636394D01*
X150487454Y-89750748D01*
X150557190Y-89881214D01*
X150600133Y-90022778D01*
X150614633Y-90170000D01*
X150600133Y-90317222D01*
X150557190Y-90458786D01*
X150487454Y-90589252D01*
X150393606Y-90703606D01*
X150279252Y-90797454D01*
X150148786Y-90867190D01*
X150007222Y-90910133D01*
X149933665Y-90917378D01*
X149896888Y-90921000D01*
X149823112Y-90921000D01*
X149786335Y-90917378D01*
X149712778Y-90910133D01*
X149571214Y-90867190D01*
X149440748Y-90797454D01*
X149326394Y-90703606D01*
X149232546Y-90589252D01*
X149162810Y-90458786D01*
X149119867Y-90317222D01*
X149105367Y-90170000D01*
X149119867Y-90022778D01*
X149162810Y-89881214D01*
X149232546Y-89750748D01*
X149326394Y-89636394D01*
X149440748Y-89542546D01*
X149571214Y-89472810D01*
X149712778Y-89429867D01*
X149786335Y-89422622D01*
X149823112Y-89419000D01*
X149896888Y-89419000D01*
X149933665Y-89422622D01*
X149933665Y-89422622D01*
G37*
G36*
X141043665Y-89422622D02*
X141117222Y-89429867D01*
X141258786Y-89472810D01*
X141389252Y-89542546D01*
X141503606Y-89636394D01*
X141597454Y-89750748D01*
X141667190Y-89881214D01*
X141710133Y-90022778D01*
X141724633Y-90170000D01*
X141710133Y-90317222D01*
X141667190Y-90458786D01*
X141597454Y-90589252D01*
X141503606Y-90703606D01*
X141389252Y-90797454D01*
X141258786Y-90867190D01*
X141117222Y-90910133D01*
X141043665Y-90917378D01*
X141006888Y-90921000D01*
X140933112Y-90921000D01*
X140896335Y-90917378D01*
X140822778Y-90910133D01*
X140681214Y-90867190D01*
X140550748Y-90797454D01*
X140436394Y-90703606D01*
X140342546Y-90589252D01*
X140272810Y-90458786D01*
X140229867Y-90317222D01*
X140215367Y-90170000D01*
X140229867Y-90022778D01*
X140272810Y-89881214D01*
X140342546Y-89750748D01*
X140436394Y-89636394D01*
X140550748Y-89542546D01*
X140681214Y-89472810D01*
X140822778Y-89429867D01*
X140896335Y-89422622D01*
X140933112Y-89419000D01*
X141006888Y-89419000D01*
X141043665Y-89422622D01*
X141043665Y-89422622D01*
G37*
G36*
X120909367Y-86774971D02*
X120909369Y-86774972D01*
X120909370Y-86774972D01*
X120969147Y-86799732D01*
X121071195Y-86842002D01*
X121216835Y-86939316D01*
X121340684Y-87063165D01*
X121437998Y-87208805D01*
X121505029Y-87370633D01*
X121539200Y-87542420D01*
X121539200Y-87717580D01*
X121505029Y-87889367D01*
X121437998Y-88051195D01*
X121340684Y-88196835D01*
X121216835Y-88320684D01*
X121071195Y-88417998D01*
X120969147Y-88460268D01*
X120909370Y-88485028D01*
X120909369Y-88485028D01*
X120909367Y-88485029D01*
X120737580Y-88519200D01*
X120562420Y-88519200D01*
X120390633Y-88485029D01*
X120390631Y-88485028D01*
X120390630Y-88485028D01*
X120330853Y-88460268D01*
X120228805Y-88417998D01*
X120083165Y-88320684D01*
X119959316Y-88196835D01*
X119862002Y-88051195D01*
X119794971Y-87889367D01*
X119760800Y-87717580D01*
X119760800Y-87542420D01*
X119794971Y-87370633D01*
X119862002Y-87208805D01*
X119959316Y-87063165D01*
X120083165Y-86939316D01*
X120228805Y-86842002D01*
X120330853Y-86799732D01*
X120390630Y-86774972D01*
X120390631Y-86774972D01*
X120390633Y-86774971D01*
X120562420Y-86740800D01*
X120737580Y-86740800D01*
X120909367Y-86774971D01*
X120909367Y-86774971D01*
G37*
G36*
X162819367Y-86774971D02*
X162819369Y-86774972D01*
X162819370Y-86774972D01*
X162879147Y-86799732D01*
X162981195Y-86842002D01*
X163126835Y-86939316D01*
X163250684Y-87063165D01*
X163347998Y-87208805D01*
X163415029Y-87370633D01*
X163449200Y-87542420D01*
X163449200Y-87717580D01*
X163415029Y-87889367D01*
X163347998Y-88051195D01*
X163250684Y-88196835D01*
X163126835Y-88320684D01*
X162981195Y-88417998D01*
X162879147Y-88460268D01*
X162819370Y-88485028D01*
X162819369Y-88485028D01*
X162819367Y-88485029D01*
X162647580Y-88519200D01*
X162472420Y-88519200D01*
X162300633Y-88485029D01*
X162300631Y-88485028D01*
X162300630Y-88485028D01*
X162240853Y-88460268D01*
X162138805Y-88417998D01*
X161993165Y-88320684D01*
X161869316Y-88196835D01*
X161772002Y-88051195D01*
X161704971Y-87889367D01*
X161670800Y-87717580D01*
X161670800Y-87542420D01*
X161704971Y-87370633D01*
X161772002Y-87208805D01*
X161869316Y-87063165D01*
X161993165Y-86939316D01*
X162138805Y-86842002D01*
X162240853Y-86799732D01*
X162300630Y-86774972D01*
X162300631Y-86774972D01*
X162300633Y-86774971D01*
X162472420Y-86740800D01*
X162647580Y-86740800D01*
X162819367Y-86774971D01*
X162819367Y-86774971D01*
G37*
G36*
X155829200Y-88519200D02*
X154050800Y-88519200D01*
X154050800Y-86740800D01*
X155829200Y-86740800D01*
X155829200Y-88519200D01*
X155829200Y-88519200D01*
G37*
G36*
X128529367Y-86774971D02*
X128529369Y-86774972D01*
X128529370Y-86774972D01*
X128589147Y-86799732D01*
X128691195Y-86842002D01*
X128836835Y-86939316D01*
X128960684Y-87063165D01*
X129057998Y-87208805D01*
X129125029Y-87370633D01*
X129159200Y-87542420D01*
X129159200Y-87717580D01*
X129125029Y-87889367D01*
X129057998Y-88051195D01*
X128960684Y-88196835D01*
X128836835Y-88320684D01*
X128691195Y-88417998D01*
X128589147Y-88460268D01*
X128529370Y-88485028D01*
X128529369Y-88485028D01*
X128529367Y-88485029D01*
X128357580Y-88519200D01*
X128182420Y-88519200D01*
X128010633Y-88485029D01*
X128010631Y-88485028D01*
X128010630Y-88485028D01*
X127950853Y-88460268D01*
X127848805Y-88417998D01*
X127703165Y-88320684D01*
X127579316Y-88196835D01*
X127482002Y-88051195D01*
X127414971Y-87889367D01*
X127380800Y-87717580D01*
X127380800Y-87542420D01*
X127414971Y-87370633D01*
X127482002Y-87208805D01*
X127579316Y-87063165D01*
X127703165Y-86939316D01*
X127848805Y-86842002D01*
X127950853Y-86799732D01*
X128010630Y-86774972D01*
X128010631Y-86774972D01*
X128010633Y-86774971D01*
X128182420Y-86740800D01*
X128357580Y-86740800D01*
X128529367Y-86774971D01*
X128529367Y-86774971D01*
G37*
G36*
X125989367Y-86774971D02*
X125989369Y-86774972D01*
X125989370Y-86774972D01*
X126049147Y-86799732D01*
X126151195Y-86842002D01*
X126296835Y-86939316D01*
X126420684Y-87063165D01*
X126517998Y-87208805D01*
X126585029Y-87370633D01*
X126619200Y-87542420D01*
X126619200Y-87717580D01*
X126585029Y-87889367D01*
X126517998Y-88051195D01*
X126420684Y-88196835D01*
X126296835Y-88320684D01*
X126151195Y-88417998D01*
X126049147Y-88460268D01*
X125989370Y-88485028D01*
X125989369Y-88485028D01*
X125989367Y-88485029D01*
X125817580Y-88519200D01*
X125642420Y-88519200D01*
X125470633Y-88485029D01*
X125470631Y-88485028D01*
X125470630Y-88485028D01*
X125410853Y-88460268D01*
X125308805Y-88417998D01*
X125163165Y-88320684D01*
X125039316Y-88196835D01*
X124942002Y-88051195D01*
X124874971Y-87889367D01*
X124840800Y-87717580D01*
X124840800Y-87542420D01*
X124874971Y-87370633D01*
X124942002Y-87208805D01*
X125039316Y-87063165D01*
X125163165Y-86939316D01*
X125308805Y-86842002D01*
X125410853Y-86799732D01*
X125470630Y-86774972D01*
X125470631Y-86774972D01*
X125470633Y-86774971D01*
X125642420Y-86740800D01*
X125817580Y-86740800D01*
X125989367Y-86774971D01*
X125989367Y-86774971D01*
G37*
G36*
X123449367Y-86774971D02*
X123449369Y-86774972D01*
X123449370Y-86774972D01*
X123509147Y-86799732D01*
X123611195Y-86842002D01*
X123756835Y-86939316D01*
X123880684Y-87063165D01*
X123977998Y-87208805D01*
X124045029Y-87370633D01*
X124079200Y-87542420D01*
X124079200Y-87717580D01*
X124045029Y-87889367D01*
X123977998Y-88051195D01*
X123880684Y-88196835D01*
X123756835Y-88320684D01*
X123611195Y-88417998D01*
X123509147Y-88460268D01*
X123449370Y-88485028D01*
X123449369Y-88485028D01*
X123449367Y-88485029D01*
X123277580Y-88519200D01*
X123102420Y-88519200D01*
X122930633Y-88485029D01*
X122930631Y-88485028D01*
X122930630Y-88485028D01*
X122870853Y-88460268D01*
X122768805Y-88417998D01*
X122623165Y-88320684D01*
X122499316Y-88196835D01*
X122402002Y-88051195D01*
X122334971Y-87889367D01*
X122300800Y-87717580D01*
X122300800Y-87542420D01*
X122334971Y-87370633D01*
X122402002Y-87208805D01*
X122499316Y-87063165D01*
X122623165Y-86939316D01*
X122768805Y-86842002D01*
X122870853Y-86799732D01*
X122930630Y-86774972D01*
X122930631Y-86774972D01*
X122930633Y-86774971D01*
X123102420Y-86740800D01*
X123277580Y-86740800D01*
X123449367Y-86774971D01*
X123449367Y-86774971D01*
G37*
G36*
X104399367Y-86774971D02*
X104399369Y-86774972D01*
X104399370Y-86774972D01*
X104459147Y-86799732D01*
X104561195Y-86842002D01*
X104706835Y-86939316D01*
X104830684Y-87063165D01*
X104927998Y-87208805D01*
X104995029Y-87370633D01*
X105029200Y-87542420D01*
X105029200Y-87717580D01*
X104995029Y-87889367D01*
X104927998Y-88051195D01*
X104830684Y-88196835D01*
X104706835Y-88320684D01*
X104561195Y-88417998D01*
X104459147Y-88460268D01*
X104399370Y-88485028D01*
X104399369Y-88485028D01*
X104399367Y-88485029D01*
X104227580Y-88519200D01*
X104052420Y-88519200D01*
X103880633Y-88485029D01*
X103880631Y-88485028D01*
X103880630Y-88485028D01*
X103820853Y-88460268D01*
X103718805Y-88417998D01*
X103573165Y-88320684D01*
X103449316Y-88196835D01*
X103352002Y-88051195D01*
X103284971Y-87889367D01*
X103250800Y-87717580D01*
X103250800Y-87542420D01*
X103284971Y-87370633D01*
X103352002Y-87208805D01*
X103449316Y-87063165D01*
X103573165Y-86939316D01*
X103718805Y-86842002D01*
X103820853Y-86799732D01*
X103880630Y-86774972D01*
X103880631Y-86774972D01*
X103880633Y-86774971D01*
X104052420Y-86740800D01*
X104227580Y-86740800D01*
X104399367Y-86774971D01*
X104399367Y-86774971D01*
G37*
G36*
X96779367Y-86774971D02*
X96779369Y-86774972D01*
X96779370Y-86774972D01*
X96839147Y-86799732D01*
X96941195Y-86842002D01*
X97086835Y-86939316D01*
X97210684Y-87063165D01*
X97307998Y-87208805D01*
X97375029Y-87370633D01*
X97409200Y-87542420D01*
X97409200Y-87717580D01*
X97375029Y-87889367D01*
X97307998Y-88051195D01*
X97210684Y-88196835D01*
X97086835Y-88320684D01*
X96941195Y-88417998D01*
X96839147Y-88460268D01*
X96779370Y-88485028D01*
X96779369Y-88485028D01*
X96779367Y-88485029D01*
X96607580Y-88519200D01*
X96432420Y-88519200D01*
X96260633Y-88485029D01*
X96260631Y-88485028D01*
X96260630Y-88485028D01*
X96200853Y-88460268D01*
X96098805Y-88417998D01*
X95953165Y-88320684D01*
X95829316Y-88196835D01*
X95732002Y-88051195D01*
X95664971Y-87889367D01*
X95630800Y-87717580D01*
X95630800Y-87542420D01*
X95664971Y-87370633D01*
X95732002Y-87208805D01*
X95829316Y-87063165D01*
X95953165Y-86939316D01*
X96098805Y-86842002D01*
X96200853Y-86799732D01*
X96260630Y-86774972D01*
X96260631Y-86774972D01*
X96260633Y-86774971D01*
X96432420Y-86740800D01*
X96607580Y-86740800D01*
X96779367Y-86774971D01*
X96779367Y-86774971D01*
G37*
G36*
X86416991Y-85636101D02*
X86502321Y-85644505D01*
X86639172Y-85686019D01*
X86639174Y-85686020D01*
X86639177Y-85686021D01*
X86765296Y-85753432D01*
X86875843Y-85844157D01*
X86966568Y-85954704D01*
X87033979Y-86080823D01*
X87033980Y-86080826D01*
X87033981Y-86080828D01*
X87075495Y-86217679D01*
X87089512Y-86360000D01*
X87075495Y-86502321D01*
X87033981Y-86639172D01*
X87033979Y-86639177D01*
X86966568Y-86765296D01*
X86875843Y-86875843D01*
X86765296Y-86966568D01*
X86639177Y-87033979D01*
X86639174Y-87033980D01*
X86639172Y-87033981D01*
X86502321Y-87075495D01*
X86416991Y-87083899D01*
X86395660Y-87086000D01*
X86324340Y-87086000D01*
X86303009Y-87083899D01*
X86217679Y-87075495D01*
X86080828Y-87033981D01*
X86080826Y-87033980D01*
X86080823Y-87033979D01*
X85954704Y-86966568D01*
X85844157Y-86875843D01*
X85753432Y-86765296D01*
X85686021Y-86639177D01*
X85686019Y-86639172D01*
X85644505Y-86502321D01*
X85630488Y-86360000D01*
X85644505Y-86217679D01*
X85686019Y-86080828D01*
X85686020Y-86080826D01*
X85686021Y-86080823D01*
X85753432Y-85954704D01*
X85844157Y-85844157D01*
X85954704Y-85753432D01*
X86080823Y-85686021D01*
X86080826Y-85686020D01*
X86080828Y-85686019D01*
X86217679Y-85644505D01*
X86303009Y-85636101D01*
X86324340Y-85634000D01*
X86395660Y-85634000D01*
X86416991Y-85636101D01*
X86416991Y-85636101D01*
G37*
G36*
X96779367Y-84234971D02*
X96779369Y-84234972D01*
X96779370Y-84234972D01*
X96839147Y-84259732D01*
X96941195Y-84302002D01*
X97086835Y-84399316D01*
X97210684Y-84523165D01*
X97307998Y-84668805D01*
X97375029Y-84830633D01*
X97409200Y-85002420D01*
X97409200Y-85177580D01*
X97375029Y-85349367D01*
X97307998Y-85511195D01*
X97210684Y-85656835D01*
X97086835Y-85780684D01*
X96941195Y-85877998D01*
X96839147Y-85920268D01*
X96779370Y-85945028D01*
X96779369Y-85945028D01*
X96779367Y-85945029D01*
X96607580Y-85979200D01*
X96432420Y-85979200D01*
X96260633Y-85945029D01*
X96260631Y-85945028D01*
X96260630Y-85945028D01*
X96200853Y-85920268D01*
X96098805Y-85877998D01*
X95953165Y-85780684D01*
X95829316Y-85656835D01*
X95732002Y-85511195D01*
X95664971Y-85349367D01*
X95630800Y-85177580D01*
X95630800Y-85002420D01*
X95664971Y-84830633D01*
X95732002Y-84668805D01*
X95829316Y-84523165D01*
X95953165Y-84399316D01*
X96098805Y-84302002D01*
X96200853Y-84259732D01*
X96260630Y-84234972D01*
X96260631Y-84234972D01*
X96260633Y-84234971D01*
X96432420Y-84200800D01*
X96607580Y-84200800D01*
X96779367Y-84234971D01*
X96779367Y-84234971D01*
G37*
G36*
X104399367Y-84234971D02*
X104399369Y-84234972D01*
X104399370Y-84234972D01*
X104459147Y-84259732D01*
X104561195Y-84302002D01*
X104706835Y-84399316D01*
X104830684Y-84523165D01*
X104927998Y-84668805D01*
X104995029Y-84830633D01*
X105029200Y-85002420D01*
X105029200Y-85177580D01*
X104995029Y-85349367D01*
X104927998Y-85511195D01*
X104830684Y-85656835D01*
X104706835Y-85780684D01*
X104561195Y-85877998D01*
X104459147Y-85920268D01*
X104399370Y-85945028D01*
X104399369Y-85945028D01*
X104399367Y-85945029D01*
X104227580Y-85979200D01*
X104052420Y-85979200D01*
X103880633Y-85945029D01*
X103880631Y-85945028D01*
X103880630Y-85945028D01*
X103820853Y-85920268D01*
X103718805Y-85877998D01*
X103573165Y-85780684D01*
X103449316Y-85656835D01*
X103352002Y-85511195D01*
X103284971Y-85349367D01*
X103250800Y-85177580D01*
X103250800Y-85002420D01*
X103284971Y-84830633D01*
X103352002Y-84668805D01*
X103449316Y-84523165D01*
X103573165Y-84399316D01*
X103718805Y-84302002D01*
X103820853Y-84259732D01*
X103880630Y-84234972D01*
X103880631Y-84234972D01*
X103880633Y-84234971D01*
X104052420Y-84200800D01*
X104227580Y-84200800D01*
X104399367Y-84234971D01*
X104399367Y-84234971D01*
G37*
G36*
X149988600Y-84349867D02*
X150079059Y-84367860D01*
X150215732Y-84424472D01*
X150272715Y-84462547D01*
X150338738Y-84506662D01*
X150443338Y-84611262D01*
X150443340Y-84611265D01*
X150525528Y-84734268D01*
X150582140Y-84870941D01*
X150596429Y-84942778D01*
X150611000Y-85016031D01*
X150611000Y-85163969D01*
X150599456Y-85222004D01*
X150582140Y-85309059D01*
X150525528Y-85445732D01*
X150481788Y-85511194D01*
X150443338Y-85568738D01*
X150338738Y-85673338D01*
X150338735Y-85673340D01*
X150215732Y-85755528D01*
X150079059Y-85812140D01*
X149992004Y-85829456D01*
X149933969Y-85841000D01*
X149786031Y-85841000D01*
X149727996Y-85829456D01*
X149640941Y-85812140D01*
X149504268Y-85755528D01*
X149381265Y-85673340D01*
X149381262Y-85673338D01*
X149276662Y-85568738D01*
X149238212Y-85511194D01*
X149194472Y-85445732D01*
X149137860Y-85309059D01*
X149120544Y-85222004D01*
X149109000Y-85163969D01*
X149109000Y-85016031D01*
X149123571Y-84942778D01*
X149137860Y-84870941D01*
X149194472Y-84734268D01*
X149276660Y-84611265D01*
X149276662Y-84611262D01*
X149381262Y-84506662D01*
X149447285Y-84462547D01*
X149504268Y-84424472D01*
X149640941Y-84367860D01*
X149731400Y-84349867D01*
X149786031Y-84339000D01*
X149933969Y-84339000D01*
X149988600Y-84349867D01*
X149988600Y-84349867D01*
G37*
G36*
X135963665Y-84342622D02*
X136037222Y-84349867D01*
X136178786Y-84392810D01*
X136309252Y-84462546D01*
X136423606Y-84556394D01*
X136517454Y-84670748D01*
X136587190Y-84801214D01*
X136630133Y-84942778D01*
X136644633Y-85090000D01*
X136630133Y-85237222D01*
X136587190Y-85378786D01*
X136517454Y-85509252D01*
X136423606Y-85623606D01*
X136309252Y-85717454D01*
X136178786Y-85787190D01*
X136037222Y-85830133D01*
X135963665Y-85837378D01*
X135926888Y-85841000D01*
X135853112Y-85841000D01*
X135816335Y-85837378D01*
X135742778Y-85830133D01*
X135601214Y-85787190D01*
X135470748Y-85717454D01*
X135356394Y-85623606D01*
X135262546Y-85509252D01*
X135192810Y-85378786D01*
X135149867Y-85237222D01*
X135135367Y-85090000D01*
X135149867Y-84942778D01*
X135192810Y-84801214D01*
X135262546Y-84670748D01*
X135356394Y-84556394D01*
X135470748Y-84462546D01*
X135601214Y-84392810D01*
X135742778Y-84349867D01*
X135816335Y-84342622D01*
X135853112Y-84339000D01*
X135926888Y-84339000D01*
X135963665Y-84342622D01*
X135963665Y-84342622D01*
G37*
G36*
X146178600Y-84349867D02*
X146269059Y-84367860D01*
X146405732Y-84424472D01*
X146462715Y-84462547D01*
X146528738Y-84506662D01*
X146633338Y-84611262D01*
X146633340Y-84611265D01*
X146715528Y-84734268D01*
X146772140Y-84870941D01*
X146786429Y-84942778D01*
X146801000Y-85016031D01*
X146801000Y-85163969D01*
X146789456Y-85222004D01*
X146772140Y-85309059D01*
X146715528Y-85445732D01*
X146671788Y-85511194D01*
X146633338Y-85568738D01*
X146528738Y-85673338D01*
X146528735Y-85673340D01*
X146405732Y-85755528D01*
X146269059Y-85812140D01*
X146182004Y-85829456D01*
X146123969Y-85841000D01*
X145976031Y-85841000D01*
X145917996Y-85829456D01*
X145830941Y-85812140D01*
X145694268Y-85755528D01*
X145571265Y-85673340D01*
X145571262Y-85673338D01*
X145466662Y-85568738D01*
X145428212Y-85511194D01*
X145384472Y-85445732D01*
X145327860Y-85309059D01*
X145310544Y-85222004D01*
X145299000Y-85163969D01*
X145299000Y-85016031D01*
X145313571Y-84942778D01*
X145327860Y-84870941D01*
X145384472Y-84734268D01*
X145466660Y-84611265D01*
X145466662Y-84611262D01*
X145571262Y-84506662D01*
X145637285Y-84462547D01*
X145694268Y-84424472D01*
X145830941Y-84367860D01*
X145921400Y-84349867D01*
X145976031Y-84339000D01*
X146123969Y-84339000D01*
X146178600Y-84349867D01*
X146178600Y-84349867D01*
G37*
G36*
X141098600Y-84349867D02*
X141189059Y-84367860D01*
X141325732Y-84424472D01*
X141382715Y-84462547D01*
X141448738Y-84506662D01*
X141553338Y-84611262D01*
X141553340Y-84611265D01*
X141635528Y-84734268D01*
X141692140Y-84870941D01*
X141706429Y-84942778D01*
X141721000Y-85016031D01*
X141721000Y-85163969D01*
X141709456Y-85222004D01*
X141692140Y-85309059D01*
X141635528Y-85445732D01*
X141591788Y-85511194D01*
X141553338Y-85568738D01*
X141448738Y-85673338D01*
X141448735Y-85673340D01*
X141325732Y-85755528D01*
X141189059Y-85812140D01*
X141102004Y-85829456D01*
X141043969Y-85841000D01*
X140896031Y-85841000D01*
X140837996Y-85829456D01*
X140750941Y-85812140D01*
X140614268Y-85755528D01*
X140491265Y-85673340D01*
X140491262Y-85673338D01*
X140386662Y-85568738D01*
X140348212Y-85511194D01*
X140304472Y-85445732D01*
X140247860Y-85309059D01*
X140230544Y-85222004D01*
X140219000Y-85163969D01*
X140219000Y-85016031D01*
X140233571Y-84942778D01*
X140247860Y-84870941D01*
X140304472Y-84734268D01*
X140386660Y-84611265D01*
X140386662Y-84611262D01*
X140491262Y-84506662D01*
X140557285Y-84462547D01*
X140614268Y-84424472D01*
X140750941Y-84367860D01*
X140841400Y-84349867D01*
X140896031Y-84339000D01*
X141043969Y-84339000D01*
X141098600Y-84349867D01*
X141098600Y-84349867D01*
G37*
G36*
X86416991Y-83636101D02*
X86502321Y-83644505D01*
X86639172Y-83686019D01*
X86639174Y-83686020D01*
X86639177Y-83686021D01*
X86765296Y-83753432D01*
X86875843Y-83844157D01*
X86966568Y-83954704D01*
X87033979Y-84080823D01*
X87033980Y-84080826D01*
X87033981Y-84080828D01*
X87075495Y-84217679D01*
X87089512Y-84360000D01*
X87075495Y-84502321D01*
X87033981Y-84639172D01*
X87033979Y-84639177D01*
X86966568Y-84765296D01*
X86875843Y-84875843D01*
X86765296Y-84966568D01*
X86639177Y-85033979D01*
X86639174Y-85033980D01*
X86639172Y-85033981D01*
X86502321Y-85075495D01*
X86416991Y-85083899D01*
X86395660Y-85086000D01*
X86324340Y-85086000D01*
X86303009Y-85083899D01*
X86217679Y-85075495D01*
X86080828Y-85033981D01*
X86080826Y-85033980D01*
X86080823Y-85033979D01*
X85954704Y-84966568D01*
X85844157Y-84875843D01*
X85753432Y-84765296D01*
X85686021Y-84639177D01*
X85686019Y-84639172D01*
X85644505Y-84502321D01*
X85630488Y-84360000D01*
X85644505Y-84217679D01*
X85686019Y-84080828D01*
X85686020Y-84080826D01*
X85686021Y-84080823D01*
X85753432Y-83954704D01*
X85844157Y-83844157D01*
X85954704Y-83753432D01*
X86080823Y-83686021D01*
X86080826Y-83686020D01*
X86080828Y-83686019D01*
X86217679Y-83644505D01*
X86303009Y-83636101D01*
X86324340Y-83634000D01*
X86395660Y-83634000D01*
X86416991Y-83636101D01*
X86416991Y-83636101D01*
G37*
G36*
X96779367Y-81694971D02*
X96779369Y-81694972D01*
X96779370Y-81694972D01*
X96839147Y-81719732D01*
X96941195Y-81762002D01*
X97086835Y-81859316D01*
X97210684Y-81983165D01*
X97307998Y-82128805D01*
X97375029Y-82290633D01*
X97409200Y-82462420D01*
X97409200Y-82637580D01*
X97375029Y-82809367D01*
X97307998Y-82971195D01*
X97210684Y-83116835D01*
X97086835Y-83240684D01*
X96941195Y-83337998D01*
X96839147Y-83380268D01*
X96779370Y-83405028D01*
X96779369Y-83405028D01*
X96779367Y-83405029D01*
X96607580Y-83439200D01*
X96432420Y-83439200D01*
X96260633Y-83405029D01*
X96260631Y-83405028D01*
X96260630Y-83405028D01*
X96200853Y-83380268D01*
X96098805Y-83337998D01*
X95953165Y-83240684D01*
X95829316Y-83116835D01*
X95732002Y-82971195D01*
X95664971Y-82809367D01*
X95630800Y-82637580D01*
X95630800Y-82462420D01*
X95664971Y-82290633D01*
X95732002Y-82128805D01*
X95829316Y-81983165D01*
X95953165Y-81859316D01*
X96098805Y-81762002D01*
X96200853Y-81719732D01*
X96260630Y-81694972D01*
X96260631Y-81694972D01*
X96260633Y-81694971D01*
X96432420Y-81660800D01*
X96607580Y-81660800D01*
X96779367Y-81694971D01*
X96779367Y-81694971D01*
G37*
G36*
X104399367Y-81694971D02*
X104399369Y-81694972D01*
X104399370Y-81694972D01*
X104459147Y-81719732D01*
X104561195Y-81762002D01*
X104706835Y-81859316D01*
X104830684Y-81983165D01*
X104927998Y-82128805D01*
X104995029Y-82290633D01*
X105029200Y-82462420D01*
X105029200Y-82637580D01*
X104995029Y-82809367D01*
X104927998Y-82971195D01*
X104830684Y-83116835D01*
X104706835Y-83240684D01*
X104561195Y-83337998D01*
X104459147Y-83380268D01*
X104399370Y-83405028D01*
X104399369Y-83405028D01*
X104399367Y-83405029D01*
X104227580Y-83439200D01*
X104052420Y-83439200D01*
X103880633Y-83405029D01*
X103880631Y-83405028D01*
X103880630Y-83405028D01*
X103820853Y-83380268D01*
X103718805Y-83337998D01*
X103573165Y-83240684D01*
X103449316Y-83116835D01*
X103352002Y-82971195D01*
X103284971Y-82809367D01*
X103250800Y-82637580D01*
X103250800Y-82462420D01*
X103284971Y-82290633D01*
X103352002Y-82128805D01*
X103449316Y-81983165D01*
X103573165Y-81859316D01*
X103718805Y-81762002D01*
X103820853Y-81719732D01*
X103880630Y-81694972D01*
X103880631Y-81694972D01*
X103880633Y-81694971D01*
X104052420Y-81660800D01*
X104227580Y-81660800D01*
X104399367Y-81694971D01*
X104399367Y-81694971D01*
G37*
G36*
X87086000Y-83086000D02*
X85634000Y-83086000D01*
X85634000Y-81634000D01*
X87086000Y-81634000D01*
X87086000Y-83086000D01*
X87086000Y-83086000D01*
G37*
G36*
X163611000Y-82331000D02*
X161509000Y-82331000D01*
X161509000Y-80229000D01*
X163611000Y-80229000D01*
X163611000Y-82331000D01*
X163611000Y-82331000D01*
G37*
G36*
X157562510Y-80232041D02*
X157686032Y-80244207D01*
X157884146Y-80304305D01*
X158066729Y-80401897D01*
X158226765Y-80533235D01*
X158358103Y-80693271D01*
X158455695Y-80875854D01*
X158515793Y-81073968D01*
X158536085Y-81280000D01*
X158515793Y-81486032D01*
X158455695Y-81684146D01*
X158358103Y-81866729D01*
X158226765Y-82026765D01*
X158066729Y-82158103D01*
X157884146Y-82255695D01*
X157686032Y-82315793D01*
X157562510Y-82327959D01*
X157531631Y-82331000D01*
X157428369Y-82331000D01*
X157397490Y-82327959D01*
X157273968Y-82315793D01*
X157075854Y-82255695D01*
X156893271Y-82158103D01*
X156733235Y-82026765D01*
X156601897Y-81866729D01*
X156504305Y-81684146D01*
X156444207Y-81486032D01*
X156423915Y-81280000D01*
X156444207Y-81073968D01*
X156504305Y-80875854D01*
X156601897Y-80693271D01*
X156733235Y-80533235D01*
X156893271Y-80401897D01*
X157075854Y-80304305D01*
X157273968Y-80244207D01*
X157397490Y-80232041D01*
X157428369Y-80229000D01*
X157531631Y-80229000D01*
X157562510Y-80232041D01*
X157562510Y-80232041D01*
G37*
G36*
X154721000Y-82331000D02*
X152619000Y-82331000D01*
X152619000Y-80229000D01*
X154721000Y-80229000D01*
X154721000Y-82331000D01*
X154721000Y-82331000D01*
G37*
G36*
X148672510Y-80232041D02*
X148796032Y-80244207D01*
X148994146Y-80304305D01*
X149176729Y-80401897D01*
X149336765Y-80533235D01*
X149468103Y-80693271D01*
X149565695Y-80875854D01*
X149625793Y-81073968D01*
X149646085Y-81280000D01*
X149625793Y-81486032D01*
X149565695Y-81684146D01*
X149468103Y-81866729D01*
X149336765Y-82026765D01*
X149176729Y-82158103D01*
X148994146Y-82255695D01*
X148796032Y-82315793D01*
X148672510Y-82327959D01*
X148641631Y-82331000D01*
X148538369Y-82331000D01*
X148507490Y-82327959D01*
X148383968Y-82315793D01*
X148185854Y-82255695D01*
X148003271Y-82158103D01*
X147843235Y-82026765D01*
X147711897Y-81866729D01*
X147614305Y-81684146D01*
X147554207Y-81486032D01*
X147533915Y-81280000D01*
X147554207Y-81073968D01*
X147614305Y-80875854D01*
X147711897Y-80693271D01*
X147843235Y-80533235D01*
X148003271Y-80401897D01*
X148185854Y-80304305D01*
X148383968Y-80244207D01*
X148507490Y-80232041D01*
X148538369Y-80229000D01*
X148641631Y-80229000D01*
X148672510Y-80232041D01*
X148672510Y-80232041D01*
G37*
G36*
X97409200Y-80899200D02*
X95630800Y-80899200D01*
X95630800Y-79120800D01*
X97409200Y-79120800D01*
X97409200Y-80899200D01*
X97409200Y-80899200D01*
G37*
G36*
X104399367Y-79154971D02*
X104399369Y-79154972D01*
X104399370Y-79154972D01*
X104409094Y-79159000D01*
X104561195Y-79222002D01*
X104706835Y-79319316D01*
X104830684Y-79443165D01*
X104927998Y-79588805D01*
X104995029Y-79750633D01*
X105029200Y-79922420D01*
X105029200Y-80097580D01*
X104995029Y-80269367D01*
X104927998Y-80431195D01*
X104830684Y-80576835D01*
X104706835Y-80700684D01*
X104561195Y-80797998D01*
X104488046Y-80828297D01*
X104399370Y-80865028D01*
X104399369Y-80865028D01*
X104399367Y-80865029D01*
X104227580Y-80899200D01*
X104052420Y-80899200D01*
X103880633Y-80865029D01*
X103880631Y-80865028D01*
X103880630Y-80865028D01*
X103791954Y-80828297D01*
X103718805Y-80797998D01*
X103573165Y-80700684D01*
X103449316Y-80576835D01*
X103352002Y-80431195D01*
X103284971Y-80269367D01*
X103250800Y-80097580D01*
X103250800Y-79922420D01*
X103284971Y-79750633D01*
X103352002Y-79588805D01*
X103449316Y-79443165D01*
X103573165Y-79319316D01*
X103718805Y-79222002D01*
X103870906Y-79159000D01*
X103880630Y-79154972D01*
X103880631Y-79154972D01*
X103880633Y-79154971D01*
X104052420Y-79120800D01*
X104227580Y-79120800D01*
X104399367Y-79154971D01*
X104399367Y-79154971D01*
G37*
G36*
X120909367Y-79154971D02*
X120909369Y-79154972D01*
X120909370Y-79154972D01*
X120919094Y-79159000D01*
X121071195Y-79222002D01*
X121216835Y-79319316D01*
X121340684Y-79443165D01*
X121437998Y-79588805D01*
X121505029Y-79750633D01*
X121539200Y-79922420D01*
X121539200Y-80097580D01*
X121505029Y-80269367D01*
X121437998Y-80431195D01*
X121340684Y-80576835D01*
X121216835Y-80700684D01*
X121071195Y-80797998D01*
X120998046Y-80828297D01*
X120909370Y-80865028D01*
X120909369Y-80865028D01*
X120909367Y-80865029D01*
X120737580Y-80899200D01*
X120562420Y-80899200D01*
X120390633Y-80865029D01*
X120390631Y-80865028D01*
X120390630Y-80865028D01*
X120301954Y-80828297D01*
X120228805Y-80797998D01*
X120083165Y-80700684D01*
X119959316Y-80576835D01*
X119862002Y-80431195D01*
X119794971Y-80269367D01*
X119760800Y-80097580D01*
X119760800Y-79922420D01*
X119794971Y-79750633D01*
X119862002Y-79588805D01*
X119959316Y-79443165D01*
X120083165Y-79319316D01*
X120228805Y-79222002D01*
X120380906Y-79159000D01*
X120390630Y-79154972D01*
X120390631Y-79154972D01*
X120390633Y-79154971D01*
X120562420Y-79120800D01*
X120737580Y-79120800D01*
X120909367Y-79154971D01*
X120909367Y-79154971D01*
G37*
G36*
X123449367Y-79154971D02*
X123449369Y-79154972D01*
X123449370Y-79154972D01*
X123459094Y-79159000D01*
X123611195Y-79222002D01*
X123756835Y-79319316D01*
X123880684Y-79443165D01*
X123977998Y-79588805D01*
X124045029Y-79750633D01*
X124079200Y-79922420D01*
X124079200Y-80097580D01*
X124045029Y-80269367D01*
X123977998Y-80431195D01*
X123880684Y-80576835D01*
X123756835Y-80700684D01*
X123611195Y-80797998D01*
X123538046Y-80828297D01*
X123449370Y-80865028D01*
X123449369Y-80865028D01*
X123449367Y-80865029D01*
X123277580Y-80899200D01*
X123102420Y-80899200D01*
X122930633Y-80865029D01*
X122930631Y-80865028D01*
X122930630Y-80865028D01*
X122841954Y-80828297D01*
X122768805Y-80797998D01*
X122623165Y-80700684D01*
X122499316Y-80576835D01*
X122402002Y-80431195D01*
X122334971Y-80269367D01*
X122300800Y-80097580D01*
X122300800Y-79922420D01*
X122334971Y-79750633D01*
X122402002Y-79588805D01*
X122499316Y-79443165D01*
X122623165Y-79319316D01*
X122768805Y-79222002D01*
X122920906Y-79159000D01*
X122930630Y-79154972D01*
X122930631Y-79154972D01*
X122930633Y-79154971D01*
X123102420Y-79120800D01*
X123277580Y-79120800D01*
X123449367Y-79154971D01*
X123449367Y-79154971D01*
G37*
G36*
X125989367Y-79154971D02*
X125989369Y-79154972D01*
X125989370Y-79154972D01*
X125999094Y-79159000D01*
X126151195Y-79222002D01*
X126296835Y-79319316D01*
X126420684Y-79443165D01*
X126517998Y-79588805D01*
X126585029Y-79750633D01*
X126619200Y-79922420D01*
X126619200Y-80097580D01*
X126585029Y-80269367D01*
X126517998Y-80431195D01*
X126420684Y-80576835D01*
X126296835Y-80700684D01*
X126151195Y-80797998D01*
X126078046Y-80828297D01*
X125989370Y-80865028D01*
X125989369Y-80865028D01*
X125989367Y-80865029D01*
X125817580Y-80899200D01*
X125642420Y-80899200D01*
X125470633Y-80865029D01*
X125470631Y-80865028D01*
X125470630Y-80865028D01*
X125381954Y-80828297D01*
X125308805Y-80797998D01*
X125163165Y-80700684D01*
X125039316Y-80576835D01*
X124942002Y-80431195D01*
X124874971Y-80269367D01*
X124840800Y-80097580D01*
X124840800Y-79922420D01*
X124874971Y-79750633D01*
X124942002Y-79588805D01*
X125039316Y-79443165D01*
X125163165Y-79319316D01*
X125308805Y-79222002D01*
X125460906Y-79159000D01*
X125470630Y-79154972D01*
X125470631Y-79154972D01*
X125470633Y-79154971D01*
X125642420Y-79120800D01*
X125817580Y-79120800D01*
X125989367Y-79154971D01*
X125989367Y-79154971D01*
G37*
G36*
X129159200Y-80899200D02*
X127380800Y-80899200D01*
X127380800Y-79120800D01*
X129159200Y-79120800D01*
X129159200Y-80899200D01*
X129159200Y-80899200D01*
G37*
G36*
X136258228Y-79191703D02*
X136413100Y-79255853D01*
X136552481Y-79348985D01*
X136671015Y-79467519D01*
X136764147Y-79606900D01*
X136828297Y-79761772D01*
X136861000Y-79926184D01*
X136861000Y-80093816D01*
X136828297Y-80258228D01*
X136764147Y-80413100D01*
X136671015Y-80552481D01*
X136552481Y-80671015D01*
X136413100Y-80764147D01*
X136258228Y-80828297D01*
X136093816Y-80861000D01*
X135926184Y-80861000D01*
X135761772Y-80828297D01*
X135606900Y-80764147D01*
X135467519Y-80671015D01*
X135348985Y-80552481D01*
X135255853Y-80413100D01*
X135191703Y-80258228D01*
X135159000Y-80093816D01*
X135159000Y-79926184D01*
X135191703Y-79761772D01*
X135255853Y-79606900D01*
X135348985Y-79467519D01*
X135467519Y-79348985D01*
X135606900Y-79255853D01*
X135761772Y-79191703D01*
X135926184Y-79159000D01*
X136093816Y-79159000D01*
X136258228Y-79191703D01*
X136258228Y-79191703D01*
G37*
G36*
X143676821Y-79171313D02*
X143676824Y-79171314D01*
X143676825Y-79171314D01*
X143837239Y-79219975D01*
X143837241Y-79219976D01*
X143837244Y-79219977D01*
X143985078Y-79298995D01*
X144114659Y-79405341D01*
X144221005Y-79534922D01*
X144300023Y-79682756D01*
X144300024Y-79682759D01*
X144300025Y-79682761D01*
X144348686Y-79843175D01*
X144348687Y-79843179D01*
X144365117Y-80010000D01*
X144348687Y-80176821D01*
X144348686Y-80176824D01*
X144348686Y-80176825D01*
X144320613Y-80269370D01*
X144300023Y-80337244D01*
X144221005Y-80485078D01*
X144114659Y-80614659D01*
X143985078Y-80721005D01*
X143837244Y-80800023D01*
X143837241Y-80800024D01*
X143837239Y-80800025D01*
X143676825Y-80848686D01*
X143676824Y-80848686D01*
X143676821Y-80848687D01*
X143551804Y-80861000D01*
X143468196Y-80861000D01*
X143343179Y-80848687D01*
X143343176Y-80848686D01*
X143343175Y-80848686D01*
X143182761Y-80800025D01*
X143182759Y-80800024D01*
X143182756Y-80800023D01*
X143034922Y-80721005D01*
X142905341Y-80614659D01*
X142798995Y-80485078D01*
X142719977Y-80337244D01*
X142699388Y-80269370D01*
X142671314Y-80176825D01*
X142671314Y-80176824D01*
X142671313Y-80176821D01*
X142654883Y-80010000D01*
X142671313Y-79843179D01*
X142671314Y-79843175D01*
X142719975Y-79682761D01*
X142719976Y-79682759D01*
X142719977Y-79682756D01*
X142798995Y-79534922D01*
X142905341Y-79405341D01*
X143034922Y-79298995D01*
X143182756Y-79219977D01*
X143182759Y-79219976D01*
X143182761Y-79219975D01*
X143343175Y-79171314D01*
X143343176Y-79171314D01*
X143343179Y-79171313D01*
X143468196Y-79159000D01*
X143551804Y-79159000D01*
X143676821Y-79171313D01*
X143676821Y-79171313D01*
G37*
G36*
X118183665Y-74182622D02*
X118257222Y-74189867D01*
X118398786Y-74232810D01*
X118529252Y-74302546D01*
X118643606Y-74396394D01*
X118737454Y-74510748D01*
X118807190Y-74641214D01*
X118850133Y-74782778D01*
X118864633Y-74930000D01*
X118850133Y-75077222D01*
X118807190Y-75218786D01*
X118737454Y-75349252D01*
X118643606Y-75463606D01*
X118529252Y-75557454D01*
X118398786Y-75627190D01*
X118257222Y-75670133D01*
X118183665Y-75677378D01*
X118146888Y-75681000D01*
X118073112Y-75681000D01*
X118036335Y-75677378D01*
X117962778Y-75670133D01*
X117821214Y-75627190D01*
X117690748Y-75557454D01*
X117576394Y-75463606D01*
X117482546Y-75349252D01*
X117412810Y-75218786D01*
X117369867Y-75077222D01*
X117355367Y-74930000D01*
X117369867Y-74782778D01*
X117412810Y-74641214D01*
X117482546Y-74510748D01*
X117576394Y-74396394D01*
X117690748Y-74302546D01*
X117821214Y-74232810D01*
X117962778Y-74189867D01*
X118036335Y-74182622D01*
X118073112Y-74179000D01*
X118146888Y-74179000D01*
X118183665Y-74182622D01*
X118183665Y-74182622D01*
G37*
G36*
X113158600Y-74189867D02*
X113249059Y-74207860D01*
X113385732Y-74264472D01*
X113442715Y-74302547D01*
X113508738Y-74346662D01*
X113613338Y-74451262D01*
X113613340Y-74451265D01*
X113695528Y-74574268D01*
X113752140Y-74710941D01*
X113781000Y-74856033D01*
X113781000Y-75003967D01*
X113752140Y-75149059D01*
X113695528Y-75285732D01*
X113614446Y-75407079D01*
X113613338Y-75408738D01*
X113508738Y-75513338D01*
X113508735Y-75513340D01*
X113385732Y-75595528D01*
X113249059Y-75652140D01*
X113162004Y-75669456D01*
X113103969Y-75681000D01*
X112956031Y-75681000D01*
X112897996Y-75669456D01*
X112810941Y-75652140D01*
X112674268Y-75595528D01*
X112551265Y-75513340D01*
X112551262Y-75513338D01*
X112446662Y-75408738D01*
X112445554Y-75407079D01*
X112364472Y-75285732D01*
X112307860Y-75149059D01*
X112279000Y-75003967D01*
X112279000Y-74856033D01*
X112307860Y-74710941D01*
X112364472Y-74574268D01*
X112446660Y-74451265D01*
X112446662Y-74451262D01*
X112551262Y-74346662D01*
X112617285Y-74302547D01*
X112674268Y-74264472D01*
X112810941Y-74207860D01*
X112901400Y-74189867D01*
X112956031Y-74179000D01*
X113103969Y-74179000D01*
X113158600Y-74189867D01*
X113158600Y-74189867D01*
G37*
G36*
X123318600Y-74189867D02*
X123409059Y-74207860D01*
X123545732Y-74264472D01*
X123602715Y-74302547D01*
X123668738Y-74346662D01*
X123773338Y-74451262D01*
X123773340Y-74451265D01*
X123855528Y-74574268D01*
X123912140Y-74710941D01*
X123941000Y-74856033D01*
X123941000Y-75003967D01*
X123912140Y-75149059D01*
X123855528Y-75285732D01*
X123774446Y-75407079D01*
X123773338Y-75408738D01*
X123668738Y-75513338D01*
X123668735Y-75513340D01*
X123545732Y-75595528D01*
X123409059Y-75652140D01*
X123322004Y-75669456D01*
X123263969Y-75681000D01*
X123116031Y-75681000D01*
X123057996Y-75669456D01*
X122970941Y-75652140D01*
X122834268Y-75595528D01*
X122711265Y-75513340D01*
X122711262Y-75513338D01*
X122606662Y-75408738D01*
X122605554Y-75407079D01*
X122524472Y-75285732D01*
X122467860Y-75149059D01*
X122439000Y-75003967D01*
X122439000Y-74856033D01*
X122467860Y-74710941D01*
X122524472Y-74574268D01*
X122606660Y-74451265D01*
X122606662Y-74451262D01*
X122711262Y-74346662D01*
X122777285Y-74302547D01*
X122834268Y-74264472D01*
X122970941Y-74207860D01*
X123061400Y-74189867D01*
X123116031Y-74179000D01*
X123263969Y-74179000D01*
X123318600Y-74189867D01*
X123318600Y-74189867D01*
G37*
G36*
X127073665Y-74182622D02*
X127147222Y-74189867D01*
X127288786Y-74232810D01*
X127419252Y-74302546D01*
X127533606Y-74396394D01*
X127627454Y-74510748D01*
X127697190Y-74641214D01*
X127740133Y-74782778D01*
X127754633Y-74930000D01*
X127740133Y-75077222D01*
X127697190Y-75218786D01*
X127627454Y-75349252D01*
X127533606Y-75463606D01*
X127419252Y-75557454D01*
X127288786Y-75627190D01*
X127147222Y-75670133D01*
X127073665Y-75677378D01*
X127036888Y-75681000D01*
X126963112Y-75681000D01*
X126926335Y-75677378D01*
X126852778Y-75670133D01*
X126711214Y-75627190D01*
X126580748Y-75557454D01*
X126466394Y-75463606D01*
X126372546Y-75349252D01*
X126302810Y-75218786D01*
X126259867Y-75077222D01*
X126245367Y-74930000D01*
X126259867Y-74782778D01*
X126302810Y-74641214D01*
X126372546Y-74510748D01*
X126466394Y-74396394D01*
X126580748Y-74302546D01*
X126711214Y-74232810D01*
X126852778Y-74189867D01*
X126926335Y-74182622D01*
X126963112Y-74179000D01*
X127036888Y-74179000D01*
X127073665Y-74182622D01*
X127073665Y-74182622D01*
G37*
G36*
X108023665Y-74182622D02*
X108097222Y-74189867D01*
X108238786Y-74232810D01*
X108369252Y-74302546D01*
X108483606Y-74396394D01*
X108577454Y-74510748D01*
X108647190Y-74641214D01*
X108690133Y-74782778D01*
X108704633Y-74930000D01*
X108690133Y-75077222D01*
X108647190Y-75218786D01*
X108577454Y-75349252D01*
X108483606Y-75463606D01*
X108369252Y-75557454D01*
X108238786Y-75627190D01*
X108097222Y-75670133D01*
X108023665Y-75677378D01*
X107986888Y-75681000D01*
X107913112Y-75681000D01*
X107876335Y-75677378D01*
X107802778Y-75670133D01*
X107661214Y-75627190D01*
X107530748Y-75557454D01*
X107416394Y-75463606D01*
X107322546Y-75349252D01*
X107252810Y-75218786D01*
X107209867Y-75077222D01*
X107195367Y-74930000D01*
X107209867Y-74782778D01*
X107252810Y-74641214D01*
X107322546Y-74510748D01*
X107416394Y-74396394D01*
X107530748Y-74302546D01*
X107661214Y-74232810D01*
X107802778Y-74189867D01*
X107876335Y-74182622D01*
X107913112Y-74179000D01*
X107986888Y-74179000D01*
X108023665Y-74182622D01*
X108023665Y-74182622D01*
G37*
G36*
X132208600Y-74189867D02*
X132299059Y-74207860D01*
X132435732Y-74264472D01*
X132492715Y-74302547D01*
X132558738Y-74346662D01*
X132663338Y-74451262D01*
X132663340Y-74451265D01*
X132745528Y-74574268D01*
X132802140Y-74710941D01*
X132831000Y-74856033D01*
X132831000Y-75003967D01*
X132802140Y-75149059D01*
X132745528Y-75285732D01*
X132664446Y-75407079D01*
X132663338Y-75408738D01*
X132558738Y-75513338D01*
X132558735Y-75513340D01*
X132435732Y-75595528D01*
X132299059Y-75652140D01*
X132212004Y-75669456D01*
X132153969Y-75681000D01*
X132006031Y-75681000D01*
X131947996Y-75669456D01*
X131860941Y-75652140D01*
X131724268Y-75595528D01*
X131601265Y-75513340D01*
X131601262Y-75513338D01*
X131496662Y-75408738D01*
X131495554Y-75407079D01*
X131414472Y-75285732D01*
X131357860Y-75149059D01*
X131329000Y-75003967D01*
X131329000Y-74856033D01*
X131357860Y-74710941D01*
X131414472Y-74574268D01*
X131496660Y-74451265D01*
X131496662Y-74451262D01*
X131601262Y-74346662D01*
X131667285Y-74302547D01*
X131724268Y-74264472D01*
X131860941Y-74207860D01*
X131951400Y-74189867D01*
X132006031Y-74179000D01*
X132153969Y-74179000D01*
X132208600Y-74189867D01*
X132208600Y-74189867D01*
G37*
G36*
X155013665Y-74182622D02*
X155087222Y-74189867D01*
X155228786Y-74232810D01*
X155359252Y-74302546D01*
X155473606Y-74396394D01*
X155567454Y-74510748D01*
X155637190Y-74641214D01*
X155680133Y-74782778D01*
X155694633Y-74930000D01*
X155680133Y-75077222D01*
X155637190Y-75218786D01*
X155567454Y-75349252D01*
X155473606Y-75463606D01*
X155359252Y-75557454D01*
X155228786Y-75627190D01*
X155087222Y-75670133D01*
X155013665Y-75677378D01*
X154976888Y-75681000D01*
X154903112Y-75681000D01*
X154866335Y-75677378D01*
X154792778Y-75670133D01*
X154651214Y-75627190D01*
X154520748Y-75557454D01*
X154406394Y-75463606D01*
X154312546Y-75349252D01*
X154242810Y-75218786D01*
X154199867Y-75077222D01*
X154185367Y-74930000D01*
X154199867Y-74782778D01*
X154242810Y-74641214D01*
X154312546Y-74510748D01*
X154406394Y-74396394D01*
X154520748Y-74302546D01*
X154651214Y-74232810D01*
X154792778Y-74189867D01*
X154866335Y-74182622D01*
X154903112Y-74179000D01*
X154976888Y-74179000D01*
X155013665Y-74182622D01*
X155013665Y-74182622D01*
G37*
G36*
X101728600Y-74189867D02*
X101819059Y-74207860D01*
X101955732Y-74264472D01*
X102012715Y-74302547D01*
X102078738Y-74346662D01*
X102183338Y-74451262D01*
X102183340Y-74451265D01*
X102265528Y-74574268D01*
X102322140Y-74710941D01*
X102351000Y-74856033D01*
X102351000Y-75003967D01*
X102322140Y-75149059D01*
X102265528Y-75285732D01*
X102184446Y-75407079D01*
X102183338Y-75408738D01*
X102078738Y-75513338D01*
X102078735Y-75513340D01*
X101955732Y-75595528D01*
X101819059Y-75652140D01*
X101732004Y-75669456D01*
X101673969Y-75681000D01*
X101526031Y-75681000D01*
X101467996Y-75669456D01*
X101380941Y-75652140D01*
X101244268Y-75595528D01*
X101121265Y-75513340D01*
X101121262Y-75513338D01*
X101016662Y-75408738D01*
X101015554Y-75407079D01*
X100934472Y-75285732D01*
X100877860Y-75149059D01*
X100849000Y-75003967D01*
X100849000Y-74856033D01*
X100877860Y-74710941D01*
X100934472Y-74574268D01*
X101016660Y-74451265D01*
X101016662Y-74451262D01*
X101121262Y-74346662D01*
X101187285Y-74302547D01*
X101244268Y-74264472D01*
X101380941Y-74207860D01*
X101471400Y-74189867D01*
X101526031Y-74179000D01*
X101673969Y-74179000D01*
X101728600Y-74189867D01*
X101728600Y-74189867D01*
G37*
G36*
X96593665Y-74182622D02*
X96667222Y-74189867D01*
X96808786Y-74232810D01*
X96939252Y-74302546D01*
X97053606Y-74396394D01*
X97147454Y-74510748D01*
X97217190Y-74641214D01*
X97260133Y-74782778D01*
X97274633Y-74930000D01*
X97260133Y-75077222D01*
X97217190Y-75218786D01*
X97147454Y-75349252D01*
X97053606Y-75463606D01*
X96939252Y-75557454D01*
X96808786Y-75627190D01*
X96667222Y-75670133D01*
X96593665Y-75677378D01*
X96556888Y-75681000D01*
X96483112Y-75681000D01*
X96446335Y-75677378D01*
X96372778Y-75670133D01*
X96231214Y-75627190D01*
X96100748Y-75557454D01*
X95986394Y-75463606D01*
X95892546Y-75349252D01*
X95822810Y-75218786D01*
X95779867Y-75077222D01*
X95765367Y-74930000D01*
X95779867Y-74782778D01*
X95822810Y-74641214D01*
X95892546Y-74510748D01*
X95986394Y-74396394D01*
X96100748Y-74302546D01*
X96231214Y-74232810D01*
X96372778Y-74189867D01*
X96446335Y-74182622D01*
X96483112Y-74179000D01*
X96556888Y-74179000D01*
X96593665Y-74182622D01*
X96593665Y-74182622D01*
G37*
G36*
X91568600Y-74189867D02*
X91659059Y-74207860D01*
X91795732Y-74264472D01*
X91852715Y-74302547D01*
X91918738Y-74346662D01*
X92023338Y-74451262D01*
X92023340Y-74451265D01*
X92105528Y-74574268D01*
X92162140Y-74710941D01*
X92191000Y-74856033D01*
X92191000Y-75003967D01*
X92162140Y-75149059D01*
X92105528Y-75285732D01*
X92024446Y-75407079D01*
X92023338Y-75408738D01*
X91918738Y-75513338D01*
X91918735Y-75513340D01*
X91795732Y-75595528D01*
X91659059Y-75652140D01*
X91572004Y-75669456D01*
X91513969Y-75681000D01*
X91366031Y-75681000D01*
X91307996Y-75669456D01*
X91220941Y-75652140D01*
X91084268Y-75595528D01*
X90961265Y-75513340D01*
X90961262Y-75513338D01*
X90856662Y-75408738D01*
X90855554Y-75407079D01*
X90774472Y-75285732D01*
X90717860Y-75149059D01*
X90689000Y-75003967D01*
X90689000Y-74856033D01*
X90717860Y-74710941D01*
X90774472Y-74574268D01*
X90856660Y-74451265D01*
X90856662Y-74451262D01*
X90961262Y-74346662D01*
X91027285Y-74302547D01*
X91084268Y-74264472D01*
X91220941Y-74207860D01*
X91311400Y-74189867D01*
X91366031Y-74179000D01*
X91513969Y-74179000D01*
X91568600Y-74189867D01*
X91568600Y-74189867D01*
G37*
G36*
X137233665Y-74182622D02*
X137307222Y-74189867D01*
X137448786Y-74232810D01*
X137579252Y-74302546D01*
X137693606Y-74396394D01*
X137787454Y-74510748D01*
X137857190Y-74641214D01*
X137900133Y-74782778D01*
X137914633Y-74930000D01*
X137900133Y-75077222D01*
X137857190Y-75218786D01*
X137787454Y-75349252D01*
X137693606Y-75463606D01*
X137579252Y-75557454D01*
X137448786Y-75627190D01*
X137307222Y-75670133D01*
X137233665Y-75677378D01*
X137196888Y-75681000D01*
X137123112Y-75681000D01*
X137086335Y-75677378D01*
X137012778Y-75670133D01*
X136871214Y-75627190D01*
X136740748Y-75557454D01*
X136626394Y-75463606D01*
X136532546Y-75349252D01*
X136462810Y-75218786D01*
X136419867Y-75077222D01*
X136405367Y-74930000D01*
X136419867Y-74782778D01*
X136462810Y-74641214D01*
X136532546Y-74510748D01*
X136626394Y-74396394D01*
X136740748Y-74302546D01*
X136871214Y-74232810D01*
X137012778Y-74189867D01*
X137086335Y-74182622D01*
X137123112Y-74179000D01*
X137196888Y-74179000D01*
X137233665Y-74182622D01*
X137233665Y-74182622D01*
G37*
G36*
X86433665Y-74182622D02*
X86507222Y-74189867D01*
X86648786Y-74232810D01*
X86779252Y-74302546D01*
X86893606Y-74396394D01*
X86987454Y-74510748D01*
X87057190Y-74641214D01*
X87100133Y-74782778D01*
X87114633Y-74930000D01*
X87100133Y-75077222D01*
X87057190Y-75218786D01*
X86987454Y-75349252D01*
X86893606Y-75463606D01*
X86779252Y-75557454D01*
X86648786Y-75627190D01*
X86507222Y-75670133D01*
X86433665Y-75677378D01*
X86396888Y-75681000D01*
X86323112Y-75681000D01*
X86286335Y-75677378D01*
X86212778Y-75670133D01*
X86071214Y-75627190D01*
X85940748Y-75557454D01*
X85826394Y-75463606D01*
X85732546Y-75349252D01*
X85662810Y-75218786D01*
X85619867Y-75077222D01*
X85605367Y-74930000D01*
X85619867Y-74782778D01*
X85662810Y-74641214D01*
X85732546Y-74510748D01*
X85826394Y-74396394D01*
X85940748Y-74302546D01*
X86071214Y-74232810D01*
X86212778Y-74189867D01*
X86286335Y-74182622D01*
X86323112Y-74179000D01*
X86396888Y-74179000D01*
X86433665Y-74182622D01*
X86433665Y-74182622D01*
G37*
G36*
X142368600Y-74189867D02*
X142459059Y-74207860D01*
X142595732Y-74264472D01*
X142652715Y-74302547D01*
X142718738Y-74346662D01*
X142823338Y-74451262D01*
X142823340Y-74451265D01*
X142905528Y-74574268D01*
X142962140Y-74710941D01*
X142991000Y-74856033D01*
X142991000Y-75003967D01*
X142962140Y-75149059D01*
X142905528Y-75285732D01*
X142824446Y-75407079D01*
X142823338Y-75408738D01*
X142718738Y-75513338D01*
X142718735Y-75513340D01*
X142595732Y-75595528D01*
X142459059Y-75652140D01*
X142372004Y-75669456D01*
X142313969Y-75681000D01*
X142166031Y-75681000D01*
X142107996Y-75669456D01*
X142020941Y-75652140D01*
X141884268Y-75595528D01*
X141761265Y-75513340D01*
X141761262Y-75513338D01*
X141656662Y-75408738D01*
X141655554Y-75407079D01*
X141574472Y-75285732D01*
X141517860Y-75149059D01*
X141489000Y-75003967D01*
X141489000Y-74856033D01*
X141517860Y-74710941D01*
X141574472Y-74574268D01*
X141656660Y-74451265D01*
X141656662Y-74451262D01*
X141761262Y-74346662D01*
X141827285Y-74302547D01*
X141884268Y-74264472D01*
X142020941Y-74207860D01*
X142111400Y-74189867D01*
X142166031Y-74179000D01*
X142313969Y-74179000D01*
X142368600Y-74189867D01*
X142368600Y-74189867D01*
G37*
G36*
X146123665Y-74182622D02*
X146197222Y-74189867D01*
X146338786Y-74232810D01*
X146469252Y-74302546D01*
X146583606Y-74396394D01*
X146677454Y-74510748D01*
X146747190Y-74641214D01*
X146790133Y-74782778D01*
X146804633Y-74930000D01*
X146790133Y-75077222D01*
X146747190Y-75218786D01*
X146677454Y-75349252D01*
X146583606Y-75463606D01*
X146469252Y-75557454D01*
X146338786Y-75627190D01*
X146197222Y-75670133D01*
X146123665Y-75677378D01*
X146086888Y-75681000D01*
X146013112Y-75681000D01*
X145976335Y-75677378D01*
X145902778Y-75670133D01*
X145761214Y-75627190D01*
X145630748Y-75557454D01*
X145516394Y-75463606D01*
X145422546Y-75349252D01*
X145352810Y-75218786D01*
X145309867Y-75077222D01*
X145295367Y-74930000D01*
X145309867Y-74782778D01*
X145352810Y-74641214D01*
X145422546Y-74510748D01*
X145516394Y-74396394D01*
X145630748Y-74302546D01*
X145761214Y-74232810D01*
X145902778Y-74189867D01*
X145976335Y-74182622D01*
X146013112Y-74179000D01*
X146086888Y-74179000D01*
X146123665Y-74182622D01*
X146123665Y-74182622D01*
G37*
G36*
X151258600Y-74189867D02*
X151349059Y-74207860D01*
X151485732Y-74264472D01*
X151542715Y-74302547D01*
X151608738Y-74346662D01*
X151713338Y-74451262D01*
X151713340Y-74451265D01*
X151795528Y-74574268D01*
X151852140Y-74710941D01*
X151881000Y-74856033D01*
X151881000Y-75003967D01*
X151852140Y-75149059D01*
X151795528Y-75285732D01*
X151714446Y-75407079D01*
X151713338Y-75408738D01*
X151608738Y-75513338D01*
X151608735Y-75513340D01*
X151485732Y-75595528D01*
X151349059Y-75652140D01*
X151262004Y-75669456D01*
X151203969Y-75681000D01*
X151056031Y-75681000D01*
X150997996Y-75669456D01*
X150910941Y-75652140D01*
X150774268Y-75595528D01*
X150651265Y-75513340D01*
X150651262Y-75513338D01*
X150546662Y-75408738D01*
X150545554Y-75407079D01*
X150464472Y-75285732D01*
X150407860Y-75149059D01*
X150379000Y-75003967D01*
X150379000Y-74856033D01*
X150407860Y-74710941D01*
X150464472Y-74574268D01*
X150546660Y-74451265D01*
X150546662Y-74451262D01*
X150651262Y-74346662D01*
X150717285Y-74302547D01*
X150774268Y-74264472D01*
X150910941Y-74207860D01*
X151001400Y-74189867D01*
X151056031Y-74179000D01*
X151203969Y-74179000D01*
X151258600Y-74189867D01*
X151258600Y-74189867D01*
G37*
G36*
X160148600Y-74189867D02*
X160239059Y-74207860D01*
X160375732Y-74264472D01*
X160432715Y-74302547D01*
X160498738Y-74346662D01*
X160603338Y-74451262D01*
X160603340Y-74451265D01*
X160685528Y-74574268D01*
X160742140Y-74710941D01*
X160771000Y-74856033D01*
X160771000Y-75003967D01*
X160742140Y-75149059D01*
X160685528Y-75285732D01*
X160604446Y-75407079D01*
X160603338Y-75408738D01*
X160498738Y-75513338D01*
X160498735Y-75513340D01*
X160375732Y-75595528D01*
X160239059Y-75652140D01*
X160152004Y-75669456D01*
X160093969Y-75681000D01*
X159946031Y-75681000D01*
X159887996Y-75669456D01*
X159800941Y-75652140D01*
X159664268Y-75595528D01*
X159541265Y-75513340D01*
X159541262Y-75513338D01*
X159436662Y-75408738D01*
X159435554Y-75407079D01*
X159354472Y-75285732D01*
X159297860Y-75149059D01*
X159269000Y-75003967D01*
X159269000Y-74856033D01*
X159297860Y-74710941D01*
X159354472Y-74574268D01*
X159436660Y-74451265D01*
X159436662Y-74451262D01*
X159541262Y-74346662D01*
X159607285Y-74302547D01*
X159664268Y-74264472D01*
X159800941Y-74207860D01*
X159891400Y-74189867D01*
X159946031Y-74179000D01*
X160093969Y-74179000D01*
X160148600Y-74189867D01*
X160148600Y-74189867D01*
G37*
G36*
X94146821Y-70281313D02*
X94146824Y-70281314D01*
X94146825Y-70281314D01*
X94307239Y-70329975D01*
X94307241Y-70329976D01*
X94307244Y-70329977D01*
X94455078Y-70408995D01*
X94584659Y-70515341D01*
X94691005Y-70644922D01*
X94770023Y-70792756D01*
X94770024Y-70792759D01*
X94770025Y-70792761D01*
X94818686Y-70953175D01*
X94818687Y-70953179D01*
X94835117Y-71120000D01*
X94818687Y-71286821D01*
X94818686Y-71286824D01*
X94818686Y-71286825D01*
X94806427Y-71327239D01*
X94770023Y-71447244D01*
X94691005Y-71595078D01*
X94584659Y-71724659D01*
X94455078Y-71831005D01*
X94307244Y-71910023D01*
X94307241Y-71910024D01*
X94307239Y-71910025D01*
X94146825Y-71958686D01*
X94146824Y-71958686D01*
X94146821Y-71958687D01*
X94021804Y-71971000D01*
X93938196Y-71971000D01*
X93813179Y-71958687D01*
X93813176Y-71958686D01*
X93813175Y-71958686D01*
X93652761Y-71910025D01*
X93652759Y-71910024D01*
X93652756Y-71910023D01*
X93504922Y-71831005D01*
X93375341Y-71724659D01*
X93268995Y-71595078D01*
X93189977Y-71447244D01*
X93153574Y-71327239D01*
X93141314Y-71286825D01*
X93141314Y-71286824D01*
X93141313Y-71286821D01*
X93124883Y-71120000D01*
X93141313Y-70953179D01*
X93141314Y-70953175D01*
X93189975Y-70792761D01*
X93189976Y-70792759D01*
X93189977Y-70792756D01*
X93268995Y-70644922D01*
X93375341Y-70515341D01*
X93504922Y-70408995D01*
X93652756Y-70329977D01*
X93652759Y-70329976D01*
X93652761Y-70329975D01*
X93813175Y-70281314D01*
X93813176Y-70281314D01*
X93813179Y-70281313D01*
X93938196Y-70269000D01*
X94021804Y-70269000D01*
X94146821Y-70281313D01*
X94146821Y-70281313D01*
G37*
G36*
X134786821Y-70161313D02*
X134786824Y-70161314D01*
X134786825Y-70161314D01*
X134947239Y-70209975D01*
X134947241Y-70209976D01*
X134947244Y-70209977D01*
X135095078Y-70288995D01*
X135224659Y-70395341D01*
X135331005Y-70524922D01*
X135410023Y-70672756D01*
X135410024Y-70672759D01*
X135410025Y-70672761D01*
X135458686Y-70833175D01*
X135458687Y-70833179D01*
X135475117Y-71000000D01*
X135458687Y-71166821D01*
X135458686Y-71166824D01*
X135458686Y-71166825D01*
X135422286Y-71286821D01*
X135410023Y-71327244D01*
X135331005Y-71475078D01*
X135224659Y-71604659D01*
X135095078Y-71711005D01*
X134947244Y-71790023D01*
X134947241Y-71790024D01*
X134947239Y-71790025D01*
X134786825Y-71838686D01*
X134786824Y-71838686D01*
X134786821Y-71838687D01*
X134661804Y-71851000D01*
X134578196Y-71851000D01*
X134453179Y-71838687D01*
X134453176Y-71838686D01*
X134453175Y-71838686D01*
X134292761Y-71790025D01*
X134292759Y-71790024D01*
X134292756Y-71790023D01*
X134144922Y-71711005D01*
X134015341Y-71604659D01*
X133908995Y-71475078D01*
X133829977Y-71327244D01*
X133817715Y-71286821D01*
X133781314Y-71166825D01*
X133781314Y-71166824D01*
X133781313Y-71166821D01*
X133764883Y-71000000D01*
X133781313Y-70833179D01*
X133781314Y-70833175D01*
X133829975Y-70672761D01*
X133829976Y-70672759D01*
X133829977Y-70672756D01*
X133908995Y-70524922D01*
X134015341Y-70395341D01*
X134144922Y-70288995D01*
X134292756Y-70209977D01*
X134292759Y-70209976D01*
X134292761Y-70209975D01*
X134453175Y-70161314D01*
X134453176Y-70161314D01*
X134453179Y-70161313D01*
X134578196Y-70149000D01*
X134661804Y-70149000D01*
X134786821Y-70161313D01*
X134786821Y-70161313D01*
G37*
G36*
X153836821Y-70161313D02*
X153836824Y-70161314D01*
X153836825Y-70161314D01*
X153997239Y-70209975D01*
X153997241Y-70209976D01*
X153997244Y-70209977D01*
X154145078Y-70288995D01*
X154274659Y-70395341D01*
X154381005Y-70524922D01*
X154460023Y-70672756D01*
X154460024Y-70672759D01*
X154460025Y-70672761D01*
X154508686Y-70833175D01*
X154508687Y-70833179D01*
X154525117Y-71000000D01*
X154508687Y-71166821D01*
X154508686Y-71166824D01*
X154508686Y-71166825D01*
X154472286Y-71286821D01*
X154460023Y-71327244D01*
X154381005Y-71475078D01*
X154274659Y-71604659D01*
X154145078Y-71711005D01*
X153997244Y-71790023D01*
X153997241Y-71790024D01*
X153997239Y-71790025D01*
X153836825Y-71838686D01*
X153836824Y-71838686D01*
X153836821Y-71838687D01*
X153711804Y-71851000D01*
X153628196Y-71851000D01*
X153503179Y-71838687D01*
X153503176Y-71838686D01*
X153503175Y-71838686D01*
X153342761Y-71790025D01*
X153342759Y-71790024D01*
X153342756Y-71790023D01*
X153194922Y-71711005D01*
X153065341Y-71604659D01*
X152958995Y-71475078D01*
X152879977Y-71327244D01*
X152867715Y-71286821D01*
X152831314Y-71166825D01*
X152831314Y-71166824D01*
X152831313Y-71166821D01*
X152814883Y-71000000D01*
X152831313Y-70833179D01*
X152831314Y-70833175D01*
X152879975Y-70672761D01*
X152879976Y-70672759D01*
X152879977Y-70672756D01*
X152958995Y-70524922D01*
X153065341Y-70395341D01*
X153194922Y-70288995D01*
X153342756Y-70209977D01*
X153342759Y-70209976D01*
X153342761Y-70209975D01*
X153503175Y-70161314D01*
X153503176Y-70161314D01*
X153503179Y-70161313D01*
X153628196Y-70149000D01*
X153711804Y-70149000D01*
X153836821Y-70161313D01*
X153836821Y-70161313D01*
G37*
G36*
X115736821Y-70161313D02*
X115736824Y-70161314D01*
X115736825Y-70161314D01*
X115897239Y-70209975D01*
X115897241Y-70209976D01*
X115897244Y-70209977D01*
X116045078Y-70288995D01*
X116174659Y-70395341D01*
X116281005Y-70524922D01*
X116360023Y-70672756D01*
X116360024Y-70672759D01*
X116360025Y-70672761D01*
X116408686Y-70833175D01*
X116408687Y-70833179D01*
X116425117Y-71000000D01*
X116408687Y-71166821D01*
X116408686Y-71166824D01*
X116408686Y-71166825D01*
X116372286Y-71286821D01*
X116360023Y-71327244D01*
X116281005Y-71475078D01*
X116174659Y-71604659D01*
X116045078Y-71711005D01*
X115897244Y-71790023D01*
X115897241Y-71790024D01*
X115897239Y-71790025D01*
X115736825Y-71838686D01*
X115736824Y-71838686D01*
X115736821Y-71838687D01*
X115611804Y-71851000D01*
X115528196Y-71851000D01*
X115403179Y-71838687D01*
X115403176Y-71838686D01*
X115403175Y-71838686D01*
X115242761Y-71790025D01*
X115242759Y-71790024D01*
X115242756Y-71790023D01*
X115094922Y-71711005D01*
X114965341Y-71604659D01*
X114858995Y-71475078D01*
X114779977Y-71327244D01*
X114767715Y-71286821D01*
X114731314Y-71166825D01*
X114731314Y-71166824D01*
X114731313Y-71166821D01*
X114714883Y-71000000D01*
X114731313Y-70833179D01*
X114731314Y-70833175D01*
X114779975Y-70672761D01*
X114779976Y-70672759D01*
X114779977Y-70672756D01*
X114858995Y-70524922D01*
X114965341Y-70395341D01*
X115094922Y-70288995D01*
X115242756Y-70209977D01*
X115242759Y-70209976D01*
X115242761Y-70209975D01*
X115403175Y-70161314D01*
X115403176Y-70161314D01*
X115403179Y-70161313D01*
X115528196Y-70149000D01*
X115611804Y-70149000D01*
X115736821Y-70161313D01*
X115736821Y-70161313D01*
G37*
G36*
X128343665Y-67832622D02*
X128417222Y-67839867D01*
X128558786Y-67882810D01*
X128689252Y-67952546D01*
X128803606Y-68046394D01*
X128897454Y-68160748D01*
X128967190Y-68291214D01*
X129010133Y-68432778D01*
X129024633Y-68580000D01*
X129010133Y-68727222D01*
X128967190Y-68868786D01*
X128897454Y-68999252D01*
X128803606Y-69113606D01*
X128689252Y-69207454D01*
X128558786Y-69277190D01*
X128417222Y-69320133D01*
X128343665Y-69327378D01*
X128306888Y-69331000D01*
X128233112Y-69331000D01*
X128196335Y-69327378D01*
X128122778Y-69320133D01*
X127981214Y-69277190D01*
X127850748Y-69207454D01*
X127736394Y-69113606D01*
X127642546Y-68999252D01*
X127572810Y-68868786D01*
X127529867Y-68727222D01*
X127515367Y-68580000D01*
X127529867Y-68432778D01*
X127572810Y-68291214D01*
X127642546Y-68160748D01*
X127736394Y-68046394D01*
X127850748Y-67952546D01*
X127981214Y-67882810D01*
X128122778Y-67839867D01*
X128196335Y-67832622D01*
X128233112Y-67829000D01*
X128306888Y-67829000D01*
X128343665Y-67832622D01*
X128343665Y-67832622D01*
G37*
G36*
X88973665Y-67832622D02*
X89047222Y-67839867D01*
X89188786Y-67882810D01*
X89319252Y-67952546D01*
X89433606Y-68046394D01*
X89527454Y-68160748D01*
X89597190Y-68291214D01*
X89640133Y-68432778D01*
X89654633Y-68580000D01*
X89640133Y-68727222D01*
X89597190Y-68868786D01*
X89527454Y-68999252D01*
X89433606Y-69113606D01*
X89319252Y-69207454D01*
X89188786Y-69277190D01*
X89047222Y-69320133D01*
X88973665Y-69327378D01*
X88936888Y-69331000D01*
X88863112Y-69331000D01*
X88826335Y-69327378D01*
X88752778Y-69320133D01*
X88611214Y-69277190D01*
X88480748Y-69207454D01*
X88366394Y-69113606D01*
X88272546Y-68999252D01*
X88202810Y-68868786D01*
X88159867Y-68727222D01*
X88145367Y-68580000D01*
X88159867Y-68432778D01*
X88202810Y-68291214D01*
X88272546Y-68160748D01*
X88366394Y-68046394D01*
X88480748Y-67952546D01*
X88611214Y-67882810D01*
X88752778Y-67839867D01*
X88826335Y-67832622D01*
X88863112Y-67829000D01*
X88936888Y-67829000D01*
X88973665Y-67832622D01*
X88973665Y-67832622D01*
G37*
G36*
X160148600Y-67839867D02*
X160239059Y-67857860D01*
X160375732Y-67914472D01*
X160432715Y-67952547D01*
X160498738Y-67996662D01*
X160603338Y-68101262D01*
X160603340Y-68101265D01*
X160685528Y-68224268D01*
X160742140Y-68360941D01*
X160771000Y-68506033D01*
X160771000Y-68653967D01*
X160742140Y-68799059D01*
X160685528Y-68935732D01*
X160604446Y-69057079D01*
X160603338Y-69058738D01*
X160498738Y-69163338D01*
X160498735Y-69163340D01*
X160375732Y-69245528D01*
X160239059Y-69302140D01*
X160152004Y-69319456D01*
X160093969Y-69331000D01*
X159946031Y-69331000D01*
X159887996Y-69319456D01*
X159800941Y-69302140D01*
X159664268Y-69245528D01*
X159541265Y-69163340D01*
X159541262Y-69163338D01*
X159436662Y-69058738D01*
X159435554Y-69057079D01*
X159354472Y-68935732D01*
X159297860Y-68799059D01*
X159269000Y-68653967D01*
X159269000Y-68506033D01*
X159297860Y-68360941D01*
X159354472Y-68224268D01*
X159436660Y-68101265D01*
X159436662Y-68101262D01*
X159541262Y-67996662D01*
X159607285Y-67952547D01*
X159664268Y-67914472D01*
X159800941Y-67857860D01*
X159891400Y-67839867D01*
X159946031Y-67829000D01*
X160093969Y-67829000D01*
X160148600Y-67839867D01*
X160148600Y-67839867D01*
G37*
G36*
X120778600Y-67839867D02*
X120869059Y-67857860D01*
X121005732Y-67914472D01*
X121062715Y-67952547D01*
X121128738Y-67996662D01*
X121233338Y-68101262D01*
X121233340Y-68101265D01*
X121315528Y-68224268D01*
X121372140Y-68360941D01*
X121401000Y-68506033D01*
X121401000Y-68653967D01*
X121372140Y-68799059D01*
X121315528Y-68935732D01*
X121234446Y-69057079D01*
X121233338Y-69058738D01*
X121128738Y-69163338D01*
X121128735Y-69163340D01*
X121005732Y-69245528D01*
X120869059Y-69302140D01*
X120782004Y-69319456D01*
X120723969Y-69331000D01*
X120576031Y-69331000D01*
X120517996Y-69319456D01*
X120430941Y-69302140D01*
X120294268Y-69245528D01*
X120171265Y-69163340D01*
X120171262Y-69163338D01*
X120066662Y-69058738D01*
X120065554Y-69057079D01*
X119984472Y-68935732D01*
X119927860Y-68799059D01*
X119899000Y-68653967D01*
X119899000Y-68506033D01*
X119927860Y-68360941D01*
X119984472Y-68224268D01*
X120066660Y-68101265D01*
X120066662Y-68101262D01*
X120171262Y-67996662D01*
X120237285Y-67952547D01*
X120294268Y-67914472D01*
X120430941Y-67857860D01*
X120521400Y-67839867D01*
X120576031Y-67829000D01*
X120723969Y-67829000D01*
X120778600Y-67839867D01*
X120778600Y-67839867D01*
G37*
G36*
X147393665Y-67832622D02*
X147467222Y-67839867D01*
X147608786Y-67882810D01*
X147739252Y-67952546D01*
X147853606Y-68046394D01*
X147947454Y-68160748D01*
X148017190Y-68291214D01*
X148060133Y-68432778D01*
X148074633Y-68580000D01*
X148060133Y-68727222D01*
X148017190Y-68868786D01*
X147947454Y-68999252D01*
X147853606Y-69113606D01*
X147739252Y-69207454D01*
X147608786Y-69277190D01*
X147467222Y-69320133D01*
X147393665Y-69327378D01*
X147356888Y-69331000D01*
X147283112Y-69331000D01*
X147246335Y-69327378D01*
X147172778Y-69320133D01*
X147031214Y-69277190D01*
X146900748Y-69207454D01*
X146786394Y-69113606D01*
X146692546Y-68999252D01*
X146622810Y-68868786D01*
X146579867Y-68727222D01*
X146565367Y-68580000D01*
X146579867Y-68432778D01*
X146622810Y-68291214D01*
X146692546Y-68160748D01*
X146786394Y-68046394D01*
X146900748Y-67952546D01*
X147031214Y-67882810D01*
X147172778Y-67839867D01*
X147246335Y-67832622D01*
X147283112Y-67829000D01*
X147356888Y-67829000D01*
X147393665Y-67832622D01*
X147393665Y-67832622D01*
G37*
G36*
X111888600Y-67839867D02*
X111979059Y-67857860D01*
X112115732Y-67914472D01*
X112172715Y-67952547D01*
X112238738Y-67996662D01*
X112343338Y-68101262D01*
X112343340Y-68101265D01*
X112425528Y-68224268D01*
X112482140Y-68360941D01*
X112511000Y-68506033D01*
X112511000Y-68653967D01*
X112482140Y-68799059D01*
X112425528Y-68935732D01*
X112344446Y-69057079D01*
X112343338Y-69058738D01*
X112238738Y-69163338D01*
X112238735Y-69163340D01*
X112115732Y-69245528D01*
X111979059Y-69302140D01*
X111892004Y-69319456D01*
X111833969Y-69331000D01*
X111686031Y-69331000D01*
X111627996Y-69319456D01*
X111540941Y-69302140D01*
X111404268Y-69245528D01*
X111281265Y-69163340D01*
X111281262Y-69163338D01*
X111176662Y-69058738D01*
X111175554Y-69057079D01*
X111094472Y-68935732D01*
X111037860Y-68799059D01*
X111009000Y-68653967D01*
X111009000Y-68506033D01*
X111037860Y-68360941D01*
X111094472Y-68224268D01*
X111176660Y-68101265D01*
X111176662Y-68101262D01*
X111281262Y-67996662D01*
X111347285Y-67952547D01*
X111404268Y-67914472D01*
X111540941Y-67857860D01*
X111631400Y-67839867D01*
X111686031Y-67829000D01*
X111833969Y-67829000D01*
X111888600Y-67839867D01*
X111888600Y-67839867D01*
G37*
G36*
X99188600Y-67839867D02*
X99279059Y-67857860D01*
X99415732Y-67914472D01*
X99472715Y-67952547D01*
X99538738Y-67996662D01*
X99643338Y-68101262D01*
X99643340Y-68101265D01*
X99725528Y-68224268D01*
X99782140Y-68360941D01*
X99811000Y-68506033D01*
X99811000Y-68653967D01*
X99782140Y-68799059D01*
X99725528Y-68935732D01*
X99644446Y-69057079D01*
X99643338Y-69058738D01*
X99538738Y-69163338D01*
X99538735Y-69163340D01*
X99415732Y-69245528D01*
X99279059Y-69302140D01*
X99192004Y-69319456D01*
X99133969Y-69331000D01*
X98986031Y-69331000D01*
X98927996Y-69319456D01*
X98840941Y-69302140D01*
X98704268Y-69245528D01*
X98581265Y-69163340D01*
X98581262Y-69163338D01*
X98476662Y-69058738D01*
X98475554Y-69057079D01*
X98394472Y-68935732D01*
X98337860Y-68799059D01*
X98309000Y-68653967D01*
X98309000Y-68506033D01*
X98337860Y-68360941D01*
X98394472Y-68224268D01*
X98476660Y-68101265D01*
X98476662Y-68101262D01*
X98581262Y-67996662D01*
X98647285Y-67952547D01*
X98704268Y-67914472D01*
X98840941Y-67857860D01*
X98931400Y-67839867D01*
X98986031Y-67829000D01*
X99133969Y-67829000D01*
X99188600Y-67839867D01*
X99188600Y-67839867D01*
G37*
G36*
X106808600Y-67839867D02*
X106899059Y-67857860D01*
X107035732Y-67914472D01*
X107092715Y-67952547D01*
X107158738Y-67996662D01*
X107263338Y-68101262D01*
X107263340Y-68101265D01*
X107345528Y-68224268D01*
X107402140Y-68360941D01*
X107431000Y-68506033D01*
X107431000Y-68653967D01*
X107402140Y-68799059D01*
X107345528Y-68935732D01*
X107264446Y-69057079D01*
X107263338Y-69058738D01*
X107158738Y-69163338D01*
X107158735Y-69163340D01*
X107035732Y-69245528D01*
X106899059Y-69302140D01*
X106812004Y-69319456D01*
X106753969Y-69331000D01*
X106606031Y-69331000D01*
X106547996Y-69319456D01*
X106460941Y-69302140D01*
X106324268Y-69245528D01*
X106201265Y-69163340D01*
X106201262Y-69163338D01*
X106096662Y-69058738D01*
X106095554Y-69057079D01*
X106014472Y-68935732D01*
X105957860Y-68799059D01*
X105929000Y-68653967D01*
X105929000Y-68506033D01*
X105957860Y-68360941D01*
X106014472Y-68224268D01*
X106096660Y-68101265D01*
X106096662Y-68101262D01*
X106201262Y-67996662D01*
X106267285Y-67952547D01*
X106324268Y-67914472D01*
X106460941Y-67857860D01*
X106551400Y-67839867D01*
X106606031Y-67829000D01*
X106753969Y-67829000D01*
X106808600Y-67839867D01*
X106808600Y-67839867D01*
G37*
G36*
X141098600Y-67839867D02*
X141189059Y-67857860D01*
X141325732Y-67914472D01*
X141382715Y-67952547D01*
X141448738Y-67996662D01*
X141553338Y-68101262D01*
X141553340Y-68101265D01*
X141635528Y-68224268D01*
X141692140Y-68360941D01*
X141721000Y-68506033D01*
X141721000Y-68653967D01*
X141692140Y-68799059D01*
X141635528Y-68935732D01*
X141554446Y-69057079D01*
X141553338Y-69058738D01*
X141448738Y-69163338D01*
X141448735Y-69163340D01*
X141325732Y-69245528D01*
X141189059Y-69302140D01*
X141102004Y-69319456D01*
X141043969Y-69331000D01*
X140896031Y-69331000D01*
X140837996Y-69319456D01*
X140750941Y-69302140D01*
X140614268Y-69245528D01*
X140491265Y-69163340D01*
X140491262Y-69163338D01*
X140386662Y-69058738D01*
X140385554Y-69057079D01*
X140304472Y-68935732D01*
X140247860Y-68799059D01*
X140219000Y-68653967D01*
X140219000Y-68506033D01*
X140247860Y-68360941D01*
X140304472Y-68224268D01*
X140386660Y-68101265D01*
X140386662Y-68101262D01*
X140491262Y-67996662D01*
X140557285Y-67952547D01*
X140614268Y-67914472D01*
X140750941Y-67857860D01*
X140841400Y-67839867D01*
X140896031Y-67829000D01*
X141043969Y-67829000D01*
X141098600Y-67839867D01*
X141098600Y-67839867D01*
G37*
G36*
X94228228Y-62801703D02*
X94383100Y-62865853D01*
X94522481Y-62958985D01*
X94641015Y-63077519D01*
X94734147Y-63216900D01*
X94798297Y-63371772D01*
X94831000Y-63536184D01*
X94831000Y-63703816D01*
X94798297Y-63868228D01*
X94734147Y-64023100D01*
X94641015Y-64162481D01*
X94522481Y-64281015D01*
X94383100Y-64374147D01*
X94228228Y-64438297D01*
X94063816Y-64471000D01*
X93896184Y-64471000D01*
X93731772Y-64438297D01*
X93576900Y-64374147D01*
X93437519Y-64281015D01*
X93318985Y-64162481D01*
X93225853Y-64023100D01*
X93161703Y-63868228D01*
X93129000Y-63703816D01*
X93129000Y-63536184D01*
X93161703Y-63371772D01*
X93225853Y-63216900D01*
X93318985Y-63077519D01*
X93437519Y-62958985D01*
X93576900Y-62865853D01*
X93731772Y-62801703D01*
X93896184Y-62769000D01*
X94063816Y-62769000D01*
X94228228Y-62801703D01*
X94228228Y-62801703D01*
G37*
G36*
X134868228Y-62681703D02*
X135023100Y-62745853D01*
X135162481Y-62838985D01*
X135281015Y-62957519D01*
X135374147Y-63096900D01*
X135438297Y-63251772D01*
X135471000Y-63416184D01*
X135471000Y-63583816D01*
X135438297Y-63748228D01*
X135374147Y-63903100D01*
X135281015Y-64042481D01*
X135162481Y-64161015D01*
X135023100Y-64254147D01*
X134868228Y-64318297D01*
X134703816Y-64351000D01*
X134536184Y-64351000D01*
X134371772Y-64318297D01*
X134216900Y-64254147D01*
X134077519Y-64161015D01*
X133958985Y-64042481D01*
X133865853Y-63903100D01*
X133801703Y-63748228D01*
X133769000Y-63583816D01*
X133769000Y-63416184D01*
X133801703Y-63251772D01*
X133865853Y-63096900D01*
X133958985Y-62957519D01*
X134077519Y-62838985D01*
X134216900Y-62745853D01*
X134371772Y-62681703D01*
X134536184Y-62649000D01*
X134703816Y-62649000D01*
X134868228Y-62681703D01*
X134868228Y-62681703D01*
G37*
G36*
X153918228Y-62681703D02*
X154073100Y-62745853D01*
X154212481Y-62838985D01*
X154331015Y-62957519D01*
X154424147Y-63096900D01*
X154488297Y-63251772D01*
X154521000Y-63416184D01*
X154521000Y-63583816D01*
X154488297Y-63748228D01*
X154424147Y-63903100D01*
X154331015Y-64042481D01*
X154212481Y-64161015D01*
X154073100Y-64254147D01*
X153918228Y-64318297D01*
X153753816Y-64351000D01*
X153586184Y-64351000D01*
X153421772Y-64318297D01*
X153266900Y-64254147D01*
X153127519Y-64161015D01*
X153008985Y-64042481D01*
X152915853Y-63903100D01*
X152851703Y-63748228D01*
X152819000Y-63583816D01*
X152819000Y-63416184D01*
X152851703Y-63251772D01*
X152915853Y-63096900D01*
X153008985Y-62957519D01*
X153127519Y-62838985D01*
X153266900Y-62745853D01*
X153421772Y-62681703D01*
X153586184Y-62649000D01*
X153753816Y-62649000D01*
X153918228Y-62681703D01*
X153918228Y-62681703D01*
G37*
G36*
X115818228Y-62681703D02*
X115973100Y-62745853D01*
X116112481Y-62838985D01*
X116231015Y-62957519D01*
X116324147Y-63096900D01*
X116388297Y-63251772D01*
X116421000Y-63416184D01*
X116421000Y-63583816D01*
X116388297Y-63748228D01*
X116324147Y-63903100D01*
X116231015Y-64042481D01*
X116112481Y-64161015D01*
X115973100Y-64254147D01*
X115818228Y-64318297D01*
X115653816Y-64351000D01*
X115486184Y-64351000D01*
X115321772Y-64318297D01*
X115166900Y-64254147D01*
X115027519Y-64161015D01*
X114908985Y-64042481D01*
X114815853Y-63903100D01*
X114751703Y-63748228D01*
X114719000Y-63583816D01*
X114719000Y-63416184D01*
X114751703Y-63251772D01*
X114815853Y-63096900D01*
X114908985Y-62957519D01*
X115027519Y-62838985D01*
X115166900Y-62745853D01*
X115321772Y-62681703D01*
X115486184Y-62649000D01*
X115653816Y-62649000D01*
X115818228Y-62681703D01*
X115818228Y-62681703D01*
G37*
G36*
X128398600Y-62759867D02*
X128489059Y-62777860D01*
X128625732Y-62834472D01*
X128682715Y-62872547D01*
X128748738Y-62916662D01*
X128853338Y-63021262D01*
X128853340Y-63021265D01*
X128935528Y-63144268D01*
X128992140Y-63280941D01*
X129021000Y-63426033D01*
X129021000Y-63573967D01*
X128992140Y-63719059D01*
X128935528Y-63855732D01*
X128854446Y-63977079D01*
X128853338Y-63978738D01*
X128748738Y-64083338D01*
X128748735Y-64083340D01*
X128625732Y-64165528D01*
X128489059Y-64222140D01*
X128402004Y-64239456D01*
X128343969Y-64251000D01*
X128196031Y-64251000D01*
X128137996Y-64239456D01*
X128050941Y-64222140D01*
X127914268Y-64165528D01*
X127791265Y-64083340D01*
X127791262Y-64083338D01*
X127686662Y-63978738D01*
X127685554Y-63977079D01*
X127604472Y-63855732D01*
X127547860Y-63719059D01*
X127519000Y-63573967D01*
X127519000Y-63426033D01*
X127547860Y-63280941D01*
X127604472Y-63144268D01*
X127686660Y-63021265D01*
X127686662Y-63021262D01*
X127791262Y-62916662D01*
X127857285Y-62872547D01*
X127914268Y-62834472D01*
X128050941Y-62777860D01*
X128141400Y-62759867D01*
X128196031Y-62749000D01*
X128343969Y-62749000D01*
X128398600Y-62759867D01*
X128398600Y-62759867D01*
G37*
G36*
X120723665Y-62752622D02*
X120797222Y-62759867D01*
X120938786Y-62802810D01*
X121069252Y-62872546D01*
X121183606Y-62966394D01*
X121277454Y-63080748D01*
X121347190Y-63211214D01*
X121390133Y-63352778D01*
X121404633Y-63500000D01*
X121390133Y-63647222D01*
X121347190Y-63788786D01*
X121277454Y-63919252D01*
X121183606Y-64033606D01*
X121069252Y-64127454D01*
X120938786Y-64197190D01*
X120797222Y-64240133D01*
X120723665Y-64247378D01*
X120686888Y-64251000D01*
X120613112Y-64251000D01*
X120576335Y-64247378D01*
X120502778Y-64240133D01*
X120361214Y-64197190D01*
X120230748Y-64127454D01*
X120116394Y-64033606D01*
X120022546Y-63919252D01*
X119952810Y-63788786D01*
X119909867Y-63647222D01*
X119895367Y-63500000D01*
X119909867Y-63352778D01*
X119952810Y-63211214D01*
X120022546Y-63080748D01*
X120116394Y-62966394D01*
X120230748Y-62872546D01*
X120361214Y-62802810D01*
X120502778Y-62759867D01*
X120576335Y-62752622D01*
X120613112Y-62749000D01*
X120686888Y-62749000D01*
X120723665Y-62752622D01*
X120723665Y-62752622D01*
G37*
G36*
X111833665Y-62752622D02*
X111907222Y-62759867D01*
X112048786Y-62802810D01*
X112179252Y-62872546D01*
X112293606Y-62966394D01*
X112387454Y-63080748D01*
X112457190Y-63211214D01*
X112500133Y-63352778D01*
X112514633Y-63500000D01*
X112500133Y-63647222D01*
X112457190Y-63788786D01*
X112387454Y-63919252D01*
X112293606Y-64033606D01*
X112179252Y-64127454D01*
X112048786Y-64197190D01*
X111907222Y-64240133D01*
X111833665Y-64247378D01*
X111796888Y-64251000D01*
X111723112Y-64251000D01*
X111686335Y-64247378D01*
X111612778Y-64240133D01*
X111471214Y-64197190D01*
X111340748Y-64127454D01*
X111226394Y-64033606D01*
X111132546Y-63919252D01*
X111062810Y-63788786D01*
X111019867Y-63647222D01*
X111005367Y-63500000D01*
X111019867Y-63352778D01*
X111062810Y-63211214D01*
X111132546Y-63080748D01*
X111226394Y-62966394D01*
X111340748Y-62872546D01*
X111471214Y-62802810D01*
X111612778Y-62759867D01*
X111686335Y-62752622D01*
X111723112Y-62749000D01*
X111796888Y-62749000D01*
X111833665Y-62752622D01*
X111833665Y-62752622D01*
G37*
G36*
X160093665Y-62752622D02*
X160167222Y-62759867D01*
X160308786Y-62802810D01*
X160439252Y-62872546D01*
X160553606Y-62966394D01*
X160647454Y-63080748D01*
X160717190Y-63211214D01*
X160760133Y-63352778D01*
X160774633Y-63500000D01*
X160760133Y-63647222D01*
X160717190Y-63788786D01*
X160647454Y-63919252D01*
X160553606Y-64033606D01*
X160439252Y-64127454D01*
X160308786Y-64197190D01*
X160167222Y-64240133D01*
X160093665Y-64247378D01*
X160056888Y-64251000D01*
X159983112Y-64251000D01*
X159946335Y-64247378D01*
X159872778Y-64240133D01*
X159731214Y-64197190D01*
X159600748Y-64127454D01*
X159486394Y-64033606D01*
X159392546Y-63919252D01*
X159322810Y-63788786D01*
X159279867Y-63647222D01*
X159265367Y-63500000D01*
X159279867Y-63352778D01*
X159322810Y-63211214D01*
X159392546Y-63080748D01*
X159486394Y-62966394D01*
X159600748Y-62872546D01*
X159731214Y-62802810D01*
X159872778Y-62759867D01*
X159946335Y-62752622D01*
X159983112Y-62749000D01*
X160056888Y-62749000D01*
X160093665Y-62752622D01*
X160093665Y-62752622D01*
G37*
G36*
X147448600Y-62759867D02*
X147539059Y-62777860D01*
X147675732Y-62834472D01*
X147732715Y-62872547D01*
X147798738Y-62916662D01*
X147903338Y-63021262D01*
X147903340Y-63021265D01*
X147985528Y-63144268D01*
X148042140Y-63280941D01*
X148071000Y-63426033D01*
X148071000Y-63573967D01*
X148042140Y-63719059D01*
X147985528Y-63855732D01*
X147904446Y-63977079D01*
X147903338Y-63978738D01*
X147798738Y-64083338D01*
X147798735Y-64083340D01*
X147675732Y-64165528D01*
X147539059Y-64222140D01*
X147452004Y-64239456D01*
X147393969Y-64251000D01*
X147246031Y-64251000D01*
X147187996Y-64239456D01*
X147100941Y-64222140D01*
X146964268Y-64165528D01*
X146841265Y-64083340D01*
X146841262Y-64083338D01*
X146736662Y-63978738D01*
X146735554Y-63977079D01*
X146654472Y-63855732D01*
X146597860Y-63719059D01*
X146569000Y-63573967D01*
X146569000Y-63426033D01*
X146597860Y-63280941D01*
X146654472Y-63144268D01*
X146736660Y-63021265D01*
X146736662Y-63021262D01*
X146841262Y-62916662D01*
X146907285Y-62872547D01*
X146964268Y-62834472D01*
X147100941Y-62777860D01*
X147191400Y-62759867D01*
X147246031Y-62749000D01*
X147393969Y-62749000D01*
X147448600Y-62759867D01*
X147448600Y-62759867D01*
G37*
G36*
X106753665Y-62752622D02*
X106827222Y-62759867D01*
X106968786Y-62802810D01*
X107099252Y-62872546D01*
X107213606Y-62966394D01*
X107307454Y-63080748D01*
X107377190Y-63211214D01*
X107420133Y-63352778D01*
X107434633Y-63500000D01*
X107420133Y-63647222D01*
X107377190Y-63788786D01*
X107307454Y-63919252D01*
X107213606Y-64033606D01*
X107099252Y-64127454D01*
X106968786Y-64197190D01*
X106827222Y-64240133D01*
X106753665Y-64247378D01*
X106716888Y-64251000D01*
X106643112Y-64251000D01*
X106606335Y-64247378D01*
X106532778Y-64240133D01*
X106391214Y-64197190D01*
X106260748Y-64127454D01*
X106146394Y-64033606D01*
X106052546Y-63919252D01*
X105982810Y-63788786D01*
X105939867Y-63647222D01*
X105925367Y-63500000D01*
X105939867Y-63352778D01*
X105982810Y-63211214D01*
X106052546Y-63080748D01*
X106146394Y-62966394D01*
X106260748Y-62872546D01*
X106391214Y-62802810D01*
X106532778Y-62759867D01*
X106606335Y-62752622D01*
X106643112Y-62749000D01*
X106716888Y-62749000D01*
X106753665Y-62752622D01*
X106753665Y-62752622D01*
G37*
G36*
X141043665Y-62752622D02*
X141117222Y-62759867D01*
X141258786Y-62802810D01*
X141389252Y-62872546D01*
X141503606Y-62966394D01*
X141597454Y-63080748D01*
X141667190Y-63211214D01*
X141710133Y-63352778D01*
X141724633Y-63500000D01*
X141710133Y-63647222D01*
X141667190Y-63788786D01*
X141597454Y-63919252D01*
X141503606Y-64033606D01*
X141389252Y-64127454D01*
X141258786Y-64197190D01*
X141117222Y-64240133D01*
X141043665Y-64247378D01*
X141006888Y-64251000D01*
X140933112Y-64251000D01*
X140896335Y-64247378D01*
X140822778Y-64240133D01*
X140681214Y-64197190D01*
X140550748Y-64127454D01*
X140436394Y-64033606D01*
X140342546Y-63919252D01*
X140272810Y-63788786D01*
X140229867Y-63647222D01*
X140215367Y-63500000D01*
X140229867Y-63352778D01*
X140272810Y-63211214D01*
X140342546Y-63080748D01*
X140436394Y-62966394D01*
X140550748Y-62872546D01*
X140681214Y-62802810D01*
X140822778Y-62759867D01*
X140896335Y-62752622D01*
X140933112Y-62749000D01*
X141006888Y-62749000D01*
X141043665Y-62752622D01*
X141043665Y-62752622D01*
G37*
G36*
X99133665Y-62752622D02*
X99207222Y-62759867D01*
X99348786Y-62802810D01*
X99479252Y-62872546D01*
X99593606Y-62966394D01*
X99687454Y-63080748D01*
X99757190Y-63211214D01*
X99800133Y-63352778D01*
X99814633Y-63500000D01*
X99800133Y-63647222D01*
X99757190Y-63788786D01*
X99687454Y-63919252D01*
X99593606Y-64033606D01*
X99479252Y-64127454D01*
X99348786Y-64197190D01*
X99207222Y-64240133D01*
X99133665Y-64247378D01*
X99096888Y-64251000D01*
X99023112Y-64251000D01*
X98986335Y-64247378D01*
X98912778Y-64240133D01*
X98771214Y-64197190D01*
X98640748Y-64127454D01*
X98526394Y-64033606D01*
X98432546Y-63919252D01*
X98362810Y-63788786D01*
X98319867Y-63647222D01*
X98305367Y-63500000D01*
X98319867Y-63352778D01*
X98362810Y-63211214D01*
X98432546Y-63080748D01*
X98526394Y-62966394D01*
X98640748Y-62872546D01*
X98771214Y-62802810D01*
X98912778Y-62759867D01*
X98986335Y-62752622D01*
X99023112Y-62749000D01*
X99096888Y-62749000D01*
X99133665Y-62752622D01*
X99133665Y-62752622D01*
G37*
G36*
X89028600Y-62759867D02*
X89119059Y-62777860D01*
X89255732Y-62834472D01*
X89312715Y-62872547D01*
X89378738Y-62916662D01*
X89483338Y-63021262D01*
X89483340Y-63021265D01*
X89565528Y-63144268D01*
X89622140Y-63280941D01*
X89651000Y-63426033D01*
X89651000Y-63573967D01*
X89622140Y-63719059D01*
X89565528Y-63855732D01*
X89484446Y-63977079D01*
X89483338Y-63978738D01*
X89378738Y-64083338D01*
X89378735Y-64083340D01*
X89255732Y-64165528D01*
X89119059Y-64222140D01*
X89032004Y-64239456D01*
X88973969Y-64251000D01*
X88826031Y-64251000D01*
X88767996Y-64239456D01*
X88680941Y-64222140D01*
X88544268Y-64165528D01*
X88421265Y-64083340D01*
X88421262Y-64083338D01*
X88316662Y-63978738D01*
X88315554Y-63977079D01*
X88234472Y-63855732D01*
X88177860Y-63719059D01*
X88149000Y-63573967D01*
X88149000Y-63426033D01*
X88177860Y-63280941D01*
X88234472Y-63144268D01*
X88316660Y-63021265D01*
X88316662Y-63021262D01*
X88421262Y-62916662D01*
X88487285Y-62872547D01*
X88544268Y-62834472D01*
X88680941Y-62777860D01*
X88771400Y-62759867D01*
X88826031Y-62749000D01*
X88973969Y-62749000D01*
X89028600Y-62759867D01*
X89028600Y-62759867D01*
G37*
G36*
X98038228Y-57601703D02*
X98193100Y-57665853D01*
X98332481Y-57758985D01*
X98451015Y-57877519D01*
X98544147Y-58016900D01*
X98608297Y-58171772D01*
X98641000Y-58336184D01*
X98641000Y-58503816D01*
X98608297Y-58668228D01*
X98544147Y-58823100D01*
X98451015Y-58962481D01*
X98332481Y-59081015D01*
X98193100Y-59174147D01*
X98038228Y-59238297D01*
X97873816Y-59271000D01*
X97706184Y-59271000D01*
X97541772Y-59238297D01*
X97386900Y-59174147D01*
X97247519Y-59081015D01*
X97128985Y-58962481D01*
X97035853Y-58823100D01*
X96971703Y-58668228D01*
X96939000Y-58503816D01*
X96939000Y-58336184D01*
X96971703Y-58171772D01*
X97035853Y-58016900D01*
X97128985Y-57877519D01*
X97247519Y-57758985D01*
X97386900Y-57665853D01*
X97541772Y-57601703D01*
X97706184Y-57569000D01*
X97873816Y-57569000D01*
X98038228Y-57601703D01*
X98038228Y-57601703D01*
G37*
G36*
X157728228Y-57601703D02*
X157883100Y-57665853D01*
X158022481Y-57758985D01*
X158141015Y-57877519D01*
X158234147Y-58016900D01*
X158298297Y-58171772D01*
X158331000Y-58336184D01*
X158331000Y-58503816D01*
X158298297Y-58668228D01*
X158234147Y-58823100D01*
X158141015Y-58962481D01*
X158022481Y-59081015D01*
X157883100Y-59174147D01*
X157728228Y-59238297D01*
X157563816Y-59271000D01*
X157396184Y-59271000D01*
X157231772Y-59238297D01*
X157076900Y-59174147D01*
X156937519Y-59081015D01*
X156818985Y-58962481D01*
X156725853Y-58823100D01*
X156661703Y-58668228D01*
X156629000Y-58503816D01*
X156629000Y-58336184D01*
X156661703Y-58171772D01*
X156725853Y-58016900D01*
X156818985Y-57877519D01*
X156937519Y-57758985D01*
X157076900Y-57665853D01*
X157231772Y-57601703D01*
X157396184Y-57569000D01*
X157563816Y-57569000D01*
X157728228Y-57601703D01*
X157728228Y-57601703D01*
G37*
G36*
X150146821Y-57581313D02*
X150146824Y-57581314D01*
X150146825Y-57581314D01*
X150307239Y-57629975D01*
X150307241Y-57629976D01*
X150307244Y-57629977D01*
X150455078Y-57708995D01*
X150584659Y-57815341D01*
X150691005Y-57944922D01*
X150770023Y-58092756D01*
X150770024Y-58092759D01*
X150770025Y-58092761D01*
X150802841Y-58200941D01*
X150818687Y-58253179D01*
X150835117Y-58420000D01*
X150818687Y-58586821D01*
X150818686Y-58586824D01*
X150818686Y-58586825D01*
X150793993Y-58668228D01*
X150770023Y-58747244D01*
X150691005Y-58895078D01*
X150584659Y-59024659D01*
X150455078Y-59131005D01*
X150307244Y-59210023D01*
X150307241Y-59210024D01*
X150307239Y-59210025D01*
X150146825Y-59258686D01*
X150146824Y-59258686D01*
X150146821Y-59258687D01*
X150021804Y-59271000D01*
X149938196Y-59271000D01*
X149813179Y-59258687D01*
X149813176Y-59258686D01*
X149813175Y-59258686D01*
X149652761Y-59210025D01*
X149652759Y-59210024D01*
X149652756Y-59210023D01*
X149504922Y-59131005D01*
X149375341Y-59024659D01*
X149268995Y-58895078D01*
X149189977Y-58747244D01*
X149166008Y-58668228D01*
X149141314Y-58586825D01*
X149141314Y-58586824D01*
X149141313Y-58586821D01*
X149124883Y-58420000D01*
X149141313Y-58253179D01*
X149157159Y-58200941D01*
X149189975Y-58092761D01*
X149189976Y-58092759D01*
X149189977Y-58092756D01*
X149268995Y-57944922D01*
X149375341Y-57815341D01*
X149504922Y-57708995D01*
X149652756Y-57629977D01*
X149652759Y-57629976D01*
X149652761Y-57629975D01*
X149813175Y-57581314D01*
X149813176Y-57581314D01*
X149813179Y-57581313D01*
X149938196Y-57569000D01*
X150021804Y-57569000D01*
X150146821Y-57581313D01*
X150146821Y-57581313D01*
G37*
G36*
X130976821Y-57581313D02*
X130976824Y-57581314D01*
X130976825Y-57581314D01*
X131137239Y-57629975D01*
X131137241Y-57629976D01*
X131137244Y-57629977D01*
X131285078Y-57708995D01*
X131414659Y-57815341D01*
X131521005Y-57944922D01*
X131600023Y-58092756D01*
X131600024Y-58092759D01*
X131600025Y-58092761D01*
X131632841Y-58200941D01*
X131648687Y-58253179D01*
X131665117Y-58420000D01*
X131648687Y-58586821D01*
X131648686Y-58586824D01*
X131648686Y-58586825D01*
X131623993Y-58668228D01*
X131600023Y-58747244D01*
X131521005Y-58895078D01*
X131414659Y-59024659D01*
X131285078Y-59131005D01*
X131137244Y-59210023D01*
X131137241Y-59210024D01*
X131137239Y-59210025D01*
X130976825Y-59258686D01*
X130976824Y-59258686D01*
X130976821Y-59258687D01*
X130851804Y-59271000D01*
X130768196Y-59271000D01*
X130643179Y-59258687D01*
X130643176Y-59258686D01*
X130643175Y-59258686D01*
X130482761Y-59210025D01*
X130482759Y-59210024D01*
X130482756Y-59210023D01*
X130334922Y-59131005D01*
X130205341Y-59024659D01*
X130098995Y-58895078D01*
X130019977Y-58747244D01*
X129996008Y-58668228D01*
X129971314Y-58586825D01*
X129971314Y-58586824D01*
X129971313Y-58586821D01*
X129954883Y-58420000D01*
X129971313Y-58253179D01*
X129987159Y-58200941D01*
X130019975Y-58092761D01*
X130019976Y-58092759D01*
X130019977Y-58092756D01*
X130098995Y-57944922D01*
X130205341Y-57815341D01*
X130334922Y-57708995D01*
X130482756Y-57629977D01*
X130482759Y-57629976D01*
X130482761Y-57629975D01*
X130643175Y-57581314D01*
X130643176Y-57581314D01*
X130643179Y-57581313D01*
X130768196Y-57569000D01*
X130851804Y-57569000D01*
X130976821Y-57581313D01*
X130976821Y-57581313D01*
G37*
G36*
X138558228Y-57601703D02*
X138713100Y-57665853D01*
X138852481Y-57758985D01*
X138971015Y-57877519D01*
X139064147Y-58016900D01*
X139128297Y-58171772D01*
X139161000Y-58336184D01*
X139161000Y-58503816D01*
X139128297Y-58668228D01*
X139064147Y-58823100D01*
X138971015Y-58962481D01*
X138852481Y-59081015D01*
X138713100Y-59174147D01*
X138558228Y-59238297D01*
X138393816Y-59271000D01*
X138226184Y-59271000D01*
X138061772Y-59238297D01*
X137906900Y-59174147D01*
X137767519Y-59081015D01*
X137648985Y-58962481D01*
X137555853Y-58823100D01*
X137491703Y-58668228D01*
X137459000Y-58503816D01*
X137459000Y-58336184D01*
X137491703Y-58171772D01*
X137555853Y-58016900D01*
X137648985Y-57877519D01*
X137767519Y-57758985D01*
X137906900Y-57665853D01*
X138061772Y-57601703D01*
X138226184Y-57569000D01*
X138393816Y-57569000D01*
X138558228Y-57601703D01*
X138558228Y-57601703D01*
G37*
G36*
X119628228Y-57601703D02*
X119783100Y-57665853D01*
X119922481Y-57758985D01*
X120041015Y-57877519D01*
X120134147Y-58016900D01*
X120198297Y-58171772D01*
X120231000Y-58336184D01*
X120231000Y-58503816D01*
X120198297Y-58668228D01*
X120134147Y-58823100D01*
X120041015Y-58962481D01*
X119922481Y-59081015D01*
X119783100Y-59174147D01*
X119628228Y-59238297D01*
X119463816Y-59271000D01*
X119296184Y-59271000D01*
X119131772Y-59238297D01*
X118976900Y-59174147D01*
X118837519Y-59081015D01*
X118718985Y-58962481D01*
X118625853Y-58823100D01*
X118561703Y-58668228D01*
X118529000Y-58503816D01*
X118529000Y-58336184D01*
X118561703Y-58171772D01*
X118625853Y-58016900D01*
X118718985Y-57877519D01*
X118837519Y-57758985D01*
X118976900Y-57665853D01*
X119131772Y-57601703D01*
X119296184Y-57569000D01*
X119463816Y-57569000D01*
X119628228Y-57601703D01*
X119628228Y-57601703D01*
G37*
G36*
X112046821Y-57581313D02*
X112046824Y-57581314D01*
X112046825Y-57581314D01*
X112207239Y-57629975D01*
X112207241Y-57629976D01*
X112207244Y-57629977D01*
X112355078Y-57708995D01*
X112484659Y-57815341D01*
X112591005Y-57944922D01*
X112670023Y-58092756D01*
X112670024Y-58092759D01*
X112670025Y-58092761D01*
X112702841Y-58200941D01*
X112718687Y-58253179D01*
X112735117Y-58420000D01*
X112718687Y-58586821D01*
X112718686Y-58586824D01*
X112718686Y-58586825D01*
X112693993Y-58668228D01*
X112670023Y-58747244D01*
X112591005Y-58895078D01*
X112484659Y-59024659D01*
X112355078Y-59131005D01*
X112207244Y-59210023D01*
X112207241Y-59210024D01*
X112207239Y-59210025D01*
X112046825Y-59258686D01*
X112046824Y-59258686D01*
X112046821Y-59258687D01*
X111921804Y-59271000D01*
X111838196Y-59271000D01*
X111713179Y-59258687D01*
X111713176Y-59258686D01*
X111713175Y-59258686D01*
X111552761Y-59210025D01*
X111552759Y-59210024D01*
X111552756Y-59210023D01*
X111404922Y-59131005D01*
X111275341Y-59024659D01*
X111168995Y-58895078D01*
X111089977Y-58747244D01*
X111066008Y-58668228D01*
X111041314Y-58586825D01*
X111041314Y-58586824D01*
X111041313Y-58586821D01*
X111024883Y-58420000D01*
X111041313Y-58253179D01*
X111057159Y-58200941D01*
X111089975Y-58092761D01*
X111089976Y-58092759D01*
X111089977Y-58092756D01*
X111168995Y-57944922D01*
X111275341Y-57815341D01*
X111404922Y-57708995D01*
X111552756Y-57629977D01*
X111552759Y-57629976D01*
X111552761Y-57629975D01*
X111713175Y-57581314D01*
X111713176Y-57581314D01*
X111713179Y-57581313D01*
X111838196Y-57569000D01*
X111921804Y-57569000D01*
X112046821Y-57581313D01*
X112046821Y-57581313D01*
G37*
G36*
X90456821Y-57581313D02*
X90456824Y-57581314D01*
X90456825Y-57581314D01*
X90617239Y-57629975D01*
X90617241Y-57629976D01*
X90617244Y-57629977D01*
X90765078Y-57708995D01*
X90894659Y-57815341D01*
X91001005Y-57944922D01*
X91080023Y-58092756D01*
X91080024Y-58092759D01*
X91080025Y-58092761D01*
X91112841Y-58200941D01*
X91128687Y-58253179D01*
X91145117Y-58420000D01*
X91128687Y-58586821D01*
X91128686Y-58586824D01*
X91128686Y-58586825D01*
X91103993Y-58668228D01*
X91080023Y-58747244D01*
X91001005Y-58895078D01*
X90894659Y-59024659D01*
X90765078Y-59131005D01*
X90617244Y-59210023D01*
X90617241Y-59210024D01*
X90617239Y-59210025D01*
X90456825Y-59258686D01*
X90456824Y-59258686D01*
X90456821Y-59258687D01*
X90331804Y-59271000D01*
X90248196Y-59271000D01*
X90123179Y-59258687D01*
X90123176Y-59258686D01*
X90123175Y-59258686D01*
X89962761Y-59210025D01*
X89962759Y-59210024D01*
X89962756Y-59210023D01*
X89814922Y-59131005D01*
X89685341Y-59024659D01*
X89578995Y-58895078D01*
X89499977Y-58747244D01*
X89476008Y-58668228D01*
X89451314Y-58586825D01*
X89451314Y-58586824D01*
X89451313Y-58586821D01*
X89434883Y-58420000D01*
X89451313Y-58253179D01*
X89467159Y-58200941D01*
X89499975Y-58092761D01*
X89499976Y-58092759D01*
X89499977Y-58092756D01*
X89578995Y-57944922D01*
X89685341Y-57815341D01*
X89814922Y-57708995D01*
X89962756Y-57629977D01*
X89962759Y-57629976D01*
X89962761Y-57629975D01*
X90123175Y-57581314D01*
X90123176Y-57581314D01*
X90123179Y-57581313D01*
X90248196Y-57569000D01*
X90331804Y-57569000D01*
X90456821Y-57581313D01*
X90456821Y-57581313D01*
G37*
G36*
X123322004Y-57680544D02*
X123409059Y-57697860D01*
X123545732Y-57754472D01*
X123636829Y-57815341D01*
X123668738Y-57836662D01*
X123773338Y-57941262D01*
X123773340Y-57941265D01*
X123855528Y-58064268D01*
X123912140Y-58200941D01*
X123941000Y-58346033D01*
X123941000Y-58493967D01*
X123912140Y-58639059D01*
X123855528Y-58775732D01*
X123855527Y-58775733D01*
X123773338Y-58898738D01*
X123668738Y-59003338D01*
X123668735Y-59003340D01*
X123545732Y-59085528D01*
X123409059Y-59142140D01*
X123322004Y-59159456D01*
X123263969Y-59171000D01*
X123116031Y-59171000D01*
X123057996Y-59159456D01*
X122970941Y-59142140D01*
X122834268Y-59085528D01*
X122711265Y-59003340D01*
X122711262Y-59003338D01*
X122606662Y-58898738D01*
X122524473Y-58775733D01*
X122524472Y-58775732D01*
X122467860Y-58639059D01*
X122439000Y-58493967D01*
X122439000Y-58346033D01*
X122467860Y-58200941D01*
X122524472Y-58064268D01*
X122606660Y-57941265D01*
X122606662Y-57941262D01*
X122711262Y-57836662D01*
X122743171Y-57815341D01*
X122834268Y-57754472D01*
X122970941Y-57697860D01*
X123057996Y-57680544D01*
X123116031Y-57669000D01*
X123263969Y-57669000D01*
X123322004Y-57680544D01*
X123322004Y-57680544D01*
G37*
G36*
X106812004Y-57680544D02*
X106899059Y-57697860D01*
X107035732Y-57754472D01*
X107126829Y-57815341D01*
X107158738Y-57836662D01*
X107263338Y-57941262D01*
X107263340Y-57941265D01*
X107345528Y-58064268D01*
X107402140Y-58200941D01*
X107431000Y-58346033D01*
X107431000Y-58493967D01*
X107402140Y-58639059D01*
X107345528Y-58775732D01*
X107345527Y-58775733D01*
X107263338Y-58898738D01*
X107158738Y-59003338D01*
X107158735Y-59003340D01*
X107035732Y-59085528D01*
X106899059Y-59142140D01*
X106812004Y-59159456D01*
X106753969Y-59171000D01*
X106606031Y-59171000D01*
X106547996Y-59159456D01*
X106460941Y-59142140D01*
X106324268Y-59085528D01*
X106201265Y-59003340D01*
X106201262Y-59003338D01*
X106096662Y-58898738D01*
X106014473Y-58775733D01*
X106014472Y-58775732D01*
X105957860Y-58639059D01*
X105929000Y-58493967D01*
X105929000Y-58346033D01*
X105957860Y-58200941D01*
X106014472Y-58064268D01*
X106096660Y-57941265D01*
X106096662Y-57941262D01*
X106201262Y-57836662D01*
X106233171Y-57815341D01*
X106324268Y-57754472D01*
X106460941Y-57697860D01*
X106547996Y-57680544D01*
X106606031Y-57669000D01*
X106753969Y-57669000D01*
X106812004Y-57680544D01*
X106812004Y-57680544D01*
G37*
G36*
X106753665Y-52592622D02*
X106827222Y-52599867D01*
X106968786Y-52642810D01*
X107099252Y-52712546D01*
X107213606Y-52806394D01*
X107307454Y-52920748D01*
X107377190Y-53051214D01*
X107420133Y-53192778D01*
X107434633Y-53340000D01*
X107420133Y-53487222D01*
X107377190Y-53628786D01*
X107307454Y-53759252D01*
X107213606Y-53873606D01*
X107099252Y-53967454D01*
X106968786Y-54037190D01*
X106827222Y-54080133D01*
X106753665Y-54087378D01*
X106716888Y-54091000D01*
X106643112Y-54091000D01*
X106606335Y-54087378D01*
X106532778Y-54080133D01*
X106391214Y-54037190D01*
X106260748Y-53967454D01*
X106146394Y-53873606D01*
X106052546Y-53759252D01*
X105982810Y-53628786D01*
X105939867Y-53487222D01*
X105925367Y-53340000D01*
X105939867Y-53192778D01*
X105982810Y-53051214D01*
X106052546Y-52920748D01*
X106146394Y-52806394D01*
X106260748Y-52712546D01*
X106391214Y-52642810D01*
X106532778Y-52599867D01*
X106606335Y-52592622D01*
X106643112Y-52589000D01*
X106716888Y-52589000D01*
X106753665Y-52592622D01*
X106753665Y-52592622D01*
G37*
G36*
X123263665Y-52592622D02*
X123337222Y-52599867D01*
X123478786Y-52642810D01*
X123609252Y-52712546D01*
X123723606Y-52806394D01*
X123817454Y-52920748D01*
X123887190Y-53051214D01*
X123930133Y-53192778D01*
X123944633Y-53340000D01*
X123930133Y-53487222D01*
X123887190Y-53628786D01*
X123817454Y-53759252D01*
X123723606Y-53873606D01*
X123609252Y-53967454D01*
X123478786Y-54037190D01*
X123337222Y-54080133D01*
X123263665Y-54087378D01*
X123226888Y-54091000D01*
X123153112Y-54091000D01*
X123116335Y-54087378D01*
X123042778Y-54080133D01*
X122901214Y-54037190D01*
X122770748Y-53967454D01*
X122656394Y-53873606D01*
X122562546Y-53759252D01*
X122492810Y-53628786D01*
X122449867Y-53487222D01*
X122435367Y-53340000D01*
X122449867Y-53192778D01*
X122492810Y-53051214D01*
X122562546Y-52920748D01*
X122656394Y-52806394D01*
X122770748Y-52712546D01*
X122901214Y-52642810D01*
X123042778Y-52599867D01*
X123116335Y-52592622D01*
X123153112Y-52589000D01*
X123226888Y-52589000D01*
X123263665Y-52592622D01*
X123263665Y-52592622D01*
G37*
G36*
X161625734Y-49693232D02*
X161835202Y-49779996D01*
X162023723Y-49905962D01*
X162184038Y-50066277D01*
X162310004Y-50254798D01*
X162396768Y-50464266D01*
X162441000Y-50686635D01*
X162441000Y-50913365D01*
X162396768Y-51135734D01*
X162310004Y-51345202D01*
X162184038Y-51533723D01*
X162023723Y-51694038D01*
X161835202Y-51820004D01*
X161625734Y-51906768D01*
X161403365Y-51951000D01*
X161176635Y-51951000D01*
X160954266Y-51906768D01*
X160744798Y-51820004D01*
X160556277Y-51694038D01*
X160395962Y-51533723D01*
X160269996Y-51345202D01*
X160183232Y-51135734D01*
X160139000Y-50913365D01*
X160139000Y-50686635D01*
X160183232Y-50464266D01*
X160269996Y-50254798D01*
X160395962Y-50066277D01*
X160556277Y-49905962D01*
X160744798Y-49779996D01*
X160954266Y-49693232D01*
X161176635Y-49649000D01*
X161403365Y-49649000D01*
X161625734Y-49693232D01*
X161625734Y-49693232D01*
G37*
G36*
X86695734Y-49693232D02*
X86905202Y-49779996D01*
X87093723Y-49905962D01*
X87254038Y-50066277D01*
X87380004Y-50254798D01*
X87466768Y-50464266D01*
X87511000Y-50686635D01*
X87511000Y-50913365D01*
X87466768Y-51135734D01*
X87380004Y-51345202D01*
X87254038Y-51533723D01*
X87093723Y-51694038D01*
X86905202Y-51820004D01*
X86695734Y-51906768D01*
X86473365Y-51951000D01*
X86246635Y-51951000D01*
X86024266Y-51906768D01*
X85814798Y-51820004D01*
X85626277Y-51694038D01*
X85465962Y-51533723D01*
X85339996Y-51345202D01*
X85253232Y-51135734D01*
X85209000Y-50913365D01*
X85209000Y-50686635D01*
X85253232Y-50464266D01*
X85339996Y-50254798D01*
X85465962Y-50066277D01*
X85626277Y-49905962D01*
X85814798Y-49779996D01*
X86024266Y-49693232D01*
X86246635Y-49649000D01*
X86473365Y-49649000D01*
X86695734Y-49693232D01*
X86695734Y-49693232D01*
G37*
G36*
X94286565Y-49789389D02*
X94477834Y-49868615D01*
X94649976Y-49983637D01*
X94796363Y-50130024D01*
X94911385Y-50302166D01*
X94990611Y-50493435D01*
X95031000Y-50696484D01*
X95031000Y-50903516D01*
X94990611Y-51106565D01*
X94911385Y-51297834D01*
X94796363Y-51469976D01*
X94649976Y-51616363D01*
X94477834Y-51731385D01*
X94286565Y-51810611D01*
X94083516Y-51851000D01*
X93876484Y-51851000D01*
X93673435Y-51810611D01*
X93482166Y-51731385D01*
X93310024Y-51616363D01*
X93163637Y-51469976D01*
X93048615Y-51297834D01*
X92969389Y-51106565D01*
X92929000Y-50903516D01*
X92929000Y-50696484D01*
X92969389Y-50493435D01*
X93048615Y-50302166D01*
X93163637Y-50130024D01*
X93310024Y-49983637D01*
X93482166Y-49868615D01*
X93673435Y-49789389D01*
X93876484Y-49749000D01*
X94083516Y-49749000D01*
X94286565Y-49789389D01*
X94286565Y-49789389D01*
G37*
G36*
X91746565Y-49789389D02*
X91937834Y-49868615D01*
X92109976Y-49983637D01*
X92256363Y-50130024D01*
X92371385Y-50302166D01*
X92450611Y-50493435D01*
X92491000Y-50696484D01*
X92491000Y-50903516D01*
X92450611Y-51106565D01*
X92371385Y-51297834D01*
X92256363Y-51469976D01*
X92109976Y-51616363D01*
X91937834Y-51731385D01*
X91746565Y-51810611D01*
X91543516Y-51851000D01*
X91336484Y-51851000D01*
X91133435Y-51810611D01*
X90942166Y-51731385D01*
X90770024Y-51616363D01*
X90623637Y-51469976D01*
X90508615Y-51297834D01*
X90429389Y-51106565D01*
X90389000Y-50903516D01*
X90389000Y-50696484D01*
X90429389Y-50493435D01*
X90508615Y-50302166D01*
X90623637Y-50130024D01*
X90770024Y-49983637D01*
X90942166Y-49868615D01*
X91133435Y-49789389D01*
X91336484Y-49749000D01*
X91543516Y-49749000D01*
X91746565Y-49789389D01*
X91746565Y-49789389D01*
G37*
G36*
X113336565Y-49789389D02*
X113527834Y-49868615D01*
X113699976Y-49983637D01*
X113846363Y-50130024D01*
X113961385Y-50302166D01*
X114040611Y-50493435D01*
X114081000Y-50696484D01*
X114081000Y-50903516D01*
X114040611Y-51106565D01*
X113961385Y-51297834D01*
X113846363Y-51469976D01*
X113699976Y-51616363D01*
X113527834Y-51731385D01*
X113336565Y-51810611D01*
X113133516Y-51851000D01*
X112926484Y-51851000D01*
X112723435Y-51810611D01*
X112532166Y-51731385D01*
X112360024Y-51616363D01*
X112213637Y-51469976D01*
X112098615Y-51297834D01*
X112019389Y-51106565D01*
X111979000Y-50903516D01*
X111979000Y-50696484D01*
X112019389Y-50493435D01*
X112098615Y-50302166D01*
X112213637Y-50130024D01*
X112360024Y-49983637D01*
X112532166Y-49868615D01*
X112723435Y-49789389D01*
X112926484Y-49749000D01*
X113133516Y-49749000D01*
X113336565Y-49789389D01*
X113336565Y-49789389D01*
G37*
G36*
X115876565Y-49789389D02*
X116067834Y-49868615D01*
X116239976Y-49983637D01*
X116386363Y-50130024D01*
X116501385Y-50302166D01*
X116580611Y-50493435D01*
X116621000Y-50696484D01*
X116621000Y-50903516D01*
X116580611Y-51106565D01*
X116501385Y-51297834D01*
X116386363Y-51469976D01*
X116239976Y-51616363D01*
X116067834Y-51731385D01*
X115876565Y-51810611D01*
X115673516Y-51851000D01*
X115466484Y-51851000D01*
X115263435Y-51810611D01*
X115072166Y-51731385D01*
X114900024Y-51616363D01*
X114753637Y-51469976D01*
X114638615Y-51297834D01*
X114559389Y-51106565D01*
X114519000Y-50903516D01*
X114519000Y-50696484D01*
X114559389Y-50493435D01*
X114638615Y-50302166D01*
X114753637Y-50130024D01*
X114900024Y-49983637D01*
X115072166Y-49868615D01*
X115263435Y-49789389D01*
X115466484Y-49749000D01*
X115673516Y-49749000D01*
X115876565Y-49789389D01*
X115876565Y-49789389D01*
G37*
G36*
X118416565Y-49789389D02*
X118607834Y-49868615D01*
X118779976Y-49983637D01*
X118926363Y-50130024D01*
X119041385Y-50302166D01*
X119120611Y-50493435D01*
X119161000Y-50696484D01*
X119161000Y-50903516D01*
X119120611Y-51106565D01*
X119041385Y-51297834D01*
X118926363Y-51469976D01*
X118779976Y-51616363D01*
X118607834Y-51731385D01*
X118416565Y-51810611D01*
X118213516Y-51851000D01*
X118006484Y-51851000D01*
X117803435Y-51810611D01*
X117612166Y-51731385D01*
X117440024Y-51616363D01*
X117293637Y-51469976D01*
X117178615Y-51297834D01*
X117099389Y-51106565D01*
X117059000Y-50903516D01*
X117059000Y-50696484D01*
X117099389Y-50493435D01*
X117178615Y-50302166D01*
X117293637Y-50130024D01*
X117440024Y-49983637D01*
X117612166Y-49868615D01*
X117803435Y-49789389D01*
X118006484Y-49749000D01*
X118213516Y-49749000D01*
X118416565Y-49789389D01*
X118416565Y-49789389D01*
G37*
G36*
X132386565Y-49789389D02*
X132577834Y-49868615D01*
X132749976Y-49983637D01*
X132896363Y-50130024D01*
X133011385Y-50302166D01*
X133090611Y-50493435D01*
X133131000Y-50696484D01*
X133131000Y-50903516D01*
X133090611Y-51106565D01*
X133011385Y-51297834D01*
X132896363Y-51469976D01*
X132749976Y-51616363D01*
X132577834Y-51731385D01*
X132386565Y-51810611D01*
X132183516Y-51851000D01*
X131976484Y-51851000D01*
X131773435Y-51810611D01*
X131582166Y-51731385D01*
X131410024Y-51616363D01*
X131263637Y-51469976D01*
X131148615Y-51297834D01*
X131069389Y-51106565D01*
X131029000Y-50903516D01*
X131029000Y-50696484D01*
X131069389Y-50493435D01*
X131148615Y-50302166D01*
X131263637Y-50130024D01*
X131410024Y-49983637D01*
X131582166Y-49868615D01*
X131773435Y-49789389D01*
X131976484Y-49749000D01*
X132183516Y-49749000D01*
X132386565Y-49789389D01*
X132386565Y-49789389D01*
G37*
G36*
X134926565Y-49789389D02*
X135117834Y-49868615D01*
X135289976Y-49983637D01*
X135436363Y-50130024D01*
X135551385Y-50302166D01*
X135630611Y-50493435D01*
X135671000Y-50696484D01*
X135671000Y-50903516D01*
X135630611Y-51106565D01*
X135551385Y-51297834D01*
X135436363Y-51469976D01*
X135289976Y-51616363D01*
X135117834Y-51731385D01*
X134926565Y-51810611D01*
X134723516Y-51851000D01*
X134516484Y-51851000D01*
X134313435Y-51810611D01*
X134122166Y-51731385D01*
X133950024Y-51616363D01*
X133803637Y-51469976D01*
X133688615Y-51297834D01*
X133609389Y-51106565D01*
X133569000Y-50903516D01*
X133569000Y-50696484D01*
X133609389Y-50493435D01*
X133688615Y-50302166D01*
X133803637Y-50130024D01*
X133950024Y-49983637D01*
X134122166Y-49868615D01*
X134313435Y-49789389D01*
X134516484Y-49749000D01*
X134723516Y-49749000D01*
X134926565Y-49789389D01*
X134926565Y-49789389D01*
G37*
G36*
X137466565Y-49789389D02*
X137657834Y-49868615D01*
X137829976Y-49983637D01*
X137976363Y-50130024D01*
X138091385Y-50302166D01*
X138170611Y-50493435D01*
X138211000Y-50696484D01*
X138211000Y-50903516D01*
X138170611Y-51106565D01*
X138091385Y-51297834D01*
X137976363Y-51469976D01*
X137829976Y-51616363D01*
X137657834Y-51731385D01*
X137466565Y-51810611D01*
X137263516Y-51851000D01*
X137056484Y-51851000D01*
X136853435Y-51810611D01*
X136662166Y-51731385D01*
X136490024Y-51616363D01*
X136343637Y-51469976D01*
X136228615Y-51297834D01*
X136149389Y-51106565D01*
X136109000Y-50903516D01*
X136109000Y-50696484D01*
X136149389Y-50493435D01*
X136228615Y-50302166D01*
X136343637Y-50130024D01*
X136490024Y-49983637D01*
X136662166Y-49868615D01*
X136853435Y-49789389D01*
X137056484Y-49749000D01*
X137263516Y-49749000D01*
X137466565Y-49789389D01*
X137466565Y-49789389D01*
G37*
G36*
X151436565Y-49789389D02*
X151627834Y-49868615D01*
X151799976Y-49983637D01*
X151946363Y-50130024D01*
X152061385Y-50302166D01*
X152140611Y-50493435D01*
X152181000Y-50696484D01*
X152181000Y-50903516D01*
X152140611Y-51106565D01*
X152061385Y-51297834D01*
X151946363Y-51469976D01*
X151799976Y-51616363D01*
X151627834Y-51731385D01*
X151436565Y-51810611D01*
X151233516Y-51851000D01*
X151026484Y-51851000D01*
X150823435Y-51810611D01*
X150632166Y-51731385D01*
X150460024Y-51616363D01*
X150313637Y-51469976D01*
X150198615Y-51297834D01*
X150119389Y-51106565D01*
X150079000Y-50903516D01*
X150079000Y-50696484D01*
X150119389Y-50493435D01*
X150198615Y-50302166D01*
X150313637Y-50130024D01*
X150460024Y-49983637D01*
X150632166Y-49868615D01*
X150823435Y-49789389D01*
X151026484Y-49749000D01*
X151233516Y-49749000D01*
X151436565Y-49789389D01*
X151436565Y-49789389D01*
G37*
G36*
X153976565Y-49789389D02*
X154167834Y-49868615D01*
X154339976Y-49983637D01*
X154486363Y-50130024D01*
X154601385Y-50302166D01*
X154680611Y-50493435D01*
X154721000Y-50696484D01*
X154721000Y-50903516D01*
X154680611Y-51106565D01*
X154601385Y-51297834D01*
X154486363Y-51469976D01*
X154339976Y-51616363D01*
X154167834Y-51731385D01*
X153976565Y-51810611D01*
X153773516Y-51851000D01*
X153566484Y-51851000D01*
X153363435Y-51810611D01*
X153172166Y-51731385D01*
X153000024Y-51616363D01*
X152853637Y-51469976D01*
X152738615Y-51297834D01*
X152659389Y-51106565D01*
X152619000Y-50903516D01*
X152619000Y-50696484D01*
X152659389Y-50493435D01*
X152738615Y-50302166D01*
X152853637Y-50130024D01*
X153000024Y-49983637D01*
X153172166Y-49868615D01*
X153363435Y-49789389D01*
X153566484Y-49749000D01*
X153773516Y-49749000D01*
X153976565Y-49789389D01*
X153976565Y-49789389D01*
G37*
G36*
X156516565Y-49789389D02*
X156707834Y-49868615D01*
X156879976Y-49983637D01*
X157026363Y-50130024D01*
X157141385Y-50302166D01*
X157220611Y-50493435D01*
X157261000Y-50696484D01*
X157261000Y-50903516D01*
X157220611Y-51106565D01*
X157141385Y-51297834D01*
X157026363Y-51469976D01*
X156879976Y-51616363D01*
X156707834Y-51731385D01*
X156516565Y-51810611D01*
X156313516Y-51851000D01*
X156106484Y-51851000D01*
X155903435Y-51810611D01*
X155712166Y-51731385D01*
X155540024Y-51616363D01*
X155393637Y-51469976D01*
X155278615Y-51297834D01*
X155199389Y-51106565D01*
X155159000Y-50903516D01*
X155159000Y-50696484D01*
X155199389Y-50493435D01*
X155278615Y-50302166D01*
X155393637Y-50130024D01*
X155540024Y-49983637D01*
X155712166Y-49868615D01*
X155903435Y-49789389D01*
X156106484Y-49749000D01*
X156313516Y-49749000D01*
X156516565Y-49789389D01*
X156516565Y-49789389D01*
G37*
G36*
X96826565Y-49789389D02*
X97017834Y-49868615D01*
X97189976Y-49983637D01*
X97336363Y-50130024D01*
X97451385Y-50302166D01*
X97530611Y-50493435D01*
X97571000Y-50696484D01*
X97571000Y-50903516D01*
X97530611Y-51106565D01*
X97451385Y-51297834D01*
X97336363Y-51469976D01*
X97189976Y-51616363D01*
X97017834Y-51731385D01*
X96826565Y-51810611D01*
X96623516Y-51851000D01*
X96416484Y-51851000D01*
X96213435Y-51810611D01*
X96022166Y-51731385D01*
X95850024Y-51616363D01*
X95703637Y-51469976D01*
X95588615Y-51297834D01*
X95509389Y-51106565D01*
X95469000Y-50903516D01*
X95469000Y-50696484D01*
X95509389Y-50493435D01*
X95588615Y-50302166D01*
X95703637Y-50130024D01*
X95850024Y-49983637D01*
X96022166Y-49868615D01*
X96213435Y-49789389D01*
X96416484Y-49749000D01*
X96623516Y-49749000D01*
X96826565Y-49789389D01*
X96826565Y-49789389D01*
G37*
M02*
