M48
;DRILL file {KiCad (5.0.1-3-g963ef8bb5)} date Thursday, March 07, 2019 at 12:24:50 PM
;FORMAT={-:-/ absolute / inch / decimal}
FMAT,2
INCH,TZ
T1C0.0276
T2C0.0315
T3C0.0394
T4C0.0440
T5C0.0472
%
G90
G05
M72
T1
X5.75Y-3.35
X5.75Y-3.55
X3.8Y-2.95
X4.Y-2.95
X4.25Y-2.95
X4.45Y-2.95
X5.55Y-2.5
X5.55Y-2.7
X4.4Y-2.5
X4.4Y-2.7
X5.25Y-3.9
X5.45Y-3.9
X4.2Y-2.5
X4.2Y-2.7
X5.75Y-2.95
X5.95Y-2.95
X4.65Y-2.95
X4.85Y-2.95
X4.25Y-3.55
X4.45Y-3.55
X3.4Y-2.95
X3.6Y-2.95
X5.4Y-2.95
X5.6Y-2.95
X5.35Y-3.35
X5.35Y-3.55
X3.5Y-2.5
X3.5Y-2.7
X5.Y-2.95
X5.2Y-2.95
X5.55Y-3.35
X5.55Y-3.55
X5.9Y-3.35
X5.9Y-3.55
X3.9Y-2.5
X3.9Y-2.7
X4.75Y-2.5
X4.75Y-2.7
X5.8Y-2.5
X5.8Y-2.7
X6.1Y-2.95
X6.3Y-2.95
X4.2Y-2.1
X4.2Y-2.3
X5.05Y-2.5
X5.05Y-2.7
X6.3Y-2.5
X6.3Y-2.7
X4.85Y-2.1
X4.85Y-2.3
X5.65Y-3.75
X5.85Y-3.75
T2
X5.15Y-2.3
X5.4453Y-2.3
X3.4Y-3.2425
X3.4Y-3.3213
X3.4Y-3.4
X4.8047Y-3.65
X5.1Y-3.65
X5.3547Y-3.15
X5.65Y-3.15
X5.3Y-2.5
X5.3Y-2.7953
X5.6713Y-3.9
X5.75Y-3.9
X5.8287Y-3.9
X3.7Y-2.5047
X3.7Y-2.8
X4.55Y-2.5
X4.55Y-2.7953
X3.7425Y-3.9
X3.8213Y-3.9
X3.9Y-3.9
X4.85Y-3.9
X4.9287Y-3.9
X5.0075Y-3.9
X4.3Y-3.9
X4.3787Y-3.9
X4.4575Y-3.9
X6.05Y-2.5
X6.05Y-2.7953
X5.9047Y-2.3
X6.2Y-2.3
X3.5547Y-2.3
X3.85Y-2.3
X4.4047Y-2.3
X4.7Y-2.3
T3
X6.2Y-3.2
X6.4Y-3.2
X5.85Y-3.2
X6.05Y-3.2
T4
X6.1Y-3.45
X6.1Y-3.55
X6.1Y-3.65
X6.1Y-3.75
X6.4Y-3.45
X6.4Y-3.55
X6.4Y-3.65
X6.4Y-3.75
X4.75Y-3.15
X4.75Y-3.45
X4.85Y-3.15
X4.85Y-3.45
X4.95Y-3.15
X4.95Y-3.45
X5.05Y-3.15
X5.05Y-3.45
X3.8Y-3.15
X3.8Y-3.25
X3.8Y-3.35
X3.8Y-3.45
X4.1Y-3.15
X4.1Y-3.25
X4.1Y-3.35
X4.1Y-3.45
T5
X5.95Y-2.
X6.05Y-2.
X6.15Y-2.
X5.2Y-2.
X5.3Y-2.
X5.4Y-2.
X4.45Y-2.
X4.55Y-2.
X4.65Y-2.
X3.6Y-2.
X3.7Y-2.
X3.8Y-2.
T0
M30
