G04 #@! TF.GenerationSoftware,KiCad,Pcbnew,(5.0.2-5-10.14)*
G04 #@! TF.CreationDate,2019-03-15T18:51:59-07:00*
G04 #@! TF.ProjectId,Pre-amp,5072652d-616d-4702-9e6b-696361645f70,rev?*
G04 #@! TF.SameCoordinates,Original*
G04 #@! TF.FileFunction,Legend,Bot*
G04 #@! TF.FilePolarity,Positive*
%FSLAX46Y46*%
G04 Gerber Fmt 4.6, Leading zero omitted, Abs format (unit mm)*
G04 Created by KiCad (PCBNEW (5.0.2-5-10.14)) date Friday, March 15, 2019 at 06:51:59 PM*
%MOMM*%
%LPD*%
G01*
G04 APERTURE LIST*
%ADD10C,0.120000*%
%ADD11C,0.150000*%
G04 APERTURE END LIST*
D10*
G04 #@! TO.C,RV1*
X74911000Y-53461000D02*
X74911000Y-48420000D01*
X64870000Y-53461000D02*
X64870000Y-48420000D01*
X74911000Y-48420000D02*
X64870000Y-48420000D01*
X65965000Y-53461000D02*
X64870000Y-53461000D01*
X74911000Y-53461000D02*
X73816000Y-53461000D01*
X70964000Y-53461000D02*
X68815000Y-53461000D01*
X71510000Y-52103000D02*
X71510000Y-48420000D01*
X68270000Y-52103000D02*
X68270000Y-48420000D01*
X70964000Y-53461000D02*
X68815000Y-53461000D01*
X71510000Y-48420000D02*
X68270000Y-48420000D01*
G04 #@! TO.C,RV2*
X91830000Y-48420000D02*
X88590000Y-48420000D01*
X91284000Y-53461000D02*
X89135000Y-53461000D01*
X88590000Y-52103000D02*
X88590000Y-48420000D01*
X91830000Y-52103000D02*
X91830000Y-48420000D01*
X91284000Y-53461000D02*
X89135000Y-53461000D01*
X95231000Y-53461000D02*
X94136000Y-53461000D01*
X86285000Y-53461000D02*
X85190000Y-53461000D01*
X95231000Y-48420000D02*
X85190000Y-48420000D01*
X85190000Y-53461000D02*
X85190000Y-48420000D01*
X95231000Y-53461000D02*
X95231000Y-48420000D01*
G04 #@! TO.C,RV3*
X116741000Y-53461000D02*
X116741000Y-48420000D01*
X106700000Y-53461000D02*
X106700000Y-48420000D01*
X116741000Y-48420000D02*
X106700000Y-48420000D01*
X107795000Y-53461000D02*
X106700000Y-53461000D01*
X116741000Y-53461000D02*
X115646000Y-53461000D01*
X112794000Y-53461000D02*
X110645000Y-53461000D01*
X113340000Y-52103000D02*
X113340000Y-48420000D01*
X110100000Y-52103000D02*
X110100000Y-48420000D01*
X112794000Y-53461000D02*
X110645000Y-53461000D01*
X113340000Y-48420000D02*
X110100000Y-48420000D01*
G04 #@! TO.C,RV4*
X134930000Y-48420000D02*
X131690000Y-48420000D01*
X134384000Y-53461000D02*
X132235000Y-53461000D01*
X131690000Y-52103000D02*
X131690000Y-48420000D01*
X134930000Y-52103000D02*
X134930000Y-48420000D01*
X134384000Y-53461000D02*
X132235000Y-53461000D01*
X138331000Y-53461000D02*
X137236000Y-53461000D01*
X129385000Y-53461000D02*
X128290000Y-53461000D01*
X138331000Y-48420000D02*
X128290000Y-48420000D01*
X128290000Y-53461000D02*
X128290000Y-48420000D01*
X138331000Y-53461000D02*
X138331000Y-48420000D01*
G04 #@! TO.C,RV5*
X158731000Y-53461000D02*
X158731000Y-48420000D01*
X148690000Y-53461000D02*
X148690000Y-48420000D01*
X158731000Y-48420000D02*
X148690000Y-48420000D01*
X149785000Y-53461000D02*
X148690000Y-53461000D01*
X158731000Y-53461000D02*
X157636000Y-53461000D01*
X154784000Y-53461000D02*
X152635000Y-53461000D01*
X155330000Y-52103000D02*
X155330000Y-48420000D01*
X152090000Y-52103000D02*
X152090000Y-48420000D01*
X154784000Y-53461000D02*
X152635000Y-53461000D01*
X155330000Y-48420000D02*
X152090000Y-48420000D01*
G04 #@! TO.C,RV1*
D11*
X76492380Y-52744761D02*
X76016190Y-52411428D01*
X76492380Y-52173333D02*
X75492380Y-52173333D01*
X75492380Y-52554285D01*
X75540000Y-52649523D01*
X75587619Y-52697142D01*
X75682857Y-52744761D01*
X75825714Y-52744761D01*
X75920952Y-52697142D01*
X75968571Y-52649523D01*
X76016190Y-52554285D01*
X76016190Y-52173333D01*
X75492380Y-53030476D02*
X76492380Y-53363809D01*
X75492380Y-53697142D01*
X76492380Y-54554285D02*
X76492380Y-53982857D01*
X76492380Y-54268571D02*
X75492380Y-54268571D01*
X75635238Y-54173333D01*
X75730476Y-54078095D01*
X75778095Y-53982857D01*
G04 #@! TO.C,RV2*
X96812380Y-52744761D02*
X96336190Y-52411428D01*
X96812380Y-52173333D02*
X95812380Y-52173333D01*
X95812380Y-52554285D01*
X95860000Y-52649523D01*
X95907619Y-52697142D01*
X96002857Y-52744761D01*
X96145714Y-52744761D01*
X96240952Y-52697142D01*
X96288571Y-52649523D01*
X96336190Y-52554285D01*
X96336190Y-52173333D01*
X95812380Y-53030476D02*
X96812380Y-53363809D01*
X95812380Y-53697142D01*
X95907619Y-53982857D02*
X95860000Y-54030476D01*
X95812380Y-54125714D01*
X95812380Y-54363809D01*
X95860000Y-54459047D01*
X95907619Y-54506666D01*
X96002857Y-54554285D01*
X96098095Y-54554285D01*
X96240952Y-54506666D01*
X96812380Y-53935238D01*
X96812380Y-54554285D01*
G04 #@! TO.C,RV3*
X118322380Y-52744761D02*
X117846190Y-52411428D01*
X118322380Y-52173333D02*
X117322380Y-52173333D01*
X117322380Y-52554285D01*
X117370000Y-52649523D01*
X117417619Y-52697142D01*
X117512857Y-52744761D01*
X117655714Y-52744761D01*
X117750952Y-52697142D01*
X117798571Y-52649523D01*
X117846190Y-52554285D01*
X117846190Y-52173333D01*
X117322380Y-53030476D02*
X118322380Y-53363809D01*
X117322380Y-53697142D01*
X117322380Y-53935238D02*
X117322380Y-54554285D01*
X117703333Y-54220952D01*
X117703333Y-54363809D01*
X117750952Y-54459047D01*
X117798571Y-54506666D01*
X117893809Y-54554285D01*
X118131904Y-54554285D01*
X118227142Y-54506666D01*
X118274761Y-54459047D01*
X118322380Y-54363809D01*
X118322380Y-54078095D01*
X118274761Y-53982857D01*
X118227142Y-53935238D01*
G04 #@! TO.C,RV4*
X139912380Y-52744761D02*
X139436190Y-52411428D01*
X139912380Y-52173333D02*
X138912380Y-52173333D01*
X138912380Y-52554285D01*
X138960000Y-52649523D01*
X139007619Y-52697142D01*
X139102857Y-52744761D01*
X139245714Y-52744761D01*
X139340952Y-52697142D01*
X139388571Y-52649523D01*
X139436190Y-52554285D01*
X139436190Y-52173333D01*
X138912380Y-53030476D02*
X139912380Y-53363809D01*
X138912380Y-53697142D01*
X139245714Y-54459047D02*
X139912380Y-54459047D01*
X138864761Y-54220952D02*
X139579047Y-53982857D01*
X139579047Y-54601904D01*
G04 #@! TO.C,RV5*
X160312380Y-52744761D02*
X159836190Y-52411428D01*
X160312380Y-52173333D02*
X159312380Y-52173333D01*
X159312380Y-52554285D01*
X159360000Y-52649523D01*
X159407619Y-52697142D01*
X159502857Y-52744761D01*
X159645714Y-52744761D01*
X159740952Y-52697142D01*
X159788571Y-52649523D01*
X159836190Y-52554285D01*
X159836190Y-52173333D01*
X159312380Y-53030476D02*
X160312380Y-53363809D01*
X159312380Y-53697142D01*
X159312380Y-54506666D02*
X159312380Y-54030476D01*
X159788571Y-53982857D01*
X159740952Y-54030476D01*
X159693333Y-54125714D01*
X159693333Y-54363809D01*
X159740952Y-54459047D01*
X159788571Y-54506666D01*
X159883809Y-54554285D01*
X160121904Y-54554285D01*
X160217142Y-54506666D01*
X160264761Y-54459047D01*
X160312380Y-54363809D01*
X160312380Y-54125714D01*
X160264761Y-54030476D01*
X160217142Y-53982857D01*
G04 #@! TD*
M02*
